<svg width="32" height="32" viewBox="0 0 32 32" fill="none" xmlns="http://www.w3.org/2000/svg">
<g clip-path="url(#clip0_16_138)">
<path d="M16 32C24.8366 32 32 24.8366 32 16C32 7.16344 24.8366 0 16 0C7.16344 0 0 7.16344 0 16C0 24.8366 7.16344 32 16 32Z" fill="#F1CB60"/>
<path d="M15.263 24.856V26.319H16V24.13H14.537V24.856H15.263ZM7.92601 16.826H7.20001V20.478H7.92601V19.015H8.66301V17.552H7.92601V16.826ZM16.737 21.204H17.463V23.393H16.737V21.204ZM16 23.393H16.737V24.13H16V23.393ZM8.66301 22.667H10.863V24.856H8.66301V22.667ZM7.20001 15.363H7.93701V16.089H7.20001V15.363ZM11.6 13.9H12.337V14.637H11.6V13.9ZM16 13.163H16.737V14.626H16V13.163ZM6.46301 10.974H8.66301V13.163H6.46301V10.974ZM13.063 24.856H13.8V26.319H13.063V24.856ZM13.8 13.163H13.074V14.626H13.8V13.9H14.537V12.437H13.8V13.163ZM14.537 11.711H15.263V12.437H14.537V11.711ZM14.537 13.9H15.263V14.626H14.537V13.9ZM10.863 15.363H13.063V16.089H10.863V15.363Z" fill="white"/>
<path d="M13.8 12.437V11.711H14.526V10.974H13.8V9.522H11.6V10.248H13.063V10.974H12.326V11.7H11.6V12.426H10.874V11.711H10.126V10.985H10.863V11.7H11.6V10.974H10.874V9.522H5V14.637H10.874V13.9H11.6V12.437H12.337V13.163H13.074V12.437H13.8ZM9.4 13.9H5.737V10.248H9.4V13.9ZM10.126 13.9V12.437H10.863V13.9H10.126ZM13.063 11.7V10.985H13.8V11.7H13.063ZM18.937 19.741V19.015H17.463V17.552H16.737V18.278H16.011V17.552H16.737V15.352H15.274V16.089H14.526V17.552H13.8V18.278H14.537V17.552H15.263V19.741H13.8V19.015H13.063V17.552H12.337V16.826H10.863V16.1H10.126V15.374H8.663V16.1H7.926V16.826H8.663V17.552H9.4V16.826H10.137V17.552H9.4V18.278H10.137V19.004H10.863V18.278H11.6V17.552H12.326V18.278H11.6V19.004H10.874V20.467H12.337V21.204H10.863V20.478H10.126V21.204H8.663V20.478H7.937V21.204H7.2V26.319H12.337V21.93H13.063V24.13H14.537V23.404H15.274V21.93H14.537V21.204H13.8V21.93H13.074V20.467H15.274V21.193H16.011V19.741H17.463V20.478H18.2V19.741H18.937ZM11.6 25.582H7.937V21.93H11.6V25.582ZM12.337 19.741H11.6V19.015H12.337V19.741ZM13.8 22.667H14.537V23.393H13.8V22.667ZM18.937 9.522H19.663V10.974H18.937V9.522ZM17.463 9.522H16.737V11.711H16V12.437H16.737V13.163H17.463V14.626H18.2V13.163H18.937V14.637H19.663V13.9H20.4V12.437H18.937V10.974H17.463V9.522Z" fill="white"/>
<path fill-rule="evenodd" clip-rule="evenodd" d="M24.063 17.552H22.6V18.278H21.863V19.015H21.137V16.826H21.863V16.089H21.137V16.815H20.4V17.552H19.663V16.089H18.937V17.552H18.2V18.289L18.937 18.278H19.663V19.741H21.863V20.478H19.663V21.204H18.937V21.93H18.2V22.667H18.937V23.393H18.2V24.13H18.937V24.856H19.663V25.582H18.937V26.319H24.8V21.93H24.063V25.582H20.4V21.93H22.6V19.015H23.337V19.741H24.8V18.289H24.074V17.552H24.8V15.363H24.063V17.552Z" fill="white"/>
<path d="M18.2 20.478H18.937V21.204H18.2V20.478ZM21.863 16.826H22.6V17.552H21.863V16.826ZM23.337 20.478H24.8V21.215H23.337V20.478ZM23.337 10.985H25.537V13.174H23.337V10.985ZM20.4 13.9H21.137V14.637H20.4V13.9ZM17.463 15.363H18.2V16.089H17.463V15.363ZM22.6 15.363H23.337V16.089H22.6V15.363ZM21.137 22.667H23.337V24.856H21.137V22.667ZM20.4 15.363H21.137V16.089H20.4V15.363ZM15.263 10.974H16V11.711H15.263V10.974Z" fill="white"/>
<path d="M20.4 9.52199V10.248H21.863V10.974H21.126V11.7H20.4V10.974H19.663V11.711H20.4V12.426H21.137V13.152H21.874V14.615H27V9.52199H20.4ZM26.263 13.9H22.6V10.248H26.263V13.9ZM9.851 8.23499C10.357 8.57599 10.929 8.64199 11.38 8.66399C11.765 8.68599 12.414 8.68599 13.096 8.68599C14.361 8.68599 15.846 8.70799 16 8.70799C16.407 8.71899 17.65 8.71899 18.75 8.71899C19.432 8.71899 20.07 8.70799 20.466 8.69699C20.917 8.67499 21.489 8.59799 21.995 8.26799C22.633 7.83899 22.952 7.13499 22.952 6.17799C22.952 5.40799 22.633 4.94599 22.369 4.68199C21.654 3.98899 20.554 4.03299 20.191 4.04399H20.147C19.927 4.04399 19.135 4.16499 18.2 4.69299C17.375 5.15499 16.66 5.81499 16.077 6.63999L16.011 6.80499L15.956 6.71699C15.34 5.79299 14.537 5.16599 13.646 4.65999C12.722 4.13199 11.93 4.02199 11.71 4.02199H11.666C11.303 4.01099 10.203 3.96699 9.488 4.65999C9.004 5.12199 8.905 5.72699 8.905 6.15599C8.894 7.10199 9.213 7.80599 9.851 8.23499ZM18.739 5.77099C19.52 5.31999 20.114 5.25399 20.158 5.25399H20.235C20.862 5.23199 21.302 5.33099 21.533 5.55099C21.676 5.69399 21.753 5.89199 21.753 6.17799C21.753 7.22299 21.258 7.45399 20.411 7.49799C19.696 7.53099 18.035 7.51999 16.957 7.50899C17.4005 6.79312 18.0123 6.19648 18.739 5.77099ZM10.313 5.51799C10.522 5.31999 10.896 5.22099 11.435 5.22099H11.699C11.743 5.22099 12.337 5.28699 13.118 5.73799C13.822 6.14499 14.427 6.72799 14.911 7.47599C13.822 7.48699 12.161 7.49799 11.446 7.46499C10.599 7.42099 10.104 7.18999 10.104 6.14499C10.104 5.85899 10.17 5.66099 10.313 5.51799ZM17.463 24.856H16.737V26.319H17.474V24.856H18.2V24.13H17.463V24.856Z" fill="white"/>
</g>
<defs>
<clipPath id="clip0_16_138">
<rect width="32" height="32" fill="white"/>
</clipPath>
</defs>
</svg>
