<svg width="32" height="32" viewBox="0 0 32 32" fill="none" xmlns="http://www.w3.org/2000/svg">
<g clip-path="url(#clip0_16_155)">
<path d="M16 32C24.8366 32 32 24.8366 32 16C32 7.16344 24.8366 0 16 0C7.16344 0 0 7.16344 0 16C0 24.8366 7.16344 32 16 32Z" fill="#3EFFFF"/>
<path d="M6.5 10.487L16 5L25.5 10.487V21.513L16 27L6.5 21.513V10.487ZM7.412 20.457L11.222 18.252L13.155 14.867L7.412 11.544V20.457ZM7.869 21.248L15.571 25.697V21.44L11.533 19.127L7.869 21.247V21.248ZM24.588 11.575L18.896 14.868L20.828 18.25L24.588 20.426V11.575ZM24.158 10.767L16.483 6.334V10.643L18.443 14.074L24.158 10.767ZM18.111 15.322L16.939 16L19.264 17.345L18.111 15.322ZM17.658 14.528L16.483 12.468V15.208L17.658 14.528ZM12.794 17.343L15.114 16L13.945 15.324L12.795 17.343H12.794ZM12.448 18.599L15.571 20.387V16.792L12.448 18.599ZM7.868 10.752L13.608 14.072L15.571 10.637V6.303L7.868 10.752ZM24.158 21.233L20.522 19.129L16.483 21.47V25.666L24.158 21.233ZM19.61 18.601L16.483 16.792V20.414L19.61 18.6V18.601ZM14.398 14.53L15.571 15.208V12.473L14.398 14.53Z" fill="white"/>
</g>
<defs>
<clipPath id="clip0_16_155">
<rect width="32" height="32" fill="white"/>
</clipPath>
</defs>
</svg>
