<svg width="32" height="32" viewBox="0 0 32 32" fill="none" xmlns="http://www.w3.org/2000/svg">
<g clip-path="url(#clip0_16_184)">
<path d="M16 32C24.8366 32 32 24.8366 32 16C32 7.16344 24.8366 0 16 0C7.16344 0 0 7.16344 0 16C0 24.8366 7.16344 32 16 32Z" fill="#134451"/>
<path d="M13.999 16.322C13.502 16.322 13.126 16.406 12.866 16.565C12.616 16.72 12.49 16.955 12.49 17.263C12.49 17.493 12.568 17.679 12.715 17.811C12.866 17.944 13.078 18.01 13.342 18.01C13.752 18.01 14.094 17.882 14.366 17.63C14.639 17.374 14.824 17.016 14.916 16.557L14.958 16.322H13.998H13.999ZM19.263 14.153C19.112 14.021 18.9 13.955 18.637 13.955C18.226 13.955 17.884 14.083 17.612 14.335C17.34 14.591 17.154 14.949 17.063 15.408L17.02 15.642L17.98 15.638C18.477 15.638 18.853 15.554 19.112 15.395C19.362 15.24 19.488 15.006 19.488 14.697C19.488 14.467 19.415 14.286 19.263 14.153Z" fill="white"/>
<path d="M26.965 14.71C26.637 11.746 21.455 9.91198 15.395 10.615C9.33499 11.317 4.68899 14.29 5.01699 17.255C5.34599 20.219 10.524 22.052 16.587 21.35C22.652 20.647 27.294 17.674 26.965 14.71ZM20.625 16.194C20.011 16.632 19.116 16.848 17.941 16.853L16.8 16.857L16.765 17.02C16.7546 17.0558 16.7489 17.0927 16.748 17.13C16.743 17.153 16.743 17.175 16.743 17.193C16.743 17.445 16.86 17.63 17.089 17.753C17.319 17.882 17.659 17.943 18.105 17.943C18.528 17.943 18.935 17.895 19.319 17.807C19.699 17.718 20.067 17.586 20.417 17.409L20.127 18.964C19.691 19.07 19.272 19.154 18.857 19.207C18.4575 19.2642 18.0546 19.294 17.651 19.296C17.098 19.296 16.64 19.229 16.272 19.088C15.892 18.942 15.468 18.624 15.257 18.169C14.8657 18.5421 14.4122 18.844 13.917 19.061C13.4577 19.2571 12.9634 19.3578 12.464 19.357C11.834 19.362 11.336 19.207 10.982 18.902C10.623 18.598 10.446 18.173 10.442 17.639C10.437 16.817 10.744 16.194 11.354 15.761C11.967 15.324 12.862 15.108 14.038 15.103L15.178 15.099L15.213 14.935C15.2237 14.8992 15.2297 14.8623 15.231 14.825C15.235 14.803 15.235 14.781 15.235 14.763C15.235 14.511 15.118 14.326 14.889 14.202C14.66 14.074 14.319 14.012 13.873 14.012C13.45 14.012 13.043 14.061 12.659 14.149C12.279 14.237 11.911 14.369 11.561 14.547L11.851 12.992C12.287 12.886 12.706 12.802 13.121 12.749C13.5205 12.6917 13.9234 12.662 14.327 12.66C14.881 12.66 15.339 12.727 15.707 12.868C16.087 13.014 16.51 13.332 16.722 13.787C17.1132 13.4135 17.5667 13.1113 18.062 12.894C18.5209 12.698 19.0149 12.5973 19.514 12.598C20.145 12.594 20.642 12.748 20.996 13.053C21.356 13.358 21.532 13.783 21.536 14.317C21.541 15.134 21.239 15.761 20.625 16.194Z" fill="white"/>
<path d="M16.523 21.703C15.646 21.805 14.777 21.853 13.934 21.853C11.928 21.853 10.053 21.571 8.49199 21.018C7.84652 20.7959 7.22905 20.4996 6.65199 20.135C6.43899 21.253 6.58199 22.238 7.13099 22.971C8.70799 25.078 13.121 24.407 17.487 21.571C17.167 21.619 16.847 21.663 16.523 21.703ZM15.499 10.306C18.459 9.96099 21.312 10.204 23.529 10.99C24.1752 11.2122 24.7934 11.5089 25.371 11.874C25.582 10.756 25.44 9.77099 24.891 9.03799C23.313 6.93099 18.901 7.60199 14.535 10.438C14.855 10.385 15.179 10.341 15.499 10.306Z" fill="white"/>
<path d="M12.279 24.265C11.7017 24.4032 11.1122 24.4846 10.519 24.508C10.965 25.688 11.661 26.514 12.581 26.823C14.803 27.57 17.677 25.123 19.713 21.071C19.233 21.204 18.736 21.323 18.235 21.425C16.246 22.83 14.172 23.824 12.279 24.265ZM19.877 7.71199C20.4546 7.57645 21.0441 7.49807 21.637 7.47799C21.195 6.29799 20.504 5.46799 19.583 5.15499C17.366 4.39899 14.479 6.83299 12.43 10.871C12.91 10.739 13.407 10.624 13.912 10.527C15.901 9.12699 17.98 8.14499 19.877 7.71199Z" fill="white"/>
</g>
<defs>
<clipPath id="clip0_16_184">
<rect width="32" height="32" fill="white"/>
</clipPath>
</defs>
</svg>
