<svg width="32" height="32" viewBox="0 0 32 32" fill="none" xmlns="http://www.w3.org/2000/svg">
<g clip-path="url(#clip0_16_198)">
<path d="M16 32C24.8366 32 32 24.8366 32 16C32 7.16344 24.8366 0 16 0C7.16344 0 0 7.16344 0 16C0 24.8366 7.16344 32 16 32Z" fill="#6916FF"/>
<path d="M17.144 6.42401C17.0884 6.38391 17.0494 6.3248 17.0345 6.2579C17.0196 6.191 17.0297 6.12094 17.063 6.06101C17.1095 6.03116 17.1637 6.01529 17.219 6.01529C17.2743 6.01529 17.3284 6.03116 17.375 6.06101C18.0797 6.35357 18.7176 6.78633 19.25 7.33301C19.553 7.61401 19.807 7.94201 20 8.30301C20.204 8.67101 20.371 9.05601 20.5 9.45501C20.623 9.86801 20.687 10.297 20.688 10.727C20.625 11.152 20.563 13.212 19.375 14.182C19.2238 14.2729 19.0443 14.3046 18.8711 14.271C18.6978 14.2374 18.5432 14.1409 18.437 14C18.3521 13.9005 18.3005 13.7768 18.2893 13.6465C18.2782 13.5161 18.3082 13.3855 18.375 13.273C18.8801 12.4911 19.1591 11.5847 19.1811 10.6541C19.2032 9.72354 18.9674 8.80498 18.5 8.00001C18.1 7.43401 17.646 6.90701 17.144 6.42401ZM15.3 25.006C15.425 25.127 15.425 25.248 15.363 25.309C15.301 25.37 15.175 25.43 15.113 25.369C14.4082 25.0765 13.7703 24.6437 13.238 24.097C12.9359 23.8175 12.6824 23.4897 12.488 23.127C12.2844 22.7605 12.1169 22.375 11.988 21.976C11.8644 21.5629 11.8011 21.1342 11.8 20.703C11.863 20.279 11.925 18.218 13.113 17.248C13.2641 17.1574 13.4434 17.1258 13.6164 17.1594C13.7893 17.193 13.9438 17.2894 14.05 17.43C14.141 17.5294 14.1915 17.6593 14.1915 17.794C14.1915 17.9288 14.141 18.0586 14.05 18.158C13.5451 18.9398 13.2662 19.846 13.2442 20.7764C13.2221 21.7068 13.4577 22.6252 13.925 23.43C14.33 23.997 14.791 24.525 15.3 25.006Z" fill="white" fill-opacity="0.5"/>
<path d="M20.694 20.006C20.6035 18.8425 20.1434 17.7385 19.381 16.855C18.6092 16.0793 17.7241 15.4252 16.756 14.915C15.9115 14.4482 15.1159 13.8982 14.381 13.273C13.7766 12.7049 13.3621 11.9643 13.194 11.152C13.0447 10.3134 13.1514 9.44921 13.5 8.672C13.9177 7.80734 14.5166 7.04269 15.256 6.43C15.2976 6.39291 15.3261 6.34345 15.3375 6.2889C15.3488 6.23434 15.3423 6.17759 15.319 6.127C15.3012 6.09511 15.2763 6.06767 15.2464 6.04675C15.2164 6.02582 15.1821 6.01196 15.146 6.00618C15.1099 6.00041 15.073 6.00288 15.038 6.01342C15.003 6.02395 14.9709 6.04227 14.944 6.067C13.948 6.50149 13.1006 7.21748 12.506 8.127C11.841 9.08251 11.5295 10.2398 11.625 11.4C11.6749 11.9862 11.8229 12.5599 12.063 13.097C12.3228 13.6287 12.6597 14.119 13.063 14.552C13.8577 15.3113 14.7638 15.9446 15.75 16.43C16.598 16.87 17.395 17.399 18.125 18.006C18.7672 18.5695 19.1882 19.3428 19.313 20.188C19.489 21.067 19.379 21.978 19 22.794C18.5746 23.6531 17.9536 24.4004 17.187 24.976C17.1616 24.9906 17.1397 25.0103 17.1225 25.034C17.1053 25.0577 17.0934 25.0847 17.0874 25.1134C17.0815 25.142 17.0817 25.1715 17.088 25.2001C17.0943 25.2286 17.1065 25.2555 17.124 25.279C17.159 25.343 17.224 25.389 17.297 25.4C17.37 25.411 17.446 25.39 17.5 25.34C18.4292 24.8035 19.2377 24.0811 19.875 23.218C20.495 22.26 20.781 21.134 20.694 20.006Z" fill="white"/>
</g>
<defs>
<clipPath id="clip0_16_198">
<rect width="32" height="32" fill="white"/>
</clipPath>
</defs>
</svg>
