<svg width="32" height="32" viewBox="0 0 32 32" fill="none" xmlns="http://www.w3.org/2000/svg">
<g clip-path="url(#clip0_16_222)">
<path d="M16 32C24.8366 32 32 24.8366 32 16C32 7.16344 24.8366 0 16 0C7.16344 0 0 7.16344 0 16C0 24.8366 7.16344 32 16 32Z" fill="#2DAEE4"/>
<path fill-rule="evenodd" clip-rule="evenodd" d="M8.303 11.957H8.413C9.376 11.939 10.213 11.575 10.923 10.866C11.613 10.12 11.959 9.26501 11.959 8.30101C11.959 7.81001 12.136 7.38701 12.491 7.03201C12.6592 6.85952 12.861 6.72333 13.0839 6.63183C13.3068 6.54034 13.5461 6.49547 13.787 6.50001C14.277 6.50001 14.701 6.67701 15.055 7.03201C15.41 7.38701 15.587 7.81001 15.587 8.30101C15.587 8.79101 15.419 9.21501 15.083 9.57001C14.9285 9.73992 14.7414 9.87698 14.5329 9.97303C14.3243 10.0691 14.0985 10.1221 13.869 10.129C12.832 10.092 11.941 10.447 11.195 11.193C10.449 11.939 10.095 12.812 10.131 13.813C10.167 14.849 10.541 15.713 11.25 16.404C12.032 17.095 12.905 17.432 13.869 17.414C14.0986 17.421 14.3244 17.4742 14.533 17.5704C14.7416 17.6667 14.9286 17.8039 15.083 17.974C15.419 18.328 15.587 18.742 15.587 19.214C15.587 19.724 15.41 20.156 15.055 20.511C14.8912 20.6816 14.6941 20.8167 14.4761 20.9082C14.258 20.9997 14.0235 21.0456 13.787 21.043C13.277 21.043 12.846 20.865 12.491 20.511C12.3185 20.3428 12.1823 20.141 12.0908 19.9181C11.9993 19.6952 11.9545 19.4559 11.959 19.215C11.9667 18.748 11.8787 18.2843 11.7003 17.8527C11.522 17.421 11.2571 17.0304 10.922 16.705C10.5984 16.3617 10.2099 16.086 9.7791 15.8938C9.34828 15.7015 8.88362 15.5966 8.412 15.585C8.067 15.604 7.772 15.549 7.526 15.422C7.28433 15.2981 7.07793 15.1151 6.926 14.89C6.76931 14.6584 6.65801 14.3991 6.598 14.126C6.5351 13.8533 6.52155 13.5715 6.558 13.294C6.794 12.403 7.376 11.957 8.303 11.957ZM8.328 17.414C8.801 17.414 9.215 17.587 9.569 17.933C9.924 18.278 10.11 18.688 10.129 19.161C10.11 20.161 10.456 21.034 11.165 21.78C11.875 22.507 12.729 22.871 13.73 22.871H13.812C14.794 22.871 15.639 22.507 16.349 21.78C17.076 21.052 17.431 20.18 17.413 19.16C17.4116 18.6828 17.3115 18.2111 17.1189 17.7744C16.9263 17.3378 16.6455 16.9458 16.294 16.623C15.576 15.94 14.741 15.594 13.787 15.586H13.675C13.4455 15.5791 13.2197 15.5261 13.0111 15.43C12.8025 15.334 12.6155 15.1969 12.461 15.027C12.2974 14.8591 12.1686 14.6606 12.0819 14.4429C11.9953 14.2251 11.9525 13.9924 11.956 13.758C11.956 13.268 12.134 12.844 12.488 12.489C12.789 12.189 13.146 12.015 13.558 11.969L13.678 11.957L13.724 11.958C13.7717 11.9567 13.8194 11.9571 13.867 11.959C14.807 11.947 15.625 11.592 16.324 10.893C17.07 10.147 17.434 9.26501 17.415 8.24601C17.415 7.84601 17.552 7.48201 17.825 7.15501L17.852 7.12801L17.879 7.10001C17.879 7.08201 17.889 7.07301 17.906 7.07301L17.934 7.04601V7.01901H17.961V6.99001C17.979 6.99001 17.988 6.98101 17.988 6.96301L18.015 6.93601H18.07C18.07 6.91701 18.08 6.90801 18.097 6.90801L18.125 6.88101V6.85401H18.179C18.179 6.83501 18.189 6.82601 18.206 6.82601L18.234 6.79901L18.261 6.77201H18.288C18.288 6.75401 18.298 6.74501 18.316 6.74501C18.334 6.74501 18.343 6.73501 18.343 6.71701H18.37L18.397 6.69001H18.452V6.66301H18.479L18.507 6.63501H18.561V6.61001H18.616L18.643 6.58301H18.698L18.725 6.55601H18.807L18.834 6.52801H18.916C18.934 6.52801 18.943 6.51901 18.943 6.50101H19.516L19.53 6.51501C19.539 6.52401 19.552 6.52801 19.57 6.52801H19.625L19.639 6.54201C19.648 6.55101 19.661 6.55601 19.679 6.55601H19.734L19.761 6.58301H19.816L19.843 6.61001H19.898C19.916 6.62801 19.934 6.63701 19.952 6.63701L19.98 6.66501H20.034V6.69201H20.062L20.089 6.71901L20.102 6.73301C20.112 6.74301 20.125 6.74701 20.143 6.74701L20.171 6.77401H20.198C20.198 6.79201 20.216 6.80101 20.252 6.80101L20.28 6.82801V6.85601H20.307C20.307 6.87401 20.325 6.88301 20.362 6.88301C20.362 6.90101 20.371 6.91001 20.389 6.91001V6.93801H20.416L20.444 6.96501C20.462 6.98301 20.48 6.99201 20.498 6.99201L20.525 7.02001C20.525 7.03801 20.535 7.04701 20.553 7.04701V7.07401H20.58C20.58 7.09201 20.585 7.10601 20.594 7.11401L20.607 7.12901C20.607 7.14701 20.617 7.15601 20.635 7.15601L20.662 7.18301C20.662 7.20101 20.666 7.21501 20.675 7.22401L20.689 7.23801L20.716 7.26501L20.744 7.29201V7.34701L20.771 7.37401V7.40001H20.798C20.798 7.41901 20.803 7.43201 20.812 7.44101L20.825 7.45501C20.825 7.47301 20.835 7.48201 20.853 7.48201V7.51001C20.853 7.52801 20.857 7.54101 20.866 7.55001L20.88 7.56401L20.907 7.59101C20.907 7.62801 20.917 7.64601 20.935 7.64601V7.67301C20.935 7.69201 20.939 7.70501 20.948 7.71401L20.962 7.72801V7.78201L20.989 7.81001V7.89201C21.007 7.91001 21.016 7.92801 21.016 7.94601V8.02801C21.035 8.04601 21.044 8.06401 21.044 8.08301V8.30001C21.044 9.26401 21.389 10.119 22.08 10.865C22.79 11.574 23.636 11.938 24.618 11.956C25.108 11.938 25.545 12.106 25.928 12.461C26.309 12.815 26.5 13.247 26.5 13.757C26.5 14.266 26.323 14.697 25.968 15.053C25.804 15.2237 25.6069 15.3589 25.3886 15.4504C25.1703 15.5419 24.9356 15.5877 24.699 15.585C24.4648 15.5884 24.2323 15.5455 24.0147 15.4589C23.7971 15.3722 23.5987 15.2435 23.431 15.08C23.2589 14.9213 23.1205 14.7295 23.0243 14.5161C22.9281 14.3027 22.8759 14.0721 22.871 13.838C22.89 12.838 22.526 11.956 21.781 11.192C21.053 10.464 20.171 10.11 19.134 10.128C18.6624 10.1395 18.1978 10.2442 17.767 10.4363C17.3362 10.6284 16.9477 10.9039 16.624 11.247C16.2889 11.5724 16.0239 11.9629 15.8456 12.3946C15.6672 12.8263 15.5792 13.29 15.587 13.757L15.586 13.841C15.606 14.771 15.951 15.598 16.622 16.321C17.331 17.031 18.177 17.395 19.159 17.413C19.813 17.377 20.314 17.613 20.659 18.123C21.005 18.613 21.114 19.133 20.987 19.678C20.732 20.588 20.15 21.042 19.241 21.042H19.159C18.14 21.078 17.294 21.452 16.622 22.161C15.93 22.852 15.585 23.698 15.585 24.698C15.585 25.189 15.408 25.612 15.053 25.967C14.889 26.1377 14.6919 26.2729 14.4736 26.3644C14.2553 26.4559 14.0206 26.5017 13.784 26.499H13.73C13.239 26.499 12.82 26.322 12.475 25.967C12.3078 25.8011 12.1756 25.6033 12.0865 25.3853C11.9973 25.1673 11.9529 24.9335 11.956 24.698C11.956 23.698 11.611 22.852 10.92 22.161C10.5963 21.8179 10.2078 21.5424 9.77699 21.3503C9.34617 21.1582 8.88155 21.0535 8.41 21.042C8.16228 21.0558 7.91439 21.0181 7.68202 20.9311C7.44964 20.8442 7.23784 20.71 7.06 20.537C6.87846 20.3686 6.73468 20.1636 6.63816 19.9355C6.54163 19.7075 6.49454 19.4616 6.5 19.214C6.5 18.723 6.677 18.3 7.032 17.945C7.20024 17.7725 7.40202 17.6363 7.62492 17.5448C7.84782 17.4533 8.0871 17.4085 8.328 17.413V17.414Z" fill="white"/>
</g>
<defs>
<clipPath id="clip0_16_222">
<rect width="32" height="32" fill="white"/>
</clipPath>
</defs>
</svg>
