<svg width="32" height="32" viewBox="0 0 32 32" fill="none" xmlns="http://www.w3.org/2000/svg">
<g clip-path="url(#clip0_16_293)">
<path d="M16 32C24.8366 32 32 24.8366 32 16C32 7.16344 24.8366 0 16 0C7.16344 0 0 7.16344 0 16C0 24.8366 7.16344 32 16 32Z" fill="#34318A"/>
<path d="M10.854 13.264L14.464 15.184L16.384 14.224L11.795 11.738V7.36L20.618 11.94L22.538 10.98L11.238 5.056C11.1091 4.9883 10.965 4.95504 10.8195 4.95943C10.674 4.96382 10.5321 5.00572 10.4076 5.08107C10.2831 5.15641 10.1801 5.26265 10.1087 5.38948C10.0373 5.51631 9.99984 5.65944 10 5.805V11.872C10.003 12.459 10.332 12.996 10.854 13.264ZM24.611 12.246C24.4862 12.1248 24.327 12.045 24.1552 12.0176C23.9834 11.9902 23.8073 12.0166 23.651 12.093L10.854 18.736C10.329 19.006 9.999 19.547 10 20.138V26.195C9.99984 26.3406 10.0373 26.4837 10.1087 26.6105C10.1801 26.7373 10.2831 26.8436 10.4076 26.9189C10.5321 26.9943 10.674 27.0362 10.8195 27.0406C10.965 27.045 11.1091 27.0117 11.238 26.944L24.006 20.32C24.539 20.044 24.87 19.49 24.861 18.89V12.842C24.861 12.731 24.8389 12.6212 24.796 12.5188C24.7531 12.4165 24.6902 12.3237 24.611 12.246ZM23.075 18.784L11.795 24.64V20.262L23.075 14.406V18.784Z" fill="white"/>
</g>
<defs>
<clipPath id="clip0_16_293">
<rect width="32" height="32" fill="white"/>
</clipPath>
</defs>
</svg>
