<svg width="32" height="32" viewBox="0 0 32 32" fill="none" xmlns="http://www.w3.org/2000/svg">
<g clip-path="url(#clip0_16_301)">
<path d="M16 32C24.8366 32 32 24.8366 32 16C32 7.16344 24.8366 0 16 0C7.16344 0 0 7.16344 0 16C0 24.8366 7.16344 32 16 32Z" fill="#3355B5"/>
<path d="M16 4C9.373 4 4 9.373 4 16C4 22.627 9.373 28 16 28C22.627 28 28 22.627 28 16C28 12.8174 26.7357 9.76515 24.4853 7.51472C22.2348 5.26428 19.1826 4 16 4ZM16 27.77C9.5 27.77 4.23 22.5 4.23 16C4.23 9.5 9.5 4.23 16 4.23C22.5 4.23 27.77 9.5 27.77 16C27.77 19.1216 26.53 22.1153 24.3226 24.3226C22.1153 26.53 19.1216 27.77 16 27.77Z" fill="white"/>
<path fill-rule="evenodd" clip-rule="evenodd" d="M19.29 13.5L19.26 13.39L19.23 13.28L19.2 13.16L19.16 13.06L19.13 12.95L19.09 12.85L19.04 12.74L19 12.64L18.95 12.55L18.9 12.45L18.85 12.36L18.79 12.27L18.74 12.19L18.68 12.1L18.62 12.03L18.55 11.95L18.49 11.88L18.43 11.81L18.36 11.75L18.29 11.69L18.22 11.63L18.15 11.58L18.07 11.53L18 11.49L17.92 11.44L17.85 11.41L17.77 11.37L17.69 11.34L17.61 11.31L17.52 11.29L17.44 11.27L17.36 11.25L17.27 11.24L17.18 11.23L17.1 11.22H16.83L16.74 11.23L16.65 11.24L16.55 11.25L16.46 11.27L16.37 11.29L16.28 11.31L16.18 11.34L16.09 11.37L15.99 11.4L15.89 11.44L15.8 11.48L15.7 11.53L15.61 11.57L15.51 11.62L15.41 11.68L15.32 11.73L15.22 11.79L15.12 11.86L15.03 11.92L14.93 11.99L14.83 12.07L14.73 12.14L14.64 12.22L14.54 12.3L14.45 12.39L14.35 12.48L14.25 12.57L14.16 12.67L14.06 12.77L13.97 12.87L13.88 12.97L13.78 13.08L13.69 13.19L13.6 13.3L13.51 13.42L13.42 13.54L13.33 13.67L13.21 13.84L13.09 14.02L12.97 14.21L12.86 14.39L12.75 14.59L12.64 14.78L12.54 14.97L12.44 15.17L12.35 15.37L12.26 15.57L12.18 15.77L12.11 15.93L19.3 13.58L19.29 13.5ZM12.8 17.01L19.17 16.96L19.2 16.82L19.23 16.68L19.26 16.54L19.29 16.39L19.31 16.25L19.34 16.11L19.36 15.97L19.37 15.83L19.39 15.69L19.4 15.55L19.41 15.42L19.42 15.28L19.43 15.14V14.85L12.8 17.01Z" fill="white"/>
<path d="M16 4.56C9.682 4.56 4.56 9.682 4.56 16C4.56 22.318 9.682 27.44 16 27.44C22.318 27.44 27.44 22.318 27.44 16C27.44 14.4977 27.1441 13.0101 26.5692 11.6221C25.9943 10.2341 25.1516 8.973 24.0893 7.9107C23.027 6.84839 21.7659 6.00573 20.3779 5.43082C18.9899 4.8559 17.5023 4.56 16 4.56ZM22.48 16.92L22.28 18.1H20.49L20.43 18.3L20.32 18.6L20.21 18.9L20.09 19.2L20 19.5L19.87 19.79L19.73 20.08L19.59 20.37L19.44 20.65L19.29 20.93L19.13 21.2L18.97 21.47L18.8 21.74L18.6 22L18.51 22.13L18.42 22.26L17.49 20.7L17.58 20.57L17.67 20.44L17.75 20.31L17.83 20.18L17.91 20.05L17.99 19.92L18.07 19.79L18.14 19.66L18.21 19.52L18.28 19.38L18.35 19.24L18.42 19.1L18.48 18.96L18.54 18.82L18.6 18.68L18.66 18.54L18.72 18.4L18.77 18.26V18.14L11.5 18.2V20.05L9.64 21.34V18.2H9.1L8.9 18.27L8.56 17.08L10.24 16.53V16.4L10.31 16.19L10.41 16L10.48 15.8L10.56 15.6L10.64 15.4L10.72 15.2L10.8 15L10.89 14.8L10.98 14.6L11.07 14.4L11.16 14.21L11.26 14.02L11.36 13.83L11.46 13.64L11.56 13.45L11.67 13.26L11.78 13.08L11.89 12.9L12 12.71L12.11 12.53L12.23 12.36L12.35 12.19L12.46 12L12.58 11.83L12.7 11.67L12.83 11.51L13 11.37L13.13 11.22L13.26 11.07L13.39 10.92L13.53 10.78L13.67 10.64L13.81 10.5L13.95 10.37L14.09 10.24L14.23 10.11L14.34 10L14.49 9.88L14.64 9.77L14.79 9.66L14.94 9.55L15.09 9.45L15.24 9.36L15.39 9.27L15.54 9.19L15.69 9.11L15.82 9L16 8.95L16.14 8.89L16.28 8.83L16.42 8.78H18.83L18.94 8.83L19.05 8.88L19.16 8.94L19.27 9L19.37 9.07L19.47 9.14L19.57 9.22L19.67 9.3L19.76 9.39L19.85 9.48L19.94 9.58L20.03 9.68L20.11 9.79L20.19 9.9L20.27 10.01L20.35 10.13L20.42 10.25L20.49 10.38L20.56 10.51L20.62 10.65L20.68 10.79L20.74 10.93L20.8 11.08L20.85 11.23V13L21.85 12.68L22.19 13.87L20.91 14.29V15.92L20.86 16.22L20.8 16.52L20.73 16.82V16.95L22.48 16.92Z" fill="white"/>
</g>
<defs>
<clipPath id="clip0_16_301">
<rect width="32" height="32" fill="white"/>
</clipPath>
</defs>
</svg>
