<svg width="32" height="32" viewBox="0 0 32 32" fill="none" xmlns="http://www.w3.org/2000/svg">
<g clip-path="url(#clip0_16_308)">
<path d="M16 32C24.8366 32 32 24.8366 32 16C32 7.16344 24.8366 0 16 0C7.16344 0 0 7.16344 0 16C0 24.8366 7.16344 32 16 32Z" fill="#F19F13"/>
<path d="M22.77 13.95H27.64L28 11.95H23.29C22.3614 11.9789 21.4614 12.2777 20.7 12.81C20.42 11.81 17.7 11.95 17.7 11.95L18.06 9.95H17L16.64 11.95H15.53L15.84 9.95H14.69L14.27 11.95H13.08L12.47 15.07L11.66 12.01H9L4 19.36H8.12L8.54 17.41H7.7L10.1 13.9L11 17.43H10.1L9.71 19.36H12.77L12.52 20.7H13.72L14 19.36H15L14.75 20.7H16L16.25 19.36H17.81C18.5273 19.2786 19.1913 18.9414 19.68 18.41C20.2626 18.9997 21.0513 19.3402 21.88 19.36H26.59L26.9 17.41H22.67C19.76 17.36 21 13.93 22.77 13.95ZM17.48 17.36H14.36L14.61 16.41H17.61C18.37 16.46 18.12 17.36 17.48 17.36ZM17.95 14.8H14.83L15.08 13.85H18.08C18.84 13.9 18.56 14.84 17.95 14.84V14.8Z" fill="white"/>
</g>
<defs>
<clipPath id="clip0_16_308">
<rect width="32" height="32" fill="white"/>
</clipPath>
</defs>
</svg>
