<svg width="32" height="32" viewBox="0 0 32 32" fill="none" xmlns="http://www.w3.org/2000/svg">
<g clip-path="url(#clip0_16_349)">
<path d="M16 32C24.8366 32 32 24.8366 32 16C32 7.16344 24.8366 0 16 0C7.16344 0 0 7.16344 0 16C0 24.8366 7.16344 32 16 32Z" fill="#3F43AD"/>
<path d="M11.94 7.436C11.7167 7.44908 11.5068 7.54701 11.3533 7.70976C11.1998 7.87252 11.1143 8.08778 11.1143 8.3115C11.1143 8.53522 11.1998 8.75048 11.3533 8.91323C11.5068 9.07598 11.7167 9.17392 11.94 9.187C12.1633 9.17392 12.3732 9.07598 12.5267 8.91323C12.6802 8.75048 12.7657 8.53522 12.7657 8.3115C12.7657 8.08778 12.6802 7.87252 12.5267 7.70976C12.3732 7.54701 12.1633 7.44908 11.94 7.436ZM15.99 5.006C15.7649 5.01675 15.5526 5.11374 15.3971 5.27685C15.2416 5.43995 15.1549 5.65665 15.1549 5.882C15.1549 6.10734 15.2416 6.32404 15.3971 6.48715C15.5526 6.65025 15.7649 6.74724 15.99 6.758C16.2151 6.74724 16.4274 6.65025 16.5829 6.48715C16.7384 6.32404 16.8251 6.10734 16.8251 5.882C16.8251 5.65665 16.7384 5.43995 16.5829 5.27685C16.4274 5.11374 16.2151 5.01675 15.99 5.006ZM15.99 14.725C15.7667 14.7381 15.5568 14.836 15.4033 14.9988C15.2498 15.1615 15.1643 15.3768 15.1643 15.6005C15.1643 15.8242 15.2498 16.0395 15.4033 16.2022C15.5568 16.365 15.7667 16.4629 15.99 16.476C16.2133 16.4629 16.4232 16.365 16.5767 16.2022C16.7302 16.0395 16.8157 15.8242 16.8157 15.6005C16.8157 15.3768 16.7302 15.1615 16.5767 14.9988C16.4232 14.836 16.2133 14.7381 15.99 14.725ZM20.039 12.295C19.9239 12.2951 19.8099 12.3179 19.7036 12.3621C19.5974 12.4063 19.5008 12.4709 19.4195 12.5524C19.3382 12.6339 19.2738 12.7306 19.2298 12.837C19.1859 12.9434 19.1634 13.0574 19.1635 13.1725C19.1636 13.2876 19.1864 13.4016 19.2306 13.5078C19.2748 13.6141 19.3394 13.7107 19.4209 13.792C19.5024 13.8733 19.5991 13.9377 19.7055 13.9817C19.8119 14.0256 19.9259 14.0481 20.041 14.048C20.2735 14.0477 20.4963 13.9551 20.6605 13.7906C20.8247 13.626 20.9168 13.403 20.9165 13.1705C20.9162 12.938 20.8236 12.7152 20.6591 12.551C20.4945 12.3868 20.2715 12.2947 20.039 12.295ZM24.088 9.866C23.9704 9.86216 23.8532 9.88203 23.7435 9.92441C23.6337 9.9668 23.5336 10.0308 23.4491 10.1127C23.3646 10.1946 23.2974 10.2926 23.2516 10.401C23.2058 10.5094 23.1823 10.6259 23.1824 10.7435C23.1825 10.8612 23.2063 10.9776 23.2524 11.0859C23.2985 11.1942 23.3659 11.292 23.4505 11.3737C23.5352 11.4554 23.6355 11.5192 23.7453 11.5614C23.8552 11.6035 23.9724 11.6231 24.09 11.619C24.3173 11.6111 24.5327 11.5151 24.6906 11.3514C24.8485 11.1877 24.9367 10.969 24.9364 10.7415C24.9361 10.5141 24.8475 10.2956 24.6892 10.1322C24.5309 9.96887 24.3153 9.87341 24.088 9.866ZM11.94 17.155C11.7167 17.1681 11.5068 17.266 11.3533 17.4288C11.1998 17.5915 11.1143 17.8068 11.1143 18.0305C11.1143 18.2542 11.1998 18.4695 11.3533 18.6322C11.5068 18.795 11.7167 18.8929 11.94 18.906C12.1633 18.8929 12.3732 18.795 12.5267 18.6322C12.6802 18.4695 12.7657 18.2542 12.7657 18.0305C12.7657 17.8068 12.6802 17.5915 12.5267 17.4288C12.3732 17.266 12.1633 17.1681 11.94 17.155ZM7.89 9.866C7.77496 9.86613 7.66107 9.88892 7.55484 9.93306C7.44861 9.97721 7.35211 10.0418 7.27086 10.1233C7.18961 10.2047 7.1252 10.3014 7.0813 10.4077C7.03739 10.514 7.01486 10.628 7.015 10.743C7.01513 10.858 7.03792 10.9719 7.08206 11.0782C7.1262 11.1844 7.19084 11.2809 7.27228 11.3621C7.35371 11.4434 7.45036 11.5078 7.55669 11.5517C7.66302 11.5956 7.77696 11.6181 7.892 11.618C8.12433 11.6177 8.34703 11.5252 8.51113 11.3607C8.67522 11.1962 8.76726 10.9733 8.767 10.741C8.76673 10.5087 8.67418 10.286 8.50972 10.1219C8.34525 9.95777 8.12233 9.86573 7.89 9.866ZM7.89 19.584C7.77489 19.5841 7.66094 19.6069 7.55465 19.6511C7.44836 19.6953 7.35181 19.7599 7.27051 19.8414C7.10632 20.006 7.01423 20.229 7.0145 20.4615C7.01476 20.694 7.10736 20.9168 7.27192 21.081C7.43649 21.2452 7.65953 21.3373 7.892 21.337C8.12446 21.3367 8.34729 21.2441 8.51148 21.0796C8.67567 20.915 8.76776 20.692 8.7675 20.4595C8.76723 20.227 8.67463 20.0042 8.51007 19.84C8.3455 19.6758 8.12246 19.5837 7.89 19.584ZM7.89 14.725C7.66666 14.7381 7.45676 14.836 7.30327 14.9988C7.14977 15.1615 7.06427 15.3768 7.06427 15.6005C7.06427 15.8242 7.14977 16.0395 7.30327 16.2022C7.45676 16.365 7.66666 16.4629 7.89 16.476C8.11333 16.4629 8.32323 16.365 8.47673 16.2022C8.63023 16.0395 8.71573 15.8242 8.71573 15.6005C8.71573 15.3768 8.63023 15.1615 8.47673 14.9988C8.32323 14.836 8.11333 14.7381 7.89 14.725ZM15.99 9.866C15.8724 9.86202 15.7552 9.88175 15.6454 9.92401C15.5356 9.96627 15.4354 10.0302 15.3508 10.112C15.2662 10.1938 15.1989 10.2917 15.153 10.4001C15.1071 10.5084 15.0834 10.6248 15.0834 10.7425C15.0834 10.8602 15.1071 10.9766 15.153 11.0849C15.1989 11.1933 15.2662 11.2912 15.3508 11.373C15.4354 11.4548 15.5356 11.5187 15.6454 11.561C15.7552 11.6032 15.8724 11.623 15.99 11.619C16.2173 11.6113 16.4328 11.5156 16.5909 11.3521C16.749 11.1885 16.8374 10.97 16.8374 10.7425C16.8374 10.515 16.749 10.2965 16.5909 10.1329C16.4328 9.96939 16.2173 9.87368 15.99 9.866ZM20.039 7.436C19.9214 7.43216 19.8042 7.45203 19.6945 7.49441C19.5847 7.5368 19.4846 7.60084 19.4001 7.68272C19.3156 7.7646 19.2484 7.86264 19.2026 7.97101C19.1568 8.07939 19.1333 8.19587 19.1334 8.31353C19.1335 8.43119 19.1573 8.54762 19.2034 8.65589C19.2495 8.76416 19.3169 8.86205 19.4015 8.94373C19.4862 9.02542 19.5865 9.08923 19.6963 9.13137C19.8062 9.1735 19.9234 9.1931 20.041 9.189C20.2683 9.18106 20.4837 9.08511 20.6416 8.92139C20.7995 8.75767 20.8877 8.539 20.8874 8.31153C20.8871 8.08406 20.7985 7.86559 20.6402 7.70223C20.4819 7.53887 20.2663 7.44341 20.039 7.436ZM20.039 17.155C19.924 17.1551 19.8101 17.1778 19.7038 17.2219C19.5975 17.266 19.501 17.3305 19.4197 17.4119C19.3384 17.4933 19.2739 17.5899 19.23 17.6962C19.186 17.8025 19.1634 17.9165 19.1635 18.0315C19.1636 18.1465 19.1863 18.2604 19.2304 18.3667C19.2745 18.4729 19.339 18.5695 19.4204 18.6508C19.5018 18.7321 19.5984 18.7965 19.7047 18.8405C19.811 18.8845 19.925 18.9071 20.04 18.907C20.2723 18.9069 20.4951 18.8144 20.6593 18.6501C20.8235 18.4857 20.9156 18.2628 20.9155 18.0305C20.9154 17.7982 20.8229 17.5754 20.6586 17.4112C20.4942 17.247 20.2713 17.1549 20.039 17.155ZM24.088 14.725C23.8647 14.7381 23.6548 14.836 23.5013 14.9988C23.3478 15.1615 23.2623 15.3768 23.2623 15.6005C23.2623 15.8242 23.3478 16.0395 23.5013 16.2022C23.6548 16.365 23.8647 16.4629 24.088 16.476C24.3113 16.4629 24.5212 16.365 24.6747 16.2022C24.8282 16.0395 24.9137 15.8242 24.9137 15.6005C24.9137 15.3768 24.8282 15.1615 24.6747 14.9988C24.5212 14.836 24.3113 14.7381 24.088 14.725ZM20.039 22.014C19.9239 22.0141 19.8099 22.0368 19.7036 22.0809C19.5973 22.125 19.5007 22.1896 19.4194 22.2711C19.338 22.3525 19.2735 22.4492 19.2295 22.5555C19.1855 22.6619 19.1629 22.7759 19.163 22.891C19.1631 23.0061 19.1858 23.1201 19.2299 23.2264C19.274 23.3327 19.3386 23.4293 19.4201 23.5106C19.5015 23.592 19.5982 23.6565 19.7045 23.7005C19.8109 23.7445 19.9249 23.7671 20.04 23.767C20.2725 23.7669 20.4953 23.6744 20.6596 23.5099C20.8239 23.3455 20.9161 23.1225 20.916 22.89C20.9159 22.6575 20.8234 22.4346 20.6589 22.2704C20.4945 22.1061 20.2715 22.0139 20.039 22.014ZM24.088 19.584C23.8629 19.5948 23.6506 19.6917 23.4951 19.8548C23.3396 20.018 23.2529 20.2346 23.2529 20.46C23.2529 20.6853 23.3396 20.902 23.4951 21.0651C23.6506 21.2282 23.8629 21.3252 24.088 21.336C24.3131 21.3252 24.5254 21.2282 24.6809 21.0651C24.8364 20.902 24.9231 20.6853 24.9231 20.46C24.9231 20.2346 24.8364 20.018 24.6809 19.8548C24.5254 19.6917 24.3131 19.5948 24.088 19.584ZM15.99 24.444C15.7667 24.4571 15.5568 24.555 15.4033 24.7178C15.2498 24.8805 15.1643 25.0958 15.1643 25.3195C15.1643 25.5432 15.2498 25.7585 15.4033 25.9212C15.5568 26.084 15.7667 26.1819 15.99 26.195C16.2221 26.1947 16.4446 26.1025 16.6088 25.9385C16.773 25.7745 16.8655 25.5521 16.866 25.32C16.8657 25.0877 16.7734 24.8651 16.6091 24.7009C16.4449 24.5366 16.2222 24.4443 15.99 24.444ZM15.99 19.584C15.8748 19.5841 15.7608 19.6068 15.6544 19.6509C15.548 19.6951 15.4514 19.7597 15.37 19.8412C15.2886 19.9227 15.2241 20.0194 15.1801 20.1258C15.136 20.2323 15.1134 20.3463 15.1135 20.4615C15.1136 20.5767 15.1363 20.6907 15.1804 20.7971C15.2246 20.9034 15.2892 21.0001 15.3707 21.0815C15.4522 21.1629 15.5489 21.2274 15.6553 21.2714C15.7618 21.3154 15.8758 21.3381 15.991 21.338C16.2236 21.3379 16.4466 21.2453 16.611 21.0808C16.7754 20.9162 16.8676 20.6931 16.8675 20.4605C16.8674 20.2279 16.7748 20.0049 16.6103 19.8405C16.4457 19.6761 16.2226 19.5839 15.99 19.584ZM11.94 12.295C11.7167 12.3081 11.5068 12.406 11.3533 12.5688C11.1998 12.7315 11.1143 12.9468 11.1143 13.1705C11.1143 13.3942 11.1998 13.6095 11.3533 13.7722C11.5068 13.935 11.7167 14.0329 11.94 14.046C12.1618 14.031 12.3697 13.9323 12.5215 13.7698C12.6733 13.6074 12.7578 13.3933 12.7578 13.171C12.7578 12.9486 12.6733 12.7346 12.5215 12.5722C12.3697 12.4097 12.1618 12.311 11.94 12.296V12.295ZM11.94 22.014C11.7167 22.0271 11.5068 22.125 11.3533 22.2878C11.1998 22.4505 11.1143 22.6658 11.1143 22.8895C11.1143 23.1132 11.1998 23.3285 11.3533 23.4912C11.5068 23.654 11.7167 23.7519 11.94 23.765C12.1633 23.7519 12.3732 23.654 12.5267 23.4912C12.6802 23.3285 12.7657 23.1132 12.7657 22.8895C12.7657 22.6658 12.6802 22.4505 12.5267 22.2878C12.3732 22.125 12.1633 22.0271 11.94 22.014Z" fill="white"/>
</g>
<defs>
<clipPath id="clip0_16_349">
<rect width="32" height="32" fill="white"/>
</clipPath>
</defs>
</svg>
