<svg width="32" height="32" viewBox="0 0 32 32" fill="none" xmlns="http://www.w3.org/2000/svg">
<g clip-path="url(#clip0_16_373)">
<path d="M16 32C24.8366 32 32 24.8366 32 16C32 7.16344 24.8366 0 16 0C7.16344 0 0 7.16344 0 16C0 24.8366 7.16344 32 16 32Z" fill="#13A0F6"/>
<path fill-rule="evenodd" clip-rule="evenodd" d="M8.297 11.568C7.90557 11.3627 7.57779 11.0542 7.34917 10.6759C7.12054 10.2976 6.99979 9.864 7 9.422C6.82908 9.09792 6.73411 8.73922 6.72227 8.37302C6.71043 8.00682 6.78203 7.64273 6.93166 7.30829C7.08129 6.97385 7.30502 6.67782 7.58593 6.4426C7.86685 6.20737 8.19758 6.03912 8.5531 5.95057C8.90863 5.86202 9.27964 5.85549 9.63806 5.93148C9.99648 6.00746 10.3329 6.16397 10.6219 6.38916C10.911 6.61435 11.145 6.90233 11.3063 7.2313C11.4676 7.56027 11.5519 7.92162 11.553 8.288C12.9185 7.4895 14.4722 7.06974 16.054 7.072C20.994 7.072 25 11.086 25 16.036C25 20.986 20.995 25 16.054 25C11.113 25 7.108 20.987 7.108 16.036C7.10569 14.4682 7.51574 12.9273 8.297 11.568ZM16.054 20.446C18.484 20.446 20.454 18.472 20.454 16.036C20.454 13.6 18.484 11.626 16.054 11.626C13.624 11.626 11.654 13.601 11.654 16.036C11.654 18.471 13.624 20.446 16.054 20.446Z" fill="white"/>
</g>
<defs>
<clipPath id="clip0_16_373">
<rect width="32" height="32" fill="white"/>
</clipPath>
</defs>
</svg>
