<svg width="32" height="32" viewBox="0 0 32 32" fill="none" xmlns="http://www.w3.org/2000/svg">
<g clip-path="url(#clip0_16_389)">
<path d="M16 32C24.8366 32 32 24.8366 32 16C32 7.16344 24.8366 0 16 0C7.16344 0 0 7.16344 0 16C0 24.8366 7.16344 32 16 32Z" fill="#101341"/>
<path fill-rule="evenodd" clip-rule="evenodd" d="M11.022 7H21.25L26.5 16L21.25 25H10.931L16.091 16L11.021 7H11.022ZM16.452 10.166L19.803 16L16.453 21.834H19.441L22.789 16L19.439 10.166H16.453H16.452Z" fill="white"/>
<path opacity="0.5" fill-rule="evenodd" clip-rule="evenodd" d="M12.113 11.026L9.211 16L12.087 20.93L10.248 24.139L5.5 16L10.289 7.789L12.113 11.026Z" fill="white"/>
</g>
<defs>
<clipPath id="clip0_16_389">
<rect width="32" height="32" fill="white"/>
</clipPath>
</defs>
</svg>
