<svg width="32" height="32" viewBox="0 0 32 32" fill="none" xmlns="http://www.w3.org/2000/svg">
<g clip-path="url(#clip0_16_447)">
<path d="M16 32C24.8366 32 32 24.8366 32 16C32 7.16344 24.8366 0 16 0C7.16344 0 0 7.16344 0 16C0 24.8366 7.16344 32 16 32Z" fill="#4700C2"/>
<path fill-rule="evenodd" clip-rule="evenodd" d="M13.682 14.51C13.372 14.712 13.017 14.926 12.649 15.15V17.171C12.983 17.002 13.327 16.831 13.682 16.662V14.509V14.51ZM8.515 18.247C8.60887 18.429 8.77062 18.5667 8.96526 18.6303C9.15989 18.694 9.37176 18.6784 9.555 18.587L10.521 18.1C10.527 17.288 10.531 16.671 10.531 16.426V16.361C9.711 16.769 9.089 17.082 8.85 17.201C8.66694 17.2954 8.52882 17.4585 8.46601 17.6547C8.40319 17.8508 8.42081 18.0639 8.515 18.247ZM13.974 18.042C13.9736 18.1434 13.9932 18.2438 14.0318 18.3376C14.0703 18.4314 14.1269 18.5166 14.1985 18.5884C14.27 18.6602 14.355 18.7172 14.4486 18.7561C14.5423 18.795 14.6426 18.815 14.744 18.815H14.753C14.9578 18.8147 15.1542 18.7332 15.2989 18.5882C15.4437 18.4433 15.525 18.2468 15.525 18.042V11.639C15.5249 11.529 15.5014 11.4202 15.456 11.32C15.4105 11.2197 15.3442 11.1304 15.2615 11.0578C15.1788 10.9852 15.0816 10.9311 14.9763 10.899C14.871 10.867 14.7601 10.8578 14.651 10.872C14.4647 10.895 14.2933 10.9854 14.1691 11.1262C14.0449 11.2669 13.9766 11.4483 13.977 11.636V14.834C13.974 15.908 13.974 16.974 13.974 18.042Z" fill="white"/>
<path fill-rule="evenodd" clip-rule="evenodd" d="M24.985 13.083C24.936 12.709 24.688 12.501 24.311 12.403C24.011 12.326 23.701 12.311 23.385 12.308C22.649 12.305 21.919 12.424 21.195 12.565C20.149 12.768 19.115 13.028 18.098 13.345C17.791 13.439 17.488 13.537 17.181 13.635L17.178 13.623L17.233 13.577C17.825 13.071 18.413 12.565 19.009 12.065C20.315 10.961 21.493 9.75 22.587 8.472C22.885 8.125 23.142 7.754 23.274 7.331C23.474 6.696 23.25 6.301 22.606 6.123C22.3331 6.05695 22.0528 6.02604 21.772 6.031C21.158 6.028 20.552 6.129 19.953 6.251C19.328 6.381 18.423 6.611 17.81 6.797C16.829 7.097 15.617 7.613 14.535 8.051C13.983 8.266 13.395 8.542 12.845 8.757L10.766 9.603C8.006 10.79 7.203 9.937 7.203 9.937C7.203 9.941 7.204 9.944 7.206 9.947C7.20076 9.93932 7.19671 9.93089 7.194 9.922C6.657 10.98 7.104 12.902 10.208 11.529C10.696 11.339 11.192 11.133 11.677 10.946C12.612 10.581 13.538 10.13 14.477 9.769C15.1229 9.50331 15.774 9.25059 16.43 9.011L17.022 8.781C17.629 8.581 18.236 8.383 18.855 8.229C19.53 8.055 20.119 7.95 20.475 7.996C20.511 7.999 20.548 8.002 20.582 8.009C20.744 8.03 20.83 8.116 20.815 8.229C20.809 8.404 20.527 8.984 17.96 11.121C17.773 11.281 17.586 11.443 17.399 11.602C17.111 11.851 16.832 12.096 16.549 12.342L16.313 12.55L16.31 12.553L16.2 12.651C16.1914 12.6601 16.182 12.6685 16.172 12.676L16.145 12.7L15.93 12.863C15.9153 12.8771 15.9 12.8904 15.884 12.903V15.616C16.792 15.306 21.21 13.832 21.686 14.264C21.723 14.314 22.284 14.663 17.147 18.177C16.945 18.33 16.749 18.483 16.547 18.637L15.804 19.204C14.875 19.876 13.952 20.55 13.024 21.222L12.621 21.513C12.615 22.246 12.612 22.948 12.609 23.593L22.409 16.361C23.0067 15.8574 23.5731 15.3177 24.105 14.745C24.405 14.424 24.675 14.083 24.853 13.694C24.945 13.491 25.013 13.295 24.985 13.084V13.083ZM9.018 24.205C8.89169 24.3625 8.82726 24.5607 8.83684 24.7623C8.84642 24.964 8.92933 25.1552 9.07 25.3C9.19837 25.4361 9.36937 25.5242 9.55468 25.5499C9.73999 25.5755 9.9285 25.5371 10.089 25.441L10.481 25.153C10.484 24.564 10.491 23.847 10.496 23.073L9.172 24.055C9.11479 24.0986 9.06308 24.149 9.018 24.205Z" fill="white"/>
<path fill-rule="evenodd" clip-rule="evenodd" d="M12.364 12.945C12.3154 12.7634 12.2023 12.6057 12.0459 12.5013C11.8894 12.397 11.7004 12.3531 11.514 12.378C11.3277 12.401 11.1563 12.4914 11.0321 12.6322C10.9079 12.7729 10.8396 12.9543 10.84 13.142V16.34C10.84 16.987 10.812 20.198 10.788 22.862C10.782 23.626 10.775 24.343 10.772 24.942C10.766 25.702 10.763 26.272 10.763 26.505C10.7626 26.6064 10.7822 26.7068 10.8207 26.8006C10.8593 26.8944 10.9159 26.9796 10.9875 27.0514C11.059 27.1232 11.144 27.1802 11.2376 27.2191C11.3313 27.258 11.4316 27.278 11.533 27.278H11.542C11.747 27.278 11.9436 27.1966 12.0886 27.0516C12.2336 26.9066 12.315 26.71 12.315 26.505C12.315 25.969 12.321 24.99 12.327 23.791C12.33 23.151 12.337 22.445 12.339 21.712C12.361 18.379 12.391 14.452 12.389 13.142C12.3883 13.0756 12.3799 13.0095 12.364 12.945Z" fill="white"/>
</g>
<defs>
<clipPath id="clip0_16_447">
<rect width="32" height="32" fill="white"/>
</clipPath>
</defs>
</svg>
