<svg width="32" height="32" viewBox="0 0 32 32" fill="none" xmlns="http://www.w3.org/2000/svg">
<g clip-path="url(#clip0_16_462)">
<path d="M16 32C24.8366 32 32 24.8366 32 16C32 7.16344 24.8366 0 16 0C7.16344 0 0 7.16344 0 16C0 24.8366 7.16344 32 16 32Z" fill="#00AAFF"/>
<path d="M15.962 4.94C9.874 4.94 4.94 9.874 4.94 15.962C4.94 22.049 9.874 26.985 15.962 26.985C22.049 26.985 26.985 22.049 26.985 15.962C26.985 9.874 22.049 4.94 15.962 4.94ZM15.997 6.686C16.879 6.68573 17.7479 6.89845 18.5301 7.30607C19.3122 7.71369 19.9843 8.30416 20.4892 9.02727C20.9942 9.75037 21.317 10.5847 21.4303 11.4594C21.5436 12.334 21.444 13.2231 21.14 14.051C20.6665 13.9678 20.181 13.981 19.7127 14.0895C19.2443 14.1981 18.8026 14.4 18.414 14.683C18.754 14.3579 19.0244 13.9672 19.209 13.5346C19.3936 13.102 19.4885 12.6364 19.488 12.166C19.4877 11.2394 19.1197 10.3508 18.4648 9.69531C17.8099 9.03983 16.9216 8.67106 15.995 8.67C15.1302 8.6707 14.2964 8.992 13.6547 9.5718C13.013 10.1516 12.6091 10.9487 12.521 11.809C11.8641 11.6916 11.1922 11.6849 10.533 11.789C10.628 10.4045 11.2449 9.10768 12.2591 8.16048C13.2733 7.21327 14.6093 6.68629 15.997 6.686ZM18.012 16.978L16.074 15.818C16.0108 15.7799 15.9383 15.76 15.8646 15.7606C15.7908 15.7611 15.7186 15.782 15.656 15.821L13.956 16.871C13.8895 16.9115 13.8363 16.9706 13.8029 17.041C13.7695 17.1113 13.7574 17.1899 13.768 17.267C13.8127 17.5903 13.789 17.9194 13.6985 18.233C13.608 18.5466 13.4527 18.8377 13.2426 19.0875C13.0325 19.3373 12.7723 19.5402 12.4788 19.6831C12.1854 19.826 11.8652 19.9057 11.539 19.917C11.2276 19.9268 10.9174 19.8738 10.6269 19.7613C10.3364 19.6488 10.0715 19.4789 9.84792 19.2619C9.62437 19.0449 9.44677 18.7852 9.32567 18.4981C9.20457 18.211 9.14245 17.9026 9.143 17.591C9.14651 16.9824 9.38736 16.3993 9.81431 15.9656C10.2413 15.532 10.8206 15.282 11.429 15.269C11.7631 15.2633 12.0945 15.3299 12.4005 15.4642C12.7066 15.5985 12.9799 15.7973 13.202 16.047C13.326 16.187 13.532 16.217 13.694 16.127L15.332 15.208C15.3942 15.1728 15.446 15.1218 15.4822 15.0602C15.5183 14.9985 15.5376 14.9285 15.538 14.857V14.757C15.5375 14.6725 15.5105 14.5903 15.4608 14.522C15.4111 14.4536 15.3412 14.4026 15.261 14.376C14.7283 14.1983 14.2778 13.8339 13.9928 13.35C13.7078 12.8662 13.6074 12.2955 13.7103 11.7435C13.8131 11.1914 14.1123 10.6952 14.5524 10.3464C14.9926 9.99765 15.544 9.81991 16.105 9.846C16.6715 9.87523 17.2079 10.1098 17.6139 10.5059C18.0199 10.902 18.2677 11.4324 18.311 11.998C18.3512 12.5401 18.2 13.079 17.8837 13.5211C17.5674 13.9631 17.106 14.2801 16.58 14.417C16.4926 14.4386 16.4149 14.4886 16.3592 14.5592C16.3034 14.6298 16.2727 14.717 16.272 14.807V14.824C16.272 14.964 16.346 15.093 16.464 15.167L18.185 16.225C18.2678 16.2765 18.3665 16.2959 18.4626 16.2797C18.5588 16.2635 18.6457 16.2128 18.707 16.137C18.9307 15.8578 19.2159 15.6341 19.5402 15.4832C19.8646 15.3323 20.2194 15.2583 20.577 15.267C21.1936 15.2907 21.7756 15.5585 22.1948 16.0113C22.614 16.4641 22.8362 17.0649 22.8125 17.6815C22.7888 18.2981 22.521 18.8801 22.0682 19.2993C21.6154 19.7185 21.0146 19.9407 20.398 19.917C20.0839 19.8999 19.7766 19.8194 19.4944 19.6803C19.2122 19.5413 18.9611 19.3466 18.7562 19.1081C18.5512 18.8695 18.3966 18.5919 18.3017 18.292C18.2068 17.9921 18.1736 17.6761 18.204 17.363C18.212 17.2872 18.1982 17.2107 18.1642 17.1425C18.1302 17.0743 18.0774 17.0172 18.012 16.978ZM11.465 23.011C10.7529 23.0113 10.0476 22.8712 9.38963 22.5988C8.73163 22.3265 8.13374 21.9271 7.63013 21.4236C7.12652 20.9201 6.72705 20.3222 6.45456 19.6643C6.18206 19.0063 6.04187 18.3012 6.042 17.589C6.04149 16.7887 6.21816 15.9983 6.55933 15.2744C6.90051 14.5505 7.39773 13.9111 8.01529 13.4021C8.63285 12.8932 9.35544 12.5273 10.1312 12.3306C10.9069 12.134 11.7166 12.1116 12.502 12.265C12.528 13.1818 12.9138 14.0515 13.576 14.686C12.9642 14.2389 12.2257 13.9986 11.468 14C10.5264 14.0157 9.62865 14.4008 8.96831 15.0723C8.30797 15.7437 7.93792 16.6478 7.93792 17.5895C7.93792 18.5313 8.30797 19.4353 8.96831 20.1067C9.62865 20.7782 10.5264 21.1633 11.468 21.179C12.1855 21.1789 12.8865 20.9635 13.4802 20.5605C14.0739 20.1576 14.5329 19.5858 14.798 18.919C14.969 19.665 15.285 20.354 15.711 20.962C15.2039 21.602 14.5584 22.1189 13.8231 22.4739C13.0877 22.8289 12.2816 23.0129 11.465 23.012V23.011ZM20.521 23.011C19.1466 23.0109 17.8234 22.489 16.819 21.5509C15.8146 20.6127 15.2038 19.3282 15.11 17.957C15.7204 18.0499 16.3417 18.0462 16.951 17.946C17.0157 18.595 17.256 19.2142 17.6461 19.7369C18.0362 20.2597 18.5613 20.6663 19.1651 20.913C19.7688 21.1598 20.4284 21.2374 21.073 21.1376C21.7175 21.0377 22.3227 20.7641 22.8235 20.3462C23.3242 19.9283 23.7017 19.3819 23.9153 18.7656C24.1289 18.1493 24.1706 17.4865 24.0359 16.8483C23.9011 16.2101 23.5951 15.6207 23.1506 15.1434C22.7061 14.666 22.14 14.3188 21.513 14.139C21.7212 13.5582 21.8353 12.9478 21.851 12.331C23.1309 12.6572 24.2478 13.4392 24.9922 14.5303C25.7365 15.6214 26.0572 16.9466 25.894 18.2573C25.7307 19.568 25.0949 20.7741 24.1056 21.6493C23.1164 22.5245 21.8418 23.0087 20.521 23.011Z" fill="white"/>
<path d="M16 3C8.821 3 3 8.821 3 16C3 23.179 8.821 29 16 29C23.179 29 29 23.179 29 16C29 8.821 23.179 3 16 3ZM15.962 28.022C9.302 28.022 3.904 22.624 3.904 15.964C3.904 9.304 9.302 3.907 15.962 3.907C22.621 3.907 28.019 9.305 28.019 15.964C28.019 22.624 22.621 28.022 15.962 28.022Z" fill="white"/>
</g>
<defs>
<clipPath id="clip0_16_462">
<rect width="32" height="32" fill="white"/>
</clipPath>
</defs>
</svg>
