<svg width="32" height="32" viewBox="0 0 32 32" fill="none" xmlns="http://www.w3.org/2000/svg">
<g clip-path="url(#clip0_16_500)">
<path d="M16 32C24.8366 32 32 24.8366 32 16C32 7.16344 24.8366 0 16 0C7.16344 0 0 7.16344 0 16C0 24.8366 7.16344 32 16 32Z" fill="#FBB413"/>
<path d="M16.017 21.804C16.6807 21.8343 17.3431 21.7197 17.958 21.468C18.202 21.381 18.435 21.266 18.653 21.126C18.6723 21.1089 18.695 21.0961 18.7196 21.0885C18.7442 21.0809 18.7702 21.0786 18.7957 21.0818C18.8213 21.0851 18.8458 21.0937 18.8678 21.1072C18.8898 21.1207 18.9086 21.1387 18.923 21.16L20.502 22.785C20.615 22.903 20.611 22.941 20.476 23.034C19.9276 23.41 19.3317 23.7116 18.704 23.931C17.9271 24.1967 17.1155 24.3469 16.295 24.377C15.2504 24.4309 14.2049 24.288 13.213 23.956C12.359 23.66 11.5648 23.2137 10.868 22.638C10.2387 22.1175 9.68595 21.5108 9.22601 20.836C8.96624 20.468 8.7419 20.0763 8.55601 19.666C8.41562 19.3416 8.28918 19.0113 8.17701 18.676C7.99073 18.0608 7.87236 17.427 7.82401 16.786C7.77189 16.3153 7.7786 15.84 7.84401 15.371C7.89401 14.907 7.97601 14.447 8.08901 13.994C8.27789 13.3016 8.55234 12.6355 8.90601 12.011C9.66586 10.696 10.7808 9.62163 12.123 8.911C12.6323 8.6349 13.1702 8.41494 13.727 8.255C14.1787 8.11977 14.6426 8.02933 15.112 7.985C15.4736 7.93962 15.8388 7.93124 16.202 7.96C16.267 7.964 16.332 7.964 16.396 7.96C16.991 7.97523 17.5814 8.0687 18.152 8.238C18.639 8.368 19.11 8.552 19.554 8.79C20.023 9.022 20.464 9.304 20.872 9.632C20.952 9.703 21.015 9.67 21.078 9.602L22.051 8.575L23.453 7.085C23.617 6.908 23.659 6.903 23.836 7.063C24.376 7.55 24.876 8.081 25.326 8.651C25.8979 9.36123 26.3855 10.1354 26.779 10.958C27.094 11.638 27.353 12.342 27.554 13.063C27.723 13.657 27.777 14.263 27.908 14.857C27.9094 14.8683 27.9094 14.8797 27.908 14.891C27.908 15.442 28.03 15.994 27.971 16.545C27.904 17.173 27.87 17.809 27.739 18.428C27.628 18.948 27.487 19.46 27.319 19.964C26.9057 21.2146 26.2866 22.3874 25.487 23.434C25.365 23.594 25.327 23.598 25.187 23.434C24.725 22.966 24.262 22.491 23.794 22.028C23.697 21.931 23.71 21.855 23.794 21.75C24.287 21.0589 24.6864 20.3057 24.982 19.51C25.247 18.763 25.429 17.989 25.525 17.202C25.583 16.599 25.595 15.992 25.563 15.388C25.5488 15.044 25.5077 14.7016 25.44 14.364C25.1849 12.9779 24.6239 11.6661 23.798 10.524C23.71 10.398 23.6 10.284 23.52 10.15C23.44 10.015 23.432 10.053 23.356 10.129C22.91 10.579 22.451 11.017 22.017 11.476C21.866 11.636 21.693 11.762 21.55 11.926C21.407 12.091 21.234 12.246 21.074 12.406L20.586 12.895C20.51 12.971 20.451 12.941 20.4 12.87C19.9868 12.2646 19.4555 11.7489 18.838 11.354C18.2413 10.9697 17.5722 10.7117 16.872 10.596C16.3257 10.512 15.7703 10.5049 15.222 10.575C14.548 10.647 13.8952 10.8531 13.302 11.181C12.6652 11.5307 12.1062 12.0064 11.659 12.579C11.2698 13.072 10.9693 13.629 10.771 14.225C10.5478 14.9314 10.4467 15.6706 10.472 16.411C10.463 17.7393 10.9563 19.022 11.853 20.002C12.3917 20.5977 13.0523 21.0705 13.79 21.388C14.49 21.696 15.253 21.839 16.017 21.804Z" fill="white"/>
<path d="M25.037 23.711L20.777 19.374C20.684 19.277 20.607 19.274 20.532 19.374C20.231 19.8129 19.8664 20.2045 19.45 20.536C19.349 20.616 19.349 20.679 19.45 20.772C19.833 21.155 20.212 21.547 20.591 21.93C21.084 22.431 21.576 22.932 22.073 23.433C22.161 23.521 22.157 23.563 22.073 23.639C21.875 23.787 21.681 23.939 21.475 24.06C20.3951 24.8054 19.1695 25.3136 17.879 25.551C17.3775 25.6647 16.8652 25.7241 16.351 25.728H16.145C15.781 25.753 15.415 25.742 15.055 25.694C14.633 25.631 14.237 25.58 13.837 25.492C13.3302 25.3765 12.8343 25.2173 12.355 25.016C11.5408 24.677 10.777 24.2278 10.085 23.681C9.40157 23.143 8.7917 22.5177 8.271 21.821C7.7221 21.0912 7.28497 20.2836 6.974 19.425C6.6333 18.5843 6.43949 17.6913 6.401 16.785C6.39383 16.6895 6.39383 16.5935 6.401 16.498V15.505C6.37803 15.3979 6.37803 15.2871 6.401 15.18C6.401 15.1 6.435 15.025 6.448 14.945C6.49 14.572 6.556 14.202 6.646 13.837C6.761 13.347 6.914 12.867 7.105 12.401C7.95264 10.3252 9.49433 8.60785 11.467 7.542C12.6338 6.89427 13.9265 6.50546 15.257 6.402H15.5C16.8852 6.31409 18.2728 6.53261 19.564 7.042L19.926 7.193C20.478 7.43773 21.0065 7.73229 21.505 8.073C21.5229 8.08937 21.544 8.10179 21.5671 8.10946C21.5901 8.11713 21.6144 8.11988 21.6386 8.11752C21.6627 8.11516 21.6861 8.10776 21.7072 8.09578C21.7283 8.0838 21.7466 8.06753 21.761 8.048C22.208 7.538 22.679 7.054 23.147 6.566C23.235 6.473 23.239 6.389 23.147 6.313C21.6036 5.19073 19.8154 4.45172 17.93 4.157C17.3891 4.07105 16.8434 4.01895 16.296 4.001C15.4479 3.98758 14.6009 4.06672 13.77 4.237C13.2393 4.34248 12.7161 4.48312 12.204 4.658C11.292 4.963 10.422 5.381 9.61401 5.9C8.644 6.52 7.767 7.272 7.008 8.136C5.99425 9.28648 5.21226 10.6219 4.705 12.069C4.493 12.681 4.325 13.307 4.204 13.943C4.111 14.5 4.048 15.063 4.014 15.627C3.97967 16.2329 4.00782 16.8408 4.098 17.441C4.164 18.038 4.278 18.628 4.439 19.206C4.553 19.597 4.667 19.989 4.814 20.368C5.108 21.128 5.477 21.858 5.917 22.545C6.46435 23.3902 7.11021 24.1673 7.841 24.86C8.314 25.296 8.821 25.693 9.35701 26.048C10.075 26.539 10.847 26.948 11.657 27.265C12.463 27.585 13.304 27.813 14.161 27.947C14.804 28.043 15.453 28.099 16.103 28.115C16.523 28.115 16.945 28.048 17.34 28.039C17.64 28.017 17.937 27.972 18.229 27.905C18.553 27.85 18.873 27.765 19.193 27.681C20.3898 27.3679 21.5274 26.8616 22.561 26.182C23.498 25.582 24.348 24.857 25.088 24.027C25.21 23.887 25.206 23.863 25.038 23.711H25.037Z" fill="white"/>
</g>
<defs>
<clipPath id="clip0_16_500">
<rect width="32" height="32" fill="white"/>
</clipPath>
</defs>
</svg>
