<svg width="32" height="32" viewBox="0 0 32 32" fill="none" xmlns="http://www.w3.org/2000/svg">
<g clip-path="url(#clip0_16_534)">
<path d="M16 32C24.8366 32 32 24.8366 32 16C32 7.16344 24.8366 0 16 0C7.16344 0 0 7.16344 0 16C0 24.8366 7.16344 32 16 32Z" fill="#598182"/>
<path fill-rule="evenodd" clip-rule="evenodd" d="M13.548 25.408C14.3933 24.3157 15.2387 23.2233 16.084 22.131C17.033 22.279 17.968 22.195 18.862 21.807C19.185 21.667 19.474 21.449 19.778 21.265C19.821 21.239 19.861 21.205 19.894 21.18L22.966 24.218C22.711 24.388 22.458 24.572 22.189 24.73C21.1482 25.3333 20.001 25.7306 18.81 25.9C18.1072 25.9985 17.3962 26.0253 16.688 25.98C15.6204 25.931 14.5643 25.7386 13.548 25.408ZM12.582 25.032C12.2406 24.8794 11.9081 24.7078 11.586 24.518C9.93978 23.564 8.64028 22.1104 7.876 20.368C7.47259 19.4592 7.20733 18.4952 7.089 17.508C6.99615 16.7423 6.97539 15.9696 7.027 15.2C7.15 13.225 7.751 11.41 8.962 9.813C10.08 8.339 11.548 7.33 13.285 6.683C14.1091 6.37024 14.9721 6.17174 15.85 6.093C16.513 6.036 17.183 5.979 17.846 6.008C18.256 6.025 18.659 6.065 19.056 6.128C18.1987 7.37267 17.3413 8.61733 16.484 9.862C15.6262 9.93388 14.799 10.214 14.074 10.678C12.744 11.522 11.948 12.738 11.574 14.238C11.4153 14.87 11.3427 15.5206 11.358 16.172C11.367 16.514 11.396 16.849 11.447 17.176L11.139 17.623C10.891 17.983 11.196 18.459 11.637 18.401L11.749 18.387C12.007 19.116 12.398 19.797 12.939 20.422C13.275 20.808 13.65 21.132 14.063 21.392L12.618 24.883C12.5982 24.9308 12.586 24.9814 12.582 25.033V25.032ZM20.025 6.334C20.9153 6.5712 21.7591 6.95695 22.521 7.475C22.659 7.569 22.785 7.68 22.917 7.783C22.942 7.802 22.968 7.819 23 7.841C22.958 7.889 22.934 7.921 22.905 7.949C21.994 8.847 21.081 9.742 20.173 10.643C20.073 10.743 20.01 10.759 19.889 10.673C19.5225 10.4125 19.1172 10.2113 18.688 10.077L19.971 6.702L20.005 6.615C20.0391 6.52534 20.0461 6.4276 20.025 6.334ZM16.321 17.282L11.568 17.903L19.476 6.42L19.52 6.44L16.465 14.471L22.04 13.591L13.141 25.101L13.098 25.071L16.321 17.282Z" fill="white"/>
</g>
<defs>
<clipPath id="clip0_16_534">
<rect width="32" height="32" fill="white"/>
</clipPath>
</defs>
</svg>
