<svg width="32" height="32" viewBox="0 0 32 32" fill="none" xmlns="http://www.w3.org/2000/svg">
<g clip-path="url(#clip0_16_538)">
<path d="M16 32C24.8366 32 32 24.8366 32 16C32 7.16344 24.8366 0 16 0C7.16344 0 0 7.16344 0 16C0 24.8366 7.16344 32 16 32Z" fill="#01C38D"/>
<path d="M18.503 5.5L16.781 6.478V14.782L17.721 15.316V8.992L20.951 10.825L20.954 10.824L21.581 11.179L22.105 10.884V10.384L17.722 7.9V7.036L18.503 6.592L23.043 9.169V11.463L20.863 12.693L20.79 12.656C20.6634 12.592 20.5238 12.5581 20.382 12.557C20.1311 12.5591 19.8913 12.6606 19.7151 12.8392C19.5389 13.0179 19.4407 13.2591 19.442 13.51C19.442 14.035 19.863 14.463 20.382 14.463C20.6157 14.4614 20.8404 14.3729 21.0124 14.2146C21.1843 14.0564 21.2911 13.8398 21.312 13.607L21.32 13.525L23.52 12.284L25.56 13.442V18.565L23.517 19.723L15.219 15.011V6.478L13.496 5.5L8.017 8.61V11.45L5.5 12.877V19.117L8.017 20.546V23.389L13.497 26.5L15.219 25.522V17.2L14.279 16.666V23.008L10.419 20.821L9.895 21.116V21.616L14.278 24.1V24.964L13.496 25.408L8.957 22.831V20.537L11.137 19.308L11.21 19.344C11.343 19.409 11.48 19.442 11.618 19.442C12.137 19.442 12.558 19.015 12.558 18.49C12.5593 18.2391 12.4611 17.9979 12.2849 17.8192C12.1087 17.6406 11.8689 17.5391 11.618 17.537C11.3843 17.5386 11.1596 17.6271 10.9876 17.7854C10.8157 17.9436 10.7089 18.1602 10.688 18.393L10.68 18.475L8.48 19.716L6.44 18.558V13.435L8.483 12.277L16.781 16.989V25.522L18.503 26.5L23.983 23.39V20.55L26.5 19.123V12.883L23.983 11.455V8.611L18.503 5.5ZM8.957 9.17L13.497 6.592L14.278 7.036V7.9L8.958 10.916V9.17H8.957ZM9.445 11.732L14.278 8.992V14.476L9.445 11.732ZM17.722 17.523L22.555 20.268L17.722 23.008V17.523ZM17.722 24.964V24.1L23.042 21.084V22.831L18.503 25.408L17.722 24.964Z" fill="white"/>
</g>
<defs>
<clipPath id="clip0_16_538">
<rect width="32" height="32" fill="white"/>
</clipPath>
</defs>
</svg>
