<svg width="32" height="32" viewBox="0 0 32 32" fill="none" xmlns="http://www.w3.org/2000/svg">
<g clip-path="url(#clip0_16_556)">
<path d="M16 32C24.8366 32 32 24.8366 32 16C32 7.16344 24.8366 0 16 0C7.16344 0 0 7.16344 0 16C0 24.8366 7.16344 32 16 32Z" fill="#2FD2E5"/>
<path d="M16.57 4.007C13.868 3.91313 11.2158 4.75094 9.058 6.38C8.84879 6.53724 8.67717 6.73904 8.55557 6.97078C8.43396 7.20252 8.36541 7.45841 8.35488 7.71991C8.34435 7.9814 8.39211 8.24197 8.49469 8.48274C8.59727 8.72351 8.75211 8.93845 8.948 9.112C9.57 9.7 10.528 9.746 11.204 9.221C12.8593 7.93279 14.9372 7.31165 17.0279 7.48011C19.1186 7.64856 21.0703 8.59438 22.498 10.131C23.088 10.741 23.106 11.702 22.54 12.334C22.3977 12.4866 22.2268 12.6096 22.037 12.6961C21.8472 12.7826 21.6421 12.8309 21.4337 12.8381C21.2252 12.8454 21.0173 12.8115 20.8219 12.7383C20.6266 12.6652 20.4475 12.5543 20.295 12.412L20.218 12.334C19.5061 11.5533 18.5748 11.0062 17.5463 10.7645C16.5178 10.5227 15.4402 10.5976 14.4551 10.9794C13.4699 11.3611 12.6233 12.0319 12.0262 12.9035C11.4292 13.7752 11.1097 14.807 11.1097 15.8635C11.1097 16.92 11.4292 17.9518 12.0262 18.8235C12.6233 19.6951 13.4699 20.3659 14.4551 20.7476C15.4402 21.1294 16.5178 21.2043 17.5463 20.9625C18.5748 20.7208 19.5061 20.1737 20.218 19.393C20.4461 19.1378 20.7519 18.9649 21.0881 18.9011C21.4244 18.8373 21.7723 18.8861 22.078 19.04C22.2955 19.1491 22.4848 19.307 22.6311 19.5013C22.7775 19.6957 22.8769 19.9213 22.9217 20.1604C22.9664 20.3996 22.9552 20.6458 22.889 20.8799C22.8228 21.1141 22.7034 21.3297 22.54 21.51C21.1182 23.0664 19.164 24.0324 17.064 24.2168C14.964 24.4013 12.8713 23.7907 11.2 22.506C10.8693 22.254 10.4602 22.1269 10.0449 22.147C9.62966 22.1672 9.23481 22.3332 8.93 22.616C8.73541 22.7943 8.58275 23.0135 8.48302 23.2579C8.38328 23.5022 8.33894 23.7657 8.35319 24.0292C8.36744 24.2928 8.43992 24.5499 8.56542 24.7821C8.69092 25.0142 8.86632 25.2157 9.079 25.372C10.5707 26.4782 12.3014 27.2185 14.1317 27.533C15.962 27.8475 17.8405 27.7275 19.6159 27.1827C21.3913 26.6379 23.0138 25.6835 24.3526 24.3965C25.6915 23.1095 26.7091 21.5259 27.3235 19.7734C27.9379 18.0209 28.1319 16.1485 27.8898 14.3072C27.6478 12.466 26.9764 10.7074 25.9299 9.17324C24.8833 7.6391 23.4909 6.37235 21.8649 5.47514C20.239 4.57794 18.4249 4.07538 16.569 4.008L16.57 4.007ZM16.35 18.795C15.9648 18.7936 15.5837 18.7163 15.2284 18.5675C14.8731 18.4188 14.5506 18.2015 14.2793 17.9282C14.0079 17.6548 13.7931 17.3306 13.6471 16.9742C13.501 16.6178 13.4266 16.2362 13.428 15.851C13.4294 15.4658 13.5067 15.0847 13.6555 14.7294C13.8042 14.3741 14.0215 14.0516 14.2948 13.7803C14.5682 13.5089 14.8924 13.2941 15.2488 13.1481C15.6052 13.002 15.9868 12.9276 16.372 12.929C17.1499 12.9318 17.8948 13.2435 18.4429 13.7955C18.9909 14.3475 19.2973 15.0946 19.2945 15.8725C19.2917 16.6504 18.98 17.3953 18.428 17.9434C17.876 18.4914 17.1289 18.7978 16.351 18.795H16.35Z" fill="white"/>
</g>
<defs>
<clipPath id="clip0_16_556">
<rect width="32" height="32" fill="white"/>
</clipPath>
</defs>
</svg>
