<svg width="32" height="32" viewBox="0 0 32 32" fill="none" xmlns="http://www.w3.org/2000/svg">
<g clip-path="url(#clip0_16_568)">
<path d="M16 32C24.8366 32 32 24.8366 32 16C32 7.16344 24.8366 0 16 0C7.16344 0 0 7.16344 0 16C0 24.8366 7.16344 32 16 32Z" fill="#4C6BAE"/>
<path opacity="0.5" fill-rule="evenodd" clip-rule="evenodd" d="M6.383 17.01L5 17.153C5.74 15.083 7.203 13.427 9.391 12.185C9.598 13.901 10.411 15.32 11.831 16.444L10.531 16.579C10.6577 17.7726 11.1711 18.8921 11.9931 19.7668C12.8151 20.6415 13.9005 21.2235 15.084 21.424C14.2125 22.0796 13.1809 22.4888 12.097 22.609C12.778 23.809 13.584 24.792 14.514 25.556C12.406 25.2274 10.4658 24.2113 8.99525 22.6657C7.5247 21.1201 6.60631 19.1317 6.383 17.01ZM25.617 14.99L27 14.847C26.26 16.917 24.797 18.573 22.609 19.815C22.402 18.099 21.589 16.68 20.169 15.556L21.469 15.421C21.341 14.2148 20.8181 13.0846 19.9815 12.2062C19.1449 11.3279 18.0416 10.7505 16.843 10.564C17.7115 9.91525 18.7375 9.51029 19.815 9.391C19.128 8.182 18.316 7.195 17.377 6.428C19.5072 6.7352 21.4741 7.74398 22.9665 9.29472C24.459 10.8455 25.3916 12.8496 25.617 14.99Z" fill="white"/>
<path fill-rule="evenodd" clip-rule="evenodd" d="M16.922 25.626L17.065 27C14.995 26.26 13.339 24.797 12.097 22.609C13.812 22.402 15.231 21.589 16.355 20.169L16.491 21.479C17.7144 21.369 18.8659 20.8529 19.762 20.0127C20.6581 19.1726 21.2474 18.0568 21.436 16.843C22.0847 17.7115 22.4897 18.7375 22.609 19.815C23.818 19.128 24.805 18.316 25.572 17.377C25.2627 19.5222 24.2419 21.5014 22.6734 22.9972C21.1049 24.493 19.0795 25.4188 16.922 25.626ZM14.99 6.383L14.847 5C16.917 5.74 18.573 7.203 19.815 9.391C18.099 9.598 16.68 10.411 15.556 11.831L15.421 10.531C14.2148 10.659 13.0846 11.1819 12.2062 12.0185C11.3279 12.8551 10.7505 13.9584 10.564 15.157C9.91524 14.2885 9.51028 13.2625 9.39099 12.185C8.18199 12.872 7.19499 13.684 6.42799 14.623C6.73519 12.4928 7.74398 10.5259 9.29472 9.03346C10.8455 7.54104 12.8496 6.60836 14.99 6.383Z" fill="white"/>
</g>
<defs>
<clipPath id="clip0_16_568">
<rect width="32" height="32" fill="white"/>
</clipPath>
</defs>
</svg>
