<svg width="32" height="32" viewBox="0 0 32 32" fill="none" xmlns="http://www.w3.org/2000/svg">
<g clip-path="url(#clip0_16_687)">
<path d="M16 32C24.8366 32 32 24.8366 32 16C32 7.16344 24.8366 0 16 0C7.16344 0 0 7.16344 0 16C0 24.8366 7.16344 32 16 32Z" fill="#2C398F"/>
<path d="M25.075 19.1C25.6015 19.0738 26.1036 18.8705 26.5 18.523C25.949 21.339 24.409 24.11 21.766 25.633C19.744 26.811 17.216 27.203 14.758 26.903C14.39 25.841 13.425 24.71 11.748 23.856C9.105 22.494 7.864 20.139 6.738 21.293C6.634 21.393 6.548 21.51 6.485 21.639C6.43467 21.5332 6.38863 21.4255 6.347 21.316C4.187 15.96 6.347 10.58 10.667 6.725C13.241 4.439 16.251 4.693 18.94 5.94C18.7786 6.07036 18.6491 6.23588 18.5614 6.42392C18.4737 6.61196 18.4301 6.81755 18.434 7.025V12.427C17.3162 11.776 16.0029 11.5451 14.7301 11.7757C13.4572 12.0063 12.3084 12.6833 11.49 13.685C10.6683 14.6889 10.2281 15.9509 10.2472 17.248C10.2662 18.5451 10.7433 19.7937 11.594 20.773C12.4418 21.7499 13.6102 22.3923 14.8892 22.585C16.1683 22.7776 17.4741 22.5078 18.572 21.824C18.7065 22.1137 18.9361 22.3486 19.2226 22.4897C19.5092 22.6307 19.8354 22.6694 20.147 22.5993C20.4586 22.5291 20.7368 22.3544 20.9353 22.1042C21.1338 21.854 21.2406 21.5434 21.238 21.224V7.302C23.306 8.756 24.96 10.603 25.718 11.873C26.088 12.511 26.352 13.205 26.5 13.928C26.175 13.688 25.796 13.528 25.397 13.466C24.547 13.42 23.903 14.575 24.34 16.236C24.708 17.738 24.248 19.054 25.075 19.1ZM14.712 19.192C11.816 17.53 14.252 13.259 17.148 14.921C18.021 15.406 18.113 16.953 17.952 17.945C17.653 19.654 16.045 19.954 14.712 19.192ZM16.068 8.156C15.424 8.179 14.965 8.964 14.988 9.311C15.01 9.657 15.493 9.865 16.159 9.634C16.757 9.426 17.309 9.564 17.285 9.218C17.262 8.872 16.688 8.133 16.068 8.156Z" fill="white"/>
</g>
<defs>
<clipPath id="clip0_16_687">
<rect width="32" height="32" fill="white"/>
</clipPath>
</defs>
</svg>
