<svg width="32" height="32" viewBox="0 0 32 32" fill="none" xmlns="http://www.w3.org/2000/svg">
<g clip-path="url(#clip0_16_691)">
<path d="M16 32C24.8366 32 32 24.8366 32 16C32 7.16344 24.8366 0 16 0C7.16344 0 0 7.16344 0 16C0 24.8366 7.16344 32 16 32Z" fill="#786DBC"/>
<path d="M15.931 10.771L14.302 9.138C14.0827 8.92821 13.9557 8.63989 13.9489 8.33646C13.9422 8.03302 14.0562 7.73933 14.266 7.52C14.4758 7.30067 14.7641 7.17365 15.0675 7.1669C15.371 7.16015 15.6647 7.27421 15.884 7.484L15.922 7.522L19.558 11.158C20.005 11.605 20.005 12.328 19.558 12.775L15.918 16.411C15.702 16.617 15.414 16.7304 15.1156 16.7269C14.8171 16.7234 14.5318 16.6033 14.3208 16.3922C14.1097 16.1812 13.9896 15.8959 13.9861 15.5974C13.9826 15.299 14.096 15.011 14.302 14.795L16.009 13.088C14.8589 12.885 13.6743 13.0405 12.6155 13.5333C11.5568 14.0262 10.6752 14.8327 10.0901 15.8434C9.50511 16.8542 9.24497 18.0203 9.34495 19.1839C9.44494 20.3474 9.90023 21.4521 10.6491 22.3483C11.398 23.2444 12.4043 23.8886 13.5316 24.1936C14.6589 24.4986 15.8527 24.4497 16.9513 24.0535C18.0499 23.6572 19.0001 22.9328 19.6731 21.9785C20.3462 21.0241 20.7096 19.8858 20.714 18.718V6.142C20.714 5.83886 20.8344 5.54813 21.0488 5.33378C21.2631 5.11942 21.5539 4.999 21.857 4.999C22.1601 4.999 22.4509 5.11942 22.6652 5.33378C22.8796 5.54813 23 5.83886 23 6.142V18.871C22.9681 20.4858 22.4481 22.0532 21.5085 23.3669C20.5689 24.6807 19.2536 25.6792 17.7357 26.2312C16.2178 26.7832 14.5684 26.8629 13.0044 26.4596C11.4404 26.0564 10.035 25.1892 8.97321 23.9721C7.91141 22.755 7.24288 21.245 7.05555 19.6408C6.86822 18.0365 7.17088 16.4131 7.9237 14.9842C8.67653 13.5552 9.84426 12.3875 11.2733 11.6348C12.7023 10.8821 14.3258 10.5796 15.93 10.767L15.931 10.771Z" fill="white"/>
</g>
<defs>
<clipPath id="clip0_16_691">
<rect width="32" height="32" fill="white"/>
</clipPath>
</defs>
</svg>
