<svg width="32" height="32" viewBox="0 0 32 32" fill="none" xmlns="http://www.w3.org/2000/svg">
<g clip-path="url(#clip0_16_721)">
<path d="M16 32C24.8366 32 32 24.8366 32 16C32 7.16344 24.8366 0 16 0C7.16344 0 0 7.16344 0 16C0 24.8366 7.16344 32 16 32Z" fill="#3C80F1"/>
<path d="M16.084 4C10.614 4.004 6.18001 8.436 6.17401 13.905C6.17901 14.439 6.23901 14.971 6.35201 15.493C6.35777 15.5177 6.36953 15.5406 6.38626 15.5597C6.403 15.5787 6.42417 15.5933 6.44792 15.6022C6.47167 15.6111 6.49724 15.6141 6.52238 15.6107C6.54752 15.6073 6.57144 15.5978 6.59201 15.583C6.9706 15.3119 7.42438 15.1658 7.89001 15.165C7.91251 15.1658 7.9349 15.1615 7.95555 15.1525C7.97621 15.1436 7.99462 15.1302 8.00945 15.1132C8.02428 15.0963 8.03516 15.0763 8.04131 15.0546C8.04746 15.033 8.04873 15.0102 8.04501 14.988C7.97916 14.6344 7.94503 14.2757 7.94301 13.916C7.94301 12.847 8.15356 11.7885 8.56263 10.801C8.9717 9.81337 9.57129 8.91602 10.3272 8.16015C11.083 7.40428 11.9804 6.80469 12.968 6.39562C13.9556 5.98655 15.0141 5.776 16.083 5.776C17.152 5.776 18.2105 5.98655 19.1981 6.39562C20.1856 6.80469 21.083 7.40428 21.8389 8.16015C22.5947 8.91602 23.1943 9.81337 23.6034 10.801C24.0125 11.7885 24.223 12.847 24.223 13.916C24.223 18.406 18.479 24.141 16.423 26.166C16.3325 26.2548 16.2108 26.3046 16.084 26.3046C15.9572 26.3046 15.8355 26.2548 15.745 26.166C14.8746 25.3165 14.0299 24.4412 13.212 23.541H13.172C12.3854 23.4637 11.6132 23.2786 10.877 22.991L10.741 22.936C10.7095 22.9215 10.674 22.9182 10.6404 22.9266C10.6067 22.9351 10.577 22.9548 10.5561 22.9824C10.5352 23.0101 10.5244 23.0441 10.5255 23.0788C10.5265 23.1134 10.5394 23.1467 10.562 23.173C11.835 24.6942 13.1858 26.1484 14.609 27.53C15.0029 27.9141 15.5313 28.1292 16.0815 28.1292C16.6317 28.1292 17.1601 27.9141 17.554 27.53C21.174 23.954 25.994 18.664 25.994 13.905C25.988 8.435 21.554 4.004 16.084 4Z" fill="white"/>
<path d="M20.204 14.907C20.204 15.047 20.193 15.184 20.18 15.32C20.144 15.8407 20.0235 16.3521 19.823 16.834C19.607 17.314 19.319 17.757 18.97 18.15L18.98 18.159C18.2887 18.9315 17.4349 19.5414 16.48 19.945C15.5344 20.3519 14.5025 20.5175 13.477 20.427C12.4998 20.3299 11.5658 19.9755 10.77 19.4C11.027 19.392 11.282 19.353 11.53 19.284C11.754 19.222 11.9686 19.1302 12.168 19.011C12.5992 18.7536 12.9338 18.3614 13.12 17.895C13.207 17.682 13.266 17.46 13.298 17.232C13.318 17.042 13.323 16.849 13.316 16.657V10.167C13.3156 10.1607 13.3156 10.1543 13.316 10.148V10.114C13.3305 10.0358 13.3694 9.96419 13.427 9.90941C13.4847 9.85463 13.5582 9.81948 13.637 9.809H15.78C16.288 9.849 16.785 9.982 17.245 10.202C18.2037 10.6552 19.0055 11.3839 19.548 12.295C19.68 12.519 19.796 12.753 19.893 12.995C19.986 13.235 20.06 13.485 20.113 13.737C20.166 13.989 20.196 14.245 20.203 14.502V14.908L20.204 14.907ZM21.968 14.441C21.9572 14.0809 21.914 13.7224 21.839 13.37C21.6903 12.673 21.4282 12.0051 21.063 11.393C20.3392 10.1757 19.2675 9.20293 17.986 8.6C17.3312 8.2891 16.6248 8.1013 15.902 8.046C15.811 8.046 15.723 8.046 15.623 8.036H13.625C13.561 8.036 13.495 8.036 13.43 8.05C13.169 8.08 12.915 8.16 12.682 8.284C12.3617 8.45515 12.0902 8.7049 11.8929 9.00978C11.6955 9.31467 11.5789 9.6647 11.554 10.027V16.657C11.554 16.773 11.546 16.889 11.53 17.004C11.52 17.082 11.501 17.158 11.473 17.232C11.4511 17.2871 11.4208 17.3383 11.383 17.384C11.2908 17.483 11.1709 17.552 11.039 17.582C10.842 17.632 10.639 17.648 10.436 17.629C9.71193 17.5581 9.0306 17.2534 8.49502 16.761C8.3412 16.6187 8.14184 16.5357 7.9325 16.5268C7.72316 16.5178 7.51745 16.5835 7.35205 16.7122C7.18666 16.8408 7.07233 17.024 7.02947 17.2291C6.98661 17.4342 7.01799 17.6479 7.11802 17.832C7.74198 18.9717 8.59849 19.9676 9.63202 20.755C10.1651 21.1527 10.7489 21.4772 11.368 21.72C11.9894 21.9625 12.6412 22.1186 13.305 22.184C14.6228 22.306 15.9503 22.0985 17.168 21.58C18.3809 21.0784 19.4564 20.2943 20.305 19.293L20.316 19.302C20.7842 18.7726 21.1687 18.1747 21.456 17.529C21.7284 16.8715 21.8922 16.1741 21.941 15.464C21.955 15.286 21.964 15.125 21.97 14.955V14.704C21.977 14.63 21.971 14.529 21.97 14.441H21.968Z" fill="white"/>
</g>
<defs>
<clipPath id="clip0_16_721">
<rect width="32" height="32" fill="white"/>
</clipPath>
</defs>
</svg>
