<svg width="32" height="32" viewBox="0 0 32 32" fill="none" xmlns="http://www.w3.org/2000/svg">
<g clip-path="url(#clip0_16_737)">
<path d="M16 32C24.8366 32 32 24.8366 32 16C32 7.16344 24.8366 0 16 0C7.16344 0 0 7.16344 0 16C0 24.8366 7.16344 32 16 32Z" fill="#AA15DD"/>
<path d="M15.999 25.612C16.239 25.613 16.434 25.812 16.435 26.056C16.4361 26.1725 16.3909 26.2847 16.3093 26.368C16.2278 26.4512 16.1165 26.4987 16 26.5C15.9422 26.4995 15.8851 26.4876 15.8319 26.465C15.7787 26.4424 15.7305 26.4095 15.69 26.3683C15.6495 26.3271 15.6176 26.2783 15.596 26.2247C15.5743 26.1711 15.5635 26.1138 15.564 26.056C15.5635 25.9982 15.5743 25.9409 15.596 25.8873C15.6176 25.8337 15.6495 25.7849 15.69 25.7437C15.7305 25.7025 15.7787 25.6696 15.8319 25.647C15.8851 25.6244 15.9422 25.6125 16 25.612H15.999ZM7.219 11.358C7.11798 11.2976 7.04465 11.2 7.01474 11.0861C6.98483 10.9723 7.00072 10.8513 7.059 10.749C7.10178 10.6729 7.16641 10.6114 7.24452 10.5725C7.32263 10.5336 7.41063 10.519 7.49713 10.5306C7.58363 10.5423 7.66464 10.5796 7.72969 10.6378C7.79474 10.696 7.84083 10.7723 7.862 10.857C7.88449 10.942 7.88161 11.0317 7.85371 11.115C7.82581 11.1983 7.77411 11.2717 7.705 11.326C7.6366 11.3796 7.55364 11.4113 7.46694 11.417C7.38024 11.4227 7.29383 11.4022 7.219 11.358ZM7.219 20.652C7.26874 20.6232 7.3237 20.6045 7.38071 20.5971C7.43772 20.5897 7.49563 20.5937 7.55108 20.6089C7.60653 20.624 7.65841 20.6501 7.70372 20.6855C7.74902 20.7208 7.78685 20.7649 7.815 20.815C7.87286 20.9169 7.88852 21.0374 7.85861 21.1506C7.8287 21.2639 7.75561 21.361 7.655 21.421C7.60533 21.4501 7.55035 21.469 7.49328 21.4765C7.43621 21.4841 7.37821 21.4801 7.32269 21.4649C7.26717 21.4497 7.21524 21.4236 7.16996 21.3881C7.12467 21.3525 7.08695 21.3083 7.059 21.258C7.00113 21.1561 6.98547 21.0356 7.01538 20.9224C7.04529 20.8091 7.11838 20.712 7.219 20.652ZM24.779 11.358C24.7293 11.3868 24.6743 11.4055 24.6173 11.4129C24.5603 11.4203 24.5024 11.4163 24.4469 11.4011C24.3915 11.3859 24.3396 11.3599 24.2943 11.3245C24.249 11.2892 24.2111 11.2451 24.183 11.195C24.1392 11.1185 24.1187 11.031 24.1241 10.943C24.1294 10.8551 24.1603 10.7706 24.213 10.7C24.265 10.63 24.3369 10.5773 24.4193 10.5488C24.5017 10.5202 24.5908 10.5172 24.675 10.54C24.7596 10.5639 24.8353 10.6122 24.8926 10.6788C24.95 10.7454 24.9865 10.8274 24.9975 10.9146C25.0086 11.0018 24.9938 11.0903 24.955 11.1692C24.9161 11.248 24.8549 11.3137 24.779 11.358ZM16 6.388C15.8845 6.38511 15.7748 6.33694 15.6946 6.25387C15.6143 6.1708 15.5699 6.0595 15.571 5.944C15.571 5.764 15.679 5.601 15.842 5.533C15.9223 5.49958 16.0109 5.49125 16.096 5.5091C16.1811 5.52695 16.2589 5.57014 16.319 5.633C16.3798 5.69638 16.4207 5.77618 16.4367 5.86253C16.4527 5.94889 16.4431 6.03804 16.409 6.119C16.3756 6.19962 16.3187 6.26836 16.2458 6.31632C16.1729 6.36427 16.0873 6.38924 16 6.388ZM23.8 20.582C23.694 20.769 23.6581 20.9878 23.6987 21.1989C23.7394 21.41 23.854 21.5998 24.022 21.734L16.871 25.934C16.8434 25.7223 16.7401 25.5278 16.5802 25.3864C16.4202 25.245 16.2145 25.1664 16.001 25.165C15.7875 25.1664 15.5818 25.245 15.4218 25.3864C15.2619 25.5278 15.1586 25.7223 15.131 25.934L7.978 21.734C8.14538 21.5995 8.25944 21.4099 8.29975 21.199C8.34006 20.9881 8.30399 20.7697 8.198 20.583C8.09452 20.3972 7.92666 20.2557 7.72606 20.1852C7.52546 20.1146 7.30598 20.1199 7.109 20.2V11.8C7.30574 11.8799 7.5249 11.8852 7.72526 11.8148C7.92562 11.7445 8.09338 11.6034 8.197 11.418C8.30305 11.2317 8.33945 11.0138 8.2997 10.8031C8.25995 10.5925 8.14664 10.4028 7.98 10.268L15.131 6.068C15.1586 6.27969 15.2619 6.47423 15.4218 6.61561C15.5818 6.75699 15.7875 6.83564 16.001 6.837C16.2146 6.83561 16.4205 6.75682 16.5805 6.61524C16.7404 6.47365 16.8437 6.27887 16.871 6.067L24.024 10.267C23.8569 10.4014 23.743 10.5909 23.7027 10.8016C23.6624 11.0122 23.6983 11.2304 23.804 11.417C23.9075 11.6028 24.0753 11.7443 24.2759 11.8148C24.4765 11.8854 24.696 11.8801 24.893 11.8V20.195C24.6951 20.1148 24.4748 20.1099 24.2735 20.1813C24.0723 20.2526 23.9042 20.3951 23.801 20.582H23.8ZM17.688 19.295C16.9111 19.7517 15.992 19.903 15.1096 19.7192C14.2273 19.5355 13.445 19.0299 12.915 18.301L17.633 15.537L19.241 14.593L20.003 14.143L20.047 14.122L23.287 12.216C23.487 12.099 23.557 11.839 23.443 11.635C23.4168 11.586 23.3809 11.5429 23.3375 11.5084C23.2941 11.4738 23.244 11.4485 23.1905 11.434C23.1369 11.4194 23.0809 11.416 23.026 11.424C22.971 11.4319 22.9183 11.4509 22.871 11.48L20.489 12.885C20.036 12.2075 19.4412 11.6366 18.7456 11.2118C18.0501 10.7871 17.2706 10.5186 16.461 10.425V7.696C16.4615 7.63874 16.4508 7.58194 16.4293 7.52884C16.4079 7.47574 16.3762 7.42738 16.3361 7.38652C16.296 7.34566 16.2482 7.31311 16.1955 7.29071C16.1428 7.26832 16.0863 7.25652 16.029 7.256C15.9717 7.25639 15.915 7.26809 15.8621 7.29043C15.8093 7.31276 15.7614 7.3453 15.7212 7.38617C15.681 7.42704 15.6492 7.47545 15.6277 7.52861C15.6063 7.58178 15.5955 7.63866 15.596 7.696V10.4C14.7073 10.4435 13.8425 10.7023 13.076 11.154C12.3842 11.5595 11.7863 12.1072 11.322 12.761L9.138 11.48C9.09042 11.4521 9.03775 11.4341 8.98309 11.4268C8.92843 11.4196 8.87287 11.4234 8.81968 11.4379C8.76649 11.4524 8.71674 11.4774 8.67335 11.5114C8.62996 11.5455 8.5938 11.5878 8.567 11.636C8.51192 11.7336 8.49709 11.8488 8.52566 11.9571C8.55424 12.0654 8.62396 12.1583 8.72 12.216L10.887 13.49C10.4235 14.4192 10.2196 15.4565 10.297 16.492L10.498 17.636C10.588 17.946 10.701 18.248 10.839 18.539L8.72 19.784C8.62333 19.8419 8.55325 19.9354 8.52482 20.0444C8.4964 20.1535 8.5119 20.2693 8.568 20.367C8.59508 20.4152 8.63149 20.4575 8.6751 20.4914C8.71871 20.5253 8.76864 20.5503 8.82199 20.5647C8.87533 20.5791 8.93101 20.5828 8.98579 20.5754C9.04056 20.5681 9.09332 20.5499 9.141 20.522L11.268 19.276C11.7547 19.9868 12.3974 20.577 13.1469 21.0016C13.8965 21.4262 14.7331 21.674 15.593 21.726V24.304C15.593 24.547 15.787 24.744 16.026 24.744C16.0833 24.7435 16.1398 24.7317 16.1925 24.7093C16.2452 24.6869 16.293 24.6543 16.3331 24.6135C16.3732 24.5726 16.4049 24.5243 16.4263 24.4712C16.4478 24.4181 16.4585 24.3613 16.458 24.304V21.704C17.2361 21.624 17.9873 21.3749 18.659 20.974C19.4168 20.5237 20.0561 19.8991 20.524 19.152L22.861 20.52C23.061 20.634 23.313 20.563 23.428 20.361C23.4835 20.264 23.4991 20.1493 23.4715 20.041C23.4439 19.9328 23.3752 19.8395 23.28 19.781L20.928 18.401C20.934 18.388 20.948 18.373 20.948 18.357C21.662 16.713 19.751 16.007 19.326 17.273C19.0421 18.123 18.4598 18.8413 17.687 19.295H17.688ZM24.78 20.652C24.8805 20.7124 24.9534 20.8096 24.9833 20.923C25.0132 21.0364 24.9977 21.1569 24.94 21.259C24.912 21.3092 24.8742 21.3534 24.8289 21.3888C24.7835 21.4242 24.7316 21.4503 24.6761 21.4654C24.6206 21.4804 24.5626 21.4843 24.5056 21.4767C24.4485 21.4691 24.3936 21.4501 24.344 21.421C24.2434 21.361 24.1703 21.2639 24.1404 21.1506C24.1105 21.0374 24.1261 20.9169 24.184 20.815C24.2119 20.7647 24.2497 20.7204 24.295 20.6849C24.3402 20.6494 24.3922 20.6232 24.4477 20.6081C24.5032 20.5929 24.5612 20.5889 24.6183 20.5965C24.6753 20.604 24.7303 20.6229 24.78 20.652ZM12.284 16.587C12.241 14.92 12.439 13.757 14.018 12.829C14.6556 12.4537 15.3929 12.2828 16.1306 12.3393C16.8683 12.3958 17.571 12.677 18.144 13.145L12.284 16.587Z" fill="white"/>
</g>
<defs>
<clipPath id="clip0_16_737">
<rect width="32" height="32" fill="white"/>
</clipPath>
</defs>
</svg>
