<svg width="32" height="32" viewBox="0 0 32 32" fill="none" xmlns="http://www.w3.org/2000/svg">
<g clip-path="url(#clip0_16_813)">
<path d="M16 32C24.8366 32 32 24.8366 32 16C32 7.16344 24.8366 0 16 0C7.16344 0 0 7.16344 0 16C0 24.8366 7.16344 32 16 32Z" fill="#443F54"/>
<path opacity="0.7" d="M15.508 26.708C14.092 25.846 12.369 24.8 10.954 23.938C10.338 23.569 9.662 23.2 9.046 22.769C8.8 22.585 8.8 22.4 8.8 22.277C9.415 19.385 10.092 16.247 10.77 13.415L10.338 12.062C10.338 12.062 8.862 19.138 8.123 22.277C8 22.707 8.123 22.954 8.553 23.2C10.953 24.615 15.815 27.692 15.815 27.692L15.508 26.708ZM16.677 26.708C18.092 25.846 19.815 24.8 21.231 23.938C21.846 23.569 22.523 23.2 23.138 22.769C23.385 22.585 23.385 22.4 23.385 22.277C22.769 19.385 22.092 16.247 21.415 13.415L21.908 12.123C21.908 12.123 23.385 19.138 24.062 22.277C24.185 22.707 24.062 22.954 23.631 23.2C21.231 24.615 16.369 27.692 16.369 27.692L16.677 26.708ZM21.354 12.185L21.108 11.815H11.138L10.892 12.185C10.892 12.185 11.077 12.677 11.015 12.492H21.292C21.169 12.615 21.354 12.185 21.354 12.185Z" fill="#FEFFFE"/>
<path d="M21.662 11.63C21.662 11.63 18.277 6.709 16.8 4.555C16.492 4.185 16.308 4.001 16.123 4.001C15.938 4.001 15.693 4.186 15.446 4.555C13.969 6.647 10.585 11.632 10.585 11.632C10.277 12.062 10.277 12.186 10.523 12.739C10.523 12.739 12.923 19.386 13.908 22.339C14.4 23.693 15.692 27.57 15.692 27.57C15.754 27.693 16 27.755 16.123 27.755C16.284 27.7475 16.4368 27.6817 16.553 27.57C16.553 27.57 17.908 23.693 18.338 22.34C19.323 19.447 21.723 12.74 21.723 12.74C21.969 12.186 21.969 12.063 21.662 11.632V11.63ZM16.123 25.538C14.5555 21.0693 12.9965 16.5976 11.446 12.123C11.446 12.123 14.769 7.262 16.062 5.353C17.354 7.262 20.677 12.123 20.677 12.123C20.677 12.123 17.538 21.353 16.123 25.538Z" fill="#FEFFFE"/>
</g>
<defs>
<clipPath id="clip0_16_813">
<rect width="32" height="32" fill="white"/>
</clipPath>
</defs>
</svg>
