<svg width="32" height="32" viewBox="0 0 32 32" fill="none" xmlns="http://www.w3.org/2000/svg">
<g clip-path="url(#clip0_16_827)">
<path d="M16 32C24.8366 32 32 24.8366 32 16C32 7.16344 24.8366 0 16 0C7.16344 0 0 7.16344 0 16C0 24.8366 7.16344 32 16 32Z" fill="#C9A35E"/>
<path d="M10.027 19.38C9.99662 19.4428 9.94919 19.4958 9.89013 19.5329C9.83107 19.5701 9.76276 19.5898 9.693 19.59H5.62C5.55622 19.5896 5.49366 19.5726 5.43844 19.5406C5.38322 19.5087 5.33723 19.463 5.305 19.408C5.27062 19.3524 5.25159 19.2887 5.24983 19.2233C5.24807 19.158 5.26366 19.0934 5.295 19.036L12.699 5.69C12.832 5.451 13.214 5.451 13.347 5.69L19.119 16.068C19.1479 16.1261 19.1622 16.1904 19.1604 16.2552C19.1587 16.3201 19.141 16.3836 19.109 16.44C19.0784 16.4964 19.0328 16.5432 18.9772 16.5752C18.9215 16.6071 18.8581 16.623 18.794 16.621H17.106C17.0402 16.62 16.9757 16.602 16.919 16.5687C16.8622 16.5354 16.815 16.488 16.782 16.431L13.032 9.611L8.836 17.366H10.438C10.5005 17.3664 10.562 17.3822 10.6169 17.412C10.6719 17.4419 10.7186 17.4848 10.753 17.537C10.7864 17.591 10.8057 17.6526 10.809 17.7161C10.8123 17.7795 10.7996 17.8428 10.772 17.9L10.028 19.378L10.027 19.38ZM26.701 19.036C26.7345 19.0927 26.7513 19.1576 26.7495 19.2234C26.7478 19.2892 26.7275 19.3532 26.691 19.408C26.6605 19.4643 26.615 19.5109 26.5596 19.5429C26.5042 19.5749 26.441 19.5908 26.377 19.589H15.264C15.1653 19.589 15.0707 19.5498 15.001 19.48C14.9312 19.4103 14.892 19.3157 14.892 19.217V17.74C14.892 17.53 15.063 17.368 15.264 17.368H23.172L18.984 9.64L18.192 11.223C18.059 11.471 17.649 11.471 17.525 11.223L16.781 9.745C16.7574 9.69249 16.7452 9.63558 16.7452 9.578C16.7452 9.52042 16.7574 9.46351 16.781 9.411L18.631 5.701C18.6633 5.64257 18.71 5.5934 18.7668 5.55821C18.8235 5.52301 18.8883 5.50297 18.955 5.5C19.0223 5.50014 19.0885 5.51771 19.147 5.55101C19.2056 5.58431 19.2545 5.63219 19.289 5.69L26.701 19.036ZM21.884 20.514L23.724 23.853C23.7568 23.9095 23.7742 23.9737 23.7742 24.039C23.7742 24.1043 23.7568 24.1685 23.724 24.225C23.6935 24.2813 23.648 24.3279 23.5926 24.3599C23.5372 24.3919 23.474 24.4078 23.41 24.406H8.587C8.52101 24.4052 8.45637 24.3873 8.39939 24.3539C8.34242 24.3206 8.29508 24.2731 8.262 24.216C8.23047 24.1585 8.21478 24.0937 8.21654 24.0281C8.21829 23.9626 8.23744 23.8987 8.272 23.843L11.238 19.026L14.195 13.846C14.262 13.723 14.395 13.646 14.529 13.656C14.5967 13.6543 14.6635 13.6723 14.7212 13.7078C14.7788 13.7433 14.825 13.7948 14.854 13.856L15.598 15.335C15.627 15.3897 15.6413 15.451 15.6396 15.5128C15.6378 15.5747 15.62 15.635 15.588 15.688L11.83 22.174H20.167L19.394 20.886C19.3575 20.8312 19.3372 20.7672 19.3355 20.7014C19.3337 20.6356 19.3505 20.5707 19.384 20.514C19.4171 20.4569 19.4644 20.4094 19.5214 20.3761C19.5784 20.3427 19.643 20.3248 19.709 20.324H21.559C21.693 20.324 21.817 20.4 21.884 20.514Z" fill="white"/>
</g>
<defs>
<clipPath id="clip0_16_827">
<rect width="32" height="32" fill="white"/>
</clipPath>
</defs>
</svg>
