<svg width="32" height="32" viewBox="0 0 32 32" fill="none" xmlns="http://www.w3.org/2000/svg">
<g clip-path="url(#clip0_16_863)">
<path d="M16 32C24.8366 32 32 24.8366 32 16C32 7.16344 24.8366 0 16 0C7.16344 0 0 7.16344 0 16C0 24.8366 7.16344 32 16 32Z" fill="#00A5FF"/>
<path fill-rule="evenodd" clip-rule="evenodd" d="M18.08 12.574C18.077 13.467 18.071 14.359 18.07 15.251C18.069 16.735 18.067 18.22 18.074 19.704C18.074 19.884 18.024 19.991 17.867 20.086C17.257 20.453 16.657 20.836 16.013 21.239V20.914C16.013 18.617 16.01 16.319 16.017 14.022C16.018 13.831 15.967 13.723 15.795 13.63C15.26 13.34 14.737 13.028 14.209 12.726C14.151 12.693 14.089 12.666 14 12.622V12.937C14 14.996 13.996 17.055 14.006 19.113C14.006 19.32 13.94 19.428 13.766 19.525C13.241 19.815 12.728 20.125 12.209 20.427C12.136 20.469 12.059 20.506 11.943 20.567V20.247C11.943 18.179 11.938 16.111 11.95 14.044C11.951 13.804 11.87 13.684 11.67 13.574C11.086 13.248 10.513 12.902 9.906 12.547C10.578 12.16 11.224 11.784 11.877 11.423C11.937 11.39 12.062 11.433 12.137 11.476C12.706 11.796 13.273 12.119 13.834 12.452C13.97 12.532 14.069 12.542 14.211 12.455C14.729 12.138 15.265 11.847 15.781 11.525C15.967 11.409 16.101 11.428 16.278 11.534C16.875 11.891 17.482 12.234 18.086 12.581L18.08 12.574ZM18.086 12.581C18.13 12.535 18.168 12.476 18.221 12.445C18.784 12.117 19.347 11.787 19.92 11.477C19.9754 11.4528 20.0353 11.4405 20.0958 11.441C20.1563 11.4416 20.216 11.4548 20.271 11.48C20.853 11.793 21.427 12.121 21.994 12.459C22.072 12.505 22.15 12.627 22.15 12.714C22.159 14.877 22.158 17.041 22.154 19.204C22.154 19.274 22.136 19.384 22.089 19.412C21.441 19.798 20.786 20.173 20.091 20.575V20.246C20.091 18.162 20.089 16.078 20.095 13.995C20.095 13.818 20.053 13.711 19.887 13.62C19.279 13.282 18.681 12.924 18.08 12.574L18.086 12.581ZM6.939 18.788C6.75159 18.7902 6.56558 18.7554 6.39168 18.6855C6.21778 18.6156 6.05941 18.512 5.92567 18.3807C5.79194 18.2494 5.68549 18.093 5.61244 17.9204C5.53938 17.7478 5.50117 17.5624 5.5 17.375C5.49815 17.1874 5.53352 17.0013 5.60406 16.8274C5.67461 16.6536 5.77893 16.4955 5.91099 16.3622C6.04304 16.2289 6.20022 16.1232 6.37341 16.051C6.54661 15.9789 6.73239 15.9419 6.92 15.942C7.10759 15.9392 7.29387 15.9737 7.46802 16.0435C7.64217 16.1133 7.80073 16.2169 7.93451 16.3485C8.06828 16.48 8.1746 16.6368 8.2473 16.8098C8.31999 16.9827 8.35762 17.1684 8.358 17.356C8.36012 17.5435 8.32496 17.7296 8.25456 17.9035C8.18416 18.0773 8.07993 18.2355 7.94791 18.3687C7.81589 18.5019 7.65872 18.6076 7.48553 18.6796C7.31233 18.7515 7.12656 18.7884 6.939 18.788ZM8.854 23.075C8.49759 23.0779 8.1545 22.9397 7.89968 22.6905C7.64485 22.4413 7.49901 22.1014 7.494 21.745C7.49313 21.3885 7.63219 21.0459 7.88127 20.7908C8.13035 20.5357 8.46957 20.3886 8.826 20.381C9.551 20.365 10.178 20.981 10.186 21.718C10.1887 22.0744 10.05 22.4173 9.80032 22.6717C9.55066 22.926 9.21038 23.071 8.854 23.075ZM7.767 11.399C8.487 11.401 9.065 11.979 9.065 12.694C9.065 13.421 8.473 14.006 7.745 13.998C7.57476 13.9968 7.40645 13.9618 7.24986 13.895C7.09327 13.8282 6.95153 13.731 6.83288 13.6089C6.71423 13.4868 6.62105 13.3423 6.55875 13.1839C6.49645 13.0254 6.46628 12.8562 6.47 12.686C6.46837 12.5157 6.50088 12.3468 6.56561 12.1892C6.63034 12.0317 6.72598 11.8887 6.84688 11.7688C6.96777 11.6488 7.11148 11.5543 7.26952 11.4908C7.42755 11.4272 7.59671 11.396 7.767 11.399ZM25.289 16.305C24.9668 16.305 24.6577 16.177 24.4299 15.9491C24.202 15.7213 24.074 15.4122 24.074 15.09C24.074 14.7678 24.202 14.4587 24.4299 14.2309C24.6577 14.003 24.9668 13.875 25.289 13.875C25.6112 13.875 25.9203 14.003 26.1481 14.2309C26.376 14.4587 26.504 14.7678 26.504 15.09C26.504 15.4122 26.376 15.7213 26.1481 15.9491C25.9203 16.177 25.6112 16.305 25.289 16.305ZM9.542 8.61699C9.53985 8.47124 9.56695 8.32654 9.62171 8.19144C9.67646 8.05635 9.75776 7.93361 9.86079 7.83049C9.96381 7.72737 10.0865 7.64596 10.2215 7.59109C10.3566 7.53621 10.5012 7.50897 10.647 7.51099C10.7929 7.51085 10.9373 7.53969 11.0719 7.59583C11.2065 7.65198 11.3286 7.73431 11.4312 7.83805C11.5337 7.94179 11.6146 8.06486 11.6692 8.20013C11.7237 8.33539 11.7509 8.48015 11.749 8.62599C11.7495 8.77172 11.7212 8.91611 11.6655 9.0508C11.6099 9.18549 11.5281 9.3078 11.4248 9.41066C11.3216 9.51352 11.199 9.59488 11.0641 9.65004C10.9292 9.7052 10.7847 9.73305 10.639 9.73199C10.4932 9.73269 10.3488 9.7042 10.2142 9.64819C10.0796 9.59217 9.95758 9.50978 9.85534 9.40586C9.7531 9.30194 9.6727 9.1786 9.61889 9.04312C9.56507 8.90763 9.53893 8.76274 9.542 8.61699ZM24.636 20.91C24.4903 20.9131 24.3455 20.8869 24.2101 20.8329C24.0748 20.7789 23.9517 20.6982 23.8481 20.5957C23.7446 20.4932 23.6627 20.3709 23.6074 20.2361C23.552 20.1013 23.5244 19.9567 23.526 19.811C23.5239 19.6653 23.5506 19.5206 23.6045 19.3852C23.6584 19.2498 23.7386 19.1264 23.8403 19.0221C23.942 18.9178 24.0634 18.8345 24.1973 18.7772C24.3313 18.7199 24.4753 18.6896 24.621 18.688C24.7667 18.6876 24.911 18.7159 25.0457 18.7714C25.1804 18.8268 25.3029 18.9083 25.4061 19.0111C25.5093 19.1139 25.5912 19.2361 25.6471 19.3706C25.703 19.5051 25.7319 19.6493 25.732 19.795C25.7356 19.9408 25.7099 20.0859 25.6563 20.2215C25.6028 20.3572 25.5225 20.4807 25.4202 20.5847C25.318 20.6887 25.1959 20.7711 25.0612 20.827C24.9264 20.8829 24.7819 20.9111 24.636 20.91ZM15.986 6.85499C15.9857 6.96509 15.9632 7.07398 15.9198 7.17516C15.8764 7.27633 15.813 7.36771 15.7334 7.44381C15.6539 7.51991 15.5598 7.57916 15.4568 7.61803C15.3538 7.6569 15.244 7.67457 15.134 7.66999C15.0239 7.66798 14.9154 7.64389 14.8147 7.59917C14.7141 7.55444 14.6235 7.48998 14.5483 7.4096C14.473 7.32922 14.4147 7.23456 14.3767 7.13122C14.3386 7.02789 14.3218 6.91797 14.327 6.80799C14.334 6.5903 14.426 6.384 14.5831 6.2332C14.7403 6.08239 14.9502 5.99905 15.168 6.00099C15.2782 6.002 15.3871 6.02504 15.4882 6.06877C15.5894 6.11249 15.6808 6.17602 15.757 6.2556C15.8332 6.33518 15.8927 6.42921 15.9321 6.53215C15.9714 6.63509 15.9897 6.74486 15.986 6.85499ZM21.757 24.357C21.6488 24.3575 21.5415 24.3365 21.4415 24.2951C21.3415 24.2536 21.2507 24.1927 21.1745 24.1158C21.0984 24.0389 21.0383 23.9475 20.9979 23.8471C20.9574 23.7467 20.9374 23.6392 20.939 23.531C20.9384 23.4204 20.9601 23.3107 21.0029 23.2087C21.0456 23.1066 21.1085 23.0142 21.1877 22.937C21.267 22.8598 21.361 22.7994 21.4641 22.7594C21.5673 22.7193 21.6774 22.7005 21.788 22.704C22.248 22.71 22.608 23.074 22.606 23.534C22.606 24.006 22.238 24.361 21.757 24.357ZM17.477 26C17.3731 26.0022 17.2699 25.9833 17.1736 25.9444C17.0773 25.9055 16.9899 25.8475 16.9166 25.7738C16.8434 25.7001 16.7859 25.6123 16.7477 25.5157C16.7094 25.4192 16.6911 25.3158 16.694 25.212C16.6936 25.1079 16.7139 25.0049 16.7539 24.9088C16.7938 24.8127 16.8525 24.7255 16.9265 24.6524C17.0006 24.5793 17.0885 24.5217 17.185 24.483C17.2816 24.4443 17.385 24.4253 17.489 24.427C17.6989 24.4294 17.8995 24.5141 18.0475 24.663C18.1954 24.812 18.279 25.0131 18.28 25.223C18.2798 25.3272 18.2587 25.4303 18.2179 25.5261C18.1771 25.622 18.1176 25.7087 18.0427 25.7812C17.9678 25.8536 17.8792 25.9103 17.782 25.9479C17.6849 25.9855 17.5811 26.0032 17.477 26ZM20.105 8.27699C19.9167 8.27593 19.7365 8.20011 19.6041 8.06621C19.4717 7.93231 19.3979 7.7513 19.399 7.56299C19.4001 7.37469 19.4759 7.19452 19.6098 7.06212C19.7437 6.92972 19.9247 6.85593 20.113 6.85699C20.497 6.85899 20.823 7.18799 20.822 7.57099C20.8171 7.75859 20.7396 7.93697 20.6059 8.06864C20.4722 8.2003 20.2926 8.27499 20.105 8.27699ZM13.567 24.559C13.5668 24.6407 13.5502 24.7216 13.5182 24.7968C13.4862 24.872 13.4394 24.9401 13.3807 24.9969C13.322 25.0538 13.2525 25.0983 13.1763 25.1279C13.1001 25.1574 13.0187 25.1714 12.937 25.169C12.8552 25.1689 12.7742 25.1523 12.699 25.1201C12.6238 25.0879 12.5558 25.0409 12.4993 24.9817C12.4428 24.9226 12.3988 24.8526 12.3701 24.776C12.3413 24.6994 12.3284 24.6177 12.332 24.536C12.333 24.4545 12.3501 24.374 12.3823 24.2991C12.4145 24.2242 12.4612 24.1564 12.5196 24.0996C12.578 24.0427 12.6471 23.9979 12.7228 23.9678C12.7986 23.9377 12.8795 23.9228 12.961 23.924C13.0425 23.9258 13.1229 23.9437 13.1975 23.9766C13.2721 24.0095 13.3394 24.0568 13.3957 24.1158C13.452 24.1748 13.4961 24.2443 13.5255 24.3203C13.5549 24.3964 13.569 24.4775 13.567 24.559ZM24.23 10.58C24.2329 10.6505 24.2218 10.7209 24.1973 10.7871C24.1727 10.8533 24.1353 10.9139 24.0871 10.9655C24.0388 11.0171 23.9809 11.0585 23.9165 11.0875C23.8521 11.1164 23.7826 11.1322 23.712 11.134C23.5699 11.1364 23.4326 11.0826 23.3299 10.9843C23.2273 10.886 23.1677 10.7511 23.164 10.609C23.1612 10.5385 23.1725 10.4682 23.1973 10.4022C23.222 10.3362 23.2597 10.2757 23.3082 10.2245C23.3566 10.1733 23.4148 10.1322 23.4794 10.1038C23.5439 10.0754 23.6135 10.0601 23.684 10.059C23.983 10.049 24.224 10.28 24.23 10.581V10.58Z" fill="white"/>
</g>
<defs>
<clipPath id="clip0_16_863">
<rect width="32" height="32" fill="white"/>
</clipPath>
</defs>
</svg>
