<svg width="32" height="32" viewBox="0 0 32 32" fill="none" xmlns="http://www.w3.org/2000/svg">
<g clip-path="url(#clip0_16_928)">
<path d="M16 32C24.8366 32 32 24.8366 32 16C32 7.16344 24.8366 0 16 0C7.16344 0 0 7.16344 0 16C0 24.8366 7.16344 32 16 32Z" fill="#ED1968"/>
<path d="M12.7 26.9C11.4224 26.546 10.2311 25.9333 9.20001 25.1C8.18402 24.3174 7.30536 23.3711 6.60001 22.3C5.84787 21.1733 5.3058 19.9197 5.00001 18.6C4.64992 17.0192 4.64992 15.3809 5.00001 13.8C5.29836 12.4627 5.80451 11.1805 6.50001 10C7.51821 8.36643 8.97301 7.05018 10.7 6.2C11.3065 5.87358 11.9427 5.6057 12.6 5.4C13.6 6.6 14.6 7.9 15.6 9.2C15.7 9.4 15.9 9.5 16 9.7C14.997 9.74205 14.0118 9.97985 13.1 10.4C12.2939 10.8214 11.58 11.3993 11 12.1C10.4293 12.8544 9.98983 13.6996 9.70001 14.6C9.43296 15.6887 9.46753 16.8295 9.80001 17.9L14.1 14.5C15.1 15.8 16.1 17 17.1 18.3C15.7 19.4 14.2 20.5 12.8 21.7C14.2 23.5 15.7 25.4 17.1 27.3C15.6215 27.4748 14.1228 27.3386 12.7 26.9ZM22.23 14.786C22.1933 14.6223 22.1499 14.4602 22.1 14.3C21.965 14.406 18.99 16.68 17.8 17.7C16.8 16.4 15.8 15.2 14.8 13.9C16.2 12.8 17.7 11.7 19.1 10.5C17.7 8.7 16.3 6.9 14.8 5C14.8 4.9 14.7 4.9 14.7 4.8H16.1C18.6651 4.82395 21.1412 5.74364 23.1 7.4C24.0546 8.18884 24.8665 9.13598 25.5 10.2C26.2462 11.3454 26.7247 12.6443 26.9 14C27.1679 15.5586 27.134 17.1542 26.8 18.7C26.5138 19.9952 25.9696 21.2196 25.2 22.3C24.5284 23.3372 23.6826 24.2507 22.7 25C21.743 25.8315 20.6172 26.4456 19.4 26.8C18.5 25.7 17.7 24.7 16.9 23.6C16.6011 23.2579 16.3334 22.8898 16.1 22.5C17.0462 22.5032 17.9805 22.2883 18.8302 21.8721C19.68 21.4559 20.4224 20.8495 21 20.1C21.576 19.3632 21.9854 18.5103 22.2 17.6C22.386 16.841 22.396 15.903 22.23 14.786ZM17.507 23.159C18.1976 24.1023 18.9145 25.026 19.657 25.929C20.6068 25.5856 21.4844 25.0684 22.245 24.404C23.1672 23.6991 23.9602 22.8397 24.589 21.864C25.2995 20.867 25.8022 19.7373 26.067 18.542C26.381 17.09 26.412 15.591 26.157 14.096C25.9934 12.8423 25.5487 11.6417 24.856 10.584C24.2647 9.59155 23.507 8.70831 22.616 7.973C20.8161 6.45029 18.5462 5.59487 16.189 5.551C17.116 6.731 18.055 7.934 19.692 10.04L20.132 10.604L19.588 11.069C18.8767 11.674 18.1505 12.2611 17.41 12.83C17.34 12.885 16.49 13.538 15.852 14.032C16.115 14.367 16.42 14.749 16.886 15.332C17.346 15.907 17.651 16.29 17.914 16.625C18.378 16.242 18.884 15.84 19.49 15.37C19.588 15.294 21.186 14.064 21.637 13.71L22.493 13.037L22.816 14.077C23.1887 15.2755 23.2281 16.5528 22.93 17.772C22.6911 18.7863 22.2353 19.7367 21.594 20.558C20.5742 21.8814 19.1095 22.7905 17.471 23.117L17.507 23.159Z" fill="white"/>
</g>
<defs>
<clipPath id="clip0_16_928">
<rect width="32" height="32" fill="white"/>
</clipPath>
</defs>
</svg>
