<svg width="32" height="32" viewBox="0 0 32 32" fill="none" xmlns="http://www.w3.org/2000/svg">
<g clip-path="url(#clip0_16_962)">
<path d="M16 32C24.8366 32 32 24.8366 32 16C32 7.16344 24.8366 0 16 0C7.16344 0 0 7.16344 0 16C0 24.8366 7.16344 32 16 32Z" fill="#005396"/>
<path d="M12.328 4.59801C13.3671 4.26333 14.4471 4.07256 15.538 4.03101C17.035 3.96301 18.54 4.20601 19.955 4.68901C22.2621 5.50333 24.2662 7.00158 25.7 8.98401C26.03 9.42401 26.308 9.89701 26.576 10.377C26.887 10.985 27.168 11.611 27.38 12.26C27.66 13.151 27.87 14.074 27.935 15.009C27.969 15.211 27.947 15.417 27.975 15.619C27.985 15.872 27.981 16.125 27.975 16.38C27.947 16.583 27.969 16.789 27.935 16.991C27.875 17.833 27.701 18.665 27.461 19.475C27.2587 20.1441 26.9977 20.7939 26.681 21.417C25.5014 23.7334 23.6034 25.6054 21.271 26.753C20.6206 27.0773 19.9396 27.3363 19.238 27.526C18.063 27.863 16.838 28.006 15.62 27.972C15.417 27.944 15.208 27.966 15.009 27.932C14.096 27.869 13.198 27.67 12.325 27.398C10.5741 26.8297 8.97688 25.8672 7.65635 24.5846C6.33582 23.3021 5.32716 21.7336 4.70801 20C4.31801 18.865 4.06801 17.678 4.03801 16.475C3.99701 15.898 4.04101 15.318 4.08801 14.742C4.17501 13.891 4.36801 13.049 4.63001 12.236C5.426 9.85129 6.94853 7.77557 8.98401 6.30001C9.42401 5.97001 9.89701 5.69001 10.377 5.42401C11.0022 5.09267 11.655 4.8163 12.328 4.59801ZM14.638 8.92801V11.73C14.632 11.78 14.678 11.808 14.703 11.842C15.133 12.294 15.567 12.742 15.997 13.195C15.9939 11.7727 15.9939 10.3503 15.997 8.92801C15.545 8.92801 15.09 8.92501 14.637 8.92801H14.638ZM8.72801 10.378C8.83101 10.446 8.90601 10.545 8.99301 10.63C9.91901 11.565 10.848 12.497 11.77 13.438C12.615 14.292 13.463 15.143 14.304 15.997C13.285 17.041 12.247 18.067 11.231 19.111C10.418 19.931 9.60401 20.751 8.79401 21.57C8.77259 21.5874 8.75058 21.6041 8.72801 21.62C9.92501 21.62 11.125 21.623 12.325 21.614C13.55 20.332 14.781 19.054 16.003 17.77C17.228 19.051 18.456 20.332 19.681 21.614C20.878 21.623 22.075 21.617 23.271 21.62C23.088 21.473 22.944 21.29 22.773 21.13C21.916 20.264 21.053 19.397 20.198 18.528C19.369 17.683 18.525 16.851 17.702 16C17.902 15.8 18.088 15.592 18.294 15.395C19.862 13.815 21.424 12.229 22.991 10.648C23.085 10.558 23.163 10.452 23.271 10.378C22.071 10.378 20.875 10.374 19.678 10.38C18.453 11.661 17.225 12.94 16 14.22C14.778 12.936 13.547 11.658 12.322 10.38C11.125 10.377 9.92501 10.377 8.72801 10.377V10.378ZM16.006 18.793C16.006 20.22 16.009 21.645 16.003 23.073C16.458 23.069 16.913 23.073 17.365 23.073V20.267C17.3669 20.252 17.3651 20.2368 17.3597 20.2226C17.3542 20.2085 17.3454 20.1959 17.334 20.186C17.104 19.936 16.86 19.703 16.633 19.454C16.427 19.229 16.206 19.024 16.006 18.793Z" fill="white"/>
</g>
<defs>
<clipPath id="clip0_16_962">
<rect width="32" height="32" fill="white"/>
</clipPath>
</defs>
</svg>
