<svg width="32" height="32" viewBox="0 0 32 32" fill="none" xmlns="http://www.w3.org/2000/svg">
<g clip-path="url(#clip0_16_974)">
<path d="M16 32C24.8366 32 32 24.8366 32 16C32 7.16344 24.8366 0 16 0C7.16344 0 0 7.16344 0 16C0 24.8366 7.16344 32 16 32Z" fill="#00A6C4"/>
<path d="M24.777 10.5L24.977 10.831C25.9743 12.5057 26.5005 14.4188 26.5 16.368C26.482 22.236 21.785 27 16 27H15.982C10.197 27 5.48201 22.199 5.50001 16.331C5.50001 14.363 6.04401 12.45 7.04101 10.794L7.22301 10.482L8.18401 11.457C7.99352 11.7354 7.84117 12.0381 7.73101 12.357C7.36459 13.3723 7.41441 14.4913 7.8696 15.4701C8.32479 16.4489 9.14845 17.208 10.161 17.582C10.7563 17.794 11.3931 17.8628 12.0199 17.7829C12.6468 17.703 13.246 17.4766 13.769 17.122L16 19.403L18.557 16.809C18.793 16.975 19.065 17.104 19.355 17.214C21.405 17.95 23.653 16.864 24.378 14.804C24.813 13.59 24.614 12.321 23.979 11.309L24.777 10.5ZM9.36301 12.652L12.373 15.687C12.01 15.982 11.557 16.147 11.067 16.147C9.88901 16.147 8.92701 15.172 8.92701 13.977C8.92701 13.48 9.09101 13.02 9.36301 12.652ZM19.863 15.503L22.837 12.487C23.073 12.837 23.199 13.259 23.199 13.701C23.199 14.896 22.239 15.871 21.059 15.871C20.606 15.871 20.207 15.742 19.863 15.503ZM16.036 17.784L7.36801 8.954L7.71201 8.587C9.85201 6.287 12.772 5 15.91 5H15.928C19.102 5 22.148 6.38 24.27 8.77L24.597 9.139L16.037 17.784H16.036ZM8.78201 8.954L16.036 16.331L23.2 9.102C21.278 7.152 18.667 6.03 15.947 6.03H15.928C13.226 6.03 10.706 7.06 8.78301 8.955L8.78201 8.954Z" fill="white"/>
</g>
<defs>
<clipPath id="clip0_16_974">
<rect width="32" height="32" fill="white"/>
</clipPath>
</defs>
</svg>
