<svg width="32" height="32" viewBox="0 0 32 32" fill="none" xmlns="http://www.w3.org/2000/svg">
<g clip-path="url(#clip0_16_978)">
<path d="M16 32C24.8366 32 32 24.8366 32 16C32 7.16344 24.8366 0 16 0C7.16344 0 0 7.16344 0 16C0 24.8366 7.16344 32 16 32Z" fill="#001D57"/>
<path d="M20.499 5.28799L21.702 6.49199L19.425 8.83199C19.905 9.56199 20.163 10.423 20.163 11.311C20.1712 12.4794 19.7193 13.6041 18.905 14.442C18.3105 15.07 17.536 15.4983 16.688 15.668V17.707C17.5318 17.8812 18.3032 18.3065 18.901 18.927C19.7177 19.7657 20.1711 20.8924 20.163 22.063C20.1708 23.2333 19.7175 24.3595 18.901 25.198C18.5031 25.6102 18.0261 25.938 17.4986 26.1617C16.9711 26.3854 16.404 26.5005 15.831 26.5C15.2579 26.5017 14.6903 26.3873 14.1626 26.1635C13.635 25.9397 13.1582 25.6112 12.761 25.198C11.947 24.358 11.4944 23.2327 11.5 22.063C11.5 20.883 11.948 19.764 12.758 18.931C13.3526 18.3034 14.1272 17.8754 14.975 17.706V15.666C14.1312 15.4917 13.3598 15.0664 12.762 14.446C11.9474 13.6059 11.4944 12.4801 11.5 11.31C11.5 10.13 11.948 9.01099 12.762 8.17499C13.1598 7.76258 13.6368 7.43462 14.1643 7.21074C14.6918 6.98686 15.259 6.87165 15.832 6.87199C16.692 6.87199 17.519 7.13399 18.227 7.62099L20.5 5.28799H20.499ZM15.832 19.345C15.4848 19.3422 15.1408 19.4109 14.8213 19.5468C14.5019 19.6827 14.2138 19.8829 13.975 20.135C13.4746 20.6516 13.1964 21.3437 13.2 22.063C13.2 22.788 13.475 23.465 13.975 23.99C14.2156 24.2397 14.504 24.4384 14.8231 24.5741C15.1421 24.7098 15.4853 24.7799 15.832 24.78C16.179 24.7826 16.5228 24.7139 16.8421 24.578C17.1614 24.4421 17.4494 24.2419 17.688 23.99C18.1882 23.4736 18.4664 22.7819 18.463 22.063C18.463 21.338 18.188 20.661 17.685 20.132C17.4466 19.8808 17.159 19.6814 16.8403 19.546C16.5215 19.4106 16.1783 19.3422 15.832 19.345ZM17.685 13.255C18.187 12.7379 18.4663 12.0447 18.463 11.324C18.4676 10.9674 18.4014 10.6134 18.2684 10.2825C18.1354 9.95153 17.9381 9.65025 17.688 9.39599C17.4476 9.14632 17.1594 8.94767 16.8405 8.81193C16.5216 8.6762 16.1786 8.60615 15.832 8.60599C15.4848 8.60321 15.1408 8.67192 14.8213 8.80783C14.5019 8.94374 14.2138 9.14395 13.975 9.39599C13.4746 9.91263 13.1964 10.6047 13.2 11.324C13.2 12.049 13.475 12.726 13.975 13.251C14.2156 13.5007 14.504 13.6994 14.8231 13.8351C15.1421 13.9708 15.4853 14.0409 15.832 14.041C16.543 14.041 17.199 13.765 17.685 13.255Z" fill="white"/>
</g>
<defs>
<clipPath id="clip0_16_978">
<rect width="32" height="32" fill="white"/>
</clipPath>
</defs>
</svg>
