<svg width="32" height="32" viewBox="0 0 32 32" fill="none" xmlns="http://www.w3.org/2000/svg">
<g clip-path="url(#clip0_16_1011)">
<path d="M16 32C24.8366 32 32 24.8366 32 16C32 7.16344 24.8366 0 16 0C7.16344 0 0 7.16344 0 16C0 24.8366 7.16344 32 16 32Z" fill="#37DCD8"/>
<path d="M15.99 12.679L13.206 9.875C14.0412 8.51669 14.9751 7.22154 16 6C17.0232 7.2163 17.9557 8.5061 18.79 9.859L15.99 12.679ZM21.708 15.489C22.494 17.691 23.647 19.893 22.548 22.007C21.8488 23.3406 20.7644 24.433 19.436 25.142C15.817 27.062 11.337 25.652 9.43101 22.007C8.32101 19.893 9.61401 17.517 10.401 15.316C11.122 13.693 11.851 12.197 12.679 10.759L15.989 14.093L19.318 10.741C20.193 12.255 20.949 13.813 21.708 15.49V15.489Z" fill="white"/>
</g>
<defs>
<clipPath id="clip0_16_1011">
<rect width="32" height="32" fill="white"/>
</clipPath>
</defs>
</svg>
