<svg width="32" height="32" viewBox="0 0 32 32" fill="none" xmlns="http://www.w3.org/2000/svg">
<g clip-path="url(#clip0_16_1027)">
<path d="M16 32C24.8366 32 32 24.8366 32 16C32 7.16344 24.8366 0 16 0C7.16344 0 0 7.16344 0 16C0 24.8366 7.16344 32 16 32Z" fill="#56C9E9"/>
<path d="M23.88 9.443C23.126 9.165 21.46 9.581 21.38 9.7C21.698 9.76 21.797 9.8 22.273 9.879C22.783 9.972 23.273 10.153 23.721 10.415C24.197 10.692 24.395 10.315 24.395 10.315C24.475 10.137 24.257 9.581 23.88 9.443ZM10.333 6.15C10.2111 5.95773 10.0786 5.77244 9.93599 5.595C9.55899 5.198 8.826 5 8.428 5.198C8.21 5.298 8.11099 5.436 8.28999 5.674C8.50699 5.889 8.78299 6.034 9.08299 6.091C9.26099 6.131 10.055 6.309 10.253 6.348C10.453 6.348 10.333 6.15 10.333 6.15ZM11.126 8.153C11.1102 8.11758 11.0816 8.08939 11.046 8.074C10.5566 8.13563 10.0608 8.03103 9.63799 7.777C9.54233 7.70946 9.4281 7.6732 9.31099 7.6732C9.19389 7.6732 9.07966 7.70946 8.98399 7.777C8.72599 7.995 9.10299 8.253 9.12299 8.253C9.28099 8.352 9.46 8.313 9.619 8.352C10.0073 8.46451 10.406 8.53754 10.809 8.57C11.146 8.57 11.225 8.45 11.126 8.153ZM24.257 7.42C24.297 7.3 24.257 6.904 23.542 7.003C22.947 7.103 22.531 7.261 22.551 7.34C22.571 7.42 23.225 7.539 23.364 7.558C23.919 7.658 24.237 7.498 24.257 7.42ZM17.037 4.107C16.9675 4.04267 16.8773 4.00531 16.7827 4.00164C16.6881 3.99797 16.5953 4.02825 16.521 4.087C15.926 4.464 16.362 5.753 16.421 5.753C16.481 5.753 16.541 5.297 17.136 4.623C17.1642 4.58285 17.184 4.53743 17.1943 4.48945C17.2045 4.44147 17.205 4.39191 17.1957 4.34375C17.1863 4.29558 17.1674 4.24979 17.1399 4.20911C17.1125 4.16843 17.0772 4.1337 17.036 4.107H17.037ZM15.146 7.938C15.096 7.888 15.146 7.888 15.146 7.938V7.938Z" fill="white"/>
<path d="M14.577 7.29999C14.2 7.10199 14.517 6.12999 14.379 5.77299C14.366 5.71795 14.3395 5.66699 14.302 5.62464C14.2645 5.5823 14.2171 5.54988 14.1641 5.53028C14.111 5.51068 14.0539 5.50451 13.9979 5.51231C13.9419 5.52011 13.8887 5.54164 13.843 5.57499C13.7915 5.59593 13.7453 5.62792 13.7075 5.66868C13.6697 5.70944 13.6413 5.758 13.6244 5.81092C13.6074 5.86384 13.6022 5.91983 13.6093 5.97496C13.6163 6.03009 13.6353 6.08301 13.665 6.12999C13.745 6.28899 14.22 7.20099 13.843 7.35999C13.704 7.41999 13.407 7.29999 13.209 7.18099C12.495 6.86399 12.376 5.77299 12.157 5.63399C12.0557 5.55928 11.9323 5.52065 11.8065 5.52428C11.6807 5.5279 11.5598 5.57357 11.463 5.65399C11.3653 5.70901 11.2913 5.79792 11.2548 5.90388C11.2183 6.00985 11.2219 6.12552 11.265 6.22899C11.364 6.40799 11.741 6.50699 11.82 7.12199L12.058 7.29999C12.178 7.39999 12.296 7.49899 12.435 7.59799C12.792 7.95499 12.713 8.01499 13.447 7.89599C13.685 7.81599 13.645 7.49899 13.883 7.41999C14.031 7.40042 14.1815 7.42079 14.319 7.47899C14.538 7.59499 14.722 7.76599 14.855 7.97499C15.172 8.35199 15.311 8.82799 15.589 9.24499C15.685 9.41899 15.805 9.57899 15.946 9.71999L16.243 9.95799C16.66 10.236 17.037 10.216 17.334 9.89799C17.4148 9.84019 17.4829 9.76645 17.5342 9.68132C17.5854 9.59619 17.6187 9.50147 17.632 9.40299C17.7901 8.92493 17.9909 8.46207 18.232 8.01999C18.234 8.01818 18.2364 8.0168 18.239 8.01594C18.2416 8.01508 18.2443 8.01476 18.247 8.01499C18.2479 8.00468 18.2524 7.99502 18.2597 7.98771C18.267 7.98039 18.2767 7.97589 18.287 7.97499C18.342 7.9363 18.4077 7.91554 18.475 7.91554C18.5423 7.91554 18.6079 7.9363 18.663 7.97499C18.723 8.05499 18.603 8.78799 18.663 8.86699C18.703 9.02699 19 8.92699 19.258 8.90699C19.2824 8.87651 19.3026 8.84287 19.318 8.80699C19.754 8.66899 20.171 8.45099 20.607 8.33199H20.845C21.088 8.29199 21.335 8.29199 21.579 8.33199C21.817 8.33199 21.896 8.47099 21.876 8.68899C22.273 8.66899 22.67 8.66899 23.066 8.62899C23.245 8.60899 23.523 8.60899 23.503 8.27199C23.463 8.07399 23.146 7.51899 21.698 7.85599C21.559 7.89599 20.766 8.13399 20.488 7.99499C20.911 7.72099 21.348 7.46999 21.797 7.24099C21.995 7.08199 22.154 6.86399 22.035 6.62599C21.916 6.38799 21.678 6.40799 21.46 6.48699C21.0491 6.61467 20.6749 6.83933 20.369 7.14199C20.168 7.34599 19.949 7.53199 19.714 7.69699C19.139 7.97499 19.139 7.97499 19 7.93499C18.822 7.85499 18.623 7.71699 18.762 7.51899C18.843 7.38999 18.903 7.24899 18.941 7.10199C19.001 6.84399 18.921 6.76499 18.742 6.76499C18.385 6.78499 18.266 7.29999 18.207 7.37999C18.169 7.45799 18.122 7.52999 18.068 7.59799C18.022 7.64345 17.9641 7.67506 17.901 7.68921C17.8378 7.70335 17.772 7.69947 17.711 7.67799C17.592 7.65799 17.493 7.59799 17.592 7.43899C17.771 7.16199 18.326 6.72499 18.485 6.14999C18.485 6.14999 18.762 5.39599 17.989 5.37699C17.572 5.35699 17.235 5.65399 17.116 6.10999C16.997 6.58599 17.255 7.24099 17.116 7.55799C17.066 7.69199 16.999 7.81799 16.918 7.93499C16.7844 8.05474 16.6114 8.12097 16.432 8.12097C16.2526 8.12097 16.0795 8.05474 15.946 7.93499C15.8697 7.84599 15.814 7.74117 15.7831 7.62809C15.7521 7.515 15.7466 7.39645 15.767 7.28099C15.8349 7.01954 15.888 6.75445 15.926 6.48699C15.946 6.28899 15.589 5.93199 15.291 6.16999C15.152 6.26999 15.211 6.42799 15.271 6.56699C15.371 6.86399 15.549 7.71699 14.577 7.29999ZM15.133 7.91499C15.113 7.89499 15.133 7.89499 15.133 7.91499V7.91499Z" fill="white"/>
<path d="M15.787 8.81H17.097C17.215 8.784 17.332 8.876 17.414 9.058C17.42 9.158 17.396 9.256 17.354 9.306C17.1368 9.20405 16.8999 9.15119 16.66 9.15119C16.4201 9.15119 16.1831 9.20405 15.966 9.306H15.906L15.787 8.81Z" fill="white"/>
<path d="M20.587 8.27201C20.0816 8.41473 19.5851 8.58702 19.1 8.78801C19.0568 8.80137 19.0105 8.80083 18.9676 8.78648C18.9247 8.77213 18.8874 8.74468 18.861 8.70801C18.8414 8.66447 18.8312 8.61726 18.8312 8.56951C18.8312 8.52176 18.8414 8.47455 18.861 8.43101C18.8808 8.3665 18.8808 8.29752 18.861 8.23301C18.8205 8.12456 18.7523 8.02868 18.663 7.95501C18.6243 7.92293 18.579 7.89984 18.5303 7.88739C18.4816 7.87494 18.4307 7.87344 18.3813 7.883C18.332 7.89257 18.2854 7.91295 18.2449 7.9427C18.2043 7.97244 18.1709 8.0108 18.147 8.05501C17.8808 8.47122 17.6801 8.92586 17.552 9.40301C17.5044 9.59416 17.401 9.76683 17.255 9.89901C16.957 10.157 16.68 10.177 16.283 9.95901C16.1725 9.87872 16.0667 9.79225 15.966 9.70001C15.8296 9.54826 15.7099 9.38231 15.609 9.20501C15.449 8.90701 15.291 8.59001 15.133 8.31201C14.914 7.95501 14.696 7.61801 14.3 7.43901C14.1726 7.39283 14.0343 7.38586 13.903 7.41901C13.8451 7.43022 13.7902 7.45381 13.7423 7.48815C13.6943 7.5225 13.6543 7.56679 13.625 7.61801C13.565 7.71701 12.772 7.73701 12.495 7.57801C12.355 7.49801 11.959 7.10201 11.82 7.14201C11.701 7.14201 11.642 7.06201 11.562 7.00301C11.3843 6.88089 11.18 6.80278 10.9662 6.77514C10.7523 6.74749 10.5349 6.7711 10.332 6.84401C10.2471 6.86402 10.1699 6.90851 10.1099 6.97197C10.05 7.03543 10.0101 7.11506 9.99499 7.20101C9.99604 7.29265 10.0252 7.38177 10.0785 7.45633C10.1318 7.5309 10.2066 7.58733 10.293 7.61801C10.49 7.69201 10.682 7.77801 10.868 7.87601C10.968 7.91601 11.126 7.93601 11.106 8.11401C11.1043 8.16116 11.1111 8.20823 11.126 8.25301C11.146 8.51001 10.967 8.53001 10.789 8.53001C10.535 8.50977 10.2829 8.46999 10.035 8.41101C9.76075 8.31854 9.47012 8.28481 9.18199 8.31201C9.10199 8.41201 9.00399 8.35201 8.90399 8.37201C8.54699 8.43201 8.26999 8.68901 8.28999 8.98601C8.30999 9.32401 8.58699 9.40301 8.86499 9.46201C9.53899 9.62201 10.214 9.56201 10.888 9.58201C11.701 9.58201 12.158 9.97801 12.276 10.792C12.356 11.386 14.141 27.016 14.161 27.353C14.1626 27.4219 14.1868 27.4883 14.2298 27.5421C14.2728 27.5959 14.3322 27.6342 14.399 27.651C15.073 27.856 15.777 27.951 16.481 27.929C17.272 27.949 18.061 27.849 18.821 27.631C18.941 27.591 19.04 27.551 19.04 27.393C19.06 26.977 20.19 12.041 20.19 11.803C20.1782 11.1083 20.402 10.4302 20.825 9.87901C21.162 9.48201 21.539 9.12501 21.876 8.72901C21.976 8.17301 21.261 8.17301 20.587 8.27201Z" fill="white"/>
</g>
<defs>
<clipPath id="clip0_16_1027">
<rect width="32" height="32" fill="white"/>
</clipPath>
</defs>
</svg>
