<svg width="32" height="32" viewBox="0 0 32 32" fill="none" xmlns="http://www.w3.org/2000/svg">
<g clip-path="url(#clip0_16_1035)">
<path d="M16 32C24.8366 32 32 24.8366 32 16C32 7.16344 24.8366 0 16 0C7.16344 0 0 7.16344 0 16C0 24.8366 7.16344 32 16 32Z" fill="#117FC0"/>
<path d="M26.496 10.332L18.041 24.272H12.999L16.874 17.875H13.023L8.533 25.279C10.6733 27.0189 13.3514 27.9616 16.1097 27.946C18.868 27.9304 21.5353 26.9575 23.6558 25.1935C25.7764 23.4296 27.2186 20.984 27.7361 18.2746C28.2535 15.5653 27.8142 12.7603 26.493 10.339L26.496 10.332ZM19.114 7.82999L15.444 13.87H19.3L23.574 6.82099C21.4337 5.0811 18.7556 4.13841 15.9973 4.154C13.239 4.16959 10.5717 5.14248 8.45119 6.90645C6.33064 8.67043 4.88842 11.116 4.37094 13.8254C3.85346 16.5347 4.29284 19.3397 5.614 21.761L14.066 7.83099H19.113L19.114 7.82999Z" fill="white"/>
</g>
<defs>
<clipPath id="clip0_16_1035">
<rect width="32" height="32" fill="white"/>
</clipPath>
</defs>
</svg>
