<svg width="32" height="32" viewBox="0 0 32 32" fill="none" xmlns="http://www.w3.org/2000/svg">
<g clip-path="url(#clip0_16_1061)">
<path d="M16 32C24.8366 32 32 24.8366 32 16C32 7.16344 24.8366 0 16 0C7.16344 0 0 7.16344 0 16C0 24.8366 7.16344 32 16 32Z" fill="#2A3069"/>
<path d="M18.347 10.533C18.347 7.01301 16.64 4.02701 15.36 3.06701C15.36 3.06701 15.253 2.96001 15.253 3.17301C15.147 9.89301 11.733 11.707 9.92 14.267C5.547 19.92 9.6 26.213 13.76 27.387C16.107 28.027 13.227 26.213 12.907 22.48C12.373 17.787 18.347 14.373 18.347 10.533Z" fill="white"/>
<path d="M20.587 12.88C20.373 13.733 19.52 15.547 18.347 17.253C14.4 22.907 16.64 25.68 17.92 27.173C18.667 28.027 17.92 27.173 19.733 26.32C19.84 26.213 23.36 24.4 23.68 20.24C24.107 16.187 21.547 13.627 20.587 12.88Z" fill="white"/>
</g>
<defs>
<clipPath id="clip0_16_1061">
<rect width="32" height="32" fill="white"/>
</clipPath>
</defs>
</svg>
