<svg width="32" height="32" viewBox="0 0 32 32" fill="none" xmlns="http://www.w3.org/2000/svg">
<g clip-path="url(#clip0_16_1087)">
<path d="M16 32C24.8366 32 32 24.8366 32 16C32 7.16344 24.8366 0 16 0C7.16344 0 0 7.16344 0 16C0 24.8366 7.16344 32 16 32Z" fill="#292A2E"/>
<path d="M22.17 10.5C20.83 10.5 19.367 11.167 17.822 12.482C17.1669 13.0474 16.5512 13.6568 15.979 14.306L15.981 14.308L15.983 14.306C15.983 14.306 16.735 15.1 17.561 15.949C18.1235 15.2906 18.7342 14.6749 19.388 14.107C20.762 12.938 21.66 12.693 22.171 12.693C24.098 12.693 25.666 14.177 25.666 16C25.666 17.814 24.097 19.296 22.168 19.308C22.08 19.308 21.968 19.298 21.828 19.268C22.39 19.503 22.994 19.673 23.57 19.673C27.103 19.673 27.793 17.436 27.84 17.277C27.945 16.867 28 16.44 28 16.001C28 12.967 25.385 10.5 22.17 10.5ZM9.83 21.5C11.17 21.5 12.633 20.833 14.178 19.518C14.8331 18.9526 15.4488 18.3432 16.021 17.694L16.019 17.692C16.0184 17.6927 16.0177 17.6934 16.017 17.694C16.017 17.694 15.265 16.9 14.439 16.051C13.8765 16.7094 13.2658 17.3251 12.612 17.893C11.238 19.062 10.34 19.307 9.829 19.307C7.902 19.307 6.334 17.823 6.334 16C6.334 14.186 7.903 12.704 9.832 12.692C9.92 12.692 10.032 12.702 10.172 12.732C9.61 12.497 9.006 12.327 8.43 12.327C4.897 12.327 4.207 14.564 4.16 14.723C4.055 15.133 4 15.56 4 15.999C4 19.033 6.615 21.5 9.83 21.5Z" fill="white"/>
<path d="M23.563 19.617C21.754 19.574 19.874 18.19 19.491 17.846C18.5 16.956 16.213 14.549 16.034 14.36C14.358 12.538 12.086 10.5 9.829 10.5H9.824C7.08 10.513 4.774 12.317 4.161 14.724C4.208 14.565 5.109 12.285 8.428 12.364C10.237 12.408 12.126 13.811 12.509 14.154C13.5 15.044 15.788 17.452 15.966 17.641C17.642 19.462 19.914 21.5 22.171 21.5H22.176C24.92 21.487 27.226 19.683 27.839 17.276C27.793 17.435 26.882 19.696 23.563 19.617Z" fill="white"/>
</g>
<defs>
<clipPath id="clip0_16_1087">
<rect width="32" height="32" fill="white"/>
</clipPath>
</defs>
</svg>
