<svg width="32" height="32" viewBox="0 0 32 32" fill="none" xmlns="http://www.w3.org/2000/svg">
<g clip-path="url(#clip0_16_1105)">
<path d="M16 32C24.8366 32 32 24.8366 32 16C32 7.16344 24.8366 0 16 0C7.16344 0 0 7.16344 0 16C0 24.8366 7.16344 32 16 32Z" fill="#DF1A14"/>
<path d="M14.86 11.527C15.167 11.43 15.516 11.603 15.643 11.905C15.95 12.607 16.225 13.33 16.543 14.031C16.733 14.452 17.38 14.506 17.633 14.118C18.057 13.416 18.396 12.671 18.809 11.958C19.148 11.516 19.762 11.732 20.228 11.689C20.715 11.657 21.075 12.272 20.799 12.693C19.465 15.186 18.121 17.669 16.787 20.163C16.564 20.616 15.834 20.616 15.633 20.141C15.336 19.418 15.103 18.662 14.817 17.939C14.647 17.464 13.917 17.389 13.674 17.842C13.261 18.587 12.901 19.364 12.488 20.098C12.287 20.432 11.863 20.378 11.535 20.378C11.217 20.357 10.836 20.454 10.593 20.184C10.4866 20.0738 10.4194 19.9315 10.4021 19.7793C10.3847 19.627 10.4181 19.4733 10.497 19.342C11.747 16.978 13.017 14.604 14.267 12.218C14.415 11.948 14.542 11.613 14.86 11.528V11.527ZM10.497 11.711C10.8674 11.6894 11.2387 11.6894 11.609 11.711C12.022 11.754 12.287 12.283 12.086 12.661C10.846 15.003 9.59701 17.334 8.35901 19.666C8.21001 19.926 8.09401 20.271 7.77601 20.356C7.40601 20.411 7.02501 20.379 6.65401 20.379C6.19901 20.4 5.81801 19.806 6.09301 19.407C7.38501 16.989 8.67601 14.56 9.96801 12.132C10.074 11.927 10.254 11.722 10.498 11.711H10.497ZM23.637 11.732C24.039 11.613 24.463 11.7 24.876 11.667C25.193 11.678 25.596 11.613 25.829 11.894C26.115 12.186 26.029 12.736 25.669 12.92C24.939 13.384 24.219 13.88 23.479 14.334C23.012 14.657 22.324 14.107 22.525 13.567C22.705 13.135 22.959 12.737 23.161 12.315C23.277 12.099 23.383 11.819 23.637 11.732ZM20.132 18.187C20.344 18.057 20.609 18.101 20.81 18.209C21.371 18.489 21.932 18.792 22.504 19.062C22.748 19.17 23.002 19.375 23.012 19.666C23.055 20.055 22.726 20.432 22.345 20.4C21.53 20.4 20.715 20.41 19.91 20.4C19.508 20.4 19.19 19.925 19.338 19.537C19.444 19.256 19.603 19.007 19.73 18.737C19.825 18.533 19.92 18.284 20.132 18.187Z" fill="white"/>
</g>
<defs>
<clipPath id="clip0_16_1105">
<rect width="32" height="32" fill="white"/>
</clipPath>
</defs>
</svg>
