<svg width="32" height="32" viewBox="0 0 32 32" fill="none" xmlns="http://www.w3.org/2000/svg">
<g clip-path="url(#clip0_16_1109)">
<path d="M16 32C24.8366 32 32 24.8366 32 16C32 7.16344 24.8366 0 16 0C7.16344 0 0 7.16344 0 16C0 24.8366 7.16344 32 16 32Z" fill="#B2A3F6"/>
<path d="M13.446 12.287C12.686 12.287 12.071 11.686 12.071 10.945C12.071 10.204 12.686 9.602 13.446 9.602C14.205 9.602 14.821 10.203 14.821 10.945C14.821 11.687 14.205 12.287 13.446 12.287ZM17.373 10.753C16.614 10.753 15.998 10.152 15.998 9.411C15.998 8.669 16.614 8.068 17.373 8.068C18.133 8.068 18.748 8.669 18.748 9.411C18.748 10.152 18.133 10.753 17.373 10.753ZM18.946 19.958C18.186 19.958 17.571 19.358 17.571 18.616C17.571 17.874 18.186 17.273 18.946 17.273C19.705 17.273 20.321 17.874 20.321 18.616C20.321 19.358 19.705 19.958 18.946 19.958ZM5.78599 18.04C5.684 18.0413 5.58275 18.0225 5.48803 17.9847C5.39331 17.9468 5.30698 17.8907 5.23398 17.8194C5.16098 17.7482 5.10274 17.6633 5.06259 17.5695C5.02244 17.4757 5.00117 17.375 4.99999 17.273C4.99999 16.85 5.35199 16.506 5.78499 16.506C6.21799 16.506 6.57099 16.85 6.57099 17.273C6.56982 17.375 6.54855 17.4757 6.5084 17.5695C6.46825 17.6633 6.41001 17.7482 6.33701 17.8194C6.264 17.8907 6.17767 17.9468 6.08295 17.9847C5.98824 18.0225 5.88698 18.0413 5.78499 18.04H5.78599ZM7.94599 23.028C7.86943 23.0289 7.79344 23.0148 7.72235 22.9863C7.65126 22.9579 7.58647 22.9157 7.53169 22.8622C7.4769 22.8087 7.43318 22.745 7.40304 22.6746C7.37289 22.6042 7.35691 22.5286 7.35599 22.452C7.35599 22.134 7.61999 21.877 7.94599 21.877C8.27199 21.877 8.53599 22.134 8.53599 22.452C8.53508 22.5286 8.51909 22.6042 8.48895 22.6746C8.4588 22.745 8.41509 22.8087 8.3603 22.8622C8.30551 22.9157 8.24072 22.9579 8.16964 22.9863C8.09855 23.0148 8.02256 23.0289 7.94599 23.028ZM14.231 26.863C13.905 26.863 13.641 26.605 13.641 26.287C13.641 25.969 13.905 25.712 14.231 25.712C14.557 25.712 14.821 25.969 14.821 26.287C14.821 26.605 14.557 26.863 14.231 26.863ZM24.446 23.411C24.12 23.411 23.856 23.153 23.856 22.835C23.856 22.517 24.12 22.259 24.446 22.259C24.771 22.259 25.036 22.517 25.036 22.835C25.036 23.153 24.771 23.411 24.446 23.411ZM18.16 22.261C18.0834 22.2619 18.0074 22.2478 17.9363 22.2193C17.8653 22.1909 17.8005 22.1487 17.7457 22.0952C17.6909 22.0417 17.6472 21.978 17.617 21.9076C17.5869 21.8372 17.5709 21.7616 17.57 21.685C17.57 21.367 17.835 21.11 18.16 21.11C18.485 21.11 18.75 21.367 18.75 21.685C18.7491 21.7616 18.7331 21.8372 18.7029 21.9076C18.6728 21.978 18.6291 22.0417 18.5743 22.0952C18.5195 22.1487 18.4547 22.1909 18.3836 22.2193C18.3125 22.2478 18.2366 22.2619 18.16 22.261ZM21.696 19.576C21.37 19.576 21.106 19.318 21.106 19C21.106 18.682 21.37 18.425 21.696 18.425C22.021 18.425 22.286 18.682 22.286 19C22.286 19.318 22.021 19.576 21.696 19.576ZM17.571 26.863C17.137 26.863 16.785 26.519 16.785 26.096C16.785 25.673 17.137 25.329 17.571 25.329C18.004 25.329 18.356 25.672 18.356 26.096C18.356 26.52 18.004 26.863 17.571 26.863ZM21.106 17.273C21.0041 17.2742 20.9029 17.2553 20.8083 17.2174C20.7137 17.1795 20.6275 17.1233 20.5546 17.0521C20.4817 16.9809 20.4236 16.896 20.3835 16.8023C20.3434 16.7086 20.3222 16.6079 20.321 16.506C20.321 16.083 20.672 15.739 21.106 15.739C21.54 15.739 21.891 16.083 21.891 16.506C21.8898 16.6079 21.8686 16.7086 21.8285 16.8023C21.7884 16.896 21.7303 16.9809 21.6574 17.0521C21.5845 17.1233 21.4983 17.1795 21.4036 17.2174C21.309 17.2553 21.2079 17.2742 21.106 17.273ZM22.286 24.945C22.184 24.9463 22.0828 24.9275 21.988 24.8897C21.8933 24.8518 21.807 24.7957 21.734 24.7244C21.661 24.6532 21.6027 24.5683 21.5626 24.4745C21.5224 24.3808 21.5012 24.28 21.5 24.178C21.5 23.754 21.852 23.411 22.285 23.411C22.719 23.411 23.071 23.754 23.071 24.178C23.0698 24.28 23.0485 24.3808 23.0084 24.4745C22.9682 24.5683 22.91 24.6532 22.837 24.7244C22.764 24.7957 22.6777 24.8518 22.583 24.8897C22.4882 24.9275 22.387 24.9463 22.285 24.945H22.286ZM6.76499 21.11C6.22299 21.11 5.78299 20.68 5.78299 20.151C5.78299 19.622 6.22299 19.193 6.76499 19.193C7.30699 19.193 7.74699 19.623 7.74699 20.151C7.74699 20.679 7.30699 21.11 6.76499 21.11ZM16.195 24.945C15.435 24.945 14.82 24.344 14.82 23.602C14.82 22.86 15.435 22.259 16.195 22.259C16.954 22.259 17.57 22.861 17.57 23.602C17.57 24.343 16.954 24.945 16.195 24.945ZM8.72999 18.425C7.96999 18.425 7.35499 17.823 7.35499 17.082C7.35499 16.341 7.96999 15.739 8.72999 15.739C9.48999 15.739 10.105 16.34 10.105 17.082C10.105 17.824 9.48899 18.425 8.72999 18.425ZM16.195 21.492C15.652 21.492 15.212 21.063 15.212 20.534C15.212 20.005 15.652 19.576 16.195 19.576C16.737 19.576 17.177 20.005 17.177 20.534C17.177 21.063 16.737 21.492 16.195 21.492ZM11.48 13.056C11.154 13.056 10.89 12.798 10.89 12.48C10.89 12.162 11.154 11.904 11.48 11.904C11.806 11.904 12.07 12.162 12.07 12.48C12.07 12.798 11.806 13.056 11.48 13.056ZM15.212 15.356C14.562 15.356 14.034 14.841 14.034 14.206C14.034 13.57 14.562 13.054 15.212 13.054C15.862 13.054 16.39 13.57 16.39 14.205C16.39 14.841 15.863 15.357 15.212 15.357V15.356ZM17.962 16.506C17.8601 16.5072 17.7589 16.4883 17.6643 16.4504C17.5697 16.4125 17.4835 16.3563 17.4106 16.2851C17.3377 16.2139 17.2796 16.129 17.2395 16.0353C17.1994 15.9416 17.1782 15.8409 17.177 15.739C17.177 15.316 17.528 14.972 17.962 14.972C18.396 14.972 18.747 15.316 18.747 15.739C18.7458 15.8409 18.7246 15.9416 18.6845 16.0353C18.6444 16.129 18.5863 16.2139 18.5134 16.2851C18.4405 16.3563 18.3543 16.4125 18.2596 16.4504C18.165 16.4883 18.0639 16.5072 17.962 16.506ZM19.337 6.918C19.011 6.918 18.747 6.661 18.747 6.343C18.747 6.025 19.011 5.767 19.337 5.767C19.663 5.767 19.927 6.025 19.927 6.343C19.927 6.661 19.663 6.918 19.337 6.918ZM16.587 6.917C16.4595 6.91858 16.333 6.89503 16.2146 6.84768C16.0963 6.80033 15.9884 6.73011 15.8972 6.64104C15.806 6.55198 15.7333 6.44581 15.6831 6.32861C15.633 6.2114 15.6064 6.08547 15.605 5.958C15.6066 5.83061 15.6332 5.70478 15.6834 5.5877C15.7336 5.47061 15.8064 5.36456 15.8976 5.2756C15.9888 5.18664 16.0966 5.11651 16.2149 5.06922C16.3332 5.02193 16.4596 4.99841 16.587 5C16.7145 4.99828 16.841 5.0217 16.9594 5.06893C17.0778 5.11616 17.1858 5.18626 17.2771 5.27524C17.3684 5.36421 17.4412 5.47031 17.4915 5.58746C17.5417 5.70461 17.5684 5.83053 17.57 5.958C17.5686 6.08555 17.542 6.21157 17.4918 6.32884C17.4416 6.44611 17.3687 6.55232 17.2774 6.6414C17.1861 6.73048 17.0781 6.80068 16.9597 6.84797C16.8412 6.89526 16.7145 6.91871 16.587 6.917ZM17.177 13.054C16.743 13.054 16.392 12.711 16.392 12.287C16.392 11.863 16.743 11.52 17.177 11.52C17.611 11.52 17.962 11.864 17.962 12.287C17.962 12.71 17.611 13.054 17.177 13.054ZM9.71199 21.494C9.06199 21.494 8.53399 20.979 8.53399 20.343C8.53399 19.707 9.06199 19.192 9.71199 19.192C10.362 19.192 10.89 19.707 10.89 20.342C10.89 20.979 10.363 21.494 9.71199 21.494ZM21.105 22.644C20.455 22.644 19.927 22.128 19.927 21.492C19.927 20.857 20.454 20.342 21.105 20.342C21.756 20.342 22.283 20.857 22.283 21.492C22.283 22.128 21.755 22.644 21.105 22.644ZM19.535 25.329C18.884 25.329 18.356 24.813 18.356 24.178C18.356 23.542 18.884 23.026 19.534 23.026C20.184 23.026 20.712 23.542 20.712 24.178C20.712 24.813 20.185 25.328 19.534 25.328L19.535 25.329ZM10.302 25.329C9.54199 25.329 8.92699 24.728 8.92699 23.986C8.92699 23.244 9.54299 22.644 10.302 22.644C11.061 22.644 11.677 23.244 11.677 23.986C11.677 24.728 11.061 25.329 10.302 25.329ZM6.17699 15.357C5.52699 15.357 4.99899 14.841 4.99899 14.205C4.99899 13.57 5.52599 13.055 6.17699 13.055C6.82799 13.055 7.35499 13.57 7.35499 14.205C7.35499 14.841 6.82699 15.357 6.17699 15.357Z" fill="white"/>
<path opacity="0.5" d="M12.07 17.273C11.202 17.273 10.498 16.587 10.498 15.739C10.498 14.892 11.202 14.205 12.071 14.205C12.94 14.205 13.643 14.892 13.643 15.739C13.643 16.587 12.939 17.273 12.071 17.273H12.07ZM20.32 14.973C19.452 14.973 18.748 14.286 18.748 13.438C18.748 12.591 19.452 11.904 20.321 11.904C21.189 11.904 21.893 12.591 21.893 13.438C21.893 14.286 21.189 14.972 20.321 14.972L20.32 14.973ZM24.641 21.494C23.991 21.494 23.463 20.979 23.463 20.343C23.463 19.707 23.991 19.192 24.641 19.192C25.291 19.192 25.819 19.707 25.819 20.342C25.819 20.979 25.292 21.494 24.641 21.494ZM25.821 16.891C25.668 16.8927 25.5162 16.8643 25.3742 16.8073C25.2322 16.7503 25.1028 16.666 24.9934 16.559C24.884 16.452 24.7968 16.3245 24.7366 16.1838C24.6765 16.0431 24.6447 15.892 24.643 15.739C24.643 15.104 25.17 14.589 25.821 14.589C26.471 14.589 26.998 15.104 26.998 15.739C26.998 16.375 26.471 16.891 25.821 16.891ZM21.303 11.521C21.1754 11.5226 21.0488 11.499 20.9304 11.4516C20.812 11.4042 20.7041 11.3339 20.6129 11.2447C20.5217 11.1555 20.4489 11.0492 20.3988 10.9319C20.3488 10.8146 20.3223 10.6885 20.321 10.561C20.3226 10.4336 20.3492 10.3078 20.3994 10.1907C20.4496 10.0736 20.5224 9.96755 20.6136 9.87859C20.7048 9.78963 20.8126 9.7195 20.9309 9.67221C21.0492 9.62492 21.1756 9.6014 21.303 9.60299C21.4305 9.6014 21.557 9.62496 21.6754 9.67231C21.7937 9.71966 21.9016 9.78987 21.9928 9.87894C22.084 9.96801 22.1567 10.0742 22.2069 10.1914C22.257 10.3086 22.2836 10.4345 22.285 10.562C22.2834 10.6894 22.2568 10.8152 22.2066 10.9323C22.1564 11.0494 22.0836 11.1554 21.9924 11.2444C21.9012 11.3333 21.7934 11.4035 21.6751 11.4508C21.5568 11.498 21.4304 11.5216 21.303 11.52V11.521ZM21.498 8.45199C21.065 8.45199 20.713 8.10899 20.713 7.68499C20.713 7.26099 21.065 6.91799 21.498 6.91799C21.932 6.91799 22.284 7.26199 22.284 7.68499C22.284 8.10799 21.932 8.45199 21.498 8.45199ZM23.266 9.21899C22.94 9.21899 22.676 8.96099 22.676 8.64399C22.676 8.32699 22.94 8.06799 23.266 8.06799C23.592 8.06799 23.856 8.32599 23.856 8.64399C23.856 8.96199 23.592 9.21899 23.266 9.21899ZM26.41 13.823C26.085 13.823 25.82 13.565 25.82 13.247C25.82 12.929 26.085 12.671 26.41 12.671C26.735 12.671 27 12.929 27 13.247C27 13.565 26.736 13.823 26.41 13.823ZM9.516 8.83599C9.19 8.83599 8.926 8.57899 8.926 8.26099C8.926 7.94299 9.19 7.68499 9.516 7.68499C9.842 7.68499 10.106 7.94299 10.106 8.26099C10.106 8.57899 9.842 8.83599 9.516 8.83599ZM8.731 13.823C8.405 13.823 8.141 13.565 8.141 13.247C8.141 12.929 8.405 12.671 8.731 12.671C9.057 12.671 9.321 12.929 9.321 13.247C9.321 13.565 9.057 13.823 8.731 13.823ZM10.303 14.59C9.977 14.59 9.713 14.332 9.713 14.014C9.713 13.696 9.977 13.438 10.303 13.438C10.629 13.438 10.893 13.696 10.893 14.014C10.893 14.332 10.629 14.59 10.303 14.59ZM12.266 7.29999C11.94 7.29999 11.676 7.04199 11.676 6.72399C11.676 6.40599 11.94 6.14899 12.266 6.14899C12.592 6.14899 12.856 6.40599 12.856 6.72399C12.856 7.04199 12.592 7.29999 12.266 7.29999ZM26.41 18.809C26.085 18.809 25.82 18.551 25.82 18.233C25.82 17.915 26.085 17.658 26.41 17.658C26.735 17.658 27 17.915 27 18.233C27 18.551 26.736 18.809 26.41 18.809ZM24.446 12.671C23.686 12.671 23.071 12.071 23.071 11.329C23.071 10.587 23.686 9.98599 24.446 9.98599C25.205 9.98599 25.821 10.587 25.821 11.329C25.821 12.07 25.205 12.671 24.446 12.671ZM23.266 15.739C23.1386 15.7406 23.0122 15.717 22.8939 15.6698C22.7756 15.6225 22.6678 15.5523 22.5766 15.4634C22.4854 15.3744 22.4126 15.2684 22.3624 15.1513C22.3122 15.0342 22.2856 14.9084 22.284 14.781C22.284 14.251 22.724 13.823 23.266 13.823C23.3934 13.8214 23.5198 13.8449 23.6381 13.8922C23.7564 13.9395 23.8642 14.0096 23.9554 14.0986C24.0466 14.1875 24.1194 14.2936 24.1696 14.4107C24.2198 14.5278 24.2464 14.6536 24.248 14.781C24.2464 14.9084 24.2198 15.0342 24.1696 15.1513C24.1194 15.2684 24.0466 15.3744 23.9554 15.4634C23.8642 15.5523 23.7564 15.6225 23.6381 15.6698C23.5198 15.717 23.3934 15.7406 23.266 15.739ZM9.91 11.52C9.78261 11.5216 9.65616 11.498 9.53787 11.4508C9.41958 11.4035 9.31176 11.3333 9.22057 11.2444C9.12938 11.1554 9.05661 11.0494 9.00641 10.9323C8.95621 10.8152 8.92957 10.6894 8.928 10.562C8.928 10.032 9.368 9.60299 9.91 9.60299C10.452 9.60299 10.893 10.033 10.893 10.562C10.8914 10.6895 10.8648 10.8154 10.8145 10.9325C10.7642 11.0497 10.6914 11.1558 10.6001 11.2447C10.5088 11.3337 10.4008 11.4038 10.2824 11.4511C10.164 11.4983 10.0375 11.5217 9.91 11.52ZM14.23 8.83499C14.1026 8.83657 13.9762 8.81305 13.8579 8.76576C13.7396 8.71847 13.6318 8.64835 13.5406 8.55939C13.4494 8.47043 13.3766 8.36437 13.3264 8.24729C13.2762 8.1302 13.2496 8.00437 13.248 7.87699C13.248 7.34699 13.688 6.91799 14.231 6.91799C14.774 6.91799 15.213 7.34799 15.213 7.87699C15.2114 8.00437 15.1848 8.1302 15.1346 8.24729C15.0844 8.36437 15.0116 8.47043 14.9204 8.55939C14.8292 8.64835 14.7214 8.71847 14.6031 8.76576C14.4848 8.81305 14.3584 8.83657 14.231 8.83499H14.23ZM11.678 9.21899C11.244 9.21899 10.893 8.87599 10.893 8.45199C10.893 8.02799 11.244 7.68499 11.678 7.68499C12.112 7.68499 12.463 8.02899 12.463 8.45199C12.463 8.87499 12.112 9.21899 11.678 9.21899ZM7.356 12.287C7.25409 12.2882 7.15295 12.2693 7.05834 12.2314C6.96374 12.1935 6.87753 12.1373 6.80463 12.0661C6.73174 11.9949 6.67359 11.91 6.6335 11.8163C6.59341 11.7226 6.57217 11.6219 6.571 11.52C6.571 11.097 6.922 10.753 7.356 10.753C7.79 10.753 8.141 11.097 8.141 11.52C8.13982 11.6219 8.11859 11.7226 8.0785 11.8163C8.03841 11.91 7.98026 11.9949 7.90736 12.0661C7.83447 12.1373 7.74826 12.1935 7.65365 12.2314C7.55905 12.2693 7.45791 12.2882 7.356 12.287ZM23.856 18.425C23.7541 18.4262 23.6529 18.4073 23.5583 18.3694C23.4637 18.3315 23.3775 18.2753 23.3046 18.2041C23.2317 18.1329 23.1736 18.048 23.1335 17.9543C23.0934 17.8606 23.0722 17.7599 23.071 17.658C23.071 17.234 23.422 16.891 23.856 16.891C24.29 16.891 24.641 17.234 24.641 17.658C24.6398 17.7599 24.6186 17.8606 24.5785 17.9543C24.5384 18.048 24.4803 18.1329 24.4074 18.2041C24.3345 18.2753 24.2483 18.3315 24.1537 18.3694C24.0591 18.4073 23.9579 18.4262 23.856 18.425ZM15.41 18.809C14.65 18.809 14.035 18.208 14.035 17.466C14.035 16.724 14.651 16.124 15.41 16.124C16.17 16.124 16.785 16.724 16.785 17.466C16.785 18.208 16.17 18.809 15.41 18.809ZM12.856 19.576C12.7541 19.5772 12.6529 19.5583 12.5583 19.5204C12.4637 19.4825 12.3775 19.4263 12.3046 19.3551C12.2317 19.2839 12.1736 19.199 12.1335 19.1053C12.0934 19.0116 12.0722 18.9109 12.071 18.809C12.071 18.385 12.422 18.042 12.856 18.042C13.29 18.042 13.641 18.385 13.641 18.809C13.6398 18.9109 13.6186 19.0116 13.5785 19.1053C13.5384 19.199 13.4803 19.2839 13.4074 19.3551C13.3345 19.4263 13.2483 19.4825 13.1537 19.5204C13.0591 19.5583 12.9579 19.5772 12.856 19.576ZM13.248 22.644C12.598 22.644 12.071 22.128 12.071 21.492C12.071 20.857 12.598 20.342 13.248 20.342C13.898 20.342 14.426 20.857 14.426 21.492C14.426 22.128 13.899 22.644 13.248 22.644ZM13.248 24.944C13.0424 24.9464 12.8442 24.8671 12.697 24.7234C12.5498 24.5798 12.4656 24.3836 12.463 24.178C12.463 23.754 12.815 23.411 13.248 23.411C13.681 23.411 14.034 23.754 14.034 24.178C14.0328 24.28 14.0116 24.3807 13.9714 24.4745C13.9313 24.5683 13.873 24.6532 13.8 24.7244C13.727 24.7957 13.6407 24.8518 13.546 24.8897C13.4512 24.9275 13.35 24.9463 13.248 24.945V24.944Z" fill="white"/>
</g>
<defs>
<clipPath id="clip0_16_1109">
<rect width="32" height="32" fill="white"/>
</clipPath>
</defs>
</svg>
