<svg width="32" height="32" viewBox="0 0 32 32" fill="none" xmlns="http://www.w3.org/2000/svg">
<g clip-path="url(#clip0_16_1173)">
<path d="M16 32C24.8366 32 32 24.8366 32 16C32 7.16344 24.8366 0 16 0C7.16344 0 0 7.16344 0 16C0 24.8366 7.16344 32 16 32Z" fill="#0093DD"/>
<path fill-rule="evenodd" clip-rule="evenodd" d="M13.54 16L18.714 21.33L21.979 17.967C22.114 17.8262 22.276 17.7141 22.4555 17.6375C22.6349 17.561 22.8279 17.5215 23.023 17.5215C23.2181 17.5215 23.4111 17.561 23.5905 17.6375C23.77 17.7141 23.932 17.8262 24.067 17.967C24.3447 18.2564 24.4998 18.6419 24.4998 19.043C24.4998 19.4441 24.3447 19.8296 24.067 20.119L19.758 24.559C19.6223 24.6986 19.46 24.8095 19.2807 24.8853C19.1014 24.9611 18.9087 25.0001 18.714 25.0001C18.5193 25.0001 18.3266 24.9611 18.1473 24.8853C17.968 24.8095 17.8057 24.6986 17.67 24.559L11.454 18.153V21.961C11.454 22.797 10.788 23.483 9.977 23.483C9.161 23.483 8.5 22.801 8.5 21.961V10.04C8.5 9.2 9.161 8.518 9.977 8.518C10.792 8.518 11.454 9.2 11.454 10.04V13.848L17.67 7.442C17.8057 7.30241 17.968 7.19146 18.1473 7.11569C18.3266 7.03992 18.5193 7.00089 18.714 7.00089C18.9087 7.00089 19.1014 7.03992 19.2807 7.11569C19.46 7.19146 19.6223 7.30241 19.758 7.442L24.068 11.882C24.3457 12.1714 24.5008 12.5569 24.5008 12.958C24.5008 13.3591 24.3457 13.7446 24.068 14.034C23.933 14.1751 23.7708 14.2875 23.5912 14.3642C23.4116 14.441 23.2183 14.4806 23.023 14.4806C22.8277 14.4806 22.6344 14.441 22.4548 14.3642C22.2752 14.2875 22.113 14.1751 21.978 14.034L18.714 10.67L13.54 16ZM18.716 14.477C19.532 14.477 20.194 15.159 20.194 16C20.194 16.841 19.532 17.523 18.716 17.523C17.9 17.523 17.238 16.841 17.238 16C17.238 15.159 17.9 14.477 18.716 14.477Z" fill="white"/>
</g>
<defs>
<clipPath id="clip0_16_1173">
<rect width="32" height="32" fill="white"/>
</clipPath>
</defs>
</svg>
