<svg width="32" height="32" viewBox="0 0 32 32" fill="none" xmlns="http://www.w3.org/2000/svg">
<g clip-path="url(#clip0_16_1199)">
<path d="M16 32C24.8366 32 32 24.8366 32 16C32 7.16344 24.8366 0 16 0C7.16344 0 0 7.16344 0 16C0 24.8366 7.16344 32 16 32Z" fill="#00AEEF"/>
<path d="M15.76 14.706C15.998 14.665 16.208 14.576 16.392 14.441C16.576 14.306 16.75 14.078 16.913 13.766L20.538 6.779C20.68 6.545 20.854 6.359 21.054 6.213C21.2595 6.07086 21.5042 5.9964 21.754 6H24.053L19.539 14.218C19.339 14.556 19.112 14.831 18.859 15.044C18.6062 15.2542 18.3181 15.4177 18.008 15.527C18.492 15.652 18.897 15.855 19.228 16.14C19.554 16.42 19.865 16.816 20.154 17.325L24.5 26H21.97C21.459 26 21.048 25.725 20.738 25.18L17.176 17.829C16.992 17.501 16.792 17.268 16.576 17.127C16.361 16.987 16.087 16.904 15.761 16.883V20.613H13.772V16.867H12.31V26H9.5V6H12.31V14.738H13.772V10.416H15.761V14.706H15.76Z" fill="white"/>
</g>
<defs>
<clipPath id="clip0_16_1199">
<rect width="32" height="32" fill="white"/>
</clipPath>
</defs>
</svg>
