<svg width="32" height="32" viewBox="0 0 32 32" fill="none" xmlns="http://www.w3.org/2000/svg">
<g clip-path="url(#clip0_16_1207)">
<path d="M16 32C24.8366 32 32 24.8366 32 16C32 7.16344 24.8366 0 16 0C7.16344 0 0 7.16344 0 16C0 24.8366 7.16344 32 16 32Z" fill="#006149"/>
<path d="M24.176 17.184L23.379 16.985L23.621 16.015L26.106 16.636L25.486 19.121L24.515 18.879L24.73 18.017L15.858 23.51L6.019 18.594V14.842L16.243 8.448L25.618 13.021V14.565L15.859 20.628L8.612 17.035L9.056 16.139L15.805 19.485L24.618 14.009V13.646L16.303 9.59L7.02 15.396V17.976L15.807 22.366L24.176 17.184Z" fill="white"/>
</g>
<defs>
<clipPath id="clip0_16_1207">
<rect width="32" height="32" fill="white"/>
</clipPath>
</defs>
</svg>
