<svg width="32" height="32" viewBox="0 0 32 32" fill="none" xmlns="http://www.w3.org/2000/svg">
<g clip-path="url(#clip0_16_1215)">
<path d="M16 32C24.8366 32 32 24.8366 32 16C32 7.16344 24.8366 0 16 0C7.16344 0 0 7.16344 0 16C0 24.8366 7.16344 32 16 32Z" fill="#11021E"/>
<path d="M10.929 14.366H10.939L11.092 14.424L11.255 14.481L11.408 14.539L11.571 14.606L11.724 14.664L11.887 14.711L12.041 14.769L12.194 14.836L12.501 14.951L12.664 14.999L12.817 15.066L12.98 15.124L13.134 15.181L13.297 15.239L13.45 15.296L13.613 15.354L13.766 15.411L13.929 15.469L14.083 15.536L14.246 15.584V13.35H10.708L10.555 13.427L10.191 13.619L9.817 13.81L9.453 14.002L9.088 14.194L8.714 14.386L8.341 14.577L7.976 14.769L7.612 14.961L7.238 15.152L6.874 15.344L6.538 15.526L6.5 21.02L6.874 21.279L7.238 21.538L7.612 21.787L8.341 22.305L8.714 22.563L8.877 22.688L9.088 22.429L9.453 21.949L9.481 21.902L9.453 21.873L9.088 21.614L8.714 21.346L8.341 21.087L7.976 20.828L7.612 20.57L7.507 20.502L7.535 16.064L7.612 16.026L7.976 15.844L8.341 15.652L8.714 15.479L9.088 15.288L9.453 15.105L9.817 14.923L10.191 14.741L10.555 14.559L10.929 14.366Z" fill="white"/>
<path d="M17.275 24.853L16.958 24.978L16.613 25.112L16.268 25.256L15.923 25.39L15.77 25.457L15.588 25.362L15.242 25.189L14.907 25.016L14.562 24.844L14.217 24.671L13.872 24.499L13.527 24.326L13.181 24.144L12.836 23.981L12.501 23.799L12.156 23.626L11.82 23.464L11.475 23.281L11.437 23.262V18.786H10.44V23.876L11.82 24.566L12.156 24.738L12.501 24.921L12.836 25.084L13.181 25.266L13.527 25.438L13.872 25.601L14.217 25.783L14.907 26.128L15.242 26.301L15.722 26.541L15.923 26.454L16.268 26.32L16.613 26.186L16.958 26.042L17.303 25.898L17.649 25.774L17.303 24.911L17.275 24.853ZM23.4 18.613L23.42 20.731L23.324 20.799L22.739 21.211L22.164 21.633L21.579 22.045L20.994 22.467L20.4 22.869L19.825 23.291L19.24 23.713L18.895 23.962L18.655 23.77L18.08 23.33L17.495 22.879L16.91 22.438L16.335 21.988L16.23 21.92V19.64L16.335 19.544L16.91 18.93L17.495 18.326L18.08 17.713L18.655 17.109L19.221 16.515H12.252L12.836 17.128L13.412 17.732L14.006 18.336L14.591 18.949L15.166 19.553L15.242 19.64V22.4L15.751 22.793L16.335 23.234L16.91 23.685L17.495 24.125L18.08 24.576L18.655 25.017L18.875 25.19L19.24 24.922L19.825 24.509L20.4 24.088L20.994 23.675L21.579 23.263L22.164 22.851L22.739 22.429L23.324 22.017L23.908 21.605L24.388 21.25L24.483 18.652L23.908 18.633L23.4 18.613ZM7.44901 13.714H7.51601L7.52601 10.896L7.90901 10.656L8.36901 10.379L8.83901 10.101L9.28901 9.803L9.75901 9.525L10.219 9.238L10.679 8.96L11.139 8.682L11.599 8.394L12.069 8.116L12.079 8.106L12.52 8.366L12.99 8.624L13.91 9.161L14.37 9.42L14.84 9.679L15.29 9.947L15.741 10.197L15.761 10.158L16.221 9.334L15.761 9.065L15.291 8.806L14.84 8.548L14.37 8.288L13.91 8.011L13.45 7.752L12.99 7.493L12.52 7.234L12.07 6.975L12.05 6.965L11.6 7.235L11.14 7.522L10.68 7.8L10.22 8.087L9.76001 8.365L9.29001 8.643L8.83901 8.931L8.36901 9.209L7.90901 9.497L7.44901 9.784L6.98901 10.062L6.53901 10.34L6.51901 13.705H6.98901L7.44901 13.714Z" fill="white"/>
<path d="M25.47 11.126L25.24 10.944L24.992 10.743L24.752 10.551L24.512 10.359L24.272 10.159L24.032 9.976L23.784 9.784L23.544 9.583L23.294 9.391L23.122 9.247L23.055 9.324L22.815 9.621L22.566 9.928L22.509 10.014L22.566 10.081L22.816 10.283L23.056 10.474L23.295 10.685L23.544 10.887L23.784 11.087L24.033 11.299L24.273 11.5L24.388 11.596L24.398 16.13L24.273 16.207L24.033 16.37L23.783 16.514L23.544 16.677L23.294 16.82L23.055 16.983L22.815 17.127L22.566 17.29L22.326 17.434L22.086 17.597L21.847 17.741L21.607 17.904L21.358 18.047L21.118 18.21L20.879 18.354L20.639 18.517L20.39 18.661L20.64 19.044L20.88 19.437L20.927 19.504L21.119 19.38L21.359 19.226L21.608 19.083L21.848 18.929L22.087 18.776L22.327 18.623L22.567 18.479L22.815 18.325L23.055 18.182L23.295 18.028L23.544 17.875L23.784 17.721L24.033 17.578L24.273 17.424L24.513 17.281L24.752 17.127L24.992 16.974L25.241 16.82L25.481 16.677L25.47 11.126ZM17.572 13.83V15.795L17.649 15.765L17.965 15.632L18.291 15.507L18.607 15.373L18.933 15.248L19.259 15.114L19.575 14.98L19.901 14.855L20.227 14.721L20.544 14.596L20.869 14.462L21.186 14.338V8.394L20.822 8.174L20.448 7.963L20.083 7.743L19.71 7.522L19.336 7.311L18.962 7.091L18.598 6.87L18.233 6.66L17.859 6.439L17.486 6.219L17.112 6.007L16.747 5.787L16.383 5.567L16.009 5.355L15.818 5.25L15.636 5.336L15.262 5.547L14.897 5.739L14.533 5.94L14.159 6.151L13.785 6.343L13.412 6.544L13.785 6.764L14.159 6.975L14.389 7.11L14.533 7.043L14.897 6.841L15.262 6.65L15.636 6.458L15.789 6.381L16.009 6.506L16.383 6.726L17.112 7.148L17.859 7.589L18.233 7.799L18.962 8.241L19.336 8.451L20.083 8.893L20.198 8.95V13.331H17.581" fill="white"/>
<path d="M17.572 15.795L21.186 14.338L17.562 13.331L17.572 15.795ZM14.246 15.795V13.369L10.938 14.357L14.246 15.785" fill="white"/>
</g>
<defs>
<clipPath id="clip0_16_1215">
<rect width="32" height="32" fill="white"/>
</clipPath>
</defs>
</svg>
