<svg width="32" height="32" viewBox="0 0 32 32" fill="none" xmlns="http://www.w3.org/2000/svg">
<g clip-path="url(#clip0_16_1231)">
<path d="M16 32C24.8366 32 32 24.8366 32 16C32 7.16344 24.8366 0 16 0C7.16344 0 0 7.16344 0 16C0 24.8366 7.16344 32 16 32Z" fill="#48BEFF"/>
<path d="M22.194 26.239L5.81001 14.744C5.25172 14.3522 4.79598 13.8318 4.48136 13.2267C4.16673 12.6215 4.00247 11.9495 4.00247 11.2675C4.00247 10.5855 4.16673 9.91347 4.48136 9.30834C4.79598 8.70321 5.25172 8.18276 5.81001 7.791L9.78001 5L26.166 16.494C26.7243 16.8858 27.18 17.4062 27.4947 18.0113C27.8093 18.6165 27.9736 19.2885 27.9736 19.9705C27.9736 20.6525 27.8093 21.3245 27.4947 21.9297C27.18 22.5348 26.7243 23.0552 26.166 23.447L22.194 26.239ZM9.77601 6.863L6.68301 9.027C6.32322 9.27857 6.02944 9.61324 5.82659 10.0026C5.62374 10.3919 5.51783 10.8245 5.51783 11.2635C5.51783 11.7025 5.62374 12.1351 5.82659 12.5244C6.02944 12.9138 6.32322 13.2484 6.68301 13.5L22.197 24.377L25.291 22.213C25.6508 21.9614 25.9446 21.6268 26.1474 21.2374C26.3503 20.8481 26.4562 20.4155 26.4562 19.9765C26.4562 19.5375 26.3503 19.1049 26.1474 18.7156C25.9446 18.3262 25.6508 17.9916 25.291 17.74L9.77601 6.863Z" fill="white"/>
<path d="M9.76301 24.377L6.67301 22.21C6.31322 21.9584 6.01943 21.6237 5.81658 21.2344C5.61374 20.845 5.50782 20.4125 5.50782 19.9735C5.50782 19.5345 5.61374 19.1019 5.81658 18.7126C6.01943 18.3232 6.31322 17.9886 6.67301 17.737L14.673 12.154L13.353 11.226L5.80901 16.494C5.25071 16.8857 4.79497 17.4062 4.48035 18.0113C4.16572 18.6165 4.00146 19.2885 4.00146 19.9705C4.00146 20.6525 4.16572 21.3245 4.48035 21.9297C4.79497 22.5348 5.25071 23.0552 5.80901 23.447L9.76601 26.226L14.663 22.797L13.349 21.871L9.76301 24.377ZM26.17 7.79699L22.21 5.01999L17.31 8.44899L18.624 9.37399L22.204 6.86899L25.294 9.03599C25.6538 9.28756 25.9476 9.62223 26.1504 10.0116C26.3533 10.4009 26.4592 10.8335 26.4592 11.2725C26.4592 11.7115 26.3533 12.1441 26.1504 12.5334C25.9476 12.9228 25.6538 13.2574 25.294 13.509L17.294 19.091L18.609 20.017L26.163 14.74C26.7213 14.3482 27.177 13.8278 27.4917 13.2227C27.8063 12.6175 27.9705 11.9455 27.9705 11.2635C27.9705 10.5815 27.8063 9.90946 27.4917 9.30433C27.177 8.6992 26.7213 8.17875 26.163 7.78699L26.171 7.79699H26.17Z" fill="white"/>
<path d="M6.746 15.829L12.976 11.467L13.844 12.707L7.613 17.069L6.746 15.829ZM24.496 14.071L21.461 16.196L22.329 17.437L25.471 15.233C25.137 14.851 24.814 14.461 24.49 14.07L24.496 14.071Z" fill="white"/>
</g>
<defs>
<clipPath id="clip0_16_1231">
<rect width="32" height="32" fill="white"/>
</clipPath>
</defs>
</svg>
