<svg width="32" height="32" viewBox="0 0 32 32" fill="none" xmlns="http://www.w3.org/2000/svg">
<g clip-path="url(#clip0_16_1282)">
<path d="M16 32C24.8366 32 32 24.8366 32 16C32 7.16344 24.8366 0 16 0C7.16344 0 0 7.16344 0 16C0 24.8366 7.16344 32 16 32Z" fill="#103F68"/>
<path d="M15.98 5.01801L25.5 10.501V21.501L15.991 27L15.914 26.981L6.5 21.501V10.501L15.914 5.01801H15.98ZM15.949 6.15601L7.5 11.076V20.926L15.948 25.845L16.98 25.248L24.5 20.923V11.078L16.98 6.72801L15.949 6.15601ZM8.809 16.766L11.31 14.896L13.521 16.308V18.848L15.194 20.46L15.193 21.216L13.581 22.726H12.22L8.81 16.766H8.809ZM16.712 21.218L16.709 20.458L18.376 18.848V16.308L20.563 14.878L23.059 16.767L19.666 22.709H18.322L16.712 21.218ZM14.342 16.308L13.528 14.177H18.366L17.568 16.308L17.804 18.69L15.937 18.694L14.092 18.697L14.342 16.308ZM15.937 13.593L11.339 13.591L12.194 9.77101H19.658L20.558 13.596L15.937 13.593Z" fill="white"/>
</g>
<defs>
<clipPath id="clip0_16_1282">
<rect width="32" height="32" fill="white"/>
</clipPath>
</defs>
</svg>
