<svg width="32" height="32" viewBox="0 0 32 32" fill="none" xmlns="http://www.w3.org/2000/svg">
<g clip-path="url(#clip0_16_1298)">
<path d="M16 32C24.8366 32 32 24.8366 32 16C32 7.16344 24.8366 0 16 0C7.16344 0 0 7.16344 0 16C0 24.8366 7.16344 32 16 32Z" fill="black"/>
<path d="M8.673 22.007L15.629 26.383H16.471L23.315 22.007L22.249 21.166L16.022 25.149L9.571 21.166L8.673 22.007ZM12.039 11.854L15.966 5.90699L20.005 11.91L20.959 11.068L16.471 4.33699C16.471 4.33699 16.078 3.83199 15.461 4.33699L10.861 11.237L12.039 11.854Z" fill="white" fill-opacity="0.703"/>
<path d="M16.078 23.859C16.302 23.073 16.583 22.344 16.808 21.559C17.818 18.417 18.827 15.219 19.837 12.078C19.893 11.91 19.949 11.685 20.005 11.518C20.117 11.18 20.285 11.012 20.622 11.012C20.7683 11.0081 20.9112 11.057 21.0244 11.1497C21.1377 11.2424 21.2139 11.3728 21.239 11.517C21.519 12.639 21.744 13.817 22.024 14.939C22.529 17.071 22.978 19.259 23.483 21.39C23.595 21.895 23.427 22.232 23.034 22.344C22.641 22.456 22.361 22.176 22.249 21.671C21.688 19.259 21.127 16.846 20.622 14.378C20.622 14.266 20.566 14.21 20.51 14.041C20.4634 14.1945 20.407 14.3448 20.341 14.491C19.276 17.744 18.266 20.998 17.2 24.251C17.032 24.868 16.807 25.429 16.639 26.046C16.527 26.439 16.302 26.607 15.966 26.607C15.629 26.607 15.405 26.439 15.293 26.047C14.059 22.176 12.824 18.305 11.646 14.434C11.59 14.322 11.59 14.266 11.534 14.041C11.4339 14.5486 11.3219 15.0537 11.198 15.556C10.748 17.576 10.3 19.651 9.851 21.671C9.739 22.231 9.291 22.512 8.841 22.231C8.561 22.063 8.505 21.783 8.561 21.446C9.178 18.641 9.851 15.836 10.468 13.032C10.58 12.582 10.693 12.134 10.748 11.685C10.861 11.237 11.085 11.012 11.422 11.012C11.759 11.012 11.982 11.237 12.095 11.685C13.385 15.725 14.675 19.82 15.91 23.859H16.078Z" fill="white"/>
</g>
<defs>
<clipPath id="clip0_16_1298">
<rect width="32" height="32" fill="white"/>
</clipPath>
</defs>
</svg>
