<svg width="32" height="32" viewBox="0 0 32 32" fill="none" xmlns="http://www.w3.org/2000/svg">
<g clip-path="url(#clip0_16_1308)">
<path d="M16 32C24.8366 32 32 24.8366 32 16C32 7.16344 24.8366 0 16 0C7.16344 0 0 7.16344 0 16C0 24.8366 7.16344 32 16 32Z" fill="#242424"/>
<path d="M22.257 6.77C22.257 7.471 21.687 8.04 20.983 8.04C20.816 8.04026 20.6505 8.00762 20.4961 7.94394C20.3416 7.88026 20.2013 7.78679 20.083 7.66885C19.9647 7.55092 19.8708 7.41085 19.8066 7.25662C19.7424 7.1024 19.7093 6.93704 19.709 6.77C19.709 6.068 20.279 5.5 20.983 5.5C21.687 5.5 22.257 6.068 22.257 6.77ZM21.339 11.194C20.743 11.194 20.259 10.712 20.259 10.118C20.259 9.524 20.743 9.043 21.339 9.043C21.935 9.043 22.418 9.524 22.418 10.118C22.418 10.712 21.935 11.194 21.338 11.194H21.339ZM21.004 13.847C20.8843 13.8473 20.7658 13.8239 20.6551 13.7783C20.5445 13.7327 20.4439 13.6657 20.3592 13.5812C20.2745 13.4966 20.2073 13.3962 20.1615 13.2857C20.1156 13.1752 20.092 13.0567 20.092 12.937C20.0921 12.8174 20.1158 12.699 20.1617 12.5886C20.2077 12.4782 20.2749 12.3779 20.3596 12.2935C20.4443 12.209 20.5448 12.1422 20.6554 12.0966C20.7659 12.051 20.8844 12.0277 21.004 12.028C21.1237 12.0277 21.2422 12.0511 21.3528 12.0967C21.4635 12.1423 21.564 12.2093 21.6488 12.2938C21.7335 12.3784 21.8007 12.4788 21.8465 12.5893C21.8924 12.6998 21.916 12.8183 21.916 12.938C21.9159 13.0576 21.8922 13.176 21.8462 13.2864C21.8003 13.3968 21.7331 13.4971 21.6484 13.5815C21.5637 13.6659 21.4632 13.7328 21.3526 13.7784C21.242 13.824 21.1236 13.8473 21.004 13.847ZM20.95 15.219C20.95 15.4259 20.8678 15.6243 20.7215 15.7705C20.5753 15.9168 20.3769 15.999 20.17 15.999C19.9631 15.999 19.7647 15.9168 19.6185 15.7705C19.4722 15.6243 19.39 15.4259 19.39 15.219C19.39 15.0121 19.4722 14.8137 19.6185 14.6675C19.7647 14.5212 19.9631 14.439 20.17 14.439C20.3769 14.439 20.5753 14.5212 20.7215 14.6675C20.8678 14.8137 20.95 15.0121 20.95 15.219ZM19.716 16.943C19.716 17.313 19.416 17.61 19.047 17.61C18.9149 17.6096 18.7859 17.5701 18.6763 17.4964C18.5667 17.4227 18.4814 17.3182 18.4312 17.196C18.381 17.0739 18.3681 16.9396 18.3942 16.8101C18.4202 16.6806 18.4841 16.5618 18.5777 16.4686C18.6713 16.3754 18.7904 16.3121 18.92 16.2866C19.0496 16.2611 19.1839 16.2746 19.3058 16.3253C19.4277 16.3761 19.5318 16.4619 19.605 16.5718C19.6782 16.6818 19.7172 16.8109 19.717 16.943H19.716ZM18.366 18.166C18.366 18.3182 18.3055 18.4642 18.1979 18.5719C18.0902 18.6795 17.9442 18.74 17.792 18.74C17.6398 18.74 17.4938 18.6795 17.3861 18.5719C17.2785 18.4642 17.218 18.3182 17.218 18.166C17.218 18.0138 17.2785 17.8678 17.3861 17.7601C17.4938 17.6525 17.6398 17.592 17.792 17.592C17.9442 17.592 18.0902 17.6525 18.1979 17.7601C18.3055 17.8678 18.366 18.0138 18.366 18.166ZM25.24 10.757C25.166 11.0273 24.9901 11.2584 24.7494 11.4018C24.5087 11.5453 24.2218 11.5899 23.9488 11.5264C23.6759 11.4629 23.4381 11.2962 23.2855 11.0612C23.1328 10.8262 23.0771 10.5412 23.13 10.266C23.1951 9.9862 23.3687 9.74372 23.6126 9.59191C23.8565 9.4401 24.1507 9.39139 24.4305 9.4565C24.7103 9.52161 24.9528 9.69521 25.1046 9.9391C25.2564 10.183 25.3051 10.4772 25.24 10.757ZM24.722 13.56C24.6667 13.7968 24.5196 14.002 24.313 14.1304C24.1064 14.2587 23.8573 14.2998 23.6205 14.2445C23.3837 14.1892 23.1785 14.0421 23.0501 13.8355C22.9217 13.6289 22.8807 13.3798 22.936 13.143C22.9913 12.9062 23.1384 12.701 23.345 12.5726C23.5516 12.4443 23.8007 12.4032 24.0375 12.4585C24.2743 12.5138 24.4795 12.6609 24.6079 12.8675C24.7362 13.0741 24.7773 13.3232 24.722 13.56ZM23.758 15.797C23.7113 15.9972 23.587 16.1707 23.4124 16.2793C23.2378 16.3879 23.0272 16.4227 22.827 16.376C22.6268 16.3293 22.4533 16.205 22.3447 16.0304C22.2361 15.8558 22.2013 15.6452 22.248 15.445C22.3019 15.2525 22.428 15.0883 22.6001 14.9865C22.7721 14.8848 22.9767 14.8533 23.1714 14.8986C23.366 14.944 23.5357 15.0628 23.645 15.2301C23.7542 15.3975 23.7947 15.6005 23.758 15.797ZM22.516 17.5C22.4694 17.6637 22.3616 17.8033 22.2149 17.8897C22.0683 17.9762 21.894 18.0029 21.7281 17.9643C21.5623 17.9257 21.4177 17.8249 21.3242 17.6826C21.2307 17.5403 21.1956 17.3675 21.226 17.2C21.2458 17.1154 21.282 17.0355 21.3327 16.9649C21.3834 16.8944 21.4475 16.8345 21.5213 16.7887C21.5951 16.7429 21.6773 16.7121 21.763 16.6981C21.8488 16.6841 21.9364 16.6871 22.021 16.707C22.1056 16.7264 22.1856 16.7624 22.2563 16.8128C22.327 16.8632 22.3871 16.9271 22.4331 17.0008C22.4791 17.0744 22.5101 17.1564 22.5243 17.2421C22.5385 17.3278 22.5357 17.4154 22.516 17.5ZM21.159 18.689C21.1419 18.7618 21.1107 18.8304 21.0671 18.8911C21.0235 18.9518 20.9683 19.0033 20.9048 19.0427C20.8413 19.082 20.7706 19.1085 20.6969 19.1206C20.6232 19.1326 20.5477 19.1301 20.475 19.113C20.4022 19.0959 20.3336 19.0647 20.2729 19.0211C20.2122 18.9775 20.1607 18.9223 20.1213 18.8588C20.082 18.7953 20.0555 18.7246 20.0434 18.6509C20.0313 18.5772 20.0339 18.5018 20.051 18.429C20.0855 18.2821 20.1769 18.1549 20.3052 18.0753C20.4335 17.9958 20.5881 17.9705 20.735 18.005C20.8819 18.0395 21.0091 18.1309 21.0887 18.2592C21.1682 18.3875 21.1935 18.5421 21.159 18.689ZM19.804 19.44C19.7674 19.5584 19.6872 19.6586 19.5797 19.7202C19.4722 19.7819 19.3453 19.8006 19.2246 19.7724C19.1039 19.7443 18.9983 19.6714 18.9292 19.5685C18.86 19.4657 18.8325 19.3404 18.852 19.218C18.8886 19.0996 18.9688 18.9994 19.0763 18.9378C19.1838 18.8761 19.3107 18.8574 19.4314 18.8856C19.5521 18.9137 19.6577 18.9866 19.7268 19.0895C19.7959 19.1923 19.8235 19.3176 19.804 19.44ZM26.908 14.584C26.801 14.8038 26.6113 14.9722 26.3803 15.0523C26.1493 15.1323 25.896 15.1175 25.676 15.011C25.5669 14.9587 25.4692 14.8854 25.3886 14.7952C25.308 14.7051 25.246 14.5998 25.2062 14.4856C25.1664 14.3713 25.1496 14.2504 25.1568 14.1296C25.164 14.0089 25.195 13.8907 25.248 13.782C25.3549 13.5625 25.5446 13.3942 25.7753 13.3142C26.006 13.2342 26.2591 13.2488 26.479 13.355C26.5879 13.4075 26.6854 13.4809 26.7659 13.5711C26.8464 13.6613 26.9084 13.7664 26.9482 13.8806C26.9881 13.9947 27.005 14.1156 26.9981 14.2363C26.9912 14.357 26.9606 14.4751 26.908 14.584ZM25.947 16.799C25.8514 16.9773 25.6906 17.1118 25.4982 17.1745C25.3058 17.2371 25.0966 17.2231 24.9144 17.1352C24.7321 17.0474 24.5908 16.8925 24.5199 16.703C24.449 16.5135 24.4541 16.3039 24.534 16.118C24.6254 15.9314 24.7868 15.7885 24.9831 15.7203C25.1794 15.6522 25.3946 15.6643 25.582 15.754C25.6748 15.7984 25.758 15.8607 25.8266 15.9373C25.8952 16.0139 25.9481 16.1034 25.982 16.2005C26.0159 16.2977 26.0303 16.4006 26.0243 16.5033C26.0183 16.606 25.992 16.7065 25.947 16.799ZM24.739 18.479C24.6601 18.6404 24.5205 18.764 24.3508 18.8229C24.181 18.8817 23.9949 18.871 23.833 18.793C23.753 18.7545 23.6814 18.7006 23.6224 18.6344C23.5633 18.5682 23.5178 18.491 23.4887 18.4072C23.4595 18.3234 23.4471 18.2347 23.4523 18.1461C23.4576 18.0575 23.4802 17.9708 23.519 17.891C23.6017 17.737 23.7406 17.621 23.9068 17.567C24.0731 17.513 24.2537 17.5253 24.4111 17.6012C24.5684 17.6772 24.6904 17.811 24.7515 17.9748C24.8126 18.1385 24.8081 18.3195 24.739 18.48V18.479ZM23.393 19.667C23.3245 19.8067 23.2035 19.9136 23.0565 19.9646C22.9095 20.0155 22.7483 20.0063 22.608 19.939C22.5365 19.9067 22.4723 19.8604 22.419 19.8029C22.3658 19.7453 22.3246 19.6777 22.2979 19.604C22.2712 19.5302 22.2595 19.4519 22.2636 19.3736C22.2677 19.2953 22.2874 19.2186 22.3216 19.148C22.3558 19.0775 22.4038 19.0145 22.4628 18.9628C22.5217 18.9111 22.5904 18.8717 22.6649 18.847C22.7393 18.8223 22.8179 18.8128 22.8961 18.8189C22.9742 18.8251 23.0504 18.8469 23.12 18.883C23.1894 18.9165 23.2515 18.9634 23.3028 19.021C23.3541 19.0786 23.3935 19.1457 23.4189 19.2185C23.4442 19.2913 23.455 19.3683 23.4505 19.4453C23.4461 19.5223 23.4265 19.5976 23.393 19.667ZM22.038 20.399C21.9765 20.513 21.8734 20.5988 21.7502 20.6387C21.627 20.6786 21.4932 20.6694 21.3766 20.6131C21.26 20.5568 21.1696 20.4577 21.1242 20.3364C21.0788 20.2151 21.082 20.081 21.133 19.962C21.1969 19.8523 21.2998 19.7708 21.4211 19.7336C21.5425 19.6965 21.6734 19.7065 21.7877 19.7617C21.902 19.8169 21.9913 19.9132 22.0377 20.0313C22.0841 20.1495 22.0842 20.2808 22.038 20.399ZM20.765 20.768C20.7154 20.8696 20.6276 20.9474 20.5208 20.9845C20.414 21.0216 20.2969 21.015 20.195 20.966C20.1447 20.9416 20.0997 20.9075 20.0626 20.8657C20.0255 20.8239 19.9969 20.7751 19.9787 20.7223C19.9604 20.6695 19.9527 20.6135 19.956 20.5577C19.9593 20.5019 19.9736 20.4473 19.998 20.397C20.0224 20.3467 20.0565 20.3017 20.0983 20.2646C20.1401 20.2275 20.1889 20.1989 20.2417 20.1807C20.2945 20.1624 20.3505 20.1547 20.4063 20.158C20.4621 20.1613 20.5167 20.1756 20.567 20.2C20.6173 20.2243 20.6624 20.2582 20.6996 20.2999C20.7368 20.3416 20.7654 20.3902 20.7838 20.4429C20.8022 20.4957 20.81 20.5516 20.8067 20.6073C20.8035 20.6631 20.7893 20.7177 20.765 20.768ZM21.801 25.624C21.6561 25.5412 21.529 25.4305 21.427 25.2984C21.325 25.1663 21.2502 25.0154 21.2067 24.8542C21.1632 24.6931 21.152 24.525 21.1736 24.3595C21.1953 24.194 21.2495 24.0345 21.333 23.89C21.5026 23.5981 21.7808 23.3853 22.1068 23.2979C22.4329 23.2106 22.7803 23.2559 23.073 23.424C23.683 23.774 23.893 24.551 23.542 25.158C23.3726 25.4501 23.0944 25.6631 22.7683 25.7505C22.4421 25.8378 22.0947 25.7923 21.802 25.624H21.801ZM18.811 24.092C18.6883 24.0219 18.5807 23.9283 18.4943 23.8164C18.4079 23.7046 18.3445 23.5768 18.3077 23.4404C18.2709 23.3039 18.2614 23.1616 18.2798 23.0215C18.2983 22.8814 18.3442 22.7463 18.415 22.624C18.5584 22.3768 18.7939 22.1965 19.07 22.1225C19.346 22.0485 19.6401 22.0868 19.888 22.229C20.404 22.525 20.581 23.183 20.284 23.697C20.1407 23.9444 19.9052 24.1249 19.6291 24.1989C19.353 24.273 19.0588 24.2345 18.811 24.092ZM16.609 22.252C16.5052 22.1926 16.4141 22.1133 16.341 22.0186C16.2679 21.9239 16.2143 21.8156 16.1831 21.7001C16.152 21.5846 16.144 21.4641 16.1596 21.3455C16.1752 21.2269 16.2141 21.1125 16.274 21.009C16.3954 20.8 16.5947 20.6477 16.8282 20.5853C17.0618 20.5228 17.3105 20.5555 17.52 20.676C17.6235 20.7353 17.7144 20.8145 17.7872 20.9089C17.8601 21.0034 17.9137 21.1113 17.9448 21.2265C17.9759 21.3417 17.984 21.4619 17.9686 21.5802C17.9532 21.6985 17.9146 21.8126 17.855 21.916C17.7342 22.1257 17.5352 22.2789 17.3015 22.3419C17.0679 22.4049 16.8188 22.3725 16.609 22.252ZM15.108 20.278C15.0196 20.2268 14.9422 20.1588 14.8801 20.0777C14.818 19.9966 14.7725 19.9041 14.7462 19.8055C14.7199 19.7068 14.7132 19.6039 14.7267 19.5027C14.7401 19.4015 14.7733 19.3039 14.8245 19.2155C14.8756 19.1271 14.9437 19.0497 15.0248 18.9876C15.1059 18.9255 15.1984 18.88 15.297 18.8537C15.3957 18.8274 15.4986 18.8207 15.5998 18.8342C15.701 18.8476 15.7986 18.8808 15.887 18.932C16.259 19.146 16.387 19.621 16.172 19.992C16.0687 20.1708 15.8986 20.3014 15.6991 20.355C15.4997 20.4086 15.2871 20.3809 15.108 20.278ZM14.225 18.352C14.1489 18.3085 14.0822 18.2503 14.0286 18.1809C13.975 18.1115 13.9357 18.0322 13.9128 17.9476C13.89 17.8629 13.884 17.7746 13.8954 17.6877C13.9068 17.6008 13.9352 17.5169 13.979 17.441C14.0681 17.2874 14.2144 17.1754 14.3859 17.1295C14.5574 17.0836 14.7401 17.1075 14.894 17.196C15.214 17.38 15.324 17.788 15.14 18.106C15.0513 18.26 14.905 18.3724 14.7334 18.4185C14.5618 18.4646 14.379 18.4407 14.225 18.352ZM13.836 16.575C13.7707 16.5375 13.7134 16.4875 13.6675 16.4278C13.6215 16.3681 13.5878 16.2999 13.5683 16.2271C13.5488 16.1544 13.5439 16.0785 13.5538 16.0038C13.5637 15.9291 13.5882 15.8572 13.626 15.792C13.7025 15.6606 13.8279 15.5648 13.9747 15.5255C14.1216 15.4861 14.2781 15.5064 14.41 15.582C14.4752 15.6197 14.5323 15.6699 14.5782 15.7296C14.624 15.7894 14.6576 15.8576 14.677 15.9304C14.6965 16.0031 14.7014 16.079 14.6915 16.1537C14.6817 16.2283 14.6572 16.3003 14.6195 16.3655C14.5818 16.4307 14.5316 16.4878 14.4719 16.5337C14.4121 16.5795 14.3439 16.6131 14.2711 16.6325C14.1984 16.652 14.1225 16.6569 14.0478 16.647C13.9732 16.6372 13.9012 16.6127 13.836 16.575ZM17.586 26.501C17.444 26.5013 17.3033 26.4735 17.1719 26.4194C17.0406 26.3652 16.9213 26.2857 16.8207 26.1854C16.7201 26.0851 16.6403 25.966 16.5858 25.8348C16.5312 25.7037 16.5031 25.563 16.503 25.421C16.5031 25.279 16.5313 25.1384 16.5858 25.0073C16.6403 24.8762 16.7201 24.7571 16.8207 24.6569C16.9213 24.5567 17.0407 24.4773 17.172 24.4233C17.3033 24.3692 17.444 24.3416 17.586 24.342C18.184 24.342 18.669 24.825 18.669 25.422C18.669 26.018 18.184 26.501 17.586 26.501ZM14.668 24.363C14.5801 24.2811 14.5092 24.1827 14.4595 24.0734C14.4097 23.9641 14.382 23.846 14.378 23.7259C14.3741 23.6059 14.3938 23.4862 14.4362 23.3738C14.4786 23.2614 14.5427 23.1585 14.625 23.071C14.7917 22.894 15.0218 22.7902 15.2648 22.7824C15.5079 22.7745 15.7441 22.8632 15.922 23.029C16.292 23.374 16.31 23.952 15.964 24.321C15.7973 24.4977 15.5674 24.6013 15.3247 24.6091C15.0819 24.617 14.8458 24.5285 14.668 24.363ZM13.203 22.415C13.1288 22.3456 13.069 22.2623 13.0271 22.1697C12.9851 22.0772 12.9619 21.9773 12.9586 21.8758C12.9554 21.7742 12.9722 21.673 13.0081 21.578C13.044 21.483 13.0984 21.396 13.168 21.322C13.3088 21.1723 13.5031 21.0844 13.7086 21.0777C13.914 21.0709 14.1137 21.1458 14.264 21.286C14.3385 21.3552 14.3986 21.4384 14.4408 21.5309C14.4829 21.6234 14.5064 21.7234 14.5097 21.825C14.5131 21.9266 14.4963 22.0279 14.4603 22.123C14.4243 22.2181 14.3698 22.3051 14.3 22.379C14.159 22.5288 13.9645 22.6167 13.7589 22.6234C13.5534 22.6302 13.3535 22.5552 13.203 22.415ZM12.344 20.491C12.2805 20.4319 12.2294 20.3607 12.1935 20.2818C12.1576 20.2028 12.1377 20.1175 12.1349 20.0307C12.1321 19.944 12.1465 19.8576 12.1772 19.7765C12.208 19.6954 12.2545 19.6211 12.314 19.558C12.4343 19.4302 12.6002 19.3552 12.7756 19.3494C12.951 19.3436 13.1215 19.4074 13.25 19.527C13.3135 19.5862 13.3646 19.6574 13.4005 19.7364C13.4364 19.8155 13.4564 19.9008 13.4593 19.9876C13.4621 20.0743 13.4479 20.1608 13.4173 20.242C13.3867 20.3233 13.3404 20.3977 13.281 20.461C13.1606 20.589 12.9943 20.664 12.8187 20.6696C12.6431 20.6752 12.4724 20.611 12.344 20.491ZM11.988 18.727C11.9336 18.6762 11.8898 18.6151 11.859 18.5473C11.8283 18.4795 11.8112 18.4063 11.8088 18.3319C11.8064 18.2575 11.8187 18.1833 11.845 18.1137C11.8713 18.044 11.911 17.9803 11.962 17.926C12.0652 17.8158 12.208 17.751 12.3589 17.746C12.5098 17.7409 12.6566 17.7959 12.767 17.899C12.997 18.113 13.007 18.472 12.793 18.701C12.6896 18.8111 12.5468 18.8756 12.3959 18.8805C12.2449 18.8854 12.0983 18.8302 11.988 18.727ZM12.012 17.181C11.9651 17.1375 11.9273 17.0851 11.9007 17.0269C11.8742 16.9686 11.8594 16.9057 11.8573 16.8418C11.8551 16.7778 11.8657 16.7141 11.8883 16.6542C11.9109 16.5944 11.9451 16.5396 11.989 16.493C12.0779 16.3987 12.2005 16.3435 12.33 16.3394C12.4594 16.3352 12.5853 16.3826 12.68 16.471C12.7625 16.5621 12.8076 16.681 12.8064 16.8039C12.8052 16.9267 12.7578 17.0447 12.6736 17.1342C12.5893 17.2237 12.4745 17.2782 12.3519 17.2869C12.2293 17.2956 12.108 17.2578 12.012 17.181ZM12.687 25.741C12.619 25.6412 12.5714 25.5289 12.5468 25.4107C12.5223 25.2924 12.5213 25.1705 12.544 25.0519C12.5667 24.9332 12.6125 24.8202 12.6789 24.7194C12.7453 24.6185 12.831 24.5317 12.931 24.464C13.1333 24.3266 13.3819 24.275 13.6222 24.3205C13.8625 24.3661 14.075 24.5051 14.213 24.707C14.2811 24.8067 14.3288 24.9189 14.3534 25.0371C14.378 25.1553 14.379 25.2772 14.3563 25.3957C14.3337 25.5143 14.2878 25.6273 14.2213 25.728C14.1548 25.8288 14.0691 25.9155 13.969 25.983C13.7667 26.1203 13.5183 26.1719 13.2781 26.1265C13.0378 26.0812 12.8253 25.9426 12.687 25.741ZM11.241 23.805C11.1829 23.7201 11.1422 23.6246 11.1211 23.524C11.1001 23.4233 11.0991 23.3195 11.1184 23.2184C11.1376 23.1174 11.1766 23.0212 11.2332 22.9353C11.2898 22.8494 11.3628 22.7756 11.448 22.718C11.6201 22.6015 11.8313 22.5577 12.0355 22.5963C12.2397 22.6349 12.4203 22.7527 12.538 22.924C12.5961 23.0089 12.6368 23.1044 12.6579 23.205C12.6789 23.3057 12.6799 23.4095 12.6606 23.5106C12.6414 23.6116 12.6024 23.7078 12.5458 23.7937C12.4892 23.8796 12.4162 23.9534 12.331 24.011C12.159 24.1278 11.9477 24.1717 11.7435 24.1331C11.5392 24.0945 11.3585 23.9765 11.241 23.805ZM10.383 21.922C10.333 21.8487 10.298 21.7663 10.2799 21.6794C10.2618 21.5926 10.2611 21.503 10.2777 21.4158C10.2944 21.3287 10.328 21.2457 10.3768 21.1716C10.4256 21.0975 10.4885 21.0337 10.562 20.984C10.7107 20.8832 10.8932 20.8454 11.0697 20.8788C11.2462 20.9121 11.4023 21.0139 11.504 21.162C11.5543 21.2354 11.5895 21.3181 11.6076 21.4052C11.6258 21.4923 11.6265 21.5821 11.6098 21.6695C11.5931 21.7569 11.5592 21.8401 11.5101 21.9143C11.4611 21.9886 11.3978 22.0523 11.324 22.102C11.1751 22.2022 10.9927 22.2396 10.8164 22.2059C10.6401 22.1721 10.4843 22.0701 10.383 21.922ZM10.023 20.168C9.97958 20.1043 9.94914 20.0327 9.93344 19.9573C9.91773 19.8819 9.91705 19.8041 9.93145 19.7283C9.94585 19.6526 9.97503 19.5805 10.0173 19.5161C10.0596 19.4517 10.1142 19.3963 10.178 19.353C10.3071 19.2654 10.4657 19.2326 10.619 19.2616C10.7723 19.2907 10.9079 19.3793 10.996 19.508C11.0396 19.5716 11.0702 19.6433 11.086 19.7188C11.1018 19.7943 11.1024 19.8722 11.0879 19.948C11.0734 20.0238 11.044 20.096 11.0015 20.1603C10.9589 20.2247 10.904 20.28 10.84 20.323C10.7109 20.4103 10.5526 20.4429 10.3995 20.4139C10.2465 20.3849 10.1111 20.2965 10.023 20.168ZM10.063 18.632C10.0258 18.5777 9.99978 18.5165 9.98631 18.4521C9.97283 18.3877 9.97221 18.3213 9.98447 18.2566C9.99674 18.1919 10.0216 18.1303 10.0578 18.0753C10.0939 18.0203 10.1405 17.973 10.195 17.936C10.3053 17.8611 10.4407 17.8329 10.5718 17.8576C10.7028 17.8824 10.8186 17.958 10.894 18.068C10.9598 18.1782 10.981 18.3094 10.9533 18.4347C10.9255 18.5601 10.8509 18.6701 10.7446 18.7421C10.6384 18.8142 10.5087 18.843 10.3819 18.8225C10.2552 18.802 10.1411 18.7339 10.063 18.632ZM10.377 17.349C10.3438 17.3027 10.3201 17.2502 10.3075 17.1946C10.2948 17.1391 10.2934 17.0815 10.3034 17.0254C10.3133 16.9693 10.3344 16.9157 10.3654 16.8679C10.3964 16.82 10.4366 16.7789 10.4838 16.7468C10.5309 16.7148 10.584 16.6925 10.6398 16.6813C10.6957 16.6701 10.7533 16.6702 10.8091 16.6815C10.865 16.6929 10.918 16.7154 10.965 16.7476C11.0121 16.7798 11.0522 16.8211 11.083 16.869C11.1432 16.9627 11.1645 17.0761 11.1422 17.1852C11.12 17.2944 11.056 17.3904 10.9639 17.4531C10.8718 17.5157 10.7589 17.5398 10.6493 17.5204C10.5397 17.5009 10.4419 17.4394 10.377 17.349ZM5.637 15.807C5.92967 15.6387 6.27713 15.5932 6.60326 15.6805C6.9294 15.7679 7.20762 15.9809 7.377 16.273C7.46043 16.4175 7.51453 16.577 7.53622 16.7424C7.5579 16.9078 7.54673 17.0758 7.50335 17.2369C7.45996 17.398 7.38522 17.5489 7.2834 17.6811C7.18159 17.8132 7.05469 17.924 6.91 18.007C6.3 18.357 5.522 18.148 5.171 17.542C5.08736 17.3976 5.03307 17.238 5.01124 17.0726C4.9894 16.9071 5.00044 16.7389 5.04374 16.5777C5.08703 16.4165 5.16172 16.2655 5.26353 16.1332C5.36533 16.001 5.49225 15.8901 5.637 15.807ZM8.467 13.997C8.71466 13.854 9.00892 13.8151 9.28525 13.8888C9.56157 13.9624 9.7974 14.1427 9.941 14.39C10.238 14.905 10.061 15.562 9.545 15.859C9.29718 16.0011 9.00324 16.0394 8.7273 15.9656C8.45136 15.8917 8.21579 15.7118 8.07199 15.465C8.00112 15.3427 7.95512 15.2076 7.93662 15.0675C7.91812 14.9273 7.92749 14.7849 7.9642 14.6484C8.0009 14.5119 8.06422 14.384 8.1505 14.272C8.23679 14.1601 8.34435 14.0663 8.467 13.996V13.997ZM11.168 13.02C11.3776 12.8997 11.6262 12.8673 11.8596 12.9296C12.0931 12.992 12.2924 13.1442 12.414 13.353C12.4737 13.4565 12.5124 13.5708 12.5279 13.6893C12.5435 13.8079 12.5355 13.9283 12.5045 14.0437C12.4735 14.1591 12.42 14.2673 12.3472 14.3621C12.2743 14.4568 12.1836 14.5363 12.08 14.596C11.8703 14.7162 11.6216 14.7485 11.3881 14.6859C11.1547 14.6233 10.9555 14.4709 10.834 14.262C10.7742 14.1586 10.7354 14.0443 10.7198 13.9259C10.7042 13.8074 10.7122 13.6871 10.7432 13.5717C10.7742 13.4563 10.8277 13.3482 10.9006 13.2535C10.9735 13.1588 11.0644 13.0795 11.168 13.02ZM13.635 12.714C13.814 12.611 14.0265 12.5832 14.2259 12.6366C14.4254 12.69 14.5955 12.8203 14.699 12.999C14.75 13.0873 14.7832 13.1848 14.7965 13.2859C14.8097 13.387 14.803 13.4897 14.7765 13.5882C14.75 13.6866 14.7044 13.7789 14.6422 13.8597C14.58 13.9405 14.5024 14.0082 14.414 14.059C14.3253 14.1103 14.2274 14.1436 14.1258 14.1571C14.0242 14.1705 13.9209 14.1638 13.8219 14.1374C13.7229 14.1109 13.6301 14.0652 13.5488 14.0028C13.4675 13.9405 13.3993 13.8627 13.348 13.774C13.297 13.6856 13.264 13.588 13.2509 13.4868C13.2377 13.3857 13.2447 13.2829 13.2714 13.1844C13.298 13.0859 13.3439 12.9937 13.4063 12.9129C13.4687 12.8322 13.5464 12.7646 13.635 12.714ZM15.749 12.918C15.9027 12.8295 16.0853 12.8056 16.2566 12.8516C16.428 12.8975 16.5741 13.0095 16.663 13.163C16.7404 13.316 16.7562 13.4929 16.7072 13.6573C16.6581 13.8216 16.5478 13.9608 16.3992 14.0463C16.2505 14.1318 16.0747 14.1571 15.908 14.1168C15.7412 14.0766 15.5963 13.9739 15.503 13.83C15.459 13.754 15.4305 13.6701 15.419 13.5831C15.4076 13.496 15.4135 13.4076 15.4363 13.3228C15.4592 13.2381 15.4986 13.1587 15.5522 13.0892C15.6059 13.0197 15.6728 12.9615 15.749 12.918ZM17.487 13.472C17.6191 13.3964 17.7757 13.376 17.9227 13.4154C18.0698 13.4547 18.1953 13.5505 18.272 13.682C18.3099 13.7471 18.3346 13.8191 18.3445 13.8938C18.3545 13.9685 18.3496 14.0444 18.3301 14.1172C18.3105 14.19 18.2768 14.2582 18.2308 14.3179C18.1848 14.3776 18.1274 14.4276 18.062 14.465C17.9968 14.5028 17.9248 14.5273 17.8501 14.5372C17.7754 14.5472 17.6995 14.5423 17.6267 14.5229C17.5539 14.5035 17.4856 14.4699 17.4258 14.4241C17.366 14.3783 17.3158 14.3212 17.278 14.256C17.2402 14.1908 17.2157 14.1188 17.2058 14.0441C17.1958 13.9694 17.2007 13.8935 17.2201 13.8207C17.2395 13.7479 17.2731 13.6796 17.3189 13.6198C17.3647 13.56 17.4218 13.5098 17.487 13.472ZM7.614 11.24C7.88876 11.1571 8.18517 11.1866 8.43824 11.3219C8.69131 11.4573 8.88038 11.6875 8.96399 11.962C9.0296 12.2316 8.98935 12.516 8.85154 12.7568C8.71373 12.9976 8.48884 13.1764 8.22319 13.2563C7.95753 13.3363 7.67133 13.3114 7.4235 13.1867C7.17568 13.062 6.98509 12.847 6.891 12.586C6.84962 12.4502 6.83553 12.3075 6.84951 12.1662C6.8635 12.0248 6.90529 11.8877 6.97249 11.7626C7.03969 11.6375 7.13096 11.5269 7.24105 11.4372C7.35115 11.3475 7.47789 11.2805 7.614 11.24ZM10.308 10.287C10.5367 10.2277 10.7795 10.2592 10.9855 10.3749C11.1915 10.4906 11.3447 10.6814 11.4132 10.9075C11.4817 11.1336 11.4601 11.3775 11.3529 11.588C11.2456 11.7985 11.0611 11.9594 10.838 12.037C10.7231 12.0718 10.6025 12.0836 10.483 12.0718C10.3635 12.06 10.2475 12.0247 10.1417 11.9681C9.92787 11.8537 9.76828 11.6591 9.698 11.427C9.62771 11.1949 9.6525 10.9445 9.76689 10.7307C9.88129 10.5169 10.0759 10.3573 10.308 10.287ZM12.734 10C12.9303 9.94072 13.142 9.96184 13.3227 10.0587C13.5034 10.1556 13.6382 10.3202 13.6975 10.5165C13.7568 10.7128 13.7357 10.9245 13.6388 11.1052C13.5419 11.2859 13.3773 11.4207 13.181 11.48C13.0838 11.5093 12.9818 11.5193 12.8808 11.5092C12.7798 11.4991 12.6817 11.4693 12.5923 11.4213C12.5028 11.3733 12.4237 11.3082 12.3594 11.2297C12.295 11.1511 12.2468 11.0607 12.2175 10.9635C12.1881 10.8663 12.1782 10.7643 12.1883 10.6633C12.1984 10.5623 12.2282 10.4642 12.2762 10.3748C12.3242 10.2853 12.3893 10.2062 12.4678 10.1419C12.5464 10.0776 12.6368 10.0294 12.734 10ZM14.834 10.223C15.0017 10.1723 15.1827 10.1904 15.3372 10.2732C15.4916 10.356 15.6068 10.4968 15.6575 10.6645C15.7082 10.8322 15.6901 11.0133 15.6073 11.1677C15.5245 11.3221 15.3837 11.4373 15.216 11.488C15.048 11.5385 14.8668 11.5203 14.7122 11.4374C14.5576 11.3546 14.4421 11.2138 14.391 11.046C14.3659 10.9628 14.3576 10.8755 14.3663 10.7891C14.3751 10.7026 14.4008 10.6188 14.4421 10.5423C14.4833 10.4658 14.5393 10.3983 14.6067 10.3435C14.6741 10.2887 14.7517 10.2477 14.835 10.223H14.834ZM16.544 10.8C16.6853 10.7653 16.8345 10.7861 16.961 10.8581C17.0874 10.9302 17.1813 11.0481 17.2234 11.1873C17.2654 11.3266 17.2524 11.4768 17.1871 11.6068C17.1217 11.7368 17.0089 11.8367 16.872 11.886C16.8007 11.9075 16.7258 11.9148 16.6517 11.9074C16.5776 11.9 16.5057 11.8781 16.44 11.8429C16.3744 11.8077 16.3163 11.76 16.2691 11.7023C16.2219 11.6447 16.1865 11.5783 16.165 11.507C16.1435 11.4357 16.1362 11.3608 16.1436 11.2867C16.151 11.2126 16.1729 11.1407 16.2081 11.075C16.2433 11.0094 16.291 10.9513 16.3487 10.9041C16.4063 10.8569 16.4727 10.8215 16.544 10.8ZM17.874 11.595C17.9352 11.5764 17.9994 11.5701 18.0631 11.5763C18.1267 11.5826 18.1885 11.6013 18.245 11.6314C18.3014 11.6616 18.3513 11.7025 18.3919 11.7519C18.4325 11.8014 18.4629 11.8583 18.4815 11.9195C18.5001 11.9807 18.5064 12.045 18.5002 12.1086C18.4939 12.1723 18.4752 12.234 18.4451 12.2905C18.4149 12.3469 18.374 12.3968 18.3246 12.4374C18.2751 12.478 18.2182 12.5084 18.157 12.527C18.0334 12.5645 17.9 12.5514 17.786 12.4906C17.6721 12.4297 17.587 12.3261 17.5495 12.2025C17.512 12.0789 17.5251 11.9455 17.5859 11.8315C17.6468 11.7176 17.7504 11.6325 17.874 11.595ZM10.104 7.888C10.2247 7.87873 10.3461 7.89337 10.4611 7.93111C10.5762 7.96884 10.6827 8.02891 10.7745 8.10788C10.8663 8.18685 10.9416 8.28316 10.996 8.39129C11.0505 8.49942 11.0831 8.61724 11.092 8.738C11.1098 8.982 11.0299 9.22306 10.8699 9.40816C10.7099 9.59326 10.483 9.70723 10.239 9.725C9.995 9.74277 9.75393 9.66288 9.56883 9.50291C9.38373 9.34295 9.26976 9.116 9.252 8.872C9.24328 8.75136 9.25844 8.63018 9.29661 8.51541C9.33478 8.40063 9.39521 8.29451 9.47444 8.20311C9.55367 8.11172 9.65014 8.03684 9.75834 7.98277C9.86654 7.9287 9.98434 7.89649 10.105 7.888H10.104ZM12.511 7.61C12.7119 7.6054 12.9069 7.67823 13.0556 7.81342C13.2043 7.9486 13.2953 8.13578 13.3099 8.33623C13.3244 8.53667 13.2613 8.73502 13.1336 8.89022C13.0059 9.04542 12.8235 9.14559 12.624 9.17C12.5187 9.18288 12.4119 9.17423 12.31 9.14458C12.2082 9.11493 12.1134 9.06488 12.0315 8.99749C11.9496 8.9301 11.8822 8.84676 11.8334 8.75254C11.7847 8.65831 11.7556 8.55517 11.748 8.44936C11.7403 8.34356 11.7542 8.2373 11.7889 8.13704C11.8235 8.03677 11.8782 7.94459 11.9495 7.8661C12.0209 7.7876 12.1075 7.72443 12.204 7.6804C12.3005 7.63638 12.4049 7.61243 12.511 7.61ZM14.575 7.814C14.7475 7.81184 14.9143 7.87562 15.0414 7.99231C15.1684 8.109 15.2462 8.2698 15.2587 8.44186C15.2712 8.61392 15.2175 8.78427 15.1087 8.91811C14.9998 9.05195 14.844 9.13918 14.673 9.162C14.4969 9.17028 14.3245 9.10944 14.1926 8.99246C14.0608 8.87547 13.9798 8.71159 13.967 8.53576C13.9542 8.35993 14.0106 8.18607 14.1242 8.05124C14.2378 7.91641 14.3996 7.83128 14.575 7.814ZM16.278 8.382C16.4296 8.37699 16.5772 8.43086 16.69 8.5323C16.8027 8.63373 16.8718 8.77488 16.8828 8.92615C16.8938 9.07742 16.8458 9.22707 16.7489 9.34374C16.652 9.46041 16.5137 9.53504 16.363 9.552C16.2845 9.56084 16.2049 9.55372 16.1292 9.53108C16.0535 9.50844 15.9831 9.47074 15.9223 9.42023C15.8615 9.36973 15.8115 9.30747 15.7754 9.23719C15.7392 9.16691 15.7176 9.09004 15.7119 9.01121C15.7062 8.93238 15.7164 8.85321 15.7421 8.77844C15.7677 8.70366 15.8081 8.63484 15.861 8.57608C15.9138 8.51732 15.978 8.46984 16.0497 8.43649C16.1213 8.40314 16.199 8.38461 16.278 8.382Z" fill="white"/>
</g>
<defs>
<clipPath id="clip0_16_1308">
<rect width="32" height="32" fill="white"/>
</clipPath>
</defs>
</svg>
