<svg width="32" height="32" viewBox="0 0 32 32" fill="none" xmlns="http://www.w3.org/2000/svg">
<g clip-path="url(#clip0_16_1328)">
<path d="M16 32C24.8366 32 32 24.8366 32 16C32 7.16344 24.8366 0 16 0C7.16344 0 0 7.16344 0 16C0 24.8366 7.16344 32 16 32Z" fill="#7F368A"/>
<path d="M25.569 21.316C25.634 21.579 25.372 21.71 25.175 21.645H21.897C21.7 21.645 21.569 21.579 21.437 21.513C21.241 21.447 21.11 21.185 21.044 20.922V20.856L17.962 9.48999C17.897 9.48999 17.7 9.68699 17.634 9.68699C17.569 9.75199 17.437 9.81799 17.372 9.75199C17.241 9.68699 17.175 9.48999 17.241 9.35799C17.371 9.02999 17.7 8.83199 18.028 8.76699C18.421 8.70099 18.749 8.70099 19.142 8.70099H21.569C21.765 8.70099 21.962 8.70099 22.159 8.76699C22.356 8.89799 22.421 9.16099 22.487 9.35799C22.617 9.81799 22.683 10.278 22.815 10.738L24.388 16.652L24.978 19.017C25.175 19.74 25.438 20.529 25.568 21.317L25.569 21.316ZM17.962 21.316C18.028 21.579 17.765 21.71 17.569 21.645H14.29C14.093 21.645 13.962 21.579 13.83 21.513C13.634 21.447 13.503 21.185 13.437 20.922V20.856L10.356 9.48999C10.29 9.48999 10.093 9.68699 10.028 9.68699C9.962 9.75199 9.831 9.81799 9.765 9.75199C9.635 9.68699 9.569 9.48999 9.635 9.35799C9.765 9.02999 10.093 8.83199 10.421 8.76699C10.815 8.70099 11.142 8.70099 11.536 8.70099H13.962C14.159 8.70099 14.356 8.70099 14.552 8.76699C14.749 8.89799 14.815 9.16099 14.88 9.35799C15.011 9.81799 15.077 10.278 15.208 10.738L16.782 16.652L17.372 19.017C17.569 19.74 17.831 20.529 17.962 21.317V21.316ZM11.929 18.819L11.142 21.316C11.1057 21.4456 11.0288 21.5603 10.9227 21.643C10.8165 21.7258 10.6866 21.7724 10.552 21.776H7.077C6.90301 21.7755 6.7363 21.706 6.61337 21.5829C6.49043 21.4598 6.42126 21.293 6.421 21.119V20.987L9.175 10.606C9.241 10.474 9.372 10.343 9.503 10.343C9.7 10.343 9.831 10.474 9.831 10.606L11.929 18.819ZM19.667 18.622L19.208 20.002C19.142 20.133 19.077 20.199 18.946 20.199C18.815 20.199 18.749 20.133 18.683 20.002L16.388 11.985L16.848 10.343C16.848 10.211 16.978 10.146 17.11 10.146C17.24 10.146 17.372 10.211 17.372 10.343L19.667 18.622Z" fill="white"/>
</g>
<defs>
<clipPath id="clip0_16_1328">
<rect width="32" height="32" fill="white"/>
</clipPath>
</defs>
</svg>
