<svg width="32" height="32" viewBox="0 0 32 32" fill="none" xmlns="http://www.w3.org/2000/svg">
<g clip-path="url(#clip0_16_1352)">
<path d="M16 32C24.8366 32 32 24.8366 32 16C32 7.16344 24.8366 0 16 0C7.16344 0 0 7.16344 0 16C0 24.8366 7.16344 32 16 32Z" fill="#104FCA"/>
<path d="M7 9.56799L11.234 16.671V24C8.896 24 7 22.164 7 19.899V9.56799Z" fill="white" fill-opacity="0.5"/>
<path d="M20.765 16.663L24.997 9.56396H24.999V19.9C25 22.164 23.104 24 20.765 24V16.663Z" fill="white" fill-opacity="0.6"/>
<path d="M15.997 16.4579L13.88 20.0099C13.441 19.8999 12.969 19.4739 12.464 18.7329L7 9.56794C9.025 8.43494 11.615 9.10794 12.784 11.0679L15.997 16.4579Z" fill="white" fill-opacity="0.8"/>
<path d="M19.216 11.06C20.385 9.09797 22.975 8.42597 25 9.55897L19.536 18.724C19.1414 19.2961 18.6129 19.7631 17.9967 20.0845C17.3804 20.4058 16.695 20.5718 16 20.568C15.3418 20.5693 14.692 20.4205 14.1 20.133L13.88 20.01L19.216 11.06Z" fill="white"/>
</g>
<defs>
<clipPath id="clip0_16_1352">
<rect width="32" height="32" fill="white"/>
</clipPath>
</defs>
</svg>
