<svg width="32" height="32" viewBox="0 0 32 32" fill="none" xmlns="http://www.w3.org/2000/svg">
<g clip-path="url(#clip0_16_1384)">
<path d="M16 32C24.8366 32 32 24.8366 32 16C32 7.16344 24.8366 0 16 0C7.16344 0 0 7.16344 0 16C0 24.8366 7.16344 32 16 32Z" fill="#36A9CF"/>
<path fill-rule="evenodd" clip-rule="evenodd" d="M26.31 18.475C26.486 18.552 26.551 18.791 26.456 19.009C26.4276 19.0813 26.3809 19.1448 26.3204 19.1934C26.2598 19.242 26.1877 19.2739 26.111 19.286L23.886 23.389C23.9057 23.4806 23.901 23.5758 23.8726 23.665C23.8442 23.7543 23.793 23.8346 23.724 23.898C23.669 23.9555 23.6021 24.0002 23.528 24.029C23.4539 24.0579 23.3744 24.0702 23.295 24.065L18.956 26.663C18.9223 26.7485 18.8666 26.8237 18.7947 26.8809C18.7227 26.9381 18.6369 26.9754 18.546 26.989C18.332 27.03 18.128 26.952 18.03 26.807L12.932 26.45C12.8686 26.4983 12.7952 26.5319 12.7172 26.5481C12.6391 26.5644 12.5584 26.563 12.481 26.544C12.229 26.489 12.055 26.288 12.065 26.081L8.126 23.239C8.04372 23.2537 7.95911 23.2487 7.87914 23.2244C7.79917 23.2001 7.72612 23.1571 7.666 23.099C7.494 22.943 7.432 22.716 7.498 22.544L5.878 18.787C5.701 18.752 5.548 18.578 5.508 18.348C5.475 18.141 5.543 17.946 5.67 17.842L5.909 12.155C5.8552 12.0817 5.82061 11.996 5.80839 11.9059C5.79616 11.8158 5.80669 11.724 5.839 11.639C5.919 11.406 6.112 11.259 6.302 11.269L10.554 6.814C10.517 6.604 10.677 6.381 10.928 6.302C11.0059 6.27544 11.0889 6.26731 11.1704 6.27824C11.252 6.28917 11.3299 6.31887 11.398 6.365L17.516 5.253C17.595 5.073 17.819 4.967 18.061 5.01C18.281 5.048 18.446 5.199 18.485 5.373L21.311 6.985C21.3894 6.95997 21.4722 6.95219 21.5539 6.9622C21.6355 6.97221 21.714 6.99978 21.784 7.043C21.8611 7.08787 21.9269 7.14975 21.9765 7.22392C22.0261 7.29809 22.0581 7.3826 22.07 7.471L23.286 8.289C23.3644 8.26773 23.4467 8.26478 23.5265 8.28039C23.6063 8.29599 23.6814 8.32973 23.746 8.379C23.974 8.543 24.056 8.829 23.926 9.019L23.918 9.029L25.701 12.509C25.871 12.486 26.045 12.618 26.107 12.827C26.175 13.056 26.081 13.289 25.899 13.347C25.716 13.407 25.513 13.269 25.446 13.041L25.434 12.991L21.765 11.026C21.7066 11.1082 21.6271 11.1731 21.535 11.214V21.008C21.6548 21.0609 21.7526 21.1536 21.8117 21.2705C21.8708 21.3874 21.8875 21.5212 21.859 21.649L23.349 23.167C23.4253 23.1347 23.5087 23.1229 23.591 23.133L25.841 19.157C25.8022 19.093 25.78 19.0204 25.7763 18.9457C25.7726 18.8709 25.7876 18.7965 25.82 18.729C25.915 18.511 26.135 18.398 26.31 18.475ZM26.314 18.95C26.352 18.862 26.325 18.767 26.255 18.736C26.185 18.706 26.097 18.751 26.059 18.838C26.021 18.925 26.047 19.02 26.118 19.052C26.188 19.082 26.275 19.037 26.314 18.95ZM23.649 23.742C23.729 23.662 23.743 23.544 23.68 23.478C23.617 23.412 23.501 23.423 23.42 23.502C23.34 23.582 23.326 23.701 23.389 23.767C23.452 23.833 23.569 23.822 23.649 23.742ZM23.02 23.492L23.031 23.468L21.602 22.014C21.5165 22.0674 21.4178 22.0958 21.317 22.096C21.212 22.0958 21.1092 22.0655 21.0208 22.0088C20.9324 21.9521 20.862 21.8714 20.818 21.776H18.9C18.8504 21.8802 18.7702 21.9667 18.67 22.024L18.857 24.731C18.931 24.763 18.997 24.809 19.047 24.866L23.02 23.492ZM18.852 26.278L22.319 24.202L19.159 25.294C19.1381 25.373 19.0988 25.4459 19.0444 25.5069C18.9901 25.5679 18.9221 25.6152 18.846 25.645L18.75 26.209C18.7871 26.2271 18.8214 26.2503 18.852 26.278ZM18.527 26.816C18.637 26.796 18.712 26.706 18.696 26.614C18.68 26.524 18.576 26.466 18.466 26.488C18.357 26.508 18.281 26.598 18.297 26.689C18.314 26.78 18.417 26.837 18.527 26.816ZM18.023 26.418C18.0894 26.3086 18.1931 26.2269 18.315 26.188L18.406 25.653C18.3249 25.6228 18.252 25.5742 18.193 25.511L14.215 26.153L18.023 26.418ZM14.302 22.082L13.008 25.899L18.024 25.089L14.475 22.009C14.4219 22.043 14.3634 22.0677 14.302 22.082ZM12.637 25.637L13.871 21.998C13.7897 21.9416 13.7248 21.8647 13.683 21.775H11.427C11.4131 21.8027 11.3974 21.8294 11.38 21.855L12.637 25.637ZM12.484 26.372C12.594 26.396 12.698 26.342 12.716 26.252C12.736 26.162 12.663 26.069 12.553 26.044C12.443 26.021 12.339 26.074 12.32 26.164C12.301 26.256 12.374 26.348 12.484 26.372ZM8.397 22.96L12.202 25.706L11 22.09C10.9133 22.1013 10.8252 22.0918 10.7429 22.0622C10.6607 22.0326 10.5867 21.9839 10.527 21.92L8.404 22.845C8.40705 22.8834 8.40503 22.9221 8.398 22.96H8.397ZM8.041 22.362C8.09509 22.3859 8.14558 22.4172 8.191 22.455L10.374 21.505C10.3783 21.3969 10.413 21.2923 10.474 21.203L7.098 17.714L8.041 22.362ZM8.018 22.971C8.078 22.903 8.058 22.785 7.975 22.709C7.891 22.634 7.775 22.628 7.715 22.697C7.655 22.767 7.673 22.885 7.757 22.96C7.841 23.035 7.958 23.04 8.017 22.971H8.018ZM6.228 18.638L7.39 21.331L6.611 17.493L6.304 18.147C6.32892 18.2293 6.33503 18.3162 6.32188 18.4012C6.30872 18.4861 6.27664 18.5671 6.228 18.638ZM6.2 14.298L6.06 17.65L6.338 17.06C6.2921 16.9729 6.27005 16.8753 6.27409 16.7769C6.27813 16.6786 6.30812 16.583 6.361 16.5L6.2 14.298ZM6 11.647C5.962 11.755 6.003 11.867 6.088 11.898C6.174 11.928 6.272 11.866 6.309 11.758C6.346 11.65 6.307 11.538 6.221 11.507C6.135 11.477 6.037 11.539 5.999 11.647H6ZM6.844 16.8C6.844 16.686 6.761 16.594 6.661 16.594C6.56 16.594 6.477 16.686 6.477 16.8C6.477 16.915 6.56 17.007 6.661 17.007C6.761 17.007 6.844 16.915 6.844 16.8ZM6.614 11.914C6.58583 11.9989 6.53902 12.0765 6.477 12.141L6.767 16.131L8.547 10.502L6.642 11.795C6.6364 11.8355 6.62703 11.8753 6.614 11.914ZM9.64 8.329L7.206 10.879L8.453 10.033C8.46975 9.91912 8.51906 9.81251 8.595 9.726C8.67318 9.63309 8.77899 9.56758 8.897 9.539L9.64 8.329ZM10.894 7.122L9.307 9.704C9.34534 9.77534 9.36202 9.85632 9.355 9.937L10.53 10.298C10.5914 10.2322 10.668 10.1826 10.7532 10.1536C10.8384 10.1246 10.9294 10.1171 11.0181 10.1317C11.1069 10.1464 11.1907 10.1827 11.262 10.2376C11.3333 10.2924 11.39 10.364 11.427 10.446H13.394C13.4305 10.3676 13.4847 10.2988 13.5524 10.245C13.6201 10.1912 13.6994 10.1539 13.784 10.136L14.853 7.862C14.7954 7.78615 14.7576 7.69714 14.743 7.603L11.475 6.879C11.4009 6.98666 11.2922 7.06571 11.167 7.103C11.0789 7.1312 10.9853 7.13806 10.894 7.123V7.122ZM10.952 6.469C10.845 6.502 10.78 6.601 10.806 6.689C10.833 6.778 10.941 6.822 11.047 6.789C11.154 6.756 11.22 6.657 11.193 6.569C11.167 6.48 11.06 6.435 10.952 6.469ZM17.2 5.705L12.268 6.603L14.848 7.174C14.9176 7.07892 15.016 7.00879 15.1285 6.97402C15.2411 6.93926 15.3619 6.94171 15.473 6.981L17.2 5.705ZM17.805 5.802L15.966 7.162L21.011 7.302L21.022 7.264L18.348 5.74C18.2871 5.78461 18.2177 5.81608 18.144 5.83244C18.0703 5.84879 17.994 5.84966 17.92 5.835C17.8806 5.82793 17.8421 5.81687 17.805 5.802ZM18.043 5.183C17.933 5.163 17.83 5.221 17.815 5.313C17.8 5.403 17.875 5.493 17.986 5.513C18.096 5.533 18.198 5.475 18.214 5.383C18.23 5.293 18.153 5.203 18.043 5.183ZM21.276 7.908C21.2077 7.86584 21.1483 7.81082 21.101 7.746L15.838 7.6C15.834 7.63127 15.827 7.66209 15.817 7.692L17.941 10.141C18.0637 10.1143 18.1919 10.1301 18.3045 10.1857C18.4171 10.2412 18.5075 10.3334 18.561 10.447H20.818C20.8731 10.3297 20.9671 10.235 21.084 10.179L21.276 7.908ZM21.316 10.466C21.195 10.466 21.096 10.568 21.096 10.693C21.096 10.818 21.195 10.919 21.316 10.919C21.439 10.919 21.539 10.818 21.539 10.693C21.539 10.568 21.439 10.466 21.317 10.466H21.316ZM21.415 7.266C21.36 7.362 21.401 7.492 21.507 7.554C21.612 7.618 21.743 7.591 21.797 7.494C21.853 7.398 21.812 7.269 21.706 7.206C21.6 7.143 21.47 7.17 21.415 7.266ZM25.33 12.584L21.703 7.997L21.52 10.166C21.6171 10.2057 21.7012 10.2716 21.763 10.3564C21.8248 10.4412 21.8619 10.5414 21.87 10.646L25.33 12.584ZM23.037 8.587L22.223 8.041L24.85 11.461L23.572 9.174C23.4652 9.16571 23.3627 9.12798 23.276 9.065C23.106 8.944 23.016 8.755 23.036 8.587H23.037ZM23.417 8.53C23.365 8.606 23.397 8.72 23.489 8.786C23.58 8.851 23.697 8.843 23.749 8.766C23.801 8.691 23.769 8.576 23.678 8.511C23.585 8.446 23.469 8.454 23.418 8.531L23.417 8.53ZM17.847 10.693C17.847 10.815 17.942 10.914 18.063 10.914C18.121 10.9132 18.1763 10.8895 18.217 10.8482C18.2576 10.8068 18.2803 10.751 18.28 10.693C18.2805 10.6348 18.258 10.5788 18.2173 10.5372C18.1767 10.4956 18.1212 10.4718 18.063 10.471C18.0048 10.4718 17.9493 10.4956 17.9087 10.5372C17.868 10.5788 17.8455 10.6348 17.846 10.693H17.847ZM17.966 15.466C17.9366 15.4663 17.9075 15.4723 17.8804 15.4838C17.8534 15.4953 17.8288 15.512 17.8082 15.533C17.7876 15.554 17.7713 15.5788 17.7603 15.6061C17.7493 15.6334 17.7437 15.6626 17.744 15.692C17.744 15.817 17.844 15.919 17.966 15.919C17.9954 15.9186 18.0245 15.9124 18.0515 15.9008C18.0785 15.8892 18.103 15.8724 18.1235 15.8513C18.144 15.8302 18.1602 15.8053 18.1711 15.778C18.182 15.7506 18.1874 15.7214 18.187 15.692C18.1874 15.6626 18.182 15.6335 18.1711 15.6062C18.1602 15.5789 18.144 15.5541 18.1235 15.5331C18.1029 15.5121 18.0784 15.4953 18.0514 15.4838C18.0244 15.4723 17.9954 15.4663 17.966 15.466ZM15.069 7.442C15.069 7.567 15.168 7.668 15.29 7.668C15.3194 7.66774 15.3485 7.66169 15.3756 7.65019C15.4026 7.63869 15.4272 7.62197 15.4478 7.60098C15.4684 7.58 15.4847 7.55516 15.4957 7.52788C15.5067 7.5006 15.5123 7.47142 15.512 7.442C15.512 7.317 15.412 7.215 15.29 7.215C15.2606 7.21539 15.2315 7.22158 15.2045 7.2332C15.1775 7.24482 15.153 7.26165 15.1325 7.28273C15.112 7.30381 15.0958 7.32872 15.0849 7.35605C15.074 7.38338 15.0686 7.41259 15.069 7.442ZM15.231 8.079L14.217 10.234C14.3304 10.3173 14.4088 10.4397 14.437 10.5776C14.4653 10.7154 14.4414 10.8588 14.37 10.98L17.75 15.17C17.781 15.1571 17.8132 15.1471 17.846 15.14V11.214C17.7718 11.1817 17.7055 11.1339 17.6513 11.0738C17.5972 11.0136 17.5566 10.9426 17.5323 10.8655C17.5079 10.7884 17.5004 10.7069 17.5102 10.6266C17.5199 10.5463 17.5468 10.469 17.589 10.4L15.529 8.026C15.4365 8.07104 15.3333 8.08939 15.231 8.079ZM13.671 10.693C13.671 10.818 13.771 10.919 13.893 10.919C14.014 10.919 14.114 10.818 14.114 10.693C14.114 10.568 14.014 10.466 13.893 10.466C13.8335 10.4668 13.7767 10.4911 13.7351 10.5337C13.6935 10.5762 13.6705 10.6335 13.671 10.693ZM10.711 10.693C10.711 10.815 10.807 10.914 10.927 10.914C11.047 10.914 11.144 10.815 11.144 10.693C11.144 10.57 11.047 10.471 10.927 10.471C10.807 10.471 10.711 10.571 10.711 10.693ZM10.927 21.303C10.8977 21.3034 10.8688 21.3096 10.8419 21.3211C10.815 21.3327 10.7906 21.3494 10.7702 21.3704C10.7498 21.3914 10.7337 21.4162 10.7228 21.4434C10.712 21.4706 10.7066 21.4997 10.707 21.529C10.707 21.654 10.805 21.755 10.927 21.755C10.9564 21.7547 10.9855 21.7487 11.0126 21.7372C11.0396 21.7257 11.0642 21.709 11.0848 21.688C11.1054 21.667 11.1217 21.6422 11.1327 21.6149C11.1437 21.5876 11.1493 21.5584 11.149 21.529C11.1494 21.4996 11.144 21.4703 11.133 21.443C11.122 21.4156 11.1057 21.3907 11.0851 21.3697C11.0645 21.3487 11.0399 21.332 11.0127 21.3205C10.9856 21.3091 10.9565 21.3031 10.927 21.303ZM8.731 9.843C8.658 9.929 8.652 10.048 8.721 10.109C8.788 10.169 8.903 10.151 8.977 10.064C9.051 9.979 9.056 9.86 8.988 9.799C8.92 9.737 8.806 9.757 8.731 9.843ZM7.106 16.502C7.16205 16.5913 7.19154 16.6946 7.191 16.8C7.191 16.91 7.161 17.012 7.109 17.095L10.711 20.817V11.214C10.6132 11.1709 10.5296 11.101 10.47 11.0123C10.4103 10.9236 10.377 10.8198 10.374 10.713L9.152 10.338C9.11404 10.3725 9.07167 10.4017 9.026 10.425L7.106 16.502ZM18.4 20.962C18.639 20.962 18.842 21.117 18.92 21.332H20.798C20.8237 21.2603 20.8637 21.1946 20.9156 21.1389C20.9675 21.0832 21.0303 21.0386 21.1 21.008V11.214C21.0302 11.1834 20.9675 11.1389 20.9155 11.0832C20.8636 11.0275 20.8236 10.9617 20.798 10.89H18.582C18.5561 10.9616 18.516 11.0272 18.4641 11.0828C18.4122 11.1385 18.3496 11.1831 18.28 11.214V15.224C18.3546 15.277 18.4154 15.3472 18.4572 15.4287C18.499 15.5101 18.5205 15.6005 18.52 15.692C18.5216 15.8406 18.4642 15.9838 18.3603 16.0901C18.2564 16.1964 18.1146 16.2572 17.966 16.259C17.8924 16.2582 17.8196 16.2429 17.7519 16.214C17.6842 16.1851 17.6229 16.1431 17.5714 16.0904C17.52 16.0377 17.4794 15.9754 17.452 15.9071C17.4247 15.8387 17.4111 15.7656 17.412 15.692C17.412 15.622 17.424 15.555 17.448 15.492L14.02 11.244C13.8875 11.2745 13.7485 11.2553 13.6292 11.19C13.5099 11.1248 13.4188 11.018 13.373 10.89H11.447C11.421 10.9617 11.3807 11.0273 11.3286 11.083C11.2766 11.1387 11.2138 11.1832 11.144 11.214V21.008C11.284 21.068 11.393 21.186 11.447 21.332H13.662C13.688 21.2604 13.7283 21.1947 13.7804 21.139C13.8324 21.0833 13.8952 21.0388 13.965 21.008V16.938C13.8834 16.8868 13.8162 16.8157 13.7697 16.7314C13.7232 16.6471 13.6988 16.5523 13.699 16.456C13.6981 16.3823 13.7117 16.3091 13.7391 16.2407C13.7665 16.1723 13.8072 16.1099 13.8588 16.0573C13.9103 16.0046 13.9718 15.9626 14.0396 15.9337C14.1074 15.9049 14.1803 15.8897 14.254 15.889C14.3449 15.8893 14.4344 15.9117 14.5147 15.9544C14.5949 15.997 14.6637 16.0585 14.7148 16.1336C14.766 16.2087 14.7982 16.2952 14.8085 16.3855C14.8188 16.4758 14.807 16.5673 14.774 16.652L18.257 20.982C18.3037 20.9695 18.3517 20.9628 18.4 20.962ZM18.64 25.009C18.52 25.009 18.42 25.099 18.42 25.211C18.42 25.323 18.52 25.412 18.64 25.412C18.763 25.412 18.863 25.322 18.863 25.212C18.863 25.102 18.763 25.009 18.641 25.009H18.64ZM18.179 21.529C18.179 21.654 18.278 21.755 18.399 21.755C18.4285 21.7549 18.4577 21.7489 18.4849 21.7375C18.5121 21.726 18.5367 21.7093 18.5575 21.6883C18.5782 21.6673 18.5945 21.6425 18.6056 21.6151C18.6167 21.5878 18.6223 21.5585 18.622 21.529C18.6223 21.4996 18.6167 21.4704 18.6057 21.4431C18.5947 21.4158 18.5784 21.391 18.5578 21.37C18.5372 21.349 18.5126 21.3323 18.4856 21.3208C18.4585 21.3093 18.4294 21.3033 18.4 21.303C18.3408 21.3038 18.2843 21.328 18.2428 21.3704C18.2014 21.4127 18.1785 21.4698 18.179 21.529ZM14.032 16.456C14.032 16.581 14.132 16.682 14.254 16.682C14.376 16.682 14.475 16.581 14.475 16.456C14.475 16.33 14.376 16.23 14.254 16.23C14.132 16.23 14.032 16.33 14.032 16.456ZM14.182 21.303C14.1526 21.3033 14.1235 21.3093 14.0964 21.3208C14.0694 21.3323 14.0448 21.349 14.0242 21.37C14.0036 21.391 13.9873 21.4158 13.9763 21.4431C13.9653 21.4704 13.9597 21.4996 13.96 21.529C13.96 21.654 14.06 21.755 14.182 21.755C14.304 21.755 14.403 21.654 14.403 21.529C14.4034 21.4996 14.398 21.4705 14.3871 21.4432C14.3762 21.4159 14.36 21.3911 14.3395 21.3701C14.3189 21.3491 14.2944 21.3323 14.2674 21.3208C14.2404 21.3093 14.2114 21.3033 14.182 21.303ZM14.398 21.008C14.5174 21.0604 14.615 21.1524 14.6744 21.2684C14.7338 21.3845 14.7513 21.5175 14.724 21.645L18.317 24.762C18.3497 24.743 18.3842 24.7272 18.42 24.715L18.236 22.071C18.122 22.0335 18.0228 21.9609 17.9528 21.8635C17.8827 21.7661 17.8453 21.649 17.846 21.529C17.846 21.429 17.871 21.336 17.916 21.256L14.473 16.976C14.4487 16.9867 14.4237 16.9954 14.398 17.002V21.008ZM21.538 21.528C21.5383 21.4987 21.5328 21.4697 21.5218 21.4425C21.5108 21.4154 21.4946 21.3906 21.4741 21.3697C21.4536 21.3488 21.4291 21.3322 21.4022 21.3207C21.3752 21.3093 21.3463 21.3033 21.317 21.303C21.2876 21.3033 21.2585 21.3093 21.2314 21.3208C21.2044 21.3323 21.1798 21.349 21.1592 21.37C21.1386 21.391 21.1223 21.4158 21.1113 21.4431C21.1003 21.4704 21.0947 21.4996 21.095 21.529C21.095 21.654 21.195 21.755 21.317 21.755C21.439 21.755 21.539 21.654 21.539 21.529L21.538 21.528ZM5.828 18.507C5.918 18.492 5.975 18.388 5.956 18.276C5.936 18.163 5.849 18.084 5.76 18.1C5.67 18.115 5.614 18.22 5.633 18.332C5.651 18.445 5.739 18.524 5.828 18.507ZM25.8 12.793C25.728 12.816 25.69 12.91 25.717 13.001C25.744 13.092 25.825 13.147 25.897 13.124C25.971 13.101 26.007 13.007 25.981 12.916C25.955 12.824 25.873 12.77 25.801 12.793H25.8Z" fill="white"/>
</g>
<defs>
<clipPath id="clip0_16_1384">
<rect width="32" height="32" fill="white"/>
</clipPath>
</defs>
</svg>
