<svg width="32" height="32" viewBox="0 0 32 32" fill="none" xmlns="http://www.w3.org/2000/svg">
<g clip-path="url(#clip0_16_1410)">
<path d="M16 32C24.8366 32 32 24.8366 32 16C32 7.16344 24.8366 0 16 0C7.16344 0 0 7.16344 0 16C0 24.8366 7.16344 32 16 32Z" fill="#1A4199"/>
<path opacity="0.7" d="M10.676 7.12499L21.408 13.316V19.635L5 10.159L10.265 7.12499C10.3288 7.08813 10.4013 7.06873 10.475 7.06873C10.5487 7.06873 10.6212 7.08813 10.685 7.12499" fill="white"/>
<path opacity="0.9" d="M21.408 7L15.941 10.16L21.408 13.316V7Z" fill="white"/>
<path d="M21.408 7L26.672 10.036C26.7382 10.0718 26.7935 10.1248 26.8322 10.1894C26.8709 10.2539 26.8916 10.3277 26.892 10.403V22.792L21.408 19.635V7Z" fill="white"/>
<path opacity="0.9" d="M26.881 22.792L21.617 25.825C21.5525 25.86 21.4803 25.8784 21.407 25.8784C21.3336 25.8784 21.2615 25.86 21.197 25.825L10.465 19.635V13.307L26.881 22.792Z" fill="white"/>
<path opacity="0.6" d="M5 10.16V22.547C5.00024 22.6224 5.02079 22.6964 5.05951 22.7612C5.09822 22.8259 5.15366 22.879 5.22 22.915L10.485 25.951V13.307L5 10.16Z" fill="white"/>
<path opacity="0.7" d="M10.476 25.95L15.941 22.792L10.476 19.635V25.95Z" fill="white"/>
</g>
<defs>
<clipPath id="clip0_16_1410">
<rect width="32" height="32" fill="white"/>
</clipPath>
</defs>
</svg>
