<svg width="32" height="32" viewBox="0 0 32 32" fill="none" xmlns="http://www.w3.org/2000/svg">
<g clip-path="url(#clip0_16_1436)">
<path d="M16 32C24.8366 32 32 24.8366 32 16C32 7.16344 24.8366 0 16 0C7.16344 0 0 7.16344 0 16C0 24.8366 7.16344 32 16 32Z" fill="#2AB0FD"/>
<path fill-rule="evenodd" clip-rule="evenodd" d="M25.515 14.804C25.68 14.802 25.785 14.824 25.851 14.884C25.921 14.948 25.949 15.052 25.964 15.215C26.43 20.594 22.362 25.456 16.966 25.955C11.402 26.47 6.572 22.455 6.044 16.875C5.53 11.456 9.599 6.54003 15.03 6.04603C18.106 5.76603 20.762 6.73203 22.998 8.86203C23.021 8.88403 23.016 8.97603 22.99 9.00203C22.4879 9.51358 21.9812 10.0206 21.47 10.523C21.441 10.551 21.337 10.547 21.305 10.518C18.998 8.40403 16.325 7.77803 13.402 8.84303C10.446 9.92003 8.755 12.15 8.42 15.29C7.97 19.539 11.177 23.284 15.455 23.607C19.333 23.899 22.847 21.154 23.49 17.322C23.496 17.284 23.41 17.189 23.366 17.189C20.971 17.182 18.576 17.184 16.182 17.175C16.12 17.175 16.005 17.06 16.003 16.997C15.9904 16.3278 15.9904 15.6583 16.003 14.989C16.004 14.929 16.111 14.821 16.17 14.82C17.766 14.811 23.996 14.825 25.514 14.803L25.515 14.804Z" fill="white"/>
</g>
<defs>
<clipPath id="clip0_16_1436">
<rect width="32" height="32" fill="white"/>
</clipPath>
</defs>
</svg>
