<svg width="32" height="32" viewBox="0 0 32 32" fill="none" xmlns="http://www.w3.org/2000/svg">
<g clip-path="url(#clip0_16_1444)">
<path d="M16 32C24.8366 32 32 24.8366 32 16C32 7.16344 24.8366 0 16 0C7.16344 0 0 7.16344 0 16C0 24.8366 7.16344 32 16 32Z" fill="#050708"/>
<path d="M15.855 5.01399C15.9644 4.99275 16.0772 4.99551 16.1854 5.0221C16.2937 5.04869 16.3949 5.09847 16.482 5.16799L25.184 11.633C25.384 11.783 25.509 12.033 25.499 12.287V19.711C25.5027 19.8445 25.473 19.9768 25.4125 20.0959C25.3521 20.215 25.2629 20.3171 25.153 20.393L16.482 26.835C16.3393 26.9462 16.1624 27.0046 15.9815 27C15.8006 26.9954 15.6269 26.9283 15.49 26.81C12.61 24.67 9.73101 22.53 6.85101 20.392C6.74217 20.3153 6.65351 20.2133 6.59257 20.0949C6.53162 19.9765 6.50021 19.8452 6.50101 19.712V12.292C6.49987 12.1591 6.53082 12.0279 6.59123 11.9095C6.65164 11.7911 6.73973 11.6891 6.84801 11.612L15.489 5.19199C15.5958 5.10552 15.721 5.04463 15.855 5.01399ZM15.751 25.028C15.746 25.144 15.744 25.261 15.743 25.377L15.745 26.074C15.895 26.076 16.045 26.077 16.195 26.074V25.05C16.0474 25.0361 15.8993 25.0288 15.751 25.028ZM14.041 24.11L13.789 24.111C13.969 24.426 14.14 24.746 14.324 25.058C14.474 25.058 14.624 25.058 14.776 25.048C14.656 24.716 14.449 24.427 14.294 24.112C14.1257 24.1095 13.9573 24.1095 13.789 24.112L14.041 24.11ZM16.768 24.59C16.7652 24.7427 16.7662 24.8954 16.771 25.048H17.191C17.21 24.899 17.211 24.75 17.208 24.6C17.0615 24.5912 16.9147 24.5878 16.768 24.59ZM16.293 22.133C15.663 22.137 15.032 22.129 14.401 22.138C14.399 22.2813 14.399 22.4247 14.401 22.568C14.959 22.581 15.518 22.571 16.077 22.574V23.603C15.961 23.604 15.847 23.6 15.733 23.612C15.7 23.748 15.717 23.889 15.715 24.028C15.917 24.034 16.119 24.033 16.321 24.029C16.382 23.96 16.445 23.893 16.508 23.825C16.508 23.335 16.507 22.845 16.509 22.355C16.4372 22.2808 16.3652 22.2068 16.293 22.133ZM19.637 22.709C19.494 22.639 19.342 22.401 19.175 22.544C18.678 22.875 18.166 23.184 17.675 23.524C17.677 23.666 17.678 23.808 17.688 23.949C18.148 23.953 18.607 23.955 19.066 23.948C19.068 23.798 19.068 23.648 19.067 23.498C18.9544 23.4954 18.8417 23.494 18.729 23.494L18.517 23.496C18.882 23.238 19.264 23.007 19.637 22.762V22.709ZM13.095 22.957L12.2 22.96C12.197 23.11 12.197 23.26 12.2 23.412C12.796 23.415 13.393 23.418 13.99 23.41V22.961C13.393 22.954 12.796 22.957 12.2 22.96L13.095 22.957ZM11.592 22.3L11.371 22.301C11.369 22.451 11.368 22.602 11.371 22.753C11.518 22.755 11.666 22.755 11.814 22.753C11.816 22.603 11.816 22.453 11.814 22.303C11.6664 22.2998 11.5187 22.2991 11.371 22.301L11.592 22.3ZM20.185 20.686C20.179 20.932 20.181 21.178 20.182 21.424C20.422 21.794 20.657 22.167 20.9 22.535C21.102 22.225 21.3 21.909 21.505 21.6C21.543 21.532 21.604 21.466 21.599 21.382C21.604 21.157 21.601 20.932 21.595 20.707C21.409 21.01 21.21 21.304 21.025 21.607C20.983 21.665 20.952 21.739 20.885 21.769C20.643 21.413 20.42 21.045 20.185 20.686ZM18.75 20.133C18.469 20.134 18.188 20.131 17.906 20.136C17.7417 20.7503 17.5704 21.3626 17.392 21.973L17.826 21.976L18.214 20.555L18.45 20.567C18.576 21.036 18.71 21.502 18.833 21.972C18.977 21.975 19.123 21.975 19.267 21.975L18.75 20.133ZM9.99801 21.163L9.60501 21.171V21.615C9.99601 21.622 10.388 21.632 10.779 21.612C10.798 21.465 10.789 21.316 10.786 21.167C10.392 21.165 9.99801 21.158 9.60501 21.171L9.99801 21.163ZM13.148 20.115C12.605 20.452 12.071 20.804 11.536 21.154C11.534 21.298 11.534 21.442 11.538 21.586C12.381 21.595 13.224 21.591 14.067 21.588C14.071 21.436 14.071 21.284 14.068 21.132C13.498 21.124 12.93 21.136 12.361 21.125C12.754 20.886 13.134 20.628 13.523 20.382C13.399 20.291 13.273 20.204 13.148 20.115ZM15.048 19.781L14.824 19.782C14.818 20.344 14.824 20.907 14.821 21.469L14.956 21.494C15.062 21.484 15.168 21.479 15.274 21.474C15.271 20.91 15.275 20.346 15.271 19.782C15.122 19.7803 14.973 19.7803 14.824 19.782L15.048 19.781ZM16.426 20.197C16.271 20.218 16.114 20.227 15.957 20.227C16.134 20.537 16.309 20.85 16.482 21.164L16.922 21.161C16.827 20.811 16.61 20.505 16.426 20.197ZM22.385 20.41L22.155 20.414C22.152 20.562 22.152 20.71 22.155 20.858C22.308 20.865 22.462 20.865 22.615 20.861V20.412C22.4617 20.4086 22.3083 20.4092 22.155 20.414L22.385 20.41ZM11.597 18.618C11.352 18.98 11.13 19.358 10.883 19.717C10.652 19.353 10.418 18.99 10.184 18.627C10.1785 18.876 10.1775 19.125 10.181 19.374C10.424 19.728 10.649 20.094 10.881 20.454C11.132 20.095 11.356 19.717 11.601 19.353C11.599 19.108 11.602 18.863 11.597 18.618ZM12.747 19.093C12.737 19.248 12.738 19.403 12.744 19.558C12.892 19.56 13.04 19.559 13.187 19.558C13.1904 19.4067 13.1904 19.2553 13.187 19.104C13.0406 19.0935 12.8938 19.0898 12.747 19.093ZM18.863 17.869L18.639 18.079C18.639 18.279 18.638 18.478 18.642 18.677C18.785 18.677 18.929 18.677 19.072 18.675C19.075 18.552 19.076 18.429 19.075 18.305L20.079 18.306C20.074 18.711 20.077 19.115 20.078 19.519C20.223 19.523 20.368 19.524 20.514 19.523V18.08L20.297 17.87C19.819 17.869 19.341 17.872 18.863 17.868V17.869ZM7.66601 17.582H7.38401L7.17201 17.793L7.17001 18.774L7.17601 19.264C7.21301 19.353 7.29601 19.43 7.37801 19.478C7.86801 19.492 8.35901 19.478 8.85001 19.484H9.05501L9.26101 19.483C9.26201 19.341 9.26201 19.199 9.25901 19.057C8.70701 19.051 8.15401 19.056 7.60101 19.054C7.59701 18.71 7.60101 18.367 7.59801 18.023L7.94801 18.018C7.94929 17.8737 7.94896 17.7293 7.94701 17.585C7.75936 17.5818 7.57167 17.5812 7.38401 17.583L7.66601 17.582ZM17.32 17.962C16.788 18.322 16.24 18.655 15.707 19.015C15.709 19.161 15.709 19.306 15.73 19.45C16.57 19.45 17.411 19.454 18.251 19.449C18.2551 19.2917 18.2551 19.1343 18.251 18.977C17.691 18.97 17.129 18.981 16.567 18.971C16.942 18.718 17.333 18.489 17.701 18.226C17.572 18.14 17.447 18.05 17.321 17.961L17.32 17.962ZM23.309 17.892C22.774 18.235 22.239 18.577 21.709 18.928C21.707 19.074 21.707 19.221 21.709 19.368C22.549 19.371 23.388 19.371 24.227 19.368C24.229 19.216 24.229 19.062 24.227 18.91C23.662 18.906 23.097 18.913 22.533 18.907L23.686 18.16C23.562 18.07 23.436 17.978 23.309 17.892ZM13.359 15.909L13.137 15.91C13.134 16.765 13.134 17.619 13.137 18.473C13.287 18.477 13.437 18.477 13.586 18.476C13.604 17.906 13.559 17.334 13.614 16.768C13.918 17.289 14.251 17.794 14.569 18.308L14.722 18.305C14.698 18.072 14.789 17.804 14.636 17.604C14.283 17.04 13.926 16.479 13.579 15.911C13.4317 15.9082 13.2843 15.9082 13.137 15.911L13.359 15.909ZM21.542 16.833C21.396 16.81 21.247 16.82 21.099 16.823C21.0941 17.3516 21.0941 17.8803 21.099 18.409C21.248 18.412 21.397 18.413 21.546 18.409C21.548 17.884 21.556 17.358 21.542 16.833ZM11.632 17.428C11.117 17.444 10.598 17.399 10.084 17.456C10.083 17.605 10.083 17.753 10.086 17.902C10.735 17.907 11.382 17.902 12.032 17.904V17.446C11.8991 17.4322 11.7656 17.4262 11.632 17.428ZM24.56 15.406C24.0734 15.3968 23.5866 15.3962 23.1 15.404L22.903 15.608C22.903 15.802 22.903 15.998 22.905 16.192C23.048 16.193 23.191 16.192 23.334 16.19L23.337 15.835C23.677 15.838 24.017 15.831 24.357 15.84L24.356 17.748L24.771 17.749C24.764 17.611 24.801 17.475 24.793 17.337C24.798 17.167 24.79 16.998 24.795 16.829C24.792 16.477 24.795 16.124 24.795 15.772C24.821 15.608 24.683 15.482 24.56 15.406ZM17.238 17.132L17.021 17.133V17.588C17.166 17.59 17.31 17.59 17.454 17.588C17.456 17.436 17.456 17.284 17.454 17.134C17.3097 17.1326 17.1653 17.1322 17.021 17.133L17.238 17.132ZM15.328 16.236L15.103 16.239C15.099 16.611 15.1 16.984 15.102 17.356C15.252 17.36 15.402 17.36 15.553 17.358C15.554 16.984 15.555 16.611 15.553 16.238C15.403 16.235 15.253 16.235 15.103 16.238L15.328 16.236ZM19.94 16.754L19.254 16.758C19.249 16.908 19.249 17.058 19.252 17.208C19.639 17.253 20.03 17.218 20.419 17.23C20.497 17.222 20.6 17.257 20.644 17.168C20.6542 17.0305 20.6485 16.8922 20.627 16.756C20.169 16.756 19.712 16.752 19.254 16.758L19.94 16.754ZM18.044 16.737L17.823 16.738C17.821 16.89 17.821 17.042 17.823 17.193C17.97 17.194 18.117 17.195 18.265 17.194C18.2677 17.042 18.2677 16.89 18.265 16.738C18.1177 16.7366 17.9703 16.7366 17.823 16.738L18.044 16.737ZM9.69401 15.422H9.24201L9.24101 16.87H9.69501V15.422H9.69401ZM11.329 14.847L10.91 14.849C10.734 15.462 10.563 16.077 10.39 16.691L10.824 16.693C10.939 16.22 11.09 15.757 11.196 15.283L11.436 15.265C11.583 15.737 11.694 16.219 11.838 16.693L12.258 16.692C12.098 16.075 11.918 15.464 11.748 14.85C11.468 14.846 11.19 14.848 10.91 14.85L11.329 14.847ZM16.725 14.711L16.656 14.713H14.941C14.9396 14.859 14.9396 15.005 14.941 15.151C15.498 15.166 16.058 15.124 16.613 15.175V16.184L16.257 16.188V16.628C16.447 16.63 16.636 16.63 16.825 16.63L17.045 16.39V15.108C17.072 14.899 16.865 14.68 16.656 14.713L16.725 14.711ZM7.82301 15.826C7.81801 15.973 7.81801 16.12 7.81901 16.267C7.96901 16.27 8.11901 16.269 8.26801 16.267V15.837C8.11989 15.8272 7.97143 15.8235 7.82301 15.826ZM18.463 13.981H18.178C18.097 14.088 17.94 14.168 17.96 14.324C17.958 14.737 17.958 15.15 17.96 15.564C17.941 15.718 18.095 15.799 18.175 15.905C18.804 15.903 19.433 15.907 20.061 15.903C20.065 15.757 20.065 15.61 20.064 15.463C19.505 15.457 18.947 15.463 18.389 15.459V14.424L18.749 14.421C18.7516 14.2753 18.7509 14.1296 18.747 13.984C18.557 13.98 18.367 13.982 18.177 13.981H18.463ZM13.63 14.713H12.537C12.531 14.867 12.532 15.021 12.538 15.175H13.63C13.633 15.021 13.633 14.867 13.63 14.713ZM22.523 14.182L21.547 14.186C21.545 14.336 21.546 14.488 21.547 14.638C22.197 14.647 22.847 14.641 23.497 14.641C23.499 14.489 23.499 14.336 23.498 14.183C22.848 14.183 22.198 14.177 21.548 14.186L22.523 14.182ZM20.308 14.182L20.077 14.186C20.075 14.336 20.075 14.486 20.077 14.636C20.231 14.642 20.385 14.642 20.539 14.636C20.541 14.486 20.542 14.336 20.539 14.186C20.3851 14.1802 20.231 14.1802 20.077 14.186L20.308 14.182ZM8.29201 13.242L7.17201 13.245C7.16901 13.397 7.16901 13.55 7.17201 13.702C7.64001 13.707 8.10901 13.702 8.57801 13.704C8.39801 13.831 8.21101 13.946 8.02601 14.064C8.15001 14.154 8.26001 14.277 8.40501 14.331C8.74801 14.124 9.08201 13.901 9.41501 13.678L9.41401 13.246C8.66601 13.239 7.91801 13.241 7.17101 13.245L8.29201 13.242ZM11.39 12.873C11.031 13.119 10.658 13.344 10.308 13.603C10.655 13.855 11.02 14.079 11.372 14.322C11.616 14.322 11.86 14.324 12.104 14.319C11.742 14.084 11.384 13.84 11.02 13.607C11.374 13.354 11.75 13.133 12.102 12.877C11.864 12.873 11.628 12.877 11.39 12.873ZM14.534 13.686H13.564C13.564 13.836 13.564 13.987 13.566 14.139C14.21 14.139 14.853 14.14 15.498 14.138C15.518 13.988 15.52 13.838 15.504 13.688C14.858 13.682 14.211 13.688 13.564 13.685L14.534 13.686ZM16.159 13.686L15.926 13.688V14.134C16.081 14.136 16.236 14.136 16.392 14.132V13.69C16.2367 13.6849 16.0813 13.6843 15.926 13.688L16.159 13.686ZM17.238 12.347H17.021V13.797H17.455C17.455 13.314 17.458 12.831 17.455 12.348C17.3103 12.3467 17.1657 12.3467 17.021 12.348L17.238 12.347ZM22.747 13.18L22.522 13.183C22.519 13.334 22.52 13.486 22.522 13.637C22.672 13.641 22.822 13.641 22.97 13.637C22.9744 13.4854 22.9747 13.3336 22.971 13.182C22.821 13.179 22.671 13.18 22.522 13.182L22.747 13.18ZM21.243 11.403C20.963 11.357 20.68 11.401 20.399 11.403C20.228 12.015 20.06 12.627 19.882 13.235C20.027 13.236 20.172 13.237 20.317 13.236C20.439 12.762 20.581 12.294 20.698 11.819L20.936 11.816C21.078 12.287 21.196 12.765 21.333 13.236H21.765L21.243 11.403ZM18.763 12.48L18.544 12.481C18.5422 12.6323 18.5422 12.7837 18.544 12.935H18.981C18.983 12.785 18.983 12.634 18.982 12.483C18.836 12.4793 18.69 12.4786 18.544 12.481L18.763 12.48ZM24.083 11.968C23.916 11.968 23.749 11.968 23.583 11.971L24.115 12.911C24.266 12.911 24.419 12.911 24.57 12.905C24.447 12.573 24.247 12.279 24.082 11.968H24.083ZM15.863 10.593L15.648 10.596C15.641 11.16 15.646 11.726 15.645 12.29C15.304 12.282 14.963 12.31 14.624 12.271C14.6261 12.1577 14.6254 12.0443 14.622 11.931H14.21C14.21 12.129 14.192 12.329 14.217 12.526C14.275 12.594 14.342 12.654 14.407 12.718C14.899 12.715 15.391 12.72 15.884 12.715C15.949 12.649 16.015 12.584 16.082 12.52C16.077 11.878 16.085 11.236 16.078 10.595C15.9347 10.5928 15.7913 10.5928 15.648 10.595L15.863 10.593ZM12.468 11.654H12.251C12.241 12.008 12.246 12.361 12.247 12.714H12.687C12.687 12.361 12.689 12.008 12.685 11.656C12.54 11.654 12.395 11.654 12.251 11.655L12.468 11.654ZM22.745 11.035L22.522 11.038C22.5176 11.5223 22.5176 12.0067 22.522 12.491C22.671 12.493 22.82 12.494 22.969 12.491C22.974 12.007 22.974 11.522 22.969 11.038C22.82 11.0344 22.671 11.0344 22.522 11.038L22.745 11.035ZM9.34301 11.632L8.37001 11.636C8.36801 11.786 8.36801 11.939 8.37001 12.091C9.01901 12.095 9.66701 12.096 10.316 12.091C10.3195 11.9393 10.3195 11.7876 10.316 11.636C9.66735 11.631 9.01866 11.631 8.37001 11.636L9.34301 11.632ZM11.063 11.636H10.621V12.092C10.769 12.093 10.916 12.094 11.064 12.092C11.0672 11.94 11.0672 11.788 11.064 11.636H11.063ZM14.273 9.95399C14.032 10.319 13.8 10.692 13.561 11.059C13.321 10.697 13.091 10.327 12.854 9.96199C12.853 10.208 12.835 10.456 12.86 10.702C12.934 10.825 13.01 10.948 13.088 11.07L13.559 11.797C13.795 11.426 14.049 11.064 14.269 10.682C14.289 10.44 14.273 10.196 14.273 9.95399ZM17.202 8.85799L16.986 8.85999C16.981 9.71399 16.983 10.568 16.985 11.422C17.135 11.425 17.285 11.425 17.435 11.422L17.438 9.70599C17.768 10.214 18.076 10.738 18.41 11.244L18.578 11.274C18.582 11.087 18.581 10.9 18.581 10.714C18.188 10.099 17.808 9.47599 17.418 8.85899C17.274 8.85656 17.13 8.8569 16.986 8.85999L17.202 8.85799ZM11.9 9.33799L11.578 9.35099C11.4573 9.34949 11.3367 9.34949 11.216 9.35099C11.214 9.50099 11.215 9.65199 11.218 9.80299C11.379 9.80499 11.541 9.80299 11.703 9.81199C11.383 10.002 11.074 10.209 10.758 10.404C10.874 10.501 10.983 10.617 11.125 10.672C11.608 10.394 12.065 10.072 12.542 9.78099C12.544 9.63899 12.544 9.49599 12.543 9.35399C12.2217 9.3326 11.8994 9.3316 11.578 9.35099L11.9 9.33799ZM20.478 10.021L19.411 10.023V10.464C20.123 10.466 20.833 10.465 21.544 10.464V10.024C20.834 10.02 20.122 10.02 19.411 10.024L20.478 10.021ZM15.247 9.51699L15.025 9.51999C15.022 9.67099 15.022 9.82199 15.025 9.97299C15.173 9.97699 15.321 9.97699 15.469 9.97299C15.472 9.82099 15.472 9.67099 15.469 9.51999C15.321 9.51586 15.173 9.51586 15.025 9.51999L15.247 9.51699ZM18.999 9.20399L18.769 9.20699L18.77 9.64899C18.923 9.65199 19.076 9.65199 19.229 9.64799V9.20799C19.0757 9.20379 18.9223 9.20346 18.769 9.20699L18.999 9.20399ZM14.089 7.36499L13.859 7.36999C13.869 8.03199 13.829 8.69699 13.879 9.35799C14.026 9.35799 14.173 9.35799 14.32 9.35499C14.327 8.69299 14.324 8.03099 14.322 7.36799C14.1674 7.3637 14.0126 7.36437 13.858 7.36999L14.089 7.36499ZM15.791 8.30499C15.625 8.30499 15.459 8.30499 15.293 8.30799C15.465 8.62399 15.639 8.93799 15.82 9.24799C15.972 9.24799 16.125 9.24799 16.277 9.24099C16.149 8.91099 15.949 8.61899 15.791 8.30499ZM18.403 8.07899L17.786 8.08199C17.784 8.23399 17.784 8.38699 17.786 8.53899C18.197 8.54599 18.608 8.54399 19.019 8.53899C19.0209 8.38633 19.0209 8.23365 19.019 8.08099C18.608 8.0772 18.197 8.07753 17.786 8.08199L18.403 8.07899ZM15.97 6.57699L15.284 6.57799C15.15 6.55999 15.072 6.69799 14.996 6.78499C14.969 6.97499 14.989 7.16999 14.988 7.36199H15.414L15.417 7.00199H16.423C16.453 7.35899 16.422 7.71699 16.422 8.07499L16.455 8.20899C16.59 8.21899 16.727 8.21199 16.863 8.20999C16.861 7.73099 16.861 7.25199 16.863 6.77299L16.729 6.63999L16.655 6.58299C16.199 6.57099 15.741 6.58099 15.285 6.57799L15.97 6.57699Z" fill="white"/>
</g>
<defs>
<clipPath id="clip0_16_1444">
<rect width="32" height="32" fill="white"/>
</clipPath>
</defs>
</svg>
