<svg width="32" height="32" viewBox="0 0 32 32" fill="none" xmlns="http://www.w3.org/2000/svg">
<g clip-path="url(#clip0_16_1448)">
<path d="M16 32C24.8366 32 32 24.8366 32 16C32 7.16344 24.8366 0 16 0C7.16344 0 0 7.16344 0 16C0 24.8366 7.16344 32 16 32Z" fill="#F5D100"/>
<path d="M15.972 4C9.372 4 4 9.372 4 15.972C4 22.572 9.372 27.954 15.982 27.954C22.591 27.954 27.963 22.582 27.963 15.972C27.963 9.363 22.582 4 15.973 4H15.972ZM15.972 27.03C9.88 27.03 4.914 22.074 4.914 15.972C4.924 9.88 9.88 4.923 15.972 4.923C22.065 4.923 27.031 9.88 27.031 15.982C27.031 22.074 22.074 27.031 15.972 27.031V27.03Z" fill="white"/>
<path d="M9.774 10.656L10.654 9.77502L15.342 14.462L14.461 15.342L9.774 10.656ZM16.592 17.477L17.473 16.596L22.16 21.283L21.279 22.163L16.592 17.477ZM15.097 15.975L15.977 15.095L16.865 15.981L15.985 16.863L15.097 15.975ZM16.605 14.5L21.292 9.81402L22.172 10.695L17.486 15.382L16.605 14.5ZM9.808 21.288L14.494 16.602L15.375 17.482L10.689 22.169L9.808 21.288Z" fill="white"/>
</g>
<defs>
<clipPath id="clip0_16_1448">
<rect width="32" height="32" fill="white"/>
</clipPath>
</defs>
</svg>
