<svg width="32" height="32" viewBox="0 0 32 32" fill="none" xmlns="http://www.w3.org/2000/svg">
<g clip-path="url(#clip0_16_1454)">
<path d="M16 32C24.8366 32 32 24.8366 32 16C32 7.16344 24.8366 0 16 0C7.16344 0 0 7.16344 0 16C0 24.8366 7.16344 32 16 32Z" fill="#EEC315"/>
<path d="M18.99 8.185C18.9901 8.09509 18.9725 8.00604 18.9382 7.92294C18.9039 7.83984 18.8535 7.76431 18.79 7.70069C18.7265 7.63707 18.651 7.5866 18.568 7.55216C18.4849 7.51772 18.3959 7.5 18.306 7.5H13.132L13.14 7.51H8.147C7.513 7.51 7 8.024 7 8.658V23.342C7 23.976 7.513 24.49 8.147 24.49H10.002C10.636 24.49 11.149 23.976 11.149 23.342V12.618C11.149 11.602 12.371 11.087 13.097 11.797L17.072 15.683C17.731 16.327 18.797 15.963 18.99 15.133C19.01 15.047 19.02 14.957 19.02 14.862L18.99 8.185Z" fill="white"/>
<path d="M23.965 7.51001H21.885C21.315 7.51001 20.851 7.97401 20.851 8.54601V19.648C20.851 20.565 19.748 21.03 19.093 20.388L14.738 16.131C14.082 15.491 12.98 15.955 12.98 16.872V19.236C12.98 19.272 12.982 19.308 12.985 19.344L12.98 19.339V23.563C12.98 24.081 13.399 24.5 13.916 24.5H19.656L19.642 24.49H23.965C24.537 24.49 25 24.026 25 23.454V8.54601C25 7.97401 24.537 7.51001 23.965 7.51001Z" fill="white"/>
</g>
<defs>
<clipPath id="clip0_16_1454">
<rect width="32" height="32" fill="white"/>
</clipPath>
</defs>
</svg>
