<svg width="32" height="32" viewBox="0 0 32 32" fill="none" xmlns="http://www.w3.org/2000/svg">
<g clip-path="url(#clip0_16_1464)">
<path d="M16 32C24.8366 32 32 24.8366 32 16C32 7.16344 24.8366 0 16 0C7.16344 0 0 7.16344 0 16C0 24.8366 7.16344 32 16 32Z" fill="#4099CD"/>
<path fill-rule="evenodd" clip-rule="evenodd" d="M2.005 23.76C2.61 21.996 3.776 20.086 5.4 18.2C5.11107 17.816 4.97008 17.3407 5.00285 16.8612C5.03562 16.3818 5.23994 15.9301 5.57844 15.589C5.91693 15.2478 6.36696 15.0399 6.84616 15.0034C7.32537 14.9669 7.8017 15.1041 8.188 15.39C9.47776 14.2543 10.8495 13.2151 12.292 12.281C19.226 7.77801 26.554 6.34101 30.128 8.48301C31.1577 10.4142 31.7777 12.5372 31.949 14.719C30.795 18.497 26.983 23.011 21.551 26.539C17.804 28.972 13.941 30.511 10.618 31.072C6.95577 29.759 3.89504 27.1606 2.005 23.76ZM5.755 18.565C3.411 21.273 2.472 24.059 3.608 25.809C5.324 28.452 11.128 27.729 16.569 24.196C22.011 20.662 25.031 15.654 23.315 13.011C21.598 10.368 15.795 11.091 10.353 14.624C9.75 15.016 9.176 15.426 8.636 15.849C8.91297 16.2425 9.03878 16.7226 8.99038 17.2014C8.94197 17.6801 8.72258 18.1254 8.37245 18.4555C8.02232 18.7855 7.56493 18.9783 7.08416 18.9984C6.6034 19.0186 6.13149 18.8647 5.755 18.565Z" fill="white"/>
</g>
<defs>
<clipPath id="clip0_16_1464">
<rect width="32" height="32" fill="white"/>
</clipPath>
</defs>
</svg>
