<svg width="32" height="32" viewBox="0 0 32 32" fill="none" xmlns="http://www.w3.org/2000/svg">
<g clip-path="url(#clip0_16_1507)">
<path d="M16 32C24.8366 32 32 24.8366 32 16C32 7.16344 24.8366 0 16 0C7.16344 0 0 7.16344 0 16C0 24.8366 7.16344 32 16 32Z" fill="#34445B"/>
<path d="M15.937 10.222L17.947 7.08603C18.4627 7.16968 18.9909 7.05126 19.4215 6.75541C19.8522 6.45956 20.1521 6.00906 20.2591 5.49764C20.366 4.98623 20.2716 4.45327 19.9956 4.00968C19.7195 3.56608 19.2831 3.246 18.777 3.11603C18.3739 3.03255 17.955 3.0736 17.5757 3.23373C17.1965 3.39386 16.8749 3.66549 16.6536 4.01261C16.4323 4.35973 16.3218 4.76592 16.3367 5.17731C16.3516 5.58869 16.4912 5.98582 16.737 6.31603L14.243 10.207C13.2022 10.3094 12.1918 10.6159 11.2694 11.1089C10.3471 11.602 9.53102 12.272 8.86775 13.0806C8.20448 13.8892 7.70706 14.8206 7.40392 15.8215C7.10077 16.8224 6.99784 17.8733 7.101 18.914C7.30905 21.0153 8.34297 22.948 9.97551 24.2873C11.608 25.6266 13.7056 26.2627 15.807 26.056C17.9085 25.8482 19.8415 24.8144 21.1809 23.1819C22.5204 21.5493 23.1567 19.4516 22.95 17.35C22.7705 15.5398 21.9769 13.8455 20.701 12.5488C19.4252 11.2521 17.7441 10.431 15.937 10.222ZM15.022 22.344C14.4672 22.3446 13.9178 22.2357 13.4052 22.0237C12.8925 21.8116 12.4267 21.5006 12.0344 21.1084C11.642 20.7161 11.3309 20.2504 11.1188 19.7378C10.9066 19.2252 10.7976 18.6758 10.798 18.121C10.7975 17.5662 10.9064 17.0167 11.1185 16.504C11.3306 15.9912 11.6417 15.5254 12.034 15.133C12.4264 14.7407 12.8922 14.4296 13.4049 14.2175C13.9176 14.0054 14.4672 13.8965 15.022 13.897C15.8801 13.8968 16.7178 14.1582 17.4236 14.6463C18.1293 15.1344 18.6694 15.8261 18.972 16.629C18.5751 16.1179 17.9916 15.7852 17.3496 15.704C16.7076 15.6229 16.0596 15.7998 15.548 16.196C15.0367 16.5928 14.7038 17.1763 14.6226 17.8184C14.5414 18.4605 14.7185 19.1085 15.115 19.62C15.3427 19.913 15.6343 20.1502 15.9675 20.3136C16.3007 20.477 16.6667 20.5623 17.0378 20.5629C17.4089 20.5636 17.7752 20.4797 18.109 20.3175C18.4428 20.1553 18.7352 19.9192 18.964 19.627C18.6602 20.4264 18.1204 21.1144 17.4163 21.5997C16.7122 22.085 15.8771 22.3446 15.022 22.344Z" fill="white"/>
<path d="M15.937 10.222L17.947 7.08603C18.4627 7.16968 18.9909 7.05126 19.4215 6.75541C19.8522 6.45956 20.1521 6.00906 20.2591 5.49764C20.366 4.98623 20.2716 4.45327 19.9956 4.00968C19.7195 3.56608 19.2831 3.246 18.777 3.11603C18.3739 3.03255 17.955 3.0736 17.5757 3.23373C17.1965 3.39386 16.8749 3.66549 16.6536 4.01261C16.4323 4.35973 16.3218 4.76592 16.3367 5.17731C16.3516 5.58869 16.4912 5.98582 16.737 6.31603L14.243 10.207C13.2022 10.3094 12.1918 10.6159 11.2694 11.1089C10.3471 11.602 9.53102 12.272 8.86775 13.0806C8.20448 13.8892 7.70706 14.8206 7.40392 15.8215C7.10077 16.8224 6.99784 17.8733 7.101 18.914C7.30905 21.0153 8.34297 22.948 9.97551 24.2873C11.608 25.6266 13.7056 26.2627 15.807 26.056C17.9085 25.8482 19.8415 24.8144 21.1809 23.1819C22.5204 21.5493 23.1567 19.4516 22.95 17.35C22.7705 15.5398 21.9769 13.8455 20.701 12.5488C19.4252 11.2521 17.7441 10.431 15.937 10.222ZM15.022 22.344C14.4672 22.3446 13.9178 22.2357 13.4052 22.0237C12.8925 21.8116 12.4267 21.5006 12.0344 21.1084C11.642 20.7161 11.3309 20.2504 11.1188 19.7378C10.9066 19.2252 10.7976 18.6758 10.798 18.121C10.7975 17.5662 10.9064 17.0167 11.1185 16.504C11.3306 15.9912 11.6417 15.5254 12.034 15.133C12.4264 14.7407 12.8922 14.4296 13.4049 14.2175C13.9176 14.0054 14.4672 13.8965 15.022 13.897C15.8801 13.8968 16.7178 14.1582 17.4236 14.6463C18.1293 15.1344 18.6694 15.8261 18.972 16.629C18.5751 16.1179 17.9916 15.7852 17.3496 15.704C16.7076 15.6229 16.0596 15.7998 15.548 16.196C15.0367 16.5928 14.7038 17.1763 14.6226 17.8184C14.5414 18.4605 14.7185 19.1085 15.115 19.62C15.3427 19.913 15.6343 20.1502 15.9675 20.3136C16.3007 20.477 16.6667 20.5623 17.0378 20.5629C17.4089 20.5636 17.7752 20.4797 18.109 20.3175C18.4428 20.1553 18.7352 19.9192 18.964 19.627C18.6602 20.4264 18.1204 21.1144 17.4163 21.5997C16.7122 22.085 15.8771 22.3446 15.022 22.344Z" fill="white"/>
</g>
<defs>
<clipPath id="clip0_16_1507">
<rect width="32" height="32" fill="white"/>
</clipPath>
</defs>
</svg>
