<svg width="32" height="32" viewBox="0 0 32 32" fill="none" xmlns="http://www.w3.org/2000/svg">
<g clip-path="url(#clip0_16_1529)">
<path d="M16 32C24.8366 32 32 24.8366 32 16C32 7.16344 24.8366 0 16 0C7.16344 0 0 7.16344 0 16C0 24.8366 7.16344 32 16 32Z" fill="#00ACFF"/>
<path fill-rule="evenodd" clip-rule="evenodd" d="M15.08 20.156C15.1422 20.1302 15.2088 20.1169 15.2761 20.117C15.3434 20.1171 15.41 20.1305 15.4721 20.1564C15.5342 20.1823 15.5905 20.2203 15.6379 20.2681C15.6852 20.3159 15.7227 20.3726 15.748 20.435C15.7998 20.5607 15.7997 20.7019 15.7478 20.8276C15.6959 20.9533 15.5964 21.0534 15.471 21.106L12.065 22.52L11.613 25H9.26901L9.52601 23.574L8.14401 24.147C8.08185 24.1728 8.01521 24.186 7.94792 24.1859C7.88063 24.1859 7.81401 24.1725 7.75192 24.1465C7.68982 24.1206 7.63348 24.0826 7.58612 24.0348C7.53877 23.987 7.50134 23.9303 7.47601 23.868C7.42453 23.7423 7.42476 23.6014 7.47663 23.476C7.52851 23.3505 7.62784 23.2506 7.75301 23.198L9.74301 22.372L9.893 21.533L7.20601 22.648C7.14391 22.6736 7.07736 22.6867 7.01018 22.6866C6.94299 22.6864 6.8765 22.673 6.81452 22.6471C6.75254 22.6212 6.6963 22.5833 6.64902 22.5355C6.60173 22.4878 6.56435 22.4312 6.53901 22.369C6.48722 22.2432 6.48729 22.1021 6.53918 21.9764C6.59108 21.8507 6.69059 21.7506 6.81601 21.698L10.109 20.331L12.507 7.00998H19.28C23.427 6.86698 25.5 8.25198 25.5 11.165C25.5 14.86 22.798 17.718 18.215 17.718H12.94L12.657 19.274L14.144 18.657C14.2061 18.6313 14.2727 18.6182 14.3398 18.6184C14.407 18.6185 14.4735 18.6319 14.5355 18.6579C14.5975 18.6838 14.6537 18.7217 14.701 18.7694C14.7483 18.8172 14.7857 18.8738 14.811 18.936C14.8625 19.0616 14.8623 19.2025 14.8104 19.328C14.7585 19.4535 14.6592 19.5534 14.534 19.606L12.437 20.477L12.284 21.317L15.08 20.156ZM14.51 9.10898L13.338 15.534H18.556C21.768 15.534 22.986 13.349 22.986 11.764C22.986 10.18 22.22 9.10898 19.664 9.10898H14.51Z" fill="white"/>
</g>
<defs>
<clipPath id="clip0_16_1529">
<rect width="32" height="32" fill="white"/>
</clipPath>
</defs>
</svg>
