<svg width="32" height="32" viewBox="0 0 32 32" fill="none" xmlns="http://www.w3.org/2000/svg">
<g clip-path="url(#clip0_16_1537)">
<path d="M16 32C24.8366 32 32 24.8366 32 16C32 7.16344 24.8366 0 16 0C7.16344 0 0 7.16344 0 16C0 24.8366 7.16344 32 16 32Z" fill="#E4CE4D"/>
<path d="M18.603 6.91202C20.341 8.13902 22.151 8.27602 24.466 8.70202C26.572 9.09302 27.019 11.244 26.057 13.982C25.9988 13.8836 25.9388 13.7862 25.877 13.69L26.057 13.982L26.04 14.027L26.057 13.982C27.524 16.474 27.513 19.173 24.338 20.554C18.685 23.014 18.348 27.859 13.005 25.251C12.2476 24.878 11.5673 24.3653 11 23.74L10.792 23.503L10.599 23.47C7.013 22.835 4.659 20.891 6.837 15.931C8.764 11.548 7.043 7.23502 12.953 7.42702H12.955C14.583 5.90002 16.46 5.40302 18.602 6.91202H18.603ZM13.096 11.344C10.618 13.123 9.802 16.436 11.452 19.009C11.8418 19.6202 12.3486 20.1481 12.9434 20.5624C13.5382 20.9768 14.2091 21.2693 14.9174 21.4231C15.6257 21.577 16.3575 21.5891 17.0706 21.4588C17.7836 21.3285 18.4638 21.0584 19.072 20.664C21.63 19.004 21.98 15.784 20.716 12.997C19.421 10.14 15.866 9.35502 13.096 11.344Z" fill="white"/>
</g>
<defs>
<clipPath id="clip0_16_1537">
<rect width="32" height="32" fill="white"/>
</clipPath>
</defs>
</svg>
