<svg width="32" height="32" viewBox="0 0 32 32" fill="none" xmlns="http://www.w3.org/2000/svg">
<g clip-path="url(#clip0_16_1589)">
<path d="M16 32C24.8366 32 32 24.8366 32 16C32 7.16344 24.8366 0 16 0C7.16344 0 0 7.16344 0 16C0 24.8366 7.16344 32 16 32Z" fill="#05BCA9"/>
<path fill-rule="evenodd" clip-rule="evenodd" d="M27.995 15.954C28.0051 15.9997 27.9993 16.0475 27.9786 16.0895C27.9578 16.1315 27.9234 16.1652 27.881 16.185L27.805 16.221L25.499 18.533L26.393 21.878C26.4071 21.9306 26.3997 21.9867 26.3725 22.0339C26.3454 22.0811 26.3006 22.1157 26.248 22.13L23.039 22.991L22.154 26.301C22.1401 26.3534 22.106 26.3983 22.0592 26.4256C22.0123 26.453 21.9565 26.4607 21.904 26.447L18.514 25.537L16.116 27.94C16.097 27.9591 16.0744 27.9744 16.0496 27.9847C16.0247 27.9951 15.998 28.0005 15.971 28.0005C15.944 28.0005 15.9173 27.9951 15.8924 27.9847C15.8676 27.9744 15.845 27.9591 15.826 27.94L13.457 25.565L10.175 26.447C10.1491 26.4539 10.122 26.4557 10.0954 26.4521C10.0688 26.4486 10.0431 26.4398 10.0199 26.4264C9.99667 26.4129 9.97633 26.395 9.96005 26.3736C9.94376 26.3523 9.93185 26.3279 9.925 26.302L9.039 22.992L5.831 22.13C5.80489 22.123 5.78042 22.111 5.75898 22.0945C5.73755 22.0781 5.71958 22.0575 5.7061 22.0341C5.69263 22.0107 5.68391 21.9849 5.68046 21.9581C5.67701 21.9313 5.6789 21.904 5.686 21.878L6.551 18.641L4.061 16.144C4.02277 16.1054 4.00133 16.0533 4.00133 15.999C4.00133 15.9447 4.02277 15.8926 4.061 15.854L6.482 13.425L5.617 10.189C5.60296 10.1362 5.61046 10.08 5.63783 10.0327C5.66521 9.98549 5.71023 9.95105 5.763 9.93697L9.118 9.03497L9.992 5.76497C10.0061 5.7122 10.0405 5.66718 10.0878 5.6398C10.135 5.61243 10.1912 5.60493 10.244 5.61897L13.418 6.47197L15.826 4.05797C15.8651 4.02068 15.917 3.99988 15.971 3.99988C16.025 3.99988 16.0769 4.02068 16.116 4.05797L18.553 6.49997L21.835 5.61797C21.8611 5.61103 21.8883 5.60931 21.915 5.6129C21.9417 5.61648 21.9675 5.62531 21.9908 5.63887C22.0141 5.65244 22.0345 5.67047 22.0509 5.69194C22.0672 5.7134 22.0791 5.73788 22.086 5.76397L22.109 5.84997C22.114 5.8629 22.1177 5.8763 22.12 5.88997L22.96 9.03397L26.316 9.93597C26.426 9.96597 26.49 10.078 26.461 10.188L25.567 13.532L27.824 15.795C27.8652 15.8009 27.9036 15.8191 27.9341 15.8473C27.9646 15.8756 27.9859 15.9124 27.995 15.953V15.954ZM25.376 18.074L26.722 16.726L25.205 17.433L25.376 18.075V18.074ZM25.867 21.501L25.164 18.869L23.767 20.269V20.27L25.867 21.501ZM23.657 20.681L23.162 22.533L25.667 21.86L23.657 20.682V20.681ZM21.859 25.817L22.582 23.114L20.608 23.644L21.859 25.817ZM19.355 24.692L18.848 25.201L20.837 25.735L19.355 24.692ZM16.176 27.298L18.056 25.413L16.176 24.908V27.298ZM15.766 24.945L13.915 25.442L15.765 27.298V24.945H15.766ZM10.577 25.913L13.123 25.23L11.759 23.862L10.577 25.913ZM9.497 23.114L10.062 25.228L10.232 23.312L9.497 23.114ZM6.407 21.859L8.917 22.533L8.417 20.666L6.407 21.859ZM8.214 20.309L6.886 18.977L6.212 21.497L8.214 20.309ZM4.734 16.239L6.674 18.183L7.193 16.239H4.734ZM6.814 14.664L6.605 13.884L4.971 15.522L6.814 14.664ZM6.142 10.562L6.817 13.089L8.167 11.736L6.142 10.562ZM8.48 11.422L8.996 9.49397L6.346 10.206L8.467 11.435L8.48 11.422ZM10.252 6.38197L9.576 8.91197L11.423 8.41597L10.252 6.38297V6.38197ZM12.594 7.29797L13.083 6.80797L11.167 6.29297L12.594 7.29797ZM15.766 4.69997L13.876 6.59497L15.766 7.10297V4.69997ZM16.176 7.13997L18.096 6.62397L16.176 4.69997V7.13997ZM21.572 6.11597L18.888 6.83597L20.326 8.27897L21.572 6.11597ZM21.875 8.74397L22.503 8.91197L22.02 7.10497L21.875 8.74397ZM25.725 10.204L23.083 9.49397L23.593 11.406L25.724 10.203L25.725 10.204ZM23.8 11.761L25.232 13.196L25.939 10.553L23.8 11.761ZM27.242 15.792L25.445 13.991L24.963 15.792H27.242ZM24.876 16.203L25.096 17.028L26.867 16.203H24.877H24.876ZM24.566 17.275L24.719 17.205L24.652 16.955L24.567 17.275H24.566ZM24.428 17.793L23.978 19.474L25.041 18.409L24.827 17.607L24.428 17.793ZM23.187 20.85L20.904 23.138L22.704 22.655L23.187 20.85ZM20.32 23.143L23.399 20.056L23.943 18.019L18.76 20.434L20.32 23.143ZM20.232 23.813L19.65 24.396L21.194 25.483L20.232 23.813ZM19.141 24.038L19.309 24.156L19.532 23.932L19.141 24.038ZM18.624 24.176L16.832 24.658L18.391 25.077L19.015 24.451L18.625 24.176H18.624ZM15.247 24.658L12.36 23.882L13.58 25.106L15.247 24.658ZM10.69 22.79L10.67 23.003L10.987 23.088L10.69 22.79ZM10.311 22.41L8.942 21.04L9.374 22.657L10.269 22.897L10.311 22.412V22.41ZM8.15 19.663L7.426 16.955L7.008 18.518L8.15 19.663ZM7.125 15.828L6.921 15.067L5.288 15.827H7.125V15.828ZM7.589 14.755L7.299 14.891L7.426 15.367L7.589 14.755ZM7.728 14.238L8.268 12.216L6.94 13.548L7.191 14.488L7.728 14.238ZM9.06 10.84L10.919 8.97697L9.453 9.37097L9.06 10.841V10.84ZM11.744 8.14997L12.3 7.59297L10.824 6.55397L11.744 8.14997ZM12.904 8.01797L12.641 7.83297L12.291 8.18297L12.904 8.01797ZM13.421 7.87897L15.247 7.38897L13.541 6.93097L12.935 7.53697L13.421 7.87897ZM16.831 7.38897L19.601 8.13297L18.431 6.95997L16.831 7.38897ZM21.408 9.36297L21.436 9.05097L20.973 8.92697L21.408 9.36297ZM21.786 9.74297L23.068 11.028L22.625 9.37097L21.838 9.15897L21.786 9.74297ZM23.86 12.403L24.652 15.367L25.11 13.656L23.86 12.404V12.403ZM18.086 19.264L18.554 20.077L24.082 17.502L24.429 16.204H21.214L21.051 18.038C21.0471 18.0811 21.0297 18.1218 21.0012 18.1544C20.9728 18.187 20.9348 18.2097 20.8926 18.2194C20.8504 18.2291 20.8063 18.2251 20.7665 18.2082C20.7267 18.1912 20.6932 18.1621 20.671 18.125L19.673 16.435L18.086 19.264ZM17.302 20.661L18.181 20.251L17.852 19.681L17.302 20.661ZM13.816 20.291L18.703 23.731L19.986 23.386L18.386 20.609L16.898 21.303C16.8585 21.3216 16.8141 21.3272 16.7712 21.3188C16.7283 21.3104 16.6892 21.2886 16.6596 21.2564C16.63 21.2243 16.6115 21.1835 16.6067 21.1401C16.6019 21.0966 16.6111 21.0528 16.633 21.015L17.566 19.352L14.336 19.388L13.816 20.29V20.291ZM13.61 20.648L12.04 23.372L16.04 24.446L18.186 23.869L13.61 20.648ZM13.859 19.393L12.562 19.408L13.479 20.053L13.859 19.393ZM11.269 16.239L10.737 22.257L11.671 23.192L13.273 20.41L11.805 19.378C11.7696 19.3528 11.743 19.3172 11.7291 19.276C11.7151 19.2349 11.7146 19.1904 11.7274 19.1489C11.7403 19.1074 11.7659 19.0711 11.8007 19.0451C11.8355 19.019 11.8776 19.0046 11.921 19.004L13.905 18.981L12.285 16.239H11.27H11.269ZM10.859 16.239H7.659L8.729 20.244L10.359 21.877L10.859 16.239ZM12.041 15.828L11.402 14.746L11.306 15.828H12.041ZM13.491 12.006L8.075 14.53L7.728 15.828H10.895L11.05 14.074C11.0545 14.0312 11.0722 13.991 11.1007 13.9588C11.1292 13.9267 11.167 13.9042 11.2089 13.8946C11.2508 13.8851 11.2946 13.8888 11.3343 13.9054C11.3739 13.9219 11.4074 13.9505 11.43 13.987L12.433 15.684L14 12.891L13.49 12.006H13.491ZM13.285 11.649L11.655 8.81997L8.848 11.635L8.213 14.012L13.285 11.649ZM18.292 11.811L13.342 8.32597L12.046 8.67497L13.658 11.475L15.258 10.729C15.2975 10.7103 15.342 10.7048 15.3848 10.7131C15.4277 10.7215 15.4668 10.7434 15.4964 10.7755C15.526 10.8077 15.5445 10.8485 15.5493 10.8919C15.5541 10.9353 15.5449 10.9791 15.523 11.017L14.587 12.685L17.809 12.649L18.292 11.811ZM18.498 11.453L20.089 8.68997L16.039 7.60197L13.859 8.18797L18.498 11.453ZM18.286 12.643L19.456 12.631L18.629 12.048L18.286 12.644V12.643ZM20.802 16.204H20.012L20.699 17.366L20.802 16.204ZM14.234 12.474L14.854 11.371L13.864 11.832L14.234 12.475V12.474ZM17.797 18.941L19.431 16.027L17.686 13.073L17.681 13.062L14.354 13.099L12.674 16.093L14.379 18.976L17.777 18.938C17.784 18.938 17.79 18.94 17.797 18.941ZM21.739 10.277L21.25 15.793H24.342L23.28 11.823L21.739 10.277ZM20.839 15.793L21.361 9.89697L20.414 8.94797L18.834 11.69L20.214 12.66C20.2499 12.685 20.2768 12.7207 20.291 12.762C20.3052 12.8033 20.3059 12.8481 20.293 12.8899C20.2801 12.9316 20.2543 12.9682 20.2192 12.9942C20.1841 13.0203 20.1417 13.0346 20.098 13.035L18.153 13.056L19.77 15.793H20.838H20.839ZM21.472 8.63597L21.632 6.83297L20.712 8.43097L21.472 8.63597ZM10.634 23.42L10.469 25.278L11.419 23.63L10.634 23.42Z" fill="white"/>
</g>
<defs>
<clipPath id="clip0_16_1589">
<rect width="32" height="32" fill="white"/>
</clipPath>
</defs>
</svg>
