<svg width="32" height="32" viewBox="0 0 32 32" fill="none" xmlns="http://www.w3.org/2000/svg">
<g clip-path="url(#clip0_16_1601)">
<path d="M16 32C24.8366 32 32 24.8366 32 16C32 7.16344 24.8366 0 16 0C7.16344 0 0 7.16344 0 16C0 24.8366 7.16344 32 16 32Z" fill="#152743"/>
<path d="M16.049 8.31598C14.733 8.31598 13.666 7.58298 13.666 6.67798C13.666 5.77298 14.733 5.03998 16.049 5.03998C17.365 5.03998 18.431 5.77298 18.431 6.67798C18.431 7.58298 17.365 8.31598 16.049 8.31598ZM14.816 26.6V9.10398H20.128C20.325 9.10398 20.464 9.25098 20.464 9.44798V19.156C20.464 19.352 20.324 19.52 20.128 19.52H17.2V26.6C17.2 26.797 17.05 26.976 16.853 26.976H15.185C15.0873 26.9722 14.9948 26.9313 14.9262 26.8616C14.8576 26.7919 14.8182 26.6987 14.816 26.601V26.6ZM13.92 19.519H11.91C11.8128 19.518 11.7197 19.4797 11.6501 19.4119C11.5805 19.3441 11.5396 19.2521 11.536 19.155V9.44798C11.536 9.25098 11.713 9.10398 11.909 9.10398H13.92V19.52V19.519Z" fill="white"/>
</g>
<defs>
<clipPath id="clip0_16_1601">
<rect width="32" height="32" fill="white"/>
</clipPath>
</defs>
</svg>
