<svg width="32" height="32" viewBox="0 0 32 32" fill="none" xmlns="http://www.w3.org/2000/svg">
<g clip-path="url(#clip0_16_1660)">
<path d="M16 32C24.8366 32 32 24.8366 32 16C32 7.16344 24.8366 0 16 0C7.16344 0 0 7.16344 0 16C0 24.8366 7.16344 32 16 32Z" fill="#3555F9"/>
<path d="M14.36 6.62701C15.21 6.46901 16.08 6.48701 16.94 6.53001C17.932 6.64601 18.926 6.85401 19.838 7.26401C21.6595 8.02514 23.2034 9.32713 24.261 10.994C24.654 11.567 24.918 12.209 25.183 12.846C25.429 12.454 25.649 12.046 25.863 11.636C25.955 11.443 26.148 11.294 26.373 11.304C26.5227 11.2923 26.6711 11.3388 26.7873 11.4338C26.9036 11.5288 26.9787 11.665 26.997 11.814C27.022 12.054 26.871 12.261 26.772 12.469C26.46 13.099 26.057 13.681 25.64 14.249C25.563 14.331 25.595 14.445 25.604 14.545C26.068 17.282 25.185 20.195 23.304 22.257C22.2196 23.4623 20.8531 24.3797 19.327 24.927C17.569 25.542 15.633 25.681 13.815 25.251C11.179 24.68 8.847 22.942 7.521 20.636C7.231 20.169 7.046 19.65 6.817 19.154C6.567 19.539 6.355 19.944 6.142 20.348C6.09196 20.4481 6.01665 20.5334 5.92352 20.5955C5.83039 20.6576 5.72267 20.6943 5.611 20.702C5.23 20.702 4.884 20.292 5.037 19.927C5.365 19.173 5.814 18.475 6.317 17.823C6.425 17.71 6.41 17.55 6.39 17.409C6.20323 16.2056 6.25762 14.9772 6.55 13.795C7.32 10.471 10.08 7.69501 13.425 6.83001C13.735 6.75701 14.045 6.68001 14.36 6.62701ZM11.998 8.63701C10.225 9.56901 8.798 11.128 8.058 12.969C7.63 14.081 7.412 15.277 7.478 16.467C7.66578 16.3261 7.84478 16.1738 8.014 16.011C9.009 15.123 10.174 14.435 11.392 13.887C13.655 12.858 16.147 12.415 18.623 12.295C17.786 11.427 16.878 10.626 16.041 9.75801C16.305 9.46801 16.591 9.20001 16.877 8.93201C17.202 9.22601 17.502 9.54501 17.82 9.84601C18.85 10.871 19.911 11.866 20.924 12.905C19.844 13.982 18.736 15.032 17.656 16.109C17.565 16.1946 17.4695 16.2754 17.37 16.351C17.098 16.077 16.782 15.837 16.564 15.516C17.228 14.82 17.984 14.21 18.621 13.489C17.479 13.505 16.343 13.667 15.225 13.889C14.322 14.05 13.454 14.355 12.587 14.646C10.771 15.326 9.096 16.41 7.819 17.86C7.743 17.935 7.754 18.046 7.774 18.14C7.925 18.788 8.21 19.394 8.522 19.98C9.552 21.837 11.332 23.272 13.377 23.92C14.573 24.288 15.849 24.43 17.093 24.257C18.8319 24.0385 20.4625 23.2936 21.766 22.122C23.631 20.478 24.677 17.973 24.516 15.514C24.319 15.667 24.143 15.841 23.959 16.007C22.7081 17.0832 21.2694 17.9192 19.715 18.473C17.695 19.223 15.543 19.611 13.388 19.672C13.576 19.918 13.808 20.124 14.027 20.343C14.672 20.971 15.308 21.607 15.963 22.225C15.711 22.522 15.417 22.781 15.139 23.053C14.86 22.826 14.619 22.562 14.359 22.313C13.385 21.369 12.421 20.413 11.449 19.465C11.3144 19.3425 11.1906 19.2087 11.079 19.065C11.5 18.613 11.984 18.223 12.415 17.781C13.155 17.066 13.875 16.33 14.624 15.624C14.904 15.896 15.198 16.156 15.447 16.457C14.781 17.147 14.072 17.796 13.397 18.477C14.137 18.514 14.867 18.387 15.601 18.317C16.131 18.261 16.652 18.141 17.175 18.032C19.86 17.412 22.475 16.137 24.277 14.036C23.587 11.052 21.05 8.59601 18.031 7.90201C16.02 7.39101 13.827 7.68201 11.998 8.63701Z" fill="white"/>
</g>
<defs>
<clipPath id="clip0_16_1660">
<rect width="32" height="32" fill="white"/>
</clipPath>
</defs>
</svg>
