<svg width="32" height="32" viewBox="0 0 32 32" fill="none" xmlns="http://www.w3.org/2000/svg">
<g clip-path="url(#clip0_16_1682)">
<path d="M16 32C24.8366 32 32 24.8366 32 16C32 7.16344 24.8366 0 16 0C7.16344 0 0 7.16344 0 16C0 24.8366 7.16344 32 16 32Z" fill="#0E0E21"/>
<path fill-rule="evenodd" clip-rule="evenodd" d="M11.55 15.245L10.31 14.44C10.2559 14.4049 10.2175 14.3502 10.2027 14.2874C10.188 14.2246 10.1981 14.1585 10.231 14.103L15.015 5.992C15.058 5.9187 15.1193 5.85785 15.193 5.81543C15.2666 5.773 15.35 5.75045 15.435 5.75H16.564C16.649 5.75045 16.7324 5.773 16.806 5.81543C16.8797 5.85785 16.941 5.9187 16.984 5.992L21.768 14.103C21.8008 14.1585 21.811 14.2246 21.7963 14.2874C21.7815 14.3502 21.7431 14.4049 21.689 14.44L20.449 15.245C20.4214 15.2625 20.3905 15.2744 20.3582 15.2797C20.326 15.2851 20.2929 15.2839 20.2611 15.2763C20.2293 15.2686 20.1994 15.2547 20.173 15.2352C20.1467 15.2157 20.1246 15.1912 20.108 15.163L16.105 8.377C16.0942 8.35876 16.0788 8.34364 16.0604 8.33314C16.042 8.32264 16.0212 8.31712 16 8.31712C15.9788 8.31712 15.958 8.32264 15.9396 8.33314C15.9211 8.34364 15.9058 8.35876 15.895 8.377L11.892 15.163C11.8755 15.1914 11.8534 15.2162 11.827 15.2358C11.8006 15.2555 11.7705 15.2695 11.7386 15.2772C11.7066 15.2849 11.6734 15.286 11.641 15.2804C11.6086 15.2749 11.5776 15.2628 11.55 15.245ZM23.027 16.24L24.931 19.468C24.996 19.5789 25.0162 19.7105 24.9873 19.8358C24.9585 19.9611 24.8829 20.0706 24.776 20.142L16.266 25.672C16.1872 25.7235 16.0951 25.751 16.001 25.751C15.9069 25.751 15.8148 25.7235 15.736 25.672L7.226 20.142C7.11813 20.0714 7.04168 19.9619 7.01261 19.8363C6.98354 19.7108 7.0041 19.5788 7.07 19.468L8.974 16.24C8.99052 16.2116 9.01263 16.1868 9.03901 16.1672C9.06538 16.1475 9.09547 16.1335 9.12744 16.1258C9.15942 16.1181 9.19261 16.117 9.22502 16.1226C9.25743 16.1281 9.28838 16.1402 9.316 16.158L10.555 16.963C10.6091 16.9981 10.6475 17.0528 10.6623 17.1156C10.677 17.1784 10.6668 17.2445 10.634 17.3L9.546 19.145C9.53025 19.1729 9.52563 19.2057 9.53305 19.2368C9.54046 19.268 9.55938 19.2952 9.586 19.313L15.934 23.438C15.974 23.465 16.024 23.465 16.065 23.438L22.415 19.313C22.442 19.2955 22.4612 19.2683 22.4687 19.237C22.4761 19.2057 22.4712 19.1728 22.455 19.145L21.367 17.3C21.3341 17.2445 21.324 17.1784 21.3387 17.1156C21.3535 17.0528 21.3919 16.9981 21.446 16.963L22.686 16.158C22.7136 16.1403 22.7444 16.1284 22.7767 16.1229C22.8091 16.1175 22.8421 16.1186 22.874 16.1263C22.9058 16.134 22.9358 16.148 22.9621 16.1675C22.9884 16.1871 23.0105 16.2117 23.027 16.24Z" fill="white"/>
</g>
<defs>
<clipPath id="clip0_16_1682">
<rect width="32" height="32" fill="white"/>
</clipPath>
</defs>
</svg>
