<svg width="32" height="32" viewBox="0 0 32 32" fill="none" xmlns="http://www.w3.org/2000/svg">
<g clip-path="url(#clip0_16_1724)">
<path d="M16 32C24.8366 32 32 24.8366 32 16C32 7.16344 24.8366 0 16 0C7.16344 0 0 7.16344 0 16C0 24.8366 7.16344 32 16 32Z" fill="#00688C"/>
<path d="M26.989 22.671V9.99797L15.985 3.65997L15.97 3.66797L5.004 10.005V22.675L15.979 28.997L15.98 28.998L26.988 22.672L26.989 22.671ZM22.119 20.645L20.242 19.569L16.054 22C16.0419 22.0071 16.0281 22.0108 16.014 22.0108C15.9999 22.0108 15.9861 22.0071 15.974 22L11.169 19.215L11.167 14.37L6.946 11.95L15.944 6.67497C15.9476 6.67276 15.9518 6.67159 15.956 6.67159C15.9602 6.67159 15.9644 6.67276 15.968 6.67497L24.325 11.453L22.847 12.308L15.972 8.35197L9.875 11.931L11.99 13.146L15.976 10.828L15.978 10.826L20.848 13.611L20.846 18.221L24.997 20.598L24.996 20.668L15.98 25.932L7.622 21.16L9.085 20.303L15.966 24.25L22.119 20.644V20.645Z" fill="white"/>
<path d="M17.305 15.145V15.111L17.304 15.089L17.303 15.077L17.301 15.052V15.044L17.298 15.017V15.01L17.294 14.982V14.977L17.29 14.948V14.944L17.285 14.914L17.284 14.912L17.278 14.882L17.277 14.879L17.27 14.849V14.847C17.2681 14.8369 17.2658 14.8269 17.263 14.817V14.815L17.254 14.785V14.784L17.245 14.752C17.2397 14.7316 17.233 14.7115 17.225 14.692V14.691L17.213 14.661C17.2093 14.6508 17.2053 14.6408 17.201 14.631L17.188 14.601L17.175 14.573L17.161 14.543L17.147 14.515L17.131 14.487C17.1255 14.478 17.1202 14.469 17.115 14.46V14.459L17.099 14.433L17.098 14.432C17.0926 14.4235 17.0869 14.4151 17.081 14.407V14.405L17.064 14.381C17.064 14.381 17.064 14.379 17.062 14.379L17.045 14.355L17.043 14.353C17.037 14.345 17.033 14.337 17.026 14.329L17.025 14.327L17.006 14.304L17.004 14.302L16.986 14.28L16.984 14.278L16.964 14.257C16.9632 14.2561 16.9625 14.2551 16.962 14.254L16.943 14.233C16.9422 14.2321 16.9415 14.2311 16.941 14.23L16.922 14.21C16.9143 14.2023 16.9067 14.1946 16.899 14.187L16.896 14.184L16.876 14.164C16.8683 14.1573 16.8607 14.1506 16.853 14.144L16.85 14.141C16.8432 14.1345 16.8362 14.1281 16.829 14.122L16.826 14.119C16.8192 14.1131 16.8122 14.1074 16.805 14.102L16.802 14.1L16.78 14.082L16.777 14.08L16.754 14.063L16.751 14.061L16.728 14.044L16.725 14.042L16.702 14.026L16.699 14.025L16.675 14.009L16.673 14.007L16.648 13.992H16.646L16.62 13.976H16.618L16.591 13.96H16.59C16.2708 13.8252 15.9119 13.8191 15.5883 13.9429C15.2647 14.0667 15.0016 14.3109 14.8539 14.6243C14.7062 14.9377 14.6855 15.2961 14.7961 15.6244C14.9066 15.9528 15.1398 16.2257 15.447 16.386L14.867 19.038H17.061L16.476 16.388C16.978 16.178 17.305 15.688 17.305 15.145Z" fill="white"/>
</g>
<defs>
<clipPath id="clip0_16_1724">
<rect width="32" height="32" fill="white"/>
</clipPath>
</defs>
</svg>
