<svg width="32" height="32" viewBox="0 0 32 32" fill="none" xmlns="http://www.w3.org/2000/svg">
<g clip-path="url(#clip0_16_1820)">
<path d="M16 32C24.8366 32 32 24.8366 32 16C32 7.16344 24.8366 0 16 0C7.16344 0 0 7.16344 0 16C0 24.8366 7.16344 32 16 32Z" fill="#199248"/>
<path d="M16 4C9.373 4 4 9.373 4 16C4 22.627 9.373 28 16 28C22.627 28 28 22.627 28 16C28 12.8174 26.7357 9.76515 24.4853 7.51472C22.2348 5.26428 19.1826 4 16 4ZM18.743 26.236C17.3625 26.6039 15.9219 26.6888 14.5078 26.4856C13.0937 26.2824 11.7352 25.7954 10.5142 25.0538C9.29308 24.3122 8.23459 23.3313 7.40232 22.1701C6.57005 21.0089 5.9812 19.6914 5.67116 18.2968C5.36112 16.9022 5.3363 15.4593 5.5982 14.0549C5.86009 12.6504 6.40329 11.3134 7.19514 10.1243C7.98698 8.93521 9.01111 7.91849 10.206 7.13532C11.4008 6.35214 12.7417 5.81868 14.148 5.567C16.8364 5.09199 19.6044 5.67285 21.875 7.18851C24.1457 8.70417 25.7438 11.0377 26.3363 13.7027C26.9287 16.3676 26.4698 19.1584 25.0552 21.4934C23.6406 23.8283 21.3794 25.5272 18.743 26.236Z" fill="white"/>
<path d="M18.93 7.28701C18.93 7.80401 18.93 8.32001 18.95 8.83701C18.2584 8.56865 17.5384 8.38009 16.804 8.27501C16.774 7.80601 16.908 7.29101 16.771 6.84601C16.2478 6.80872 15.7229 6.80238 15.199 6.82701C15.173 7.30901 15.183 7.79301 15.199 8.27701C14.4643 8.38693 13.7444 8.57948 13.053 8.85101C13.068 8.32901 13.073 7.80801 13.066 7.28501C11.2406 7.89967 9.65408 9.07175 8.53022 10.636C7.40636 12.2003 6.80182 14.0779 6.80182 16.004C6.80182 17.9302 7.40636 19.8077 8.53022 21.372C9.65408 22.9363 11.2406 24.1084 13.066 24.723C13.066 24.211 13.061 23.701 13.051 23.191C13.7372 23.4596 14.4534 23.6439 15.184 23.74C15.184 24.209 15.184 24.678 15.156 25.142C15.716 25.222 16.284 25.222 16.844 25.142C16.8185 24.6801 16.8052 24.2176 16.804 23.755C17.535 23.6523 18.2526 23.4698 18.944 23.211C18.9281 23.7176 18.9281 24.2245 18.944 24.731C20.7687 24.115 22.3541 22.9419 23.4766 21.377C24.5992 19.8121 25.2024 17.9344 25.2012 16.0086C25.2 14.0827 24.5944 12.2058 23.4699 10.6423C22.3453 9.07886 20.7585 7.90774 18.933 7.29401L18.931 7.28701H18.93ZM20.3 21.222C19.092 22.317 17.376 22.576 15.8 22.553C14.417 22.553 12.953 22.178 11.954 21.177C11.424 20.665 11.124 19.981 10.855 19.302C11.821 19.052 12.818 18.968 13.791 18.76C13.8515 19.0542 13.9886 19.3272 14.1884 19.5514C14.3882 19.7757 14.6437 19.9432 14.929 20.037C15.812 20.313 16.906 20.352 17.642 19.722C18.164 19.289 18.179 18.342 17.532 18.018C16.015 17.234 14.125 17.5 12.691 16.508C10.716 15.263 10.57 11.961 12.503 10.617C13.981 9.58001 15.957 9.45101 17.671 9.86701C19.221 10.259 20.326 11.573 20.858 13.028C19.904 13.193 18.951 13.362 17.997 13.523C17.746 12.008 15.625 11.648 14.571 12.531C13.971 13.03 14.125 14.093 14.875 14.359C16.515 15.039 18.485 14.843 19.938 15.981C21.625 17.125 21.801 19.857 20.299 21.221L20.3 21.222Z" fill="white"/>
</g>
<defs>
<clipPath id="clip0_16_1820">
<rect width="32" height="32" fill="white"/>
</clipPath>
</defs>
</svg>
