<svg width="32" height="32" viewBox="0 0 32 32" fill="none" xmlns="http://www.w3.org/2000/svg">
<g clip-path="url(#clip0_16_1882)">
<path d="M16 32C24.8366 32 32 24.8366 32 16C32 7.16344 24.8366 0 16 0C7.16344 0 0 7.16344 0 16C0 24.8366 7.16344 32 16 32Z" fill="#E53431"/>
<path d="M12.117 5.31398C12.1599 5.28085 12.2128 5.26322 12.267 5.26398C12.3211 5.26398 12.3737 5.28152 12.417 5.31398L13.674 6.25598C13.7003 6.27574 13.7224 6.30048 13.7391 6.32879C13.7558 6.35711 13.7667 6.38843 13.7713 6.42097C13.7759 6.45352 13.7741 6.48666 13.7659 6.51848C13.7577 6.55031 13.7433 6.58021 13.7235 6.60648C13.7037 6.63274 13.679 6.65486 13.6507 6.67156C13.6224 6.68826 13.5911 6.69922 13.5585 6.70382C13.526 6.70841 13.4928 6.70656 13.461 6.69835C13.4292 6.69014 13.3993 6.67574 13.373 6.65598L12.267 5.82898L8.67001 8.52598L24.47 20.38C24.5013 20.4035 24.5266 20.4339 24.5441 20.4689C24.5616 20.5038 24.5707 20.5424 24.5707 20.5815C24.5707 20.6206 24.5616 20.6591 24.5441 20.6941C24.5266 20.7291 24.5013 20.7595 24.47 20.783L23.309 21.653C23.2557 21.6928 23.1888 21.7097 23.1229 21.7002C23.0571 21.6906 22.9978 21.6553 22.958 21.602C22.9182 21.5487 22.9012 21.4817 22.9108 21.4159C22.9204 21.3501 22.9557 21.2908 23.009 21.251L23.902 20.581L8.10101 8.72898C8.06959 8.70594 8.04404 8.67583 8.02643 8.64109C8.00882 8.60634 7.99965 8.56793 7.99965 8.52898C7.99965 8.49002 8.00882 8.45162 8.02643 8.41687C8.04404 8.38212 8.06959 8.35201 8.10101 8.32898L12.117 5.31498V5.31398ZM16.134 5.31398C16.1769 5.28076 16.2295 5.26257 16.2837 5.26221C16.3379 5.26185 16.3907 5.27934 16.434 5.31198L24.469 11.339C24.5113 11.3702 24.5424 11.4141 24.5579 11.4643C24.5733 11.5145 24.5723 11.5684 24.555 11.618C24.5387 11.668 24.507 11.7116 24.4645 11.7425C24.4219 11.7734 24.3706 11.79 24.318 11.79H20.301C20.247 11.7896 20.1944 11.7721 20.151 11.74L14.878 7.78598C14.8516 7.76621 14.8294 7.74144 14.8125 7.71308C14.7957 7.68472 14.7846 7.65333 14.78 7.62069C14.7753 7.58805 14.7771 7.5548 14.7852 7.52285C14.7934 7.4909 14.8077 7.46087 14.8275 7.43448C14.8473 7.40808 14.872 7.38584 14.9004 7.36901C14.9288 7.35219 14.9602 7.34112 14.9928 7.33643C15.0254 7.33174 15.0587 7.33352 15.0906 7.34168C15.1226 7.34984 15.1526 7.36421 15.179 7.38398L20.386 11.288H23.565L16.285 5.82798L11.245 9.60798C11.2186 9.62774 11.1886 9.64211 11.1566 9.65027C11.1247 9.65843 11.0914 9.66021 11.0588 9.65553C10.9929 9.64605 10.9334 9.61079 10.8935 9.55748C10.8536 9.50417 10.8365 9.43719 10.846 9.37127C10.8554 9.30535 10.8907 9.24589 10.944 9.20598L16.134 5.31398ZM9.21001 10.509C9.26357 10.4766 9.32726 10.4653 9.38868 10.4773C9.4501 10.4894 9.50486 10.5238 9.54229 10.5739C9.57972 10.6241 9.59714 10.6864 9.59118 10.7487C9.58521 10.811 9.55628 10.8688 9.51001 10.911L8.669 11.541L24.47 23.395C24.5014 23.4182 24.527 23.4485 24.5446 23.4834C24.5622 23.5183 24.5713 23.5569 24.5713 23.596C24.5713 23.6351 24.5622 23.6736 24.5446 23.7085C24.527 23.7434 24.5014 23.7737 24.47 23.797L20.453 26.81C20.4095 26.842 20.357 26.8592 20.303 26.8592C20.249 26.8592 20.1965 26.842 20.153 26.81L18.99 25.938C18.9367 25.8978 18.9015 25.8381 18.8923 25.772C18.883 25.7059 18.9003 25.6388 18.9405 25.5855C18.9807 25.5322 19.0404 25.497 19.1065 25.4877C19.1726 25.4784 19.2397 25.4958 19.293 25.536L20.303 26.293L23.903 23.593L8.098 11.742C8.06711 11.7184 8.04208 11.6879 8.02485 11.6531C8.00762 11.6182 7.99865 11.5799 7.99865 11.541C7.99865 11.5021 8.00762 11.4637 8.02485 11.4289C8.04208 11.394 8.06711 11.3636 8.098 11.34L9.20801 10.51L9.21001 10.509ZM8.25101 20.328V20.33H12.266C12.3202 20.3292 12.3731 20.3468 12.416 20.38L17.632 24.291C17.6584 24.3107 17.6807 24.3354 17.6975 24.3637C17.7144 24.392 17.7255 24.4233 17.7302 24.4559C17.7349 24.4885 17.7332 24.5217 17.7251 24.5536C17.717 24.5856 17.7027 24.6156 17.683 24.642C17.6633 24.6684 17.6386 24.6906 17.6103 24.7075C17.582 24.7243 17.5507 24.7354 17.5181 24.7402C17.4855 24.7449 17.4523 24.7432 17.4203 24.7351C17.3884 24.727 17.3584 24.7127 17.332 24.693L12.186 20.832H9.00501L16.286 26.292L21.316 22.52C21.3424 22.5001 21.3724 22.4857 21.4044 22.4775C21.4364 22.4693 21.4697 22.4674 21.5024 22.4721C21.535 22.4767 21.5665 22.4878 21.5949 22.5046C21.6233 22.5214 21.6482 22.5436 21.668 22.57C21.6878 22.5964 21.7023 22.6264 21.7105 22.6584C21.7187 22.6904 21.7206 22.7236 21.7159 22.7563C21.7113 22.789 21.7002 22.8205 21.6834 22.8489C21.6666 22.8773 21.6444 22.9021 21.618 22.922L16.437 26.806C16.3937 26.8384 16.3411 26.856 16.287 26.856C16.2325 26.8565 16.1794 26.8389 16.136 26.806L8.09901 20.781C8.05945 20.7805 8.02057 20.7707 7.98553 20.7523C7.9505 20.734 7.9203 20.7076 7.89739 20.6753C7.87449 20.6431 7.85953 20.6059 7.85375 20.5667C7.84796 20.5276 7.8515 20.4877 7.86408 20.4501C7.87667 20.4126 7.89793 20.3787 7.92615 20.3509C7.95437 20.3232 7.98875 20.3026 8.02647 20.2906C8.06419 20.2787 8.10419 20.2759 8.14321 20.2824C8.18223 20.2889 8.21917 20.3045 8.25101 20.328Z" fill="white"/>
</g>
<defs>
<clipPath id="clip0_16_1882">
<rect width="32" height="32" fill="white"/>
</clipPath>
</defs>
</svg>
