<svg width="32" height="32" viewBox="0 0 32 32" fill="none" xmlns="http://www.w3.org/2000/svg">
<g clip-path="url(#clip0_16_1890)">
<path d="M16 32C24.8366 32 32 24.8366 32 16C32 7.16344 24.8366 0 16 0C7.16344 0 0 7.16344 0 16C0 24.8366 7.16344 32 16 32Z" fill="#D65892"/>
<path fill-rule="evenodd" clip-rule="evenodd" d="M13.794 7.01997C15.656 7.17697 18.121 8.19997 20.496 9.93197C22.862 11.674 24.598 13.747 25.336 15.498C25.876 16.769 25.894 17.894 25.354 18.668L21.648 23.975C21.108 24.749 20.055 25.09 18.715 24.98C16.853 24.814 14.379 23.8 12.013 22.059C9.638 20.326 7.911 18.253 7.163 16.502C6.624 15.231 6.606 14.106 7.146 13.332L10.861 8.02497C11.401 7.25097 12.445 6.90997 13.794 7.01997ZM21.582 19.468C21.5472 19.4624 21.5116 19.4707 21.4829 19.4912C21.4542 19.5116 21.4347 19.5426 21.4287 19.5773C21.4226 19.612 21.4305 19.6477 21.4506 19.6766C21.4707 19.7056 21.5014 19.7255 21.536 19.732C22.268 19.862 22.923 19.885 23.47 19.796C23.5032 19.7884 23.5324 19.7685 23.5514 19.7402C23.5704 19.7119 23.578 19.6774 23.5725 19.6438C23.567 19.6101 23.5489 19.5798 23.5219 19.5591C23.4949 19.5383 23.4609 19.5286 23.427 19.532C22.913 19.616 22.287 19.593 21.582 19.468ZM20.391 19.321C20.3861 19.3379 20.3846 19.3556 20.3866 19.3732C20.3886 19.3907 20.394 19.4076 20.4026 19.4231C20.4111 19.4385 20.4226 19.4521 20.4364 19.463C20.4502 19.474 20.466 19.4821 20.483 19.487C20.659 19.537 20.833 19.582 21.004 19.622C21.0371 19.6264 21.0706 19.6183 21.0981 19.5994C21.1255 19.5804 21.1449 19.5518 21.1524 19.5193C21.1599 19.4868 21.155 19.4526 21.1387 19.4235C21.1223 19.3944 21.0957 19.3725 21.064 19.362C20.898 19.322 20.728 19.278 20.555 19.229C20.5211 19.2194 20.4847 19.2238 20.454 19.241C20.4232 19.2583 20.4006 19.287 20.391 19.321ZM11.374 8.40297L11.356 8.43897C10.951 9.05697 11.041 9.93197 11.464 10.927C12.174 12.604 13.839 14.567 16.097 16.226C18.355 17.884 20.703 18.87 22.475 19.018C23.537 19.101 24.373 18.908 24.815 18.327L24.841 18.281C25.273 17.672 25.183 16.769 24.761 15.756C24.05 14.088 22.385 12.126 20.118 10.466C17.86 8.80797 15.512 7.82197 13.74 7.67497C12.66 7.58197 11.806 7.78497 11.374 8.40297ZM10.63 10.851C10.5961 10.8612 10.5677 10.8843 10.5508 10.9154C10.5339 10.9465 10.5301 10.983 10.54 11.017C10.996 12.581 12.154 14.07 13.975 15.747L14.18 15.935C14.321 16.0628 14.463 16.1895 14.606 16.315C14.662 16.363 14.746 16.357 14.794 16.301C14.8173 16.2742 14.8291 16.2392 14.8266 16.2038C14.8242 16.1683 14.8078 16.1353 14.781 16.112C14.671 16.017 14.565 15.922 14.459 15.827L14.252 15.639C12.409 13.956 11.242 12.473 10.795 10.942C10.7902 10.9251 10.7821 10.9094 10.7712 10.8958C10.7602 10.8821 10.7467 10.8707 10.7314 10.8622C10.7161 10.8538 10.6992 10.8484 10.6818 10.8465C10.6644 10.8446 10.6468 10.8461 10.63 10.851ZM15.881 10.568C16.763 10.651 17.941 11.139 19.066 11.968C20.199 12.798 21.036 13.784 21.386 14.622C21.594 15.092 21.648 15.507 21.441 15.792C21.243 16.078 20.838 16.162 20.343 16.115C19.453 16.041 18.283 15.544 17.15 14.715C16.016 13.885 15.18 12.908 14.829 12.07C14.631 11.6 14.577 11.185 14.775 10.9C14.973 10.614 15.377 10.531 15.881 10.568ZM10.484 9.78997C10.4486 9.79153 10.4153 9.80703 10.3913 9.83307C10.3673 9.85911 10.3546 9.89359 10.356 9.92897C10.364 10.111 10.383 10.294 10.415 10.479C10.418 10.4962 10.4244 10.5126 10.4338 10.5274C10.4431 10.5421 10.4553 10.5548 10.4696 10.5649C10.4839 10.5749 10.5001 10.582 10.5171 10.5858C10.5342 10.5896 10.5518 10.59 10.569 10.587C10.5862 10.584 10.6026 10.5776 10.6174 10.5682C10.6321 10.5588 10.6449 10.5466 10.6549 10.5323C10.6649 10.518 10.672 10.5019 10.6758 10.4849C10.6796 10.4678 10.68 10.4502 10.677 10.433C10.6476 10.2627 10.6292 10.0906 10.622 9.91797C10.6214 9.9005 10.6173 9.88333 10.61 9.86744C10.6027 9.85155 10.5924 9.83725 10.5795 9.82536C10.5667 9.81347 10.5517 9.80423 10.5353 9.79816C10.5189 9.79208 10.5015 9.7893 10.484 9.78997Z" fill="white"/>
</g>
<defs>
<clipPath id="clip0_16_1890">
<rect width="32" height="32" fill="white"/>
</clipPath>
</defs>
</svg>
