<svg width="32" height="32" viewBox="0 0 32 32" fill="none" xmlns="http://www.w3.org/2000/svg">
<g clip-path="url(#clip0_16_1962)">
<path d="M16 32C24.8366 32 32 24.8366 32 16C32 7.16344 24.8366 0 16 0C7.16344 0 0 7.16344 0 16C0 24.8366 7.16344 32 16 32Z" fill="#3058A6"/>
<path d="M15.995 27.228C9.79701 27.228 4.77201 22.203 4.77201 16.005C4.77201 9.80702 9.79701 4.78202 15.995 4.78202C22.193 4.78202 27.218 9.80702 27.218 16.005C27.218 22.203 22.193 27.228 15.995 27.228ZM15.995 4.06702C9.41201 4.06702 4.05701 9.42202 4.05701 16.005C4.05701 22.588 9.41201 27.943 15.995 27.943C22.578 27.943 27.933 22.588 27.933 16.005C27.933 9.42202 22.578 4.06702 15.995 4.06702Z" fill="white"/>
<path fill-rule="evenodd" clip-rule="evenodd" d="M20.199 20.275L19.576 22.974L19.426 23.627H18.756L15.311 23.625H15.297C13.916 23.602 12.832 23.235 12.121 22.587C12.735 23.67 14.039 24.297 15.859 24.327H15.873L19.317 24.329H19.987L20.138 23.676L20.761 20.977L20.275 19.946L20.199 20.275ZM19.116 8.70403L18.624 7.68103L18.554 8.00103L18.087 10.128H18.803L19.116 8.70403ZM21.603 11.165L20.983 13.79L20.829 14.438H17.096L16.148 18.766C16.128 18.89 16.116 19.016 16.116 19.086C16.116 19.147 16.123 19.186 16.129 19.205C16.2003 19.2317 16.2759 19.2446 16.352 19.243H16.76L17.658 15.141H21.391L21.544 14.492L22.164 11.867L21.682 10.831L21.602 11.165H21.603ZM12.341 14.438H9.74002L10.636 15.141H12.188L12.341 14.438Z" fill="white"/>
<path fill-rule="evenodd" clip-rule="evenodd" d="M16.434 20.086H16.339C15.615 20.067 15.273 19.69 15.273 19.086C15.273 18.942 15.297 18.751 15.321 18.608L16.419 13.596H20.163L20.783 10.971H17.039L17.731 7.82104H14.677L13.984 10.971H10.67L10.074 13.596H13.388L12.098 19.491C12.028 19.777 12.003 20.111 12.003 20.278C12.003 21.96 13.33 22.75 15.311 22.783L18.755 22.784L19.378 20.086H16.434Z" fill="white"/>
</g>
<defs>
<clipPath id="clip0_16_1962">
<rect width="32" height="32" fill="white"/>
</clipPath>
</defs>
</svg>
