<svg width="32" height="32" viewBox="0 0 32 32" fill="none" xmlns="http://www.w3.org/2000/svg">
<g clip-path="url(#clip0_16_2041)">
<path d="M16 32C24.8366 32 32 24.8366 32 16C32 7.16344 24.8366 0 16 0C7.16344 0 0 7.16344 0 16C0 24.8366 7.16344 32 16 32Z" fill="#15BDFF"/>
<path d="M14.738 24.734L7.04 9.046C7.01193 8.98821 6.99898 8.92424 7.00235 8.86008C7.00571 8.79592 7.02529 8.73367 7.05925 8.67913C7.09321 8.62459 7.14045 8.57955 7.19654 8.54823C7.25263 8.5169 7.31575 8.50031 7.38 8.5H10.048C10.191 8.5 10.325 8.58 10.388 8.706L16.01 20.087C16.51 21.107 17.961 21.107 18.462 20.087L24.066 8.715C24.0983 8.65277 24.1471 8.60062 24.2071 8.56429C24.2671 8.52795 24.3359 8.50882 24.406 8.509H24.738C24.935 8.509 25.06 8.715 24.971 8.885L17.191 24.735C16.69 25.755 15.24 25.755 14.738 24.735V24.734Z" fill="white"/>
</g>
<defs>
<clipPath id="clip0_16_2041">
<rect width="32" height="32" fill="white"/>
</clipPath>
</defs>
</svg>
