<svg width="32" height="32" viewBox="0 0 32 32" fill="none" xmlns="http://www.w3.org/2000/svg">
<g clip-path="url(#clip0_16_2069)">
<path d="M16 32C24.8366 32 32 24.8366 32 16C32 7.16344 24.8366 0 16 0C7.16344 0 0 7.16344 0 16C0 24.8366 7.16344 32 16 32Z" fill="#048657"/>
<path d="M2.632 16.57L4.582 14.349H11.52L15.783 19.787L26.938 4.33398C27.6228 4.95198 28.2457 5.63521 28.798 6.37398C29.3736 7.13969 29.8746 7.95876 30.294 8.81998L16.599 27.763C16.34 28.035 16.068 28.171 15.783 28.171C15.497 28.171 15.21 28.035 14.921 27.763L6.26 16.569H2.632V16.57Z" fill="white"/>
</g>
<defs>
<clipPath id="clip0_16_2069">
<rect width="32" height="32" fill="white"/>
</clipPath>
</defs>
</svg>
