<svg width="32" height="32" viewBox="0 0 32 32" fill="none" xmlns="http://www.w3.org/2000/svg">
<g clip-path="url(#clip0_16_2105)">
<path d="M16 32C24.8366 32 32 24.8366 32 16C32 7.16344 24.8366 0 16 0C7.16344 0 0 7.16344 0 16C0 24.8366 7.16344 32 16 32Z" fill="#5783CB"/>
<path d="M15.24 4H16.48C19.1876 4.13033 21.7638 5.20609 23.76 7.04C24.1 7.26 24.1 7.8 23.7 7.94C23.36 8.02 23.1 7.72 22.84 7.54C20.6296 5.85672 17.853 5.0955 15.0932 5.41623C12.3335 5.73696 9.80541 7.11467 8.04 9.26C6.5985 11.0329 5.77468 13.2276 5.69352 15.5111C5.61237 17.7947 6.27833 20.0423 7.59034 21.9131C8.90235 23.7838 10.7888 25.1755 12.9634 25.877C15.138 26.5785 17.4821 26.5514 19.64 25.8C21.4051 25.1891 22.9815 24.1309 24.2154 22.7288C25.4493 21.3266 26.2985 19.6284 26.68 17.8C26.856 17.071 26.97 16.328 27.02 15.58C27.0328 15.4704 27.0881 15.3702 27.1739 15.3009C27.2597 15.2315 27.3693 15.1986 27.4791 15.209C27.589 15.2195 27.6903 15.2725 27.7615 15.3568C27.8327 15.4411 27.8681 15.55 27.86 15.66L27.82 16.9C27.6644 19.7919 26.4382 22.5225 24.38 24.56C22.2929 26.629 19.5152 27.8541 16.58 28H15.4C12.4185 27.8493 9.59969 26.5945 7.49243 24.4798C5.38518 22.3652 4.14025 19.542 4 16.56V15.44C4.1454 12.4868 5.37062 9.68998 7.44283 7.5809C9.51505 5.47181 12.2899 4.19746 15.24 4Z" fill="white"/>
<path d="M25 10.22C25.8 9.34001 27.46 9.82001 27.64 11C27.9 12.06 26.88 12.96 25.84 12.88C24.46 14.28 23.36 15.94 22.42 17.68C22.04 18.2 22.52 18.88 22.22 19.42C21.86 20.48 20.3 20.7 19.62 19.82C19.12 19.26 19.26 18.48 19.52 17.86C19.1394 17.07 18.6328 16.3473 18.02 15.72L17.42 15.74C16.1065 17.1874 15.0208 18.8262 14.2 20.6C14.34 21.14 14.44 21.78 14.06 22.26C13.56 23.08 12.24 23.16 11.62 22.4C11.16 21.88 11.22 21.14 11.46 20.52C10.7695 18.6423 9.78381 16.8869 8.54 15.32C7.76 15.28 6.94 14.82 6.84 14C6.58 12.88 7.86 11.8 8.92 12.3C9.86 12.64 10.12 13.84 9.66 14.66C10.4156 16.5776 11.4759 18.3605 12.8 19.94C14.2393 18.5134 15.4112 16.8402 16.26 15C16.1 14.46 16 13.84 16.36 13.34C16.9 12.46 18.34 12.44 18.9 13.32C19.32 13.86 19.18 14.58 18.94 15.16C19.3113 15.9516 19.8039 16.6804 20.4 17.32L21 17.28C22.46 15.74 23.8 14.04 24.7 12.1C24.6 11.46 24.48 10.7 25.02 10.22H25Z" fill="white"/>
</g>
<defs>
<clipPath id="clip0_16_2105">
<rect width="32" height="32" fill="white"/>
</clipPath>
</defs>
</svg>
