<svg width="32" height="32" viewBox="0 0 32 32" fill="none" xmlns="http://www.w3.org/2000/svg">
<g clip-path="url(#clip0_16_2118)">
<path d="M16 32C24.8366 32 32 24.8366 32 16C32 7.16344 24.8366 0 16 0C7.16344 0 0 7.16344 0 16C0 24.8366 7.16344 32 16 32Z" fill="#FFE600"/>
<path fill-rule="evenodd" clip-rule="evenodd" d="M3.993 5.42502C4.78419 4.52734 5.67301 3.72069 6.643 3.02002L11.095 18.938L13.068 10.5H16.808L18.78 18.938L21.117 10.5H24.866L24.901 10.65L28.975 25.364C28.2366 26.3857 27.3808 27.3171 26.425 28.139L22.988 15.729L21.028 22.807L20.993 22.957H16.807L14.938 16.025L13.068 22.957H8.882L8.847 22.807L3.993 5.42502Z" fill="white"/>
</g>
<defs>
<clipPath id="clip0_16_2118">
<rect width="32" height="32" fill="white"/>
</clipPath>
</defs>
</svg>
