<svg width="32" height="32" viewBox="0 0 32 32" fill="none" xmlns="http://www.w3.org/2000/svg">
<g clip-path="url(#clip0_16_2197)">
<path d="M16 32C24.8366 32 32 24.8366 32 16C32 7.16344 24.8366 0 16 0C7.16344 0 0 7.16344 0 16C0 24.8366 7.16344 32 16 32Z" fill="#4FA784"/>
<path fill-rule="evenodd" clip-rule="evenodd" d="M25.575 12.846L17.465 10.522L14.691 15.247L11.469 11.51L12.929 11.322L14.434 13.09L16.104 10.131L8.75401 8.02404C8.65527 7.99477 8.55056 7.99204 8.45042 8.01613C8.35029 8.04023 8.25827 8.09028 8.18365 8.16126C8.10902 8.23224 8.05441 8.32163 8.02534 8.42043C7.99626 8.51923 7.99373 8.62395 8.01801 8.72404L11.274 21.8L14.771 15.912L17.993 19.649L16.533 19.837L15.029 18.069L11.719 23.586L12.209 25.556C12.2345 25.6559 12.2857 25.7474 12.3576 25.8214C12.4295 25.8953 12.5195 25.9491 12.6186 25.9775C12.7178 26.0058 12.8226 26.0076 12.9227 25.9828C13.0228 25.958 13.1146 25.9074 13.189 25.836L25.819 13.826C25.8936 13.7554 25.9481 13.6662 25.9769 13.5676C26.0057 13.469 26.0078 13.3645 25.983 13.2648C25.9581 13.1652 25.9073 13.0739 25.8356 13.0003C25.7639 12.9267 25.674 12.8735 25.575 12.846Z" fill="white"/>
</g>
<defs>
<clipPath id="clip0_16_2197">
<rect width="32" height="32" fill="white"/>
</clipPath>
</defs>
</svg>
