<svg width="32" height="32" viewBox="0 0 32 32" fill="none" xmlns="http://www.w3.org/2000/svg">
<g clip-path="url(#clip0_16_2205)">
<path d="M16 32C24.8366 32 32 24.8366 32 16C32 7.16344 24.8366 0 16 0C7.16344 0 0 7.16344 0 16C0 24.8366 7.16344 32 16 32Z" fill="#7543E3"/>
<path fill-rule="evenodd" clip-rule="evenodd" d="M11.896 12.56C11.86 12.865 11.826 13.186 11.804 13.507C11.268 13.893 10.767 14.287 10.302 14.681C10.062 14.885 9.83 15.089 9.612 15.301C7.891 13.485 7.157 11.852 7.63 11.014C8.046 10.27 9.442 10.059 11.402 10.46C11.48 10.11 11.557 9.775 11.649 9.454C9.273 8.958 7.461 9.286 6.777 10.504C6.59309 10.8307 6.49826 11.2001 6.502 11.575V11.612C6.516 13.339 8.159 15.65 10.902 17.83C11.183 18.056 11.487 18.282 11.797 18.508C11.8719 19.4651 12.0061 20.4166 12.199 21.357C9.823 21.992 8.095 21.832 7.623 20.993C7.207 20.25 7.729 18.887 9.04 17.334L8.356 16.59C6.734 18.486 6.086 20.286 6.77 21.51C7.25 22.371 8.286 22.78 9.682 22.78C11.085 22.78 12.847 22.364 14.779 21.555C15.1759 21.3879 15.5683 21.2105 15.956 21.023L16 21C16.614 21.291 17.22 21.554 17.82 21.78C18.08 21.882 18.341 21.97 18.595 22.057C17.939 24.506 16.938 25.978 16 25.978C15.168 25.978 14.287 24.827 13.645 22.858C13.3294 22.9725 13.0095 23.0749 12.686 23.165C13.461 25.542 14.638 27 16 27C17.981 27 19.56 23.924 20.104 19.44C20.139 19.135 20.167 18.814 20.195 18.5C20.752 18.1 21.275 17.684 21.761 17.261C21.9722 17.079 22.1789 16.892 22.381 16.7C24.109 18.508 24.841 20.148 24.369 20.986C23.982 21.679 22.705 21.912 20.957 21.613L20.604 21.547C20.5312 21.8799 20.4491 22.2107 20.358 22.539C20.506 22.568 20.654 22.597 20.795 22.619C21.3047 22.7107 21.8212 22.7595 22.339 22.765C23.756 22.765 24.764 22.335 25.229 21.504C25.85 20.396 25.399 18.784 23.953 16.977C23.206 16.037 22.233 15.089 21.105 14.185C20.815 13.952 20.513 13.725 20.21 13.5C20.1572 12.8207 20.0725 12.1443 19.956 11.473C19.906 11.189 19.857 10.912 19.801 10.643C20.202 10.533 20.591 10.445 20.964 10.38C22.713 10.08 23.989 10.314 24.377 11.007C24.785 11.736 24.285 13.07 23.016 14.593C23.262 14.841 23.488 15.089 23.7 15.329C23.7885 15.2281 23.8729 15.1237 23.953 15.016C25.392 13.208 25.85 11.597 25.23 10.489C24.61 9.381 23.037 8.98 20.802 9.366C19.765 9.541 18.63 9.884 17.452 10.351C17.403 10.372 17.361 10.387 17.312 10.409C16.917 10.569 16.522 10.744 16.127 10.934C16.092 10.948 16.057 10.97 16.021 10.984C15.4237 10.694 14.8145 10.4291 14.195 10.19C13.935 10.088 13.673 10 13.42 9.913C14.074 7.471 15.076 6 16.013 6C16.845 6 17.733 7.159 18.375 9.127C18.7 9.017 19.017 8.916 19.335 8.821C18.536 6.465 17.36 5 15.991 5C14.017 5 12.431 8.076 11.895 12.56H11.896ZM18.199 12.188C18.185 12.173 18.164 12.166 18.149 12.158C17.819 11.962 17.479 11.772 17.156 11.59C17.1826 11.5747 17.2107 11.5623 17.24 11.553C17.642 11.378 18.044 11.218 18.432 11.08C18.566 11.028 18.7 10.985 18.827 10.941C18.883 11.211 18.932 11.481 18.982 11.765C19.038 12.093 19.08 12.428 19.122 12.771C18.817 12.5725 18.5093 12.3781 18.199 12.188ZM13.003 11.801C13.052 11.502 13.101 11.218 13.165 10.941C13.7335 11.1329 14.2934 11.3494 14.843 11.59C14.511 11.772 14.173 11.962 13.842 12.158C13.826 12.1653 13.8114 12.1755 13.799 12.188C13.482 12.378 13.172 12.574 12.869 12.771C12.911 12.435 12.953 12.115 13.003 11.801ZM14.335 18.974C14.0987 18.8367 13.8659 18.6933 13.637 18.544C13.3338 18.3521 13.0353 18.1527 12.742 17.946C12.6987 17.3006 12.6774 16.6539 12.678 16.007C12.678 15.657 12.685 15.315 12.699 14.979C12.713 14.666 12.728 14.367 12.749 14.069C13.249 13.719 13.779 13.376 14.335 13.04C14.547 12.91 14.765 12.785 14.977 12.669C15.315 12.479 15.654 12.304 15.992 12.129C16.5555 12.4118 17.1083 12.7157 17.649 13.04C17.889 13.186 18.121 13.325 18.347 13.47C18.657 13.667 18.953 13.864 19.243 14.068C19.308 15.0556 19.322 16.0459 19.285 17.035C19.271 17.341 19.257 17.647 19.235 17.946C18.735 18.296 18.206 18.639 17.649 18.974C17.501 19.062 17.36 19.149 17.212 19.229C16.838 19.448 16.465 19.645 16.098 19.834C16.063 19.849 16.028 19.871 15.992 19.885C15.4291 19.6013 14.8764 19.2978 14.335 18.975V18.974ZM10.852 16.474C10.669 16.321 10.5 16.16 10.33 16.007C10.563 15.796 10.803 15.577 11.057 15.366C11.268 15.191 11.487 15.009 11.719 14.834C11.705 15.125 11.699 15.424 11.699 15.723V16.007C11.699 16.408 11.705 16.795 11.719 17.181C11.4214 16.9561 11.1322 16.7203 10.852 16.474ZM20.293 16.299V16.007C20.293 15.607 20.286 15.22 20.272 14.834C20.7532 15.2004 21.2146 15.5923 21.654 16.008C21.471 16.175 21.28 16.35 21.083 16.518C21.055 16.539 21.026 16.568 20.998 16.59C20.766 16.787 20.518 16.991 20.265 17.188C20.279 16.897 20.293 16.598 20.293 16.298V16.299ZM13.01 20.249C12.9551 19.9152 12.9081 19.5801 12.869 19.244C13.172 19.441 13.475 19.63 13.792 19.82C13.806 19.834 13.828 19.842 13.842 19.849C14.173 20.046 14.504 20.235 14.842 20.417C14.842 20.417 14.836 20.417 14.836 20.425C14.493 20.5725 14.1473 20.7136 13.799 20.848C13.75 20.869 13.701 20.884 13.651 20.906C13.489 20.964 13.327 21.023 13.165 21.074C13.1076 20.8004 13.0559 20.5257 13.01 20.25V20.249ZM18.037 20.789C17.7363 20.6727 17.4376 20.5514 17.141 20.425L17.268 20.359C17.558 20.199 17.846 20.031 18.143 19.863C18.4691 19.6618 18.7934 19.4578 19.116 19.251C19.073 19.579 19.031 19.907 18.982 20.213C18.932 20.513 18.876 20.797 18.819 21.081C18.566 20.986 18.305 20.891 18.037 20.789ZM14.723 16.007C14.723 15.286 15.294 14.695 15.993 14.695C16.69 14.695 17.261 15.285 17.261 16.007C17.261 16.729 16.691 17.319 15.992 17.319C15.294 17.319 14.723 16.729 14.723 16.007Z" fill="white"/>
</g>
<defs>
<clipPath id="clip0_16_2205">
<rect width="32" height="32" fill="white"/>
</clipPath>
</defs>
</svg>
