<svg width="32" height="32" viewBox="0 0 32 32" fill="none" xmlns="http://www.w3.org/2000/svg">
<g clip-path="url(#clip0_16_2281)">
<path d="M16 32C24.8366 32 32 24.8366 32 16C32 7.16344 24.8366 0 16 0C7.16344 0 0 7.16344 0 16C0 24.8366 7.16344 32 16 32Z" fill="#00004D"/>
<path d="M15.505 6.27405C15.413 6.66405 15.137 7.89405 15.011 8.71805C14.961 9.05605 14.751 9.50705 15.337 9.75005C15.203 9.77605 15.162 9.79305 15.12 9.78405C14.702 9.73205 14.275 9.67205 13.857 9.62005C13.765 9.61105 13.648 9.59405 13.564 9.63705C13.004 9.93205 12.754 10.634 13.037 11.232C13.197 11.57 13.247 11.882 13.18 12.238C13.1715 12.3303 13.1888 12.4231 13.23 12.506C13.556 13.304 13.615 14.101 13.355 14.933C13.313 15.063 13.339 15.22 13.347 15.358C13.364 15.627 13.38 15.896 13.405 16.164C12.995 15.835 12.545 15.54 12.201 15.141C12.03 14.9401 11.9005 14.7073 11.8202 14.456C11.7399 14.2047 11.7102 13.9399 11.733 13.677C11.741 13.573 11.658 13.451 11.591 13.356C11.398 13.07 11.173 12.81 11.014 12.506C10.788 12.073 10.512 11.891 10.06 12.03C9.835 12.099 9.625 12.246 9.433 12.394C9.266 12.514 9.123 12.671 8.973 12.81C8.956 12.792 8.931 12.775 8.915 12.758C8.94 12.697 8.948 12.628 8.982 12.567C9.216 12.134 9.207 12.142 8.882 11.778C8.254 11.076 7.71 10.322 7.476 9.36805C7.359 8.89205 7.216 8.42305 7.092 7.95505C6.464 8.73505 6.381 11.545 7 12.654C6.807 11.674 6.615 10.747 6.832 9.79305C6.874 10.01 6.899 10.218 6.908 10.435C6.941 11.206 7.125 11.935 7.451 12.619C7.518 12.766 7.711 12.853 7.853 12.957C7.903 12.992 7.97 13.009 8.028 13.035C8.02 13.07 8.02 13.105 8.011 13.13C7.702 13.113 7.401 13.078 7.091 13.07C6.891 13.061 6.657 13.009 6.498 13.096C6.288 13.208 6.121 13.426 6.004 13.642C5.971 13.702 6.138 13.945 6.264 14.041C6.598 14.292 6.824 14.569 6.774 15.037C6.765 15.15 6.891 15.35 7 15.393C7.3 15.506 7.384 15.731 7.434 16.017C7.468 16.199 7.493 16.433 7.61 16.537C7.986 16.884 8.103 17.3 8.112 17.803C8.12 18.123 8.287 18.453 8.246 18.765C8.212 19.034 8.262 19.233 8.371 19.389H8.363L8.388 19.415C8.455 19.519 8.547 19.605 8.655 19.684L8.873 19.892C8.873 19.892 9.249 20.299 9.257 20.698C9.266 21.097 9.232 21.148 9.349 21.504C9.467 21.851 9.625 22.128 9.676 22.423C9.726 22.7181 9.617 22.804 9.793 22.995C9.968 23.185 10.161 23.3151 10.361 23.5331C10.554 23.7581 10.83 23.8361 11.014 24.0271C11.198 24.2171 11.49 24.573 11.716 24.798C11.833 24.92 11.992 25.015 12.109 25.084C12.143 25.119 12.159 25.136 12.151 25.154C11.992 25.5 12.318 25.4921 12.444 25.604C12.661 25.795 12.971 25.916 13.129 26.15C13.414 26.575 13.782 26.7921 14.242 26.9221C14.284 26.9311 14.334 26.9391 14.35 26.965C14.409 27.035 14.45 27.121 14.501 27.199C14.484 27.225 14.459 27.2511 14.442 27.2771C14.902 27.4421 15.362 27.615 15.822 27.771C15.914 27.806 16.032 27.806 16.115 27.781C16.5 27.651 16.885 27.511 17.269 27.373C17.344 27.347 17.461 27.269 17.453 27.234C17.395 26.957 17.62 27 17.746 26.931C18.046 26.766 18.398 26.645 18.624 26.411C18.9 26.116 19.151 25.812 19.519 25.613C19.669 25.526 19.97 25.492 19.819 25.163C19.811 25.145 19.895 25.076 19.937 25.0331C19.995 24.9801 20.062 24.937 20.146 24.868C20.204 24.8421 20.271 24.798 20.38 24.72C20.7201 24.4407 21.0363 24.1333 21.325 23.801C21.525 23.55 21.852 23.238 21.852 23.238C21.852 23.238 21.642 22.744 21.777 22.31L22.487 21.782C22.638 21.461 22.68 21.339 22.847 21.01C23.006 20.68 23.047 20.048 23.274 19.796C23.474 19.58 23.717 19.406 23.708 19.268C23.7606 19.1208 23.7777 18.9632 23.758 18.808C23.734 18.583 23.808 18.348 23.834 18.123C23.851 17.933 23.834 17.742 23.884 17.56C23.968 17.265 24.026 16.919 24.21 16.71C24.41 16.485 24.545 16.286 24.57 15.982C24.595 15.722 24.695 15.514 24.955 15.392C25.08 15.332 25.205 15.124 25.205 14.985C25.197 14.595 25.322 14.318 25.64 14.11C25.732 14.05 25.8 13.945 25.891 13.876C26.041 13.763 26.017 13.633 25.933 13.486C25.716 13.096 25.389 12.957 24.955 13.036C24.628 13.096 24.135 13.13 23.959 13.13C23.784 13.13 23.909 13 23.909 13C24.528 12.983 24.603 12.472 24.745 12.056C24.863 11.709 24.929 11.345 24.988 10.981C25.047 10.634 25.047 10.469 25.113 9.93105C25.18 9.39405 25.339 10.972 25.088 12.264C25.59 11.501 25.431 8.73505 24.871 7.92105C24.854 7.93805 24.837 7.94705 24.837 7.96405C24.812 8.06805 24.796 8.17205 24.771 8.27605C24.528 9.60205 24.026 10.79 23.098 11.761C22.755 12.116 22.772 12.125 23.006 12.584C23.031 12.628 23.031 12.688 23.039 12.749C22.839 12.654 22.689 12.515 22.538 12.385C22.4062 12.2577 22.2501 12.1583 22.0789 12.0929C21.9077 12.0274 21.7251 11.9972 21.542 12.004C21.142 12.004 21.032 12.298 20.915 12.584C20.698 13.104 20.188 13.425 20.171 14.119C20.146 15.133 19.243 15.644 18.657 16.32C18.649 16.33 18.624 16.312 18.59 16.312C18.582 16.277 18.557 16.234 18.565 16.199C18.565 15.575 18.733 14.942 18.457 14.344C18.44 14.309 18.448 14.257 18.457 14.223C18.565 13.347 18.666 12.48 18.783 11.613C18.799 11.501 18.858 11.397 18.908 11.293C19.201 10.669 18.983 9.95805 18.39 9.64605C18.3168 9.61283 18.2357 9.60071 18.156 9.61105C17.829 9.65405 17.512 9.71505 17.194 9.75805C17.034 9.78405 16.868 9.78405 16.709 9.79305C16.7 9.76705 16.692 9.74105 16.684 9.72305C16.951 9.63705 17.085 9.47305 17.027 9.17805L16.424 6.17805C16.408 6.10005 16.391 5.71005 16.483 5.91005C16.575 6.11805 16.868 7.01005 17.035 7.57405C17.194 8.12005 17.319 8.68405 17.461 9.23805C17.227 7.68705 16.868 6.17805 15.981 4.80005C15.7449 5.09588 15.556 5.42646 15.421 5.78005C15.2058 6.41104 15.0051 7.04687 14.819 7.68705C14.677 8.18105 14.309 9.15205 14.468 9.17705C14.626 9.20405 15.404 6.29105 15.454 6.08305C15.504 5.87505 15.597 5.88305 15.504 6.27305L15.505 6.27405Z" fill="white"/>
</g>
<defs>
<clipPath id="clip0_16_2281">
<rect width="32" height="32" fill="white"/>
</clipPath>
</defs>
</svg>
