<svg width="32" height="32" viewBox="0 0 32 32" fill="none" xmlns="http://www.w3.org/2000/svg">
<g clip-path="url(#clip0_16_2290)">
<path d="M16 32C7.163 32 0 24.837 0 16C0 7.163 7.163 0 16 0C24.837 0 32 7.163 32 16C32 24.837 24.837 32 16 32ZM16 27.258C22.218 27.258 27.258 22.218 27.258 16C27.258 9.782 22.218 4.742 16 4.742C9.782 4.742 4.742 9.782 4.742 16C4.742 22.218 9.782 27.258 16 27.258ZM16 26.596C10.148 26.596 5.404 21.852 5.404 16C5.404 10.148 10.148 5.404 16 5.404C21.852 5.404 26.596 10.148 26.596 16C26.596 21.852 21.852 26.596 16 26.596ZM14.09 24.132C14.338 24.03 15.308 23.282 16.245 22.477C17.4064 21.4892 18.5235 20.4505 19.593 19.364C20.619 18.338 21 17.897 21.063 17.669C21.285 16.868 18.858 8.063 18.364 7.874C18.063 7.758 15.371 9.997 12.987 12.341C11.589 13.715 11.202 14.172 11.172 14.471C11.152 14.702 11.232 15.281 11.381 15.967C11.974 18.689 13.053 22.45 13.599 23.685C13.828 24.209 13.854 24.232 14.089 24.132H14.09Z" fill="black"/>
</g>
<defs>
<clipPath id="clip0_16_2290">
<rect width="32" height="32" fill="white"/>
</clipPath>
</defs>
</svg>
