<svg width="32" height="32" viewBox="0 0 32 32" fill="none" xmlns="http://www.w3.org/2000/svg">
<g clip-path="url(#clip0_16_2298)">
<path fill-rule="evenodd" clip-rule="evenodd" d="M16 32C7.163 32 0 24.837 0 16C0 7.163 7.163 0 16 0C24.837 0 32 7.163 32 16C32 24.837 24.837 32 16 32ZM6.5 10.487V21.513L16 27L25.5 21.513V10.487L16 5L6.5 10.487ZM7.412 20.457V11.544L13.155 14.867L11.222 18.252L7.412 20.457ZM7.869 21.248L11.533 19.128L15.571 21.441V25.697L7.869 21.248ZM24.588 11.575V20.425L20.828 18.25L18.896 14.868L24.588 11.575ZM24.158 10.767L18.443 14.074L16.483 10.643V6.334L24.158 10.767ZM18.111 15.322L19.264 17.345L16.939 16L18.111 15.322ZM17.658 14.528L16.483 15.208V12.468L17.658 14.528ZM12.794 17.343L13.945 15.323L15.115 16L12.795 17.343H12.794ZM12.448 18.599L15.571 16.792V20.387L12.448 18.6V18.599ZM7.868 10.752L15.571 6.303V10.637L13.609 14.073L7.869 10.752H7.868ZM24.158 21.233L16.483 25.666V21.47L20.523 19.13L24.158 21.233ZM19.61 18.601L16.483 20.414V16.792L19.61 18.602V18.601ZM14.398 14.53L15.571 12.473V15.208L14.398 14.53Z" fill="black"/>
</g>
<defs>
<clipPath id="clip0_16_2298">
<rect width="32" height="32" fill="white"/>
</clipPath>
</defs>
</svg>
