<svg width="32" height="32" viewBox="0 0 32 32" fill="none" xmlns="http://www.w3.org/2000/svg">
<g clip-path="url(#clip0_16_2302)">
<path d="M16 32C7.163 32 0 24.837 0 16C0 7.163 7.163 0 16 0C24.837 0 32 7.163 32 16C32 24.837 24.837 32 16 32ZM4.406 21.711C4.25049 21.9576 4.11473 22.216 4 22.484C4 22.52 4.144 22.52 4.295 22.52C4.635 22.49 4.968 22.417 5.289 22.302L5.73 22.192C6.19493 21.9903 6.63876 21.7431 7.055 21.454L7.864 20.792C8.256 20.474 8.614 20.116 8.932 19.724L9.815 18.471C10.442 17.626 11.14 17.221 11.951 17.257C12.4151 17.2389 12.8687 17.1133 13.276 16.89L15.558 15.418C15.7907 15.2749 16.0124 15.1144 16.221 14.938C16.1195 14.6755 15.9829 14.4279 15.815 14.202L15.374 13.467C14.896 12.694 14.896 12.656 15.338 11.847L15.374 11.737C15.5135 11.4998 15.6371 11.2536 15.744 11C15.7387 10.6359 15.6883 10.2738 15.594 9.922C15.476 10.0684 15.3778 10.2298 15.302 10.402C14.896 11.247 14.639 11.727 14.601 11.727C14.491 11.727 14.565 10.695 14.786 10.071L15.779 6.951C16.036 6.03 16.074 6.03 16.331 6.951L17.8 11.552C17.987 12.178 18.136 12.289 18.76 12.289H19.79C20.598 12.25 21.112 12.62 21.52 13.503C21.742 13.893 22.015 14.253 22.331 14.571L27.448 19.88C27.61 20.081 27.796 20.263 28 20.422V20.386C27.874 20.161 27.74 19.94 27.597 19.724L23.805 14.276C23.515 13.86 23.194 13.466 22.845 13.098L21.669 11.848C21.3373 11.5104 20.889 11.3126 20.416 11.295H20.123C19.202 11.295 18.318 10.633 17.951 9.711L16.331 5.698C16.2567 5.4431 16.1319 5.20574 15.964 5C15.773 5.197 15.611 5.42 15.484 5.662L11.735 11.406C11.692 11.4933 11.6314 11.5707 11.557 11.6334C11.4826 11.696 11.3959 11.7425 11.3026 11.77C11.2093 11.7974 11.1112 11.8052 11.0147 11.7928C10.9183 11.7804 10.8254 11.7481 10.742 11.698H10.703C10.331 11.478 9.964 11.588 9.743 11.994L4.406 21.71V21.711Z" fill="black"/>
</g>
<defs>
<clipPath id="clip0_16_2302">
<rect width="32" height="32" fill="white"/>
</clipPath>
</defs>
</svg>
