<svg width="32" height="32" viewBox="0 0 32 32" fill="none" xmlns="http://www.w3.org/2000/svg">
<g clip-path="url(#clip0_16_2304)">
<path d="M16 32C7.163 32 0 24.837 0 16C0 7.163 7.163 0 16 0C24.837 0 32 7.163 32 16C32 24.837 24.837 32 16 32ZM15.725 6.06C15.335 6.212 15.235 6.767 15.539 7.048C15.826 7.341 16.386 7.238 16.534 6.855C16.789 6.384 16.204 5.813 15.724 6.059L15.725 6.06ZM10.57 6.606C10.165 6.712 10.12 7.34 10.513 7.49C10.81 7.65 11.231 7.401 11.2 7.063C11.23 6.75 10.861 6.488 10.57 6.606ZM21.128 7.499C21.438 7.577 21.668 7.329 21.74 7.059C21.69 6.742 21.378 6.437 21.039 6.599C20.601 6.741 20.673 7.445 21.128 7.499ZM11.743 8.764C11.287 8.994 11.224 9.678 11.638 9.976C12.066 10.356 12.824 10.03 12.849 9.469C12.924 8.912 12.229 8.461 11.743 8.764ZM19.173 9.086C18.902 9.622 19.449 10.236 20.026 10.13C20.461 9.988 20.762 9.471 20.517 9.054C20.27 8.518 19.39 8.535 19.173 9.086ZM15.104 10.099C15.078 10.485 15.359 10.801 15.692 10.962C15.91 10.975 16.147 11.016 16.347 10.906C16.785 10.716 17.001 10.144 16.758 9.728C16.628 9.428 16.298 9.3 15.995 9.24C15.537 9.273 15.099 9.625 15.104 10.099ZM7.438 10.789C7.05 10.964 6.996 11.555 7.338 11.801C7.66 12.063 8.222 11.896 8.314 11.485C8.483 11.01 7.883 10.519 7.438 10.788V10.789ZM23.9 10.787C23.512 11.021 23.555 11.645 23.967 11.827C24.341 12.047 24.88 11.725 24.854 11.298C24.899 10.83 24.277 10.499 23.9 10.788V10.787ZM17.26 11.638C16.484 11.87 16.024 12.796 16.34 13.536C16.618 14.363 17.717 14.747 18.47 14.294C19.195 13.911 19.444 12.894 18.976 12.227C18.622 11.681 17.882 11.417 17.26 11.638ZM13.607 11.711C12.872 12.034 12.534 12.987 12.915 13.689C13.255 14.414 14.245 14.712 14.947 14.319C15.648 13.97 15.951 13.029 15.559 12.353C15.226 11.659 14.297 11.39 13.607 11.711ZM9.95 12.94C9.849 13.454 10.315 13.976 10.848 13.93C11.332 13.933 11.685 13.494 11.715 13.045C11.6887 12.8246 11.5883 12.6198 11.4302 12.464C11.2721 12.3083 11.0657 12.2109 10.845 12.188C10.422 12.218 10.003 12.503 9.95 12.94ZM20.752 12.284C20.165 12.556 20.122 13.456 20.687 13.776C21.231 14.16 22.071 13.699 22.034 13.044C22.058 12.426 21.299 11.971 20.752 12.284ZM12.122 14.591C11.254 14.797 10.746 15.847 11.164 16.63C11.529 17.484 12.79 17.736 13.474 17.11C14.008 16.683 14.148 15.874 13.805 15.292C13.491 14.714 12.76 14.418 12.121 14.591H12.122ZM19.049 14.588C18.175 14.823 17.713 15.913 18.172 16.684C18.552 17.43 19.619 17.68 20.308 17.204C20.965 16.793 21.176 15.842 20.734 15.205C20.4 14.648 19.67 14.413 19.049 14.588ZM8.009 15.314C7.479 15.462 7.322 16.218 7.747 16.557C8.11 16.919 8.813 16.737 8.95 16.247C9.173 15.708 8.561 15.109 8.009 15.314ZM22.978 16.096C23.07 16.306 23.181 16.526 23.398 16.634C23.862 16.885 24.517 16.522 24.482 15.987C24.512 15.581 24.144 15.281 23.766 15.222C23.546 15.2344 23.3397 15.3332 23.1922 15.4969C23.0446 15.6605 22.9676 15.8759 22.978 16.096ZM5.294 15.58C5.019 15.703 4.9 16.07 5.1 16.309C5.326 16.652 5.943 16.494 5.96 16.083C6.037 15.72 5.626 15.437 5.294 15.58ZM26.243 15.571C25.853 15.776 26.006 16.483 26.478 16.441C26.814 16.491 27.102 16.088 26.945 15.794C26.852 15.525 26.477 15.408 26.243 15.571ZM13.926 17.544C13.272 17.684 12.768 18.295 12.77 18.953C12.747 19.64 13.29 20.296 13.982 20.406C14.877 20.612 15.802 19.819 15.745 18.924C15.74 18.038 14.8 17.321 13.925 17.544H13.926ZM17.388 17.543C16.862 17.671 16.416 18.098 16.3 18.623C16.07 19.41 16.678 20.301 17.503 20.406C18.379 20.58 19.276 19.813 19.229 18.935C19.243 18.029 18.275 17.299 17.389 17.543H17.388ZM10.712 18.088C10.049 18.154 9.699 19.031 10.167 19.51C10.567 20.01 11.471 19.844 11.653 19.232C11.902 18.659 11.326 17.985 10.713 18.088H10.712ZM20.866 18.115C20.205 18.322 20.094 19.315 20.701 19.651C21.236 20.027 22.066 19.583 22.044 18.94C22.086 18.355 21.414 17.89 20.866 18.115ZM23.704 20.915C23.849 21.313 24.454 21.408 24.721 21.075C24.918 20.896 24.869 20.618 24.84 20.385C24.699 20.241 24.544 20.07 24.323 20.074C23.879 20.001 23.49 20.522 23.704 20.915ZM7.436 20.183C7.041 20.381 7.027 21 7.409 21.217C7.765 21.457 8.305 21.216 8.354 20.794C8.448 20.317 7.851 19.912 7.436 20.184V20.183ZM15.629 21.066C14.975 21.273 14.877 22.259 15.466 22.594C15.997 22.984 16.853 22.534 16.812 21.884C16.864 21.296 16.172 20.831 15.629 21.066ZM11.835 21.937C11.509 22.057 11.376 22.411 11.37 22.728C11.482 23.019 11.708 23.326 12.055 23.333C12.475 23.395 12.889 23.039 12.875 22.621C12.917 22.111 12.297 21.698 11.835 21.937ZM19.521 21.945C19.057 22.178 19.005 22.882 19.433 23.175C19.876 23.549 20.64 23.185 20.628 22.615C20.673 22.071 19.997 21.655 19.521 21.945ZM20.858 25.195C21.075 25.561 21.708 25.431 21.749 25.005C21.807 24.689 21.515 24.485 21.239 24.43C20.895 24.502 20.646 24.881 20.858 25.196V25.195ZM10.247 24.922C10.277 25.281 10.675 25.592 11.017 25.365C11.398 25.165 11.269 24.52 10.834 24.49C10.535 24.425 10.331 24.673 10.247 24.922ZM15.367 25.209C15.214 25.582 15.58 26.033 15.985 25.986C16.203 25.991 16.372 25.838 16.503 25.686C16.528 25.583 16.554 25.479 16.583 25.376C16.529 25.178 16.467 24.946 16.255 24.856C15.935 24.66 15.45 24.84 15.366 25.209H15.367Z" fill="black"/>
</g>
<defs>
<clipPath id="clip0_16_2304">
<rect width="32" height="32" fill="white"/>
</clipPath>
</defs>
</svg>
