<svg width="32" height="32" viewBox="0 0 32 32" fill="none" xmlns="http://www.w3.org/2000/svg">
<g clip-path="url(#clip0_16_2308)">
<path fill-rule="evenodd" clip-rule="evenodd" d="M16 32C7.163 32 0 24.837 0 16C0 7.163 7.163 0 16 0C24.837 0 32 7.163 32 16C32 24.837 24.837 32 16 32ZM11.587 8.602L9 11.36L13.36 15.974L9 20.68L11.587 23.397L16 18.792L20.305 23.396L23 20.603L18.604 15.999L23 11.36L20.305 8.603L16 13.208L11.587 8.602ZM11.942 8.226L14.068 10.491L15.982 8.377L17.896 10.491L20.022 8.226L15.982 4L11.942 8.226ZM11.942 23.774L15.982 28L20.022 23.774L17.896 21.509L15.982 23.623L14.068 21.509L11.942 23.774Z" fill="black"/>
</g>
<defs>
<clipPath id="clip0_16_2308">
<rect width="32" height="32" fill="white"/>
</clipPath>
</defs>
</svg>
