<svg width="32" height="32" viewBox="0 0 32 32" fill="none" xmlns="http://www.w3.org/2000/svg">
<g clip-path="url(#clip0_16_2314)">
<path d="M16 32C7.163 32 0 24.837 0 16C0 7.163 7.163 0 16 0C24.837 0 32 7.163 32 16C32 24.837 24.837 32 16 32ZM15.952 18.986C15.983 18.9862 16.014 18.9862 16.045 18.986C16.0469 18.9905 16.0483 18.9952 16.049 19C16.0481 19.0064 16.0459 19.0125 16.0426 19.018C16.0393 19.0236 16.035 19.0284 16.0298 19.0322C16.0247 19.0361 16.0188 19.0389 16.0126 19.0405C16.0064 19.0421 15.9999 19.0424 15.9935 19.0415C15.9871 19.0406 15.981 19.0384 15.9755 19.0351C15.9699 19.0318 15.9651 19.0275 15.9613 19.0223C15.9574 19.0172 15.9546 19.0113 15.953 19.0051C15.9514 18.9989 15.9511 18.9924 15.952 18.986ZM9.938 15.493C9.32341 16.5561 8.99959 17.7622 8.99909 18.9902C8.9986 20.2181 9.32146 21.4246 9.93519 22.4881C10.5489 23.5517 11.4319 24.4349 12.4953 25.049C13.5587 25.663 14.7651 25.9862 15.993 25.986C17.8469 25.9836 19.6242 25.2461 20.9352 23.9352C22.2461 22.6242 22.9836 20.8469 22.986 18.993C22.9878 17.7628 22.6634 16.5541 22.046 15.49C22.6599 14.4268 22.9831 13.2207 22.9831 11.993C22.9831 10.7653 22.6599 9.55921 22.0459 8.49603C21.432 7.43285 20.549 6.55005 19.4856 5.93637C18.4223 5.32269 17.2161 4.99976 15.9884 5.00007C14.7607 5.00037 13.5547 5.32389 12.4917 5.9381C11.4286 6.55231 10.546 7.43555 9.93259 8.49903C9.31917 9.56252 8.99654 10.7688 8.99713 11.9965C8.99773 13.2242 9.32154 14.4301 9.936 15.493H9.938ZM16.048 12C16.0157 11.9998 15.9833 11.9998 15.951 12C15.9509 11.9935 15.952 11.987 15.9544 11.9809C15.9568 11.9749 15.9604 11.9694 15.965 11.9647C15.9696 11.96 15.975 11.9563 15.981 11.9538C15.987 11.9513 15.9935 11.95 16 11.95C16.0127 11.9513 16.0245 11.9571 16.0335 11.9662C16.0424 11.9753 16.0479 11.9873 16.049 12H16.048Z" fill="black"/>
</g>
<defs>
<clipPath id="clip0_16_2314">
<rect width="32" height="32" fill="white"/>
</clipPath>
</defs>
</svg>
