<svg width="32" height="32" viewBox="0 0 32 32" fill="none" xmlns="http://www.w3.org/2000/svg">
<g clip-path="url(#clip0_16_2321)">
<path d="M16 32C7.163 32 0 24.837 0 16C0 7.163 7.163 0 16 0C24.837 0 32 7.163 32 16C32 24.837 24.837 32 16 32ZM15.971 23.15C19.928 23.15 23.147 19.951 23.147 16.02C23.147 12.088 19.928 8.89 15.971 8.89C12.014 8.89 8.795 12.088 8.795 16.02C8.795 19.951 12.015 23.15 15.971 23.15ZM15.971 10.286C19.153 10.286 21.741 12.858 21.741 16.02C21.741 19.181 19.153 21.753 15.971 21.753C12.79 21.753 10.201 19.181 10.201 16.02C10.201 12.858 12.79 10.286 15.971 10.286ZM20.996 7.871L21.732 6.681C19.9968 5.6238 18.0039 5.06535 15.972 5.067C14.098 5.067 12.248 5.543 10.622 6.442L11.305 7.663C12.7344 6.87644 14.3395 6.46432 15.971 6.465C17.751 6.465 19.488 6.951 20.996 7.871ZM23.091 24.381C24.3127 23.357 25.2951 22.0778 25.9693 20.6332C26.6434 19.1887 26.9928 17.6141 26.993 16.02H25.587C25.5867 17.4107 25.2817 18.7845 24.6934 20.0446C24.1052 21.3048 23.2479 22.4208 22.182 23.314L23.091 24.381ZM15.971 26.971C17.733 26.971 19.487 26.548 21.041 25.747L20.393 24.507C19.0264 25.2137 17.5095 25.5801 15.971 25.575C13.74 25.5747 11.5777 24.8027 9.851 23.39L8.955 24.466C10.9344 26.0859 13.4132 26.9713 15.971 26.972V26.971ZM25.351 13.425L26.479 13.115C26.0674 11.6362 25.3427 10.2632 24.354 9.089L23.454 9.834C24.3363 10.8813 24.9832 12.1059 25.351 13.425ZM6.86 21.976L7.838 21.336C6.7917 19.7607 6.23467 17.9111 6.237 16.02C6.23315 14.7205 6.49416 13.4338 7.00411 12.2386C7.51406 11.0433 8.26225 9.9645 9.203 9.068L8.389 8.231C7.33507 9.23549 6.49688 10.4442 5.92555 11.7834C5.35423 13.1225 5.06176 14.5641 5.066 16.02C5.066 18.147 5.686 20.207 6.859 21.976H6.86Z" fill="black"/>
<path opacity="0.5" d="M25.35 13.425C24.9824 12.1064 24.3358 10.8821 23.454 9.83499L24.354 9.08899C25.3426 10.2629 26.0673 11.6356 26.479 13.114L25.351 13.425H25.35ZM6.86003 21.976C5.68807 20.2109 5.06424 18.1387 5.06703 16.02C5.06703 13.058 6.24703 10.292 8.39003 8.23099L9.20403 9.06799C8.26328 9.96448 7.51509 11.0433 7.00514 12.2386C6.49519 13.4338 6.23417 14.7205 6.23803 16.02C6.23803 17.919 6.79203 19.757 7.83803 21.336L6.86003 21.976Z" fill="black"/>
</g>
<defs>
<clipPath id="clip0_16_2321">
<rect width="32" height="32" fill="white"/>
</clipPath>
</defs>
</svg>
