<svg width="32" height="32" viewBox="0 0 32 32" fill="none" xmlns="http://www.w3.org/2000/svg">
<g clip-path="url(#clip0_16_2328)">
<path fill-rule="evenodd" clip-rule="evenodd" d="M16 32C7.163 32 0 24.837 0 16C0 7.163 7.163 0 16 0C24.837 0 32 7.163 32 16C32 24.837 24.837 32 16 32ZM8.303 11.957C7.376 11.957 6.793 12.403 6.557 13.294C6.521 13.567 6.534 13.844 6.598 14.126C6.662 14.408 6.771 14.663 6.925 14.89C7.08 15.117 7.28 15.295 7.525 15.422C7.771 15.549 8.067 15.604 8.412 15.586C8.88348 15.5973 9.34805 15.702 9.77887 15.8938C10.2097 16.0857 10.5982 16.3611 10.922 16.704C11.2571 17.0294 11.522 17.42 11.7003 17.8517C11.8787 18.2833 11.9667 18.747 11.959 19.214C11.959 19.724 12.136 20.156 12.491 20.511C12.846 20.865 13.278 21.043 13.787 21.043C14.277 21.043 14.701 20.865 15.055 20.511C15.41 20.156 15.587 19.724 15.587 19.215C15.5887 18.985 15.5451 18.7569 15.4586 18.5438C15.3721 18.3307 15.2445 18.1367 15.083 17.973C14.9286 17.8029 14.7416 17.6657 14.533 17.5694C14.3244 17.4732 14.0986 17.42 13.869 17.413C12.905 17.432 12.032 17.095 11.249 16.404C10.54 15.714 10.167 14.849 10.131 13.812C10.095 12.812 10.449 11.939 11.195 11.192C11.941 10.447 12.832 10.092 13.869 10.129C14.0986 10.122 14.3244 10.0688 14.533 9.97256C14.7416 9.87634 14.9286 9.73909 15.083 9.569C15.2463 9.40118 15.3748 9.2028 15.4613 8.98521C15.5478 8.76763 15.5905 8.53512 15.587 8.301C15.587 7.81 15.41 7.387 15.055 7.032C14.8912 6.86145 14.6941 6.72627 14.4761 6.63477C14.258 6.54328 14.0235 6.49741 13.787 6.5C13.277 6.5 12.846 6.677 12.491 7.032C12.3203 7.19595 12.1851 7.39314 12.0936 7.6114C12.0021 7.82966 11.9563 8.06435 11.959 8.301C11.959 9.265 11.613 10.12 10.922 10.866C10.212 11.575 9.376 11.939 8.412 11.957H8.303ZM8.328 17.414C7.818 17.414 7.387 17.592 7.032 17.946C6.86133 18.11 6.72607 18.3071 6.63457 18.5254C6.54307 18.7437 6.49727 18.9784 6.5 19.215C6.5 19.743 6.686 20.184 7.06 20.538C7.23773 20.7111 7.44952 20.8455 7.68192 20.9324C7.91433 21.0193 8.16226 21.057 8.41 21.043C8.88156 21.0544 9.34617 21.1592 9.77699 21.3513C10.2078 21.5434 10.5963 21.8189 10.92 22.162C11.61 22.853 11.956 23.699 11.956 24.699C11.956 25.19 12.129 25.613 12.475 25.968C12.82 26.323 13.239 26.5 13.73 26.5H13.784C14.275 26.5 14.698 26.323 15.053 25.968C15.408 25.613 15.585 25.19 15.585 24.699C15.585 23.699 15.93 22.853 16.622 22.162C17.294 21.452 18.14 21.079 19.159 21.043H19.241C20.15 21.043 20.731 20.588 20.987 19.679C21.114 19.133 21.005 18.615 20.659 18.124C20.314 17.614 19.813 17.378 19.159 17.414C18.177 17.396 17.331 17.032 16.622 16.323C15.951 15.599 15.605 14.772 15.586 13.843L15.587 13.758C15.587 12.775 15.933 11.938 16.624 11.248C16.9476 10.9047 17.3361 10.629 17.7669 10.4368C18.1977 10.2445 18.6624 10.1396 19.134 10.128C20.171 10.111 21.053 10.465 21.78 11.193C22.526 11.957 22.89 12.839 22.872 13.839C22.89 14.331 23.076 14.744 23.431 15.081C23.5987 15.2445 23.7971 15.3732 24.0147 15.4599C24.2323 15.5465 24.4648 15.5894 24.699 15.586C25.191 15.586 25.613 15.408 25.969 15.054C26.323 14.699 26.5 14.267 26.5 13.758C26.5 13.248 26.31 12.816 25.927 12.462C25.545 12.107 25.109 11.939 24.617 11.957C23.636 11.939 22.79 11.575 22.08 10.866C21.39 10.12 21.044 9.265 21.044 8.301V8.083C21.044 8.064 21.034 8.046 21.016 8.028V7.946C21.016 7.928 21.007 7.91 20.989 7.892V7.81L20.962 7.782V7.728L20.948 7.714C20.939 7.705 20.935 7.692 20.935 7.674V7.646C20.916 7.646 20.907 7.628 20.907 7.591L20.88 7.564L20.866 7.55C20.857 7.541 20.853 7.528 20.853 7.51V7.482C20.835 7.482 20.825 7.473 20.825 7.455L20.812 7.441C20.802 7.432 20.798 7.419 20.798 7.401H20.771V7.373L20.744 7.346V7.29L20.716 7.263L20.689 7.236L20.675 7.222C20.666 7.213 20.662 7.199 20.662 7.182L20.635 7.154C20.616 7.154 20.607 7.144 20.607 7.127L20.594 7.113C20.584 7.103 20.58 7.09 20.58 7.072H20.553V7.045C20.534 7.045 20.525 7.035 20.525 7.018L20.498 6.99C20.48 6.99 20.462 6.981 20.444 6.963L20.416 6.936H20.389V6.908C20.371 6.908 20.362 6.899 20.362 6.881C20.325 6.881 20.307 6.871 20.307 6.854H20.28V6.826L20.252 6.799C20.216 6.799 20.198 6.79 20.198 6.772H20.171L20.143 6.745C20.125 6.745 20.112 6.74 20.103 6.731C20.0983 6.72632 20.0937 6.72166 20.089 6.717L20.062 6.69H20.034V6.663H19.98L19.952 6.635C19.934 6.635 19.916 6.626 19.898 6.608H19.843L19.816 6.581H19.761L19.734 6.554H19.68C19.661 6.554 19.648 6.549 19.639 6.54L19.625 6.526H19.571C19.552 6.526 19.539 6.522 19.53 6.513L19.516 6.499H18.943C18.943 6.517 18.934 6.526 18.916 6.526H18.834L18.807 6.554H18.725L18.698 6.581H18.643L18.616 6.608H18.561V6.635H18.507L18.479 6.663H18.452V6.69H18.397L18.37 6.717H18.343C18.343 6.736 18.333 6.745 18.316 6.745C18.297 6.745 18.288 6.754 18.288 6.772H18.261L18.234 6.799L18.206 6.826C18.188 6.826 18.179 6.836 18.179 6.854H18.125V6.881L18.097 6.908C18.079 6.908 18.07 6.918 18.07 6.936H18.015L17.988 6.963C17.988 6.981 17.979 6.99 17.961 6.99V7.018H17.934V7.045L17.906 7.072C17.888 7.072 17.879 7.082 17.879 7.099L17.852 7.127L17.824 7.154C17.5608 7.45659 17.4156 7.84396 17.415 8.245C17.433 9.264 17.07 10.146 16.324 10.892C15.624 11.591 14.806 11.946 13.867 11.958C13.8193 11.9563 13.7717 11.9563 13.724 11.958L13.678 11.956C13.638 11.959 13.598 11.963 13.558 11.969C13.1515 12.0117 12.7728 12.1958 12.488 12.489C12.3175 12.6528 12.1823 12.8499 12.0908 13.0679C11.9993 13.286 11.9534 13.5205 11.956 13.757C11.956 14.248 12.125 14.671 12.461 15.026C12.6255 15.2068 12.8268 15.3503 13.0514 15.4467C13.276 15.5431 13.5186 15.5903 13.763 15.585H13.787C14.741 15.593 15.577 15.939 16.294 16.622C16.6456 16.9449 16.9265 17.3371 17.1191 17.7739C17.3117 18.2107 17.4118 18.6826 17.413 19.16C17.431 20.178 17.076 21.051 16.349 21.779C15.639 22.506 14.794 22.87 13.812 22.87H13.73C12.73 22.87 11.874 22.506 11.165 21.779C10.455 21.033 10.11 20.16 10.129 19.159C10.1211 18.9277 10.0675 18.7002 9.97143 18.4896C9.87532 18.2791 9.73856 18.0896 9.569 17.932C9.40752 17.7667 9.21444 17.6356 9.00124 17.5464C8.78804 17.4572 8.55909 17.4119 8.328 17.413V17.414Z" fill="black"/>
</g>
<defs>
<clipPath id="clip0_16_2328">
<rect width="32" height="32" fill="white"/>
</clipPath>
</defs>
</svg>
