<svg width="32" height="32" viewBox="0 0 32 32" fill="none" xmlns="http://www.w3.org/2000/svg">
<g clip-path="url(#clip0_16_2330)">
<path d="M16 0C24.837 0 32 7.163 32 16C32 24.837 24.837 32 16 32C7.163 32 0 24.837 0 16C0 7.163 7.163 0 16 0ZM16.583 6.25C16.301 6.323 16.029 6.4 15.753 6.477C15.736 6.517 15.719 6.556 15.704 6.595C14.9562 8.53735 14.1938 10.4741 13.417 12.405L10.958 18.497L10.238 20.267C10.119 20.557 9.984 20.843 9.832 21.12C9.7244 21.3216 9.59782 21.5124 9.454 21.69C9.24415 21.9448 8.97153 22.1406 8.663 22.258C8.60002 22.2819 8.53632 22.3039 8.472 22.324C8.236 22.394 7.997 22.45 7.755 22.491C7.67171 22.5005 7.5894 22.5173 7.509 22.541C7.496 22.777 7.497 23.014 7.511 23.25V23.249H13.202C13.2222 23.2468 13.2422 23.2434 13.262 23.239C13.2658 23.2273 13.2685 23.2152 13.27 23.203V22.585C13.2682 22.5686 13.2645 22.5525 13.259 22.537L13.212 22.529C12.994 22.495 12.775 22.465 12.558 22.426C12.3608 22.3941 12.1668 22.3453 11.978 22.28C11.8605 22.2405 11.7494 22.1842 11.648 22.113C11.5718 22.059 11.5077 21.9897 11.46 21.9094C11.4123 21.8291 11.382 21.7397 11.371 21.647C11.3545 21.5048 11.3589 21.3609 11.384 21.22C11.4151 21.0083 11.4649 20.7998 11.533 20.597C11.706 20.067 11.883 19.535 12.068 19.007C12.528 17.691 13.022 16.386 13.515 15.081C14.184 13.318 14.855 11.556 15.485 9.781C15.4904 9.76038 15.4985 9.74054 15.509 9.722C15.519 9.711 15.536 9.705 15.549 9.697C15.589 9.732 15.594 9.776 15.608 9.815C16.898 13.427 18.201 17.034 19.518 20.635C19.585 20.819 19.655 21.003 19.705 21.192C19.739 21.313 19.761 21.437 19.773 21.562C19.794 21.838 19.693 22.054 19.442 22.192C19.396 22.219 19.348 22.242 19.298 22.262C19.198 22.298 19.098 22.334 18.995 22.362C18.7396 22.4273 18.4804 22.477 18.219 22.511C18.1649 22.5164 18.1114 22.5265 18.059 22.541C18.055 22.5497 18.052 22.5587 18.05 22.568V23.207C18.0526 23.2219 18.0573 23.2364 18.064 23.25H24.427C24.447 23.248 24.467 23.244 24.493 23.24C24.498 23.162 24.5 23.085 24.497 23.007C24.497 22.927 24.5 22.842 24.497 22.767C24.495 22.691 24.511 22.615 24.485 22.536L24.305 22.51C24.0505 22.4767 23.7984 22.4276 23.55 22.363C23.092 22.2487 22.6934 21.9668 22.433 21.573C22.3492 21.4473 22.2711 21.3178 22.199 21.185C22.0351 20.8754 21.8918 20.5554 21.77 20.227C21.4611 19.424 21.1548 18.62 20.851 17.815C19.7444 14.8695 18.6533 11.9181 17.578 8.961L16.628 6.36C16.615 6.324 16.599 6.29 16.583 6.25Z" fill="black"/>
</g>
<defs>
<clipPath id="clip0_16_2330">
<rect width="32" height="32" fill="white"/>
</clipPath>
</defs>
</svg>
