<svg width="32" height="32" viewBox="0 0 32 32" fill="none" xmlns="http://www.w3.org/2000/svg">
<g clip-path="url(#clip0_16_2332)">
<path d="M16 0C24.837 0 32 7.163 32 16C32 24.837 24.837 32 16 32C7.163 32 0 24.837 0 16C0 7.163 7.163 0 16 0ZM16.05 11.4C13.524 11.4 11.503 13.45 11.503 15.9C11.503 17.95 12.867 19.65 14.787 20.2V23L9.178 20.2C9.027 20.1 8.926 19.95 8.926 19.8V18.25H6.5V19.8C6.5 20.9 7.106 21.85 8.066 22.35L14.636 25.7C15.04 25.9 15.495 26 15.949 26C16.404 26 16.859 25.9 17.263 25.7L23.883 22.35C24.843 21.85 25.449 20.85 25.449 19.8V18.25H23.024V19.8C23.024 20 22.923 20.15 22.771 20.2L17.314 23V20.2C18.2556 19.9398 19.0863 19.3788 19.6793 18.6024C20.2722 17.826 20.5949 16.8769 20.598 15.9C20.598 13.4 18.527 11.4 16.051 11.4H16.05ZM16 13.85C17.112 13.85 18.072 14.75 18.072 15.9C18.072 17.05 17.112 17.95 16 17.95C14.888 17.95 13.928 17.05 13.928 15.9C13.928 14.75 14.838 13.85 16 13.85ZM17.314 6.3C16.454 5.9 15.494 5.9 14.686 6.3L8.066 9.65C7.106 10.15 6.5 11.15 6.5 12.2V13.75H8.926V12.2C8.926 12 9.026 11.85 9.178 11.8L15.798 8.45C15.949 8.4 16.101 8.4 16.202 8.45L22.822 11.8C22.973 11.9 23.074 12.05 23.074 12.2V13.75H25.5V12.2C25.5 11.1 24.894 10.15 23.934 9.65L17.314 6.3Z" fill="black"/>
</g>
<defs>
<clipPath id="clip0_16_2332">
<rect width="32" height="32" fill="white"/>
</clipPath>
</defs>
</svg>
