<svg width="32" height="32" viewBox="0 0 32 32" fill="none" xmlns="http://www.w3.org/2000/svg">
<g clip-path="url(#clip0_16_2334)">
<path fill-rule="evenodd" clip-rule="evenodd" d="M7.965 17.598C7.37132 16.4594 6.8807 15.27 6.499 14.044C6.31741 13.4698 6.16389 12.8871 6.039 12.298C7.851 10.81 9.989 9.536 12.287 8.47C13.148 8.07 13.984 7.722 14.773 7.425C15.263 7.241 15.673 7.099 15.995 6.995C16.327 7.103 16.725 7.241 17.215 7.425C18.005 7.723 18.84 8.07 19.701 8.47C22.001 9.537 24.139 10.81 25.951 12.297C25.5518 14.083 24.9293 15.8116 24.098 17.442C23.5717 18.477 22.949 19.46 22.238 20.378C19.127 20.156 19.316 18.278 19.316 18.278C19.316 18.203 19.316 18.128 19.33 18.054C19.33 18.054 19.48 16.577 20.782 16.577C20.9506 16.5673 21.1185 16.6047 21.267 16.685C21.948 17.051 21.505 17.735 21.505 17.735C22.358 17.6 23.415 16.651 23.245 14.991C23.074 13.331 21.082 12.477 21.082 12.477C21.144 12.097 21.082 11.969 21.082 11.969C16.854 9.428 13.561 9.977 13.561 9.977L14.379 10.79C14.297 10.783 14.209 10.783 14.127 10.783C10.697 10.905 7.955 13.764 7.955 17.281C7.955 17.391 7.959 17.496 7.965 17.598ZM16 32C7.163 32 0 24.837 0 16C0 7.163 7.163 0 16 0C24.837 0 32 7.163 32 16C32 24.837 24.837 32 16 32ZM27 11.902L26.774 11.742C24.932 10.192 22.754 8.862 20.402 7.746C19.0775 7.11008 17.7133 6.56027 16.318 6.1L16.21 6.065L15.993 6L15.675 6.1C14.592 6.447 13.157 7 11.588 7.746C9.233 8.865 7.052 10.196 5.208 11.748L5.12 11.823L5 11.923L5.052 12.211C5.042 12.171 5.097 12.451 5.147 12.675C5.56244 14.4799 6.19715 16.2272 7.037 17.878C7.938 19.635 9.037 21.171 10.305 22.452C11.8131 23.9849 13.6472 25.1583 15.671 25.885L15.789 25.925L15.999 26L16.213 25.918L16.325 25.878C18.333 25.16 20.135 24.008 21.692 22.446C22.954 21.178 24.054 19.638 24.96 17.872C25.6055 16.6074 26.1308 15.2849 26.529 13.922C26.747 13.177 26.924 12.399 26.95 12.182L27 11.902ZM19.398 12.626L19.384 12.64C18.191 12.389 17.761 11.78 17.761 11.78C18.887 11.772 19.903 12.037 20.646 12.484C20.646 12.484 20.244 12.355 19.835 12.301C19.63 12.511 19.453 12.599 19.398 12.626Z" fill="black"/>
</g>
<defs>
<clipPath id="clip0_16_2334">
<rect width="32" height="32" fill="white"/>
</clipPath>
</defs>
</svg>
