<svg width="32" height="32" viewBox="0 0 32 32" fill="none" xmlns="http://www.w3.org/2000/svg">
<g clip-path="url(#clip0_16_2342)">
<path d="M16 32C7.163 32 0 24.837 0 16C0 7.163 7.163 0 16 0C24.837 0 32 7.163 32 16C32 24.837 24.837 32 16 32ZM10.755 5.246L10.765 5.235C8.22465 6.48955 6.21283 8.6061 5.08869 11.2068C3.96456 13.8075 3.80128 16.7231 4.628 19.433C5.10637 21.0757 5.96058 22.5845 7.123 23.84C7.93 22.067 8.557 20.22 9.3 18.435L11.52 12.807C11.87 11.947 12.146 11.033 12.762 10.322C13.41 9.568 14.408 9.239 15.364 9.132C16.5566 8.96218 17.7729 9.15084 18.858 9.674C19.633 10.099 20.132 10.884 20.429 11.702L23.509 19.773C24.019 21.111 24.475 22.47 25.07 23.766C26.8791 21.6831 27.9109 19.0378 27.9897 16.28C28.0685 13.5222 27.1895 10.8223 25.5023 8.63947C23.8151 6.45663 21.4238 4.92567 18.7352 4.307C16.0465 3.68832 13.2266 4.02013 10.755 5.246ZM15.194 13.38C13.654 17.235 12.157 21.1 10.628 24.955C10.448 25.401 10.203 25.837 10.15 26.325C10.67 26.697 11.286 26.909 11.88 27.154C13.472 27.7487 15.1724 27.9974 16.868 27.8838C18.5636 27.7702 20.2156 27.2967 21.714 26.495C21.824 26.433 21.924 26.354 22.012 26.262C21.905 25.72 21.64 25.221 21.459 24.701C20.089 21.079 18.73 17.447 17.349 13.837C17.212 13.497 17.105 13.115 16.809 12.892C16.256 12.531 15.406 12.743 15.194 13.38Z" fill="black"/>
</g>
<defs>
<clipPath id="clip0_16_2342">
<rect width="32" height="32" fill="white"/>
</clipPath>
</defs>
</svg>
