<svg width="32" height="32" viewBox="0 0 32 32" fill="none" xmlns="http://www.w3.org/2000/svg">
<g clip-path="url(#clip0_16_2344)">
<path d="M16 32C7.163 32 0 24.837 0 16C0 7.163 7.163 0 16 0C24.837 0 32 7.163 32 16C32 24.837 24.837 32 16 32ZM15.947 13.347L27 25L15.996 7L5 24.891L15.947 13.347ZM17.535 17.932V17.949L15.873 15.996L14.113 17.932H17.535ZM10.935 21.109H20.794L18.796 19.064L12.876 19.089V19.098L10.936 21.085V21.109H10.935Z" fill="black"/>
</g>
<defs>
<clipPath id="clip0_16_2344">
<rect width="32" height="32" fill="white"/>
</clipPath>
</defs>
</svg>
