<svg width="32" height="32" viewBox="0 0 32 32" fill="none" xmlns="http://www.w3.org/2000/svg">
<g clip-path="url(#clip0_16_2348)">
<path d="M16 0C24.837 0 32 7.163 32 16C32 24.837 24.837 32 16 32C7.163 32 0 24.837 0 16C0 7.163 7.163 0 16 0ZM7.975 23.475C8.5586 24.0883 9.20554 24.638 9.905 25.115C10.085 25.233 10.275 25.35 10.482 25.467C11.041 25.792 11.573 26.035 12.051 26.225C12.186 26.279 12.321 26.333 12.475 26.387C13.5334 26.7449 14.64 26.9395 15.757 26.964V25.188L11.866 24.331L7.975 23.475ZM23.98 23.511C21.455 24.07 18.93 24.629 16.406 25.179V26.955L16.761 26.936C19.5133 26.746 22.092 25.5226 23.98 23.511ZM22.122 20.22C21.743 20.292 21.428 20.355 21.212 20.4C21.202 20.4 21.193 20.4 21.184 20.409C20.851 20.481 20.535 20.544 20.229 20.599C20.057 20.634 19.895 20.652 19.742 20.679C19.706 20.689 19.661 20.689 19.607 20.698C19.607 20.698 19.498 20.716 19.354 20.725C19.2606 20.7321 19.1667 20.7287 19.074 20.715C19.0257 20.7128 18.9789 20.6973 18.939 20.67C18.894 20.643 18.867 20.607 18.84 20.58L17.731 22.528L16.622 24.475C18.876 23.98 21.122 23.475 23.375 22.979C23.3235 22.9153 23.2754 22.8488 23.231 22.78C23.168 22.69 23.114 22.582 23.051 22.465C22.9915 22.3564 22.9374 22.2449 22.889 22.131L22.884 22.119C22.7743 21.8897 22.6735 21.6562 22.582 21.419C22.555 21.356 22.537 21.302 22.51 21.248C22.3727 20.9084 22.2434 20.5656 22.122 20.22ZM9.968 20.22C9.905 20.4 9.842 20.571 9.77 20.752C9.70913 20.9224 9.64276 21.0909 9.571 21.257C9.508 21.419 9.445 21.572 9.382 21.725C9.32209 21.8649 9.25874 22.0033 9.192 22.14C9.08712 22.363 8.96993 22.58 8.841 22.79C8.80478 22.8588 8.75937 22.9224 8.706 22.979L15.45 24.466L15.445 24.458L14.309 22.51L14.102 22.154L13.205 20.616L13.169 20.652L13.142 20.674L13.115 20.689C13.034 20.734 12.88 20.743 12.645 20.725C12.4521 20.704 12.26 20.6767 12.069 20.643C11.988 20.634 11.916 20.616 11.843 20.607C11.771 20.589 11.69 20.58 11.618 20.562C11.458 20.5324 11.2986 20.4994 11.14 20.463L10.897 20.409L10.572 20.339C10.3711 20.2969 10.1697 20.2569 9.968 20.219V20.22ZM22.843 11.438H9.157L9.103 11.549C9.063 11.62 9.013 11.684 8.958 11.744L16.045 24.214L23.105 11.798L23.022 11.72C22.9439 11.6391 22.883 11.5431 22.843 11.438ZM5.947 19.147L5.712 19.823L5.864 20.208C6.235 21.098 6.715 21.924 7.299 22.681C7.534 22.735 7.759 22.781 7.993 22.834C7.99013 22.7189 8.00257 22.6039 8.03 22.492C8.066 22.32 8.11 22.14 8.165 21.932L8.219 21.716L8.303 21.422C8.363 21.222 8.426 21.016 8.498 20.806C8.525 20.725 8.552 20.652 8.57 20.58C8.616 20.436 8.66 20.292 8.706 20.157C8.72277 20.0923 8.74382 20.0289 8.769 19.967C8.525 19.913 8.237 19.841 7.93 19.777C7.62786 19.7094 7.32744 19.6344 7.029 19.552C6.812 19.489 6.614 19.435 6.443 19.372C6.38 19.354 6.325 19.327 6.271 19.309C6.20664 19.2853 6.14356 19.2582 6.082 19.228C6.0347 19.205 5.98952 19.1779 5.947 19.147ZM26.252 19.02C26.17 19.129 26.035 19.21 25.828 19.291C25.5788 19.3825 25.3259 19.4636 25.07 19.534C25.016 19.552 24.962 19.561 24.917 19.58L24.782 19.616L24.592 19.664L24.403 19.706C24.3288 19.7271 24.2537 19.7451 24.178 19.76L24.04 19.793C23.844 19.84 23.606 19.891 23.34 19.949C23.411 20.202 23.502 20.481 23.61 20.797C23.709 21.112 23.808 21.419 23.89 21.707C23.916 21.797 23.934 21.879 23.961 21.969C24.007 22.104 24.043 22.239 24.07 22.402C24.079 22.429 24.079 22.456 24.088 22.482C24.124 22.627 24.133 22.735 24.124 22.816C24.124 22.816 24.502 22.744 24.692 22.699C25.4399 21.7355 26.0219 20.654 26.414 19.499L26.252 19.02ZM15.712 19.58C15.836 19.58 15.937 19.68 15.937 19.805C15.937 19.94 15.837 20.039 15.711 20.039L15.651 20.031C15.6026 20.0178 15.5601 19.9888 15.5301 19.9485C15.5002 19.9083 15.4847 19.8591 15.486 19.809C15.486 19.68 15.587 19.579 15.711 19.579L15.712 19.58ZM11.059 16.73C11.0317 16.8157 11.0106 16.9033 10.996 16.992C10.978 17.082 10.951 17.182 10.924 17.289L10.87 17.506L10.806 17.726C10.762 17.873 10.716 18.026 10.662 18.182C10.6069 18.337 10.5559 18.4934 10.509 18.651C10.455 18.804 10.409 18.957 10.356 19.101C10.599 19.165 10.834 19.219 11.041 19.273C11.149 19.3 11.248 19.327 11.348 19.345C11.447 19.372 11.537 19.39 11.627 19.417C11.672 19.427 11.717 19.435 11.753 19.453L11.88 19.48C11.96 19.498 12.033 19.516 12.105 19.543C12.249 19.58 12.385 19.616 12.493 19.652C12.601 19.679 12.691 19.715 12.773 19.742L11.059 16.73ZM21.031 16.748L19.336 19.724L19.346 19.714L19.421 19.688C19.4793 19.6679 19.5384 19.6499 19.598 19.634C19.832 19.561 20.12 19.489 20.472 19.399C20.824 19.309 21.239 19.209 21.725 19.084C21.626 18.786 21.518 18.48 21.419 18.164C21.3175 17.8699 21.2274 17.572 21.149 17.271C21.1006 17.0988 21.0612 16.9243 21.031 16.748ZM8.4 12.068L6.172 18.48L6.245 18.47C6.295 18.465 6.346 18.461 6.407 18.461C6.614 18.461 6.857 18.471 7.137 18.498C7.425 18.525 7.741 18.57 8.084 18.633C8.435 18.696 8.796 18.759 9.166 18.84C9.265 18.56 9.364 18.263 9.472 17.939C9.62218 17.4974 9.78761 17.0611 9.968 16.631C10.0185 16.5154 10.0725 16.4013 10.13 16.289C10.166 16.207 10.202 16.144 10.239 16.09C10.2681 16.0451 10.3012 16.0029 10.338 15.964C10.3568 15.9461 10.378 15.9309 10.401 15.919C10.4417 15.8946 10.4885 15.8821 10.536 15.883L8.4 12.069V12.068ZM23.764 11.997H23.728L21.538 15.847L21.558 15.851L21.591 15.856C21.601 15.856 21.601 15.856 21.609 15.865C21.619 15.865 21.619 15.865 21.627 15.874C21.637 15.874 21.637 15.883 21.645 15.883C21.655 15.883 21.655 15.883 21.663 15.892C21.6896 15.9062 21.7139 15.9244 21.735 15.946C21.771 15.982 21.799 16.018 21.808 16.027C21.817 16.037 21.817 16.045 21.826 16.054C21.846 16.0828 21.864 16.1128 21.88 16.144C21.925 16.225 21.952 16.27 21.952 16.27C22.06 16.478 22.168 16.721 22.276 17.01C22.385 17.298 22.502 17.605 22.61 17.93C22.637 18.002 22.655 18.065 22.682 18.137C22.745 18.327 22.826 18.561 22.917 18.831C23.295 18.759 23.656 18.687 24.007 18.624C24.359 18.561 24.675 18.516 24.963 18.489C25.252 18.461 25.495 18.443 25.703 18.452C25.82 18.452 25.91 18.462 25.991 18.48C26.009 18.48 26.036 18.489 26.054 18.489C25.883 18.011 25.703 17.479 25.495 16.911L23.765 11.997H23.764ZM6.534 10.473C5.62149 12.0244 5.10719 13.7775 5.037 15.576V16.334L5.058 16.755C5.106 17.454 5.216 18.132 5.388 18.786C6.191 16.46 7.003 14.143 7.805 11.816C7.70046 11.7364 7.61447 11.6351 7.553 11.519C7.48724 11.397 7.45287 11.2606 7.453 11.122V11.059L7.456 11.047C7.45915 11.0302 7.46115 11.0131 7.462 10.996L6.534 10.473ZM25.54 10.563C25.207 10.753 24.882 10.933 24.549 11.123C24.549 11.149 24.549 11.176 24.539 11.203C24.531 11.257 24.521 11.303 24.512 11.348C24.503 11.375 24.494 11.393 24.485 11.42C24.4593 11.4866 24.4261 11.55 24.386 11.609C24.368 11.627 24.359 11.645 24.341 11.663C25.126 13.926 25.91 16.18 26.694 18.443C26.74 18.254 26.776 18.056 26.812 17.866C26.812 17.848 26.821 17.83 26.821 17.803C26.832 17.74 26.841 17.6766 26.848 17.613C26.857 17.578 26.857 17.551 26.866 17.515C26.875 17.425 26.893 17.343 26.902 17.245L26.915 17.108L26.929 16.965C26.929 16.938 26.938 16.911 26.938 16.884C26.938 16.83 26.947 16.784 26.947 16.73C26.965 16.45 26.974 16.19 26.974 15.946C26.966 14.3056 26.5901 12.6879 25.874 11.212L25.847 11.158L25.788 11.041L25.73 10.924L25.676 10.816L25.608 10.689L25.54 10.563ZM13.81 17.361C13.936 17.361 14.035 17.461 14.035 17.587C14.035 17.713 13.936 17.812 13.81 17.812C13.7804 17.8123 13.751 17.8066 13.7236 17.7954C13.6962 17.7842 13.6713 17.7676 13.6503 17.7467C13.6294 17.7257 13.6128 17.7008 13.6016 17.6734C13.5904 17.646 13.5847 17.6166 13.585 17.587L13.593 17.527L13.601 17.502C13.6179 17.4605 13.6469 17.425 13.6841 17.4001C13.7213 17.3751 13.7652 17.3619 13.81 17.362V17.361ZM16.592 13.061C16.708 12.941 16.975 12.758 17.426 12.925L18.453 13.295L18.94 13.466C18.94 13.476 19.229 13.584 19.454 13.394L19.977 13.043C19.977 13.043 20.257 12.817 20.554 12.97C20.559 12.97 20.564 12.973 20.57 12.984C20.572 12.98 20.572 12.989 20.581 12.998C20.635 13.322 20.338 13.53 20.338 13.53L19.851 13.917L19.779 13.976C19.685 14.0768 19.6307 14.2082 19.626 14.346V14.386L19.697 16V16.137C19.662 16.692 19.218 16.793 19.21 16.793H19.2L19.192 16.784C19.186 16.784 19.184 16.781 19.182 16.775C19.182 16.775 19.174 16.766 19.174 16.757C19.039 15.892 18.93 15.243 18.876 14.927L18.867 14.882C18.861 14.856 18.849 14.801 18.825 14.762C18.8163 14.7525 18.8062 14.7444 18.795 14.738C18.714 14.693 18.597 14.774 18.515 14.818L18.454 14.858C18.312 14.947 18.158 15.045 17.424 15.558C17.389 15.585 17.352 15.612 17.316 15.648C17.2848 15.6791 17.2603 15.7162 17.244 15.757C17.244 15.766 17.235 15.775 17.235 15.784C17.217 15.82 17.199 15.856 17.217 16.027C17.217 16.072 17.217 16.153 17.181 16.234C17.1716 16.2637 17.1526 16.2893 17.127 16.307C17.118 16.316 17.1 16.325 17.091 16.343C17.073 16.361 17.046 16.37 17.019 16.388H16.992L16.987 16.381C16.974 16.37 16.974 16.361 16.974 16.351V16.243C16.9739 16.1791 16.9648 16.1154 16.947 16.054C16.9375 16.0102 16.9224 15.9679 16.902 15.928L16.83 15.828L16.748 15.711C16.7059 15.6538 16.6576 15.6015 16.604 15.555L16.579 15.535L16.561 15.522L16.575 15.533L16.559 15.523C16.505 15.4874 16.4477 15.4569 16.388 15.432C16.3689 15.4207 16.3472 15.4145 16.325 15.414C16.307 15.404 16.298 15.404 16.28 15.404L16.267 15.399C16.257 15.387 16.248 15.387 16.234 15.387C16.234 15.377 16.234 15.369 16.244 15.36C16.2622 15.3407 16.2823 15.3232 16.304 15.308L16.316 15.297C16.334 15.287 16.343 15.279 16.361 15.27C16.388 15.26 16.424 15.252 16.451 15.243C16.5212 15.2354 16.5921 15.2446 16.658 15.27C16.811 15.333 16.848 15.333 16.893 15.333H16.92L16.964 15.327C16.9924 15.3203 17.02 15.3102 17.046 15.297C17.0865 15.2805 17.1232 15.256 17.154 15.225C17.91 14.635 18.048 14.525 18.15 14.438L18.191 14.404L18.237 14.364L18.277 14.325C18.321 14.277 18.355 14.223 18.344 14.17C18.335 14.107 18.254 14.07 18.227 14.052L18.2 14.034C17.939 13.899 17.334 13.593 16.532 13.196C16.523 13.186 16.514 13.186 16.514 13.178C16.504 13.178 16.514 13.168 16.514 13.16C16.514 13.157 16.536 13.119 16.582 13.07L16.592 13.061ZM13.368 13.466C13.493 13.466 13.594 13.567 13.594 13.692C13.594 13.827 13.494 13.926 13.368 13.926L13.308 13.918C13.2596 13.9048 13.2171 13.8758 13.1871 13.8355C13.1572 13.7953 13.1417 13.7461 13.143 13.696C13.143 13.567 13.243 13.466 13.368 13.466ZM15.072 12.339C15.197 12.339 15.298 12.44 15.298 12.565C15.298 12.7 15.198 12.799 15.072 12.799L15.012 12.791C14.9636 12.7778 14.9211 12.7488 14.8911 12.7085C14.8612 12.6683 14.8457 12.6191 14.847 12.569C14.847 12.44 14.947 12.339 15.072 12.339ZM10.952 12.339C11.076 12.339 11.177 12.44 11.177 12.565C11.1782 12.5953 11.1733 12.6255 11.1625 12.6539C11.1518 12.6822 11.1354 12.7081 11.1144 12.7299C11.0934 12.7518 11.0681 12.7692 11.0402 12.7811C11.0123 12.7929 10.9823 12.799 10.952 12.799L10.892 12.791C10.8435 12.778 10.8009 12.749 10.7709 12.7087C10.741 12.6684 10.7255 12.6192 10.727 12.569C10.727 12.44 10.827 12.339 10.952 12.339ZM16.082 9.012C15.749 9.355 15.469 9.652 15.235 9.905L15.072 10.076L15.054 10.094L14.951 10.199C14.886 10.268 14.826 10.332 14.766 10.392L14.64 10.518L14.543 10.608C14.4649 10.6818 14.3828 10.7512 14.297 10.816H17.858L17.84 10.802L17.822 10.789C17.786 10.743 17.742 10.716 17.705 10.68C17.66 10.644 17.624 10.608 17.579 10.572L17.299 10.32L17.002 10.021C16.8957 9.91406 16.7933 9.80332 16.695 9.689C16.587 9.571 16.488 9.454 16.389 9.346C16.289 9.229 16.181 9.12 16.082 9.012ZM13.594 5.712L9.12 10.725L9.139 10.766L9.157 10.806H13.611L13.584 10.775L13.557 10.743C13.539 10.725 13.53 10.698 13.52 10.68C13.502 10.635 13.484 10.59 13.484 10.545C13.484 10.518 13.494 10.482 13.502 10.437C13.502 10.427 13.512 10.419 13.512 10.41C13.52 10.392 13.53 10.365 13.548 10.338C13.575 10.284 13.611 10.22 13.656 10.158C13.665 10.148 13.665 10.139 13.674 10.139C13.9442 9.75921 14.236 9.39527 14.548 9.049C14.6055 8.98045 14.6655 8.91407 14.728 8.85C14.792 8.787 14.846 8.715 14.909 8.652C15.044 8.498 15.179 8.345 15.297 8.201C15.306 8.191 15.315 8.183 15.315 8.174C14.9859 7.79254 14.6642 7.40481 14.35 7.011C14.26 6.893 14.179 6.776 14.098 6.668C13.9643 6.4794 13.8408 6.28379 13.728 6.082L13.674 5.974L13.651 5.921L13.629 5.875C13.611 5.811 13.593 5.757 13.593 5.712H13.594ZM18.534 5.658V5.676L18.537 5.715C18.5303 5.77252 18.5176 5.82917 18.499 5.884C18.4782 5.94818 18.4479 6.00886 18.409 6.064C18.3482 6.17561 18.2818 6.28408 18.21 6.389C18.165 6.452 18.12 6.524 18.075 6.596C17.9572 6.76835 17.8338 6.93678 17.705 7.101C17.642 7.173 17.588 7.254 17.525 7.335C17.515 7.345 17.507 7.362 17.498 7.371C17.381 7.516 17.254 7.669 17.119 7.822C17.019 7.939 16.929 8.048 16.821 8.165C16.957 8.318 17.11 8.48 17.263 8.661C17.317 8.715 17.371 8.778 17.417 8.841C17.525 8.958 17.624 9.075 17.723 9.193L18.012 9.535C18.192 9.761 18.345 9.959 18.472 10.139C18.58 10.302 18.634 10.419 18.652 10.509V10.545L18.644 10.613C18.6231 10.6872 18.5823 10.7543 18.526 10.807H22.836L22.883 10.704L22.943 10.608L18.535 5.658H18.534ZM19.301 5.541C20.699 7.11 22.096 8.688 23.503 10.257C23.521 10.257 23.548 10.247 23.566 10.247H23.756L23.796 10.255C23.842 10.263 23.906 10.275 23.981 10.302C23.99 10.302 23.999 10.311 24.008 10.32L24.044 10.338L24.145 10.398L24.233 10.464C24.242 10.464 24.242 10.473 24.251 10.473C24.278 10.491 24.296 10.518 24.314 10.536C24.612 10.365 24.909 10.202 25.198 10.031C24.25 8.58049 22.9743 7.37304 21.474 6.506L21.28 6.39L21.086 6.28C21.068 6.271 21.059 6.262 21.041 6.262C20.9204 6.1966 20.7969 6.13655 20.671 6.082C20.6473 6.07553 20.6256 6.06315 20.608 6.046C20.491 5.992 20.374 5.938 20.248 5.884C20.221 5.874 20.203 5.866 20.176 5.857C20.0458 5.80024 19.9134 5.74886 19.779 5.703L19.725 5.685L19.516 5.61L19.301 5.541ZM12.944 5.46L12.593 5.568L12.387 5.64C11.613 5.916 10.634 6.355 9.617 7.083C8.6483 7.78652 7.79652 8.6383 7.093 9.607C7.021 9.716 6.94 9.815 6.867 9.923C7.174 10.094 7.481 10.275 7.787 10.446C7.832 10.41 7.887 10.356 7.977 10.32C8.08177 10.2719 8.19483 10.2444 8.31 10.239C8.463 10.229 8.58 10.275 8.644 10.293C10.077 8.679 11.511 7.073 12.944 5.46ZM15.992 5.027H15.74L15.623 5.032L15.514 5.036H15.487L15.369 5.042L15.244 5.054L14.832 5.09C14.559 5.12 14.291 5.16 14.026 5.207C13.99 5.243 13.963 5.28 13.927 5.325C13.945 5.325 13.954 5.315 13.972 5.315H14.008L14.048 5.322C14.075 5.33 14.108 5.346 14.144 5.37L14.189 5.398L14.288 5.474L14.342 5.523C14.504 5.667 14.685 5.839 14.892 6.046C15.09 6.244 15.298 6.461 15.514 6.696C15.721 6.92 15.911 7.128 16.082 7.299C16.163 7.218 16.244 7.128 16.326 7.029C16.425 6.92 16.524 6.812 16.623 6.695C16.723 6.587 16.821 6.47 16.93 6.37C17.029 6.262 17.128 6.163 17.227 6.064L17.371 5.92L17.451 5.844L17.525 5.775C17.615 5.695 17.696 5.622 17.777 5.559C17.949 5.415 18.075 5.352 18.174 5.352C18.21 5.352 18.246 5.361 18.282 5.37L18.183 5.252L18.053 5.225L17.921 5.198C17.912 5.198 17.903 5.198 17.894 5.189C17.814 5.171 17.732 5.162 17.651 5.153H17.633L17.381 5.117H17.371L17.031 5.08C16.6857 5.04567 16.339 5.02798 15.992 5.027Z" fill="black"/>
</g>
<defs>
<clipPath id="clip0_16_2348">
<rect width="32" height="32" fill="white"/>
</clipPath>
</defs>
</svg>
