<svg width="32" height="32" viewBox="0 0 32 32" fill="none" xmlns="http://www.w3.org/2000/svg">
<g clip-path="url(#clip0_16_2352)">
<path fill-rule="evenodd" clip-rule="evenodd" d="M16 32C7.163 32 0 24.837 0 16C0 7.163 7.163 0 16 0C24.837 0 32 7.163 32 16C32 24.837 24.837 32 16 32ZM16.01 6L7.095 15.029L6 16.14L6.385 16.48C6.78096 16.8286 7.19237 17.1593 7.618 17.471C8.84727 18.3511 10.2086 19.0302 11.651 19.483C13.061 19.933 14.531 20.154 16.01 20.154C17.1797 20.1545 18.3452 20.0135 19.481 19.734C21.1218 19.3307 22.6779 18.6393 24.077 17.692C24.422 17.462 24.767 17.202 25.093 16.941C25.28 16.791 25.458 16.641 25.625 16.481L26 16.141L16.01 6ZM24.748 16.47C24.435 16.728 24.109 16.969 23.771 17.191C22.425 18.0994 20.9295 18.7635 19.353 19.153C18.2593 19.4241 17.1368 19.5617 16.01 19.563C13.1163 19.5728 10.2932 18.6693 7.943 16.981C7.627 16.761 7.322 16.511 7.016 16.261L6.829 16.1L16 6.81L25.172 16.1C25.043 16.23 24.896 16.35 24.748 16.47ZM9.718 15.99L9.274 16.18H9.817C12.779 16.18 15.683 17.011 18.209 18.582L18.239 18.602L18.279 18.592C19.929 18.292 21.506 17.67 22.923 16.761L23.062 16.671L22.923 16.591C20.78 15.3311 18.3389 14.6675 15.853 14.669C13.74 14.679 11.653 15.129 9.718 15.989V15.99ZM18.357 17.992C16.4437 16.8213 14.3078 16.0612 12.085 15.76C13.3084 15.4204 14.5723 15.2489 15.842 15.25C17.952 15.25 20.024 15.74 21.907 16.701C20.8011 17.3202 19.6023 17.7562 18.357 17.992ZM21.661 19.964C21.661 19.964 20.201 20.884 19.649 21.155C17.8175 22.2036 15.7694 22.8167 13.663 22.947L13.032 22.987L16.01 26L20.24 21.716C20.7407 21.1547 21.2145 20.57 21.66 19.964H21.661ZM14.314 23.468C15.943 23.3005 17.531 22.8533 19.008 22.146L16.01 25.19L14.314 23.468Z" fill="black"/>
</g>
<defs>
<clipPath id="clip0_16_2352">
<rect width="32" height="32" fill="white"/>
</clipPath>
</defs>
</svg>
