<svg width="32" height="32" viewBox="0 0 32 32" fill="none" xmlns="http://www.w3.org/2000/svg">
<g clip-path="url(#clip0_16_2356)">
<path d="M16 32C7.163 32 0 24.837 0 16C0 7.163 7.163 0 16 0C24.837 0 32 7.163 32 16C32 24.837 24.837 32 16 32ZM14.395 23.582C14.816 25.395 15.389 26.509 16.02 26.509C17.015 26.509 17.866 23.733 18.206 19.816C21.766 21.486 24.596 22.14 25.096 21.277C25.595 20.416 23.619 18.287 20.401 16.029C23.631 13.784 25.614 11.664 25.119 10.799C24.799 10.242 23.505 10.313 21.669 10.877C21.6074 10.7681 21.5183 10.6775 21.4105 10.6141C21.3027 10.5507 21.1801 10.5169 21.055 10.516C20.9525 10.5174 20.8514 10.5405 20.7585 10.5837C20.6655 10.6269 20.5827 10.6892 20.5155 10.7666C20.4482 10.844 20.3981 10.9348 20.3684 11.0329C20.3387 11.131 20.33 11.2343 20.343 11.336C19.673 11.59 18.957 11.894 18.208 12.241C17.868 8.315 17.017 5.531 16.02 5.531C15.024 5.531 14.174 8.307 13.834 12.223C10.274 10.554 7.443 9.9 6.944 10.763C6.632 11.303 7.288 12.339 8.613 13.591C8.59833 13.6509 8.59094 13.7123 8.591 13.774C8.591 14.183 8.911 14.514 9.306 14.514C9.40384 14.5143 9.50064 14.4939 9.59 14.454C10.2516 15.0006 10.9352 15.52 11.639 16.011C8.409 18.256 6.426 20.376 6.922 21.241C7.418 22.105 10.257 21.458 13.832 19.799C13.908 20.678 14.01 21.5 14.132 22.247C14.0357 22.3167 13.9573 22.4085 13.9036 22.5146C13.8499 22.6207 13.8222 22.7381 13.823 22.857C13.823 23.214 14.069 23.513 14.395 23.582ZM14.859 23.519C14.9794 23.4554 15.0801 23.3599 15.1499 23.243C15.2197 23.1261 15.2561 22.9922 15.255 22.856C15.2578 22.6702 15.1897 22.4903 15.0644 22.3529C14.9392 22.2156 14.7663 22.1312 14.581 22.117C14.457 21.317 14.369 20.446 14.308 19.574C14.8826 19.2972 15.4511 19.0078 16.013 18.706C16.605 19.026 17.186 19.325 17.751 19.599C17.6585 20.5737 17.5328 21.5449 17.374 22.511C16.877 25.325 16.182 25.917 16.182 25.917C16.034 26.115 15.885 25.967 15.885 25.967C15.289 25.275 14.991 23.992 14.991 23.992C14.9428 23.8355 14.8988 23.6778 14.859 23.519ZM9.942 14.114C9.99477 14.0084 10.0222 13.892 10.022 13.774C10.022 13.364 9.702 13.034 9.306 13.034C9.15187 13.0339 9.00206 13.0849 8.88 13.179C7.494 11.849 7.375 11.198 7.375 11.198V11.196C7.278 10.968 7.481 10.913 7.481 10.913C8.378 10.743 9.638 11.13 9.638 11.13C10.823 11.4 12.328 12.034 13.792 12.748C13.7451 13.3885 13.7124 14.03 13.694 14.672C13.123 15.022 12.575 15.374 12.057 15.725C11.3364 15.2091 10.6311 14.6722 9.942 14.115V14.114ZM20.56 11.79C20.625 11.8554 20.7023 11.9074 20.7874 11.9429C20.8725 11.9784 20.9638 11.9968 21.056 11.997C21.412 11.997 21.707 11.727 21.762 11.375C23.592 10.801 24.334 10.868 24.594 10.939C24.6363 10.9506 24.6732 10.9769 24.6979 11.0132C24.7226 11.0495 24.7337 11.0933 24.729 11.137C24.679 11.674 23.729 12.644 23.729 12.644C22.5765 13.7819 21.3323 14.8231 20.009 15.757C19.463 15.3844 18.9085 15.0243 18.346 14.677C18.3281 14.0314 18.2957 13.3862 18.249 12.742C19.009 12.401 19.7794 12.0835 20.559 11.79H20.56ZM19.986 16.314C23.967 19.202 24.611 20.505 24.712 20.892C24.7229 20.9342 24.7186 20.979 24.6997 21.0183C24.6809 21.0576 24.6488 21.0891 24.609 21.107C24.119 21.332 22.804 20.997 22.804 20.997C21.2418 20.5689 19.7174 20.0134 18.246 19.336C18.293 18.705 18.326 18.046 18.346 17.369C18.919 17.019 19.466 16.665 19.986 16.314ZM13.683 16.832C13.2811 16.5728 12.884 16.306 12.492 16.032C12.892 15.769 13.292 15.514 13.682 15.272C13.6738 15.792 13.6741 16.312 13.683 16.832ZM13.695 17.362C13.715 18.029 13.747 18.676 13.793 19.298C12.8963 19.7051 11.9858 20.081 11.063 20.425C8.376 21.393 7.516 21.085 7.516 21.085C7.27 21.055 7.326 20.851 7.326 20.851C7.628 19.991 8.592 19.093 8.592 19.093C9.419 18.203 10.722 17.218 12.072 16.31C12.586 16.66 13.129 17.013 13.695 17.363V17.362ZM18.359 15.242C18.872 15.547 19.177 15.738 19.177 15.738C19.323 15.841 19.466 15.941 19.604 16.04C19.127 16.368 18.704 16.642 18.358 16.856C18.3675 16.3177 18.3678 15.7793 18.359 15.241V15.242ZM17.796 19.126C17.275 18.879 16.826 18.649 16.47 18.459C16.95 18.1946 17.4254 17.9219 17.896 17.641C17.872 18.153 17.836 18.653 17.796 19.126ZM14.211 17.676C14.6538 17.9419 15.1008 18.2006 15.552 18.452C15.118 18.675 14.688 18.884 14.276 19.076C14.2483 18.6096 14.2266 18.1429 14.211 17.676ZM14.195 17.156C14.1763 16.4282 14.1686 15.7001 14.172 14.972C14.7773 14.6043 15.3881 14.2456 16.004 13.896C16.736 14.296 17.396 14.674 17.922 14.982C17.926 15.316 17.922 15.502 17.922 15.502C17.9365 16.0426 17.9345 16.5835 17.916 17.124C17.599 17.314 17.416 17.412 17.416 17.412C16.9572 17.6924 16.4899 17.9588 16.015 18.211C15.692 18.031 15.515 17.921 15.515 17.921C15.0676 17.6786 14.6274 17.4232 14.195 17.155V17.156ZM16.522 13.605C17.042 13.315 17.361 13.147 17.361 13.147C17.517 13.074 17.671 13.003 17.821 12.935C17.868 13.506 17.894 14.006 17.908 14.409C17.4506 14.1332 16.9885 13.8652 16.522 13.605ZM14.238 12.969C14.668 13.185 15.092 13.405 15.498 13.622C15.054 13.8679 14.6139 14.121 14.178 14.381C14.185 13.787 14.198 13.428 14.198 13.428L14.238 12.968V12.969ZM14.29 12.44C14.793 7.548 15.598 6.337 15.882 6.055C15.913 6.02423 15.954 6.00544 15.9975 6.00197C16.0411 5.99849 16.0845 6.01055 16.12 6.036C16.56 6.349 16.93 7.653 16.93 7.653C17.397 9.389 17.646 11.08 17.778 12.445C17.1882 12.7281 16.6047 13.0242 16.028 13.333C15.4555 13.0223 14.876 12.7245 14.29 12.44ZM15.996 17.229C16.3233 17.229 16.6371 17.099 16.8686 16.8676C17.1 16.6361 17.23 16.3223 17.23 15.995C17.23 15.6677 17.1 15.3538 16.8686 15.1224C16.6371 14.891 16.3233 14.761 15.996 14.761C15.6687 14.761 15.3548 14.891 15.1234 15.1224C14.892 15.3538 14.762 15.6677 14.762 15.995C14.762 16.3223 14.892 16.6361 15.1234 16.8676C15.3548 17.099 15.6687 17.229 15.996 17.229Z" fill="black"/>
</g>
<defs>
<clipPath id="clip0_16_2356">
<rect width="32" height="32" fill="white"/>
</clipPath>
</defs>
</svg>
