<svg width="32" height="32" viewBox="0 0 32 32" fill="none" xmlns="http://www.w3.org/2000/svg">
<g clip-path="url(#clip0_16_2366)">
<path d="M16 0C24.837 0 32 7.163 32 16C32 24.837 24.837 32 16 32C7.163 32 0 24.837 0 16C0 7.163 7.163 0 16 0ZM23.173 16.503C21.622 17.448 19.098 18.065 16.243 18.065C13.317 18.065 10.738 17.559 9.2 16.572C7.23 17.287 6 18.302 6 19.428C6 21.586 10.518 23.196 16.092 23.196C21.667 23.196 26.185 21.446 26.185 19.285C26.185 18.197 25.031 17.21 23.173 16.503ZM21.092 12.361C19.91 12.978 18.139 13.372 16.152 13.372C14.165 13.372 12.394 12.978 11.212 12.362C9.556 12.902 8.5 13.714 8.5 14.62C8.5 16.255 11.926 17.58 16.152 17.58C20.38 17.58 23.807 16.255 23.804 14.62C23.804 13.714 22.751 12.905 21.092 12.361ZM16.124 8C12.857 8 10.208 9.095 10.208 10.44C10.208 11.786 12.858 12.88 16.124 12.88C19.39 12.88 22.04 11.786 22.04 10.44C22.04 9.095 19.39 8 16.124 8Z" fill="black"/>
</g>
<defs>
<clipPath id="clip0_16_2366">
<rect width="32" height="32" fill="white"/>
</clipPath>
</defs>
</svg>
