<svg width="32" height="32" viewBox="0 0 32 32" fill="none" xmlns="http://www.w3.org/2000/svg">
<g clip-path="url(#clip0_16_2376)">
<path d="M16 32C7.163 32 0 24.837 0 16C0 7.163 7.163 0 16 0C24.837 0 32 7.163 32 16C32 24.837 24.837 32 16 32ZM7.351 19.32C7.358 21.902 8.941 24.251 11.357 25.108C13.787 25.972 15.989 25.514 17.887 23.744C18.074 23.569 18.175 23.572 18.338 23.748C18.617 24.048 18.908 24.339 19.205 24.622C19.367 24.775 19.423 24.913 19.37 25.155C19.188 25.998 19.612 26.819 20.38 27.203C21.083 27.554 21.988 27.383 22.542 26.795C22.8178 26.5033 22.9921 26.1304 23.0391 25.7317C23.0861 25.3331 23.0033 24.9299 22.803 24.582C22.6005 24.2349 22.2906 23.9632 21.9201 23.8077C21.5496 23.6522 21.1385 23.6214 20.749 23.72C20.541 23.772 20.41 23.734 20.27 23.589C19.9195 23.2229 19.5611 22.8645 19.195 22.514C19.042 22.368 19.021 22.254 19.116 22.054C20.372 19.416 19.772 16.52 17.568 14.598C17.365 14.422 17.388 14.328 17.551 14.15C18.8979 12.6838 20.2393 11.2124 21.575 9.736C21.735 9.558 21.88 9.498 22.129 9.55C23.357 9.805 24.567 8.868 24.645 7.624C24.703 6.694 24.235 5.902 23.383 5.489C22.659 5.139 21.657 5.299 21.051 5.864C20.387 6.484 20.181 7.421 20.533 8.288C20.601 8.456 20.644 8.568 20.495 8.729C19.0516 10.303 17.6123 11.8806 16.177 13.462C16.074 13.576 15.991 13.616 15.837 13.55C15.4266 13.3735 14.9939 13.2543 14.551 13.196C14.318 13.166 14.289 13.061 14.291 12.865C14.301 12.188 14.309 11.512 14.288 10.835C14.28 10.565 14.355 10.411 14.595 10.259C15.273 9.829 15.565 8.997 15.355 8.232C15.147 7.472 14.443 6.899 13.672 6.862C12.812 6.822 12.065 7.332 11.784 8.153C11.517 8.93 11.815 9.793 12.544 10.269C12.753 10.405 12.83 10.549 12.825 10.793C12.8085 11.4696 12.8085 12.1464 12.825 12.823C12.832 13.076 12.758 13.163 12.498 13.211C9.464 13.78 7.343 16.308 7.351 19.321V19.32Z" fill="black"/>
</g>
<defs>
<clipPath id="clip0_16_2376">
<rect width="32" height="32" fill="white"/>
</clipPath>
</defs>
</svg>
