<svg width="32" height="32" viewBox="0 0 32 32" fill="none" xmlns="http://www.w3.org/2000/svg">
<g clip-path="url(#clip0_16_2382)">
<path d="M16 32C7.163 32 0 24.837 0 16C0 7.163 7.163 0 16 0C24.837 0 32 7.163 32 16C32 24.837 24.837 32 16 32ZM11.94 7.436C11.7167 7.44908 11.5068 7.54702 11.3533 7.70977C11.1998 7.87252 11.1143 8.08778 11.1143 8.3115C11.1143 8.53522 11.1998 8.75048 11.3533 8.91323C11.5068 9.07598 11.7167 9.17392 11.94 9.187C12.1633 9.17392 12.3732 9.07598 12.5267 8.91323C12.6802 8.75048 12.7657 8.53522 12.7657 8.3115C12.7657 8.08778 12.6802 7.87252 12.5267 7.70977C12.3732 7.54702 12.1633 7.44908 11.94 7.436ZM15.99 5.006C15.7649 5.01676 15.5526 5.11375 15.3971 5.27685C15.2416 5.43995 15.1549 5.65665 15.1549 5.882C15.1549 6.10735 15.2416 6.32405 15.3971 6.48715C15.5526 6.65025 15.7649 6.74724 15.99 6.758C16.2151 6.74724 16.4274 6.65025 16.5829 6.48715C16.7384 6.32405 16.8251 6.10735 16.8251 5.882C16.8251 5.65665 16.7384 5.43995 16.5829 5.27685C16.4274 5.11375 16.2151 5.01676 15.99 5.006ZM15.99 14.725C15.7667 14.7381 15.5568 14.836 15.4033 14.9988C15.2498 15.1615 15.1643 15.3768 15.1643 15.6005C15.1643 15.8242 15.2498 16.0395 15.4033 16.2022C15.5568 16.365 15.7667 16.4629 15.99 16.476C16.2133 16.4629 16.4232 16.365 16.5767 16.2022C16.7302 16.0395 16.8157 15.8242 16.8157 15.6005C16.8157 15.3768 16.7302 15.1615 16.5767 14.9988C16.4232 14.836 16.2133 14.7381 15.99 14.725ZM20.039 12.295C19.9239 12.2951 19.8099 12.3179 19.7037 12.3621C19.5974 12.4063 19.5008 12.4709 19.4195 12.5524C19.3382 12.6339 19.2738 12.7306 19.2298 12.837C19.1859 12.9434 19.1634 13.0574 19.1635 13.1725C19.1636 13.2876 19.1864 13.4016 19.2306 13.5078C19.2748 13.6141 19.3394 13.7107 19.4209 13.792C19.5024 13.8733 19.5991 13.9377 19.7055 13.9817C19.8119 14.0256 19.9259 14.0481 20.041 14.048C20.2735 14.0477 20.4963 13.9551 20.6605 13.7906C20.8247 13.626 20.9168 13.403 20.9165 13.1705C20.9162 12.938 20.8236 12.7152 20.6591 12.551C20.4945 12.3868 20.2715 12.2947 20.039 12.295ZM24.089 9.865C23.9738 9.86507 23.8598 9.88781 23.7534 9.93195C23.647 9.97608 23.5504 10.0407 23.469 10.1222C23.3876 10.2037 23.3231 10.3004 23.2791 10.4068C23.2351 10.5133 23.2124 10.6273 23.2125 10.7425C23.2126 10.8577 23.2353 10.9717 23.2794 11.0781C23.3236 11.1845 23.3882 11.2811 23.4697 11.3625C23.5512 11.4439 23.6479 11.5084 23.7543 11.5524C23.8608 11.5964 23.9748 11.6191 24.09 11.619C24.3173 11.6111 24.5327 11.5151 24.6906 11.3514C24.8485 11.1877 24.9367 10.969 24.9364 10.7415C24.9361 10.5141 24.8475 10.2956 24.6892 10.1322C24.5309 9.96888 24.3153 9.87342 24.088 9.866L24.089 9.865ZM11.939 17.155C11.7157 17.1681 11.5058 17.266 11.3523 17.4288C11.1988 17.5915 11.1133 17.8068 11.1133 18.0305C11.1133 18.2542 11.1988 18.4695 11.3523 18.6322C11.5058 18.795 11.7157 18.8929 11.939 18.906C12.1623 18.8929 12.3722 18.795 12.5257 18.6322C12.6792 18.4695 12.7647 18.2542 12.7647 18.0305C12.7647 17.8068 12.6792 17.5915 12.5257 17.4288C12.3722 17.266 12.1623 17.1681 11.939 17.155ZM7.89 9.865C7.7749 9.86513 7.66095 9.88793 7.55465 9.9321C7.44836 9.97627 7.35181 10.0409 7.27051 10.1224C7.10633 10.287 7.01424 10.51 7.0145 10.7425C7.01477 10.975 7.10736 11.1978 7.27193 11.362C7.43649 11.5262 7.65954 11.6183 7.892 11.618C8.12433 11.6177 8.34704 11.5252 8.51113 11.3607C8.67523 11.1962 8.76727 10.9733 8.767 10.741C8.76674 10.5087 8.67419 10.286 8.50972 10.1219C8.34525 9.95777 8.12233 9.86574 7.89 9.866V9.865ZM7.89 19.585C7.77496 19.5851 7.66108 19.6079 7.55485 19.6521C7.44861 19.6962 7.35212 19.7608 7.27087 19.8423C7.18962 19.9237 7.1252 20.0204 7.0813 20.1267C7.0374 20.233 7.01487 20.347 7.015 20.462C7.01513 20.577 7.03792 20.6909 7.08206 20.7972C7.12621 20.9034 7.19084 20.9999 7.27228 21.0811C7.35372 21.1624 7.45036 21.2268 7.55669 21.2707C7.66302 21.3146 7.77696 21.3371 7.892 21.337C8.12446 21.3367 8.3473 21.2441 8.51149 21.0796C8.67567 20.915 8.76777 20.692 8.7675 20.4595C8.76723 20.227 8.67463 20.0042 8.51007 19.84C8.34551 19.6758 8.12246 19.5837 7.89 19.584V19.585ZM7.89 14.725C7.66666 14.7381 7.45677 14.836 7.30327 14.9988C7.14977 15.1615 7.06427 15.3768 7.06427 15.6005C7.06427 15.8242 7.14977 16.0395 7.30327 16.2022C7.45677 16.365 7.66666 16.4629 7.89 16.476C8.11334 16.4629 8.32323 16.365 8.47673 16.2022C8.63023 16.0395 8.71573 15.8242 8.71573 15.6005C8.71573 15.3768 8.63023 15.1615 8.47673 14.9988C8.32323 14.836 8.11334 14.7381 7.89 14.725ZM15.99 9.865C15.7574 9.865 15.5343 9.9574 15.3699 10.1219C15.2054 10.2863 15.113 10.5094 15.113 10.742C15.113 10.9746 15.2054 11.1977 15.3699 11.3621C15.5343 11.5266 15.7574 11.619 15.99 11.619C16.2173 11.6113 16.4328 11.5156 16.5909 11.3521C16.749 11.1885 16.8374 10.97 16.8374 10.7425C16.8374 10.515 16.749 10.2965 16.5909 10.1329C16.4328 9.96939 16.2173 9.87368 15.99 9.866V9.865ZM20.039 7.435C19.9238 7.43513 19.8098 7.45795 19.7035 7.50214C19.5971 7.54634 19.5005 7.61104 19.4192 7.69257C19.3378 7.7741 19.2733 7.87086 19.2294 7.97731C19.1854 8.08376 19.1629 8.19783 19.163 8.313C19.1631 8.42817 19.1859 8.54219 19.2301 8.64854C19.2743 8.75489 19.339 8.8515 19.4206 8.93284C19.5021 9.01418 19.5989 9.07867 19.7053 9.12263C19.8118 9.16658 19.9258 9.18913 20.041 9.189C20.2683 9.18107 20.4837 9.08511 20.6416 8.92139C20.7995 8.75768 20.8877 8.539 20.8874 8.31153C20.8871 8.08406 20.7985 7.86559 20.6402 7.70223C20.4819 7.53888 20.2663 7.44342 20.039 7.436V7.435ZM20.039 17.155C19.924 17.1551 19.8101 17.1778 19.7038 17.2219C19.5976 17.266 19.501 17.3305 19.4197 17.4119C19.3384 17.4933 19.274 17.5899 19.23 17.6962C19.186 17.8025 19.1634 17.9165 19.1635 18.0315C19.1636 18.1465 19.1863 18.2604 19.2304 18.3667C19.2745 18.4729 19.339 18.5695 19.4204 18.6508C19.5018 18.7321 19.5984 18.7965 19.7047 18.8405C19.811 18.8845 19.925 18.9071 20.04 18.907C20.2723 18.9069 20.4951 18.8144 20.6593 18.6501C20.8235 18.4857 20.9156 18.2628 20.9155 18.0305C20.9154 17.7982 20.8229 17.5754 20.6586 17.4112C20.4942 17.247 20.2713 17.1549 20.039 17.155ZM24.089 14.725C23.8657 14.7381 23.6558 14.836 23.5023 14.9988C23.3488 15.1615 23.2633 15.3768 23.2633 15.6005C23.2633 15.8242 23.3488 16.0395 23.5023 16.2022C23.6558 16.365 23.8657 16.4629 24.089 16.476C24.3123 16.4629 24.5222 16.365 24.6757 16.2022C24.8292 16.0395 24.9147 15.8242 24.9147 15.6005C24.9147 15.3768 24.8292 15.1615 24.6757 14.9988C24.5222 14.836 24.3123 14.7381 24.089 14.725ZM20.039 22.014C19.9239 22.0141 19.8099 22.0368 19.7036 22.0809C19.5973 22.125 19.5007 22.1896 19.4194 22.2711C19.338 22.3525 19.2735 22.4492 19.2295 22.5555C19.1855 22.6619 19.1629 22.7759 19.163 22.891C19.1631 23.0061 19.1858 23.1201 19.2299 23.2264C19.274 23.3327 19.3386 23.4293 19.4201 23.5106C19.5015 23.592 19.5982 23.6565 19.7045 23.7005C19.8109 23.7445 19.9249 23.7671 20.04 23.767C20.2725 23.7669 20.4953 23.6744 20.6596 23.5099C20.8239 23.3455 20.9161 23.1225 20.916 22.89C20.9159 22.6575 20.8234 22.4346 20.6589 22.2704C20.4945 22.1061 20.2715 22.0139 20.039 22.014ZM24.089 19.584C23.8639 19.5948 23.6516 19.6917 23.4961 19.8549C23.3406 20.018 23.2539 20.2347 23.2539 20.46C23.2539 20.6853 23.3406 20.902 23.4961 21.0651C23.6516 21.2283 23.8639 21.3252 24.089 21.336C24.3141 21.3252 24.5264 21.2283 24.6819 21.0651C24.8374 20.902 24.9241 20.6853 24.9241 20.46C24.9241 20.2347 24.8374 20.018 24.6819 19.8549C24.5264 19.6917 24.3141 19.5948 24.089 19.584ZM15.989 24.444C15.7657 24.4571 15.5558 24.555 15.4023 24.7178C15.2488 24.8805 15.1633 25.0958 15.1633 25.3195C15.1633 25.5432 15.2488 25.7585 15.4023 25.9212C15.5558 26.084 15.7657 26.1819 15.989 26.195C16.2212 26.195 16.444 26.1029 16.6084 25.9388C16.7728 25.7748 16.8655 25.5522 16.866 25.32C16.8657 25.0878 16.7734 24.8651 16.6091 24.7009C16.4449 24.5366 16.2222 24.4443 15.99 24.444H15.989ZM15.989 19.584C15.8738 19.5841 15.7598 19.6069 15.6535 19.6511C15.5471 19.6953 15.4505 19.76 15.3692 19.8416C15.2878 19.9231 15.2233 20.0199 15.1794 20.1263C15.1354 20.2328 15.1129 20.3468 15.113 20.462C15.1131 20.5772 15.1359 20.6912 15.1801 20.7975C15.2243 20.9039 15.289 21.0005 15.3706 21.0818C15.4521 21.1632 15.5489 21.2277 15.6553 21.2716C15.7618 21.3156 15.8758 21.3381 15.991 21.338C16.2236 21.3379 16.4466 21.2453 16.611 21.0808C16.7754 20.9162 16.8676 20.6931 16.8675 20.4605C16.8674 20.2279 16.7748 20.0049 16.6103 19.8405C16.4457 19.6761 16.2226 19.5839 15.99 19.584H15.989ZM11.939 12.295C11.7157 12.3081 11.5058 12.406 11.3523 12.5688C11.1988 12.7315 11.1133 12.9468 11.1133 13.1705C11.1133 13.3942 11.1988 13.6095 11.3523 13.7722C11.5058 13.935 11.7157 14.0329 11.939 14.046C12.1608 14.031 12.3687 13.9323 12.5205 13.7698C12.6723 13.6074 12.7568 13.3933 12.7568 13.171C12.7568 12.9487 12.6723 12.7346 12.5205 12.5722C12.3687 12.4097 12.1608 12.311 11.939 12.296V12.295ZM11.939 22.014C11.7157 22.0271 11.5058 22.125 11.3523 22.2878C11.1988 22.4505 11.1133 22.6658 11.1133 22.8895C11.1133 23.1132 11.1988 23.3285 11.3523 23.4912C11.5058 23.654 11.7157 23.7519 11.939 23.765C12.1623 23.7519 12.3722 23.654 12.5257 23.4912C12.6792 23.3285 12.7647 23.1132 12.7647 22.8895C12.7647 22.6658 12.6792 22.4505 12.5257 22.2878C12.3722 22.125 12.1623 22.0271 11.939 22.014Z" fill="black"/>
</g>
<defs>
<clipPath id="clip0_16_2382">
<rect width="32" height="32" fill="white"/>
</clipPath>
</defs>
</svg>
