<svg width="32" height="32" viewBox="0 0 32 32" fill="none" xmlns="http://www.w3.org/2000/svg">
<g clip-path="url(#clip0_16_2386)">
<path fill-rule="evenodd" clip-rule="evenodd" d="M16 32C7.163 32 0 24.837 0 16C0 7.163 7.163 0 16 0C24.837 0 32 7.163 32 16C32 24.837 24.837 32 16 32ZM14.122 20.826C13.9524 21.1284 13.8635 21.4693 13.864 21.816C13.864 22.931 14.767 23.839 15.898 23.881V24.251C15.6775 24.2682 15.4714 24.3674 15.3204 24.529C15.1694 24.6906 15.0843 24.9028 15.082 25.124C15.082 25.608 15.484 26 15.98 26C16.0965 26.0015 16.2121 25.9799 16.3203 25.9367C16.4285 25.8935 16.5271 25.8293 16.6104 25.748C16.6938 25.6667 16.7604 25.5697 16.8063 25.4626C16.8522 25.3555 16.8766 25.2405 16.878 25.124C16.8762 24.9168 16.8016 24.7168 16.6673 24.559C16.5329 24.4012 16.3473 24.2957 16.143 24.261V23.876C17.235 23.795 18.096 22.904 18.096 21.816C18.096 21.456 18.001 21.116 17.834 20.821L19.368 19.958C19.74 20.48 20.36 20.822 21.061 20.822C21.769 20.822 22.394 20.474 22.765 19.943L23.278 20.233C23.2291 20.3428 23.2039 20.4618 23.204 20.582C23.204 21.066 23.606 21.458 24.102 21.458C24.598 21.458 25 21.066 25 20.582C25 20.098 24.598 19.705 24.102 19.705C23.9692 19.7045 23.8379 19.7333 23.7174 19.7893C23.5969 19.8453 23.4903 19.9272 23.405 20.029L22.891 19.739C23.04 19.46 23.124 19.144 23.124 18.809C23.124 17.704 22.211 16.806 21.082 16.796V15.178C22.197 15.168 23.097 14.282 23.097 13.191C23.097 12.871 23.019 12.568 22.881 12.3L23.381 11.982C23.4659 12.0924 23.5751 12.1817 23.7002 12.2429C23.8252 12.3042 23.9628 12.3357 24.102 12.335C24.598 12.335 25 11.942 25 11.458C25 10.974 24.598 10.582 24.102 10.582C23.9855 10.5805 23.8699 10.6021 23.7617 10.6453C23.6535 10.6885 23.5549 10.7527 23.4716 10.834C23.3882 10.9153 23.3216 11.0123 23.2757 11.1194C23.2298 11.2265 23.2054 11.3415 23.204 11.458C23.204 11.568 23.225 11.674 23.264 11.772L22.758 12.093C22.5691 11.8176 22.3157 11.5927 22.0199 11.4377C21.7241 11.2828 21.3949 11.2025 21.061 11.204C20.344 11.204 19.714 11.566 19.351 12.112L17.821 11.251C17.962 10.978 18.042 10.669 18.042 10.343C18.042 9.271 17.184 8.395 16.102 8.333V7.745C16.3147 7.71883 16.5107 7.61627 16.6534 7.45642C16.7962 7.29657 16.876 7.0903 16.878 6.876C16.8766 6.75951 16.8522 6.64445 16.8063 6.53739C16.7604 6.43032 16.6938 6.33334 16.6104 6.252C16.5271 6.17065 16.4285 6.10653 16.3203 6.06329C16.2121 6.02005 16.0965 5.99855 15.98 6C15.8635 5.99855 15.7479 6.02005 15.6397 6.06329C15.5315 6.10653 15.4329 6.17065 15.3496 6.252C15.2662 6.33334 15.1996 6.43032 15.1537 6.53739C15.1078 6.64445 15.0834 6.75951 15.082 6.876C15.082 7.32 15.419 7.686 15.857 7.745V8.333C14.775 8.395 13.917 9.271 13.917 10.343C13.917 10.668 13.997 10.976 14.137 11.248L12.604 12.098C12.4144 11.827 12.162 11.606 11.8684 11.4538C11.5748 11.3016 11.2487 11.2227 10.918 11.224C10.231 11.224 9.623 11.557 9.255 12.066L8.735 11.776C8.77504 11.6748 8.7954 11.5669 8.795 11.458C8.7921 11.2229 8.69599 10.9986 8.5278 10.8344C8.3596 10.6701 8.13308 10.5793 7.898 10.582C7.402 10.582 7 10.974 7 11.458C7 11.942 7.402 12.335 7.898 12.335C8.03649 12.3356 8.17326 12.3043 8.29775 12.2436C8.42224 12.1829 8.53113 12.0944 8.616 11.985L9.126 12.269C8.96631 12.5573 8.88268 12.8815 8.883 13.211C8.883 14.281 9.75 15.155 10.837 15.197V16.751C9.721 16.793 8.829 17.689 8.829 18.789C8.829 19.146 8.923 19.481 9.089 19.773L8.608 20.045C8.52295 19.9385 8.4149 19.8525 8.29195 19.7937C8.169 19.7348 8.03432 19.7045 7.898 19.705C7.402 19.705 7 20.098 7 20.582C7 21.066 7.402 21.458 7.898 21.458C8.01448 21.4595 8.13012 21.4379 8.23829 21.3947C8.34646 21.3515 8.44506 21.2873 8.52845 21.206C8.61183 21.1247 8.67838 21.0277 8.72429 20.9206C8.7702 20.8135 8.79456 20.6985 8.796 20.582C8.79605 20.4687 8.77362 20.3566 8.73 20.252L9.219 19.975C9.598 20.492 10.218 20.828 10.919 20.828C11.618 20.828 12.237 20.493 12.616 19.978L14.122 20.826ZM14.252 20.623L12.747 19.776C12.913 19.483 13.007 19.146 13.007 18.789C13.007 17.716 12.159 16.837 11.082 16.756V15.192C12.13 15.111 12.954 14.255 12.954 13.212C12.9545 12.8948 12.8773 12.5824 12.729 12.302L14.26 11.455C14.63 11.998 15.262 12.355 15.98 12.355C16.696 12.355 17.328 11.999 17.697 11.457L19.231 12.32C19.0957 12.5904 19.0255 12.8887 19.026 13.191C19.026 14.215 19.818 15.057 20.836 15.166V16.807C19.803 16.917 18.999 17.771 18.999 18.809C18.999 19.151 19.086 19.472 19.239 19.754L17.704 20.619C17.5053 20.3488 17.2455 20.1293 16.946 19.9785C16.6464 19.8277 16.3154 19.7497 15.98 19.751C15.6436 19.7496 15.3116 19.8278 15.0112 19.9794C14.7109 20.131 14.4507 20.3515 14.252 20.623ZM10.918 19.857C10.6314 19.8602 10.3552 19.7495 10.1501 19.5493C9.94496 19.3491 9.82769 19.0756 9.824 18.789C9.824 18.199 10.314 17.721 10.918 17.721C11.523 17.721 12.013 18.199 12.013 18.789C12.013 19.379 11.523 19.857 10.918 19.857ZM10.918 14.252C10.329 14.252 9.852 13.786 9.852 13.212C9.852 12.638 10.329 12.17 10.918 12.17C11.508 12.17 11.985 12.636 11.985 13.211C11.985 13.786 11.507 14.252 10.918 14.252ZM15.98 11.397C15.383 11.397 14.9 10.925 14.9 10.343C14.9 9.76 15.383 9.288 15.98 9.288C16.576 9.288 17.06 9.76 17.06 10.343C17.06 10.925 16.576 11.397 15.98 11.397ZM21.061 14.232C20.7818 14.2352 20.5127 14.1275 20.3129 13.9325C20.113 13.7375 19.9987 13.4712 19.995 13.192C19.995 12.616 20.472 12.15 21.061 12.15C21.65 12.15 22.128 12.616 22.128 13.191C22.128 13.766 21.65 14.232 21.061 14.232ZM21.061 19.863C20.465 19.863 19.981 19.391 19.981 18.809C19.981 18.226 20.465 17.754 21.061 17.754C21.658 17.754 22.141 18.226 22.141 18.809C22.141 19.391 21.658 19.863 21.061 19.863ZM15.98 22.9C15.367 22.9 14.871 22.415 14.871 21.818C14.871 21.221 15.367 20.736 15.98 20.736C16.592 20.736 17.088 21.22 17.088 21.818C17.088 22.416 16.592 22.9 15.98 22.9ZM15.98 18.92C17.632 18.92 18.97 17.613 18.97 16.001C18.97 14.389 17.632 13.081 15.98 13.081C14.328 13.081 12.989 14.389 12.989 16.001C12.989 17.613 14.328 18.921 15.979 18.921L15.98 18.92ZM15.98 17.145C15.332 17.145 14.807 16.633 14.807 16.001C14.807 15.369 15.332 14.857 15.98 14.857C16.627 14.857 17.152 15.369 17.152 16.001C17.152 16.633 16.627 17.145 15.98 17.145Z" fill="black"/>
</g>
<defs>
<clipPath id="clip0_16_2386">
<rect width="32" height="32" fill="white"/>
</clipPath>
</defs>
</svg>
