<svg width="32" height="32" viewBox="0 0 32 32" fill="none" xmlns="http://www.w3.org/2000/svg">
<g clip-path="url(#clip0_16_2388)">
<path d="M16 32C7.163 32 0 24.837 0 16C0 7.163 7.163 0 16 0C24.837 0 32 7.163 32 16C32 24.837 24.837 32 16 32ZM16 27C22.075 27 27 22.075 27 16C27 9.925 22.075 5 16 5C9.925 5 5 9.925 5 16C5 22.075 9.925 27 16 27ZM16 25.898C10.534 25.898 6.102 21.466 6.102 16C6.102 10.534 10.534 6.102 16 6.102C21.466 6.102 25.898 10.534 25.898 16C25.898 21.466 21.466 25.898 16 25.898ZM22.043 12.12C22.043 12.12 22.043 8.794 16.943 8.572H10.845V23.43H17.608C17.608 23.43 22.43 23.261 22.43 18.939C22.43 18.939 22.596 16.279 19.492 15.835C19.492 15.835 22.208 15.059 22.042 12.121L22.043 12.12ZM14.337 11.233H16.942C18.605 11.343 18.605 12.507 18.605 12.507V13.394C18.495 14.78 16.776 14.835 16.776 14.835H14.337V11.233ZM18.937 19.383C18.827 20.769 17.109 20.823 17.109 20.823H14.336V17.22H17.275C18.938 17.331 18.938 18.496 18.938 18.496L18.937 19.383Z" fill="black"/>
</g>
<defs>
<clipPath id="clip0_16_2388">
<rect width="32" height="32" fill="white"/>
</clipPath>
</defs>
</svg>
