<svg width="32" height="32" viewBox="0 0 32 32" fill="none" xmlns="http://www.w3.org/2000/svg">
<g clip-path="url(#clip0_16_2390)">
<path fill-rule="evenodd" clip-rule="evenodd" d="M16 32C7.163 32 0 24.837 0 16C0 7.163 7.163 0 16 0C24.837 0 32 7.163 32 16C32 24.837 24.837 32 16 32ZM9.328 8.617C9.324 11.734 9.328 14.85 9.324 17.968C9.968 15.889 11.612 14.143 13.674 13.431C15.468 12.802 17.534 12.918 19.216 13.821C19.216 13.646 19.216 13.472 19.218 13.297C17.112 12.285 14.531 12.335 12.482 13.465C12.502 10.749 12.479 8.033 12.493 5.317C11.5084 6.31008 10.5191 7.29842 9.525 8.282C9.445 8.382 9.309 8.47 9.328 8.617ZM22.718 20.279C22.728 16.354 22.706 12.428 22.728 8.503C21.648 7.418 20.568 6.331 19.478 5.257C19.508 5.766 19.499 6.276 19.498 6.785C19.496 10.84 19.512 14.895 19.506 18.949C19.499 19.735 19.579 20.556 19.259 21.299C18.756 22.609 17.399 23.529 15.993 23.494C14.531 23.51 13.148 22.489 12.711 21.098C12.221 19.688 12.778 18.009 14.007 17.163C15.124 16.353 16.732 16.318 17.889 17.065C18.474 17.431 18.916 17.983 19.214 18.6C19.2025 17.106 19.2025 15.612 19.214 14.118C17.389 13.113 15.094 13.038 13.209 13.926C11.7715 14.593 10.6146 15.7446 9.941 17.179C9.348 18.453 9.155 19.919 9.44 21.298C9.768 23.04 10.839 24.62 12.318 25.593C13.6191 26.4564 15.181 26.838 16.7337 26.6719C18.2863 26.5057 19.7321 25.8022 20.821 24.683C21.9789 23.5019 22.6552 21.9318 22.718 20.279Z" fill="black"/>
</g>
<defs>
<clipPath id="clip0_16_2390">
<rect width="32" height="32" fill="white"/>
</clipPath>
</defs>
</svg>
