<svg width="32" height="32" viewBox="0 0 32 32" fill="none" xmlns="http://www.w3.org/2000/svg">
<g clip-path="url(#clip0_16_2392)">
<path d="M16 32C7.163 32 0 24.837 0 16C0 7.163 7.163 0 16 0C24.837 0 32 7.163 32 16C32 24.837 24.837 32 16 32ZM27.16 12.66V10.46L20 14.63L15.58 7.01V12.01L17.83 15.91L16.92 16.45L15.58 14.09L14.14 16.65L13.14 16.24L15.58 12.01V7.01L10.74 15.25L4 12.46V15.01L10 16.49L6.2 23.01H15.58V20.32H10.79L12.58 17.18L13.66 17.45L12.58 19.35H18.58L17.68 17.76L18.87 17.67L20.4 20.32H15.58V23.01H25L21.76 17.48L27.2 17.08V14.87L21.08 16.38L27.19 14.81V12.81L20.56 15.5L27.16 12.66ZM18.46 17.01L17.38 17.28L18.44 17.01H18.46ZM18.12 16.41L17.12 16.81L18.12 16.4V16.41Z" fill="black"/>
</g>
<defs>
<clipPath id="clip0_16_2392">
<rect width="32" height="32" fill="white"/>
</clipPath>
</defs>
</svg>
