<svg width="32" height="32" viewBox="0 0 32 32" fill="none" xmlns="http://www.w3.org/2000/svg">
<g clip-path="url(#clip0_16_2400)">
<path fill-rule="evenodd" clip-rule="evenodd" d="M16 32C7.163 32 0 24.837 0 16C0 7.163 7.163 0 16 0C24.837 0 32 7.163 32 16C32 24.837 24.837 32 16 32ZM23.1 11.13C23.053 8.216 19.699 7.47 19.699 7.47C19.699 7.47 21.581 8.736 21.629 11.299C21.676 13.862 20.664 14.862 20.664 14.862C20.664 14.862 23.147 14.043 23.1 11.13ZM11.936 24.819V7.169L8.5 7V7.289C8.5 7.289 10.603 7.843 10.603 11.037V20.677C10.603 24.45 8.5 24.667 8.5 24.667V24.987L11.936 24.819ZM17.428 24.999C18.922 24.988 21.217 23.941 21.641 21.087C22.064 18.233 20.971 16.921 20.405 16.439C19.84 15.958 18.24 15.404 18.24 15.404C18.24 15.404 19.298 14.862 19.781 14.079C20.264 13.296 20.641 11.864 20.287 10.359C19.934 8.854 18.64 7.349 17.133 7.132C15.627 6.916 14.988 7.168 13.16 7.192V24.802C13.16 24.802 15.933 25.012 17.428 24.999ZM21.399 24.349C21.399 24.349 24.535 23.446 24.499 20.015C24.465 16.584 21.399 15.813 21.399 15.813C21.399 15.813 22.886 17.167 22.957 20.048C23.028 22.929 21.4 24.35 21.4 24.35L21.399 24.349ZM18.299 14.015C17.2 15.476 14.463 15.091 14.463 15.091C14.463 15.091 14.45 8.925 14.721 8.66C14.991 8.395 16.392 7.925 17.721 8.865C19.051 9.805 19.397 12.554 18.298 14.015H18.299ZM18.502 16.64C19.53 17.097 20.832 18.654 20.197 21.166C19.562 23.679 17.632 23.751 16.62 23.711C15.608 23.671 14.634 23.687 14.525 20.773C14.416 17.859 14.462 16.303 14.462 16.303C14.462 16.303 17.474 16.182 18.502 16.64Z" fill="#181818"/>
</g>
<defs>
<clipPath id="clip0_16_2400">
<rect width="32" height="32" fill="white"/>
</clipPath>
</defs>
</svg>
