<svg width="32" height="32" viewBox="0 0 32 32" fill="none" xmlns="http://www.w3.org/2000/svg">
<g clip-path="url(#clip0_16_2408)">
<path d="M16 32C7.163 32 0 24.837 0 16C0 7.163 7.163 0 16 0C24.837 0 32 7.163 32 16C32 24.837 24.837 32 16 32ZM15.92 5.88L11.402 8.527L15.92 11.175L20.523 8.527L15.92 5.88ZM16.663 20.014V25.309L22.8 21.808V16.512L16.663 20.014ZM21.266 10.192L16.662 12.84V18.136L21.266 15.488V10.192ZM10.184 15.488L14.788 18.136V12.84L10.184 10.192V15.488ZM10.184 22.662L14.788 25.309V20.014L10.184 17.367V22.661V22.662Z" fill="black"/>
</g>
<defs>
<clipPath id="clip0_16_2408">
<rect width="32" height="32" fill="white"/>
</clipPath>
</defs>
</svg>
