<svg width="32" height="32" viewBox="0 0 32 32" fill="none" xmlns="http://www.w3.org/2000/svg">
<g clip-path="url(#clip0_16_2412)">
<path d="M16 32C7.163 32 0 24.837 0 16C0 7.163 7.163 0 16 0C24.837 0 32 7.163 32 16C32 24.837 24.837 32 16 32ZM7.773 22.98L8.63 25.782L10.17 25.311L10.122 25.151L11.757 27.576L13.092 26.676L12.979 26.508L15.267 28.36L16.28 27.108L16.105 26.967L18.877 28.03L19.454 26.527L19.306 26.47L22.201 26.673L22.314 25.066L22.091 25.051L24.983 24.383L24.621 22.813L24.358 22.875L26.975 21.364L26.17 19.969L25.918 20.114L28 17.882L26.822 16.783L26.626 16.993L27.966 14.246L26.519 13.54L26.401 13.78L26.877 10.778L25.287 10.526L25.253 10.736L24.784 7.777L23.194 8.029L23.204 8.101L21.955 5.539L20.508 6.245L20.549 6.33L18.601 4.241L17.423 5.34L17.521 5.444L15.019 4L14.214 5.395L14.394 5.499L11.527 4.837L11.164 6.406L11.435 6.469L8.433 6.679L8.545 8.285L8.88 8.262L6.013 9.362L6.59 10.866L6.897 10.748L4.496 12.692L5.509 13.944L5.669 13.814L4 16.289L5.335 17.189L5.442 17.031L4.572 19.876L6.112 20.347L6.162 20.184V23.137H7.772V22.981L7.773 22.98ZM7.773 21.066V18.376H6.715L7.505 15.794L6.485 15.483L7.997 13.243L7.112 12.646L9.209 10.948L8.537 10.118L11.034 9.16L10.642 8.138L13.294 7.953L13.219 6.88L15.803 7.477L16.04 6.449L18.337 7.775L18.856 6.875L20.67 8.821L21.422 8.12L22.595 10.523L23.517 10.073L23.938 12.731L24.963 12.569L24.542 15.227L25.613 15.397L24.433 17.817L25.412 18.296L23.575 20.265L24.372 21.007L22.047 22.349L22.587 23.283L19.982 23.885L20.222 24.92L17.565 24.734L17.492 25.774L15.01 24.821L14.641 25.781L12.581 24.113L11.917 24.933L10.43 22.729L9.56 23.316L8.779 20.759L7.773 21.066ZM11.333 11.217L10.115 19.927H13.682C14.068 19.927 14.462 19.886 14.863 19.804C15.2512 19.7272 15.6251 19.5902 15.971 19.398C16.307 19.209 16.594 18.961 16.831 18.653C17.07 18.346 17.221 17.963 17.287 17.503C17.3284 17.2414 17.3199 16.9744 17.262 16.716C17.2104 16.4823 17.1098 16.2621 16.967 16.07C16.8232 15.8818 16.6408 15.7267 16.432 15.615C16.2003 15.4913 15.9483 15.4101 15.688 15.375V15.35C16.155 15.211 16.551 14.98 16.875 14.655C17.199 14.332 17.394 13.924 17.459 13.431C17.525 12.956 17.484 12.574 17.336 12.287C17.1923 12.0042 16.9673 11.7709 16.69 11.617C16.3849 11.4497 16.0511 11.3412 15.706 11.297C15.333 11.2437 14.9568 11.217 14.58 11.217H11.332H11.333ZM12.76 14.7L13.018 12.842H14.322C14.47 12.842 14.619 12.856 14.772 12.885C14.922 12.914 15.056 12.961 15.171 13.026C15.2843 13.0903 15.3762 13.1867 15.435 13.303C15.4997 13.4436 15.5192 13.6008 15.491 13.753C15.466 13.925 15.411 14.073 15.325 14.195C15.2413 14.3156 15.132 14.4164 15.005 14.49C14.8767 14.5643 14.7378 14.6182 14.593 14.65C14.445 14.683 14.297 14.7 14.15 14.7H12.76ZM12.255 18.304L12.538 16.324H13.99C14.146 16.324 14.312 16.336 14.488 16.36C14.664 16.385 14.826 16.43 14.974 16.496C15.1152 16.5559 15.2353 16.6565 15.319 16.785C15.401 16.912 15.429 17.078 15.405 17.283C15.3862 17.4564 15.3225 17.6219 15.22 17.763C15.0305 18.019 14.7518 18.1946 14.439 18.255C14.279 18.287 14.125 18.304 13.978 18.304H12.255ZM21.515 11.356L19.064 11.007L17.796 18.678L19.478 18.796L21.515 11.356ZM19.739 19.572L17.485 19.028L16.973 21.549L19.21 22.201L19.74 19.572H19.739Z" fill="black"/>
</g>
<defs>
<clipPath id="clip0_16_2412">
<rect width="32" height="32" fill="white"/>
</clipPath>
</defs>
</svg>
