<svg width="32" height="32" viewBox="0 0 32 32" fill="none" xmlns="http://www.w3.org/2000/svg">
<g clip-path="url(#clip0_16_2414)">
<path fill-rule="evenodd" clip-rule="evenodd" d="M16 32C7.163 32 0 24.837 0 16C0 7.163 7.163 0 16 0C24.837 0 32 7.163 32 16C32 24.837 24.837 32 16 32ZM14.432 18.95H17.091C21.031 18.95 23 17.869 23 15.705V10.245C23 8.083 21.03 7 17.09 7H10V12.016H12.66V8.918H17.386C19.356 8.918 20.341 9.41 20.341 10.393V15.557C20.341 16.541 19.356 17.033 17.386 17.033H14.432V18.951V18.95ZM20.341 20.131V21.607C20.341 22.59 19.356 23.082 17.386 23.082H12.66V15.41H17.387C17.709 15.41 18.005 15.423 18.274 15.45V13.528C17.8805 13.5033 17.4863 13.4913 17.092 13.492H10V25H17.09C21.03 25 23 23.918 23 21.754V20.131H20.34H20.341Z" fill="black"/>
</g>
<defs>
<clipPath id="clip0_16_2414">
<rect width="32" height="32" fill="white"/>
</clipPath>
</defs>
</svg>
