<svg width="32" height="32" viewBox="0 0 32 32" fill="none" xmlns="http://www.w3.org/2000/svg">
<g clip-path="url(#clip0_16_2416)">
<path d="M16 32C7.163 32 0 24.837 0 16C0 7.163 7.163 0 16 0C24.837 0 32 7.163 32 16C32 24.837 24.837 32 16 32ZM25.884 20.737C25.904 20.697 25.927 20.661 25.947 20.619C26.5727 19.3012 26.9273 17.8712 26.9899 16.4138C27.0525 14.9564 26.8218 13.5012 26.3115 12.1347C25.8012 10.7681 25.0216 9.51789 24.019 8.45826C23.0164 7.39862 21.8113 6.55112 20.475 5.966V5.95C20.365 5.901 20.253 5.866 20.143 5.82C19.9978 5.7596 19.8511 5.70292 19.703 5.65C19.5044 5.5761 19.3029 5.51038 19.099 5.453C18.618 5.30745 18.127 5.19716 17.63 5.123C17.057 5.03452 16.4777 4.99338 15.898 5C15.774 5 15.65 5 15.528 5.01C14.8036 5.03973 14.0839 5.14225 13.38 5.316C12.8707 5.43936 12.3713 5.60047 11.886 5.798C11.5673 5.92478 11.2549 6.06694 10.95 6.224C10.753 6.327 10.557 6.437 10.36 6.551C10.2534 6.61376 10.1484 6.67911 10.045 6.747C9.85255 6.87637 9.66121 7.00737 9.471 7.14C9.18461 7.35037 8.90735 7.57291 8.64 7.807C8.37669 8.04325 8.12474 8.29186 7.885 8.552C7.64168 8.81746 7.41205 9.09515 7.197 9.384C7.10083 9.51133 7.00976 9.64243 6.924 9.777C6.857 9.875 6.782 9.973 6.717 10.067C6.652 10.162 6.619 10.243 6.567 10.329C6.497 10.447 6.428 10.567 6.371 10.689C6.251 10.907 6.137 11.127 6.033 11.349C5.99693 11.3864 5.9699 11.4315 5.954 11.481C5.93529 11.5376 5.91393 11.5934 5.89 11.648C5.64323 12.2181 5.44779 12.8091 5.306 13.414C5.14287 14.0945 5.04476 14.7889 5.013 15.488C5.013 15.638 5.001 15.788 5.001 15.94C5.001 16.136 5.001 16.333 5.017 16.53C5.017 16.685 5.034 16.84 5.048 16.995C5.066 17.192 5.093 17.389 5.121 17.585C5.135 17.727 5.168 17.885 5.188 18.035C5.225 18.232 5.272 18.428 5.321 18.625C5.365 18.771 5.391 18.906 5.43 19.048C5.489 19.244 5.557 19.453 5.626 19.653C5.671 19.781 5.716 19.909 5.766 20.035C5.846 20.231 5.936 20.44 6.029 20.638C6.17439 20.9561 6.33731 21.2659 6.517 21.566C6.586 21.684 6.654 21.8 6.727 21.914C6.839 22.089 6.959 22.26 7.081 22.429C7.169 22.553 7.26 22.675 7.354 22.795C7.449 22.915 7.598 23.088 7.724 23.231C7.94809 23.4901 8.18611 23.7368 8.437 23.97C8.69061 24.2128 8.9577 24.4412 9.237 24.654C9.417 24.794 9.597 24.928 9.786 25.048C9.836 25.081 9.878 25.118 9.928 25.152C11.1386 25.9639 12.4998 26.5246 13.931 26.801C15.3621 27.0775 16.8342 27.0639 18.2601 26.7613C19.686 26.4586 21.0366 25.873 22.2321 25.039C23.4276 24.205 24.4436 23.1397 25.22 21.906H25.232C25.269 21.847 25.299 21.784 25.336 21.723C25.416 21.592 25.491 21.454 25.568 21.316C25.682 21.13 25.788 20.935 25.885 20.736L25.884 20.737ZM11.828 25.237C10.7896 24.7688 9.83756 24.1288 9.012 23.344C8.90059 23.2408 8.79189 23.1348 8.686 23.026C8.58 22.916 8.462 22.784 8.356 22.662C8.25 22.54 8.128 22.399 8.02 22.269C7.911 22.139 7.85 22.045 7.768 21.931C7.656 21.773 7.544 21.616 7.442 21.455C7.375 21.349 7.312 21.243 7.245 21.135C7.143 20.96 7.048 20.783 6.95 20.604C6.895 20.498 6.846 20.389 6.795 20.281C6.718 20.087 6.635 19.904 6.561 19.715C6.516 19.601 6.476 19.485 6.435 19.371C6.36744 19.185 6.30575 18.9969 6.25 18.807C6.213 18.679 6.182 18.553 6.15 18.427C6.105 18.243 6.062 18.057 6.026 17.873C6.001 17.728 5.979 17.6 5.953 17.464C5.92539 17.2813 5.90271 17.0979 5.885 16.914C5.871 16.774 5.863 16.634 5.855 16.495C5.855 16.308 5.839 16.122 5.839 15.935C5.839 15.799 5.839 15.664 5.851 15.53C5.851 15.333 5.873 15.137 5.893 14.94C5.904 14.818 5.922 14.694 5.938 14.572C5.98221 14.2523 6.04195 13.9349 6.117 13.621C6.172 13.394 6.237 13.169 6.313 12.945C6.342 12.853 6.373 12.761 6.403 12.67C6.51593 12.343 6.64543 12.0219 6.791 11.708C6.889 11.496 6.988 11.291 7.107 11.088C7.168 10.981 7.227 10.873 7.292 10.765C7.47233 10.4677 7.66655 10.1791 7.874 9.9C8.0736 9.63522 8.2855 9.37994 8.509 9.135C8.651 8.983 8.795 8.833 8.942 8.685C9.18368 8.45339 9.4363 8.23347 9.699 8.026C9.786 7.956 9.875 7.891 9.966 7.83C10.14 7.698 10.318 7.577 10.499 7.464C10.7706 7.29198 11.0495 7.13183 11.335 6.984C11.6166 6.84139 11.9038 6.71028 12.196 6.591C12.7775 6.35502 13.3803 6.1752 13.996 6.054C14.1836 6.01593 14.3724 5.98391 14.562 5.958C14.685 5.941 14.809 5.925 14.934 5.911C15.141 5.89 15.348 5.875 15.557 5.866H15.895C16.11 5.866 16.325 5.871 16.542 5.881L16.878 5.905C17.2112 5.93335 17.5427 5.97942 17.871 6.043C18.2063 6.10615 18.538 6.18659 18.865 6.284C19.1904 6.37954 19.5102 6.49305 19.823 6.624C21.1046 7.14253 22.2659 7.91898 23.2349 8.90514C24.2038 9.8913 24.9597 11.0661 25.4556 12.3567C25.9515 13.6472 26.1768 15.0259 26.1175 16.4071C26.0582 17.7884 25.7156 19.1427 25.111 20.386C25.021 20.582 24.914 20.756 24.821 20.936C24.751 21.058 24.684 21.182 24.611 21.302C23.3194 23.396 21.3108 24.9494 18.9593 25.6729C16.6077 26.3964 14.0734 26.2408 11.828 25.235V25.237ZM15.98 24.412C18.2114 24.4078 20.3501 23.5188 21.927 21.94C23.504 20.3612 24.3904 18.2214 24.392 15.99C24.3912 14.325 23.8967 12.6976 22.9709 11.3137C22.0452 9.92974 20.7299 8.85141 19.1913 8.21506C17.6527 7.57871 15.9599 7.41293 14.3271 7.73868C12.6942 8.06443 11.1947 8.86708 10.018 10.0451C8.8414 11.2232 8.04054 12.7237 7.71673 14.3569C7.39292 15.9901 7.56071 17.6827 8.19889 19.2205C8.83707 20.7584 9.91696 22.0724 11.302 22.9965C12.687 23.9206 14.315 24.4132 15.98 24.412ZM15.98 10.334V10.33C17.4794 10.3334 18.9163 10.9311 19.9759 11.992C21.0355 13.0529 21.6314 14.4906 21.633 15.99C21.6338 17.1099 21.3023 18.2049 20.6806 19.1363C20.0588 20.0678 19.1747 20.7939 18.1401 21.2227C17.1056 21.6515 15.9671 21.7637 14.8687 21.5452C13.7703 21.3267 12.7614 20.7873 11.9697 19.9952C11.178 19.2031 10.6391 18.1939 10.4212 17.0954C10.2033 15.9969 10.3161 14.8584 10.7455 13.8241C11.1748 12.7897 11.9014 11.906 12.8332 11.2848C13.7649 10.6635 14.8601 10.3326 15.98 10.334Z" fill="black"/>
</g>
<defs>
<clipPath id="clip0_16_2416">
<rect width="32" height="32" fill="white"/>
</clipPath>
</defs>
</svg>
