<svg width="32" height="32" viewBox="0 0 32 32" fill="none" xmlns="http://www.w3.org/2000/svg">
<g clip-path="url(#clip0_16_2418)">
<path fill-rule="evenodd" clip-rule="evenodd" d="M16 32C7.163 32 0 24.837 0 16C0 7.163 7.163 0 16 0C24.837 0 32 7.163 32 16C32 24.837 24.837 32 16 32ZM9.966 21.094C12.353 23.197 15.628 22.922 17.599 21.142C19.62 19.317 20.072 16.386 18.677 14.091C17.754 12.572 16.397 11.683 14.633 11.414C12.852 11.142 11.323 11.707 9.95 12.854C9.95 11.862 9.947 10.914 9.952 9.968C9.95699 9.71616 9.91161 9.46587 9.81854 9.23181C9.72546 8.99775 9.58657 8.78464 9.41 8.605C9.22901 8.41288 9.01044 8.26003 8.76788 8.15595C8.52532 8.05187 8.26395 7.99879 8 8V22.367H9.966V21.094ZM9.962 16.954C9.962 14.844 11.688 13.136 13.82 13.134C14.3284 13.1308 14.8323 13.2287 15.3025 13.4221C15.7727 13.6155 16.1997 13.9004 16.5587 14.2604C16.9177 14.6203 17.2016 15.0481 17.3937 15.5188C17.5859 15.9894 17.6825 16.4936 17.678 17.002C17.677 19.086 15.953 20.789 13.831 20.802C13.3239 20.8048 12.8212 20.7073 12.3518 20.5152C11.8825 20.323 11.4557 20.04 11.0961 19.6825C10.7365 19.3249 10.4511 18.8997 10.2563 18.4315C10.0615 17.9633 9.96112 17.4611 9.961 16.954H9.962ZM16.325 22.341C18.471 23.001 20.349 22.575 22.047 21.152V24.022C22.047 24.553 22.227 25.017 22.599 25.398C22.978 25.786 23.444 25.985 24 26V11.631H22.03V12.907C21.25 12.259 20.416 11.785 19.45 11.566C18.477 11.346 17.518 11.409 16.534 11.679L16.692 11.775C17.209 12.072 17.694 12.417 18.094 12.859C18.31 13.097 18.541 13.218 18.864 13.279C21.034 13.693 22.347 15.599 21.975 17.759C21.692 19.402 20.188 20.747 18.518 20.843C18.4457 20.8454 18.3747 20.8626 18.3093 20.8935C18.2439 20.9245 18.1856 20.9686 18.138 21.023C17.6659 21.5264 17.1066 21.9401 16.487 22.244C16.444 22.266 16.403 22.294 16.325 22.341Z" fill="#1D1D1D"/>
</g>
<defs>
<clipPath id="clip0_16_2418">
<rect width="32" height="32" fill="white"/>
</clipPath>
</defs>
</svg>
