<svg width="32" height="32" viewBox="0 0 32 32" fill="none" xmlns="http://www.w3.org/2000/svg">
<g clip-path="url(#clip0_16_2420)">
<path fill-rule="evenodd" clip-rule="evenodd" d="M16 32C7.163 32 0 24.837 0 16C0 7.163 7.163 0 16 0C24.837 0 32 7.163 32 16C32 24.837 24.837 32 16 32ZM8 9.039V22.961C8 23.535 8.472 24 9.054 24H16.486C21.17 24 22.91 23.245 23.976 22.194C24.3224 21.839 24.5918 21.4163 24.7673 20.9524C24.9428 20.4885 25.0206 19.9934 24.996 19.498C24.996 17.374 23.676 16.318 21.078 15.864C23.768 15.313 24.765 14.058 24.765 12.207C24.7929 11.7282 24.7201 11.249 24.5513 10.8001C24.3825 10.3512 24.1215 9.94273 23.785 9.601C22.697 8.528 21.118 8 16.642 8H9.054C8.472 8 8 8.465 8 9.039ZM13.761 15.001V16.818C13.7581 16.9125 13.7747 17.0065 13.8098 17.0943C13.8449 17.182 13.8977 17.2616 13.965 17.328C14.101 17.464 14.288 17.538 14.481 17.533H16.861C18.387 17.533 19.522 17.573 20.058 18.101C20.301 18.361 20.426 18.707 20.404 19.061C20.4156 19.2326 20.3907 19.4047 20.3311 19.566C20.2714 19.7273 20.1784 19.8742 20.058 19.997C19.528 20.525 18.393 20.639 16.861 20.639H12.361V11.407H16.907C18.318 11.407 19.361 11.492 19.851 11.974C20.071 12.211 20.181 12.529 20.151 12.849C20.172 13.177 20.055 13.499 19.828 13.74C19.344 14.24 18.301 14.308 16.907 14.308H14.464C14.3723 14.3073 14.2814 14.3247 14.1965 14.3592C14.1116 14.3937 14.0342 14.4445 13.969 14.5089C13.9037 14.5732 13.8517 14.6498 13.816 14.7343C13.7804 14.8187 13.7617 14.9093 13.761 15.001Z" fill="black"/>
</g>
<defs>
<clipPath id="clip0_16_2420">
<rect width="32" height="32" fill="white"/>
</clipPath>
</defs>
</svg>
