<svg width="32" height="32" viewBox="0 0 32 32" fill="none" xmlns="http://www.w3.org/2000/svg">
<g clip-path="url(#clip0_16_2424)">
<path d="M16 32C7.163 32 0 24.837 0 16C0 7.163 7.163 0 16 0C24.837 0 32 7.163 32 16C32 24.837 24.837 32 16 32ZM22.15 14.57C22.1333 14.5701 22.117 14.5749 22.1029 14.5837C22.0888 14.5925 22.0774 14.6051 22.07 14.62V14.18L21.96 14.24C21.89 14.31 21.89 14.32 21.89 14.43V15.25C21.8762 15.3294 21.8762 15.4106 21.89 15.49C21.8994 15.6292 21.8681 15.7682 21.8 15.89L21.62 16.01H21.53C21.5224 15.9805 21.5224 15.9495 21.53 15.92V15.59H21.46C21.4222 15.6312 21.3918 15.6785 21.37 15.73C21.2777 15.895 21.2295 16.081 21.23 16.27C21.206 16.42 21.206 16.57 21.23 16.72C21.2591 16.8175 21.2634 16.9207 21.2424 17.0202C21.2215 17.1198 21.1759 17.2125 21.11 17.29C21.0796 17.3269 21.0371 17.3518 20.99 17.36C20.9502 17.36 20.9112 17.3712 20.8776 17.3924C20.844 17.4137 20.817 17.4441 20.8 17.48L20.74 17.61C20.6992 17.5101 20.669 17.4062 20.65 17.3V16.92C20.5884 16.9603 20.5313 17.0072 20.48 17.06C20.2049 17.5026 20.0498 18.0092 20.03 18.53C20.01 18.65 20.01 18.79 19.82 18.77C19.63 18.75 19.54 18.92 19.49 19.01C19.44 19.1 19.39 19.1 19.32 19.01C19.2668 18.9244 19.2387 18.8257 19.2387 18.725C19.2387 18.6243 19.2668 18.5256 19.32 18.44L19.39 18.3C19.3333 18.2862 19.2742 18.2854 19.217 18.2975C19.1599 18.3096 19.1063 18.3344 19.06 18.37C18.7811 18.5313 18.5392 18.7493 18.35 19.01L17.92 19.7C17.7825 19.9609 17.6073 20.2002 17.4 20.41C17.237 20.5605 17.0399 20.6691 16.8257 20.7266C16.6114 20.7841 16.3864 20.7887 16.17 20.74C15.8138 20.6408 15.4875 20.4553 15.22 20.2C14.923 19.9023 14.6674 19.5659 14.46 19.2C14.2978 18.8862 14.1864 18.5487 14.13 18.2C14.11 18.13 14.08 18.2 13.99 18.2C13.74 18.35 13.448 18.41 13.16 18.37C12.9755 18.3411 12.8028 18.2612 12.6614 18.1393C12.5201 18.0173 12.4156 17.8582 12.36 17.68C12.3436 17.6314 12.3121 17.5894 12.27 17.56C12.2 17.49 12.1 17.44 12.03 17.37C11.9118 17.2155 11.8516 17.0244 11.86 16.83C11.816 16.8436 11.7697 16.8482 11.7239 16.8434C11.6781 16.8386 11.6338 16.8246 11.5936 16.8022C11.5534 16.7797 11.5181 16.7493 11.49 16.7129C11.4619 16.6764 11.4415 16.6346 11.43 16.59C11.3544 16.4611 11.3146 16.3144 11.3146 16.165C11.3146 16.0156 11.3544 15.8689 11.43 15.74C11.4399 15.7108 11.4399 15.6792 11.43 15.65C11.26 15.46 10.93 15.13 10.93 15.13V15.04C11.08 14.78 11.272 14.546 11.5 14.35C11.5172 14.325 11.5264 14.2954 11.5264 14.265C11.5264 14.2346 11.5172 14.205 11.5 14.18C11.4693 14.1196 11.4532 14.0528 11.4532 13.985C11.4532 13.9172 11.4693 13.8504 11.5 13.79C11.5639 13.6692 11.6447 13.5581 11.74 13.46L11.39 13.37L10.39 13.16C10.322 13.1364 10.248 13.1364 10.18 13.16C9.8876 13.3584 9.62496 13.5975 9.4 13.87C9.32446 13.9695 9.25435 14.073 9.19 14.18V14.25L9.31 14.18L9.48 14C9.38533 14.121 9.29849 14.2479 9.22 14.38C9.03 14.75 8.82 15.13 8.65 15.51C8.53589 15.7038 8.47709 15.9251 8.48 16.15V16.27L8.57 16.18C8.6068 16.1308 8.63705 16.077 8.66 16.02C8.59263 16.1896 8.53585 16.3633 8.49 16.54C8.33922 17.0219 8.26828 17.5252 8.28 18.03C8.297 18.245 8.361 18.454 8.47 18.64C8.49 18.73 8.61 18.78 8.61 18.73V18.18C8.685 18.373 8.748 18.57 8.8 18.77C8.843 18.94 8.873 19.115 8.89 19.29C8.96 19.64 9.01 20 9.1 20.35C9.164 20.497 9.252 20.632 9.36 20.75H9.55V20.58L9.48 20.44C9.43206 20.3179 9.43206 20.1821 9.48 20.06L10.12 20.77C10.1247 20.7811 10.1271 20.793 10.1271 20.805C10.1271 20.817 10.1247 20.8289 10.12 20.84C10.144 21.17 10.233 21.493 10.38 21.79C10.4409 21.9407 10.5462 22.0692 10.682 22.1585C10.8178 22.2479 10.9775 22.2937 11.14 22.29H11.26C11.17 22.24 11.22 22.25 11.17 22.17C11.12 22.09 11.05 22.08 11 22C10.95 21.92 11.05 21.83 11.12 21.83C11.211 21.8457 11.2988 21.8761 11.38 21.92C11.8439 22.2573 12.3436 22.5423 12.87 22.77L13.56 23.05L13.8 23.14C13.64 23.59 13.47 24.02 13.33 24.42C13.23 24.21 13.14 23.97 13.02 23.76L12.88 23.48C12.851 23.4183 12.8078 23.3643 12.7539 23.3226C12.7 23.2809 12.637 23.2526 12.57 23.24C12.3703 23.2514 12.1717 23.2026 12 23.1C11.81 23.08 11.53 23.15 11.46 23.34C11.5602 23.3062 11.6675 23.2996 11.7711 23.3206C11.8747 23.3417 11.971 23.3898 12.05 23.46C11.93 23.72 12 23.89 12.24 23.96C12.3177 23.9811 12.3868 24.0264 12.4371 24.0893C12.4874 24.1522 12.5165 24.2295 12.52 24.31C12.58 24.483 12.603 24.667 12.59 24.85C12.515 24.8311 12.445 24.7963 12.3846 24.748C12.3242 24.6997 12.2749 24.639 12.24 24.57C12.087 24.3044 11.8568 24.0916 11.58 23.96C11.39 23.86 11.18 23.82 11.04 24.03H10.95C10.847 24.018 10.743 24.018 10.64 24.03C10.41 24.07 10.31 24.29 10.24 24.5C10.3795 24.4082 10.543 24.3595 10.71 24.36C10.76 24.36 10.8 24.4 10.8 24.45C10.8098 24.5094 10.8426 24.5626 10.8912 24.5981C10.9398 24.6336 11.0004 24.6487 11.06 24.64L11.6 24.85C11.7055 24.8879 11.8019 24.9475 11.8828 25.0251C11.9638 25.1026 12.0276 25.1962 12.07 25.3H11.93C11.7402 25.2881 11.5498 25.2881 11.36 25.3C11.1068 25.3182 10.8624 25.4008 10.65 25.54C10.4574 25.6238 10.3038 25.7774 10.22 25.97C10.1971 26.0381 10.1971 26.1119 10.22 26.18V26.32C10.2078 26.3995 10.2078 26.4805 10.22 26.56C10.251 26.7046 10.3241 26.8368 10.43 26.94C10.3975 26.7193 10.4397 26.494 10.55 26.3C10.83 26.44 10.93 26.42 11.14 26.18L11.28 26C11.3575 25.9539 11.4435 25.924 11.5329 25.912C11.6222 25.9 11.7131 25.9061 11.8 25.93L12.51 26.02C12.517 26.0428 12.517 26.0672 12.51 26.09C12.3751 26.2913 12.2058 26.4673 12.01 26.61C11.8827 26.6941 11.7909 26.8223 11.7521 26.9699C11.7134 27.1175 11.7304 27.2742 11.8 27.41C11.8122 27.466 11.8122 27.524 11.8 27.58C11.7849 27.6338 11.7808 27.6902 11.7877 27.7456C11.7947 27.8011 11.8127 27.8546 11.8407 27.9031C11.8686 27.9515 11.9059 27.9939 11.9505 28.0277C11.995 28.0615 12.0458 28.0861 12.1 28.1V27.72C12.2102 27.7592 12.3313 27.754 12.4377 27.7055C12.5441 27.6569 12.6274 27.5689 12.67 27.46C12.7485 27.3016 12.8057 27.1334 12.84 26.96C12.925 26.654 13.14 26.401 13.43 26.27C13.6408 26.222 13.8262 26.0972 13.95 25.92L14.02 26.01C14.0848 26.1356 14.1842 26.24 14.3065 26.3109C14.4288 26.3818 14.5688 26.4162 14.71 26.41C14.76 26.41 14.8 26.45 14.8 26.5L14.87 26.98C14.92 26.91 15.04 26.84 15.04 26.77C15.1011 26.6635 15.1406 26.5459 15.156 26.424C15.1715 26.3021 15.1626 26.1784 15.13 26.06C15.1184 26.0421 15.1122 26.0213 15.1122 26C15.1122 25.9787 15.1184 25.9579 15.13 25.94C15.1706 25.885 15.1925 25.8184 15.1925 25.75C15.1925 25.6816 15.1706 25.615 15.13 25.56C15.0315 25.3543 14.8657 25.1885 14.66 25.09L14.28 24.92L14.42 24.85L14.85 24.64C14.9 24.64 14.94 24.57 14.99 24.64C15.04 24.71 15.11 24.78 15.11 24.85C15.0948 24.9387 15.0713 25.0257 15.04 25.11H15.16C15.2786 25.0575 15.3821 24.9759 15.4608 24.8728C15.5394 24.7696 15.5908 24.6483 15.61 24.52C15.63 24.38 15.71 24.26 15.8 24.26C15.89 24.26 15.99 24.19 16.06 24.26C16.0934 24.2934 16.1174 24.335 16.1297 24.3807C16.142 24.4263 16.1421 24.4743 16.13 24.52L16.06 24.73C16.2 24.64 16.34 24.56 16.46 24.47C16.733 24.292 16.92 24.01 16.98 23.69C17.0008 23.6243 17.0371 23.5646 17.0859 23.5159C17.1346 23.4671 17.1943 23.4308 17.26 23.41C17.4748 23.3916 17.6885 23.3616 17.9 23.32C18.2815 23.2557 18.6588 23.1689 19.03 23.06C19.5803 22.8966 20.1053 22.6576 20.59 22.35C20.95 22.13 21.28 21.92 21.59 21.66C21.8729 21.4313 22.134 21.1768 22.37 20.9C22.6031 20.6498 22.8171 20.3824 23.01 20.1C23.236 19.76 23.44 19.406 23.62 19.04C23.8351 18.6339 24.0029 18.2044 24.12 17.76C24.2819 17.1829 24.3759 16.5889 24.4 15.99C24.4238 15.587 24.4238 15.183 24.4 14.78C24.4114 14.6703 24.4114 14.5597 24.4 14.45L25.11 14.64C25.0677 14.7293 25.0102 14.8105 24.94 14.88C24.8708 14.9295 24.8196 15.0002 24.7943 15.0815C24.7691 15.1627 24.7711 15.25 24.8 15.33C24.875 15.502 24.976 15.66 25.1 15.8C25.1491 15.8572 25.2107 15.9023 25.2801 15.9318C25.3495 15.9613 25.4247 15.9743 25.5 15.97C25.45 15.89 25.52 15.97 25.38 15.8C25.24 15.63 25.24 15.61 25.38 15.49C25.4266 15.4495 25.4671 15.4023 25.5 15.35C25.5439 15.2688 25.5743 15.181 25.59 15.09L25.8 15.18C26.0391 15.2828 26.234 15.4671 26.35 15.7C26.3602 15.733 26.3769 15.7637 26.3991 15.7902C26.4213 15.8167 26.4486 15.8384 26.4793 15.8543C26.51 15.8701 26.5436 15.8796 26.5781 15.8823C26.6125 15.885 26.6472 15.8809 26.68 15.87C26.8 15.85 26.87 15.87 26.87 15.99V16.04H26.92C26.9794 16.0118 27.0252 15.9614 27.0477 15.8996C27.0701 15.8379 27.0674 15.7697 27.04 15.71C26.97 15.56 26.87 15.42 26.8 15.28C26.7357 15.1642 26.6453 15.065 26.5359 14.9904C26.4266 14.9157 26.3012 14.8676 26.17 14.85C26.2837 14.7932 26.3938 14.7298 26.5 14.66C26.5681 14.6195 26.6458 14.5981 26.725 14.5981C26.8042 14.5981 26.8819 14.6195 26.95 14.66C26.9836 14.6924 27.0284 14.7105 27.075 14.7105C27.1216 14.7105 27.1664 14.6924 27.2 14.66C27.2242 14.6368 27.2565 14.6238 27.29 14.6238C27.3235 14.6238 27.3558 14.6368 27.38 14.66L27.57 14.8C27.5776 14.7705 27.5776 14.7395 27.57 14.71C27.5578 14.5823 27.4969 14.4641 27.4 14.38C27.3482 14.3449 27.3068 14.2966 27.28 14.24C27.2448 14.1597 27.1823 14.0946 27.1035 14.0561C27.0248 14.0177 26.9349 14.0084 26.85 14.03C26.7252 14.0672 26.5983 14.0973 26.47 14.12C26.5267 14.0443 26.5903 13.974 26.66 13.91C26.8 13.82 26.87 13.77 26.8 13.63L27.13 13.47C27.101 13.4028 27.0516 13.3464 26.9888 13.3087C26.926 13.271 26.853 13.254 26.78 13.26C26.6645 13.2829 26.5455 13.2829 26.43 13.26C26.3912 13.2463 26.3488 13.2463 26.31 13.26C26.19 13.31 26.17 13.47 26.12 13.57C26.0602 13.6645 26.0195 13.7698 26 13.88C25.91 13.69 25.83 13.67 26 13.48C26.17 13.29 26.14 13.2 26 13.03C26.0351 12.9692 26.0536 12.9002 26.0536 12.83C26.0536 12.7598 26.0351 12.6908 26 12.63C25.9177 12.6494 25.844 12.695 25.7899 12.7599C25.7358 12.8248 25.7042 12.9056 25.7 12.99H25.61C25.42 12.96 25.33 13.15 25.33 13.34C25.342 13.56 25.342 13.78 25.33 14H25.26C25.2382 13.9485 25.2078 13.9012 25.17 13.86C24.9521 13.6182 24.7218 13.3879 24.48 13.17C24.2693 12.9575 24.0076 12.8026 23.72 12.72C23.65 12.72 23.65 12.63 23.65 12.63C23.5563 12.3354 23.4031 12.0631 23.2 11.83C23.0169 11.6449 22.9068 11.3999 22.89 11.14C22.89 11.07 22.8 11.02 22.8 10.95C22.6434 11.31 22.6186 11.7136 22.73 12.09C22.79 12.263 22.813 12.447 22.8 12.63C22.7289 12.6621 22.6618 12.7023 22.6 12.75C22.55 12.8 22.43 12.94 22.43 12.87V12.8C22.441 12.754 22.441 12.706 22.43 12.66C22.4121 12.6262 22.3884 12.5957 22.36 12.57L22.29 12.64C22.301 12.686 22.301 12.734 22.29 12.78C22.1935 13.1412 22.2181 13.5241 22.36 13.87C22.3937 13.9603 22.3937 14.0597 22.36 14.15C22.3708 14.2129 22.3708 14.2771 22.36 14.34C22.22 14.29 22.22 14.36 22.22 14.43L22.15 14.57ZM9.86 10.01C9.91586 10.0536 9.95761 10.1128 9.98 10.18C10.306 10.388 10.664 10.54 11.04 10.63C11.46 10.76 11.96 10.83 12.46 10.93C12.707 10.945 12.951 10.985 13.19 11.05C13.697 11.184 14.181 11.39 14.63 11.66C14.6516 11.6714 14.6756 11.6773 14.7 11.6773C14.7244 11.6773 14.7484 11.6714 14.77 11.66C14.98 11.59 15.17 11.49 15.38 11.42C15.7542 11.2956 16.1457 11.2315 16.54 11.23H17.15C17.432 11.275 17.71 11.345 17.98 11.44C18.45 11.613 18.877 11.886 19.23 12.24V11.89C19.23 11.58 19.415 11.3 19.7 11.18C19.8074 11.1349 19.9259 11.1232 20.04 11.1464C20.1542 11.1695 20.2587 11.2266 20.34 11.31C20.4983 11.4851 20.5841 11.7139 20.58 11.95C20.6051 12.2829 20.6051 12.6171 20.58 12.95C20.5553 13.1725 20.4567 13.3802 20.3 13.54V13.71C20.481 14.144 20.57 14.61 20.56 15.08C20.5732 15.3983 20.5497 15.7171 20.49 16.03V16.22C20.54 16.17 20.55 16.22 20.63 16.08C20.71 15.94 20.73 15.77 20.8 15.63C20.8437 15.4897 20.9243 15.3636 21.0333 15.2651C21.1424 15.1666 21.276 15.0992 21.42 15.07V14.55C21.4209 14.3853 21.4624 14.2233 21.5409 14.0785C21.6194 13.9338 21.7324 13.8106 21.87 13.72V13.65C21.8225 13.3519 21.8225 13.0481 21.87 12.75C21.8798 12.636 21.9123 12.5251 21.9655 12.4237C22.0188 12.3224 22.0917 12.2328 22.18 12.16C22.1899 12.1308 22.1899 12.0992 22.18 12.07C22.1679 11.8502 22.1679 11.6298 22.18 11.41C22.2867 11.0879 22.3341 10.7491 22.32 10.41C22.299 10.2595 22.2516 10.114 22.18 9.98C22.092 9.86899 22.0119 9.75205 21.94 9.63C21.8264 9.46318 21.6993 9.30598 21.56 9.16C21.5105 9.10186 21.4493 9.05486 21.3804 9.02211C21.3114 8.98936 21.2363 8.9716 21.16 8.97C21.23 9.16 21.44 9.3 21.35 9.56C21.286 9.49031 21.2157 9.4267 21.14 9.37C21.1048 9.3549 21.0737 9.33158 21.0494 9.30201C21.025 9.27243 21.0081 9.23745 21 9.2C20.9233 8.97037 20.7849 8.76626 20.6 8.61C20.5239 8.52767 20.4275 8.46678 20.3204 8.43344C20.2133 8.40009 20.0994 8.39546 19.99 8.42L20.08 8.49C20.146 8.52107 20.2038 8.56706 20.2489 8.62433C20.2941 8.68161 20.3252 8.7486 20.34 8.82V9.03H20.2C20.08 8.96 19.97 8.86 19.8 8.77C19.7519 8.58681 19.6618 8.41734 19.5368 8.27501C19.4118 8.13268 19.2554 8.02141 19.08 7.95C18.945 7.88472 18.7993 7.84409 18.65 7.83C18.56 7.76 18.48 7.83 18.39 7.83H18.46C18.534 7.8546 18.5987 7.90139 18.6452 7.964C18.6917 8.02662 18.7178 8.10203 18.72 8.18C18.6818 8.19817 18.6415 8.2116 18.6 8.22H18.53C18.4782 8.15174 18.4093 8.09827 18.3304 8.06493C18.2514 8.03159 18.1651 8.01954 18.08 8.03C18.038 7.89728 17.9809 7.76979 17.91 7.65C17.8211 7.52051 17.7055 7.41156 17.5709 7.33049C17.4364 7.24942 17.286 7.19811 17.13 7.18C17.021 7.1587 16.909 7.1587 16.8 7.18V7.33H17C17.0322 7.34503 17.0612 7.36629 17.0852 7.39254C17.1092 7.4188 17.1277 7.44953 17.1398 7.48298C17.1519 7.51644 17.1572 7.55194 17.1556 7.58747C17.1539 7.623 17.1452 7.65784 17.13 7.69C17.11 7.6 17.16 7.67 17.04 7.6C16.9129 7.54956 16.7767 7.52573 16.64 7.53C16.5799 7.51602 16.5225 7.49238 16.47 7.46C16.3357 7.2824 16.1561 7.14423 15.95 7.06C15.8102 7.0038 15.6581 6.9853 15.509 7.00636C15.3598 7.02742 15.2188 7.0873 15.1 7.18H15.17C15.2336 7.17799 15.296 7.19769 15.3469 7.23586C15.3977 7.27403 15.4341 7.32839 15.45 7.39V7.48H15.38C15.3226 7.44564 15.2569 7.42749 15.19 7.42749C15.1231 7.42749 15.0574 7.44564 15 7.48C14.9496 7.49244 14.8967 7.49062 14.8472 7.47472C14.7978 7.45883 14.7537 7.42949 14.72 7.39H14.65C14.4947 7.26825 14.3068 7.19518 14.11 7.18C13.8935 7.151 13.6744 7.20849 13.5 7.34C13.481 7.36036 13.4705 7.38716 13.4705 7.415C13.4705 7.44284 13.481 7.46964 13.5 7.49C13.59 7.49 13.5 7.56 13.59 7.49C13.68 7.42 13.71 7.51 13.8 7.56C13.89 7.61 13.89 7.68 13.8 7.68L13.45 7.8C13.28 7.89 13.07 7.8 13 7.8H12.96C12.6896 7.71673 12.4004 7.71673 12.13 7.8C11.97 7.87 11.8 8.01 11.8 8.18C11.8295 8.18762 11.8605 8.18762 11.89 8.18C11.98 8.06 12.08 8.13 12.15 8.18C12.22 8.23 12.24 8.32 12.15 8.32L11.58 8.63C11.5582 8.64061 11.5343 8.64612 11.51 8.64612C11.4857 8.64612 11.4618 8.64061 11.44 8.63C11.1815 8.53685 10.8985 8.53685 10.64 8.63C10.5614 8.66404 10.4912 8.71476 10.4342 8.77866C10.3773 8.84255 10.3349 8.91808 10.31 9V9.12H10.4C10.48 9.12 10.57 9.05 10.57 9.12C10.57 9.19 10.64 9.26 10.57 9.33C10.5248 9.35237 10.4841 9.38288 10.45 9.42L9.86 10.01ZM19.31 14.71L19.09 14.72C18.9686 14.7109 18.8537 14.6618 18.7632 14.5804C18.6727 14.4989 18.6118 14.3898 18.59 14.27C18.5855 14.2158 18.5619 14.165 18.5234 14.1266C18.485 14.0881 18.4342 14.0645 18.38 14.06C18.17 14.08 18.12 13.96 18.05 13.82C18.039 13.774 18.039 13.726 18.05 13.68C18.0738 13.5672 18.1374 13.4667 18.2292 13.3969C18.321 13.3271 18.4349 13.2927 18.55 13.3H19.4C19.543 13.3171 19.6869 13.2774 19.801 13.1896C19.915 13.1017 19.9901 12.9726 20.01 12.83C20.0821 12.5006 20.0821 12.1594 20.01 11.83C20.01 11.75 20.04 11.66 19.92 11.66C19.8 11.66 19.8 11.73 19.8 11.8V12.44C19.7796 12.5462 19.726 12.6431 19.6469 12.7168C19.5678 12.7905 19.4673 12.8371 19.36 12.85C19.1897 12.8959 19.0103 12.8959 18.84 12.85C18.6299 12.8032 18.4153 12.7798 18.2 12.78C18.0473 12.7578 17.8915 12.7845 17.755 12.8564C17.6184 12.9283 17.5081 13.0416 17.44 13.18C17.39 13.27 17.49 13.32 17.3 13.44C17.1165 13.5548 16.9261 13.6583 16.73 13.75C16.693 13.7792 16.6472 13.7951 16.6 13.7951C16.5528 13.7951 16.507 13.7792 16.47 13.75C16.3517 13.6564 16.2106 13.5959 16.0613 13.5748C15.9119 13.5537 15.7596 13.5728 15.62 13.63H15.5C15.448 13.5986 15.4068 13.5521 15.3818 13.4968C15.3568 13.4414 15.3492 13.3798 15.36 13.32C15.4795 12.9974 15.4795 12.6426 15.36 12.32C15.3205 12.2433 15.2574 12.1814 15.1799 12.1436C15.1024 12.1058 15.0147 12.094 14.93 12.11C14.77 12.18 14.63 12.25 14.46 12.11C14.0511 11.7541 13.5535 11.5157 13.02 11.42C12.57 11.32 12.1 11.25 11.65 11.18C11.37 11.13 11.08 11.08 10.8 11.01C10.3124 10.8853 9.85608 10.6605 9.46 10.35C9.30537 10.2116 9.15529 10.0682 9.01 9.92L8.75 9.64C8.72308 9.62872 8.69419 9.62292 8.665 9.62292C8.63581 9.62292 8.60692 9.62872 8.58 9.64V9.85C8.68 10.151 8.869 10.416 9.12 10.61C9.41874 10.8551 9.75686 11.0479 10.12 11.18C10.47 11.287 10.828 11.37 11.19 11.43L11.85 11.5C12.3369 11.54 12.8153 11.6512 13.27 11.83C13.512 11.935 13.75 12.051 13.98 12.18V12.29C13.857 12.3408 13.7299 12.381 13.6 12.41C13.5821 12.4216 13.5613 12.4278 13.54 12.4278C13.5187 12.4278 13.4979 12.4216 13.48 12.41C13.17 12.29 12.86 12.15 12.53 12.03C12.3221 11.965 12.1073 11.9247 11.89 11.91L11.32 11.84C11.06 11.77 10.85 11.82 10.54 11.77C10.23 11.72 9.93 11.65 9.62 11.58C9.2385 11.4811 8.87894 11.3115 8.56 11.08C8.3 10.89 8.06 10.63 7.8 10.42L7.64 10.33H7.52V10.45C7.55233 10.5655 7.59939 10.6765 7.66 10.78C7.92 11.18 8.26 11.52 8.66 11.78C9.047 12.024 9.468 12.21 9.91 12.33C10.2759 12.4623 10.6546 12.5562 11.04 12.61C11.316 12.644 11.586 12.718 11.84 12.83C12.12 12.92 12.41 13.06 12.69 13.18C12.7997 13.2402 12.9035 13.3105 13 13.39C12.8506 13.518 12.672 13.6073 12.48 13.65L11.94 13.75C11.8783 13.7612 11.8212 13.7897 11.7751 13.8322C11.7291 13.8747 11.6961 13.9294 11.68 13.99C12.005 14.002 12.325 14.067 12.63 14.18C12.976 14.3 13.246 14.573 13.36 14.92L13.29 14.85C13.1031 14.6684 12.8775 14.5316 12.63 14.45C12.3615 14.3547 12.0685 14.3547 11.8 14.45C11.66 14.55 11.49 14.71 11.4 14.78C11.31 14.85 11.33 14.9 11.4 14.97C11.614 15.19 11.873 15.36 12.16 15.47H12.04C11.9374 15.4991 11.8452 15.557 11.7744 15.6367C11.7035 15.7164 11.6569 15.8147 11.64 15.92C11.6424 15.96 11.6424 16 11.64 16.04H11.76C11.83 16.04 11.91 15.97 12 16.04C12.1234 16.0994 12.23 16.1888 12.31 16.3C12.3214 16.3216 12.3273 16.3456 12.3273 16.37C12.3273 16.3944 12.3214 16.4184 12.31 16.44C12.2592 16.563 12.219 16.6901 12.19 16.82C12.12 16.84 12.14 16.96 12.19 16.96C12.2343 16.9362 12.2748 16.9059 12.31 16.87L12.38 17.01C12.4199 17.1319 12.4846 17.2443 12.57 17.34C12.6888 17.4577 12.8419 17.5347 13.0072 17.5598C13.1725 17.585 13.3416 17.557 13.49 17.48C13.6722 17.3771 13.8461 17.2601 14.01 17.13C14.0598 17.0773 14.1276 17.0452 14.2 17.04C14.293 17.0285 14.387 17.0285 14.48 17.04C14.5 17.0423 14.5189 17.0501 14.5348 17.0624C14.5506 17.0748 14.5628 17.0912 14.57 17.11C14.5845 17.1681 14.5838 17.229 14.5681 17.2867C14.5523 17.3445 14.522 17.3973 14.48 17.44C14.3809 17.513 14.2873 17.5932 14.2 17.68C14.3512 17.7386 14.5188 17.7386 14.67 17.68C14.8545 17.6063 15.0165 17.4856 15.14 17.33C15.1729 17.2916 15.1977 17.2471 15.2132 17.1991C15.2286 17.151 15.2344 17.1003 15.23 17.05C15.1496 16.8182 15.0861 16.5809 15.04 16.34C15.02 16.15 14.95 16.03 14.76 16.03C14.7697 16.0762 14.7697 16.1238 14.76 16.17C14.69 16.26 14.71 16.26 14.57 16.17L14.17 15.89C14.084 15.8346 14.0145 15.7571 13.9687 15.6656C13.923 15.5741 13.9027 15.472 13.91 15.37C13.91 15.3196 13.93 15.2713 13.9656 15.2357C14.0013 15.2 14.0496 15.18 14.1 15.18C14.1804 15.224 14.2472 15.2892 14.2931 15.3686C14.3389 15.4479 14.3621 15.5384 14.36 15.63C14.3694 15.6762 14.3694 15.7238 14.36 15.77L14.57 15.63L15.02 15.75C15.17 15.762 15.32 15.762 15.47 15.75C15.4582 15.8597 15.4582 15.9703 15.47 16.08C15.548 16.529 15.7 16.961 15.92 17.36C16.11 17.73 16.32 18.11 16.49 18.49C16.5542 18.6047 16.5935 18.7317 16.6056 18.8626C16.6177 18.9935 16.6021 19.1255 16.56 19.25V19.32C16.5305 19.3903 16.4874 19.4541 16.4332 19.5077C16.3791 19.5613 16.3148 19.6038 16.2443 19.6325C16.1737 19.6613 16.0981 19.6759 16.0219 19.6755C15.9456 19.6751 15.8703 19.6596 15.8 19.63C15.5876 19.4856 15.4155 19.2894 15.3 19.06C15.16 18.87 14.95 18.55 14.9 18.47C14.8807 18.4175 14.845 18.3725 14.7982 18.3419C14.7513 18.3113 14.6959 18.2966 14.64 18.3V18.44C14.686 18.587 14.743 18.731 14.81 18.87C14.93 19.06 15.07 19.25 15.21 19.44C15.371 19.655 15.571 19.838 15.8 19.98C15.9391 20.0855 16.1059 20.1483 16.2801 20.1606C16.4543 20.173 16.6283 20.1344 16.7809 20.0496C16.9335 19.9648 17.0582 19.8375 17.1397 19.6831C17.2212 19.5286 17.2561 19.3539 17.24 19.18C17.2562 18.8383 17.1982 18.4972 17.07 18.18C16.93 17.87 16.76 17.53 16.62 17.18C16.4185 16.7966 16.3057 16.3728 16.29 15.94C16.3009 15.7238 16.3939 15.52 16.55 15.37C16.55 15.44 16.62 15.32 16.55 15.44C16.4915 15.5576 16.4672 15.6893 16.48 15.82C16.83 15.75 16.97 15.49 17.09 15.18C17.0797 15.2496 17.0797 15.3204 17.09 15.39C17.1138 15.4343 17.1441 15.4748 17.18 15.51C17.2068 15.5083 17.2331 15.5013 17.2571 15.4893C17.2812 15.4772 17.3026 15.4605 17.32 15.44C17.3957 15.3581 17.4659 15.2712 17.53 15.18C17.591 15.22 17.648 15.268 17.7 15.32C17.84 15.53 17.94 15.51 18.01 15.32C18.0261 15.2581 18.056 15.2008 18.0976 15.1522C18.1392 15.1037 18.1913 15.0653 18.25 15.04C18.337 15.133 18.43 15.22 18.53 15.3H18.67C18.675 15.2602 18.675 15.2198 18.67 15.18V14.83C19 14.92 19.31 14.88 19.31 14.71ZM13.74 14.02L13.85 13.9C14.0203 13.9459 14.1997 13.9459 14.37 13.9L14.54 13.83C14.6252 13.8075 14.7148 13.8075 14.8 13.83C14.8419 13.8505 14.8789 13.8799 14.9083 13.9162C14.9376 13.9525 14.9587 13.9947 14.97 14.04V14.11C14.849 14.2047 14.7221 14.2915 14.59 14.37C14.5223 14.4211 14.4398 14.4488 14.355 14.4488C14.2702 14.4488 14.1877 14.4211 14.12 14.37C13.9872 14.2601 13.8604 14.1433 13.74 14.02ZM17 14.35C17.3096 14.2568 17.642 14.2745 17.94 14.4C18.01 14.457 18.073 14.52 18.13 14.59C18.06 14.61 18.01 14.68 17.94 14.68C17.8236 14.6912 17.7064 14.6912 17.59 14.68C17.4736 14.5451 17.315 14.4534 17.14 14.42C17.0886 14.4075 17.0408 14.3836 17 14.35ZM4.54 17.43C4.5669 17.4966 4.57385 17.5695 4.56 17.64C4.60402 17.7872 4.6916 17.9176 4.81121 18.014C4.93082 18.1104 5.07683 18.1683 5.23 18.18C5.42 18.204 5.61 18.204 5.8 18.18C5.99107 18.1647 6.1776 18.1138 6.35 18.03C6.64347 17.8741 6.87594 17.624 7.01 17.32C7.1 17.11 7.2 16.92 7.27 16.71L7.55 15.91C7.67 15.56 7.81 15.16 7.95 14.85C8.09 14.54 8.25 14.26 8.42 13.95C8.63778 13.5471 8.90667 13.174 9.22 12.84L9.36 12.72L9.03 12.58L8.51 12.3C8.46 12.3 8.37 12.23 8.37 12.3C8.20617 12.5586 8.05597 12.8257 7.92 13.1C7.71 13.55 7.57 14.02 7.38 14.47C7.30715 14.6643 7.19478 14.8414 7.05 14.99C6.91841 15.1151 6.75971 15.2082 6.58626 15.262C6.41282 15.3157 6.2293 15.3288 6.05 15.3C5.8854 15.2683 5.72679 15.2109 5.58 15.13C5.50616 15.0888 5.4426 15.0314 5.39411 14.9621C5.34562 14.8928 5.31344 14.8135 5.3 14.73C5.18715 14.8162 5.09657 14.9282 5.03582 15.0566C4.97508 15.1849 4.94593 15.326 4.95083 15.4679C4.95572 15.6098 4.99451 15.7485 5.06395 15.8724C5.1334 15.9963 5.23148 16.1018 5.35 16.18C5.787 16.48 6.363 16.48 6.8 16.18C6.89506 16.0878 6.99522 16.001 7.1 15.92C6.96635 16.1936 6.74534 16.4149 6.47189 16.5489C6.19844 16.6829 5.88814 16.722 5.59 16.66H5.45C5.11857 16.5564 4.84181 16.3255 4.68055 16.018C4.5193 15.7105 4.48672 15.3515 4.59 15.02C4.35851 15.1714 4.18134 15.3926 4.08422 15.6516C3.98711 15.9106 3.97512 16.1937 4.05 16.46C4.13 16.827 4.363 17.144 4.69 17.33C5.03163 17.507 5.42512 17.5566 5.8 17.47C5.77797 17.5273 5.74306 17.5787 5.69798 17.6203C5.6529 17.6619 5.59884 17.6926 5.54 17.71C5.36366 17.7594 5.17714 17.7594 5.0008 17.71C4.82447 17.6606 4.66507 17.5638 4.54 17.43ZM18.61 16.63C18.68 16.63 18.68 16.63 18.93 16.71H19V16.62C19.0028 16.5479 18.9888 16.4761 18.9594 16.4102C18.9299 16.3443 18.8856 16.286 18.83 16.24C18.647 16.1092 18.4793 15.9583 18.33 15.79C18.3006 15.7479 18.2586 15.7164 18.21 15.7L18.04 15.63V15.84C18.04 15.89 18.13 16.03 18.04 16.03L17.78 16.17C17.42 15.74 17.42 15.86 17.28 15.86C17.3 15.93 17.37 15.98 17.37 16.05C17.3941 16.1017 17.4066 16.158 17.4066 16.215C17.4066 16.272 17.3941 16.3283 17.37 16.38C17.2881 16.4424 17.188 16.4763 17.085 16.4763C16.982 16.4763 16.8819 16.4424 16.8 16.38L16.7 16.26C16.746 16.63 16.857 16.99 17.03 17.32H17.17C17.2494 17.2659 17.3373 17.2254 17.43 17.2C17.4857 17.1765 17.5485 17.176 17.6046 17.1984C17.6608 17.2209 17.7058 17.2646 17.73 17.32L17.8 17.53H17.91C17.9521 17.5006 17.9836 17.4586 18 17.41C18.0405 17.3293 18.0615 17.2403 18.0615 17.15C18.0615 17.0597 18.0405 16.9707 18 16.89H18.12L18.4 17.03C18.52 17.1 18.61 17.1 18.61 16.96C18.6218 16.8503 18.6218 16.7397 18.61 16.63ZM6.8 15.04C6.83882 14.9055 6.84074 14.7631 6.80555 14.6276C6.77036 14.4921 6.69936 14.3686 6.6 14.27C6.53997 14.216 6.46651 14.1792 6.38733 14.1633C6.30816 14.1475 6.22618 14.1533 6.15 14.18C6.09675 14.2041 6.05202 14.2437 6.02168 14.2937C5.99134 14.3437 5.97682 14.4016 5.98 14.46C5.98 14.53 5.95 14.58 5.86 14.53C5.77 14.48 5.69 14.36 5.6 14.36C5.57435 14.4132 5.56143 14.4716 5.56228 14.5306C5.56313 14.5896 5.57772 14.6476 5.6049 14.7001C5.63207 14.7525 5.67108 14.7978 5.71883 14.8325C5.76658 14.8672 5.82177 14.8903 5.88 14.9C5.973 14.912 6.067 14.912 6.16 14.9C6.3828 14.8772 6.60706 14.9263 6.8 15.04Z" fill="black"/>
</g>
<defs>
<clipPath id="clip0_16_2424">
<rect width="32" height="32" fill="white"/>
</clipPath>
</defs>
</svg>
