<svg width="32" height="32" viewBox="0 0 32 32" fill="none" xmlns="http://www.w3.org/2000/svg">
<g clip-path="url(#clip0_16_2428)">
<path d="M16 32C7.163 32 0 24.837 0 16C0 7.163 7.163 0 16 0C24.837 0 32 7.163 32 16C32 24.837 24.837 32 16 32ZM17.078 19.356C17.986 20.778 18.423 23.756 18.346 24.823C30.31 20.71 26.562 7.567 18.586 7C18.586 9.945 17.908 12.322 17.078 12.322C20.345 12.522 22.158 17.789 17.078 19.356ZM6 17.8C11.954 17.8 16.773 12.977 16.773 7.01H11.212C11.222 9.933 8.895 12.322 6.011 12.333H6V17.8ZM13.287 16.81C11.78 18.167 10.938 18.867 6.809 19.533C9.245 19.533 11.212 21.978 11.212 25H16.772C16.772 24.089 16.587 19.522 13.287 16.81Z" fill="black"/>
</g>
<defs>
<clipPath id="clip0_16_2428">
<rect width="32" height="32" fill="white"/>
</clipPath>
</defs>
</svg>
