<svg width="32" height="32" viewBox="0 0 32 32" fill="none" xmlns="http://www.w3.org/2000/svg">
<g clip-path="url(#clip0_16_2440)">
<path d="M10.827 15.376L12.572 11.676L7.23 17.02L6 18.248L9.894 22.106L9.082 19.074L10.827 15.375L9.082 19.075L14.524 13.632L12.572 11.677L10.827 15.376ZM16 32C7.163 32 0 24.837 0 16C0 7.163 7.163 0 16 0C24.837 0 32 7.163 32 16C32 24.837 24.837 32 16 32ZM12.926 9.082L18.368 14.524L13.752 6L9.892 9.894L12.926 9.082ZM19.074 22.918L13.632 17.476L18.248 26L22.106 22.106L19.074 22.918ZM20.04 9.34L22.106 9.892L22.92 12.924L17.476 18.368L19.428 20.321L26 13.75L24.362 7.637L18.248 6L17.476 6.775L20.04 9.34ZM13.752 26L14.524 25.225L11.96 22.658L9.894 22.106L6 18.248L7.64 24.36L13.752 26ZM26 18.248L25.225 17.476L22.66 20.04L22.106 22.106L18.248 26L24.362 24.362L26 18.248ZM6 13.752L6.775 14.524L9.34 11.958L9.892 9.894L13.752 6L7.64 7.638L6 13.752ZM20.32 12.569L14.98 7.231L13.752 6L18.368 14.524L20.321 12.569H20.32ZM11.68 19.429L18.247 26L13.631 17.476L11.678 19.428L11.68 19.429Z" fill="black"/>
</g>
<defs>
<clipPath id="clip0_16_2440">
<rect width="32" height="32" fill="white"/>
</clipPath>
</defs>
</svg>
