<svg width="32" height="32" viewBox="0 0 32 32" fill="none" xmlns="http://www.w3.org/2000/svg">
<g clip-path="url(#clip0_16_2444)">
<path d="M16 32C7.163 32 0 24.837 0 16C0 7.163 7.163 0 16 0C24.837 0 32 7.163 32 16C32 24.837 24.837 32 16 32ZM27.743 13.539C27.5848 12.7708 27.351 12.0201 27.045 11.298C26.7434 10.5867 26.3744 9.90594 25.943 9.265C25.5152 8.63178 25.0273 8.04137 24.486 7.502C23.9463 6.96064 23.3556 6.4727 22.722 6.045C22.0801 5.61578 21.3999 5.24687 20.69 4.943C19.222 4.32036 17.6436 3.99949 16.049 3.99949C14.4544 3.99949 12.876 4.32036 11.408 4.943C9.98845 5.54176 8.69911 6.41129 7.612 7.503C7.07074 8.04206 6.58281 8.63213 6.155 9.265C5.72573 9.90721 5.35682 10.5878 5.053 11.298C4.43036 12.766 4.10949 14.3444 4.10949 15.939C4.10949 17.5336 4.43036 19.112 5.053 20.58C5.347 21.29 5.727 21.963 6.155 22.612C6.58278 23.2455 7.07071 23.8362 7.612 24.376C8.15169 24.9174 8.74244 25.4053 9.376 25.833C10.012 26.261 10.698 26.629 11.408 26.935C12.876 27.5576 14.4544 27.8785 16.049 27.8785C17.6436 27.8785 19.222 27.5576 20.69 26.935C21.4 26.641 22.073 26.261 22.722 25.833C23.3556 25.4053 23.9463 24.9174 24.486 24.376C25.0274 23.8363 25.5153 23.2456 25.943 22.612C26.371 21.976 26.739 21.29 27.045 20.58C27.987 18.3583 28.2305 15.9024 27.743 13.539ZM16.06 26.384C10.293 26.384 5.628 21.706 5.628 15.951C5.628 10.196 10.306 5.518 16.06 5.518C21.815 5.518 26.493 10.196 26.493 15.951C26.493 21.706 21.816 26.384 16.06 26.384ZM16.244 25.478H16.527C16.576 25.478 16.624 25.478 16.673 25.465H16.686C16.735 25.465 16.771 25.465 16.82 25.453H16.857C16.894 25.453 16.931 25.453 16.967 25.441H17.004C17.041 25.441 17.078 25.429 17.127 25.429H17.151C17.2 25.429 17.249 25.416 17.298 25.416C17.347 25.416 17.384 25.404 17.433 25.392H17.457C17.494 25.392 17.531 25.38 17.567 25.38H17.592C17.641 25.367 17.678 25.367 17.727 25.355C17.824 25.343 17.922 25.318 18.008 25.294H18.033C18.069 25.282 18.118 25.282 18.155 25.269H18.167C18.265 25.245 18.351 25.22 18.449 25.196C17.5318 25.2251 16.6146 25.1387 15.719 24.939C14.371 24.645 13.086 24.119 11.996 23.212C11.1367 22.4969 10.4471 21.5997 9.97699 20.5854C9.50692 19.571 9.26817 18.4649 9.278 17.347C9.28682 15.6792 9.88026 14.0673 10.955 12.792C12.351 11.139 14.335 10.269 16.367 10.22H16.649V8.592H16.331C15.7128 8.60332 15.0974 8.67703 14.494 8.812C13.8868 8.9493 13.2959 9.15041 12.731 9.412C12.155 9.682 11.616 10.012 11.114 10.392C10.5953 10.7863 10.1229 11.2382 9.706 11.739C9.31346 12.2025 8.97277 12.7075 8.69 13.245C8.41025 13.7632 8.1844 14.3087 8.016 14.873C7.85081 15.4286 7.74028 15.9989 7.686 16.576L7.649 17.114V17.432C7.661 18.057 7.735 18.669 7.869 19.269C8.004 19.882 8.212 20.469 8.469 21.033C8.776 21.706 9.327 22.698 10.147 23.445C11.8213 24.7649 13.892 25.4812 16.024 25.478H16.245H16.244ZM18.914 23.91C18.31 23.8884 17.7085 23.8229 17.114 23.714C14.591 23.261 12.424 21.718 11.628 19.392C10.66 16.563 12.142 13.502 14.958 12.572C15.4946 12.3922 16.057 12.301 16.623 12.302C17.346 12.302 18.068 12.449 18.73 12.718L19.415 11.261C19.209 11.1784 19.0009 11.101 18.791 11.029C18.0894 10.8088 17.3583 10.6972 16.623 10.698C15.8863 10.6994 15.1546 10.8192 14.456 11.053C13.5644 11.3471 12.7432 11.8224 12.044 12.449C11.7068 12.7494 11.3994 13.0816 11.126 13.441C10.8557 13.7963 10.6219 14.1779 10.428 14.58C10.0332 15.3884 9.80012 16.2662 9.742 17.164C9.681 18.094 9.803 19.024 10.109 19.906C10.4208 20.8133 10.9219 21.644 11.579 22.343C12.179 22.992 12.877 23.482 13.721 23.935C14.603 24.4 15.693 24.645 16.831 24.805C17.566 24.902 18.546 24.927 19.121 24.927C19.623 24.743 19.831 24.657 20.101 24.547C20.334 24.437 20.566 24.327 20.799 24.192C21.032 24.057 21.069 24.032 21.46 23.776C21.4948 23.7543 21.5276 23.7296 21.558 23.702C20.211 23.935 19.868 23.922 18.913 23.91H18.914ZM21.926 22.086C21.546 22.11 21.007 22.146 20.395 22.146C19.305 22.146 17.97 22.049 16.832 21.669C15.068 21.082 13.403 19.576 13.403 17.714C13.4026 17.2733 13.4891 16.8369 13.6576 16.4296C13.826 16.0224 14.0732 15.6524 14.3848 15.3408C14.6964 15.0292 15.0664 14.782 15.4736 14.6136C15.8809 14.4451 16.3173 14.3586 16.758 14.359C18.019 14.359 19.109 15.057 19.685 16.073L21.142 15.351C20.9135 14.9209 20.6201 14.5286 20.272 14.188C19.8108 13.726 19.2629 13.3594 18.6599 13.1093C18.0568 12.8592 17.4104 12.7305 16.7575 12.7305C16.1046 12.7305 15.4582 12.8592 14.8551 13.1093C14.2521 13.3594 13.7042 13.726 13.243 14.188C12.7811 14.6492 12.4147 15.197 12.1647 15.8C11.9147 16.4029 11.786 17.0493 11.786 17.702C11.7893 18.3861 11.9357 19.0619 12.216 19.686C12.472 20.249 12.828 20.776 13.281 21.266C14.077 22.122 15.166 22.808 16.33 23.2C17.444 23.567 19.085 23.702 20.677 23.592C21.117 23.555 21.448 23.518 22.011 23.396C22.5543 22.9672 23.0474 22.4785 23.481 21.939C23.101 21.976 22.403 22.049 21.926 22.086Z" fill="black"/>
</g>
<defs>
<clipPath id="clip0_16_2444">
<rect width="32" height="32" fill="white"/>
</clipPath>
</defs>
</svg>
