<svg width="32" height="32" viewBox="0 0 32 32" fill="none" xmlns="http://www.w3.org/2000/svg">
<g clip-path="url(#clip0_16_2446)">
<path fill-rule="evenodd" clip-rule="evenodd" d="M16 32C7.163 32 0 24.837 0 16C0 7.163 7.163 0 16 0C24.837 0 32 7.163 32 16C32 24.837 24.837 32 16 32ZM22.632 14.02C22.946 11.924 21.35 10.797 19.167 10.045L19.875 7.205L18.147 6.775L17.457 9.54C17.003 9.426 16.537 9.32 16.073 9.214L16.767 6.431L15.039 6L14.331 8.839C13.955 8.753 13.585 8.669 13.227 8.579L13.229 8.57L10.845 7.975L10.385 9.821C10.385 9.821 11.668 10.115 11.641 10.133C12.341 10.308 12.467 10.771 12.446 11.139L11.64 14.374C11.688 14.386 11.75 14.404 11.82 14.431L11.637 14.386L10.507 18.918C10.421 19.13 10.204 19.449 9.714 19.328C9.732 19.353 8.458 19.015 8.458 19.015L7.6 20.993L9.85 21.554C10.268 21.659 10.678 21.769 11.082 21.872L10.366 24.744L12.093 25.174L12.801 22.334C13.273 22.461 13.731 22.579 14.179 22.691L13.473 25.519L15.201 25.949L15.917 23.083C18.864 23.641 21.08 23.416 22.013 20.75C22.765 18.604 21.976 17.365 20.425 16.558C21.555 16.298 22.405 15.555 22.632 14.02ZM18.682 19.558C18.149 21.705 14.535 20.544 13.363 20.253L14.313 16.448C15.483 16.741 19.241 17.32 18.683 19.558H18.682ZM19.217 13.989C18.73 15.942 15.722 14.949 14.747 14.706L15.607 11.256C16.583 11.499 19.725 11.952 19.217 13.989ZM24.247 21.618L24.401 20.951C24.2283 20.9225 24.0514 20.9324 23.883 20.98C23.729 21.026 23.593 21.1 23.475 21.202C23.3534 21.3081 23.2518 21.4351 23.175 21.577C23.0922 21.7291 23.031 21.892 22.993 22.061C22.9363 22.2833 22.9278 22.5151 22.968 22.741C23.009 22.946 23.088 23.128 23.206 23.286C23.323 23.445 23.474 23.578 23.659 23.686C23.843 23.795 24.049 23.875 24.274 23.927C24.496 23.978 24.71 23.994 24.916 23.974C25.1115 23.9585 25.3014 23.901 25.4727 23.8056C25.644 23.7102 25.7928 23.579 25.909 23.421C26.031 23.258 26.119 23.058 26.174 22.82C26.264 22.43 26.232 22.093 26.078 21.81C25.924 21.526 25.658 21.307 25.278 21.154L25.124 21.82C25.335 21.902 25.486 22.02 25.578 22.174C25.67 22.329 25.693 22.504 25.648 22.699C25.623 22.8219 25.5666 22.9363 25.4842 23.031C25.4018 23.1256 25.2963 23.1973 25.178 23.239C25.0608 23.2819 24.9368 23.3036 24.812 23.303C24.681 23.303 24.552 23.289 24.428 23.261C24.2368 23.2235 24.0539 23.1521 23.888 23.05C23.7739 22.9775 23.6767 22.8814 23.603 22.768C23.5446 22.6758 23.5096 22.5708 23.501 22.462C23.494 22.357 23.501 22.262 23.521 22.177C23.5529 22.0088 23.641 21.8564 23.771 21.745C23.8381 21.6935 23.9146 21.6558 23.9963 21.634C24.078 21.6122 24.1632 21.6068 24.247 21.618ZM26.939 19.505C26.9942 19.2846 27.0044 19.0554 26.969 18.831C26.936 18.6325 26.861 18.4432 26.749 18.276C26.6348 18.1093 26.4869 17.9682 26.315 17.862C26.124 17.7439 25.9144 17.659 25.695 17.611C25.4791 17.5588 25.256 17.5436 25.035 17.566C24.8337 17.5861 24.6389 17.6481 24.463 17.748C24.293 17.846 24.146 17.981 24.022 18.151C23.8916 18.3371 23.8001 18.5477 23.753 18.77C23.6979 18.99 23.6877 19.2189 23.723 19.443C23.76 19.651 23.833 19.836 23.943 19.999C24.053 20.162 24.198 20.299 24.377 20.413C24.557 20.526 24.761 20.609 24.991 20.663C25.225 20.717 25.447 20.732 25.658 20.709C25.8589 20.6888 26.0534 20.6268 26.229 20.527C26.4027 20.4252 26.553 20.2879 26.67 20.124C26.8007 19.9379 26.8926 19.7274 26.94 19.505H26.939ZM24.315 16.707L27.338 17.405L27.492 16.739L26.054 16.407C25.9026 16.3748 25.7574 16.3184 25.624 16.24C25.5143 16.1755 25.4179 16.0906 25.34 15.99C25.2712 15.9002 25.2236 15.7959 25.2007 15.6851C25.1779 15.5743 25.1804 15.4597 25.208 15.35C25.218 15.302 25.233 15.255 25.25 15.208L25.303 15.069L24.66 14.921L24.627 15.009C24.617 15.037 24.602 15.09 24.584 15.169C24.5608 15.2711 24.5574 15.3766 24.574 15.48C24.6082 15.6856 24.6981 15.8779 24.834 16.036C24.8931 16.1059 24.9655 16.1633 25.047 16.205L25.044 16.217L24.46 16.082L24.315 16.707ZM26.595 14.517L27.107 12.297C26.8934 12.2182 26.6666 12.1812 26.439 12.188C26.2227 12.1935 26.0096 12.2418 25.812 12.33C25.62 12.417 25.452 12.543 25.309 12.71C25.1619 12.8842 25.0599 13.092 25.012 13.315C24.9603 13.5241 24.9565 13.7422 25.001 13.953C25.045 14.152 25.126 14.332 25.242 14.492C25.359 14.652 25.506 14.789 25.684 14.902C26.0604 15.1293 26.4987 15.2325 26.937 15.197C27.1354 15.184 27.3285 15.127 27.5021 15.0301C27.6758 14.9333 27.8257 14.799 27.941 14.637C28.061 14.472 28.148 14.271 28.203 14.033C28.24 13.869 28.254 13.707 28.244 13.547C28.2349 13.3915 28.1994 13.2386 28.139 13.095C28.0126 12.7997 27.7809 12.562 27.489 12.428L27.344 13.058C27.4838 13.1397 27.5941 13.2637 27.659 13.412C27.7165 13.5729 27.7224 13.7476 27.676 13.912C27.6506 14.0373 27.5972 14.1552 27.52 14.257C27.4518 14.3438 27.365 14.4142 27.266 14.463C27.1654 14.5113 27.0564 14.5395 26.945 14.546C26.8276 14.554 26.7096 14.5446 26.595 14.518V14.517ZM26.413 19.384C26.3864 19.5135 26.3276 19.6342 26.2419 19.7349C26.1563 19.8356 26.0466 19.913 25.923 19.96C25.8025 20.0074 25.6745 20.0331 25.545 20.036C25.2756 20.0438 25.0087 19.9822 24.77 19.857C24.6546 19.7983 24.5509 19.719 24.464 19.623C24.3741 19.5264 24.3101 19.4086 24.2777 19.2807C24.2454 19.1528 24.2458 19.0187 24.279 18.891C24.3052 18.7615 24.3637 18.6408 24.449 18.5399C24.5343 18.4391 24.6437 18.3613 24.767 18.314C24.882 18.267 25.008 18.241 25.144 18.238C25.4134 18.2307 25.6801 18.2923 25.919 18.417C26.034 18.4764 26.1376 18.5556 26.225 18.651C26.3156 18.7474 26.3803 18.8652 26.4132 18.9934C26.446 19.1215 26.446 19.2559 26.413 19.384ZM26.515 12.861L26.155 14.417C25.9452 14.3614 25.7622 14.2327 25.639 14.054C25.5821 13.9678 25.5436 13.8708 25.526 13.769C25.5079 13.6602 25.5118 13.549 25.5376 13.4418C25.5634 13.3346 25.6104 13.2336 25.676 13.145C25.7395 13.0652 25.8181 12.9988 25.9073 12.9496C25.9966 12.9003 26.0947 12.8692 26.196 12.858C26.301 12.844 26.408 12.845 26.515 12.861Z" fill="black"/>
</g>
<defs>
<clipPath id="clip0_16_2446">
<rect width="32" height="32" fill="white"/>
</clipPath>
</defs>
</svg>
