<svg width="32" height="32" viewBox="0 0 32 32" fill="none" xmlns="http://www.w3.org/2000/svg">
<g clip-path="url(#clip0_16_2448)">
<path fill-rule="evenodd" clip-rule="evenodd" d="M16 32C7.163 32 0 24.837 0 16C0 7.163 7.163 0 16 0C24.837 0 32 7.163 32 16C32 24.837 24.837 32 16 32ZM11.706 19.296L12.231 17.006H13.76L12.497 24H17.372C20.389 24 22.248 22.653 22.704 20.127L22.932 18.862C23.227 17.226 22.832 16.092 21.66 15.491C22.844 14.912 23.533 13.909 23.806 12.401L23.906 11.845C24.373 9.255 23.109 8 19.99 8H15.384L14.242 14.329L9.664 14.326L9.154 16.769H4L11.706 19.296ZM16.772 16.549H18.262C19.775 16.549 20.309 17.163 20.031 18.706L19.786 20.06C19.568 21.267 18.926 21.779 17.773 21.779H15.828L16.772 16.549ZM17.915 10.22H19.51C20.69 10.22 21.157 10.84 20.932 12.088L20.775 12.955C20.545 14.233 19.791 14.785 18.503 14.785H17.09L17.915 10.22Z" fill="black"/>
</g>
<defs>
<clipPath id="clip0_16_2448">
<rect width="32" height="32" fill="white"/>
</clipPath>
</defs>
</svg>
