<svg width="32" height="32" viewBox="0 0 32 32" fill="none" xmlns="http://www.w3.org/2000/svg">
<g clip-path="url(#clip0_16_2454)">
<path d="M16 32C7.163 32 0 24.837 0 16C0 7.163 7.163 0 16 0C24.837 0 32 7.163 32 16C32 24.837 24.837 32 16 32ZM14.09 4.261C13.285 4.399 12.496 4.619 11.736 4.918C10.3681 5.46083 9.10602 6.23928 8.007 7.218C7.121 7.988 6.385 8.924 5.755 9.911C5.715 9.981 5.677 10.05 5.643 10.121C5.5257 10.3199 5.41693 10.5238 5.317 10.732C5.21712 10.9037 5.13471 11.0849 5.071 11.273L5.018 11.336C4.991 11.427 4.958 11.516 4.918 11.603C4.851 11.793 4.786 11.983 4.714 12.17C4.675 12.275 4.642 12.38 4.609 12.485C4.47631 12.8966 4.37108 13.3165 4.294 13.742C4.217 13.981 4.229 14.235 4.168 14.478C4.106 14.777 4.126 15.084 4.078 15.384C4.034 15.744 4.058 16.11 4.058 16.472C4.121 16.906 4.102 17.35 4.2 17.78C4.21 17.963 4.242 18.145 4.296 18.32C4.321 18.476 4.355 18.63 4.399 18.783C4.51 19.279 4.657 19.767 4.839 20.242C4.916 20.459 5.032 20.662 5.074 20.89L5.132 20.916C5.464 21.712 5.917 22.456 6.429 23.149C6.686 23.514 6.985 23.849 7.276 24.187C7.458 24.377 7.644 24.56 7.832 24.743C8.009 24.916 8.218 25.053 8.382 25.24C8.432 25.273 8.516 25.365 8.562 25.273C8.711 25.061 8.876 24.857 9.09 24.707C9.807 24.317 10.63 24.222 11.426 24.107C12.124 23.987 12.829 23.903 13.522 23.761C15.055 23.475 16.592 23.031 17.914 22.179C18.302 21.932 18.647 21.628 18.99 21.323C18.8834 21.3248 18.7771 21.3349 18.672 21.353C18.398 21.445 18.113 21.497 17.835 21.575C17.399 21.691 16.959 21.792 16.515 21.872C15.669 22.026 14.795 22.128 13.935 22.016C13.292 21.916 12.635 21.748 12.104 21.354C11.464 20.939 11.014 20.286 10.724 19.589C10.502 19.098 10.381 18.566 10.28 18.041C10.2282 17.854 10.2006 17.6611 10.198 17.467C10.195 17.257 10.138 17.05 10.138 16.84C10.133 16.21 10.115 15.58 10.153 14.95C10.21 14.675 10.229 14.395 10.263 14.117C10.367 13.693 10.436 13.262 10.577 12.849C10.647 12.655 10.721 12.462 10.8 12.271C10.908 12.004 11.04 11.749 11.17 11.494C11.316 11.254 11.47 11.02 11.627 10.789C12.454 9.697 13.597 8.88 14.84 8.324C15.509 8.057 16.185 7.799 16.888 7.641C18.455 7.216 20.08 7.093 21.676 6.819C22.03 6.741 22.402 6.684 22.713 6.485C22.847 6.398 22.928 6.178 22.777 6.068C22.235 5.562 21.536 5.282 20.869 4.984C19.952 4.636 19.012 4.326 18.037 4.192C17.5362 4.10044 17.0281 4.05459 16.519 4.055C15.705 4.032 14.889 4.101 14.091 4.261H14.09ZM23.241 7.39C22.832 7.655 22.349 7.751 21.872 7.851C20.509 8.085 19.125 8.201 17.773 8.505C17.156 8.65 16.536 8.797 15.939 9.018C14.9 9.39 13.911 9.934 13.103 10.694C13.671 10.586 14.225 10.418 14.787 10.285C15.987 10.015 17.238 9.795 18.463 10.023C19.201 10.151 19.916 10.486 20.441 11.025C21.128 11.695 21.491 12.622 21.698 13.542C21.925 14.608 21.95 15.702 21.905 16.788C21.815 18.246 21.439 19.718 20.625 20.945C20.058 21.815 19.288 22.541 18.415 23.098C17.128 23.933 15.641 24.388 14.154 24.708C13.259 24.906 12.348 25.007 11.446 25.164C10.947 25.241 10.448 25.322 9.962 25.463C9.794 25.518 9.613 25.595 9.512 25.75C9.446 25.877 9.51 26.023 9.611 26.111C10.001 26.501 10.499 26.759 10.999 26.979C11.919 27.374 12.886 27.645 13.876 27.784C15.167 27.961 16.486 28.012 17.778 27.821C20.589 27.432 23.227 25.966 25.065 23.809C26.0949 22.6116 26.8783 21.2228 27.3704 19.722C27.8626 18.2213 28.0537 16.6382 27.9328 15.0635C27.8119 13.4887 27.3815 11.9533 26.6661 10.5453C25.9508 9.13723 24.9645 7.8842 23.764 6.858C23.612 7.055 23.46 7.262 23.241 7.39Z" fill="black"/>
</g>
<defs>
<clipPath id="clip0_16_2454">
<rect width="32" height="32" fill="white"/>
</clipPath>
</defs>
</svg>
