<svg width="32" height="32" viewBox="0 0 32 32" fill="none" xmlns="http://www.w3.org/2000/svg">
<g clip-path="url(#clip0_16_2468)">
<path d="M16 0C24.837 0 32 7.163 32 16C32 24.837 24.837 32 16 32C7.163 32 0 24.837 0 16C0 7.163 7.163 0 16 0ZM18.503 5.5L16.781 6.478V14.782L17.721 15.316V8.992L20.951 10.825L20.954 10.824L21.581 11.179L22.105 10.884V10.384L17.722 7.9V7.036L18.503 6.592L23.043 9.169V11.463L20.863 12.693L20.79 12.656C20.6942 12.6084 20.5911 12.5773 20.485 12.564L20.382 12.557C20.1502 12.5585 19.927 12.6451 19.7548 12.8003C19.5827 12.9556 19.4735 13.1686 19.448 13.399L19.442 13.51C19.4411 13.7418 19.525 13.9659 19.6779 14.1401C19.8308 14.3144 20.0421 14.4267 20.272 14.456L20.382 14.463C20.5966 14.462 20.8044 14.3874 20.9705 14.2516C21.1367 14.1158 21.2513 13.9271 21.295 13.717L21.312 13.607L21.32 13.525L23.52 12.284L25.56 13.442V18.565L23.517 19.723L15.219 15.011V6.478L13.496 5.5L8.017 8.61V11.45L5.5 12.877V19.117L8.017 20.546V23.389L13.497 26.5L15.219 25.522V17.2L14.279 16.666V23.008L10.419 20.821L9.895 21.116V21.616L14.278 24.1V24.964L13.496 25.408L8.957 22.831V20.537L11.137 19.308L11.21 19.344C11.31 19.393 11.412 19.424 11.515 19.436L11.618 19.442C12.1 19.442 12.498 19.074 12.552 18.601L12.558 18.49C12.5589 18.2582 12.475 18.0341 12.3221 17.8598C12.1692 17.6856 11.9579 17.5733 11.728 17.544L11.618 17.537C11.4035 17.538 11.1959 17.6127 11.0299 17.7485C10.8639 17.8843 10.7495 18.073 10.706 18.283L10.688 18.393L10.68 18.475L8.48 19.716L6.44 18.558V13.435L8.483 12.277L16.781 16.989V25.522L18.503 26.5L23.983 23.39V20.55L26.5 19.123V12.883L23.983 11.455V8.611L18.503 5.5ZM23.043 21.084V22.831L18.503 25.408L17.722 24.964V24.1L23.042 21.084H23.043ZM17.722 17.524L22.555 20.268L17.722 23.008V17.523V17.524ZM14.278 8.992V14.476L9.445 11.732L14.278 8.992ZM13.496 6.592L14.278 7.036V7.9L8.958 10.916V9.17L13.496 6.593V6.592Z" fill="black"/>
</g>
<defs>
<clipPath id="clip0_16_2468">
<rect width="32" height="32" fill="white"/>
</clipPath>
</defs>
</svg>
