<svg width="32" height="32" viewBox="0 0 32 32" fill="none" xmlns="http://www.w3.org/2000/svg">
<g clip-path="url(#clip0_16_2475)">
<path fill-rule="evenodd" clip-rule="evenodd" d="M16 32C7.163 32 0 24.837 0 16C0 7.163 7.163 0 16 0C24.837 0 32 7.163 32 16C32 24.837 24.837 32 16 32ZM16.003 5C9.94 5 5.003 9.929 5 15.986C4.997 22.053 9.925 26.994 15.986 27H15.996C22.062 27 26.998 22.067 27 16.003C27.002 9.946 22.069 5.01 16.003 5ZM16 6.418H16.001C18.557 6.418 20.961 7.416 22.772 9.228C23.6643 10.1147 24.3717 11.1696 24.8532 12.3318C25.3347 13.4939 25.5808 14.7401 25.577 15.998C25.573 21.278 21.271 25.574 15.987 25.574C10.714 25.57 6.425 21.274 6.426 15.998C6.428 10.716 10.723 6.418 16 6.418ZM20.728 15.017C20.5104 13.9302 19.9232 12.9522 19.0663 12.2493C18.2093 11.5464 17.1354 11.1618 16.027 11.161C15.672 11.161 15.312 11.201 14.957 11.279C12.575 11.801 10.99 13.955 11.187 16.399C11.28 17.56 11.727 18.536 12.55 19.384L12.708 19.547L12.918 19.458L13.306 19.298L13.795 19.102L13.408 18.743C12.8234 18.2032 12.4321 17.4866 12.294 16.703C12.071 15.517 12.376 14.409 13.174 13.499C13.5275 13.0966 13.9628 12.7742 14.4508 12.5535C14.9388 12.3327 15.4684 12.2187 16.004 12.219C16.992 12.219 17.922 12.599 18.624 13.286C19.423 14.066 19.807 15.014 19.768 16.1C19.729 17.186 19.32 18.087 18.551 18.777L18.157 19.131L18.647 19.335C18.77 19.386 18.891 19.441 19.01 19.499L19.226 19.605L19.396 19.434C20.631 18.18 21.067 16.736 20.728 15.017ZM9.973 21.307L10.217 21.58L11.133 20.594L10.937 20.367C10.2457 19.5713 9.75535 18.6214 9.507 17.597C9.20846 16.4008 9.25002 15.1449 9.627 13.971C9.99804 12.79 10.6943 11.7375 11.636 10.934C12.8514 9.88633 14.4024 9.3097 16.007 9.309C17.768 9.309 19.426 9.987 20.674 11.218C21.904 12.43 22.576 13.902 22.672 15.592C22.775 17.442 22.205 19.082 20.977 20.465L20.779 20.688L21.677 21.69L21.926 21.422C23.889 19.317 24.546 16.165 23.601 13.392C23.0483 11.7773 21.9955 10.3807 20.5952 9.40504C19.1949 8.42934 17.5202 7.92527 15.814 7.966C14.1555 8.00438 12.5496 8.55534 11.2169 9.5432C9.88415 10.5311 8.89 11.9074 8.371 13.483C7.301 16.741 8.497 19.661 9.973 21.307Z" fill="black"/>
</g>
<defs>
<clipPath id="clip0_16_2475">
<rect width="32" height="32" fill="white"/>
</clipPath>
</defs>
</svg>
