<svg width="32" height="32" viewBox="0 0 32 32" fill="none" xmlns="http://www.w3.org/2000/svg">
<g clip-path="url(#clip0_16_2483)">
<path fill-rule="evenodd" clip-rule="evenodd" d="M14.514 25.556C15.2738 26.1816 16.1367 26.6703 17.064 27L16.922 25.626C19.0795 25.4188 21.1049 24.493 22.6734 22.9972C24.2419 21.5014 25.2627 19.5222 25.572 17.377C26.19 16.6221 26.6731 15.7662 27 14.847L25.617 14.99C25.3916 12.8496 24.459 10.8455 22.9665 9.29472C21.4741 7.74398 19.5072 6.7352 17.377 6.428C16.6221 5.81003 15.7662 5.32694 14.847 5L14.99 6.383C12.8496 6.60836 10.8455 7.54104 9.29472 9.03346C7.74398 10.5259 6.7352 12.4928 6.428 14.623C5.81003 15.3779 5.32694 16.2338 5 17.153L6.383 17.01C6.60631 19.1317 7.5247 21.1201 8.99525 22.6657C10.4658 24.2113 12.406 25.2274 14.514 25.556ZM15.084 21.424C13.9004 21.2237 12.8147 20.6418 11.9925 19.7671C11.1703 18.8924 10.6567 17.7728 10.53 16.579L11.83 16.444C11.354 16.0716 10.9285 15.639 10.564 15.157C10.7503 13.9582 11.3276 12.8547 12.206 12.0179C13.0843 11.1811 14.2146 10.658 15.421 10.53L15.556 11.83C15.9284 11.354 16.361 10.9285 16.843 10.564C18.0418 10.7503 19.1453 11.3276 19.9821 12.206C20.8189 13.0843 21.342 14.2146 21.47 15.421L20.17 15.556C20.6459 15.9285 21.0714 16.3611 21.436 16.843C21.2472 18.0566 20.6578 19.1722 19.7617 20.0121C18.8656 20.852 17.7143 21.3681 16.491 21.478L16.355 20.169C15.966 20.66 15.543 21.079 15.084 21.424ZM16 32C7.163 32 0 24.837 0 16C0 7.163 7.163 0 16 0C24.837 0 32 7.163 32 16C32 24.837 24.837 32 16 32Z" fill="black"/>
<path opacity="0.5" fill-rule="evenodd" clip-rule="evenodd" d="M6.383 17.01L5 17.153C5.74 15.083 7.203 13.427 9.391 12.185C9.598 13.901 10.411 15.32 11.831 16.444L10.531 16.579C10.6577 17.7726 11.1711 18.8921 11.9931 19.7668C12.8151 20.6415 13.9005 21.2235 15.084 21.424C14.2125 22.0796 13.1809 22.4888 12.097 22.609C12.778 23.809 13.584 24.792 14.514 25.556C12.406 25.2274 10.4658 24.2113 8.99525 22.6657C7.5247 21.1201 6.60631 19.1317 6.383 17.01ZM25.617 14.99L27 14.847C26.26 16.917 24.797 18.573 22.609 19.815C22.402 18.099 21.589 16.68 20.169 15.556L21.469 15.421C21.341 14.2148 20.8181 13.0846 19.9815 12.2062C19.1449 11.3279 18.0416 10.7505 16.843 10.564C17.7115 9.91525 18.7375 9.51029 19.815 9.391C19.128 8.182 18.316 7.195 17.377 6.428C19.5072 6.7352 21.4741 7.74398 22.9665 9.29472C24.459 10.8455 25.3916 12.8496 25.617 14.99Z" fill="black"/>
</g>
<defs>
<clipPath id="clip0_16_2483">
<rect width="32" height="32" fill="white"/>
</clipPath>
</defs>
</svg>
