<svg width="32" height="32" viewBox="0 0 32 32" fill="none" xmlns="http://www.w3.org/2000/svg">
<g clip-path="url(#clip0_16_2487)">
<path fill-rule="evenodd" clip-rule="evenodd" d="M16 32C7.163 32 0 24.837 0 16C0 7.163 7.163 0 16 0C24.837 0 32 7.163 32 16C32 24.837 24.837 32 16 32ZM9.171 8V9.925H22.987V8H9.171ZM7.631 13.641V15.586H12.526V15.971C12.447 17.857 12.053 19.378 11.303 20.571C10.553 21.651 9.132 22.574 7 23.306L8.105 25C10.315 24.25 11.895 23.19 12.882 21.843C13.888 20.379 14.441 18.416 14.539 15.971V15.586H17.461V22.516C17.461 23.922 18.151 24.634 19.553 24.634H22.691C23.381 24.634 23.895 24.422 24.25 24.037C24.605 23.633 24.862 22.343 25 20.167L23.145 19.59C23.105 21.15 23.007 22.093 22.868 22.4C22.75 22.69 22.553 22.844 22.316 22.844H20.145C19.691 22.844 19.474 22.594 19.474 22.093V15.586H24.704V13.64L7.631 13.641Z" fill="black"/>
</g>
<defs>
<clipPath id="clip0_16_2487">
<rect width="32" height="32" fill="white"/>
</clipPath>
</defs>
</svg>
