<svg width="32" height="32" viewBox="0 0 32 32" fill="none" xmlns="http://www.w3.org/2000/svg">
<g clip-path="url(#clip0_16_2489)">
<path fill-rule="evenodd" clip-rule="evenodd" d="M16 32C7.163 32 0 24.837 0 16C0 7.163 7.163 0 16 0C24.837 0 32 7.163 32 16C32 24.837 24.837 32 16 32ZM16 25H20.536L18.264 21.043H13.736L11.464 25H16ZM13.737 10.956H18.264L20.536 7H11.464L13.736 10.957L13.737 10.956ZM23.736 20.495L26 16.538H21.464L19.199 20.495H19.2L21.463 24.453L23.736 20.496H23.734H23.736V20.495ZM8.264 11.496L6 15.453H10.536L12.8 11.496L10.536 7.539L8.264 11.496ZM12.799 20.496H12.8L10.536 16.538H6L8.264 20.495L10.536 24.453L12.8 20.496H12.799ZM23.736 11.496L21.463 7.539L19.199 11.496L21.463 15.453H26L23.736 11.496Z" fill="black"/>
</g>
<defs>
<clipPath id="clip0_16_2489">
<rect width="32" height="32" fill="white"/>
</clipPath>
</defs>
</svg>
