<svg width="32" height="32" viewBox="0 0 32 32" fill="none" xmlns="http://www.w3.org/2000/svg">
<g clip-path="url(#clip0_16_2491)">
<path d="M16 32C7.163 32 0 24.837 0 16C0 7.163 7.163 0 16 0C24.837 0 32 7.163 32 16C32 24.837 24.837 32 16 32ZM25.678 13.283L23.99 11.595C23.7364 11.3401 23.4346 11.1381 23.1023 11.0008C22.7699 10.8634 22.4136 10.7935 22.054 10.795H21.794V10.525C21.794 10.052 21.682 9.602 21.446 9.197C21.3245 8.96212 21.1647 8.74919 20.973 8.567L19.285 6.878C19.0312 6.62297 18.7293 6.42091 18.3968 6.28357C18.0643 6.14624 17.7078 6.07636 17.348 6.078H9.57C8.838 6.078 8.152 6.36 7.634 6.878L5.946 8.566C5.69037 8.81681 5.48781 9.11649 5.35037 9.4472C5.21293 9.77791 5.14343 10.1329 5.146 10.491L5.101 17.786C5.091 18.517 5.383 19.226 5.901 19.744L7.589 21.433C7.84269 21.6878 8.14447 21.8896 8.47682 22.0268C8.80917 22.1639 9.16546 22.2337 9.525 22.232H9.829V22.502C9.829 22.975 9.942 23.425 10.178 23.83C10.302 24.067 10.459 24.28 10.651 24.46L12.339 26.15C12.5929 26.4044 12.8948 26.6059 13.2271 26.7428C13.5594 26.8798 13.9156 26.9496 14.275 26.948H22.065C22.797 26.948 23.483 26.667 24.001 26.149L25.69 24.461C25.9445 24.2071 26.1462 23.9053 26.2833 23.573C26.4205 23.2407 26.4904 22.8845 26.489 22.525V15.208C26.4871 14.8497 26.4146 14.4952 26.2756 14.1649C26.1366 13.8346 25.9339 13.5349 25.679 13.283H25.678ZM9.525 19.755C9.45356 19.7551 9.38495 19.7271 9.334 19.677L8.49 18.832L7.645 17.988C7.60875 17.9454 7.58183 17.8957 7.566 17.842V10.503C7.566 10.423 7.6 10.356 7.646 10.311L9.334 8.623C9.356 8.6 9.379 8.589 9.401 8.578C9.44271 8.55624 9.48896 8.54459 9.536 8.544H17.326C17.371 8.544 17.405 8.555 17.45 8.578C17.484 8.589 17.506 8.612 17.529 8.634L19.217 10.323C19.2419 10.3439 19.2612 10.3707 19.273 10.401C19.285 10.413 19.285 10.424 19.285 10.435C19.285 10.446 19.295 10.458 19.295 10.469C19.295 10.48 19.307 10.514 19.307 10.536V10.896C19.307 11.054 19.183 11.166 19.037 11.166H17.687C17.6152 11.1664 17.5462 11.1383 17.495 11.088L16.729 10.323H10.133L9.852 10.603L9.469 10.987V17.324L10.133 17.988H16.718L17.484 17.212L17.494 17.2C17.517 17.189 17.54 17.166 17.562 17.155C17.596 17.133 17.642 17.133 17.675 17.133H19.025C19.115 17.133 19.195 17.178 19.251 17.245C19.286 17.2904 19.3056 17.3457 19.307 17.403V17.786C19.3068 17.8576 19.2784 17.9262 19.228 17.977L18.384 18.821L17.54 19.665C17.529 19.677 17.506 19.688 17.495 19.699C17.495 19.699 17.484 19.71 17.472 19.71C17.461 19.722 17.45 19.722 17.438 19.722C17.428 19.722 17.428 19.722 17.416 19.733C17.405 19.733 17.393 19.744 17.382 19.744H9.525V19.755ZM24.024 22.502C24.0236 22.5737 23.9948 22.6424 23.944 22.693L22.256 24.382C22.2364 24.4007 22.2137 24.4159 22.189 24.427C22.1473 24.4488 22.101 24.4604 22.054 24.461H14.264C14.2205 24.4604 14.1778 24.4487 14.14 24.427C14.1099 24.4149 14.0831 24.3957 14.062 24.371L12.373 22.682C12.351 22.66 12.328 22.637 12.317 22.603C12.305 22.593 12.305 22.581 12.305 22.57C12.305 22.558 12.295 22.547 12.295 22.536C12.295 22.525 12.283 22.491 12.283 22.468V22.108C12.283 21.951 12.407 21.838 12.553 21.838H13.903C13.983 21.838 14.05 21.872 14.095 21.917L14.861 22.682H21.446L21.727 22.401L22.11 22.018V15.681L21.446 15.016H14.872L14.107 15.793L14.095 15.804C14.073 15.816 14.05 15.838 14.028 15.849C13.994 15.872 13.949 15.872 13.915 15.872H12.565C12.5213 15.8711 12.4783 15.8606 12.4392 15.841C12.4001 15.8215 12.3659 15.7935 12.339 15.759C12.3042 15.7139 12.2846 15.6589 12.283 15.602V15.219C12.283 15.1835 12.2899 15.1484 12.3035 15.1156C12.3171 15.0829 12.3369 15.0531 12.362 15.028L13.206 14.184L14.05 13.339C14.062 13.328 14.084 13.317 14.095 13.305C14.095 13.305 14.107 13.295 14.118 13.295C14.129 13.283 14.14 13.283 14.152 13.283C14.162 13.283 14.162 13.283 14.174 13.272C14.185 13.272 14.197 13.26 14.208 13.26H22.054C22.132 13.26 22.2 13.294 22.245 13.34L23.089 14.184L23.934 15.028C23.9476 15.0409 23.9588 15.0561 23.967 15.073C23.9869 15.1042 24.0021 15.1383 24.012 15.174V15.23C24.024 15.208 24.024 22.502 24.024 22.502Z" fill="black"/>
</g>
<defs>
<clipPath id="clip0_16_2491">
<rect width="32" height="32" fill="white"/>
</clipPath>
</defs>
</svg>
