<svg width="32" height="32" viewBox="0 0 32 32" fill="none" xmlns="http://www.w3.org/2000/svg">
<g clip-path="url(#clip0_16_2499)">
<path fill-rule="evenodd" clip-rule="evenodd" d="M16 32C7.163 32 0 24.837 0 16C0 7.163 7.163 0 16 0C24.837 0 32 7.163 32 16C32 24.837 24.837 32 16 32ZM21.833 9.744L22.409 9.156C20.805 7.813 18.832 7.057 16.775 7.057C12.128 7.057 8.303 10.71 8.015 15.454H8.837C9.125 11.214 12.58 7.897 16.775 7.897C18.625 7.897 20.395 8.527 21.833 9.744ZM21.545 12.515L22.122 11.928C21.507 11.0858 20.7026 10.4 19.7738 9.92579C18.8451 9.45159 17.8178 9.20229 16.775 9.198C13.073 9.198 10.071 12.264 10.071 16C10.071 19.778 13.073 22.843 16.775 22.843C18.873 22.843 20.846 21.835 22.122 20.114L21.545 19.526C21.005 20.2894 20.2904 20.9126 19.4606 21.3436C18.6308 21.7747 17.71 22.0011 16.775 22.004C13.526 22.004 10.894 19.316 10.894 16C10.894 12.725 13.526 10.038 16.774 10.038C17.7092 10.0405 18.6301 10.2666 19.4601 10.6975C20.2901 11.1284 21.0049 11.7516 21.545 12.515ZM22.491 10.374C22.697 10.584 22.861 10.794 23.026 11.004L23.602 10.416C23.437 10.206 23.272 9.996 23.068 9.786L22.491 10.374ZM16.734 24.984C18.802 24.9771 20.7997 24.2329 22.368 22.885L21.792 22.298C20.3802 23.4971 18.5863 24.1522 16.734 24.145C12.539 24.145 9.084 20.828 8.796 16.588H7.974C8.262 21.332 12.087 24.984 16.734 24.984ZM22.491 21.668L23.068 22.256C23.273 22.046 23.438 21.836 23.602 21.626L23.026 21.038C22.862 21.248 22.697 21.458 22.491 21.668ZM6.823 16C6.823 10.416 11.305 5.84 16.775 5.84C19.736 5.84 22.532 7.184 24.425 9.535L25 8.947C22.944 6.427 19.941 5 16.775 5C10.853 5 6 9.912 6 16C6 22.045 10.812 27 16.775 27C19.983 27 22.945 25.572 25 23.053L24.424 22.466C22.532 24.859 19.736 26.16 16.774 26.16C11.305 26.16 6.823 21.584 6.823 16Z" fill="black"/>
</g>
<defs>
<clipPath id="clip0_16_2499">
<rect width="32" height="32" fill="white"/>
</clipPath>
</defs>
</svg>
