<svg width="32" height="32" viewBox="0 0 32 32" fill="none" xmlns="http://www.w3.org/2000/svg">
<g clip-path="url(#clip0_16_2501)">
<path d="M16 0C24.837 0 32 7.163 32 16C32 24.837 24.837 32 16 32C7.163 32 0 24.837 0 16C0 7.163 7.163 0 16 0ZM12.997 7.25C9.101 7.25 7.75 11.86 7.75 14.987C7.75 18.115 8.427 20.347 8.955 21.663C9.484 22.98 10.525 25.25 12.765 25.25C15.005 25.25 15.528 22.396 15.976 21.653C16.424 20.909 23.613 19.833 24.532 19.018C25.452 18.203 27.297 14.028 23.187 11.056C19.077 8.085 14.748 7.25 12.997 7.25ZM11.603 15.529L11.738 15.533C13.004 15.625 14.254 17.019 14.526 19.655C14.816 22.479 13.359 23.785 12.376 23.785C11.393 23.785 9.763 21.943 9.62 19.781C9.477 17.619 10.114 15.635 11.467 15.534L11.603 15.529ZM15.249 12.543C14.365 10.607 17.164 11.277 19.059 12.014C20.953 12.752 23.372 13.811 22.315 14.68C21.609 15.26 19.495 15.679 15.97 15.939C15.787 14.327 15.547 13.195 15.249 12.543Z" fill="black"/>
</g>
<defs>
<clipPath id="clip0_16_2501">
<rect width="32" height="32" fill="white"/>
</clipPath>
</defs>
</svg>
