<svg width="32" height="32" viewBox="0 0 32 32" fill="none" xmlns="http://www.w3.org/2000/svg">
<g clip-path="url(#clip0_16_2505)">
<path fill-rule="evenodd" clip-rule="evenodd" d="M16.931 9.625C16.992 8.437 17.385 5.799 18.635 5.799C18.965 5.799 19.236 5.893 19.447 6.081C19.147 6.238 18.996 6.504 18.996 6.881C18.996 7.444 19.469 7.821 19.943 7.821C20.416 7.821 20.889 7.538 20.889 6.881C20.89 6.221 20.26 5 18.77 5C16.312 5.046 15.35 7.855 15.301 9.695C12.8 10.09 10.25 11.86 10.25 15.953C10.25 19.593 12.699 22.096 15.327 22.518C15.211 24.616 14.533 26.248 13.631 26.248C13.361 26.248 13.091 26.154 12.82 25.966C13.09 25.809 13.225 25.527 13.225 25.12C13.225 24.509 12.775 24.18 12.324 24.18C11.873 24.18 11.377 24.462 11.377 25.12C11.377 26.13 12.324 27 13.451 27C15.831 27 16.791 24.556 16.978 22.527C19.468 22.216 21.25 20.644 21.25 19.949C21.25 19.619 21.025 19.479 20.844 19.479C20.519 19.479 19.267 21.163 17.012 21.492C17.006 19.317 16.944 12.997 16.927 10.701C17.773 10.748 18.501 10.974 19.221 12.051C19.889 13.051 19.762 13.556 20.213 13.556C20.513 13.556 20.679 13.43 20.709 13.179C20.589 12.814 20.529 12.547 20.529 12.38C20.529 12.13 20.574 11.722 20.574 11.534C20.574 11.27 19.384 9.806 16.931 9.625ZM15.344 21.413C13.618 20.892 12.234 18.881 12.234 15.953C12.234 14.106 12.994 11.36 15.301 10.793C15.309 13.37 15.34 18.979 15.344 21.413ZM16 32C7.163 32 0 24.837 0 16C0 7.163 7.163 0 16 0C24.837 0 32 7.163 32 16C32 24.837 24.837 32 16 32Z" fill="black"/>
</g>
<defs>
<clipPath id="clip0_16_2505">
<rect width="32" height="32" fill="white"/>
</clipPath>
</defs>
</svg>
