<svg width="32" height="32" viewBox="0 0 32 32" fill="none" xmlns="http://www.w3.org/2000/svg">
<g clip-path="url(#clip0_16_2509)">
<path d="M16 32C7.163 32 0 24.837 0 16C0 7.163 7.163 0 16 0C24.837 0 32 7.163 32 16C32 24.837 24.837 32 16 32ZM15.897 4.398V4.391L20.745 18C20.7639 18.0401 20.7737 18.0838 20.7737 18.1281C20.7737 18.1724 20.7639 18.2162 20.745 18.2563C20.726 18.2963 20.6985 18.3317 20.6642 18.3598C20.63 18.388 20.59 18.4082 20.547 18.419L16.953 19.409C16.66 19.482 16.726 19.966 17.027 19.981L26.186 21.807C26.362 21.836 26.538 21.895 26.721 21.895C23.291 15.9782 19.859 10.0625 16.425 4.148C16.279 3.833 15.751 4.068 15.897 4.398ZM15.369 4.428C11.918 10.388 8.461 16.344 5 22.298V22.468C5.073 22.57 5.161 22.673 5.293 22.673C5.477 22.651 5.572 22.475 5.682 22.358L15.127 11.262C15.223 11.122 15.435 11.035 15.582 11.167C16.492 12.135 17.372 13.132 18.295 14.1C18.471 14.29 18.831 14.078 18.735 13.822C17.657 10.742 16.543 7.662 15.457 4.582C15.4321 4.52828 15.4026 4.47676 15.369 4.428ZM12.48 14.995C10.273 17.62 8.08 20.275 5.88 22.915H26.86L27 22.768V22.563C26.927 22.504 26.86 22.431 26.765 22.416C21.823 21.426 16.88 20.4 11.937 19.41C11.783 19.402 11.637 19.256 11.695 19.094C12.077 17.826 12.465 16.557 12.832 15.281C12.891 15.068 12.656 14.944 12.48 14.995Z" fill="black"/>
</g>
<defs>
<clipPath id="clip0_16_2509">
<rect width="32" height="32" fill="white"/>
</clipPath>
</defs>
</svg>
