<svg width="32" height="32" viewBox="0 0 32 32" fill="none" xmlns="http://www.w3.org/2000/svg">
<g clip-path="url(#clip0_16_2519)">
<path fill-rule="evenodd" clip-rule="evenodd" d="M16 32C7.163 32 0 24.837 0 16C0 7.163 7.163 0 16 0C24.837 0 32 7.163 32 16C32 24.837 24.837 32 16 32ZM20.054 5.606C19.678 5.606 19.363 5.726 19.107 5.965C18.867 6.204 18.748 6.519 18.748 6.912V13.824C18.1519 13.0901 17.3984 12.4997 16.5434 12.0964C15.6883 11.6931 14.7534 11.4872 13.808 11.494C12.578 11.494 11.461 11.802 10.454 12.416C9.464 13.03 8.679 13.884 8.099 14.976C7.535 16.051 7.254 17.254 7.254 18.586C7.254 19.918 7.561 21.129 8.175 22.221C8.77768 23.2843 9.65267 24.1679 10.71 24.781C11.802 25.395 13.005 25.702 14.32 25.702C15.634 25.702 16.82 25.395 17.878 24.781C18.935 24.1678 19.8096 23.2842 20.412 22.221C21.044 21.129 21.359 19.917 21.359 18.586V6.912C21.359 6.519 21.24 6.204 21.001 5.965C20.762 5.725 20.446 5.606 20.054 5.606ZM14.319 23.398C13.466 23.398 12.689 23.194 11.989 22.784C11.3031 22.3538 10.7391 21.7546 10.351 21.044C9.959 20.309 9.763 19.49 9.763 18.586C9.763 17.682 9.959 16.87 10.351 16.154C10.7351 15.4465 11.3008 14.8541 11.99 14.438C12.69 14.012 13.466 13.798 14.32 13.798C15.173 13.798 15.94 14.012 16.623 14.438C17.323 14.848 17.869 15.42 18.262 16.154C18.654 16.87 18.851 17.681 18.851 18.586C18.851 19.491 18.654 20.309 18.261 21.043C17.8833 21.7613 17.317 22.3632 16.623 22.784C15.941 23.194 15.173 23.398 14.319 23.398Z" fill="black"/>
</g>
<defs>
<clipPath id="clip0_16_2519">
<rect width="32" height="32" fill="white"/>
</clipPath>
</defs>
</svg>
