<svg width="32" height="32" viewBox="0 0 32 32" fill="none" xmlns="http://www.w3.org/2000/svg">
<g clip-path="url(#clip0_16_2533)">
<path fill-rule="evenodd" clip-rule="evenodd" d="M16 32C7.163 32 0 24.837 0 16C0 7.163 7.163 0 16 0C24.837 0 32 7.163 32 16C32 24.837 24.837 32 16 32ZM12.161 22.816H11.89V9.183H12.235C12.531 9.183 12.816 9.068 13.026 8.863C13.236 8.659 13.354 8.381 13.354 8.092C13.354 7.489 12.853 7 12.234 7H10.678C10.365 7 10.066 7.12 9.845 7.336C9.73613 7.44162 9.64951 7.56797 9.59026 7.7076C9.531 7.84723 9.50032 7.99732 9.5 8.149V23.822C9.5 24.134 9.627 24.434 9.854 24.655C10.08 24.875 10.387 25 10.708 25H12.161C12.779 25 13.281 24.511 13.281 23.908C13.281 23.305 12.779 22.817 12.161 22.816ZM24.331 11.364C23.5652 10.0392 22.4508 8.94965 21.109 8.214C19.74 7.453 18.209 7.072 16.518 7.072H16.169C15.872 7.072 15.588 7.187 15.378 7.392C15.168 7.596 15.05 7.874 15.05 8.164C15.05 8.767 15.551 9.255 16.17 9.255H16.466C17.693 9.255 18.809 9.545 19.813 10.121C20.8028 10.6851 21.6233 11.5041 22.189 12.493C22.769 13.497 23.059 14.626 23.06 15.881C23.06 17.119 22.774 18.241 22.202 19.243C21.629 20.247 20.997 21.178 20.011 21.746C19.024 22.315 18.146 22.816 16.935 22.816H16.245C15.627 22.816 15.125 23.304 15.125 23.907C15.125 24.51 15.628 25 16.246 25H16.813C18.522 25 19.901 24.496 21.22 23.642C22.657 22.712 23.532 21.687 24.319 20.348C25.106 19.009 25.501 17.513 25.501 15.856C25.501 14.199 25.111 12.703 24.332 11.365L24.331 11.364Z" fill="black"/>
</g>
<defs>
<clipPath id="clip0_16_2533">
<rect width="32" height="32" fill="white"/>
</clipPath>
</defs>
</svg>
