<svg width="32" height="32" viewBox="0 0 32 32" fill="none" xmlns="http://www.w3.org/2000/svg">
<g clip-path="url(#clip0_16_2535)">
<path fill-rule="evenodd" clip-rule="evenodd" d="M16 32C7.163 32 0 24.837 0 16C0 7.163 7.163 0 16 0C24.837 0 32 7.163 32 16C32 24.837 24.837 32 16 32ZM12.368 25H14.236C14.498 25 14.593 24.933 14.688 24.682C14.842 24.274 14.998 23.867 15.145 23.456C15.186 23.338 15.25 23.286 15.369 23.256C16.709 22.934 18.003 22.478 19.227 21.829C20.361 21.227 21.395 20.483 22.291 19.547C23.591 18.187 24.489 16.575 25.121 14.801C25.388 14.051 25.535 13.275 25.493 12.471C25.449 11.64 25.172 10.905 24.614 10.289C24.202 9.834 23.701 9.509 23.15 9.26C22.425 8.933 21.66 8.755 20.876 8.659C20.831 8.653 20.786 8.643 20.73 8.633L20.791 8.46C20.929 8.093 21.068 7.727 21.203 7.358C21.288 7.128 21.203 7.002 20.965 7.001C20.401 6.999 19.836 7.001 19.272 7.001C19.139 7.001 19.137 7.002 19.087 7.135L18.591 8.452C18.574 8.497 18.552 8.541 18.533 8.585H17.728C17.75 8.517 17.767 8.46 17.788 8.405C17.911 8.073 18.037 7.743 18.16 7.412C18.18 7.36 18.2 7.308 18.208 7.254C18.227 7.124 18.154 7.024 18.028 7.004C17.985 6.998 17.941 7.001 17.898 7.001H16.114L15.513 8.591H9.648C9.50253 8.58507 9.35845 8.62139 9.23317 8.69557C9.10789 8.76974 9.00676 8.8786 8.942 9.009L7.554 11.509C7.534 11.545 7.524 11.586 7.5 11.645H18.52C19.088 11.649 19.614 11.793 20.082 12.13C20.435 12.386 20.672 12.728 20.78 13.16C20.879 13.555 20.856 13.951 20.783 14.346C20.66 15.0215 20.434 15.6741 20.113 16.281C18.645 19.058 16.373 20.536 13.277 20.671C13.232 20.673 13.187 20.667 13.129 20.663C13.155 20.588 13.173 20.53 13.194 20.474L15.252 15C15.409 14.582 15.571 14.165 15.723 13.744C15.839 13.426 15.655 13.146 15.324 13.121C15.292 13.119 15.259 13.119 15.227 13.119H11.956C11.908 13.119 11.861 13.126 11.821 13.129C11.661 13.436 7.611 23.648 7.598 23.781C8.308 23.862 9.021 23.875 9.754 23.894L9.352 24.979C9.385 24.989 9.4 24.998 9.415 24.998C10.045 24.998 10.674 25 11.303 24.998C11.446 24.998 11.549 24.92 11.616 24.795C11.647 24.737 11.667 24.673 11.691 24.611L11.997 23.801L12.847 23.718L12.368 25Z" fill="black"/>
</g>
<defs>
<clipPath id="clip0_16_2535">
<rect width="32" height="32" fill="white"/>
</clipPath>
</defs>
</svg>
