<svg width="32" height="32" viewBox="0 0 32 32" fill="none" xmlns="http://www.w3.org/2000/svg">
<g clip-path="url(#clip0_16_2537)">
<path fill-rule="evenodd" clip-rule="evenodd" d="M16 32C7.163 32 0 24.837 0 16C0 7.163 7.163 0 16 0C24.837 0 32 7.163 32 16C32 24.837 24.837 32 16 32ZM5.5 11V21H15.5V11H5.5ZM12.5 14V11H13.5V15H5.5V14H12.5ZM7.5 17H13.5V19H7.5V17ZM26.5 13V11H16.5V21H26.5V15H20.5V17H24.5V19H18.5V13H26.5Z" fill="black"/>
</g>
<defs>
<clipPath id="clip0_16_2537">
<rect width="32" height="32" fill="white"/>
</clipPath>
</defs>
</svg>
