<svg width="32" height="32" viewBox="0 0 32 32" fill="none" xmlns="http://www.w3.org/2000/svg">
<g clip-path="url(#clip0_16_2539)">
<path d="M16 32C7.163 32 0 24.837 0 16C0 7.163 7.163 0 16 0C24.837 0 32 7.163 32 16C32 24.837 24.837 32 16 32ZM15.807 8.958C15.8264 8.91538 15.8576 8.87923 15.897 8.85387C15.9363 8.82852 15.9822 8.81502 16.029 8.815C16.123 8.815 16.209 8.872 16.249 8.96L22.539 22.655C22.6081 22.808 22.7196 22.9379 22.8604 23.0294C23.0011 23.1208 23.1651 23.17 23.333 23.171H23.417C23.5421 23.1704 23.6635 23.1287 23.7626 23.0522C23.8616 22.9758 23.9327 22.8689 23.965 22.748C24.0265 22.5263 24.0059 22.2898 23.907 22.082L16.614 6.83C16.5822 6.76372 16.5361 6.70531 16.479 6.659C16.3533 6.55491 16.1948 6.49863 16.0315 6.50009C15.8683 6.50156 15.7109 6.56067 15.587 6.667C15.4551 6.78061 15.3484 6.92062 15.274 7.078L8.084 22.226C7.99581 22.4127 7.97656 22.6245 8.02964 22.824C8.08272 23.0236 8.20471 23.1978 8.374 23.316L8.43 23.356C8.568 23.45 8.73 23.5 8.896 23.5H19.648C19.8186 23.4991 19.9859 23.4528 20.1327 23.3658C20.2794 23.2788 20.4004 23.1543 20.483 23.005C20.5303 22.9201 20.5576 22.8256 20.563 22.7286C20.5684 22.6316 20.5516 22.5346 20.514 22.445L20.504 22.42C20.4492 22.286 20.356 22.1713 20.236 22.0903C20.116 22.0093 19.9747 21.9657 19.83 21.965H9.713L15.807 8.958Z" fill="black"/>
</g>
<defs>
<clipPath id="clip0_16_2539">
<rect width="32" height="32" fill="white"/>
</clipPath>
</defs>
</svg>
