<svg width="32" height="32" viewBox="0 0 32 32" fill="none" xmlns="http://www.w3.org/2000/svg">
<g clip-path="url(#clip0_16_2543)">
<path d="M16 32C7.163 32 0 24.837 0 16C0 7.163 7.163 0 16 0C24.837 0 32 7.163 32 16C32 24.837 24.837 32 16 32ZM15.931 10.771V10.767C14.3267 10.5793 12.7032 10.8817 11.274 11.6343C9.84479 12.3869 8.6769 13.5545 7.92394 14.9835C7.17098 16.4126 6.86822 18.036 7.0555 19.6404C7.24277 21.2447 7.9113 22.7548 8.97315 23.972C10.035 25.1891 11.4404 26.0563 13.0045 26.4596C14.5686 26.8628 16.2181 26.7831 17.7361 26.231C19.254 25.6788 20.5693 24.6802 21.5089 23.3663C22.4484 22.0524 22.9683 20.4849 23 18.87L22.999 18.803V6.142C22.999 5.83886 22.8786 5.54813 22.6642 5.33378C22.4499 5.11942 22.1591 4.999 21.856 4.999C21.5529 4.999 21.2621 5.11942 21.0478 5.33378C20.8334 5.54813 20.713 5.83886 20.713 6.142V18.718C20.7085 19.8858 20.3452 21.0241 19.6721 21.9785C18.9991 22.9328 18.0489 23.6572 16.9503 24.0535C15.8517 24.4497 14.6579 24.4986 13.5306 24.1936C12.4033 23.8886 11.397 23.2444 10.6481 22.3483C9.89923 21.4521 9.44394 20.3474 9.34395 19.1839C9.24397 18.0203 9.50411 16.8542 10.0891 15.8434C10.6742 14.8327 11.5558 14.0262 12.6145 13.5333C13.6733 13.0405 14.8579 12.885 16.008 13.088L14.301 14.795C14.095 15.011 13.9816 15.299 13.9851 15.5974C13.9886 15.8959 14.1087 16.1812 14.3198 16.3922C14.5308 16.6033 14.8161 16.7234 15.1146 16.7269C15.413 16.7304 15.701 16.617 15.917 16.411L19.557 12.775C19.6632 12.6689 19.7475 12.5428 19.805 12.4041C19.8625 12.2654 19.8921 12.1167 19.8921 11.9665C19.8921 11.8163 19.8625 11.6676 19.805 11.5289C19.7475 11.3902 19.6632 11.2641 19.557 11.158L15.921 7.522L15.883 7.484C15.7744 7.38012 15.6464 7.29866 15.5063 7.24425C15.3662 7.18984 15.2168 7.16356 15.0665 7.1669C14.9163 7.17024 14.7682 7.20315 14.6307 7.26373C14.4931 7.32432 14.3689 7.4114 14.265 7.52C14.1611 7.6286 14.0797 7.7566 14.0252 7.89669C13.9708 8.03678 13.9446 8.18621 13.9479 8.33646C13.9512 8.4867 13.9841 8.63482 14.0447 8.77235C14.1053 8.90987 14.1924 9.03412 14.301 9.138L15.931 10.771Z" fill="black"/>
</g>
<defs>
<clipPath id="clip0_16_2543">
<rect width="32" height="32" fill="white"/>
</clipPath>
</defs>
</svg>
