<svg width="32" height="32" viewBox="0 0 32 32" fill="none" xmlns="http://www.w3.org/2000/svg">
<g clip-path="url(#clip0_16_2549)">
<path d="M9.403 9.957L9.4 20.78H12.218L12.146 13.453L20.426 23.966L22.654 26.796L22.636 25.223L22.607 11.044H19.833L19.905 18.43L9.577 5.306L9.404 5.086V9.034L9.4 9.954L9.403 9.957ZM16 32C7.163 32 0 24.837 0 16C0 7.163 7.163 0 16 0C24.837 0 32 7.163 32 16C32 24.837 24.837 32 16 32Z" fill="black"/>
<path opacity="0.398" d="M9.40302 9.957L20.427 23.967L12.146 13.453L12.218 20.78H9.40002L9.40302 9.957ZM9.40302 9.034L9.40403 5.087L9.57702 5.306L9.41603 5.102L9.40302 9.034ZM19.905 18.43L19.833 11.044H22.607L22.637 25.224L22.599 21.854L19.905 18.43Z" fill="black"/>
</g>
<defs>
<clipPath id="clip0_16_2549">
<rect width="32" height="32" fill="white"/>
</clipPath>
</defs>
</svg>
