<svg width="32" height="32" viewBox="0 0 32 32" fill="none" xmlns="http://www.w3.org/2000/svg">
<g clip-path="url(#clip0_16_2558)">
<path fill-rule="evenodd" clip-rule="evenodd" d="M16 32C7.163 32 0 24.837 0 16C0 7.163 7.163 0 16 0C24.837 0 32 7.163 32 16C32 24.837 24.837 32 16 32ZM18.032 22.87V9.08C18.032 7.934 17.112 7.005 15.976 7.005C14.84 7.005 13.921 7.934 13.921 9.08V22.87C13.921 24.015 14.841 24.944 15.976 24.944C17.111 24.944 18.032 24.015 18.032 22.869V22.87ZM11.112 22.875V19.775C11.1187 19.409 11.0282 19.0478 10.85 18.7281C10.6717 18.4084 10.4119 18.1417 10.097 17.955C9.78386 17.7699 9.42676 17.6722 9.063 17.6722C8.69924 17.6722 8.34214 17.7699 8.029 17.955C7.71432 18.1418 7.45472 18.4086 7.27661 18.7283C7.09851 19.048 7.00824 19.4091 7.015 19.775V22.875C7.00824 23.2409 7.09851 23.602 7.27661 23.9217C7.45472 24.2414 7.71432 24.5082 8.029 24.695C8.668 25.071 9.459 25.071 10.097 24.695C10.4117 24.5082 10.6713 24.2414 10.8494 23.9217C11.0275 23.602 11.1178 23.2409 11.111 22.875H11.112ZM24.955 17.4V12.167C24.955 11.021 24.035 10.092 22.899 10.092C21.763 10.092 20.843 11.021 20.843 12.167V17.4C20.843 18.546 21.763 19.475 22.899 19.475C24.035 19.475 24.955 18.545 24.955 17.4Z" fill="black"/>
<path opacity="0.5" d="M24.956 17.4C24.956 18.545 24.036 19.474 22.9 19.474C21.764 19.474 20.844 18.544 20.844 17.399V12.166C20.844 11.02 21.764 10.091 22.9 10.091C24.036 10.091 24.956 11.02 24.956 12.166V17.4Z" fill="black"/>
</g>
<defs>
<clipPath id="clip0_16_2558">
<rect width="32" height="32" fill="white"/>
</clipPath>
</defs>
</svg>
