<svg width="32" height="32" viewBox="0 0 32 32" fill="none" xmlns="http://www.w3.org/2000/svg">
<g clip-path="url(#clip0_16_2562)">
<path d="M9.928 16.574H7.123L4 19.072H10.522C11.1373 20.5344 12.171 21.7823 13.4933 22.6591C14.8156 23.5359 16.3674 24.0024 17.954 24C22.398 24 26 20.418 26 16C26 11.582 22.398 8 17.954 8C16.3549 7.99752 14.7913 8.47141 13.4627 9.36121C12.134 10.251 11.1005 11.5164 10.494 12.996H4L7.123 15.494H9.923C9.90057 15.8537 9.90224 16.2145 9.928 16.574ZM16 32C7.163 32 0 24.837 0 16C0 7.163 7.163 0 16 0C24.837 0 32 7.163 32 16C32 24.837 24.837 32 16 32ZM22.537 16.149V16.455C22.537 16.557 22.531 16.659 22.517 16.761H15.48C15.5013 17.0747 15.5879 17.3806 15.7341 17.659C15.8802 17.9374 16.0829 18.1823 16.329 18.378C16.573 18.576 16.849 18.732 17.158 18.847C17.467 18.962 17.788 19.019 18.122 19.019C18.7 19.019 19.189 18.914 19.587 18.703C19.986 18.493 20.313 18.203 20.57 17.833L22.113 19.057C21.2 20.282 19.876 20.895 18.141 20.895C17.421 20.895 16.759 20.783 16.155 20.56C15.5741 20.3504 15.0402 20.0283 14.584 19.612C14.1326 19.1923 13.7775 18.6799 13.543 18.11C13.292 17.517 13.167 16.844 13.167 16.091C13.167 15.351 13.292 14.678 13.543 14.072C13.794 13.466 14.137 12.95 14.574 12.522C15.011 12.095 15.529 11.763 16.126 11.527C16.723 11.291 17.37 11.173 18.064 11.173C18.707 11.173 19.301 11.278 19.847 11.489C20.393 11.7 20.866 12.012 21.265 12.426C21.663 12.841 21.975 13.358 22.2 13.976C22.425 14.594 22.537 15.319 22.537 16.149ZM20.223 15.115C20.2245 14.8296 20.1823 14.5457 20.098 14.273C20.0181 14.0116 19.8835 13.7702 19.703 13.565C19.523 13.361 19.295 13.198 19.018 13.077C18.741 12.956 18.418 12.895 18.045 12.895C17.351 12.895 16.763 13.103 16.28 13.517C16.0451 13.715 15.853 13.9589 15.7154 14.2336C15.5779 14.5084 15.4978 14.8083 15.48 15.115H20.223Z" fill="black"/>
</g>
<defs>
<clipPath id="clip0_16_2562">
<rect width="32" height="32" fill="white"/>
</clipPath>
</defs>
</svg>
