<svg width="32" height="32" viewBox="0 0 32 32" fill="none" xmlns="http://www.w3.org/2000/svg">
<g clip-path="url(#clip0_16_2564)">
<path d="M16 32C7.163 32 0 24.837 0 16C0 7.163 7.163 0 16 0C24.837 0 32 7.163 32 16C32 24.837 24.837 32 16 32ZM15.999 25.612C15.9412 25.6125 15.8841 25.6244 15.8309 25.647C15.7777 25.6696 15.7295 25.7025 15.689 25.7437C15.6486 25.7849 15.6166 25.8337 15.595 25.8873C15.5733 25.9409 15.5625 25.9982 15.563 26.056C15.5625 26.1138 15.5733 26.1711 15.595 26.2247C15.6166 26.2783 15.6486 26.3271 15.689 26.3683C15.7295 26.4095 15.7777 26.4424 15.8309 26.465C15.8841 26.4876 15.9412 26.4995 15.999 26.5C16.0568 26.4995 16.1139 26.4876 16.1671 26.465C16.2203 26.4424 16.2685 26.4095 16.309 26.3683C16.3494 26.3271 16.3814 26.2783 16.403 26.2247C16.4247 26.1711 16.4355 26.1138 16.435 26.056C16.4355 25.9395 16.39 25.8274 16.3084 25.7443C16.2267 25.6611 16.1155 25.6136 15.999 25.612ZM7.219 11.358C7.372 11.448 7.564 11.435 7.705 11.326C7.7743 11.2716 7.82611 11.1981 7.85402 11.1146C7.88193 11.031 7.8847 10.9411 7.862 10.856C7.8969 10.794 7.91607 10.7243 7.91785 10.6532C7.91963 10.582 7.90395 10.5115 7.8722 10.4478C7.84045 10.3841 7.79358 10.3291 7.73569 10.2877C7.6778 10.2463 7.61065 10.2196 7.5401 10.2102C7.46955 10.2007 7.39776 10.2086 7.33098 10.2332C7.2642 10.2579 7.20448 10.2985 7.15702 10.3516C7.10956 10.4046 7.07582 10.4685 7.05873 10.5376C7.04164 10.6067 7.04174 10.6789 7.059 10.748C7.00041 10.8504 6.98435 10.9716 7.01427 11.0857C7.0442 11.1998 7.11771 11.2976 7.219 11.358ZM7.219 20.652C7.11839 20.712 7.04529 20.8091 7.01538 20.9224C6.98548 21.0356 7.00113 21.1561 7.059 21.258C7.179 21.47 7.446 21.543 7.655 21.421C7.75561 21.361 7.82871 21.2639 7.85862 21.1506C7.88852 21.0374 7.87287 20.9169 7.815 20.815C7.78685 20.7649 7.74903 20.7208 7.70372 20.6855C7.65841 20.6501 7.60653 20.6241 7.55108 20.6089C7.49563 20.5937 7.43772 20.5897 7.38071 20.5971C7.32371 20.6045 7.26874 20.6232 7.219 20.652ZM24.779 11.358C24.8549 11.3137 24.9161 11.248 24.955 11.1692C24.9938 11.0903 25.0086 11.0018 24.9976 10.9146C24.9865 10.8274 24.95 10.7454 24.8926 10.6788C24.8353 10.6122 24.7596 10.5639 24.675 10.54C24.591 10.5174 24.5021 10.5205 24.4199 10.5491C24.3377 10.5776 24.2659 10.6302 24.214 10.7C24.1611 10.7705 24.1301 10.8549 24.1245 10.9429C24.119 11.0308 24.1394 11.1185 24.183 11.195C24.2111 11.2451 24.249 11.2892 24.2943 11.3245C24.3396 11.3599 24.3915 11.3859 24.4469 11.4011C24.5024 11.4163 24.5603 11.4203 24.6173 11.4129C24.6743 11.4055 24.7293 11.3868 24.779 11.358ZM16 6.388C16.0873 6.38925 16.1729 6.36428 16.2458 6.31632C16.3187 6.26836 16.3756 6.19962 16.409 6.119C16.4431 6.03805 16.4527 5.9489 16.4367 5.86254C16.4207 5.77618 16.3798 5.69639 16.319 5.633C16.2589 5.57014 16.1811 5.52695 16.096 5.5091C16.0109 5.49126 15.9223 5.49959 15.842 5.533C15.7617 5.56722 15.6932 5.62436 15.6452 5.69729C15.5972 5.77022 15.5717 5.85568 15.572 5.943C15.572 6.186 15.762 6.383 16 6.388ZM23.8 20.582C23.9032 20.3949 24.0715 20.2522 24.273 20.1808C24.4744 20.1095 24.695 20.1146 24.893 20.195V11.8C24.6959 11.8804 24.4762 11.8858 24.2754 11.8152C24.0745 11.7447 23.9065 11.603 23.803 11.417C23.6973 11.2304 23.6614 11.0122 23.7017 10.8016C23.742 10.5909 23.8559 10.4014 24.023 10.267L16.871 6.067C16.8437 6.27887 16.7404 6.47365 16.5805 6.61524C16.4205 6.75682 16.2146 6.83561 16.001 6.837C15.7874 6.83561 15.5815 6.75682 15.4215 6.61524C15.2616 6.47365 15.1583 6.27887 15.131 6.067L7.981 10.268C8.14748 10.403 8.2606 10.5927 8.30016 10.8033C8.33972 11.014 8.30316 11.2318 8.197 11.418C8.09339 11.6034 7.92563 11.7445 7.72527 11.8148C7.5249 11.8852 7.30575 11.8799 7.109 11.8V20.2C7.3061 20.1196 7.52582 20.1142 7.72664 20.1848C7.92747 20.2553 8.0955 20.397 8.199 20.583C8.30472 20.7696 8.34064 20.9878 8.30033 21.1984C8.26003 21.4091 8.14614 21.5986 7.979 21.733L15.131 25.934C15.1586 25.7223 15.2619 25.5278 15.4218 25.3864C15.5818 25.245 15.7875 25.1664 16.001 25.165C16.439 25.165 16.81 25.493 16.871 25.934L24.022 21.734C23.8542 21.5996 23.7398 21.4098 23.6993 21.1987C23.6588 20.9876 23.6948 20.7689 23.801 20.582H23.8ZM17.688 19.295C18.4608 18.8413 19.0431 18.123 19.327 17.273C19.752 16.008 21.663 16.713 20.948 18.357C20.948 18.373 20.935 18.388 20.929 18.402L23.281 19.782C23.3762 19.8405 23.4449 19.9338 23.4725 20.042C23.5001 20.1503 23.4845 20.265 23.429 20.362C23.4023 20.4097 23.3664 20.4517 23.3233 20.4855C23.2803 20.5193 23.2311 20.5442 23.1784 20.5589C23.1257 20.5736 23.0706 20.5777 23.0163 20.571C22.962 20.5644 22.9096 20.547 22.862 20.52L20.525 19.152C20.0571 19.8991 19.4178 20.5237 18.66 20.974C17.9886 21.3747 17.2378 21.6239 16.46 21.704V24.304C16.46 24.547 16.266 24.744 16.027 24.744C15.9697 24.7436 15.913 24.7319 15.8601 24.7096C15.8073 24.6872 15.7594 24.6547 15.7192 24.6138C15.679 24.573 15.6472 24.5246 15.6257 24.4714C15.6043 24.4182 15.5935 24.3613 15.594 24.304V21.726C14.7341 21.674 13.8975 21.4262 13.1479 21.0016C12.3984 20.577 11.7557 19.9868 11.269 19.276L9.14 20.522C9.09233 20.5499 9.03956 20.5681 8.98479 20.5754C8.93002 20.5828 8.87433 20.5791 8.82099 20.5647C8.76764 20.5503 8.71771 20.5253 8.6741 20.4914C8.63049 20.4575 8.59408 20.4152 8.567 20.367C8.5109 20.2693 8.4954 20.1535 8.52383 20.0444C8.55225 19.9354 8.62233 19.8419 8.719 19.784L10.839 18.539C10.7008 18.2477 10.5864 17.9458 10.497 17.636L10.295 16.492C10.2176 15.4565 10.4215 14.4192 10.885 13.49L8.72 12.216C8.62397 12.1583 8.55424 12.0654 8.52567 11.9571C8.49709 11.8488 8.51192 11.7336 8.567 11.636C8.59381 11.5879 8.62992 11.5457 8.67323 11.5118C8.71655 11.4779 8.76619 11.4529 8.81926 11.4384C8.87233 11.4239 8.92776 11.4201 8.98232 11.4272C9.03688 11.4343 9.08946 11.4523 9.137 11.48L11.321 12.761C11.7851 12.1073 12.3825 11.5596 13.074 11.154C13.8408 10.7021 14.706 10.4434 15.595 10.4V7.696C15.595 7.453 15.789 7.256 16.028 7.256C16.267 7.256 16.46 7.453 16.46 7.696V10.426C17.2695 10.5195 18.049 10.7878 18.7445 11.2124C19.44 11.637 20.0349 12.2077 20.488 12.885L22.87 11.48C22.9173 11.4509 22.97 11.4319 23.025 11.424C23.0799 11.416 23.1359 11.4194 23.1895 11.434C23.2431 11.4485 23.2931 11.4738 23.3365 11.5084C23.3799 11.543 23.4158 11.586 23.442 11.635C23.4965 11.7332 23.5106 11.8489 23.4813 11.9573C23.452 12.0658 23.3816 12.1586 23.285 12.216L20.046 14.122L20.002 14.143L19.24 14.593L17.632 15.537L12.914 18.301C13.444 19.0299 14.2263 19.5355 15.1086 19.7192C15.991 19.903 16.9101 19.7517 17.687 19.295H17.688ZM24.78 20.652C24.7304 20.6231 24.6755 20.6043 24.6185 20.5969C24.5616 20.5894 24.5037 20.5934 24.4483 20.6086C24.3929 20.6237 24.341 20.6498 24.2958 20.6853C24.2506 20.7207 24.213 20.7648 24.185 20.815C24.1271 20.9169 24.1115 21.0374 24.1414 21.1506C24.1713 21.2639 24.2444 21.361 24.345 21.421C24.3945 21.4502 24.4494 21.4693 24.5063 21.477C24.5633 21.4846 24.6213 21.4808 24.6767 21.4657C24.7322 21.4506 24.7841 21.4245 24.8293 21.389C24.8745 21.3535 24.9122 21.3093 24.94 21.259C24.9977 21.1569 25.0132 21.0364 24.9833 20.923C24.9534 20.8096 24.8805 20.7124 24.78 20.652ZM12.284 16.587L18.144 13.145C17.571 12.677 16.8683 12.3958 16.1306 12.3393C15.3929 12.2828 14.6556 12.4537 14.018 12.829C12.438 13.757 12.241 14.92 12.284 16.587Z" fill="black"/>
</g>
<defs>
<clipPath id="clip0_16_2564">
<rect width="32" height="32" fill="white"/>
</clipPath>
</defs>
</svg>
