<svg width="32" height="32" viewBox="0 0 32 32" fill="none" xmlns="http://www.w3.org/2000/svg">
<g clip-path="url(#clip0_16_2566)">
<path fill-rule="evenodd" clip-rule="evenodd" d="M16 32C7.163 32 0 24.837 0 16C0 7.163 7.163 0 16 0C24.837 0 32 7.163 32 16C32 24.837 24.837 32 16 32ZM24.99 12.502C24.987 12.1032 24.8994 11.7095 24.733 11.347C24.475 10.776 24.078 10.242 23.537 9.921C21.507 8.729 19.475 7.547 17.446 6.356C17.214 6.22 16.952 6.144 16.695 6.072C16.1178 5.96118 15.5221 5.99485 14.961 6.17C14.628 6.284 14.337 6.492 14.031 6.662C12.165 7.752 10.301 8.842 8.436 9.928C8.19193 10.0776 7.97571 10.2684 7.797 10.492C7.357 11.022 7.047 11.684 7.009 12.384V19.57C7.009 20.051 7.169 20.513 7.389 20.933C7.659 21.417 8.025 21.867 8.515 22.14C10.521 23.31 12.528 24.483 14.535 25.652C14.83 25.822 15.158 25.921 15.495 25.966C16.141 26.046 16.829 25.993 17.411 25.682C19.317 24.57 21.218 23.457 23.125 22.348C23.405 22.181 23.7 22.034 23.936 21.808C24.4378 21.3338 24.7866 20.7206 24.938 20.047C25.005 19.757 24.99 19.454 24.99 19.158V12.502ZM15.94 10.026C15.9718 10.0367 16.0009 10.0542 16.0254 10.0771C16.0499 10.1001 16.0692 10.128 16.082 10.159C16.444 10.833 16.952 11.415 17.483 11.96C17.827 12.297 18.081 12.736 18.167 13.216C18.28 13.75 17.966 14.341 17.461 14.534C17.091 14.678 16.661 14.651 16.306 14.477C16.239 14.454 16.126 14.375 16.086 14.469C16.153 14.931 16.389 15.335 16.602 15.736C16.654 15.823 16.554 15.884 16.505 15.94C16.285 16.144 16.098 16.387 15.859 16.572C15.788 16.549 15.739 16.481 15.687 16.432C15.482 16.216 15.265 16.008 15.06 15.788C15.056 15.773 15.052 15.735 15.049 15.72C15.277 15.311 15.565 14.91 15.639 14.437C15.5653 14.4262 15.49 14.4366 15.422 14.467C15.045 14.615 14.614 14.649 14.234 14.497C14.0457 14.4236 13.8807 14.3008 13.7563 14.1415C13.6319 13.9823 13.5527 13.7924 13.527 13.592C13.489 13.293 13.579 12.995 13.713 12.732C13.88 12.362 14.161 12.063 14.453 11.786C15.0107 11.2547 15.5093 10.6646 15.94 10.026ZM12.307 16.536C12.591 16.3665 12.911 16.2664 13.241 16.2439C13.5709 16.2213 13.9015 16.2768 14.206 16.406C14.254 16.426 14.266 16.436 14.303 16.46C14.497 16.536 14.665 16.66 14.822 16.8C15.177 17.107 15.464 17.485 15.827 17.784C16.179 17.451 16.503 17.087 16.859 16.763C17.359 16.301 18.092 16.165 18.741 16.297C19.758 16.497 20.513 17.549 20.441 18.591C20.408 19.249 20.08 19.9 19.541 20.275C19.175 20.529 18.741 20.71 18.292 20.699C17.702 20.722 17.123 20.457 16.705 20.044C15.916 19.254 15.155 18.436 14.362 17.648C14.13 17.398 13.816 17.216 13.472 17.194C13.2259 17.1865 12.982 17.2416 12.763 17.354C12.423 17.535 12.195 17.898 12.139 18.281C12.069 18.686 12.214 19.124 12.516 19.401C12.983 19.852 13.802 19.848 14.257 19.386C14.373 19.288 14.481 19.091 14.661 19.17C14.773 19.238 14.851 19.352 14.949 19.44C15.024 19.526 15.139 19.598 15.15 19.727C15.15 19.857 15.035 19.931 14.956 20.015C14.746 20.235 14.504 20.42 14.22 20.534C13.67 20.75 13.036 20.754 12.49 20.519C11.626 20.129 11.07 19.133 11.208 18.179C11.306 17.501 11.706 16.862 12.308 16.536H12.307ZM17.344 17.588C17.068 17.876 16.784 18.152 16.507 18.44C16.511 18.459 16.515 18.5 16.518 18.523C16.851 18.833 17.142 19.185 17.489 19.48C17.956 19.878 18.7 19.825 19.133 19.404C19.556 18.992 19.653 18.273 19.323 17.774C19.217 17.6059 19.0712 17.4664 18.8986 17.3679C18.7259 17.2693 18.5317 17.2148 18.333 17.209C17.969 17.179 17.603 17.33 17.344 17.589V17.588Z" fill="black"/>
</g>
<defs>
<clipPath id="clip0_16_2566">
<rect width="32" height="32" fill="white"/>
</clipPath>
</defs>
</svg>
