<svg width="32" height="32" viewBox="0 0 32 32" fill="none" xmlns="http://www.w3.org/2000/svg">
<g clip-path="url(#clip0_16_2568)">
<path fill-rule="evenodd" clip-rule="evenodd" d="M16 32C7.163 32 0 24.837 0 16C0 7.163 7.163 0 16 0C24.837 0 32 7.163 32 16C32 24.837 24.837 32 16 32ZM13.06 23.874L14.769 25.596C14.8969 25.7241 15.0488 25.8257 15.216 25.8951C15.3832 25.9644 15.5625 26.0001 15.7435 26.0001C15.9245 26.0001 16.1038 25.9644 16.271 25.8951C16.4382 25.8257 16.5901 25.7241 16.718 25.596L18.437 23.874L15.743 21.177L13.06 23.874ZM20.01 14.632L22.703 11.935L20.011 9.238L17.318 11.935L20.01 14.632ZM19.341 22.995L25.596 16.73C25.8547 16.4709 26.0001 16.1197 26.0001 15.7535C26.0001 15.3873 25.8547 15.0361 25.596 14.777L23.878 13.056L16.648 20.298L19.341 22.995ZM11.938 22.717L19.156 15.487L16.464 12.79L9.246 20.02L11.938 22.717ZM8.116 18.917L10.821 16.219L8.128 13.521L6.41 15.243C6.14984 15.5003 6.00237 15.8504 5.99993 16.2163C5.99749 16.5822 6.14029 16.9342 6.397 17.195L8.116 18.917ZM18.883 8.129L17.164 6.404C17.0361 6.27589 16.8842 6.17425 16.717 6.10491C16.5498 6.03556 16.3705 5.99987 16.1895 5.99987C16.0085 5.99987 15.8292 6.03556 15.662 6.10491C15.4948 6.17425 15.3429 6.27589 15.215 6.404L8.96 12.67L11.653 15.367L18.883 8.129Z" fill="black"/>
</g>
<defs>
<clipPath id="clip0_16_2568">
<rect width="32" height="32" fill="white"/>
</clipPath>
</defs>
</svg>
