<svg width="32" height="32" viewBox="0 0 32 32" fill="none" xmlns="http://www.w3.org/2000/svg">
<g clip-path="url(#clip0_16_2583)">
<path fill-rule="evenodd" clip-rule="evenodd" d="M16 32C7.163 32 0 24.837 0 16C0 7.163 7.163 0 16 0C24.837 0 32 7.163 32 16C32 24.837 24.837 32 16 32ZM26 15.962C26.001 13.646 24.209 11.827 21.91 11.812C19.658 11.797 17.8 13.661 17.788 15.947C17.776 18.234 19.614 20.107 21.878 20.113C24.19 20.12 25.999 18.298 26 15.963V15.962ZM9.09 23.92C10.013 23.924 10.825 23.601 11.377 22.866C11.721 22.409 11.925 21.828 12.117 21.276C12.469 20.264 12.939 19.378 14.009 18.989C14.607 18.772 15.191 18.962 15.779 19.065C16.445 19.181 16.977 18.833 17.154 18.185C17.2315 17.9098 17.2062 17.6158 17.0829 17.3579C16.9597 17.0999 16.7468 16.8956 16.484 16.783C15.898 16.531 15.238 16.752 14.947 17.346C14.661 17.93 14.21 18.329 13.68 18.658C13.315 18.885 12.92 18.98 12.507 18.844C11.842 18.626 11.189 18.367 10.521 18.158C10.051 18.011 9.567 17.831 9.085 17.82C7.408 17.781 6.075 19.16 6.069 20.866C6.06437 21.2656 6.1391 21.6621 6.28887 22.0325C6.43864 22.403 6.66046 22.74 6.94148 23.0241C7.22249 23.3082 7.55711 23.5337 7.92592 23.6875C8.29473 23.8413 8.69041 23.9203 9.09 23.92ZM9.026 8.082C6.802 8.082 5.342 10.422 6.298 12.452C6.47315 12.8316 6.72524 13.1706 7.03829 13.4477C7.35135 13.7247 7.71855 13.9337 8.11661 14.0613C8.51467 14.189 8.93491 14.2326 9.3507 14.1893C9.76649 14.1461 10.1688 14.0169 10.532 13.81C10.934 13.587 11.335 13.348 11.762 13.187C12.992 12.725 13.897 12.995 14.712 14.025C14.832 14.175 14.932 14.342 15.039 14.502C15.339 14.949 15.892 15.156 16.381 15.004C16.934 14.831 17.238 14.401 17.225 13.81C17.206 12.958 16.415 12.43 15.592 12.73C14.664 13.069 13.201 12.948 12.618 11.707C12.383 11.207 12.106 10.72 11.922 10.199C11.458 8.883 10.393 8.082 9.026 8.082ZM18.556 23.99C18.569 22.868 17.707 21.938 16.579 21.949C15.4 21.96 14.552 22.899 14.582 24.053C14.608 25.073 15.488 25.98 16.542 26C17.631 26.02 18.544 25.109 18.557 23.99H18.556ZM14.594 8.02C14.542 8.998 15.295 10.029 16.574 10.053C17.698 10.074 18.552 9.159 18.56 8.018C18.569 6.933 17.667 6.01 16.589 6C15.48 5.99 14.593 6.888 14.594 8.02Z" fill="black"/>
</g>
<defs>
<clipPath id="clip0_16_2583">
<rect width="32" height="32" fill="white"/>
</clipPath>
</defs>
</svg>
