<svg width="32" height="32" viewBox="0 0 32 32" fill="none" xmlns="http://www.w3.org/2000/svg">
<g clip-path="url(#clip0_16_2585)">
<path d="M16 32C7.163 32 0 24.837 0 16C0 7.163 7.163 0 16 0C24.837 0 32 7.163 32 16C32 24.837 24.837 32 16 32ZM10.098 23.596L15.985 25.941L21.869 23.593L18.683 15.983L21.871 8.365L15.985 6.023L10.098 8.368L13.287 15.983L10.098 23.596Z" fill="black"/>
<path d="M15.985 15.984V21.29L10.095 23.6L15.985 15.98V10.674L21.875 8.364L15.985 15.984Z" fill="black" fill-opacity="0.197"/>
<path d="M15.985 21.29V25.941L10.095 23.597L15.985 21.282V15.984L10.095 8.364L15.985 10.674V6.023L21.875 8.366L15.985 10.681V15.98L21.875 23.6L15.985 21.29Z" fill="black" fill-opacity="0.5"/>
<path d="M10.095 8.366L15.985 6.023V10.681L10.095 8.366ZM21.875 23.597L15.985 25.941V21.282L21.875 23.597Z" fill="black" fill-opacity="0.75"/>
</g>
<defs>
<clipPath id="clip0_16_2585">
<rect width="32" height="32" fill="white"/>
</clipPath>
</defs>
</svg>
