<svg width="32" height="32" viewBox="0 0 32 32" fill="none" xmlns="http://www.w3.org/2000/svg">
<g clip-path="url(#clip0_16_2590)">
<path fill-rule="evenodd" clip-rule="evenodd" d="M16 32C7.163 32 0 24.837 0 16C0 7.163 7.163 0 16 0C24.837 0 32 7.163 32 16C32 24.837 24.837 32 16 32ZM18.073 13.212L20.28 11.005L16 5L11.75 11.062L13.913 13.226L16 11.14L18.073 13.212ZM13.19 13.95L10.99 11.75L5 16L11.056 20.229L13.212 18.073L11.14 16L13.19 13.95ZM18.774 18.087L20.956 20.269L27 16L21.022 11.71L18.796 13.936L20.86 16L18.774 18.087ZM13.936 18.797L11.796 20.936L16 27L20.232 20.993L18.05 18.81L16 20.86L13.936 18.797ZM16 12.527L12.528 16L16 19.472L19.472 16L16 12.527Z" fill="black"/>
</g>
<defs>
<clipPath id="clip0_16_2590">
<rect width="32" height="32" fill="white"/>
</clipPath>
</defs>
</svg>
