<svg width="32" height="32" viewBox="0 0 32 32" fill="none" xmlns="http://www.w3.org/2000/svg">
<g clip-path="url(#clip0_16_2602)">
<path d="M16 32C7.163 32 0 24.837 0 16C0 7.163 7.163 0 16 0C24.837 0 32 7.163 32 16C32 24.837 24.837 32 16 32ZM22.313 9C19.291 9 16.27 9 13.261 9.006C12.431 9.088 11.589 9.126 10.766 9.303C8.448 9.794 7.395 10.903 7.119 13.16C7.072 13.513 7.039 13.872 7 14.231V17.867C7.06 18.327 7.105 18.794 7.184 19.254C7.534 21.246 8.567 22.254 10.641 22.664C11.523 22.834 12.418 22.941 13.314 22.96C16.224 23.017 19.134 23.01 22.044 22.96C22.741 22.953 23.446 22.903 24.117 22.695C24.901 22.455 25.25 21.523 24.802 20.855C24.572 20.508 24.202 20.458 23.808 20.458C20.707 20.458 17.613 20.464 14.512 20.445C13.623 20.439 12.734 20.388 11.872 20.155C11.095 19.947 10.614 19.481 10.417 18.731C10.312 18.328 10.285 17.918 10.252 17.501C10.212 17.048 10.206 17.048 10.687 17.048H23.677C23.86 17.048 24.051 17.042 24.236 17.01C24.676 16.928 24.934 16.702 24.96 16.292C24.993 15.782 25.138 15.227 24.558 14.874C24.3839 14.7733 24.1861 14.7212 23.985 14.723H10.957C10.213 14.723 10.213 14.723 10.272 14.01C10.404 12.492 10.996 11.868 12.57 11.622C13.04 11.5437 13.5155 11.5036 13.992 11.502C17.165 11.489 20.345 11.483 23.518 11.477C23.7515 11.4763 23.9847 11.4596 24.216 11.427C24.604 11.363 24.848 11.13 24.914 10.752C25.078 9.819 24.762 9.359 23.794 9.176C23.307 9.088 22.807 9.056 22.314 9H22.313Z" fill="black"/>
</g>
<defs>
<clipPath id="clip0_16_2602">
<rect width="32" height="32" fill="white"/>
</clipPath>
</defs>
</svg>
