<svg width="32" height="32" viewBox="0 0 32 32" fill="none" xmlns="http://www.w3.org/2000/svg">
<g clip-path="url(#clip0_16_2610)">
<path d="M16 32C7.163 32 0 24.837 0 16C0 7.163 7.163 0 16 0C24.837 0 32 7.163 32 16C32 24.837 24.837 32 16 32ZM10.572 11.547L8.102 22.831C8.08389 22.9001 8.0893 22.9733 8.11736 23.039C8.14542 23.1048 8.19455 23.1593 8.257 23.194L15.83 27.939C15.886 27.974 15.946 27.989 16.003 27.989C16.0646 27.9896 16.1251 27.9722 16.177 27.939L23.75 23.194C23.8123 23.1591 23.8612 23.1045 23.8891 23.0388C23.9169 22.9731 23.9222 22.9 23.904 22.831L21.434 11.547C21.4246 11.4999 21.4048 11.4555 21.376 11.417L16.266 4.435C16.2365 4.393 16.197 4.35896 16.1511 4.33593C16.1052 4.31289 16.0543 4.30158 16.003 4.303C15.9518 4.30175 15.9012 4.31314 15.8555 4.33617C15.8098 4.35919 15.7704 4.39314 15.741 4.435L10.631 11.418C10.6019 11.4564 10.5817 11.5008 10.572 11.548V11.547ZM9.177 20.914L10.944 12.844L11.954 16.015L9.177 20.914ZM8.961 22.594L12.218 16.846L14.048 22.593H8.96L8.961 22.594ZM9.526 23.234H14.252L15.43 26.933L9.526 23.233V23.234ZM12.383 15.256L11.24 11.668L15.68 5.603V9.439L12.383 15.256ZM16.003 26.625L14.923 23.233H17.083L16.003 26.625ZM16.577 26.933L17.755 23.233H22.481L16.577 26.933ZM21.063 12.844L22.829 20.914L20.053 16.015L21.063 12.845V12.844ZM19.623 15.256L16.327 9.44V5.603L20.767 11.668L19.623 15.256ZM23.045 22.593H17.96L19.79 16.846L23.046 22.593H23.045ZM16.003 10.166L19.359 16.087L17.287 22.593H14.72L12.648 16.087L16.003 10.166Z" fill="black"/>
</g>
<defs>
<clipPath id="clip0_16_2610">
<rect width="32" height="32" fill="white"/>
</clipPath>
</defs>
</svg>
