<svg width="32" height="32" viewBox="0 0 32 32" fill="none" xmlns="http://www.w3.org/2000/svg">
<g clip-path="url(#clip0_16_2612)">
<path d="M16 32C7.163 32 0 24.837 0 16C0 7.163 7.163 0 16 0C24.837 0 32 7.163 32 16C32 24.837 24.837 32 16 32ZM10.027 19.38L10.771 17.9C10.7983 17.8428 10.8107 17.7797 10.8072 17.7164C10.8037 17.6532 10.7844 17.5918 10.751 17.538C10.7166 17.486 10.67 17.4432 10.6153 17.4134C10.5606 17.3836 10.4993 17.3676 10.437 17.367H8.835L13.032 9.611L16.781 16.431C16.847 16.546 16.971 16.622 17.105 16.622H18.793C18.857 16.6241 18.9204 16.6084 18.976 16.5766C19.0316 16.5448 19.0773 16.4982 19.108 16.442C19.1402 16.3854 19.1579 16.3218 19.1597 16.2568C19.1614 16.1917 19.1471 16.1272 19.118 16.069L13.346 5.691C13.213 5.452 12.831 5.452 12.698 5.691L5.296 19.036C5.26466 19.0934 5.24907 19.158 5.25083 19.2233C5.25259 19.2887 5.27162 19.3524 5.306 19.408C5.372 19.522 5.496 19.589 5.62 19.589H9.693C9.76276 19.5888 9.83107 19.5691 9.89013 19.5319C9.94919 19.4948 9.99662 19.4418 10.027 19.379V19.38ZM26.701 19.036L19.29 5.69C19.2557 5.63187 19.2069 5.58368 19.1483 5.55018C19.0898 5.51669 19.0235 5.49905 18.956 5.499C18.8894 5.50187 18.8247 5.52176 18.7679 5.55677C18.7112 5.59179 18.6644 5.64075 18.632 5.699L16.782 9.41C16.7584 9.46251 16.7462 9.51942 16.7462 9.577C16.7462 9.63457 16.7584 9.69149 16.782 9.744L17.526 11.222C17.65 11.47 18.06 11.47 18.193 11.222L18.985 9.639L23.173 17.366H15.265C15.065 17.366 14.893 17.528 14.893 17.738V19.216C14.893 19.416 15.055 19.588 15.265 19.588H26.378C26.4421 19.59 26.5055 19.5741 26.5612 19.5422C26.6168 19.5102 26.6624 19.4634 26.693 19.407C26.7295 19.3522 26.7498 19.2882 26.7515 19.2224C26.7533 19.1566 26.7365 19.0917 26.703 19.035L26.701 19.036ZM21.884 20.514C21.851 20.457 21.8038 20.4096 21.747 20.3763C21.6903 20.343 21.6258 20.325 21.56 20.324H19.709C19.6432 20.325 19.5787 20.343 19.522 20.3763C19.4652 20.4096 19.418 20.457 19.385 20.514C19.3515 20.5707 19.3347 20.6356 19.3365 20.7014C19.3382 20.7672 19.3585 20.8312 19.395 20.886L20.167 22.174H11.83L15.588 15.688C15.62 15.635 15.6378 15.5747 15.6396 15.5128C15.6413 15.451 15.627 15.3897 15.598 15.335L14.854 13.856C14.825 13.7948 14.7788 13.7433 14.7212 13.7078C14.6635 13.6723 14.5967 13.6543 14.529 13.656C14.461 13.6526 14.3935 13.6687 14.3343 13.7024C14.2752 13.736 14.2269 13.7859 14.195 13.846L11.238 19.026L8.272 23.843C8.23762 23.8986 8.21859 23.9623 8.21683 24.0277C8.21507 24.093 8.23066 24.1576 8.262 24.215C8.29488 24.2724 8.34215 24.3201 8.39915 24.3536C8.45614 24.3871 8.52089 24.4052 8.587 24.406H23.41C23.4741 24.408 23.5375 24.3921 23.5932 24.3602C23.6488 24.3282 23.6944 24.2814 23.725 24.225C23.7578 24.1685 23.7752 24.1043 23.7752 24.039C23.7752 23.9737 23.7578 23.9095 23.725 23.853L21.884 20.514Z" fill="black"/>
</g>
<defs>
<clipPath id="clip0_16_2612">
<rect width="32" height="32" fill="white"/>
</clipPath>
</defs>
</svg>
