<svg width="32" height="32" viewBox="0 0 32 32" fill="none" xmlns="http://www.w3.org/2000/svg">
<g clip-path="url(#clip0_16_2632)">
<path d="M16 32C7.163 32 0 24.837 0 16C0 7.163 7.163 0 16 0C24.837 0 32 7.163 32 16C32 24.837 24.837 32 16 32ZM19.879 13.469L21.705 14.851L22.859 15.723L21.571 16.381L18.981 17.703L19.869 18.317L21.112 19.176L19.77 19.868L11.532 24.114C12.9003 24.8682 14.4376 25.2629 16 25.261C21.12 25.261 25.27 21.112 25.27 15.995C25.2737 13.8241 24.5117 11.7215 23.118 10.057L19.878 13.469H19.879ZM12.121 19.003L10.295 17.622L9.141 16.749L10.429 16.092L13.019 14.769L12.131 14.155L10.888 13.297L12.23 12.604L20.906 8.132C19.4351 7.21226 17.7348 6.72566 16 6.728C10.88 6.728 6.73 10.877 6.73 15.995C6.72686 18.2804 7.57171 20.4857 9.101 22.184L12.121 19.004V19.003ZM8.536 22.78C6.84229 20.9268 5.90401 18.5066 5.906 15.996C5.906 10.433 10.435 5.907 16 5.907C18.0519 5.90505 20.0551 6.53185 21.74 7.703L22.643 7.238C20.7338 5.78403 18.3998 4.9977 16 5C9.935 5 5 9.932 5 15.995C4.9982 18.7538 6.03782 21.4116 7.911 23.437L8.536 22.779V22.78ZM23.684 9.46C25.2412 11.2807 26.096 13.5982 26.094 15.994C26.094 21.556 21.565 26.082 16 26.082C14.1157 26.084 12.269 25.5555 10.671 24.557L9.747 25.034C11.5827 26.3091 13.7649 26.9913 16 26.989C22.065 26.989 27 22.057 27 15.995C27.0028 13.351 26.0479 10.7954 24.312 8.801L23.684 9.461V9.46ZM10.842 16.9L13.477 18.893L7.525 25.161L19.354 19.063L17.217 17.587L21.158 15.574L18.523 13.581L24.475 7.313L12.646 13.411L14.783 14.887L10.842 16.9Z" fill="black"/>
</g>
<defs>
<clipPath id="clip0_16_2632">
<rect width="32" height="32" fill="white"/>
</clipPath>
</defs>
</svg>
