<svg width="32" height="32" viewBox="0 0 32 32" fill="none" xmlns="http://www.w3.org/2000/svg">
<g clip-path="url(#clip0_16_2640)">
<path d="M16 32C7.163 32 0 24.837 0 16C0 7.163 7.163 0 16 0C24.837 0 32 7.163 32 16C32 24.837 24.837 32 16 32ZM19.7 13.055L19.171 12L18.071 12.5L15.186 20.297L16.286 19.797L16.812 20.852L16.83 20.805L19.698 13.055H19.7ZM26.88 13.238L26.944 13.055L26.419 12L25.319 12.5L22.452 20.26L22.385 20.442L23.485 19.942L24.012 21L26.88 13.238ZM20.74 19.95L22.429 15.387L21.326 15.887L20.802 14.83L19.108 19.392L19.633 20.45L20.74 19.95ZM11.603 15.45H6.558L7.418 16.25L6.558 17.063H11.598L12.454 16.25L11.603 15.45ZM5.86 18.833L5 19.64L5.86 20.445H14.015L13.158 19.64L14.015 18.832H5.86V18.833ZM8.361 12.065L7.501 12.873L8.361 13.678H16.511L15.657 12.872L16.512 12.065H8.362H8.361Z" fill="black"/>
</g>
<defs>
<clipPath id="clip0_16_2640">
<rect width="32" height="32" fill="white"/>
</clipPath>
</defs>
</svg>
