<svg width="32" height="32" viewBox="0 0 32 32" fill="none" xmlns="http://www.w3.org/2000/svg">
<g clip-path="url(#clip0_16_2642)">
<path fill-rule="evenodd" clip-rule="evenodd" d="M16 32C7.163 32 0 24.837 0 16C0 7.163 7.163 0 16 0C24.837 0 32 7.163 32 16C32 24.837 24.837 32 16 32ZM26 14.717V10.733C25.957 10.749 25.912 10.76 25.873 10.782L21.217 13.395C21.137 13.439 21.13 13.478 21.167 13.555C21.948 15.189 21.945 16.82 21.152 18.448C21.112 18.53 21.119 18.571 21.202 18.618C22.754 19.481 24.305 20.348 25.856 21.213C25.886 21.229 25.918 21.242 25.962 21.262C25.967 21.162 25.974 21.082 25.974 21.002L25.978 18.495C25.981 17.275 25.985 16.053 25.99 14.833C25.99 14.794 25.996 14.756 26 14.717ZM16.3 5H16.28C16.274 5.048 16.263 5.095 16.263 5.143C16.263 5.843 16.263 6.543 16.266 7.242C16.269 8.255 16.275 9.269 16.276 10.282C16.276 10.381 16.312 10.417 16.406 10.417C16.4595 10.417 16.5129 10.4204 16.566 10.427C18.35 10.635 19.754 11.455 20.777 12.89C20.858 13.004 20.857 13.005 20.977 12.938L25.596 10.359C25.626 10.342 25.655 10.322 25.697 10.295C25.65 10.267 25.617 10.245 25.584 10.227L16.535 5.142C16.455 5.097 16.378 5.047 16.3 5ZM15.68 27H15.74C15.744 26.975 15.751 26.95 15.751 26.925L15.746 24.38C15.743 23.483 15.739 22.586 15.74 21.689C15.74 21.589 15.702 21.563 15.606 21.559C15.4362 21.5526 15.267 21.5365 15.099 21.511C13.46 21.245 12.154 20.46 11.199 19.134C11.141 19.054 11.099 19.035 11.006 19.087C9.476 19.944 7.946 20.798 6.416 21.653C6.386 21.67 6.36 21.691 6.32 21.718C6.379 21.753 6.42 21.778 6.463 21.802L15.579 26.927C15.615 26.947 15.646 26.975 15.68 27ZM6 20.45V21.267C6.045 21.256 6.095 21.254 6.134 21.232C7.66288 20.3746 9.19121 19.5163 10.719 18.657C10.849 18.584 10.847 18.585 10.782 18.453C9.986 16.81 9.982 15.167 10.782 13.525C10.826 13.433 10.814 13.395 10.725 13.345C9.201 12.498 7.68 11.648 6.158 10.798C6.128 10.781 6.096 10.768 6.052 10.747C6.049 10.792 6.045 10.82 6.045 10.847L6.04 11.809C6.035 13.296 6.03 14.782 6.027 16.269L6.02 19.095C6.02 19.516 6.018 19.937 6.016 20.358C6.016 20.388 6.006 20.42 6 20.451V20.45ZM19.473 19.52C19.47 19.478 19.467 19.437 19.466 19.396C19.448 18.886 19.378 18.383 19.2 17.9C19.007 17.376 18.728 16.907 18.26 16.565C18.149 16.485 18.144 16.486 18.076 16.604C17.8125 17.0606 17.4978 17.4857 17.138 17.871C15.708 19.385 13.806 19.651 12.078 19.056C12.044 19.045 12.012 19.03 11.979 19.016C12.338 19.043 12.69 19.064 13.042 19.011C13.799 18.897 14.412 18.563 14.802 17.899C14.877 17.773 14.877 17.772 14.739 17.711C13.683 17.244 12.96 16.479 12.576 15.415C12.267 14.562 12.216 13.682 12.31 12.789C12.319 12.709 12.33 12.628 12.341 12.548C12.354 12.468 12.369 12.389 12.383 12.31C12.407 12.339 12.413 12.367 12.421 12.394C12.521 12.74 12.607 13.09 12.724 13.429C12.858 13.816 13.062 14.169 13.354 14.468C13.5 14.618 13.669 14.736 13.871 14.805C14.026 14.858 14.031 14.857 14.111 14.715C14.6544 13.7284 15.5506 12.9837 16.62 12.63C17.49 12.331 18.389 12.271 19.302 12.357C19.449 12.371 19.595 12.393 19.742 12.411L19.762 12.379L19.594 12.235C18.101 10.961 16.395 10.552 14.472 11.065C11.912 11.749 10.196 14.34 10.764 17.019C11.372 19.881 14.341 21.683 17.268 20.963C19.906 20.315 21.605 17.868 21.222 15.261C21.0728 14.2306 20.6054 13.2726 19.885 12.521C19.8427 12.4777 19.7855 12.4523 19.725 12.45C19.295 12.4656 18.8702 12.5486 18.466 12.696C17.886 12.92 17.415 13.27 17.146 13.833C17.027 14.083 17.048 14.032 17.249 14.133C18.007 14.513 18.629 15.036 19.059 15.758C19.433 16.385 19.611 17.066 19.654 17.784C19.6928 18.3684 19.6316 18.9552 19.473 19.519V19.52ZM25.741 21.732C25.685 21.699 25.649 21.676 25.613 21.656L20.969 19.081C20.832 19.005 20.833 19.005 20.739 19.134C19.669 20.599 18.211 21.405 16.369 21.557C16.287 21.564 16.264 21.592 16.264 21.67C16.266 23.4 16.265 25.129 16.266 26.859C16.266 26.892 16.273 26.926 16.278 26.981L25.741 21.731V21.732ZM15.739 5.036C15.671 5.072 15.619 5.097 15.569 5.125C12.532 6.81 9.494 8.495 6.458 10.181C6.403 10.212 6.354 10.253 6.302 10.289C6.352 10.323 6.402 10.359 6.455 10.389L10.975 12.899C11.102 12.969 11.1 12.968 11.185 12.85C12.274 11.356 13.759 10.543 15.636 10.407C15.736 10.4 15.746 10.36 15.746 10.28V5.16C15.746 5.126 15.742 5.092 15.739 5.036Z" fill="black"/>
</g>
<defs>
<clipPath id="clip0_16_2642">
<rect width="32" height="32" fill="white"/>
</clipPath>
</defs>
</svg>
