<svg width="32" height="32" viewBox="0 0 32 32" fill="none" xmlns="http://www.w3.org/2000/svg">
<g clip-path="url(#clip0_16_2646)">
<path fill-rule="evenodd" clip-rule="evenodd" d="M8.012 10.005L8.034 9.982L8.097 9.898L8.161 9.813C8.10894 9.87537 8.05892 9.9394 8.011 10.005H8.012ZM7.94 10.088C7.887 10.166 7.838 10.243 7.78 10.321C7.77493 10.3259 7.76993 10.3309 7.765 10.336C7.81898 10.2503 7.87739 10.1676 7.94 10.088ZM8.012 10.005C7.927 10.095 7.843 10.215 7.765 10.336C7.76467 10.3367 7.76433 10.3373 7.764 10.338C7.72891 10.3932 7.69457 10.4489 7.661 10.505L8.012 10.005ZM7.568 10.66C7.525 10.745 7.441 10.914 7.356 10.999C7.40102 10.8719 7.47339 10.7561 7.568 10.66C7.483 10.787 7.398 10.872 7.356 10.999C7.314 11.084 7.271 11.169 7.271 11.253C7.398 11.041 7.568 10.83 7.695 10.618C7.789 10.367 7.883 10.186 8.012 10.005L7.568 10.66ZM8.84 9.073C8.953 8.951 9.086 8.844 9.22 8.711C9.29933 8.61296 9.38413 8.51948 9.474 8.431C9.41637 8.48092 9.3597 8.53193 9.304 8.584C9.404 8.484 9.445 8.444 9.532 8.374C10.11 7.821 11.034 7.226 12.016 6.804C12.267 6.7 12.506 6.614 12.729 6.546C12.923 6.469 13.119 6.41 13.313 6.362C9.593 8.326 9.674 8.264 9.813 8.161C9.643 8.288 9.643 8.288 9.304 8.584C9.116 8.773 8.927 8.927 8.799 9.108L8.711 9.178C8.59719 9.32303 8.49773 9.47876 8.414 9.643C8.414 9.686 8.372 9.77 8.372 9.813C8.42409 9.74851 8.47985 9.68708 8.539 9.629C8.49419 9.67312 8.45243 9.72023 8.414 9.77C8.372 9.813 8.372 9.855 8.372 9.898C8.33 10.067 8.372 10.152 8.414 10.278L8.431 10.258C8.753 10.657 9.924 10.564 11.381 9.94C11.889 9.77 12.355 9.516 12.779 9.262C12.863 9.177 12.821 9.05 12.779 9.008C12.736 8.966 12.567 8.754 12.439 8.796C12.101 9.008 11.719 9.177 11.338 9.346C10.18 9.843 9.264 9.936 8.984 9.624L9.007 9.601C8.923 9.516 8.923 9.389 8.965 9.262L8.848 9.356L8.965 9.262C9.007 9.092 9.092 8.923 9.219 8.754C9.093 8.848 8.967 8.967 8.84 9.074V9.073ZM6.406 18.587L6.41 18.6C6.40814 18.6487 6.40881 18.6974 6.412 18.746C6.40551 18.6929 6.4035 18.6394 6.406 18.586L6.38 18.498C6.296 18.37 6.253 18.243 6.21 18.116C6.285 18.338 6.359 18.657 6.433 18.904C6.735 20.404 9.898 20.323 14.093 18.498C18.923 16.464 23.287 13.032 23.88 10.788C24.007 10.278 23.965 9.898 23.71 9.601C23.499 9.389 23.287 9.135 23.075 8.923C23.372 9.22 23.457 9.601 23.33 10.152C22.736 12.355 18.457 15.744 13.753 17.735C10.067 19.302 7.185 19.557 6.423 18.498C6.465 18.794 6.55 19.048 6.635 19.302C6.48196 19.1034 6.40309 18.8576 6.412 18.607C6.486 18.857 6.56 19.08 6.635 19.302C6.55419 19.2193 6.4957 19.1175 6.465 19.006C6.45383 18.9722 6.44316 18.9382 6.433 18.904L6.406 18.587ZM6.211 17.407C6.924 18.428 9.696 18.225 13.287 16.676C17.821 14.769 21.974 11.507 22.524 9.389C22.652 8.839 22.524 8.415 22.185 8.119L21.762 7.822L21.422 7.61C21.592 7.737 21.932 7.949 21.889 8.542C21.762 11.846 9.007 19.642 6.169 16.633C6.169 16.761 6.169 16.898 6.174 17.036C6.179 16.898 6.168 16.761 6.168 16.633C6.084 16.464 5.999 16.295 5.999 16.04C5.999 16.226 6.022 16.48 6.034 16.702C6.027 16.787 6.03 16.872 6.042 16.953V16.93C6.042 16.864 6.039 16.79 6.034 16.711C6.028 16.801 6.031 16.885 6.042 16.966C6.046 17.161 6.091 17.319 6.211 17.438V17.408V17.407ZM6.19 14.177C6.21 14.049 6.232 13.922 6.253 13.795V13.88L6.168 14.219L6.084 14.812C6.084 14.775 6.092 14.739 6.101 14.702L6.084 14.812C6.05005 15.0382 6.09603 15.2691 6.214 15.465C6.214 15.474 6.212 15.482 6.211 15.49C6.06144 15.2819 6.00033 15.023 6.041 14.77C5.999 15.278 6.168 15.617 6.592 15.829C6.677 15.871 6.719 15.701 6.762 15.574C6.762 15.574 6.846 15.151 6.719 14.981C6.5894 14.9241 6.47297 14.841 6.377 14.737L6.38 14.727C6.21 14.557 6.168 14.261 6.253 13.922L6.19 14.176V14.177ZM10.344 7.775L10.279 7.822L10.261 7.831C10.134 7.91629 10.0093 8.00499 9.887 8.097L9.93 8.06C10.005 8.008 10.1 7.96 10.321 7.822C10.448 7.695 10.448 7.695 10.745 7.525C10.872 7.44 10.872 7.44 11.168 7.271C11.338 7.186 11.338 7.186 11.635 7.017C11.805 6.932 11.805 6.932 12.143 6.805C12.2016 6.77519 12.2606 6.74619 12.32 6.718C12.2472 6.74844 12.1739 6.77745 12.1 6.805C11.931 6.847 11.931 6.847 11.592 7.017C11.422 7.101 11.422 7.101 11.126 7.271C10.999 7.356 10.999 7.356 10.702 7.525C10.5808 7.60557 10.4614 7.68892 10.344 7.775C10.9517 7.37612 11.5968 7.0372 12.27 6.763C12.38 6.701 12.49 6.647 12.6 6.599L10.344 7.775ZM12.422 6.675C12.499 6.644 12.595 6.612 12.779 6.551C12.835 6.528 12.876 6.511 12.915 6.497C13.085 6.445 13.154 6.424 13.235 6.393C13.1423 6.41997 13.0502 6.44931 12.959 6.481C13.953 6.222 14.563 6.372 14.431 6.932C14.389 7.102 14.261 7.313 14.05 7.567C14.135 7.652 14.6 7.737 14.813 7.652C15.067 7.398 15.236 7.144 15.279 6.89C15.449 6.17 14.643 6 13.372 6.339L13.312 6.362L12.422 6.675ZM6.812 13.136L6.635 13.668C7.185 14.473 9.305 14.261 12.058 13.118C15.533 11.634 18.711 9.135 19.135 7.525C19.305 6.932 19.092 6.551 18.541 6.339C18.457 6.339 18.33 6.297 18.16 6.254C17.906 6.169 17.906 6.169 17.821 6.212C18.287 6.382 18.457 6.72 18.33 7.271C17.948 8.711 15.024 10.999 11.846 12.397C9.371 13.446 7.435 13.622 6.904 12.926L6.931 12.863C6.86334 12.7492 6.82075 12.6223 6.80609 12.4907C6.79144 12.3591 6.80504 12.2259 6.846 12.1C6.72937 12.3322 6.63042 12.5729 6.55 12.82C6.507 12.905 6.507 12.948 6.507 13.032C6.465 13.287 6.507 13.499 6.635 13.668C6.67247 13.4842 6.73189 13.3056 6.812 13.136ZM7.355 11.889C7.228 11.719 7.228 11.592 7.228 11.38C7.228 11.592 7.27 11.762 7.355 11.889ZM13.35 25.346C13.3507 25.346 13.3513 25.346 13.352 25.346C14.469 25.307 16.004 24.931 17.779 24.174C21.719 22.48 25.321 19.641 25.829 17.82C25.872 17.777 25.872 17.735 25.872 17.693C25.872 17.481 25.914 17.184 25.957 16.93L25.999 16.803C25.566 19.868 17.736 24.559 13.272 25C12.491 25.077 11.812 25.024 11.296 24.81C11.507 24.937 11.846 25.064 12.101 25.191C12.419 25.311 12.841 25.363 13.35 25.346ZM13.846 23.604C11.734 24.195 10.156 24.208 9.474 23.624C9.685 23.794 9.982 24.004 10.194 24.174C10.786 24.578 11.925 24.623 13.427 24.308C13.4225 24.3199 13.4181 24.3319 13.414 24.344L13.433 24.307C14.293 24.127 15.273 23.828 16.338 23.412C16.592 23.285 16.592 23.115 16.55 23.072C16.55 23.072 16.38 22.776 15.914 22.903C15.183 23.19 14.491 23.423 13.848 23.603L13.923 23.497L13.846 23.604ZM16 32C7.163 32 0 24.837 0 16C0 7.163 7.163 0 16 0C24.837 0 32 7.163 32 16C32 24.837 24.837 32 16 32ZM8.542 22.692C8.585 22.692 8.627 22.734 8.627 22.776C8.457 22.564 8.203 22.268 8.034 22.056C8.161 22.268 8.373 22.48 8.542 22.692ZM15.28 6.042H15.11C16.085 5.958 16.636 6.254 16.466 6.932C16.254 7.652 15.28 8.627 13.966 9.516C13.966 9.516 13.924 9.516 13.924 9.559C13.839 9.729 14.136 10.109 14.432 9.982C15.915 8.966 17.059 7.822 17.272 7.017C17.44 6.339 17.016 6 16.126 6C15.872 6 15.533 6.042 15.279 6.042H15.28ZM20.364 7.017C20.11 6.89 19.771 6.763 19.517 6.635C20.067 6.847 20.322 7.271 20.153 7.906C19.686 9.686 16.169 12.482 12.313 14.134C11.593 14.431 10.915 14.684 10.28 14.854C10.237 14.897 10.195 14.897 10.153 14.981C9.983 15.235 10.025 15.744 10.407 15.701C11.085 15.49 11.847 15.235 12.61 14.897C16.678 13.16 20.407 10.237 20.915 8.33C21.085 7.695 20.873 7.27 20.365 7.017H20.364ZM24.771 11.211L24.432 10.618C24.559 10.788 24.602 10.957 24.602 11.211C24.644 11.423 24.898 11.931 25.025 11.973V11.931C25.025 11.761 25.025 11.761 24.898 11.423L24.771 11.211ZM25.661 13.456C25.619 13.202 25.491 12.863 25.364 12.524C25.449 12.778 25.449 13.074 25.364 13.414C24.856 15.32 21.594 18.116 17.694 20.15C17.5933 20.2038 17.5179 20.295 17.484 20.404C17.398 20.7 17.653 20.997 18.076 20.828C21.932 18.836 25.11 16.083 25.619 14.218C25.703 13.922 25.703 13.668 25.661 13.456ZM25.958 15.236L25.873 14.685C25.915 14.897 25.873 15.108 25.831 15.32C25.534 16.506 24.093 18.032 22.101 19.514C22.002 19.6068 21.9292 19.7241 21.89 19.854C21.847 20.065 22.017 20.362 22.314 20.15C24.22 18.71 25.619 17.227 25.915 16.083C25.958 15.871 25.958 15.743 25.958 15.574V15.235V15.236ZM8.415 10.278C8.373 10.151 8.331 10.066 8.373 9.897C8.331 10.066 8.373 10.151 8.415 10.277V10.278ZM10.788 11.464C10.788 11.464 10.788 11.083 10.618 11.125C9.178 11.591 8.118 11.591 7.78 11.167C7.61 11.422 7.483 11.633 7.356 11.887C7.695 12.269 8.416 12.311 8.924 12.227C10.746 11.972 10.788 11.676 10.788 11.464ZM6.636 13.667C6.508 13.497 6.466 13.286 6.508 13.031C6.466 13.286 6.508 13.498 6.636 13.667ZM22.61 15.15C22.568 15.023 22.44 14.768 22.102 14.938C20.237 16.59 17.483 18.328 14.602 19.556C10.788 21.208 7.822 21.42 7.017 20.361C7.102 20.488 7.144 20.657 7.229 20.784C7.271 20.827 7.271 20.869 7.314 20.911C7.356 20.996 7.398 21.038 7.441 21.123C7.271 20.869 7.271 20.657 7.271 20.615C7.229 20.657 7.186 20.572 7.229 20.699C7.525 22.225 10.746 22.097 15.025 20.319C17.907 19.089 20.661 17.395 22.525 15.7C22.5844 15.6229 22.6233 15.5321 22.6382 15.4359C22.6531 15.3398 22.6434 15.2414 22.61 15.15ZM11.89 22.902C11.847 22.818 11.636 22.563 11.339 22.563C9.686 22.818 8.542 22.648 8.076 22.055C8.246 22.267 8.5 22.563 8.669 22.775C9.178 23.326 10.279 23.453 11.805 23.199C11.975 23.157 11.932 22.987 11.89 22.902ZM25.237 19.81C23.754 22.86 16.89 26.25 14.178 25.826C13.8622 25.7802 13.5506 25.7093 13.246 25.614C14.22 25.91 16.042 25.571 18.246 24.639C21.806 23.114 25.068 20.572 25.576 18.92C25.492 19.174 25.364 19.556 25.237 19.81ZM23.034 22.86C23.076 22.818 23.076 22.775 23.076 22.775C23.034 22.775 23.034 22.733 23.034 22.733C22.992 22.733 22.992 22.775 22.949 22.775C21.889 23.665 20.449 24.512 18.966 25.148C17.483 25.741 16.254 26.038 15.406 25.995H16.466C17.186 25.953 18.161 25.698 19.263 25.232C20.576 24.682 21.847 23.919 22.78 23.157C22.95 23.03 23.034 22.902 23.034 22.86ZM6.508 12.863C6.593 12.609 6.678 12.355 6.805 12.143C6.847 12.016 6.89 11.931 6.89 11.803C6.805 12.058 6.636 12.439 6.55 12.693C6.55 12.736 6.508 12.821 6.508 12.863Z" fill="black"/>
</g>
<defs>
<clipPath id="clip0_16_2646">
<rect width="32" height="32" fill="white"/>
</clipPath>
</defs>
</svg>
