<svg width="32" height="32" viewBox="0 0 32 32" fill="none" xmlns="http://www.w3.org/2000/svg">
<g clip-path="url(#clip0_16_2652)">
<path fill-rule="evenodd" clip-rule="evenodd" d="M16 32C7.163 32 0 24.837 0 16C0 7.163 7.163 0 16 0C24.837 0 32 7.163 32 16C32 24.837 24.837 32 16 32ZM22.2 7.14C22.19 7.241 22.185 7.325 22.174 7.407C22.123 7.776 22.054 8.14 21.91 8.485C21.755 8.859 21.539 9.185 21.248 9.457C20.9114 9.767 20.509 9.99675 20.071 10.129C19.591 10.281 19.095 10.349 18.598 10.406C17.988 10.475 17.377 10.537 16.768 10.611C16.226 10.677 15.689 10.777 15.158 10.911C14.5 11.076 13.86 11.296 13.26 11.631C12.665 11.961 12.146 12.388 11.744 12.961C11.44 13.394 11.243 13.877 11.097 14.391C10.8382 15.2798 10.8469 16.2251 11.122 17.109C11.3019 17.6775 11.5604 18.2181 11.89 18.715C12.19 19.18 12.532 19.61 12.902 20.017C13.514 20.689 14.184 21.292 14.877 21.869C15.292 22.214 15.707 22.56 16.082 22.955C16.352 23.239 16.595 23.545 16.776 23.901C17.042 24.425 17.142 24.981 17.079 25.573C17.0412 25.9 16.9654 26.2215 16.853 26.531C16.803 26.675 16.743 26.816 16.688 26.959C16.683 26.971 16.685 26.985 16.684 26.999C16.696 26.999 16.709 27.001 16.721 26.999C16.784 26.995 16.847 26.992 16.909 26.984C17.087 26.964 17.265 26.947 17.442 26.919C17.684 26.881 17.925 26.835 18.166 26.79C18.337 26.759 18.339 26.756 18.382 26.583C18.4893 26.1613 18.5278 25.725 18.496 25.291C18.4749 25.001 18.4246 24.7139 18.346 24.434C18.2002 23.9267 17.9834 23.4426 17.702 22.996C17.5358 22.7368 17.3548 22.4874 17.16 22.249C16.798 21.794 16.374 21.405 15.95 21.016C15.62 20.712 15.281 20.418 14.949 20.116C14.469 19.679 14.013 19.217 13.613 18.697C12.959 17.847 12.58 16.889 12.571 15.782C12.566 15.204 12.68 14.659 12.961 14.159C13.383 13.409 14.004 12.903 14.751 12.556C15.428 12.241 16.144 12.075 16.873 11.969C17.368 11.897 17.865 11.842 18.361 11.774C18.738 11.722 19.117 11.671 19.491 11.602C20.042 11.5 20.582 11.356 21.089 11.099C21.248 11.019 21.407 10.939 21.562 10.849C21.918 10.644 22.243 10.393 22.533 10.094C22.9962 9.61347 23.3288 9.02239 23.499 8.377C23.503 8.361 23.493 8.333 23.481 8.321C23.334 8.168 23.189 8.011 23.035 7.866C22.843 7.685 22.645 7.51 22.446 7.336C22.371 7.269 22.29 7.211 22.201 7.14H22.2ZM15.14 19.966C15.154 19.982 15.16 19.991 15.168 19.997C15.593 20.379 16.018 20.762 16.445 21.142C16.461 21.157 16.495 21.163 16.515 21.157C16.781 21.083 17.047 21.011 17.31 20.927C17.9241 20.7349 18.5081 20.4576 19.045 20.103C19.506 19.794 19.915 19.423 20.247 18.964C20.782 18.226 21.053 17.381 21.149 16.468C21.1782 16.1427 21.1658 15.8151 21.112 15.493C21.0403 15.0366 20.9029 14.593 20.704 14.176C20.484 13.706 20.214 13.27 19.894 12.872C19.648 12.565 19.386 12.273 19.13 11.975C19.116 11.96 19.092 11.941 19.075 11.943C18.931 11.962 18.787 11.986 18.643 12.008L17.821 12.133L17.441 12.191C17.455 12.211 17.463 12.221 17.473 12.231L17.688 12.441C18.085 12.837 18.455 13.258 18.768 13.73C19.181 14.352 19.44 15.038 19.501 15.796C19.5314 16.1597 19.4976 16.526 19.401 16.878C19.248 17.434 18.954 17.903 18.593 18.328C18.2403 18.7427 17.8086 19.083 17.323 19.329C16.831 19.581 16.306 19.723 15.773 19.841C15.567 19.886 15.359 19.923 15.141 19.966H15.14ZM17.256 10.268C17.233 10.245 17.221 10.232 17.206 10.22C16.8137 9.90265 16.4373 9.56624 16.078 9.212C15.729 8.87074 15.4369 8.47573 15.213 8.042C14.9466 7.5106 14.8519 6.90956 14.942 6.322C15.004 5.885 15.148 5.476 15.333 5.082L15.37 5L15.19 5.018C14.967 5.044 14.744 5.062 14.523 5.098C14.256 5.141 13.991 5.201 13.723 5.248C13.676 5.255 13.664 5.276 13.653 5.316C13.4732 5.91944 13.4396 6.55701 13.555 7.176C13.684 7.901 13.988 8.546 14.379 9.15C14.494 9.326 14.625 9.492 14.756 9.657C14.994 9.957 15.258 10.233 15.537 10.492C15.558 10.512 15.597 10.522 15.625 10.52C15.712 10.511 15.798 10.495 15.884 10.481L16.614 10.367L17.257 10.268H17.256ZM14.082 21.556C14.057 21.53 14.042 21.516 14.027 21.502C13.8134 21.3052 13.5998 21.1086 13.386 20.912C13.1926 20.7368 12.9999 20.5608 12.808 20.384C12.777 20.354 12.748 20.343 12.704 20.354C12.634 20.374 12.56 20.382 12.488 20.397C11.868 20.531 11.263 20.71 10.697 21.019C10.294 21.2301 9.92071 21.4937 9.587 21.803C9.07038 22.2901 8.69719 22.9096 8.508 23.594C8.491 23.657 8.5 23.703 8.548 23.748C8.687 23.882 8.82 24.023 8.961 24.155C9.156 24.337 9.356 24.513 9.555 24.691C9.603 24.733 9.655 24.769 9.713 24.813C9.721 24.781 9.727 24.763 9.73 24.745C9.805 24.345 9.923 23.96 10.078 23.586C10.503 22.563 11.284 22.031 12.287 21.809C12.561 21.748 12.839 21.706 13.117 21.663C13.296 21.635 13.477 21.62 13.657 21.601C13.793 21.586 13.93 21.571 14.082 21.556ZM18.409 17.178C18.585 17.172 18.719 17.027 18.747 16.805C18.7568 16.7239 18.7373 16.6419 18.692 16.5739C18.6467 16.5059 18.5786 16.4563 18.5 16.434C18.15 16.324 17.798 16.216 17.447 16.107L14.807 15.283C14.433 15.167 14.06 15.047 13.686 14.933C13.634 14.9152 13.5784 14.9101 13.524 14.918C13.327 14.957 13.257 15.104 13.239 15.313C13.226 15.455 13.313 15.594 13.483 15.647C13.925 15.786 14.367 15.923 14.81 16.061L18.261 17.141C18.31 17.155 18.36 17.166 18.409 17.178ZM11.119 23.674C11.089 23.679 11.063 23.68 11.039 23.687C10.863 23.732 10.789 23.883 10.774 24.082C10.763 24.232 10.865 24.362 11.019 24.411L11.846 24.668C13.17 25.082 14.494 25.496 15.819 25.908C15.869 25.9256 15.9221 25.9331 15.975 25.93C16.146 25.915 16.26 25.77 16.279 25.552C16.294 25.39 16.196 25.252 16.031 25.2L11.226 23.7C11.189 23.689 11.151 23.682 11.12 23.674H11.119ZM21.249 7.91C21.249 7.707 21.159 7.589 20.999 7.54C19.394 7.038 17.789 6.536 16.183 6.036C16.1407 6.02114 16.0958 6.01502 16.051 6.018C15.815 6.045 15.732 6.286 15.751 6.466C15.766 6.626 15.871 6.709 16.012 6.753C16.842 7.01 17.671 7.269 18.5 7.528L20.817 8.252C20.958 8.296 21.102 8.249 21.171 8.123C21.214 8.046 21.234 7.954 21.249 7.91ZM14.334 14.373C14.334 14.533 14.42 14.653 14.577 14.702L15.295 14.926L17.677 15.67C17.771 15.7 17.864 15.737 17.959 15.748C18.145 15.769 18.282 15.629 18.319 15.398C18.333 15.3152 18.3157 15.2301 18.2707 15.1592C18.2256 15.0883 18.1559 15.0366 18.075 15.014L16.243 14.443C15.758 14.291 15.273 14.138 14.787 13.99C14.7252 13.9708 14.6597 13.9667 14.596 13.978C14.434 14.01 14.345 14.166 14.334 14.373ZM14.002 16.263C13.952 16.286 13.885 16.3 13.836 16.339C13.706 16.442 13.665 16.591 13.69 16.752C13.712 16.897 13.812 16.976 13.944 17.017C14.656 17.237 15.368 17.46 16.08 17.682C16.464 17.802 16.847 17.922 17.231 18.04C17.281 18.055 17.337 18.062 17.387 18.053C17.547 18.026 17.621 17.907 17.658 17.752C17.706 17.556 17.616 17.383 17.432 17.324L17.18 17.247C16.174 16.932 15.167 16.617 14.16 16.304C14.114 16.289 14.066 16.28 14.002 16.264V16.263ZM11.219 25.45C11.2179 25.52 11.2391 25.5886 11.2796 25.6457C11.32 25.7029 11.3776 25.7457 11.444 25.768C11.536 25.798 11.628 25.825 11.719 25.854L14.826 26.824C14.8557 26.831 14.8867 26.8303 14.916 26.822C15.074 26.786 15.155 26.674 15.193 26.515C15.238 26.325 15.151 26.15 14.973 26.094C13.8653 25.7472 12.7573 25.4016 11.649 25.057C11.608 25.0442 11.5648 25.0398 11.522 25.044C11.327 25.065 11.233 25.234 11.219 25.45ZM12.216 22.73C12.183 22.735 12.16 22.735 12.138 22.74C11.966 22.786 11.886 22.92 11.87 23.126C11.857 23.284 11.95 23.411 12.104 23.461C12.314 23.529 12.526 23.593 12.737 23.659C13.622 23.935 14.507 24.213 15.391 24.488C15.445 24.5061 15.5022 24.5129 15.559 24.508C15.727 24.488 15.837 24.341 15.854 24.127C15.859 24.0496 15.837 23.9728 15.7918 23.9097C15.7466 23.8466 15.6809 23.8012 15.606 23.781C14.5124 23.4394 13.4188 23.098 12.325 22.757C12.285 22.745 12.245 22.737 12.215 22.73H12.216ZM19.838 9.168C19.891 9.15 19.943 9.14 19.989 9.116C20.116 9.05 20.153 8.923 20.17 8.791C20.1808 8.71398 20.164 8.63563 20.1227 8.56977C20.0813 8.5039 20.0181 8.45476 19.944 8.431C19.749 8.371 19.554 8.308 19.36 8.248C18.45 7.964 17.539 7.679 16.627 7.398C16.5685 7.38078 16.5065 7.37872 16.447 7.392C16.313 7.423 16.241 7.523 16.206 7.662C16.15 7.881 16.233 8.045 16.438 8.11L19.52 9.074C19.625 9.107 19.73 9.136 19.838 9.168ZM20.821 6.468C20.821 6.288 20.731 6.167 20.576 6.118L19.151 5.674C18.53 5.48 17.909 5.284 17.287 5.093C17.2269 5.0737 17.163 5.06958 17.101 5.081C16.96 5.111 16.891 5.221 16.856 5.362C16.803 5.569 16.886 5.737 17.081 5.798L18.004 6.088L20.369 6.827C20.4484 6.85705 20.5364 6.85454 20.614 6.82C20.766 6.746 20.802 6.601 20.821 6.468Z" fill="black"/>
</g>
<defs>
<clipPath id="clip0_16_2652">
<rect width="32" height="32" fill="white"/>
</clipPath>
</defs>
</svg>
