<svg width="32" height="32" viewBox="0 0 32 32" fill="none" xmlns="http://www.w3.org/2000/svg">
<g clip-path="url(#clip0_16_2654)">
<path fill-rule="evenodd" clip-rule="evenodd" d="M16 32C7.163 32 0 24.837 0 16C0 7.163 7.163 0 16 0C24.837 0 32 7.163 32 16C32 24.837 24.837 32 16 32ZM17.893 17.13C19.691 13.017 18.695 9.39 15.979 6C13.243 9.417 12.257 13.07 14.111 17.197C11.871 14.846 9.109 14.294 6 14.798C6.53 16.82 9.25 19.637 10.862 19.832C9.329 18.865 8.088 17.718 7.728 15.868C7.924 15.828 8.063 15.794 8.203 15.773C9.386 15.596 10.463 15.928 11.49 16.458C12.746 17.105 13.815 17.997 14.821 18.966C14.959 19.099 15.091 19.238 15.269 19.418C12.851 19.508 11.059 20.456 10.004 22.605C11.274 23.025 13.224 22.739 13.9 22.043C12.959 22.393 12.045 22.609 11.108 22.135C11.512 21.055 14.122 19.654 15.333 19.849C14.786 20.834 14.467 21.864 14.607 22.999C14.746 24.129 15.254 25.085 15.98 26C17.54 24.034 17.861 22.003 16.584 19.766C17.53 19.96 18.385 20.156 19.151 20.575C19.645 20.845 20.093 21.207 20.531 21.565C20.691 21.695 20.761 21.929 20.879 22.13C19.91 22.59 19.026 22.39 18.139 22.119C19.316 22.875 20.584 22.939 21.97 22.632C20.903 20.451 19.102 19.506 16.737 19.417C16.774 19.348 16.784 19.316 16.805 19.294C18.012 18.089 19.298 16.981 20.879 16.26C21.819 15.832 22.801 15.612 23.848 15.78C24.134 15.826 24.244 15.914 24.158 16.225C23.89 17.21 23.351 18.03 22.592 18.707C22.137 19.113 21.634 19.467 21.082 19.9C23.582 18.94 24.997 17.102 26 14.802C22.888 14.304 20.142 14.829 17.893 17.13ZM15.98 20.297C14.835 21.604 14.807 23.397 15.993 24.591C17.114 23.511 17.115 21.498 15.98 20.297ZM15.981 8.105C13.276 11.233 13.378 14.931 15.979 18.004C18.627 14.868 18.634 11.188 15.981 8.104V8.105Z" fill="black"/>
</g>
<defs>
<clipPath id="clip0_16_2654">
<rect width="32" height="32" fill="white"/>
</clipPath>
</defs>
</svg>
