<svg width="32" height="32" viewBox="0 0 32 32" fill="none" xmlns="http://www.w3.org/2000/svg">
<g clip-path="url(#clip0_16_2656)">
<path d="M16 0C24.837 0 32 7.163 32 16C32 24.837 24.837 32 16 32C7.163 32 0 24.837 0 16C0 7.163 7.163 0 16 0ZM13.745 23.42L13.697 23.45L11.782 24.558L16 27L17.963 25.862L13.818 23.463L13.745 23.421V23.42ZM20.222 12.34L14.945 15.397V21.508L20.215 24.56L20.222 24.564L25.5 21.508V15.398L20.222 12.34ZM9.536 16.221L6.5 17.98V21.494L9.536 23.252L12.571 21.494V17.98L9.536 16.22V16.221ZM16 5L6.5 10.5V15.37L8.41 14.265L9.535 13.613L10.661 14.265L12.692 15.441V14.093L13.818 13.441L19.096 10.386L20.222 9.734L21.348 10.386L25.5 12.789V10.499L16 5Z" fill="black"/>
</g>
<defs>
<clipPath id="clip0_16_2656">
<rect width="32" height="32" fill="white"/>
</clipPath>
</defs>
</svg>
