<svg width="32" height="32" viewBox="0 0 32 32" fill="none" xmlns="http://www.w3.org/2000/svg">
<g clip-path="url(#clip0_16_2658)">
<path fill-rule="evenodd" clip-rule="evenodd" d="M4.87601 27.5H5.09901C5.93901 24.34 7.14401 20.867 8.48901 17.336C9.72201 14.119 11.123 11.443 12.608 9.222C13.504 9.222 14.428 9.279 15.381 9.336C16.558 9.422 17.791 9.564 19.051 9.735C22.918 10.275 24.991 11.158 26 12.212C25.075 8.938 21.741 6.148 15.157 6.176H15.017C17.959 2.93 20.985 1.621 23.227 2.532C23.3282 2.56198 23.4231 2.6101 23.507 2.674C22.937 1.917 22.264 1.334 21.489 0.966C27.622 3.206 32 9.092 32 16C32 24.837 24.837 32 16 32C11.8476 32.0055 7.85671 30.3911 4.87601 27.5ZM4.84801 27.473C3.31176 25.9835 2.09086 24.2002 1.25799 22.2292C0.425124 20.2582 -0.00269016 18.1398 1.27278e-05 16C1.27278e-05 14.953 0.100013 13.93 0.292013 12.94C1.90901 11.136 5.03601 9.876 9.30201 9.422C8.29301 11.414 7.39701 13.692 6.64001 16.282C5.49401 20.258 4.93401 24.092 4.84801 27.472V27.473ZM0.385013 12.497C1.98201 5.345 8.36701 0 16 0C17.492 0 18.937 0.204 20.307 0.586C17.361 0.036 13.922 2.132 10.983 6.518C5.62601 7.378 1.95801 9.69 0.385013 12.497ZM17.763 16.482C15.97 16.482 14.513 17.962 14.513 19.842C14.513 21.692 15.97 23.201 17.763 23.201C19.556 23.201 21.013 21.692 21.013 19.841C21.013 17.991 19.556 16.482 17.763 16.482Z" fill="black"/>
</g>
<defs>
<clipPath id="clip0_16_2658">
<rect width="32" height="32" fill="white"/>
</clipPath>
</defs>
</svg>
