<svg width="32" height="32" viewBox="0 0 32 32" fill="none" xmlns="http://www.w3.org/2000/svg">
<g clip-path="url(#clip0_16_2660)">
<path d="M16 32C7.163 32 0 24.837 0 16C0 7.163 7.163 0 16 0C24.837 0 32 7.163 32 16C32 24.837 24.837 32 16 32ZM24.603 6C18.773 9.022 16.553 11.565 16.553 11.565L16.208 13.97C15.862 14.381 15.581 13.902 15.581 13.902L15.373 12.665L13.71 14.245C13.71 17.265 13.083 18.298 13.083 18.298C12.807 18.708 12.531 18.366 12.531 18.366L12.393 15.208L11.351 16.102L11.421 21.12C10.448 20.914 10.241 18.508 10.241 18.508C9.475 19.193 9.619 21.667 9.619 21.667L7.887 19.467L8.928 22.009L6.5 20.704L8.376 22.562C7.403 23.457 8.237 24.142 8.237 24.142C8.20404 24.0651 8.18686 23.9825 8.18649 23.8988C8.18612 23.8152 8.20256 23.7324 8.23484 23.6552C8.26711 23.5781 8.31457 23.5082 8.37438 23.4498C8.43419 23.3913 8.50513 23.3455 8.583 23.315C9.417 22.905 9.279 24.073 9.279 24.073L7.892 25.72C7.685 26.062 8.03 25.993 8.03 25.993L9.693 24.209C10.666 25.446 11.845 25.172 11.845 25.172C10.389 24.556 10.389 23.108 10.389 23.108C11.638 25.104 13.721 24.414 13.721 24.414C11.361 24.004 11.293 22.556 11.293 22.556C16.494 23.588 17.813 22.146 17.813 22.146L11.638 21.871C13.094 20.361 16.84 20.976 16.84 20.976L20.102 16.717L24.167 11.947C24.5501 11.4974 24.8587 10.9893 25.081 10.442C26.25 7.463 24.603 6 24.603 6ZM13.503 19.95C13.503 19.95 19.465 11.496 22.307 9.506C22.313 9.506 19.257 14.66 13.503 19.951V19.95Z" fill="black"/>
</g>
<defs>
<clipPath id="clip0_16_2660">
<rect width="32" height="32" fill="white"/>
</clipPath>
</defs>
</svg>
