<svg width="32" height="32" viewBox="0 0 32 32" fill="none" xmlns="http://www.w3.org/2000/svg">
<g clip-path="url(#clip0_16_2672)">
<path fill-rule="evenodd" clip-rule="evenodd" d="M16 32C7.163 32 0 24.837 0 16C0 7.163 7.163 0 16 0C24.837 0 32 7.163 32 16C32 24.837 24.837 32 16 32ZM15.699 11.006H10.999C10.004 11.006 8.858 11.331 7.945 11.979C6.717 12.851 6 14.217 6 16.003C6 17.789 6.717 19.155 7.945 20.027C8.84209 20.6501 9.9058 20.9891 10.998 21H13V18.94H11C10.39 18.94 9.639 18.726 9.08 18.33C8.386 17.838 8 17.102 8 16.003C8 14.904 8.387 14.168 9.08 13.676C9.64657 13.2893 10.3141 13.0772 11 13.066H15.7L15.699 11.006ZM10.699 17.188H13.7V21H15.7V15.127H10.7L10.699 17.188ZM19 13.06H24V18.938H18.998V13.066H16.998V21H26V11H18.998L19 13.06Z" fill="black"/>
</g>
<defs>
<clipPath id="clip0_16_2672">
<rect width="32" height="32" fill="white"/>
</clipPath>
</defs>
</svg>
