<svg width="32" height="32" viewBox="0 0 32 32" fill="none" xmlns="http://www.w3.org/2000/svg">
<g clip-path="url(#clip0_16_2680)">
<path d="M16 32C7.163 32 0 24.837 0 16C0 7.163 7.163 0 16 0C24.837 0 32 7.163 32 16C32 24.837 24.837 32 16 32ZM12.328 4.598C11.652 4.81 11.004 5.1 10.378 5.424C9.898 5.689 9.423 5.97 8.984 6.3C6.94869 7.7753 5.42618 9.85065 4.63 12.235C4.36226 13.0492 4.18027 13.889 4.087 14.741C4.041 15.317 3.997 15.897 4.037 16.474C4.069 17.677 4.317 18.864 4.707 19.999C5.326 21.7331 6.33469 23.302 7.65542 24.5849C8.97615 25.8679 10.5737 26.8306 12.325 27.399C13.198 27.669 14.095 27.869 15.009 27.931C15.209 27.966 15.417 27.944 15.619 27.971C16.839 28.006 18.063 27.863 19.239 27.526C19.939 27.342 20.619 27.071 21.271 26.753C23.6034 25.6054 25.5014 23.7334 26.681 21.417C26.9977 20.7939 27.2587 20.1441 27.461 19.475C27.701 18.665 27.875 17.833 27.935 16.991C27.969 16.789 27.947 16.583 27.975 16.381C27.981 16.125 27.985 15.872 27.975 15.62C27.947 15.417 27.969 15.211 27.935 15.009C27.869 14.074 27.66 13.151 27.38 12.259C27.1619 11.6115 26.893 10.9822 26.576 10.377C26.3158 9.89342 26.0231 9.42802 25.7 8.984C24.2661 7.00167 22.262 5.50344 19.955 4.689C18.54 4.206 17.035 3.963 15.539 4.031C14.448 4.065 13.366 4.271 12.329 4.598H12.328ZM14.638 8.928V11.73C14.632 11.78 14.678 11.808 14.703 11.842C15.133 12.294 15.567 12.742 15.997 13.195C15.9939 11.7727 15.9939 10.3503 15.997 8.928C15.545 8.928 15.09 8.925 14.637 8.928H14.638ZM8.728 10.378C8.831 10.446 8.906 10.545 8.993 10.63C9.919 11.565 10.848 12.497 11.77 13.438C12.615 14.292 13.463 15.143 14.304 15.997C13.285 17.041 12.247 18.067 11.231 19.111C10.418 19.931 9.604 20.751 8.794 21.57C8.77258 21.5874 8.75057 21.6041 8.728 21.62C9.925 21.62 11.125 21.623 12.325 21.614C13.55 20.332 14.781 19.054 16.003 17.77C17.228 19.051 18.456 20.332 19.681 21.614C20.878 21.623 22.075 21.617 23.271 21.62C23.088 21.473 22.944 21.29 22.773 21.13C21.916 20.264 21.053 19.397 20.198 18.528C19.369 17.683 18.525 16.851 17.702 16C17.902 15.8 18.088 15.592 18.294 15.395C19.862 13.815 21.424 12.229 22.991 10.648C23.085 10.558 23.163 10.452 23.271 10.378C22.071 10.378 20.875 10.374 19.678 10.38C18.453 11.661 17.225 12.94 16 14.22C14.778 12.936 13.547 11.658 12.322 10.38C11.125 10.377 9.925 10.377 8.728 10.377V10.378ZM16.006 18.793C16.006 20.22 16.009 21.645 16.003 23.073C16.458 23.069 16.913 23.073 17.365 23.073V20.267C17.3669 20.252 17.3651 20.2367 17.3596 20.2226C17.3542 20.2085 17.3454 20.1959 17.334 20.186C17.104 19.936 16.86 19.703 16.633 19.454C16.427 19.229 16.206 19.024 16.006 18.793Z" fill="black"/>
</g>
<defs>
<clipPath id="clip0_16_2680">
<rect width="32" height="32" fill="white"/>
</clipPath>
</defs>
</svg>
