<svg width="32" height="32" viewBox="0 0 32 32" fill="none" xmlns="http://www.w3.org/2000/svg">
<g clip-path="url(#clip0_16_2682)">
<path d="M16 32C7.163 32 0 24.837 0 16C0 7.163 7.163 0 16 0C24.837 0 32 7.163 32 16C32 24.837 24.837 32 16 32ZM26.95 13.44C26.9005 13.3632 26.8237 13.3081 26.735 13.286C26.3895 13.2012 26.0428 13.1212 25.695 13.046L25.789 12.582L25.849 12.29L25.877 12.142L25.904 11.982C25.9419 11.7447 25.9153 11.5015 25.827 11.278C25.7336 11.0397 25.5802 10.8296 25.3817 10.6681C25.1832 10.5065 24.9463 10.399 24.694 10.356C24.6109 9.85192 24.496 9.35359 24.35 8.864L24.333 8.804L21.847 5.784L21.754 5.757C21.653 5.73 19.413 5.068 16.364 5.067L16.398 4.465C16.6783 4.37277 16.9163 4.18331 17.0691 3.93086C17.2219 3.67842 17.2793 3.37964 17.231 3.08855C17.1827 2.79745 17.0318 2.53325 16.8057 2.34369C16.5795 2.15413 16.2931 2.05173 15.998 2.055C15.7035 2.05248 15.4178 2.15522 15.1923 2.3447C14.9668 2.53418 14.8164 2.79795 14.7681 3.0885C14.7199 3.37904 14.777 3.67727 14.9291 3.92945C15.0813 4.18164 15.3185 4.3712 15.598 4.464L15.633 5.069C12.571 5.072 10.319 5.73 10.223 5.762L10.13 5.79L7.644 8.809L7.628 8.869C7.482 9.359 7.367 9.856 7.284 10.359H7.276L7.1 10.403C6.7713 10.5032 6.48898 10.717 6.30356 11.0064C6.11814 11.2957 6.04173 11.6415 6.088 11.982L6.115 12.141L6.143 12.289L6.203 12.581L6.297 13.047C5.952 13.123 5.607 13.201 5.263 13.285C5.17426 13.3069 5.09731 13.362 5.048 13.439C5.01352 13.4967 4.99689 13.5634 5.00019 13.6306C5.0035 13.6977 5.02658 13.7624 5.06656 13.8165C5.10653 13.8706 5.1616 13.9116 5.22485 13.9345C5.28809 13.9574 5.35668 13.961 5.422 13.945C5.758 13.863 6.094 13.785 6.431 13.712L6.456 13.84C5.67065 16.3309 5.85129 19.0261 6.962 21.39C8.47 24.608 11.94 28.078 16 28.078C20.059 28.078 23.53 24.608 25.042 21.385C26.1491 19.019 26.3258 16.3232 25.537 13.833L25.561 13.715C25.899 13.789 26.237 13.867 26.574 13.949C26.6393 13.965 26.7079 13.9614 26.7712 13.9385C26.8344 13.9156 26.8895 13.8746 26.9294 13.8205C26.9694 13.7664 26.9925 13.7017 26.9958 13.6346C26.9991 13.5674 26.9825 13.5007 26.948 13.443L26.95 13.44ZM15.112 3.298C15.1128 3.04048 15.2146 2.79357 15.3957 2.61046C15.5768 2.42734 15.8225 2.32267 16.08 2.319C16.62 2.319 16.62 4.271 16.08 4.277C15.8225 4.27333 15.5768 4.16866 15.3957 3.98554C15.2146 3.80243 15.1128 3.55552 15.112 3.298ZM15.76 4.508C15.839 4.523 15.918 4.531 15.998 4.531H16.036L16.112 6.633C16.1611 6.69841 16.185 6.77939 16.1791 6.86099C16.1732 6.94259 16.138 7.01931 16.08 7.077C16.0482 7.10879 16.0105 7.13399 15.969 7.15115C15.9275 7.16832 15.8829 7.1771 15.838 7.177C15.332 7.177 14.925 7.023 14.925 6.837C14.925 6.665 15.267 6.522 15.715 6.498L15.838 6.495H15.872L15.76 4.508ZM8.156 9.345L8.447 9.241L8.942 9.076L9.592 8.884C9.828 8.812 10.092 8.746 10.367 8.674L11.241 8.477C11.544 8.417 11.857 8.35 12.181 8.295C12.506 8.24 12.831 8.196 13.161 8.141C13.491 8.086 13.821 8.059 14.145 8.021C14.47 7.981 14.789 7.965 15.102 7.938C15.267 7.923 15.436 7.916 15.597 7.91H15.614L15.999 11.337L16.389 7.881H16.807C17.055 7.881 17.286 7.87 17.489 7.881L18.017 7.903L18.479 7.919L18.023 7.875L17.495 7.825C17.291 7.804 17.065 7.798 16.813 7.782C16.5438 7.76208 16.274 7.75107 16.004 7.749H16C15.716 7.749 15.41 7.732 15.098 7.743C14.787 7.754 14.46 7.749 14.13 7.771L13.129 7.837C12.793 7.864 12.458 7.892 12.128 7.936C11.798 7.98 11.473 8.029 11.165 8.068C10.868 8.105 10.575 8.162 10.299 8.211L9.807 8.172L10.786 6.836L15.675 5.77L15.705 6.3C15.045 6.352 14.55 6.571 14.55 6.834C14.55 7.134 15.2 7.378 16.002 7.378C16.804 7.378 17.454 7.135 17.454 6.834C17.454 6.571 16.959 6.352 16.299 6.3L16.329 5.772L21.197 6.835L22.177 8.171L20.815 8.281L20.79 8.278L20.805 8.282H20.785L23.392 9.574C23.392 9.574 24.516 13.184 22.967 16.252C22.7902 16.5987 22.5845 16.9299 22.352 17.242C22.352 17.242 19.946 18.353 16.247 18.549L16 17.532C16.3025 17.5421 16.6037 17.4897 16.885 17.378L17.655 17.125C19.219 16.643 20.785 16.168 22.352 15.7L22.506 15.657L22.556 15.514L22.606 15.371L22.644 15.233L22.715 14.963C22.841 14.433 22.931 13.895 22.985 13.352L23.029 12.802L23.039 12.527V12.247L23.045 11.96L23.018 11.674L22.974 11.389C22.9552 11.2961 22.9311 11.2042 22.902 11.114L22.858 10.97L22.808 10.8L22.773 10.795L22.759 10.751L22.709 10.58L22.512 10.553C20.8882 10.3636 19.2564 10.2515 17.622 10.217L17.452 10.211L17.38 10.354L16.484 12.111L16 12.119L15.47 12.129L14.51 10.409L14.46 10.316L14.36 10.321C13.547 10.367 12.735 10.433 11.924 10.52C11.1159 10.6057 10.3109 10.7174 9.51 10.855H9.526H9.516L9.482 10.965C9.47307 10.9934 9.46506 11.0221 9.458 11.051C9.474 10.986 9.493 10.922 9.513 10.855C9.48136 10.9431 9.44463 11.0292 9.403 11.113C9.385 11.183 9.365 11.253 9.352 11.323L9.342 11.35L9.282 11.62L9.238 11.889L9.21 12.164C9.19842 12.3471 9.19509 12.5306 9.2 12.714L9.221 13.264C9.258 13.814 9.331 14.362 9.441 14.903L9.501 15.173L9.579 15.447L9.601 15.514L9.678 15.541L12.791 16.564C13.707 16.862 14.622 17.169 15.535 17.483C15.613 17.499 15.692 17.51 15.772 17.515L15.827 17.521H15.843L15.871 17.526L15.986 17.532H16.003L15.749 18.567C14.8412 18.5935 13.9326 18.5608 13.029 18.469C10.807 18.171 9.345 17.639 8.965 17.488C7.73179 14.9573 7.44517 12.0687 8.157 9.345H8.156ZM19.956 10.875L17.015 16.42L16.818 16.79L16.675 16.839C16.5038 16.9013 16.324 16.9367 16.142 16.944C15.863 16.9717 15.5813 16.9375 15.317 16.844L15.217 16.806L15.343 16.571L18.423 10.771L18.562 10.508C19.062 10.531 19.574 10.569 20.096 10.613L19.956 10.875ZM20.86 10.965L21.004 10.693L21.427 10.732L21.829 10.776L21.879 10.781H21.911L21.763 11.061L19.323 15.659L19.123 16.036L17.979 16.399L18.176 16.026L20.86 10.965ZM6.51 12.235L6.494 12.087L6.483 11.944C6.46787 11.7181 6.53113 11.4938 6.66211 11.3091C6.79309 11.1244 6.98378 10.9905 7.202 10.93C7.00964 12.566 7.15255 14.224 7.622 15.803L7.577 15.789C7.41458 15.7316 7.26706 15.6386 7.14525 15.5167C7.02344 15.3949 6.93042 15.2474 6.873 15.085C6.82931 14.9473 6.8018 14.805 6.791 14.661L6.543 12.535L6.51 12.235ZM9.264 23.688L9.249 23.676L9.256 23.686C9.20023 23.6709 9.14883 23.6428 9.106 23.604C8.48904 22.8388 7.96473 22.0033 7.544 21.115C6.68026 19.2722 6.41452 17.2054 6.784 15.204L6.788 15.214C6.87364 15.3772 6.99422 15.5195 7.14113 15.6309C7.28805 15.7422 7.4577 15.8197 7.638 15.858C7.851 16.56 8.127 17.241 8.463 17.893L8.513 17.981L8.606 18.025C8.958 18.169 9.317 18.295 9.682 18.404H9.69L9.665 18.412C9.58383 18.4392 9.50377 18.4695 9.425 18.503C9.35937 18.5306 9.29435 18.5596 9.23 18.59L8.806 18.793L8.669 18.859L8.652 18.997C8.53251 20.043 8.63681 21.1024 8.958 22.105C9.113 22.604 9.331 23.081 9.607 23.525L9.612 23.535L9.629 23.579C9.653 23.69 9.438 23.735 9.264 23.689V23.688ZM13.044 25.9C12.2698 25.6168 11.5621 25.1774 10.965 24.609C10.6245 24.2761 10.3339 23.8959 10.102 23.48C9.87169 23.0637 9.69431 22.6203 9.574 22.16C9.45601 21.6989 9.38399 21.2273 9.359 20.752C9.32918 20.3351 9.34224 19.9162 9.398 19.502L9.656 19.399C9.921 19.312 10.189 19.235 10.459 19.169L10.872 19.086C11.229 19.026 11.588 18.983 11.95 18.959H11.993L12.009 18.961C11.7 19.8032 11.5442 20.6939 11.549 21.591C11.549 23.381 12.139 24.904 13.076 25.919L13.044 25.9ZM17.344 24.757C16.93 24.9913 16.4617 25.1127 15.986 25.109C15.4904 25.1113 15.0035 24.9782 14.578 24.724C14.376 24.5053 14.2038 24.2609 14.066 23.997C14.2991 24.2675 14.5867 24.4857 14.91 24.6373C15.2333 24.7889 15.585 24.8706 15.942 24.8769C16.299 24.8832 16.6534 24.8141 16.9818 24.674C17.3103 24.5339 17.6054 24.326 17.848 24.064C17.7111 24.3164 17.5416 24.5497 17.344 24.758V24.757ZM15.986 24.339C15.7285 24.3402 15.4733 24.2906 15.235 24.1932C14.9967 24.0957 14.7799 23.9522 14.5971 23.7709C14.4142 23.5897 14.2689 23.3741 14.1693 23.1367C14.0698 22.8992 14.018 22.6445 14.017 22.387V22.38C14.0166 21.9927 14.131 21.6139 14.3457 21.2916C14.5604 20.9692 14.8657 20.7177 15.2233 20.5687C15.5808 20.4198 15.9744 20.3801 16.3545 20.4547C16.7345 20.5293 17.084 20.7148 17.3587 20.9879C17.6334 21.2609 17.821 21.6092 17.898 21.9888C17.9749 22.3684 17.9376 22.7623 17.7908 23.1207C17.6441 23.4791 17.3944 23.786 17.0734 24.0027C16.7523 24.2193 16.3743 24.336 15.987 24.338V24.339H15.986ZM18.474 22C18.3733 21.405 18.0627 20.8658 17.5985 20.4803C17.1343 20.0947 16.5473 19.8883 15.9439 19.8984C15.3405 19.9086 14.7608 20.1347 14.3099 20.5356C13.8589 20.9366 13.5666 21.486 13.486 22.084C13.4562 21.8574 13.4379 21.6294 13.431 21.401C13.6322 20.8876 13.9843 20.4473 14.4407 20.1379C14.8972 19.8286 15.4366 19.6647 15.988 19.668H15.998C16.5385 19.6667 17.0673 19.826 17.5172 20.1256C17.967 20.4253 18.3178 20.8517 18.525 21.351C18.5182 21.5683 18.5012 21.7853 18.474 22.001V22ZM18.906 25.931H18.916L18.896 25.938C19.846 24.922 20.446 23.389 20.446 21.585C20.4514 20.6878 20.2952 19.7969 19.985 18.955H19.999C21.414 19.159 22.151 19.885 22.151 19.885C22.151 19.885 22.301 24.031 18.908 25.931H18.906ZM25.369 16.991V17.205C25.369 17.254 25.365 17.302 25.364 17.35C25.3606 17.4595 25.3546 17.5688 25.346 17.678C25.346 17.712 25.34 17.747 25.337 17.781C25.331 17.852 25.325 17.923 25.317 17.994C25.317 18.01 25.314 18.026 25.312 18.042C25.3044 18.1108 25.2961 18.1794 25.287 18.248V18.258L25.259 18.456V18.463C25.1005 19.4947 24.777 20.4941 24.301 21.423L24.267 21.489C24.232 21.556 24.197 21.624 24.16 21.691C23.7973 22.3675 23.3721 23.0086 22.89 23.606C22.8494 23.6447 22.8 23.6728 22.746 23.688L22.752 23.677L22.738 23.69C22.564 23.74 22.343 23.697 22.368 23.58L22.384 23.536L22.394 23.526C22.667 23.08 22.884 22.604 23.039 22.106C23.3547 21.1043 23.4576 20.0477 23.341 19.004L23.325 18.867L23.187 18.801C23.044 18.729 22.907 18.658 22.764 18.597L22.329 18.421L22.29 18.407L22.3 18.404C22.663 18.297 23.02 18.169 23.369 18.023L23.462 17.979L23.512 17.891C23.847 17.239 24.122 16.559 24.334 15.859C24.709 15.782 25.029 15.542 25.207 15.204C25.312 15.766 25.367 16.337 25.372 16.909C25.3702 16.9363 25.3692 16.9636 25.369 16.991ZM9.646 11.135L9.877 10.855H9.954H9.839C9.723 11.025 9.581 11.188 9.454 11.355C9.527 11.281 9.584 11.212 9.646 11.135ZM16.95 6.21C17.434 6.337 17.753 6.568 17.753 6.837C17.753 7.107 17.429 7.337 16.95 7.464C17.61 7.404 18.105 7.145 18.105 6.837C18.105 6.529 17.61 6.268 16.95 6.21ZM15.36 8.682C15.4267 8.68201 15.4907 8.6558 15.5382 8.60903C15.5857 8.56225 15.613 8.49867 15.614 8.432C15.614 8.39853 15.6074 8.36538 15.5945 8.33448C15.5817 8.30359 15.5628 8.27555 15.539 8.252C15.5153 8.2287 15.4872 8.21047 15.4562 8.19843C15.4253 8.1864 15.3922 8.1808 15.359 8.182C15.2934 8.18279 15.2308 8.20954 15.1849 8.2564C15.1389 8.30326 15.1135 8.3664 15.114 8.432C15.114 8.57 15.224 8.682 15.36 8.682ZM8.715 9.524C8.66539 9.52447 8.61701 9.53957 8.57594 9.56742C8.53488 9.59526 8.50294 9.63461 8.48415 9.68053C8.46535 9.72645 8.46053 9.7769 8.47029 9.82555C8.48005 9.8742 8.50395 9.91888 8.539 9.954C8.586 10.001 8.649 10.026 8.715 10.024C8.76462 10.0235 8.81299 10.0084 8.85406 9.98058C8.89512 9.95274 8.92706 9.91339 8.94585 9.86747C8.96465 9.82155 8.96947 9.7711 8.95971 9.72245C8.94995 9.67381 8.92605 9.62912 8.891 9.594C8.86805 9.57086 8.84058 9.5527 8.8103 9.54065C8.78001 9.52861 8.74757 9.52294 8.715 9.524ZM9.408 17.597C9.45761 17.5965 9.50599 17.5814 9.54706 17.5536C9.58812 17.5257 9.62006 17.4864 9.63885 17.4405C9.65765 17.3946 9.66247 17.3441 9.65271 17.2955C9.64295 17.2468 9.61905 17.2021 9.584 17.167C9.56105 17.1439 9.53358 17.1257 9.5033 17.1137C9.47301 17.1016 9.44057 17.0959 9.408 17.097C9.34186 17.0975 9.27857 17.124 9.2318 17.1708C9.18503 17.2176 9.15852 17.2809 9.158 17.347C9.163 17.487 9.273 17.597 9.408 17.597ZM15.48 18.554C15.5296 18.5535 15.578 18.5384 15.6191 18.5106C15.6601 18.4827 15.6921 18.4434 15.7108 18.3975C15.7296 18.3515 15.7345 18.3011 15.7247 18.2525C15.715 18.2038 15.691 18.1591 15.656 18.124C15.6331 18.1009 15.6056 18.0827 15.5753 18.0707C15.545 18.0586 15.5126 18.0529 15.48 18.054C15.4132 18.0553 15.3497 18.0828 15.3029 18.1304C15.2562 18.1781 15.23 18.2422 15.23 18.309C15.2343 18.3734 15.2622 18.434 15.3083 18.4791C15.3544 18.5243 15.4155 18.551 15.48 18.554ZM16.845 8.687C16.9117 8.68701 16.9757 8.6608 17.0232 8.61403C17.0707 8.56725 17.0979 8.50367 17.099 8.437C17.099 8.40353 17.0924 8.37038 17.0795 8.33948C17.0667 8.30859 17.0478 8.28055 17.024 8.257C17.0003 8.2337 16.9722 8.21547 16.9412 8.20343C16.9103 8.1914 16.8772 8.1858 16.844 8.187C16.7784 8.18779 16.7158 8.21454 16.6699 8.2614C16.6239 8.30826 16.5985 8.3714 16.599 8.437C16.599 8.576 16.709 8.687 16.845 8.687ZM16.723 18.06C16.657 18.061 16.594 18.0877 16.5474 18.1344C16.5007 18.181 16.474 18.244 16.473 18.31C16.483 18.447 16.59 18.555 16.723 18.56C16.7726 18.5595 16.821 18.5444 16.8621 18.5166C16.9031 18.4887 16.9351 18.4494 16.9538 18.4035C16.9726 18.3575 16.9775 18.3071 16.9677 18.2585C16.958 18.2098 16.934 18.1651 16.899 18.13C16.8761 18.1069 16.8486 18.0887 16.8183 18.0767C16.788 18.0646 16.7556 18.0589 16.723 18.06ZM9.946 19.743C9.90243 19.7398 9.85885 19.7491 9.82028 19.7696C9.78172 19.7901 9.74973 19.8211 9.728 19.859C9.70491 19.8979 9.69223 19.942 9.69118 19.9872C9.69013 20.0324 9.70074 20.0771 9.722 20.117C9.766 20.197 9.848 20.246 9.936 20.242H9.946C10.0114 20.2407 10.0737 20.2138 10.1196 20.167C10.1654 20.1203 10.191 20.0574 10.191 19.992C10.1917 19.9284 10.1681 19.8668 10.125 19.82C10.102 19.7953 10.0741 19.7757 10.0431 19.7625C10.0121 19.7492 9.97871 19.7426 9.945 19.743H9.946ZM11.455 19.293C11.3894 19.2935 11.3267 19.32 11.2806 19.3667C11.2345 19.4134 11.2087 19.4764 11.209 19.542C11.209 19.68 11.319 19.792 11.455 19.792C11.5217 19.792 11.5857 19.7658 11.6332 19.719C11.6807 19.6723 11.7079 19.6087 11.709 19.542C11.709 19.5085 11.7024 19.4754 11.6895 19.4445C11.6767 19.4136 11.6578 19.3855 11.634 19.362C11.6103 19.3387 11.5822 19.3205 11.5512 19.3084C11.5203 19.2964 11.4872 19.2908 11.454 19.292L11.455 19.293ZM20.75 19.293C20.7161 19.2927 20.6826 19.2993 20.6513 19.3123C20.6201 19.3254 20.5918 19.3447 20.5683 19.369C20.5447 19.3933 20.5263 19.4221 20.5142 19.4538C20.5021 19.4854 20.4966 19.5192 20.498 19.553C20.4993 19.5868 20.5075 19.62 20.5221 19.6506C20.5367 19.6812 20.5573 19.7085 20.5828 19.7308C20.6082 19.7531 20.6379 19.7701 20.6701 19.7806C20.7023 19.7911 20.7363 19.795 20.77 19.792C20.8363 19.7893 20.8988 19.7605 20.9438 19.7117C20.9889 19.6629 21.0127 19.5983 21.01 19.532C21.0073 19.4657 20.9785 19.4032 20.9297 19.3582C20.8809 19.3131 20.8163 19.2893 20.75 19.292V19.293Z" fill="black"/>
</g>
<defs>
<clipPath id="clip0_16_2682">
<rect width="32" height="32" fill="white"/>
</clipPath>
</defs>
</svg>
