<svg width="32" height="32" viewBox="0 0 32 32" fill="none" xmlns="http://www.w3.org/2000/svg">
<g clip-path="url(#clip0_16_2692)">
<path d="M16 32C7.163 32 0 24.837 0 16C0 7.163 7.163 0 16 0C24.837 0 32 7.163 32 16C32 24.837 24.837 32 16 32ZM22.64 9.568C22.3 8.807 21.985 7.303 21.115 6.968C19.995 6.538 19.304 9.356 19.139 10.068H18.972C18.69 8.848 18.312 7.118 16.972 6.734C16.352 9.339 17.62 12.148 18.806 14.403C20.072 13.797 20.689 11.903 20.806 10.568H20.973L22.307 14.569C23.38 14.261 23.753 13.199 24.14 12.235C24.972 10.167 25.67 7.623 25.14 5.4C23.54 5.854 23.052 8.143 22.64 9.568ZM6.636 14.903C8.068 14.219 8.75 12.053 8.97 10.568H9.136C9.306 11.284 9.759 13.13 10.653 13.248C11.793 13.399 12.39 10.871 12.47 10.068H12.637C13 11.323 13.383 12.956 14.637 13.569C15.101 11.625 14.547 9.552 13.836 7.734C13.653 7.267 13.278 6.006 12.633 6.006C11.577 6.006 10.983 8.79 10.803 9.568H10.637L9.303 5.567C6.957 6.687 5.683 12.644 6.636 14.903ZM4.135 16.903C5.875 24.497 13.906 28.803 21.14 25.595C23.7627 24.4297 25.8693 22.3464 27.064 19.737C27.375 19.063 27.986 17.842 27.63 16.957C27.275 16.075 23.835 17.515 22.975 17.892C22.9156 17.9183 22.8638 17.959 22.8243 18.0106C22.7848 18.0622 22.7589 18.1228 22.749 18.187C22.735 18.2786 22.74 18.372 22.7638 18.4615C22.7876 18.5511 22.8296 18.6347 22.8873 18.7072C22.945 18.7797 23.017 18.8395 23.0988 18.8828C23.1807 18.9261 23.2706 18.9521 23.363 18.959L24.807 19.071C22.192 24.133 15.121 26.371 10.137 22.327C9.021 21.422 8.026 20.347 7.356 19.071C7.032 18.454 6.731 17.665 6.181 17.241C5.651 16.835 4.849 16.695 4.135 16.903Z" fill="black"/>
</g>
<defs>
<clipPath id="clip0_16_2692">
<rect width="32" height="32" fill="white"/>
</clipPath>
</defs>
</svg>
