<svg width="32" height="32" viewBox="0 0 32 32" fill="none" xmlns="http://www.w3.org/2000/svg">
<g clip-path="url(#clip0_16_2694)">
<path fill-rule="evenodd" clip-rule="evenodd" d="M10.664 28.193C10.054 28.833 9.44901 29.48 8.82401 30.107C8.75501 30.176 8.53301 30.18 8.44401 30.121C7.52501 29.521 6.56501 28.967 5.72201 28.271C3.41901 26.373 1.79401 23.981 0.834011 21.148C0.111012 19.016 -0.129988 16.826 0.0640115 14.584C0.334012 11.488 1.40901 8.698 3.31601 6.254C5.97801 2.842 9.46401 0.784002 13.756 0.168002C16.842 -0.274998 19.822 0.158002 22.667 1.455C22.744 1.49 22.82 1.528 22.894 1.568C22.91 1.576 22.918 1.598 22.938 1.625C22.536 1.625 22.136 1.58 21.75 1.635C20.567 1.8 19.862 2.544 19.481 3.634C19.406 3.851 19.361 4.082 19.328 4.31C19.315 4.393 19.371 4.487 19.395 4.576C19.497 4.526 19.637 4.503 19.692 4.423C19.84 4.206 19.929 3.948 20.082 3.736C20.854 2.655 22.37 2.527 23.251 3.476C23.851 4.122 23.931 4.9 23.743 5.728C23.503 6.79 22.92 7.67 22.232 8.48C21.679 9.133 21.079 9.746 20.488 10.365C20.424 10.432 20.248 10.478 20.178 10.439C18.928 9.726 17.588 9.409 16.153 9.376C14.214 9.332 12.447 9.779 10.947 11.052C9.40701 12.359 8.53801 14.014 8.56201 16.057C8.58901 18.445 9.63001 20.274 11.717 21.477L11.907 21.588C11.915 21.593 11.918 21.606 11.943 21.65C11.869 21.718 11.785 21.79 11.706 21.866C11.056 22.501 10.376 23.107 9.76801 23.78C9.25501 24.35 8.90601 25.029 8.85601 25.826C8.82301 26.345 8.98101 26.798 9.35901 27.14C9.76401 27.506 10.209 27.829 10.664 28.193ZM25.36 28.973C25.03 27.76 24.274 26.93 23.208 26.367C22.38 25.928 21.473 25.767 20.554 25.711C19.037 25.621 17.517 25.587 15.999 25.504C14.926 25.444 13.855 25.343 12.783 25.26C12.7726 25.2594 12.7622 25.2581 12.752 25.256C11.659 25.026 11.327 24.364 11.9 23.412C12.178 22.95 12.586 22.561 12.972 22.175C13.057 22.09 13.303 22.122 13.462 22.16C15.257 22.589 17.052 22.611 18.799 21.994C20.94 21.237 22.412 19.784 22.949 17.534C23.313 16.008 23.121 14.514 22.402 13.104L22.252 12.803H23.58C23.95 12.803 24.32 12.812 24.69 12.796C24.787 12.792 24.942 12.736 24.968 12.666C25.274 11.836 25.559 10.999 25.85 10.163L25.78 10.066C25.656 10.118 25.482 10.136 25.418 10.228C25.081 10.711 24.596 10.892 24.05 10.902C23.004 10.924 21.957 10.909 20.91 10.908C20.894 10.908 20.878 10.888 20.85 10.87C21.535 10.135 22.219 9.404 22.899 8.67C23.642 7.868 24.33 7.026 24.802 6.03C25.357 4.855 25.471 3.7 24.588 2.61C24.578 2.598 24.583 2.572 24.573 2.469C28.827 5.358 31.362 9.254 31.905 14.333C32.2194 17.1352 31.7783 19.9706 30.6275 22.5449C29.4766 25.1192 27.6579 27.3386 25.36 28.973ZM19.566 16.656C19.448 17.414 19.394 18.188 19.197 18.924C18.854 20.214 18.011 21.08 16.672 21.302C15.261 21.538 14.126 21.016 13.312 19.822C12.679 18.89 12.365 17.843 12.232 16.743C12.093 15.587 12.072 14.426 12.344 13.28C12.63 12.069 13.264 11.119 14.462 10.657C15.921 10.093 17.441 10.661 18.35 12.068C18.965 13.019 19.282 14.073 19.4 15.189C19.452 15.671 19.471 16.157 19.505 16.641L19.566 16.656ZM23.709 30.008C20.773 32.208 13.232 32.708 10.186 30.891C10.323 30.616 10.432 30.316 10.608 30.061C10.968 29.541 11.355 29.038 11.755 28.547C11.831 28.453 12.022 28.403 12.155 28.412C13.681 28.512 15.205 28.641 16.732 28.734C18.102 28.817 19.475 28.84 20.844 28.938C21.46 28.982 22.074 29.115 22.678 29.259C23.101 29.359 23.478 29.583 23.709 30.008Z" fill="black"/>
</g>
<defs>
<clipPath id="clip0_16_2694">
<rect width="32" height="32" fill="white"/>
</clipPath>
</defs>
</svg>
