<svg width="32" height="32" viewBox="0 0 32 32" fill="none" xmlns="http://www.w3.org/2000/svg">
<g clip-path="url(#clip0_16_2706)">
<path fill-rule="evenodd" clip-rule="evenodd" d="M16 32C7.163 32 0 24.837 0 16C0 7.163 7.163 0 16 0C24.837 0 32 7.163 32 16C32 24.837 24.837 32 16 32ZM26 13.193C26 12.794 25.976 12.396 25.926 12H9.774C9.696 12.3929 9.65681 12.7925 9.657 13.193C9.657 16.62 12.502 19.41 15.997 19.41C18.715 19.407 21.129 17.71 22.004 15.189H20.08C19.189 16.945 17.233 17.927 15.258 17.609C13.284 17.29 11.752 15.746 11.481 13.802H24.202C23.885 17.965 20.329 21.257 16.003 21.257C11.47 21.257 7.782 17.64 7.782 13.195C7.782 12.796 7.812 12.397 7.872 12.002H6.074C6.024 12.398 6 12.797 6 13.195C6 18.601 10.487 23 16 23C21.513 23 26 18.6 26 13.193Z" fill="black"/>
</g>
<defs>
<clipPath id="clip0_16_2706">
<rect width="32" height="32" fill="white"/>
</clipPath>
</defs>
</svg>
