<svg width="32" height="32" viewBox="0 0 32 32" fill="none" xmlns="http://www.w3.org/2000/svg">
<g clip-path="url(#clip0_16_2708)">
<path d="M16 32C7.163 32 0 24.837 0 16C0 7.163 7.163 0 16 0C24.837 0 32 7.163 32 16C32 24.837 24.837 32 16 32ZM7.02 7.027H7.021C5.694 8.297 5.653 10.629 6.951 11.937C9.439 14.47 11.979 16.957 14.479 19.479C13.332 20.647 12.169 21.794 11.021 22.962C10.589 23.378 10.131 23.929 9.465 23.87C8.368 23.888 7.68 22.397 8.461 21.596C9.619 20.364 10.856 19.202 12.031 17.988C11.529 17.488 11.027 16.983 10.525 16.483C9.3229 17.6582 8.13449 18.8472 6.96 20.05C5.709 21.308 5.68 23.521 6.879 24.82C8.069 26.227 10.399 26.41 11.782 25.184C13.225 23.824 14.587 22.382 16.015 21.008C17.353 22.336 18.671 23.69 20.018 25.012C21.313 26.328 23.638 26.325 24.936 25.015C26.254 23.789 26.371 21.517 25.154 20.184C23.798 18.757 22.373 17.403 21.005 15.994C22.344 14.654 23.688 13.324 25.015 11.972C26.304 10.708 26.325 8.437 25.082 7.135C23.871 5.755 21.552 5.606 20.187 6.838C18.753 8.189 17.417 9.637 15.989 10.994C14.6466 9.6281 13.2905 8.27569 11.921 6.937C10.609 5.647 8.29 5.7 7.021 7.027H7.02ZM8.473 10.417C7.863 9.8 8.103 8.664 8.867 8.294C9.416 7.968 10.136 8.137 10.557 8.591C11.877 9.887 13.176 11.209 14.479 12.522C13.821 13.172 13.167 13.827 12.517 14.485C11.17 13.128 9.797 11.797 8.473 10.417ZM21.413 8.627H21.412C21.815 8.172 22.498 7.968 23.058 8.257C23.892 8.6 24.153 9.815 23.5 10.449C22.205 11.833 20.811 13.119 19.496 14.483C18.985 13.993 18.486 13.495 17.986 12.997C17.488 13.502 16.987 14.005 16.486 14.506C18.679 16.708 20.878 18.906 23.081 21.099C23.549 21.533 24.045 22.129 23.827 22.819C23.624 23.795 22.26 24.244 21.557 23.504C20.172 22.199 18.857 20.825 17.517 19.477C18.015 18.982 18.509 18.487 19 17.986C18.494 17.488 17.995 16.984 17.493 16.483C16.996 16.981 16.5 17.479 16.001 17.971C15.3485 17.3091 14.6874 16.6558 14.018 16.011C16.491 13.559 18.927 11.066 21.412 8.626L21.413 8.627Z" fill="black"/>
</g>
<defs>
<clipPath id="clip0_16_2708">
<rect width="32" height="32" fill="white"/>
</clipPath>
</defs>
</svg>
