<svg width="32" height="32" viewBox="0 0 32 32" fill="none" xmlns="http://www.w3.org/2000/svg">
<g clip-path="url(#clip0_16_2720)">
<path fill-rule="evenodd" clip-rule="evenodd" d="M16 32C7.163 32 0 24.837 0 16C0 7.163 7.163 0 16 0C24.837 0 32 7.163 32 16C32 24.837 24.837 32 16 32ZM16.572 15.272C16.419 16.022 17.185 15.822 17.185 15.822C20.245 15.122 21.062 12.172 21.062 12.172C21.886 9.519 20.629 7.842 20.004 7.208C19.7687 6.96857 19.4756 6.79393 19.153 6.701C18.018 6.378 16.521 6.671 16.521 6.671L12.287 7.321L11.685 7.4C11.5764 7.41425 11.4699 7.44179 11.368 7.482L10.756 7.722C13.817 7.572 15.296 9.472 15.296 9.472C17.899 12.322 16.572 15.272 16.572 15.272ZM16.383 16.916C15.803 16.405 15.588 17.15 15.589 17.152C14.643 20.089 16.816 22.282 16.816 22.282C18.726 24.328 20.839 24.123 21.714 23.919C22.042 23.844 22.344 23.686 22.59 23.461C23.453 22.669 23.958 21.258 23.958 21.258L25.546 17.358L25.784 16.811C25.827 16.711 25.857 16.608 25.874 16.501L25.976 15.863C24.547 18.521 22.125 18.8 22.125 18.8C18.295 19.538 16.383 16.916 16.383 16.916ZM14.998 15.969C15.738 15.726 15.18 15.175 15.178 15.175C13.033 12.923 10.016 13.699 10.016 13.699C7.259 14.322 6.402 16.225 6.153 17.072C6.05887 17.3903 6.05128 17.7278 6.131 18.05C6.408 19.173 7.415 20.3 7.415 20.3L10.101 23.573L10.47 24.045C10.5368 24.1306 10.6141 24.2076 10.7 24.274L11.217 24.674C9.559 22.147 10.503 19.944 10.503 19.944C11.728 16.312 14.998 15.969 14.998 15.969ZM17.106 16.159C16.373 16.421 16.946 16.957 16.943 16.957C19.145 19.153 22.141 18.303 22.141 18.303C24.881 17.613 25.689 15.688 25.916 14.835C26.003 14.515 26.003 14.179 25.916 13.859C25.608 12.741 24.574 11.641 24.574 11.641L21.804 8.435L21.423 7.973C21.3537 7.88935 21.2744 7.81446 21.187 7.75L20.659 7.363C22.383 9.847 21.497 12.074 21.497 12.074C20.367 15.734 17.107 16.159 17.107 16.159H17.106ZM15.468 16.762C15.643 16.016 14.87 16.2 14.87 16.197C11.792 16.821 10.9 19.751 10.9 19.751C10.01 22.382 11.223 24.088 11.833 24.738C12.061 24.982 12.349 25.164 12.67 25.265C13.797 25.616 15.3 25.36 15.3 25.36L19.55 24.814L20.153 24.75C20.2622 24.7388 20.3697 24.7143 20.473 24.677L21.09 24.452C18.024 24.527 16.595 22.592 16.595 22.592C14.067 19.679 15.468 16.762 15.468 16.762ZM15.577 15.226C16.164 15.729 16.367 14.979 16.367 14.981C17.271 12.031 15.067 9.869 15.067 9.869C13.128 7.85 11.018 8.083 10.146 8.3C9.81972 8.37899 9.51936 8.54089 9.274 8.77C8.424 9.573 7.939 10.991 7.939 10.991L6.407 14.915L6.177 15.465C6.137 15.565 6.107 15.669 6.092 15.775L6 16.415C7.39 13.738 9.808 13.426 9.808 13.426C13.625 12.63 15.577 15.226 15.577 15.226Z" fill="black"/>
<path opacity="0.5" d="M17.106 16.159C17.106 16.159 20.366 15.735 21.496 12.074C21.496 12.074 22.383 9.84701 20.659 7.36301L21.187 7.75001C21.274 7.81501 21.354 7.89001 21.423 7.97301L21.804 8.43501L24.574 11.641C24.574 11.641 25.608 12.741 25.916 13.859C26.003 14.179 26.003 14.515 25.916 14.835C25.689 15.688 24.882 17.613 22.141 18.303C22.141 18.303 19.145 19.153 16.943 16.957C16.945 16.957 16.373 16.421 17.106 16.159ZM15.468 16.763C15.468 16.763 14.067 19.679 16.595 22.592C16.595 22.592 18.024 24.527 21.09 24.452L20.472 24.677C20.369 24.7142 20.2619 24.7387 20.153 24.75L19.55 24.814L15.3 25.36C15.3 25.36 13.797 25.617 12.67 25.265C12.3504 25.1641 12.0621 24.9826 11.833 24.738C11.223 24.088 10.01 22.382 10.901 19.751C10.901 19.751 11.791 16.821 14.87 16.197C14.87 16.2 15.643 16.017 15.468 16.763ZM15.577 15.226C15.577 15.226 13.625 12.63 9.808 13.426C9.808 13.426 7.39 13.738 6 16.416L6.092 15.775C6.10772 15.6685 6.13661 15.5644 6.178 15.465L6.408 14.915L7.938 10.991C7.938 10.991 8.423 9.57301 9.274 8.76901C9.51948 8.54025 9.81982 8.37871 10.146 8.30001C11.018 8.08301 13.128 7.85001 15.066 9.86901C15.066 9.86901 17.271 12.03 16.368 14.981C16.368 14.979 16.164 15.729 15.577 15.226Z" fill="black"/>
</g>
<defs>
<clipPath id="clip0_16_2720">
<rect width="32" height="32" fill="white"/>
</clipPath>
</defs>
</svg>
