<svg width="32" height="32" viewBox="0 0 32 32" fill="none" xmlns="http://www.w3.org/2000/svg">
<g clip-path="url(#clip0_16_2724)">
<path d="M16 32C7.163 32 0 24.837 0 16C0 7.163 7.163 0 16 0C24.837 0 32 7.163 32 16C32 24.837 24.837 32 16 32ZM10.75 7.5C11.2948 8.30881 11.5792 9.26491 11.565 10.24C10.461 10.25 9.358 10.25 8.255 10.25C7.18 12.17 6.056 14.067 5 15.997V16C6.054 17.933 7.174 19.83 8.254 21.75H11.214V19.437H10.245C9.58946 18.293 8.93679 17.1473 8.287 16L10.242 12.563H18.109V14.833H14.341V12.853H11.501C11.491 16.07 11.524 19.287 11.491 22.5C11.594 23.443 10.613 23.857 10.126 24.5H15.723C14.858 23.803 14.113 22.97 14.269 21.76C17.586 21.74 20.899 21.757 24.213 21.75C25.048 20.317 25.718 18.743 27 17.637C25.704 17.463 24.395 17.533 23.093 17.5C22.868 18.167 22.586 18.81 22.268 19.44C21.834 19.437 21.4 19.437 20.969 19.437C20.979 16.113 20.952 12.787 20.972 9.463C20.922 8.72 21.436 8.133 21.738 7.5H17.354C17.921 8.31 18.186 9.253 18.169 10.24C16.873 10.253 15.574 10.253 14.279 10.24C14.259 9.247 14.58 8.33 15.104 7.5H10.749H10.75ZM14.342 17.167H18.109V19.437H14.342V17.167ZM21.257 10.25V12.563L22.241 12.56C22.589 13.17 22.904 13.807 23.063 14.5C24.319 14.437 25.581 14.564 26.827 14.4C26.804 14.324 26.761 14.167 26.737 14.09C25.571 13.05 25.015 11.55 24.207 10.25H21.257ZM18.212 22.04C18.285 23.163 17.44 23.814 16.717 24.5H22.354C21.589 23.84 20.81 23.15 20.83 22.037C19.958 22.04 19.083 22.043 18.212 22.04Z" fill="black"/>
</g>
<defs>
<clipPath id="clip0_16_2724">
<rect width="32" height="32" fill="white"/>
</clipPath>
</defs>
</svg>
