<svg width="32" height="32" viewBox="0 0 32 32" fill="none" xmlns="http://www.w3.org/2000/svg">
<g clip-path="url(#clip0_16_2732)">
<path d="M16 0C24.837 0 32 7.163 32 16C32 24.837 24.837 32 16 32C7.163 32 0 24.837 0 16C0 7.163 7.163 0 16 0ZM9.356 19.803V25.547H12.776V23.222L12.77 23.034C12.7217 22.1611 12.341 21.3399 11.706 20.739C11.0711 20.1381 10.2302 19.8032 9.356 19.803ZM12.658 6.693H9.238V14.293L9.243 14.481C9.29107 15.3542 9.67183 16.1758 10.307 16.7769C10.9422 17.3781 11.7835 17.713 12.658 17.713H17.574L17.744 17.721C18.1661 17.7632 18.5574 17.9607 18.842 18.2752C19.1266 18.5898 19.2841 18.9988 19.284 19.423V25.313H22.703V17.713L22.697 17.513C22.6462 16.6424 22.2647 15.824 21.6304 15.2255C20.9962 14.6269 20.1571 14.2933 19.285 14.293H14.367L14.22 14.287C13.7938 14.25 13.397 14.0545 13.1078 13.7393C12.8186 13.424 12.6581 13.0118 12.658 12.584V6.694V6.693ZM22.586 6.929H19.166V9.254L19.171 9.441C19.2191 10.3142 19.5998 11.1358 20.235 11.7369C20.8702 12.3381 21.7115 12.673 22.586 12.673V6.93V6.929Z" fill="black"/>
</g>
<defs>
<clipPath id="clip0_16_2732">
<rect width="32" height="32" fill="white"/>
</clipPath>
</defs>
</svg>
