<svg width="32" height="32" viewBox="0 0 32 32" fill="none" xmlns="http://www.w3.org/2000/svg">
<g clip-path="url(#clip0_16_2734)">
<path fill-rule="evenodd" clip-rule="evenodd" d="M16 32C7.163 32 0 24.837 0 16C0 7.163 7.163 0 16 0C24.837 0 32 7.163 32 16C32 24.837 24.837 32 16 32ZM15.007 18.657V19.974C15.007 20.03 15.007 20.087 15.015 20.142C15.085 20.588 15.468 20.9 15.903 20.868C16.1155 20.8486 16.3129 20.7499 16.4558 20.5914C16.5987 20.4329 16.6766 20.2264 16.674 20.013C16.676 19.529 16.675 19.043 16.674 18.559C16.6718 18.5224 16.6582 18.4874 16.635 18.459C16.538 18.339 16.437 18.222 16.337 18.105C16.052 17.769 15.768 17.433 15.482 17.099C15.386 16.987 15.27 16.953 15.161 17.001C15.041 17.053 15.005 17.151 15.006 17.279C15.009 17.739 15.006 18.198 15.006 18.657H15.007ZM15.01 9.647C15.21 9.338 15.48 9.18 15.842 9.179C16.208 9.179 16.476 9.344 16.67 9.676L16.675 9.628C16.673 8.697 16.678 7.765 16.669 6.834C16.6694 6.71174 16.6429 6.59089 16.5913 6.48006C16.5396 6.36924 16.4642 6.27117 16.3703 6.19285C16.2764 6.11454 16.1664 6.0579 16.0481 6.02699C15.9299 5.99607 15.8062 5.99164 15.686 6.014C15.296 6.082 15.008 6.435 15.008 6.856C15.006 7.766 15.007 8.678 15.007 9.588L15.01 9.648V9.647ZM15.007 22.26V22.488C15.007 23.381 15.004 24.274 15.009 25.167C15.01 25.3788 15.0913 25.5824 15.2364 25.7368C15.3815 25.8912 15.5796 25.9848 15.791 25.999C16.236 26.019 16.621 25.694 16.661 25.247C16.681 25.022 16.674 24.793 16.674 24.567C16.676 23.819 16.674 23.071 16.674 22.324V22.252C16.477 22.56 16.212 22.726 15.848 22.727C15.483 22.728 15.211 22.57 15.007 22.26ZM16.675 13.434L16.674 11.796C16.674 11.726 16.668 11.653 16.653 11.584C16.561 11.17 16.169 10.876 15.774 10.92C15.5639 10.9386 15.3685 11.0355 15.2266 11.1915C15.0847 11.3475 15.0067 11.5511 15.008 11.762C15.005 12.476 15.006 13.191 15.008 13.905C15.0101 13.9418 15.0242 13.9769 15.048 14.005C15.17 14.154 15.296 14.299 15.421 14.445C15.663 14.727 15.903 15.011 16.146 15.293C16.1877 15.3456 16.2453 15.3833 16.3103 15.4003C16.3752 15.4172 16.4439 15.4126 16.506 15.387C16.625 15.339 16.675 15.253 16.675 15.095V13.435V13.434ZM18.406 10.057V12.224C18.406 12.275 18.408 12.326 18.412 12.377C18.452 12.897 18.956 13.259 19.449 13.126C19.828 13.023 20.076 12.689 20.076 12.276V9.48C20.076 8.927 20.079 8.373 20.076 7.819C20.073 7.231 19.534 6.823 18.993 6.994C18.637 7.106 18.408 7.434 18.407 7.836V10.056L18.406 10.057ZM13.362 20.76C13.362 19.898 13.364 19.035 13.361 18.173C13.3615 18.0458 13.3329 17.9202 13.2774 17.8058C13.222 17.6914 13.141 17.5911 13.0409 17.5128C12.9407 17.4344 12.8239 17.38 12.6995 17.3537C12.5751 17.3274 12.4463 17.3299 12.323 17.361C12.1405 17.4098 11.9796 17.5182 11.8659 17.669C11.7521 17.8197 11.6919 18.0042 11.695 18.193V22.946C11.695 23.089 11.692 23.232 11.695 23.375C11.71 23.874 12.188 24.265 12.669 24.172C12.866 24.1358 13.0438 24.0307 13.1705 23.8756C13.2973 23.7204 13.3648 23.5253 13.361 23.325C13.363 22.47 13.361 21.615 13.361 20.76H13.362ZM13.362 11.314V10.494C13.362 9.596 13.364 8.698 13.361 7.799C13.3617 7.67377 13.3341 7.55 13.2805 7.43685C13.2268 7.3237 13.1484 7.22406 13.0511 7.14532C12.9537 7.06657 12.8399 7.01074 12.718 6.98195C12.5961 6.95316 12.4693 6.95215 12.347 6.979C12.1583 7.02341 11.9906 7.13127 11.8719 7.28454C11.7532 7.43781 11.6908 7.62719 11.695 7.821V13.326C11.695 13.832 11.691 14.337 11.695 14.842C11.7 15.372 12.2 15.77 12.706 15.652C12.8951 15.6086 13.0635 15.5014 13.1828 15.3484C13.302 15.1954 13.365 15.006 13.361 14.812V11.314H13.362ZM18.406 19.5V23.251C18.406 23.305 18.408 23.358 18.412 23.411C18.454 23.933 18.966 24.295 19.46 24.153C19.837 24.045 20.076 23.713 20.076 23.295V15.647C20.056 15.033 19.448 14.633 18.906 14.884C18.568 15.041 18.406 15.324 18.406 15.702V19.5ZM23.5 15.634V9.677C23.499 9.063 22.902 8.65 22.352 8.879C22.026 9.015 21.832 9.322 21.832 9.707V21.55L21.833 21.626C21.847 22.139 22.337 22.532 22.829 22.425C23.0224 22.3832 23.1951 22.2752 23.3174 22.1196C23.4397 21.9641 23.5039 21.7708 23.499 21.573V15.633L23.5 15.634ZM10.167 15.625V11.613C10.167 10.957 10.171 10.301 10.166 9.646C10.1653 9.51891 10.1355 9.39367 10.0789 9.27985C10.0224 9.16603 9.9406 9.06663 9.83978 8.98925C9.73896 8.91187 9.62178 8.85856 9.49721 8.83339C9.37264 8.80821 9.24396 8.81184 9.121 8.844C8.745 8.948 8.501 9.28 8.501 9.689L8.5 21.571V21.624C8.514 22.149 9.014 22.543 9.515 22.424C9.908 22.33 10.167 21.994 10.167 21.573V15.624V15.625Z" fill="black"/>
</g>
<defs>
<clipPath id="clip0_16_2734">
<rect width="32" height="32" fill="white"/>
</clipPath>
</defs>
</svg>
