<svg width="32" height="32" viewBox="0 0 32 32" fill="none" xmlns="http://www.w3.org/2000/svg">
<g clip-path="url(#clip0_16_2746)">
<path fill-rule="evenodd" clip-rule="evenodd" d="M16 32C7.163 32 0 24.837 0 16C0 7.163 7.163 0 16 0C24.837 0 32 7.163 32 16C32 24.837 24.837 32 16 32ZM14.86 11.527C14.542 11.613 14.415 11.948 14.267 12.218C13.017 14.604 11.747 16.978 10.497 19.342C10.4181 19.4733 10.3847 19.6271 10.4021 19.7793C10.4194 19.9315 10.4865 20.0738 10.593 20.184C10.836 20.454 11.217 20.357 11.535 20.379C11.863 20.379 12.287 20.432 12.488 20.098C12.901 19.364 13.261 18.587 13.674 17.842C13.917 17.388 14.648 17.464 14.817 17.939C15.103 18.662 15.337 19.418 15.633 20.141C15.833 20.616 16.564 20.616 16.787 20.163C18.121 17.669 19.465 15.186 20.799 12.693C21.075 12.272 20.715 11.657 20.228 11.689C19.762 11.732 19.148 11.516 18.808 11.959C18.396 12.671 18.058 13.416 17.634 14.118C17.38 14.506 16.734 14.452 16.544 14.031C16.225 13.33 15.95 12.607 15.644 11.905C15.516 11.603 15.167 11.43 14.86 11.527ZM10.497 11.711C10.254 11.721 10.074 11.927 9.968 12.131C8.676 14.561 7.385 16.989 6.093 19.407C5.818 19.807 6.199 20.4 6.654 20.379C7.024 20.379 7.406 20.411 7.776 20.357C8.094 20.271 8.21 19.925 8.359 19.667C9.597 17.334 10.847 15.003 12.086 12.661C12.286 12.283 12.022 11.754 11.609 11.711C11.2386 11.6894 10.8674 11.6894 10.497 11.711ZM23.637 11.732C23.383 11.819 23.277 12.099 23.161 12.315C22.959 12.736 22.705 13.135 22.525 13.567C22.325 14.107 23.012 14.657 23.478 14.334C24.219 13.88 24.939 13.384 25.67 12.92C26.03 12.736 26.115 12.186 25.829 11.894C25.596 11.614 25.193 11.678 24.876 11.667C24.463 11.7 24.039 11.613 23.637 11.732ZM20.132 18.187C19.921 18.284 19.825 18.533 19.73 18.737C19.603 19.007 19.444 19.256 19.338 19.537C19.19 19.925 19.508 20.4 19.91 20.4C20.715 20.41 21.53 20.4 22.345 20.4C22.726 20.432 23.055 20.055 23.012 19.666C23.002 19.375 22.748 19.17 22.504 19.062C21.932 18.792 21.371 18.489 20.81 18.209C20.609 18.101 20.344 18.058 20.132 18.187Z" fill="black"/>
</g>
<defs>
<clipPath id="clip0_16_2746">
<rect width="32" height="32" fill="white"/>
</clipPath>
</defs>
</svg>
