<svg width="32" height="32" viewBox="0 0 32 32" fill="none" xmlns="http://www.w3.org/2000/svg">
<g clip-path="url(#clip0_16_2748)">
<path fill-rule="evenodd" clip-rule="evenodd" d="M16 32C7.163 32 0 24.837 0 16C0 7.163 7.163 0 16 0C24.837 0 32 7.163 32 16C32 24.837 24.837 32 16 32ZM13.446 12.287C14.205 12.287 14.821 11.686 14.821 10.945C14.821 10.203 14.205 9.602 13.446 9.602C12.686 9.602 12.071 10.203 12.071 10.945C12.071 11.686 12.686 12.287 13.446 12.287ZM17.373 10.753C18.133 10.753 18.748 10.152 18.748 9.411C18.748 8.669 18.133 8.068 17.373 8.068C16.614 8.068 15.998 8.669 15.998 9.411C15.998 10.152 16.614 10.753 17.373 10.753ZM18.946 19.958C19.705 19.958 20.321 19.358 20.321 18.616C20.321 17.874 19.705 17.273 18.946 17.273C18.186 17.273 17.571 17.874 17.571 18.616C17.571 19.358 18.186 19.958 18.946 19.958ZM5.786 18.04C5.88791 18.0412 5.98905 18.0223 6.08366 17.9844C6.17826 17.9465 6.26447 17.8903 6.33737 17.8191C6.41026 17.7479 6.46841 17.663 6.5085 17.5693C6.54859 17.4756 6.56983 17.3749 6.571 17.273C6.571 16.85 6.219 16.506 5.785 16.506C5.351 16.506 5 16.85 5 17.273C5 17.697 5.352 18.04 5.785 18.04H5.786ZM7.946 23.028C8.271 23.028 8.536 22.77 8.536 22.452C8.536 22.134 8.271 21.877 7.946 21.877C7.621 21.877 7.356 22.134 7.356 22.452C7.356 22.77 7.62 23.028 7.946 23.028ZM14.231 26.863C14.557 26.863 14.821 26.605 14.821 26.287C14.821 25.969 14.557 25.712 14.231 25.712C13.905 25.712 13.641 25.969 13.641 26.287C13.641 26.605 13.905 26.863 14.231 26.863ZM24.446 23.411C24.771 23.411 25.036 23.153 25.036 22.835C25.036 22.517 24.771 22.259 24.446 22.259C24.12 22.259 23.856 22.517 23.856 22.835C23.856 23.153 24.12 23.411 24.446 23.411ZM18.16 22.261C18.486 22.261 18.75 22.003 18.75 21.685C18.75 21.367 18.486 21.11 18.16 21.11C17.834 21.11 17.57 21.367 17.57 21.685C17.57 22.003 17.835 22.261 18.16 22.261ZM21.696 19.576C22.021 19.576 22.286 19.318 22.286 19C22.286 18.682 22.021 18.425 21.696 18.425C21.37 18.425 21.106 18.682 21.106 19C21.106 19.318 21.37 19.576 21.696 19.576ZM17.571 26.863C18.004 26.863 18.356 26.519 18.356 26.096C18.356 25.673 18.004 25.329 17.571 25.329C17.137 25.329 16.785 25.672 16.785 26.096C16.785 26.52 17.137 26.863 17.571 26.863ZM21.106 17.273C21.2079 17.2742 21.3091 17.2553 21.4037 17.2174C21.4983 17.1795 21.5845 17.1233 21.6574 17.0521C21.7303 16.9809 21.7884 16.896 21.8285 16.8023C21.8686 16.7086 21.8898 16.6079 21.891 16.506C21.8898 16.4041 21.8686 16.3034 21.8285 16.2097C21.7884 16.116 21.7303 16.0311 21.6574 15.9599C21.5845 15.8887 21.4983 15.8325 21.4037 15.7946C21.3091 15.7567 21.2079 15.7378 21.106 15.739C21.0041 15.7378 20.9029 15.7567 20.8083 15.7946C20.7137 15.8325 20.6275 15.8887 20.5546 15.9599C20.4817 16.0311 20.4236 16.116 20.3835 16.2097C20.3434 16.3034 20.3222 16.4041 20.321 16.506C20.321 16.93 20.672 17.273 21.106 17.273ZM22.286 24.945C22.3879 24.9462 22.4891 24.9273 22.5837 24.8894C22.6783 24.8515 22.7645 24.7953 22.8374 24.7241C22.9103 24.6529 22.9684 24.568 23.0085 24.4743C23.0486 24.3806 23.0698 24.2799 23.071 24.178C23.0698 24.076 23.0486 23.9752 23.0084 23.8815C22.9683 23.7877 22.91 23.7028 22.837 23.6315C22.764 23.5603 22.6777 23.5042 22.583 23.4663C22.4882 23.4285 22.387 23.4097 22.285 23.411C22.1831 23.4098 22.0819 23.4287 21.9873 23.4666C21.8927 23.5045 21.8065 23.5607 21.7336 23.6319C21.6607 23.7031 21.6026 23.788 21.5625 23.8817C21.5224 23.9754 21.5012 24.0761 21.5 24.178C21.5 24.601 21.852 24.945 22.285 24.945H22.286ZM6.765 21.11C7.308 21.11 7.747 20.68 7.747 20.151C7.747 19.622 7.307 19.193 6.765 19.193C6.223 19.193 5.783 19.623 5.783 20.151C5.783 20.679 6.223 21.11 6.765 21.11ZM16.195 24.945C16.954 24.945 17.57 24.344 17.57 23.602C17.57 22.86 16.954 22.259 16.195 22.259C15.435 22.259 14.82 22.861 14.82 23.602C14.82 24.343 15.435 24.945 16.195 24.945ZM8.73 18.425C9.49 18.425 10.105 17.823 10.105 17.082C10.105 16.341 9.489 15.739 8.73 15.739C7.971 15.739 7.355 16.34 7.355 17.082C7.355 17.824 7.97 18.425 8.73 18.425ZM16.195 21.492C16.737 21.492 17.177 21.063 17.177 20.534C17.177 20.005 16.737 19.576 16.195 19.576C15.652 19.576 15.212 20.005 15.212 20.534C15.212 21.063 15.652 21.492 16.195 21.492ZM11.48 13.056C11.806 13.056 12.07 12.798 12.07 12.48C12.07 12.162 11.806 11.904 11.48 11.904C11.154 11.904 10.89 12.162 10.89 12.48C10.89 12.798 11.154 13.056 11.48 13.056ZM15.212 15.356C15.862 15.356 16.39 14.841 16.39 14.206C16.39 13.57 15.863 13.054 15.212 13.054C14.562 13.054 14.034 13.57 14.034 14.205C14.034 14.841 14.562 15.357 15.212 15.357V15.356ZM17.962 16.506C18.0639 16.5072 18.1651 16.4883 18.2597 16.4504C18.3543 16.4125 18.4405 16.3563 18.5134 16.2851C18.5863 16.2139 18.6444 16.129 18.6845 16.0353C18.7246 15.9416 18.7458 15.8409 18.747 15.739C18.7458 15.6371 18.7246 15.5364 18.6845 15.4427C18.6444 15.349 18.5863 15.2641 18.5134 15.1929C18.4405 15.1217 18.3543 15.0655 18.2597 15.0276C18.1651 14.9897 18.0639 14.9708 17.962 14.972C17.8601 14.9708 17.7589 14.9897 17.6643 15.0276C17.5697 15.0655 17.4835 15.1217 17.4106 15.1929C17.3377 15.2641 17.2796 15.349 17.2395 15.4427C17.1994 15.5364 17.1782 15.6371 17.177 15.739C17.177 16.163 17.528 16.506 17.962 16.506ZM19.337 6.918C19.663 6.918 19.927 6.661 19.927 6.343C19.927 6.025 19.663 5.767 19.337 5.767C19.011 5.767 18.747 6.025 18.747 6.343C18.747 6.661 19.011 6.918 19.337 6.918ZM16.587 6.917C16.7146 6.91872 16.8412 6.89526 16.9597 6.84797C17.0781 6.80068 17.1861 6.73048 17.2774 6.64141C17.3687 6.55233 17.4416 6.44611 17.4918 6.32884C17.542 6.21157 17.5686 6.08556 17.57 5.958C17.5684 5.83053 17.5418 5.70462 17.4915 5.58746C17.4412 5.47031 17.3684 5.36422 17.2771 5.27524C17.1858 5.18627 17.0778 5.11616 16.9594 5.06893C16.841 5.02171 16.7145 4.99828 16.587 5C16.4596 4.99841 16.3332 5.02194 16.2149 5.06922C16.0966 5.11651 15.9888 5.18664 15.8976 5.2756C15.8064 5.36456 15.7336 5.47061 15.6834 5.5877C15.6332 5.70479 15.6066 5.83062 15.605 5.958C15.605 6.488 16.045 6.917 16.587 6.917ZM17.177 13.054C17.611 13.054 17.962 12.711 17.962 12.287C17.962 11.863 17.611 11.52 17.177 11.52C16.743 11.52 16.392 11.864 16.392 12.287C16.392 12.71 16.743 13.054 17.177 13.054ZM9.712 21.494C10.362 21.494 10.89 20.979 10.89 20.343C10.89 19.707 10.363 19.192 9.712 19.192C9.062 19.192 8.534 19.707 8.534 20.342C8.534 20.979 9.062 21.494 9.712 21.494ZM21.105 22.644C21.755 22.644 22.283 22.128 22.283 21.492C22.283 20.857 21.755 20.342 21.105 20.342C20.455 20.342 19.927 20.857 19.927 21.492C19.927 22.128 20.454 22.644 21.105 22.644ZM19.535 25.329C20.185 25.329 20.712 24.813 20.712 24.178C20.712 23.542 20.185 23.026 19.534 23.026C18.883 23.026 18.356 23.542 18.356 24.178C18.356 24.813 18.884 25.328 19.534 25.328L19.535 25.329ZM10.302 25.329C11.062 25.329 11.677 24.728 11.677 23.986C11.677 23.244 11.061 22.644 10.302 22.644C9.542 22.644 8.927 23.244 8.927 23.986C8.927 24.728 9.543 25.329 10.302 25.329ZM6.177 15.357C6.827 15.357 7.355 14.841 7.355 14.205C7.355 13.57 6.827 13.055 6.177 13.055C5.527 13.055 5 13.57 5 14.204C5 14.84 5.527 15.356 6.178 15.356L6.177 15.357ZM12.07 17.273C12.938 17.273 13.642 16.587 13.642 15.739C13.642 14.892 12.938 14.205 12.07 14.205C11.201 14.205 10.497 14.892 10.497 15.739C10.497 16.587 11.201 17.273 12.07 17.273ZM20.32 14.973C21.188 14.973 21.892 14.286 21.892 13.438C21.892 12.591 21.188 11.904 20.32 11.904C19.451 11.904 18.747 12.591 18.747 13.438C18.747 14.286 19.451 14.972 20.32 14.972V14.973ZM24.64 21.494C25.29 21.494 25.818 20.979 25.818 20.343C25.818 19.707 25.291 19.192 24.64 19.192C23.989 19.192 23.462 19.707 23.462 20.342C23.462 20.979 23.99 21.494 24.64 21.494ZM25.82 16.891C26.47 16.891 26.997 16.375 26.997 15.739C26.997 15.104 26.47 14.589 25.82 14.589C25.169 14.589 24.642 15.104 24.642 15.739C24.642 16.375 25.169 16.891 25.82 16.891ZM21.302 11.521C21.844 11.521 22.284 11.091 22.284 10.561C22.284 10.031 21.844 9.603 21.302 9.603C20.759 9.603 20.32 10.033 20.32 10.562C20.32 11.091 20.76 11.52 21.302 11.52V11.521ZM21.497 8.452C21.931 8.452 22.283 8.109 22.283 7.685C22.283 7.261 21.931 6.918 21.497 6.918C21.064 6.918 20.712 7.262 20.712 7.685C20.712 8.108 21.064 8.452 21.497 8.452ZM23.265 9.219C23.591 9.219 23.855 8.961 23.855 8.644C23.855 8.327 23.591 8.068 23.265 8.068C22.939 8.068 22.675 8.326 22.675 8.644C22.675 8.962 22.939 9.219 23.265 9.219ZM26.409 13.823C26.735 13.823 26.999 13.565 26.999 13.247C26.999 12.929 26.735 12.671 26.409 12.671C26.083 12.671 25.819 12.929 25.819 13.247C25.819 13.565 26.084 13.823 26.409 13.823ZM9.516 8.836C9.842 8.836 10.106 8.579 10.106 8.261C10.106 7.943 9.842 7.685 9.516 7.685C9.19 7.685 8.926 7.943 8.926 8.261C8.926 8.579 9.19 8.836 9.516 8.836ZM8.731 13.823C9.057 13.823 9.321 13.565 9.321 13.247C9.321 12.929 9.057 12.671 8.731 12.671C8.405 12.671 8.141 12.929 8.141 13.247C8.141 13.565 8.405 13.823 8.731 13.823ZM10.303 14.59C10.629 14.59 10.893 14.332 10.893 14.014C10.893 13.696 10.629 13.438 10.303 13.438C9.977 13.438 9.713 13.696 9.713 14.014C9.713 14.332 9.977 14.59 10.303 14.59ZM12.266 7.3C12.592 7.3 12.856 7.042 12.856 6.724C12.856 6.406 12.592 6.149 12.266 6.149C11.94 6.149 11.676 6.406 11.676 6.724C11.676 7.042 11.94 7.3 12.266 7.3ZM26.41 18.809C26.736 18.809 27 18.551 27 18.233C27 17.915 26.736 17.658 26.41 17.658C26.084 17.658 25.82 17.915 25.82 18.233C25.82 18.551 26.085 18.809 26.41 18.809ZM24.446 12.671C25.205 12.671 25.821 12.071 25.821 11.329C25.821 10.587 25.205 9.986 24.446 9.986C23.686 9.986 23.071 10.587 23.071 11.329C23.071 12.071 23.686 12.671 24.446 12.671ZM23.266 15.739C23.809 15.739 24.248 15.31 24.248 14.781C24.248 14.252 23.808 13.823 23.266 13.823C22.724 13.823 22.284 14.252 22.284 14.781C22.284 15.31 22.724 15.739 23.266 15.739ZM9.91 11.52C10.453 11.52 10.893 11.091 10.893 10.562C10.893 10.033 10.453 9.603 9.91 9.603C9.368 9.603 8.928 10.033 8.928 10.562C8.928 11.091 9.368 11.52 9.91 11.52ZM14.23 8.835C14.3575 8.83672 14.484 8.81329 14.6024 8.76607C14.7208 8.71884 14.8288 8.64873 14.9201 8.55976C15.0114 8.47079 15.0842 8.36469 15.1345 8.24753C15.1848 8.13038 15.2114 8.00447 15.213 7.877C15.2116 7.74953 15.185 7.62359 15.1349 7.50639C15.0847 7.38919 15.012 7.28302 14.9208 7.19395C14.8296 7.10489 14.7217 7.03467 14.6034 6.98732C14.485 6.93997 14.3585 6.91642 14.231 6.918C14.1034 6.91628 13.9768 6.93974 13.8583 6.98703C13.7399 7.03432 13.6319 7.10452 13.5406 7.19359C13.4493 7.28267 13.3764 7.38889 13.3262 7.50616C13.276 7.62343 13.2494 7.74944 13.248 7.877C13.248 8.406 13.688 8.835 14.231 8.835H14.23ZM11.678 9.219C12.112 9.219 12.463 8.876 12.463 8.452C12.463 8.028 12.112 7.685 11.678 7.685C11.244 7.685 10.893 8.029 10.893 8.452C10.893 8.875 11.244 9.219 11.678 9.219ZM7.356 12.287C7.45791 12.2882 7.55905 12.2693 7.65366 12.2314C7.74826 12.1935 7.83447 12.1373 7.90737 12.0661C7.98026 11.9949 8.03841 11.91 8.0785 11.8163C8.11859 11.7226 8.13982 11.6219 8.141 11.52C8.141 11.097 7.79 10.753 7.356 10.753C6.922 10.753 6.571 11.097 6.571 11.52C6.571 11.944 6.922 12.287 7.356 12.287ZM23.856 18.425C23.9579 18.4262 24.0591 18.4073 24.1537 18.3694C24.2483 18.3315 24.3345 18.2753 24.4074 18.2041C24.4803 18.1329 24.5384 18.048 24.5785 17.9543C24.6186 17.8606 24.6398 17.7599 24.641 17.658C24.6398 17.5561 24.6186 17.4554 24.5785 17.3617C24.5384 17.268 24.4803 17.1831 24.4074 17.1119C24.3345 17.0407 24.2483 16.9845 24.1537 16.9466C24.0591 16.9087 23.9579 16.8898 23.856 16.891C23.7541 16.8898 23.6529 16.9087 23.5583 16.9466C23.4637 16.9845 23.3775 17.0407 23.3046 17.1119C23.2317 17.1831 23.1736 17.268 23.1335 17.3617C23.0934 17.4554 23.0722 17.5561 23.071 17.658C23.071 18.081 23.422 18.425 23.856 18.425ZM15.41 18.809C16.17 18.809 16.785 18.208 16.785 17.466C16.785 16.724 16.17 16.124 15.41 16.124C14.65 16.124 14.035 16.724 14.035 17.466C14.035 18.208 14.651 18.809 15.41 18.809ZM12.856 19.576C12.9579 19.5772 13.0591 19.5583 13.1537 19.5204C13.2483 19.4825 13.3345 19.4263 13.4074 19.3551C13.4803 19.2839 13.5384 19.199 13.5785 19.1053C13.6186 19.0116 13.6398 18.9109 13.641 18.809C13.6398 18.7071 13.6186 18.6064 13.5785 18.5127C13.5384 18.419 13.4803 18.3341 13.4074 18.2629C13.3345 18.1917 13.2483 18.1355 13.1537 18.0976C13.0591 18.0597 12.9579 18.0408 12.856 18.042C12.7541 18.0408 12.6529 18.0597 12.5583 18.0976C12.4637 18.1355 12.3775 18.1917 12.3046 18.2629C12.2317 18.3341 12.1736 18.419 12.1335 18.5127C12.0934 18.6064 12.0722 18.7071 12.071 18.809C12.071 19.232 12.422 19.576 12.856 19.576ZM13.248 22.644C13.899 22.644 14.426 22.128 14.426 21.492C14.426 20.857 13.899 20.342 13.248 20.342C12.597 20.342 12.071 20.857 12.071 21.492C12.071 22.128 12.598 22.644 13.248 22.644ZM13.248 24.944C13.3499 24.9453 13.4511 24.9266 13.5457 24.8888C13.6404 24.851 13.7267 24.7949 13.7997 24.7238C13.8727 24.6527 13.9309 24.5679 13.9711 24.4742C14.0113 24.3806 14.0327 24.2799 14.034 24.178C14.0328 24.076 14.0116 23.9752 13.9714 23.8815C13.9313 23.7877 13.873 23.7028 13.8 23.6315C13.727 23.5603 13.6407 23.5042 13.546 23.4663C13.4512 23.4285 13.35 23.4097 13.248 23.411C13.1461 23.4098 13.0449 23.4287 12.9503 23.4666C12.8557 23.5045 12.7695 23.5607 12.6966 23.6319C12.6237 23.7031 12.5656 23.788 12.5255 23.8817C12.4854 23.9754 12.4642 24.0761 12.463 24.178C12.463 24.601 12.815 24.945 13.248 24.945V24.944Z" fill="black"/>
<path opacity="0.5" d="M12.07 17.273C11.202 17.273 10.498 16.587 10.498 15.739C10.498 14.892 11.202 14.205 12.071 14.205C12.939 14.205 13.643 14.892 13.643 15.739C13.643 16.587 12.939 17.273 12.071 17.273H12.07ZM20.32 14.973C19.452 14.973 18.748 14.286 18.748 13.438C18.748 12.591 19.452 11.904 20.321 11.904C21.189 11.904 21.893 12.591 21.893 13.438C21.893 14.286 21.189 14.972 20.321 14.972L20.32 14.973ZM24.641 21.494C23.991 21.494 23.463 20.979 23.463 20.343C23.463 19.707 23.991 19.192 24.641 19.192C25.291 19.192 25.819 19.707 25.819 20.342C25.819 20.979 25.292 21.494 24.641 21.494ZM25.821 16.891C25.668 16.8927 25.5162 16.8643 25.3742 16.8073C25.2322 16.7503 25.1028 16.666 24.9934 16.559C24.884 16.452 24.7967 16.3245 24.7366 16.1838C24.6765 16.0431 24.6447 15.892 24.643 15.739C24.643 15.104 25.17 14.589 25.821 14.589C26.471 14.589 26.998 15.104 26.998 15.739C26.998 16.375 26.471 16.891 25.821 16.891ZM21.303 11.521C20.76 11.521 20.321 11.091 20.321 10.561C20.321 10.031 20.761 9.60299 21.303 9.60299C21.845 9.60299 22.285 10.033 22.285 10.562C22.285 11.091 21.845 11.52 21.303 11.52V11.521ZM21.498 8.45199C21.065 8.45199 20.713 8.10899 20.713 7.68499C20.713 7.26099 21.065 6.91799 21.498 6.91799C21.932 6.91799 22.284 7.26199 22.284 7.68499C22.284 8.10799 21.932 8.45199 21.498 8.45199ZM23.266 9.21899C22.94 9.21899 22.676 8.96099 22.676 8.64399C22.676 8.32699 22.94 8.06799 23.266 8.06799C23.592 8.06799 23.856 8.32599 23.856 8.64399C23.856 8.96199 23.592 9.21899 23.266 9.21899ZM26.41 13.823C26.085 13.823 25.82 13.565 25.82 13.247C25.82 12.929 26.085 12.671 26.41 12.671C26.735 12.671 27 12.929 27 13.247C27 13.565 26.736 13.823 26.41 13.823ZM9.51598 8.83599C9.18998 8.83599 8.92598 8.57899 8.92598 8.26099C8.92598 7.94299 9.18998 7.68499 9.51598 7.68499C9.84198 7.68499 10.106 7.94299 10.106 8.26099C10.106 8.57899 9.84198 8.83599 9.51598 8.83599ZM8.73098 13.823C8.40498 13.823 8.14098 13.565 8.14098 13.247C8.14098 12.929 8.40498 12.671 8.73098 12.671C9.05698 12.671 9.32098 12.929 9.32098 13.247C9.32098 13.565 9.05698 13.823 8.73098 13.823ZM10.303 14.59C9.97698 14.59 9.71298 14.332 9.71298 14.014C9.71298 13.696 9.97698 13.438 10.303 13.438C10.629 13.438 10.893 13.696 10.893 14.014C10.893 14.332 10.629 14.59 10.303 14.59ZM12.266 7.29999C11.94 7.29999 11.676 7.04199 11.676 6.72399C11.676 6.40599 11.94 6.14899 12.266 6.14899C12.592 6.14899 12.856 6.40599 12.856 6.72399C12.856 7.04199 12.592 7.29999 12.266 7.29999ZM26.41 18.809C26.085 18.809 25.82 18.551 25.82 18.233C25.82 17.915 26.085 17.658 26.41 17.658C26.735 17.658 27 17.915 27 18.233C27 18.551 26.736 18.809 26.41 18.809ZM24.446 12.671C23.686 12.671 23.071 12.071 23.071 11.329C23.071 10.587 23.686 9.98599 24.446 9.98599C25.205 9.98599 25.821 10.587 25.821 11.329C25.821 12.071 25.205 12.671 24.446 12.671ZM23.266 15.739C22.724 15.739 22.284 15.31 22.284 14.781C22.284 14.252 22.724 13.823 23.266 13.823C23.809 13.823 24.248 14.252 24.248 14.781C24.248 15.31 23.808 15.739 23.266 15.739ZM9.90998 11.52C9.36798 11.52 8.92798 11.091 8.92798 10.562C8.92798 10.033 9.36798 9.60299 9.90998 9.60299C10.453 9.60299 10.893 10.033 10.893 10.562C10.893 11.091 10.453 11.52 9.90998 11.52ZM14.23 8.83499C14.1026 8.83657 13.9761 8.81305 13.8579 8.76576C13.7396 8.71847 13.6317 8.64835 13.5406 8.55939C13.4494 8.47043 13.3766 8.36437 13.3264 8.24729C13.2762 8.1302 13.2495 8.00437 13.248 7.87699C13.248 7.34699 13.688 6.91799 14.231 6.91799C14.3585 6.9164 14.485 6.93996 14.6033 6.98731C14.7217 7.03466 14.8296 7.10487 14.9208 7.19394C15.012 7.28301 15.0847 7.38918 15.1349 7.50638C15.185 7.62358 15.2115 7.74952 15.213 7.87699C15.2114 8.00437 15.1848 8.1302 15.1346 8.24729C15.0844 8.36437 15.0116 8.47043 14.9204 8.55939C14.8292 8.64835 14.7214 8.71847 14.6031 8.76576C14.4848 8.81305 14.3584 8.83657 14.231 8.83499H14.23ZM11.678 9.21899C11.244 9.21899 10.893 8.87599 10.893 8.45199C10.893 8.02799 11.244 7.68499 11.678 7.68499C12.112 7.68499 12.463 8.02899 12.463 8.45199C12.463 8.87499 12.112 9.21899 11.678 9.21899ZM7.35598 12.287C7.25408 12.2882 7.15293 12.2693 7.05833 12.2314C6.96372 12.1935 6.87751 12.1373 6.80462 12.0661C6.73172 11.9949 6.67357 11.91 6.63348 11.8163C6.5934 11.7226 6.57216 11.6219 6.57098 11.52C6.57098 11.097 6.92198 10.753 7.35598 10.753C7.78998 10.753 8.14098 11.097 8.14098 11.52C8.13981 11.6219 8.11857 11.7226 8.07848 11.8163C8.0384 11.91 7.98024 11.9949 7.90735 12.0661C7.83445 12.1373 7.74824 12.1935 7.65364 12.2314C7.55904 12.2693 7.45789 12.2882 7.35598 12.287ZM23.856 18.425C23.7541 18.4262 23.6529 18.4073 23.5583 18.3694C23.4637 18.3315 23.3775 18.2753 23.3046 18.2041C23.2317 18.1329 23.1736 18.048 23.1335 17.9543C23.0934 17.8606 23.0722 17.7599 23.071 17.658C23.071 17.234 23.422 16.891 23.856 16.891C24.29 16.891 24.641 17.234 24.641 17.658C24.6398 17.7599 24.6186 17.8606 24.5785 17.9543C24.5384 18.048 24.4802 18.1329 24.4073 18.2041C24.3345 18.2753 24.2482 18.3315 24.1536 18.3694C24.059 18.4073 23.9579 18.4262 23.856 18.425ZM15.41 18.809C14.65 18.809 14.035 18.208 14.035 17.466C14.035 16.724 14.651 16.124 15.41 16.124C16.17 16.124 16.785 16.724 16.785 17.466C16.785 18.208 16.17 18.809 15.41 18.809ZM12.856 19.576C12.7541 19.5772 12.6529 19.5583 12.5583 19.5204C12.4637 19.4825 12.3775 19.4263 12.3046 19.3551C12.2317 19.2839 12.1736 19.199 12.1335 19.1053C12.0934 19.0116 12.0722 18.9109 12.071 18.809C12.071 18.385 12.422 18.042 12.856 18.042C13.29 18.042 13.641 18.385 13.641 18.809C13.6398 18.9109 13.6186 19.0116 13.5785 19.1053C13.5384 19.199 13.4802 19.2839 13.4073 19.3551C13.3345 19.4263 13.2482 19.4825 13.1536 19.5204C13.059 19.5583 12.9579 19.5772 12.856 19.576ZM13.248 22.644C12.598 22.644 12.071 22.128 12.071 21.492C12.071 20.857 12.598 20.342 13.248 20.342C13.898 20.342 14.426 20.857 14.426 21.492C14.426 22.128 13.899 22.644 13.248 22.644ZM13.248 24.944C13.0423 24.9464 12.8442 24.8671 12.697 24.7234C12.5498 24.5798 12.4656 24.3836 12.463 24.178C12.463 23.754 12.815 23.411 13.248 23.411C13.682 23.411 14.034 23.754 14.034 24.178C14.0328 24.28 14.0115 24.3807 13.9714 24.4745C13.9312 24.5683 13.873 24.6532 13.8 24.7244C13.727 24.7957 13.6407 24.8518 13.5459 24.8897C13.4512 24.9275 13.35 24.9463 13.248 24.945V24.944Z" fill="black"/>
</g>
<defs>
<clipPath id="clip0_16_2748">
<rect width="32" height="32" fill="white"/>
</clipPath>
</defs>
</svg>
