<svg width="32" height="32" viewBox="0 0 32 32" fill="none" xmlns="http://www.w3.org/2000/svg">
<g clip-path="url(#clip0_16_2756)">
<path fill-rule="evenodd" clip-rule="evenodd" d="M16 32C7.163 32 0 24.837 0 16C0 7.163 7.163 0 16 0C24.837 0 32 7.163 32 16C32 24.837 24.837 32 16 32ZM24.5 11L16 6L7.5 11V21L16 26L24.5 21V11ZM15.732 16.407L14.701 15.801L14.078 16.169L12.602 15.306L13.23 14.936L9.9 12.977L16.171 9.289L22.088 12.727L20.502 13.665L16.175 11.135L13.044 12.977L14.798 14.009L15.695 13.479L17.171 14.342L16.269 14.875L17.299 15.481L18.035 15.047L19.511 15.909L18.771 16.346L22.444 18.508L16.174 22.195L9.649 18.405L9.676 16.562L16.171 20.349L19.301 18.508L17.203 17.273L16.418 17.736L14.942 16.874L15.732 16.407Z" fill="black"/>
</g>
<defs>
<clipPath id="clip0_16_2756">
<rect width="32" height="32" fill="white"/>
</clipPath>
</defs>
</svg>
