<svg width="32" height="32" viewBox="0 0 32 32" fill="none" xmlns="http://www.w3.org/2000/svg">
<g clip-path="url(#clip0_16_2758)">
<path d="M13.577 22.012L9.86 19.872V25.328L11.75 24.237L15.47 26.377V20.92L13.577 22.012ZM10.227 12.308L10.251 12.322V17.759L14.981 15.034L13.039 13.912L13.051 13.906L15.777 15.478V10.03L16.519 10.457V5L11.781 7.732L15.769 10.025L13.761 11.18L11.039 9.607V12.757V7.319L6.3 10.044L10.22 12.305L5.49 15.034L10.227 17.759V12.309V12.308ZM16 32C7.163 32 0 24.837 0 16C0 7.163 7.163 0 16 0C24.837 0 32 7.163 32 16C32 24.837 24.837 32 16 32ZM16.519 5V10.457L21.257 7.732L16.519 5ZM21.257 7.732V13.189L25.994 10.457L21.257 7.732ZM16.519 10.457V15.914L21.257 13.189L16.519 10.457ZM21.257 13.189V18.646L25.994 15.914L21.257 13.189ZM16.519 15.914V21.371L21.257 18.646L16.519 15.914ZM21.257 18.646V24.103L25.994 21.371L21.257 18.646ZM4.273 10.273V15.73L9.011 12.998L4.273 10.273ZM6.738 15.753V21.21L11.475 18.478L6.738 15.753ZM16.481 22.221V27.678L21.211 24.945L16.481 22.221ZM16.519 15.914L11.789 18.646L16.519 21.371V15.914ZM6.738 17.184L2 19.91L6.738 22.643V17.186V17.184ZM25.994 10.457L21.257 13.189L25.994 15.914V10.457ZM21.257 13.189L16.519 15.914L21.257 18.646V13.19V13.189ZM25.994 15.914L21.257 18.646L25.994 21.371V15.914ZM21.257 18.646L16.519 21.371L21.257 24.103V18.646ZM21.257 7.732L16.519 10.457L21.257 13.189V7.732Z" fill="black"/>
</g>
<defs>
<clipPath id="clip0_16_2758">
<rect width="32" height="32" fill="white"/>
</clipPath>
</defs>
</svg>
