<svg width="32" height="32" viewBox="0 0 32 32" fill="none" xmlns="http://www.w3.org/2000/svg">
<g clip-path="url(#clip0_16_2762)">
<path fill-rule="evenodd" clip-rule="evenodd" d="M16 32C7.163 32 0 24.837 0 16C0 7.163 7.163 0 16 0C24.837 0 32 7.163 32 16C32 24.837 24.837 32 16 32ZM24.248 19.35V12.673C24.5021 12.578 24.7147 12.3965 24.8482 12.1603C24.9817 11.9242 25.0276 11.6485 24.9779 11.3818C24.9282 11.1151 24.7861 10.8744 24.5765 10.7022C24.3669 10.5299 24.1033 10.4371 23.832 10.44C23.5444 10.4385 23.2666 10.5444 23.053 10.737L17.225 7.4C17.2608 7.23086 17.2583 7.05587 17.2177 6.88781C17.1772 6.71976 17.0995 6.5629 16.9905 6.4287C16.8816 6.29451 16.744 6.18637 16.5878 6.11219C16.4316 6.03802 16.2609 5.99969 16.088 6C15.9201 5.99941 15.7541 6.03528 15.6014 6.10512C15.4487 6.17497 15.313 6.27712 15.2037 6.40453C15.0943 6.53194 15.0139 6.68157 14.9681 6.84308C14.9222 7.00459 14.9119 7.17414 14.938 7.34L8.968 10.76C8.79658 10.5978 8.58012 10.4913 8.34705 10.4543C8.11397 10.4174 7.87517 10.4518 7.662 10.553C7.225 10.76 6.964 11.213 7.004 11.691C7.044 12.169 7.379 12.573 7.844 12.704V19.32C7.57411 19.3948 7.34069 19.5653 7.18732 19.7997C7.03395 20.034 6.97111 20.3162 7.01055 20.5934C7.04998 20.8707 7.18899 21.1242 7.40162 21.3064C7.61425 21.4887 7.88595 21.5874 8.166 21.584C8.402 21.584 8.631 21.514 8.824 21.38L11.922 23.152V23.187H11.989L14.929 24.87C14.9371 25.1774 15.0669 25.4691 15.2898 25.6809C15.5127 25.8928 15.8106 26.0075 16.118 26C16.2778 25.9974 16.4353 25.9618 16.5806 25.8954C16.7259 25.829 16.8559 25.7332 16.9624 25.6141C17.0689 25.495 17.1496 25.3552 17.1995 25.2033C17.2493 25.0515 17.2672 24.8911 17.252 24.732L23.282 21.442C23.642 21.638 24.079 21.631 24.432 21.423C24.785 21.215 25.002 20.837 25 20.43C24.998 20.1952 24.9251 19.9665 24.7909 19.7738C24.6568 19.5811 24.4675 19.4334 24.248 19.35ZM20.13 16.745H20.126L20.121 16.718L20.117 16.656L19.978 16.589L19.105 16.069L20.018 15.524L20.162 15.457L20.171 15.111H20.175V9.827L22.708 11.279C22.6793 11.3816 22.6645 11.4875 22.664 11.594C22.664 12.144 23.056 12.618 23.599 12.727V19.297C23.4228 19.3328 23.2573 19.4091 23.1157 19.5199C22.974 19.6306 22.86 19.7728 22.7827 19.9351C22.7054 20.0974 22.6669 20.2755 22.6703 20.4553C22.6736 20.6351 22.7187 20.8116 22.802 20.971L20.13 22.428V16.745ZM16.09 8.309C16.402 8.309 16.7 8.184 16.918 7.962L19.53 9.46V15.067L18.478 15.697L17.058 14.854C17.0799 14.708 17.07 14.559 17.0289 14.4171C16.9879 14.2753 16.9167 14.144 16.8202 14.0322C16.7238 13.9205 16.6043 13.8309 16.47 13.7695C16.3356 13.7082 16.1896 13.6767 16.042 13.677C15.8909 13.6765 15.7415 13.7095 15.6046 13.7735C15.4677 13.8376 15.3466 13.9311 15.2501 14.0474C15.1536 14.1637 15.084 14.2999 15.0463 14.4463C15.0086 14.5926 15.0037 14.7455 15.032 14.894L13.657 15.702L12.57 15.054V9.441L15.22 7.922C15.44 8.168 15.756 8.309 16.088 8.309H16.09ZM16.77 16.731C16.5804 16.5446 16.3263 16.4383 16.0604 16.4342C15.7945 16.4301 15.5373 16.5285 15.342 16.709L14.277 16.074L15.347 15.453C15.5419 15.6304 15.7971 15.7268 16.0606 15.7225C16.3241 15.7183 16.576 15.6136 16.765 15.43L17.853 16.079L16.77 16.731ZM9.242 20.878C9.37 20.575 9.362 20.232 9.218 19.935C9.074 19.638 8.812 19.416 8.494 19.325V12.7C9.094 12.529 9.45 11.915 9.295 11.315L11.923 9.809V15.244H11.927V15.457L12.277 15.635L13.028 16.079L12.196 16.567L11.972 16.7L11.927 16.745L11.923 16.922V22.414L9.242 20.878ZM16.09 23.671C15.8895 23.6703 15.6922 23.7215 15.5173 23.8196C15.3424 23.9178 15.1959 24.0595 15.092 24.231L12.567 22.783V17.069L13.641 16.443L15.033 17.269C15.023 17.329 15.017 17.389 15.015 17.451C15.015 18.015 15.476 18.471 16.045 18.471C16.614 18.471 17.075 18.015 17.075 17.451C17.075 17.4003 17.0703 17.3498 17.061 17.3L18.48 16.447L19.487 17.047V22.783L17.017 24.133C16.9091 23.9892 16.7691 23.8726 16.6081 23.7924C16.4472 23.7122 16.2698 23.6706 16.09 23.671Z" fill="black"/>
</g>
<defs>
<clipPath id="clip0_16_2762">
<rect width="32" height="32" fill="white"/>
</clipPath>
</defs>
</svg>
