<svg width="32" height="32" viewBox="0 0 32 32" fill="none" xmlns="http://www.w3.org/2000/svg">
<g clip-path="url(#clip0_16_2764)">
<path fill-rule="evenodd" clip-rule="evenodd" d="M16 32C7.163 32 0 24.837 0 16C0 7.163 7.163 0 16 0C24.837 0 32 7.163 32 16C32 24.837 24.837 32 16 32ZM16 26C16.648 26 17.284 25.826 17.844 25.495L23.15 22.375C23.7141 22.0381 24.181 21.5606 24.5053 20.9892C24.8296 20.4178 25 19.772 25 19.115V12.885C25.001 12.2279 24.831 11.5819 24.5066 11.0105C24.1823 10.4391 23.7147 9.96191 23.15 9.626L17.844 6.506C17.2888 6.17489 16.6544 6.00005 16.008 6C15.358 6 14.718 6.175 14.156 6.505L8.85 9.626C8.28609 9.96281 7.81919 10.4401 7.49493 11.0114C7.17067 11.5826 7.00014 12.2282 7 12.885V19.115C6.99879 19.7722 7.16873 20.4185 7.49312 20.9901C7.8175 21.5617 8.28514 22.039 8.85 22.375L14.156 25.495C14.716 25.825 15.352 26 16 26ZM12.948 19.571C13.208 19.838 13.56 19.988 13.929 19.989C14.694 19.989 15.314 19.358 15.314 18.579V10.595H16.696V15.291C16.697 16.067 17.316 16.696 18.078 16.698C18.447 16.698 18.801 16.548 19.061 16.282L20.043 17.282C19.7888 17.5451 19.4831 17.7529 19.1451 17.8926C18.807 18.0323 18.4437 18.1009 18.078 18.094C17.592 18.0946 17.1147 17.9648 16.696 17.718V18.57C16.694 20.129 15.453 21.391 13.922 21.393C13.5571 21.3959 13.1954 21.3245 12.859 21.1832C12.5226 21.0419 12.2184 20.8336 11.965 20.571L12.948 19.571Z" fill="black"/>
</g>
<defs>
<clipPath id="clip0_16_2764">
<rect width="32" height="32" fill="white"/>
</clipPath>
</defs>
</svg>
