<svg width="32" height="32" viewBox="0 0 32 32" fill="none" xmlns="http://www.w3.org/2000/svg">
<g clip-path="url(#clip0_16_2768)">
<path fill-rule="evenodd" clip-rule="evenodd" d="M16 32C7.163 32 0 24.837 0 16C0 7.163 7.163 0 16 0C24.837 0 32 7.163 32 16C32 24.837 24.837 32 16 32ZM13.54 16L18.714 10.67L21.979 14.033C22.114 14.1738 22.276 14.2859 22.4555 14.3625C22.6349 14.439 22.8279 14.4785 23.023 14.4785C23.2181 14.4785 23.4111 14.439 23.5905 14.3625C23.77 14.2859 23.932 14.1738 24.067 14.033C24.3447 13.7436 24.4998 13.3581 24.4998 12.957C24.4998 12.5559 24.3447 12.1704 24.067 11.881L19.758 7.441C19.6223 7.30142 19.46 7.19046 19.2807 7.11469C19.1014 7.03893 18.9087 6.99989 18.714 6.99989C18.5193 6.99989 18.3266 7.03893 18.1473 7.11469C17.968 7.19046 17.8057 7.30142 17.67 7.441L11.454 13.847V10.039C11.454 9.199 10.792 8.517 9.977 8.517C9.161 8.517 8.5 9.199 8.5 10.039V21.961C8.5 22.801 9.161 23.483 9.977 23.483C10.788 23.483 11.454 22.797 11.454 21.961V18.153L17.67 24.558C17.8057 24.6976 17.968 24.8085 18.1473 24.8843C18.3266 24.9601 18.5193 24.9991 18.714 24.9991C18.9087 24.9991 19.1014 24.9601 19.2807 24.8843C19.46 24.8085 19.6223 24.6976 19.758 24.558L24.068 20.118C24.3454 19.8287 24.5003 19.4433 24.5003 19.0425C24.5003 18.6417 24.3454 18.2563 24.068 17.967C23.933 17.8258 23.7708 17.7135 23.5912 17.6368C23.4116 17.56 23.2183 17.5204 23.023 17.5204C22.8277 17.5204 22.6344 17.56 22.4548 17.6368C22.2752 17.7135 22.113 17.8258 21.978 17.967L18.714 21.331L13.54 16ZM18.716 14.477C17.9 14.477 17.238 15.159 17.238 16C17.238 16.841 17.9 17.523 18.716 17.523C19.532 17.523 20.194 16.841 20.194 16C20.194 15.159 19.532 14.477 18.716 14.477Z" fill="black"/>
</g>
<defs>
<clipPath id="clip0_16_2768">
<rect width="32" height="32" fill="white"/>
</clipPath>
</defs>
</svg>
