<svg width="32" height="32" viewBox="0 0 32 32" fill="none" xmlns="http://www.w3.org/2000/svg">
<g clip-path="url(#clip0_16_2776)">
<path fill-rule="evenodd" clip-rule="evenodd" d="M16 32C24.8367 32 32 24.8367 32 16C32 7.16333 24.8367 0 16 0C7.16333 0 0 7.16333 0 16C0 24.8367 7.16333 32 16 32ZM5 16C4.99439 18.9174 6.14793 21.7175 8.20686 23.7844C10.2658 25.8512 13.0615 27.0156 15.9788 27.0212C18.8962 27.0268 21.6963 25.8732 23.7632 23.8143C25.8301 21.7554 26.9944 18.9597 27 16.0423V15.958C26.9962 15.1114 26.8952 14.2679 26.699 13.4443C26.6657 13.291 26.6021 13.1458 26.512 13.0173C26.4219 12.8888 26.3071 12.7796 26.1742 12.696C26.0414 12.6125 25.8932 12.5563 25.7384 12.5307C25.5836 12.5051 25.4252 12.5106 25.2725 12.547C25.1198 12.5833 24.976 12.6498 24.8493 12.7424C24.7226 12.8351 24.6157 12.952 24.5348 13.0865C24.4539 13.221 24.4006 13.3702 24.3781 13.5255C24.3556 13.6808 24.3643 13.8391 24.4037 13.991C24.8421 15.8222 24.6707 17.7465 23.9154 19.4713C23.1601 21.1962 21.8624 22.6272 20.2193 23.547C18.5763 24.4668 16.6779 24.825 14.8127 24.5671C12.9475 24.3092 11.2175 23.4494 9.88566 22.1183C8.55383 20.7873 7.69302 19.0577 7.43408 17.1927C7.17513 15.3276 7.53222 13.429 8.45106 11.7855C9.36989 10.1419 10.8002 8.84333 12.5246 8.08708C14.249 7.33083 16.1732 7.15828 18.0047 7.59567C18.3065 7.66125 18.6221 7.60585 18.8835 7.44137C19.145 7.27689 19.3315 7.01644 19.4031 6.71595C19.4746 6.41546 19.4255 6.09889 19.2663 5.83422C19.107 5.56954 18.8503 5.37786 18.5513 5.30033C16.9351 4.9147 15.2526 4.90026 13.63 5.2581C12.0074 5.61593 10.487 6.33674 9.18292 7.3664C7.87884 8.39605 6.825 9.70779 6.10053 11.2031C5.37606 12.6984 4.9998 14.3384 5 16ZM21.5367 7.98133C21.5437 7.97183 21.5515 7.96291 21.56 7.95467L21.5607 7.95533C21.8716 7.64521 22.2875 7.46304 22.7263 7.44486C23.1651 7.42668 23.5947 7.5738 23.9302 7.85714C24.2657 8.14049 24.4826 8.53941 24.5382 8.97503C24.5937 9.41064 24.4837 9.85123 24.23 10.2097C24.1738 10.2905 24.1113 10.3667 24.043 10.4377C23.7551 10.727 23.3748 10.906 22.9683 10.9433H22.9523C22.919 10.9433 22.8857 10.945 22.8527 10.947C22.8193 10.949 22.7863 10.9507 22.7533 10.9507C22.7426 10.9514 22.7319 10.9526 22.7213 10.9543C22.709 10.9566 22.6965 10.958 22.684 10.9583C22.235 10.9961 21.7994 11.1299 21.4067 11.3507C21.014 11.5716 20.6734 11.8743 20.4079 12.2383C20.1425 12.6023 19.9584 13.0192 19.8682 13.4606C19.7779 13.902 19.7837 14.3577 19.885 14.7967C19.886 14.8007 19.8877 14.8047 19.8893 14.8087C19.8917 14.8153 19.8943 14.822 19.8943 14.8293C19.912 14.904 19.931 14.977 19.9543 15.0507C20.0871 15.609 20.1003 16.189 19.993 16.7528C19.8857 17.3165 19.6603 17.8512 19.3317 18.3217C19.1967 18.5201 19.0441 18.706 18.8757 18.877C18.4977 19.2549 18.049 19.5547 17.5552 19.7592C17.0614 19.9637 16.5321 20.069 15.9976 20.0689C15.4631 20.0689 14.9339 19.9636 14.4401 19.759C13.9463 19.5545 13.4976 19.2546 13.1197 18.8767C12.7417 18.4987 12.442 18.05 12.2375 17.5562C12.0329 17.0624 11.9277 16.5331 11.9277 15.9986C11.9278 15.4641 12.0331 14.9348 12.2376 14.4411C12.4422 13.9473 12.742 13.4986 13.12 13.1207C13.142 13.0987 13.166 13.0787 13.1897 13.059C13.2077 13.044 13.226 13.0287 13.2433 13.0123C13.7339 12.5555 14.3303 12.2277 14.9789 12.0584C15.6275 11.8891 16.3081 11.8836 16.9593 12.0423C17.4052 12.1843 17.8772 12.2248 18.3408 12.161C18.8044 12.0971 19.2479 11.9305 19.6388 11.6732C20.0297 11.4159 20.3581 11.0746 20.6002 10.6741C20.8422 10.2736 20.9917 9.82403 21.0377 9.35833L21.0433 9.315C21.0483 9.28703 21.051 9.25873 21.0517 9.23033V9.04333C21.0862 8.65401 21.2508 8.28765 21.519 8.00333C21.5257 7.996 21.5313 7.98867 21.537 7.98133H21.5367Z" fill="black"/>
</g>
<defs>
<clipPath id="clip0_16_2776">
<rect width="32" height="32" fill="white"/>
</clipPath>
</defs>
</svg>
