<svg width="32" height="32" viewBox="0 0 32 32" fill="none" xmlns="http://www.w3.org/2000/svg">
<g clip-path="url(#clip0_16_2780)">
<path d="M16 32C7.163 32 0 24.837 0 16C0 7.163 7.163 0 16 0C24.837 0 32 7.163 32 16C32 24.837 24.837 32 16 32ZM15.76 14.706V10.416H13.772V14.738H12.31V6H9.5V26H12.31V16.867H13.772V20.613H15.761V16.883C16.087 16.904 16.361 16.987 16.576 17.127C16.792 17.267 16.992 17.501 17.176 17.829L20.738 25.179C21.048 25.725 21.459 26 21.969 26H24.5L20.154 17.325C19.864 16.815 19.554 16.421 19.228 16.14C18.8746 15.8435 18.4568 15.6336 18.008 15.527C18.318 15.418 18.602 15.257 18.86 15.044C19.112 14.831 19.339 14.556 19.539 14.218L24.053 6H21.753C21.491 6 21.253 6.073 21.053 6.213C20.8453 6.3654 20.6702 6.55785 20.538 6.779L16.913 13.766C16.75 14.078 16.576 14.306 16.393 14.441C16.2059 14.5774 15.9894 14.6681 15.761 14.706H15.76Z" fill="black"/>
</g>
<defs>
<clipPath id="clip0_16_2780">
<rect width="32" height="32" fill="white"/>
</clipPath>
</defs>
</svg>
