<svg width="32" height="32" viewBox="0 0 32 32" fill="none" xmlns="http://www.w3.org/2000/svg">
<g clip-path="url(#clip0_16_2782)">
<path d="M16 0C24.837 0 32 7.163 32 16C32 24.837 24.837 32 16 32C7.163 32 0 24.837 0 16C0 7.163 7.163 0 16 0ZM22.278 9.402C21.771 9.713 20.813 10.629 20.417 10.907C20.021 11.186 19.007 11.445 17.375 12.38C15.743 13.315 9.34 17.24 9.34 17.24L11.007 17.26L3.577 20.915H4.319L3.25 21.691C3.25 21.691 4.194 21.93 4.986 21.452V21.671C4.986 21.671 13.833 18.341 15.542 19.204L14.5 19.495C14.59 19.495 16.27 19.602 16.27 19.602C16.27 19.602 16.326 20.603 17.34 21.246C18.354 21.883 18.375 22.235 18.375 22.235C18.375 22.235 17.847 22.44 17.847 22.699C17.847 22.699 18.625 22.473 19.347 22.493C20.069 22.513 20.701 22.699 20.701 22.699C20.701 22.699 20.646 22.42 19.944 22.235C19.236 22.042 18.549 21.319 18.208 20.921C18.001 20.672 17.8653 20.3716 17.8153 20.0517C17.7653 19.7318 17.8029 19.4043 17.924 19.104C18.167 18.501 19.014 18.169 20.764 17.307C22.826 16.285 23.299 15.529 23.59 14.939C23.882 14.349 24.313 13.175 24.556 12.624C24.861 11.914 25.236 11.536 25.549 11.311C25.854 11.085 27.25 10.588 27.25 10.588C27.25 10.588 26.187 9.706 25.847 9.448C25.487 9.175 25.056 8.804 24.271 8.711C23.535 8.618 22.785 9.089 22.278 9.401V9.402Z" fill="black"/>
</g>
<defs>
<clipPath id="clip0_16_2782">
<rect width="32" height="32" fill="white"/>
</clipPath>
</defs>
</svg>
