<svg width="32" height="32" viewBox="0 0 32 32" fill="none" xmlns="http://www.w3.org/2000/svg">
<g clip-path="url(#clip0_16_2800)">
<path d="M16 32C7.163 32 0 24.837 0 16C0 7.163 7.163 0 16 0C24.837 0 32 7.163 32 16C32 24.837 24.837 32 16 32ZM14.249 24.958L16.716 22.172C16.758 22.13 16.73 22.061 16.661 22.061H13.944C13.9229 22.0576 13.9034 22.0478 13.888 22.033L11.587 19.443C11.573 19.414 11.559 19.386 11.573 19.359L15.427 12.714C15.441 12.686 15.441 12.658 15.427 12.644L13.833 9.886C13.805 9.845 13.736 9.845 13.708 9.886L8.01 19.721C8.00334 19.7338 7.99986 19.7481 7.99986 19.7625C7.99986 19.7769 8.00334 19.7912 8.01 19.804L12.585 24.972C12.599 24.986 12.613 25 12.641 25H14.193C14.207 24.986 14.235 24.972 14.249 24.958ZM15.939 6.042L14.333 8.8C14.319 8.828 14.319 8.856 14.333 8.87L15.996 11.739L20.405 19.345C20.419 19.372 20.419 19.4 20.391 19.428L18.062 22.047L15.581 24.861C15.539 24.902 15.567 24.972 15.636 24.972H19.351C19.3721 24.9686 19.3916 24.9588 19.407 24.944L23.981 19.776C23.995 19.749 24.009 19.721 23.995 19.693L16.051 6.042C16.037 5.986 15.968 5.986 15.94 6.042H15.939Z" fill="black"/>
</g>
<defs>
<clipPath id="clip0_16_2800">
<rect width="32" height="32" fill="white"/>
</clipPath>
</defs>
</svg>
