<svg width="32" height="32" viewBox="0 0 32 32" fill="none" xmlns="http://www.w3.org/2000/svg">
<g clip-path="url(#clip0_16_2804)">
<path d="M16 32C7.163 32 0 24.837 0 16C0 7.163 7.163 0 16 0C24.837 0 32 7.163 32 16C32 24.837 24.837 32 16 32ZM15.813 6.048V6.05L7.597 10.68C7.54068 10.7108 7.49369 10.7563 7.46096 10.8115C7.42822 10.8668 7.41095 10.9298 7.41095 10.994C7.41095 11.0582 7.42822 11.1212 7.46096 11.1765C7.49369 11.2317 7.54068 11.2772 7.597 11.308L14.753 15.326C15 15.045 15.339 14.856 15.713 14.79V12.592C14.943 12.458 14.359 11.804 14.359 11.016C14.359 10.131 15.095 9.413 16.004 9.413C16.913 9.413 17.649 10.131 17.649 11.016C17.649 11.809 17.059 12.466 16.283 12.594V14.787C16.661 14.851 17.006 15.041 17.256 15.327L24.411 11.293C24.467 11.2619 24.5136 11.2163 24.5462 11.1611C24.5787 11.1059 24.5959 11.0431 24.596 10.979C24.5958 10.9148 24.5784 10.8519 24.5457 10.7967C24.513 10.7415 24.4662 10.696 24.41 10.665L16.185 6.047C16.1282 6.01521 16.0641 5.99851 15.999 5.99851C15.9339 5.99851 15.8698 6.01521 15.813 6.047V6.048ZM24.433 11.867L24.435 11.866L17.527 15.76C17.682 16.125 17.691 16.534 17.553 16.905L19.503 17.998C19.763 17.628 20.17 17.383 20.624 17.321C21.524 17.197 22.356 17.808 22.483 18.684C22.61 19.56 21.983 20.372 21.083 20.496C20.183 20.619 19.351 20.009 19.225 19.132C19.1946 18.9223 19.2071 18.7086 19.262 18.504L17.272 17.389C17.022 17.683 16.672 17.879 16.285 17.944L16.292 25.637C16.292 25.917 16.602 26.091 16.849 25.951L24.814 21.461C24.8702 21.43 24.917 21.3845 24.9497 21.3293C24.9824 21.2741 24.9998 21.2112 25 21.147L24.992 12.18C24.9917 12.1157 24.9742 12.0527 24.9413 11.9975C24.9084 11.9423 24.8614 11.8969 24.805 11.866C24.7483 11.8342 24.6845 11.8175 24.6195 11.8175C24.5545 11.8175 24.4907 11.8342 24.434 11.866L24.433 11.867ZM7.008 12.18L7 21.146C7 21.276 7.07 21.396 7.186 21.46L15.152 25.95C15.399 26.09 15.71 25.916 15.71 25.637L15.716 17.942C15.3357 17.8769 14.9901 17.681 14.739 17.388L12.749 18.503C12.805 18.708 12.817 18.923 12.787 19.132C12.66 20.008 11.827 20.619 10.928 20.495C10.029 20.371 9.402 19.56 9.528 18.684C9.656 17.808 10.488 17.197 11.388 17.321C11.842 17.383 12.248 17.629 12.509 17.998L14.458 16.906C14.32 16.536 14.328 16.129 14.481 15.765L7.566 11.867C7.50941 11.8344 7.4453 11.8172 7.38 11.817C7.28257 11.8159 7.18869 11.8535 7.11896 11.9216C7.04922 11.9896 7.00932 12.0826 7.008 12.18Z" fill="black"/>
</g>
<defs>
<clipPath id="clip0_16_2804">
<rect width="32" height="32" fill="white"/>
</clipPath>
</defs>
</svg>
