<svg width="32" height="32" viewBox="0 0 32 32" fill="none" xmlns="http://www.w3.org/2000/svg">
<g clip-path="url(#clip0_16_2817)">
<path fill-rule="evenodd" clip-rule="evenodd" d="M16 32C7.163 32 0 24.837 0 16C0 7.163 7.163 0 16 0C24.837 0 32 7.163 32 16C32 24.837 24.837 32 16 32ZM15.532 7.064C15.246 7.142 14.99 7.293 14.736 7.437C12.49 8.717 10.231 9.972 7.976 11.235C7.67831 11.3987 7.43148 11.6412 7.26265 11.936C7.09382 12.2308 7.00952 12.5664 7.019 12.906C7.016 16.152 7.04 19.398 7.002 22.643C6.98 22.84 7.163 23.013 7.362 22.995C8.352 22.997 9.342 23.004 10.332 22.992C10.567 22.996 10.687 22.75 10.664 22.548C10.687 19.878 10.679 17.209 10.684 14.54C10.691 14.252 10.751 13.94 10.976 13.735C11.322 13.419 11.755 13.221 12.158 12.989C12.561 12.779 12.942 12.525 13.368 12.359C13.563 12.289 13.823 12.233 13.986 12.4C14.156 12.591 14.152 12.862 14.166 13.1C14.18 14.46 14.163 15.82 14.166 17.178C14.178 17.416 14.171 17.678 14.312 17.885C14.468 18.094 14.756 18.108 14.996 18.134C15.562 18.162 16.13 18.141 16.698 18.147C17.012 18.142 17.373 18.138 17.612 17.904C17.846 17.666 17.836 17.31 17.837 17.004C17.8062 15.7108 17.8095 14.417 17.847 13.124C17.869 12.864 17.867 12.559 18.072 12.366C18.257 12.216 18.512 12.301 18.708 12.379C19.226 12.609 19.697 12.925 20.197 13.187C20.502 13.355 20.843 13.5 21.059 13.783C21.272 14.05 21.335 14.398 21.336 14.728C21.309 17.365 21.274 20.003 21.366 22.638C21.344 22.851 21.546 23.028 21.756 22.996C22.716 22.997 23.678 23.001 24.639 22.995C24.883 23.017 25.029 22.772 24.995 22.557C24.991 19.462 24.998 16.367 25 13.273C25.012 12.339 24.458 11.434 23.625 10.993C21.461 9.79795 19.3063 8.58624 17.161 7.358C16.681 7.068 16.089 6.901 15.532 7.064Z" fill="black"/>
</g>
<defs>
<clipPath id="clip0_16_2817">
<rect width="32" height="32" fill="white"/>
</clipPath>
</defs>
</svg>
