<svg width="32" height="32" viewBox="0 0 32 32" fill="none" xmlns="http://www.w3.org/2000/svg">
<g clip-path="url(#clip0_16_2819)">
<path fill-rule="evenodd" clip-rule="evenodd" d="M16 32C7.163 32 0 24.837 0 16C0 7.163 7.163 0 16 0C24.837 0 32 7.163 32 16C32 24.837 24.837 32 16 32ZM15.98 5.018H15.914L6.5 10.501V21.501L15.914 26.981L15.991 27L25.5 21.5V10.501L15.98 5.018ZM15.949 6.156L16.98 6.728L24.5 11.078V20.923L16.98 25.248L15.948 25.845L7.5 20.925V11.076L15.949 6.156ZM8.809 16.766L12.219 22.726H13.581L15.193 21.216V20.46L13.521 18.848V16.308L11.311 14.895L8.809 16.767V16.766ZM16.712 21.218L18.322 22.709H19.666L23.059 16.767L20.563 14.878L18.376 16.308V18.848L16.709 20.458L16.712 21.218ZM14.342 16.308L14.092 18.698L15.937 18.694L17.804 18.69L17.568 16.308L18.366 14.177H13.528L14.341 16.308H14.342ZM15.937 13.593L20.559 13.596L19.658 9.771H12.194L11.339 13.591L15.937 13.593Z" fill="black"/>
</g>
<defs>
<clipPath id="clip0_16_2819">
<rect width="32" height="32" fill="white"/>
</clipPath>
</defs>
</svg>
