<svg width="32" height="32" viewBox="0 0 32 32" fill="none" xmlns="http://www.w3.org/2000/svg">
<g clip-path="url(#clip0_16_2821)">
<path d="M16 32C7.163 32 0 24.837 0 16C0 7.163 7.163 0 16 0C24.837 0 32 7.163 32 16C32 24.837 24.837 32 16 32ZM20.663 7.992C19.419 6.636 17.879 6 16.013 6C14.122 6 12.581 6.636 11.338 7.936C10.095 9.21 9.5 10.841 9.5 12.805C9.5 14.741 10.122 16.374 11.365 17.674C12.338 18.697 13.5 19.306 14.825 19.527V20.689H12.095V21.934H14.851V22.598H12.095V23.759H14.825V26H17.175V23.76H19.932V22.598H17.148V21.934H19.932V20.689H17.176V19.555C18.527 19.333 19.689 18.725 20.662 17.701C21.879 16.401 22.5 14.769 22.5 12.833C22.5 10.923 21.879 9.292 20.663 7.992ZM18.122 15.378C17.608 16.042 16.879 16.374 16.014 16.374C15.176 16.374 14.474 16.042 13.933 15.378C13.392 14.714 13.121 13.856 13.121 12.778C13.121 11.726 13.391 10.896 13.933 10.233C14.473 9.569 15.176 9.237 16.013 9.237C16.825 9.237 17.527 9.569 18.068 10.26C18.635 10.924 18.906 11.782 18.906 12.805C18.906 13.856 18.636 14.714 18.122 15.378Z" fill="black"/>
</g>
<defs>
<clipPath id="clip0_16_2821">
<rect width="32" height="32" fill="white"/>
</clipPath>
</defs>
</svg>
