<svg width="32" height="32" viewBox="0 0 32 32" fill="none" xmlns="http://www.w3.org/2000/svg">
<g clip-path="url(#clip0_16_2827)">
<path d="M16 32C7.163 32 0 24.837 0 16C0 7.163 7.163 0 16 0C24.837 0 32 7.163 32 16C32 24.837 24.837 32 16 32ZM9.916 21.379C10.343 19.452 10.77 17.479 11.198 15.556C11.31 15.107 11.422 14.602 11.534 14.041C11.59 14.266 11.59 14.322 11.646 14.434C12.6619 17.752 13.6993 21.0634 14.758 24.368L9.916 21.38V21.379ZM17.15 24.427L17.2 24.251C18.266 20.998 19.276 17.744 20.341 14.491C20.398 14.378 20.454 14.21 20.51 14.041C20.566 14.21 20.622 14.266 20.622 14.378C21.096 16.696 21.62 18.965 22.147 21.231L17.15 24.427ZM22.766 22.358C22.8551 22.3754 22.9472 22.3706 23.034 22.344C23.427 22.232 23.595 21.895 23.483 21.39C22.978 19.259 22.529 17.07 22.024 14.939C21.744 13.817 21.52 12.639 21.239 11.517C21.2227 11.4278 21.1871 11.3432 21.1345 11.2692C21.082 11.1953 21.0139 11.1338 20.935 11.089L20.959 11.069L16.471 4.337C16.471 4.337 16.078 3.832 15.461 4.337L10.861 11.237L10.926 11.27C10.8419 11.3962 10.7818 11.5369 10.749 11.685C10.693 12.135 10.58 12.583 10.469 13.032C9.851 15.837 9.178 18.642 8.561 21.446C8.505 21.783 8.561 22.063 8.841 22.232C8.94901 22.3034 9.07554 22.3416 9.205 22.342L15.351 26.208C15.474 26.486 15.68 26.608 15.966 26.608C16.186 26.608 16.358 26.535 16.482 26.375L22.766 22.358ZM19.923 11.788C19.8959 11.8851 19.8673 11.9818 19.837 12.078C18.827 15.22 17.817 18.418 16.807 21.558C16.583 22.344 16.302 23.073 16.078 23.858H15.91C14.681 19.838 13.397 15.762 12.113 11.742L15.966 5.907L19.923 11.789V11.788Z" fill="black"/>
</g>
<defs>
<clipPath id="clip0_16_2827">
<rect width="32" height="32" fill="white"/>
</clipPath>
</defs>
</svg>
