<svg width="32" height="32" viewBox="0 0 32 32" fill="none" xmlns="http://www.w3.org/2000/svg">
<g clip-path="url(#clip0_16_2831)">
<path fill-rule="evenodd" clip-rule="evenodd" d="M16 32C7.163 32 0 24.837 0 16C0 7.163 7.163 0 16 0C24.837 0 32 7.163 32 16C32 24.837 24.837 32 16 32ZM22.257 6.77C22.257 6.068 21.687 5.5 20.983 5.5C20.279 5.5 19.709 6.068 19.709 6.77C19.709 7.471 20.279 8.04 20.983 8.04C21.687 8.04 22.257 7.471 22.257 6.77ZM21.339 11.194C21.935 11.194 22.418 10.712 22.418 10.118C22.418 9.524 21.935 9.043 21.338 9.043C21.192 9.03535 21.0459 9.05752 20.9088 9.10815C20.7716 9.15878 20.6462 9.23681 20.5401 9.33749C20.4341 9.43816 20.3497 9.55938 20.292 9.69374C20.2343 9.82811 20.2046 9.97281 20.2047 10.119C20.2047 10.2652 20.2346 10.4099 20.2924 10.5442C20.3502 10.6785 20.4347 10.7997 20.5408 10.9003C20.647 11.0008 20.7725 11.0787 20.9097 11.1292C21.0469 11.1798 21.193 11.2018 21.339 11.194ZM21.004 13.847C21.1237 13.8473 21.2422 13.8239 21.3529 13.7783C21.4635 13.7327 21.564 13.6657 21.6488 13.5812C21.7335 13.4966 21.8007 13.3962 21.8465 13.2857C21.8924 13.1752 21.916 13.0567 21.916 12.937C21.9159 12.8174 21.8922 12.699 21.8463 12.5886C21.8003 12.4782 21.7331 12.3779 21.6484 12.2935C21.5637 12.2091 21.4632 12.1422 21.3526 12.0966C21.2421 12.051 21.1236 12.0277 21.004 12.028C20.8843 12.0277 20.7658 12.0511 20.6551 12.0967C20.5445 12.1423 20.444 12.2093 20.3592 12.2938C20.2745 12.3784 20.2073 12.4788 20.1615 12.5893C20.1156 12.6998 20.092 12.8183 20.092 12.938C20.0921 13.0576 20.1158 13.176 20.1617 13.2864C20.2077 13.3968 20.2749 13.4971 20.3596 13.5815C20.4443 13.6659 20.5448 13.7328 20.6554 13.7784C20.7659 13.824 20.8844 13.8473 21.004 13.847ZM20.95 15.219C20.95 15.0121 20.8678 14.8137 20.7215 14.6675C20.5753 14.5212 20.3769 14.439 20.17 14.439C19.9631 14.439 19.7647 14.5212 19.6185 14.6675C19.4722 14.8137 19.39 15.0121 19.39 15.219C19.39 15.4259 19.4722 15.6243 19.6185 15.7705C19.7647 15.9168 19.9631 15.999 20.17 15.999C20.3769 15.999 20.5753 15.9168 20.7215 15.7705C20.8678 15.6243 20.95 15.4259 20.95 15.219ZM19.716 16.943C19.7157 16.7657 19.645 16.5958 19.5195 16.4706C19.3939 16.3454 19.2238 16.2752 19.0465 16.2755C18.8692 16.2758 18.6993 16.3465 18.5741 16.472C18.4489 16.5976 18.3787 16.7677 18.379 16.945C18.3793 17.1223 18.45 17.2922 18.5755 17.4174C18.7011 17.5426 18.8712 17.6128 19.0485 17.6125C19.2258 17.6122 19.3957 17.5415 19.5209 17.416C19.6461 17.2904 19.7163 17.1203 19.716 16.943ZM18.366 18.166C18.3691 18.0887 18.3565 18.0115 18.329 17.9392C18.3015 17.8668 18.2597 17.8008 18.206 17.745C18.1523 17.6893 18.088 17.6449 18.0167 17.6147C17.9455 17.5845 17.8689 17.5689 17.7915 17.5691C17.7141 17.5692 17.6375 17.585 17.5664 17.6155C17.4952 17.646 17.431 17.6905 17.3775 17.7465C17.324 17.8024 17.2824 17.8686 17.2552 17.941C17.2279 18.0135 17.2156 18.0907 17.219 18.168C17.2254 18.316 17.2888 18.4557 17.3959 18.558C17.5029 18.6603 17.6454 18.7173 17.7935 18.7171C17.9415 18.7168 18.0838 18.6593 18.1905 18.5566C18.2972 18.4539 18.3601 18.314 18.366 18.166ZM25.24 10.757C25.3051 10.4772 25.2564 10.183 25.1046 9.9391C24.9528 9.69521 24.7103 9.52161 24.4305 9.4565C24.1507 9.39139 23.8565 9.4401 23.6126 9.59191C23.3687 9.74372 23.1951 9.9862 23.13 10.266C23.0771 10.5412 23.1328 10.8262 23.2855 11.0612C23.4382 11.2962 23.6759 11.4629 23.9488 11.5264C24.2218 11.5899 24.5087 11.5453 24.7494 11.4018C24.9901 11.2584 25.166 11.0273 25.24 10.757ZM24.722 13.56C24.7494 13.4427 24.7534 13.3212 24.7338 13.2024C24.7142 13.0836 24.6714 12.9698 24.6079 12.8675C24.5443 12.7652 24.4612 12.6764 24.3634 12.6063C24.2655 12.5361 24.1548 12.4859 24.0375 12.4585C23.9202 12.4311 23.7987 12.4271 23.6799 12.4467C23.5611 12.4663 23.4473 12.5091 23.345 12.5726C23.2427 12.6362 23.1539 12.7193 23.0838 12.8171C23.0136 12.915 22.9634 13.0257 22.936 13.143C22.8807 13.3798 22.9218 13.6289 23.0501 13.8355C23.1785 14.0421 23.3837 14.1892 23.6205 14.2445C23.8573 14.2998 24.1064 14.2587 24.313 14.1304C24.5196 14.002 24.6667 13.7968 24.722 13.56ZM23.758 15.797C23.7956 15.6002 23.7557 15.3965 23.6465 15.2285C23.5374 15.0605 23.3675 14.9412 23.1725 14.8956C22.9774 14.85 22.7722 14.8816 22.5999 14.9839C22.4276 15.0861 22.3015 15.2509 22.248 15.444C22.2012 15.6442 22.2358 15.8549 22.3443 16.0296C22.4528 16.2043 22.6263 16.3287 22.8265 16.3755C23.0267 16.4223 23.2374 16.3877 23.4121 16.2792C23.5868 16.1707 23.7112 15.9972 23.758 15.797ZM22.516 17.5C22.5357 17.4154 22.5385 17.3278 22.5243 17.2421C22.5101 17.1564 22.4791 17.0744 22.4331 17.0008C22.3871 16.9271 22.327 16.8632 22.2563 16.8128C22.1856 16.7624 22.1056 16.7264 22.021 16.707C21.8936 16.6775 21.7604 16.6865 21.6381 16.7328C21.5158 16.779 21.41 16.8605 21.3341 16.9669C21.2581 17.0733 21.2154 17.1998 21.2113 17.3305C21.2073 17.4612 21.2421 17.5901 21.3113 17.701C21.3805 17.8119 21.4811 17.8998 21.6002 17.9535C21.7194 18.0073 21.8518 18.0245 21.9808 18.003C22.1097 17.9815 22.2294 17.9222 22.3247 17.8327C22.42 17.7431 22.4865 17.6274 22.516 17.5ZM21.159 18.689C21.1935 18.5421 21.1682 18.3875 21.0887 18.2592C21.0091 18.1309 20.8819 18.0395 20.735 18.005C20.5881 17.9705 20.4335 17.9958 20.3052 18.0753C20.1769 18.1549 20.0855 18.2821 20.051 18.429C20.0339 18.5018 20.0314 18.5772 20.0434 18.6509C20.0555 18.7246 20.082 18.7953 20.1213 18.8588C20.1607 18.9223 20.2122 18.9775 20.2729 19.0211C20.3336 19.0647 20.4022 19.0959 20.475 19.113C20.6219 19.1475 20.7765 19.1222 20.9048 19.0427C20.9683 19.0033 21.0235 18.9518 21.0671 18.8911C21.1107 18.8304 21.1419 18.7618 21.159 18.689ZM19.804 19.44C19.8215 19.3766 19.826 19.3102 19.8173 19.245C19.8085 19.1798 19.7866 19.117 19.753 19.0605C19.7193 19.0039 19.6746 18.9548 19.6214 18.916C19.5683 18.8771 19.5078 18.8495 19.4437 18.8346C19.3796 18.8198 19.3132 18.8181 19.2484 18.8296C19.1836 18.8411 19.1218 18.8655 19.0667 18.9015C19.0116 18.9375 18.9643 18.9843 18.9278 19.039C18.8912 19.0938 18.8661 19.1553 18.854 19.22C18.8308 19.3437 18.8562 19.4716 18.9251 19.577C18.994 19.6824 19.1009 19.7571 19.2235 19.7855C19.3462 19.8139 19.475 19.7938 19.5832 19.7294C19.6914 19.665 19.7705 19.5613 19.804 19.44ZM26.908 14.584C26.9609 14.4752 26.9917 14.357 26.9987 14.2362C27.0058 14.1155 26.9889 13.9945 26.949 13.8803C26.9091 13.7661 26.8471 13.6609 26.7664 13.5707C26.6858 13.4806 26.5881 13.4073 26.479 13.355C26.2591 13.2488 26.006 13.2342 25.7753 13.3142C25.5446 13.3942 25.355 13.5625 25.248 13.782C25.195 13.8907 25.164 14.0089 25.1568 14.1296C25.1496 14.2504 25.1664 14.3713 25.2062 14.4856C25.246 14.5998 25.308 14.7051 25.3886 14.7952C25.4692 14.8854 25.5669 14.9587 25.676 15.011C25.896 15.1175 26.1493 15.1323 26.3803 15.0523C26.6113 14.9722 26.801 14.8038 26.908 14.584ZM25.947 16.799C25.992 16.7065 26.0183 16.606 26.0243 16.5033C26.0303 16.4006 26.0159 16.2977 25.982 16.2005C25.9481 16.1034 25.8953 16.0139 25.8266 15.9373C25.758 15.8607 25.6748 15.7984 25.582 15.754C25.3946 15.6643 25.1794 15.6522 24.9831 15.7203C24.7868 15.7885 24.6254 15.9314 24.534 16.118C24.4541 16.3039 24.449 16.5135 24.5199 16.703C24.5908 16.8925 24.7321 17.0474 24.9144 17.1352C25.0966 17.2231 25.3058 17.2371 25.4982 17.1745C25.6906 17.1118 25.8514 16.9773 25.947 16.799ZM24.739 18.479C24.8081 18.3185 24.8126 18.1375 24.7515 17.9738C24.6904 17.81 24.5684 17.6762 24.4111 17.6002C24.2537 17.5243 24.0731 17.512 23.9068 17.566C23.7406 17.62 23.6017 17.736 23.519 17.89C23.4801 17.9699 23.4573 18.0566 23.452 18.1453C23.4467 18.234 23.459 18.3229 23.4882 18.4068C23.5174 18.4907 23.5629 18.5681 23.622 18.6343C23.6812 18.7006 23.7529 18.7545 23.833 18.793C23.9947 18.871 24.1808 18.8819 24.3505 18.8233C24.5203 18.7646 24.6599 18.6412 24.739 18.48V18.479ZM23.393 19.667C23.4266 19.5976 23.4461 19.5223 23.4506 19.4453C23.455 19.3683 23.4442 19.2913 23.4189 19.2185C23.3935 19.1457 23.3541 19.0786 23.3028 19.021C23.2515 18.9634 23.1894 18.9165 23.12 18.883C23.0506 18.8494 22.9753 18.8298 22.8983 18.8253C22.8213 18.8208 22.7442 18.8315 22.6713 18.8568C22.5985 18.8821 22.5313 18.9215 22.4737 18.9727C22.4161 19.024 22.3691 19.0861 22.3355 19.1555C22.3019 19.2249 22.2823 19.3002 22.2778 19.3772C22.2733 19.4542 22.284 19.5313 22.3093 19.6042C22.3346 19.677 22.374 19.7442 22.4252 19.8018C22.4765 19.8594 22.5386 19.9064 22.608 19.94C22.7484 20.0073 22.9097 20.0163 23.0567 19.9652C23.2038 19.914 23.3246 19.8069 23.393 19.667ZM22.038 20.399C22.0842 20.2808 22.0841 20.1495 22.0377 20.0313C21.9913 19.9132 21.902 19.8169 21.7877 19.7617C21.6734 19.7065 21.5425 19.6965 21.4211 19.7336C21.2998 19.7708 21.1969 19.8523 21.133 19.962C21.082 20.081 21.0788 20.2151 21.1242 20.3364C21.1696 20.4577 21.26 20.5568 21.3766 20.6131C21.4932 20.6694 21.627 20.6786 21.7502 20.6387C21.8734 20.5988 21.9765 20.513 22.038 20.399ZM20.765 20.768C20.7893 20.7177 20.8035 20.6631 20.8067 20.6073C20.81 20.5516 20.8022 20.4957 20.7838 20.4429C20.7654 20.3902 20.7368 20.3416 20.6996 20.2999C20.6624 20.2582 20.6173 20.2243 20.567 20.2C20.5167 20.1756 20.4621 20.1613 20.4063 20.158C20.3505 20.1547 20.2945 20.1624 20.2417 20.1807C20.1889 20.1989 20.1401 20.2275 20.0983 20.2646C20.0565 20.3017 20.0224 20.3467 19.998 20.397C19.9736 20.4473 19.9593 20.5019 19.956 20.5577C19.9527 20.6135 19.9604 20.6695 19.9787 20.7223C19.997 20.7751 20.0255 20.8239 20.0626 20.8657C20.0997 20.9075 20.1447 20.9416 20.195 20.966C20.2969 21.015 20.414 21.0216 20.5208 20.9845C20.6276 20.9474 20.7154 20.8696 20.765 20.768ZM21.801 25.624C22.411 25.974 23.191 25.766 23.541 25.158C23.6244 25.0135 23.6784 24.8539 23.7 24.6885C23.7217 24.523 23.7104 24.3549 23.6669 24.1939C23.6234 24.0328 23.5486 23.8818 23.4467 23.7497C23.3448 23.6176 23.2178 23.5069 23.073 23.424C22.7803 23.2559 22.4329 23.2106 22.1068 23.2979C21.7808 23.3853 21.5026 23.5981 21.333 23.89C21.2495 24.0345 21.1953 24.194 21.1736 24.3595C21.152 24.525 21.1632 24.6931 21.2067 24.8542C21.2502 25.0154 21.3251 25.1663 21.427 25.2984C21.529 25.4305 21.6561 25.5412 21.801 25.624ZM18.811 24.092C19.0588 24.2345 19.353 24.273 19.6291 24.1989C19.9052 24.1249 20.1407 23.9444 20.284 23.697C20.3545 23.5746 20.4003 23.4396 20.4185 23.2995C20.4368 23.1595 20.4273 23.0172 20.3905 22.8809C20.3537 22.7445 20.2904 22.6167 20.2042 22.5049C20.1179 22.393 20.0105 22.2993 19.888 22.229C19.6401 22.0868 19.346 22.0485 19.07 22.1225C18.7939 22.1965 18.5584 22.3768 18.415 22.624C18.3442 22.7463 18.2983 22.8814 18.2799 23.0215C18.2614 23.1616 18.2709 23.3039 18.3077 23.4404C18.3445 23.5768 18.4079 23.7046 18.4943 23.8164C18.5807 23.9283 18.6883 24.0219 18.811 24.092ZM16.609 22.252C16.8187 22.3726 17.0677 22.4051 17.3013 22.3423C17.5349 22.2795 17.7341 22.1265 17.855 21.917C17.9147 21.8136 17.9535 21.6994 17.969 21.581C17.9845 21.4625 17.9764 21.3422 17.9453 21.2269C17.9142 21.1116 17.8606 21.0036 17.7876 20.909C17.7146 20.8145 17.6237 20.7353 17.52 20.676C17.3105 20.5555 17.0618 20.5228 16.8282 20.5853C16.5947 20.6477 16.3955 20.8 16.274 21.009C16.2141 21.1125 16.1752 21.2269 16.1596 21.3455C16.144 21.4641 16.152 21.5846 16.1831 21.7001C16.2143 21.8156 16.2679 21.9239 16.341 22.0186C16.4141 22.1133 16.5052 22.1926 16.609 22.252ZM15.108 20.278C15.287 20.381 15.4995 20.4088 15.6989 20.3554C15.8984 20.302 16.0685 20.1717 16.172 19.993C16.2232 19.9047 16.2564 19.8071 16.2698 19.7059C16.2832 19.6047 16.2765 19.5019 16.25 19.4033C16.2235 19.3047 16.1778 19.2123 16.1155 19.1314C16.0532 19.0506 15.9756 18.9828 15.887 18.932C15.7986 18.8808 15.701 18.8476 15.5998 18.8342C15.4986 18.8207 15.3957 18.8274 15.297 18.8537C15.1984 18.88 15.1059 18.9255 15.0248 18.9876C14.9437 19.0497 14.8757 19.1271 14.8245 19.2155C14.7733 19.3039 14.7401 19.4015 14.7267 19.5027C14.7132 19.6039 14.7199 19.7068 14.7462 19.8055C14.7725 19.9041 14.818 19.9966 14.8801 20.0777C14.9422 20.1588 15.0196 20.2269 15.108 20.278ZM14.225 18.352C14.379 18.4407 14.5619 18.4646 14.7334 18.4185C14.905 18.3724 15.0513 18.26 15.14 18.106C15.1837 18.0301 15.212 17.9464 15.2232 17.8595C15.2345 17.7727 15.2285 17.6845 15.2057 17.6C15.1828 17.5155 15.1436 17.4363 15.0901 17.367C15.0366 17.2976 14.97 17.2395 14.894 17.196C14.7401 17.1075 14.5574 17.0836 14.3859 17.1295C14.2144 17.1754 14.0681 17.2874 13.979 17.441C13.9352 17.5169 13.9068 17.6008 13.8954 17.6877C13.8841 17.7746 13.89 17.8629 13.9128 17.9476C13.9357 18.0322 13.975 18.1115 14.0286 18.1809C14.0822 18.2503 14.1489 18.3085 14.225 18.352ZM13.836 16.575C13.9012 16.6127 13.9732 16.6372 14.0478 16.647C14.1225 16.6569 14.1984 16.652 14.2711 16.6325C14.3439 16.6131 14.4121 16.5795 14.4719 16.5337C14.5316 16.4878 14.5818 16.4307 14.6195 16.3655C14.6572 16.3003 14.6817 16.2283 14.6915 16.1537C14.7014 16.079 14.6965 16.0031 14.677 15.9304C14.6576 15.8576 14.624 15.7894 14.5782 15.7296C14.5323 15.6699 14.4752 15.6197 14.41 15.582C14.278 15.5061 14.1213 15.4856 13.9742 15.525C13.8271 15.5643 13.7015 15.6603 13.625 15.792C13.5873 15.8572 13.5628 15.9293 13.5529 16.004C13.5431 16.0787 13.5482 16.1546 13.5678 16.2274C13.5874 16.3001 13.6212 16.3683 13.6672 16.4279C13.7132 16.4876 13.7706 16.5376 13.836 16.575ZM17.586 26.501C18.184 26.501 18.669 26.018 18.669 25.421C18.669 24.825 18.184 24.342 17.586 24.342C17.4415 24.3376 17.2975 24.3623 17.1627 24.4145C17.0279 24.4668 16.905 24.5456 16.8012 24.6463C16.6974 24.747 16.6149 24.8675 16.5585 25.0006C16.5022 25.1338 16.4731 25.2769 16.4731 25.4215C16.4731 25.5661 16.5022 25.7092 16.5585 25.8424C16.6149 25.9755 16.6974 26.096 16.8012 26.1967C16.905 26.2974 17.0279 26.3762 17.1627 26.4285C17.2975 26.4807 17.4415 26.5054 17.586 26.501ZM14.668 24.363C14.8458 24.5285 15.0819 24.617 15.3247 24.6091C15.5675 24.6013 15.7973 24.4977 15.964 24.321C16.0462 24.2335 16.1103 24.1306 16.1527 24.0182C16.1951 23.9059 16.2149 23.7863 16.211 23.6663C16.2071 23.5463 16.1796 23.4282 16.13 23.3189C16.0804 23.2095 16.0097 23.111 15.922 23.029C15.7441 22.8632 15.5079 22.7745 15.2648 22.7824C15.0218 22.7902 14.7918 22.894 14.625 23.071C14.5427 23.1585 14.4786 23.2614 14.4362 23.3738C14.3938 23.4862 14.3741 23.6059 14.3781 23.7259C14.382 23.846 14.4097 23.9641 14.4595 24.0734C14.5092 24.1827 14.5801 24.2811 14.668 24.363ZM13.203 22.415C13.3535 22.5552 13.5534 22.6302 13.7589 22.6234C13.9645 22.6167 14.159 22.5288 14.3 22.379C14.3698 22.3051 14.4243 22.2181 14.4603 22.123C14.4963 22.0279 14.5131 21.9266 14.5097 21.825C14.5064 21.7234 14.483 21.6234 14.4408 21.5309C14.3986 21.4384 14.3385 21.3552 14.264 21.286C14.1137 21.1458 13.914 21.0709 13.7086 21.0777C13.5032 21.0844 13.3088 21.1723 13.168 21.322C13.0984 21.396 13.044 21.483 13.0081 21.578C12.9722 21.673 12.9554 21.7742 12.9586 21.8758C12.9619 21.9773 12.9851 22.0772 13.0271 22.1697C13.069 22.2623 13.1288 22.3456 13.203 22.415ZM12.344 20.491C12.612 20.741 13.031 20.727 13.281 20.461C13.3405 20.3978 13.3868 20.3234 13.4175 20.2422C13.4482 20.161 13.4625 20.0745 13.4598 19.9878C13.457 19.901 13.4371 19.8157 13.4013 19.7366C13.3655 19.6575 13.3144 19.5863 13.251 19.527C13.1226 19.407 12.9519 19.3428 12.7763 19.3484C12.6007 19.354 12.4344 19.429 12.314 19.557C12.2543 19.6201 12.2077 19.6944 12.1769 19.7757C12.146 19.8569 12.1316 19.9434 12.1344 20.0303C12.1372 20.1171 12.1572 20.2025 12.1931 20.2816C12.2291 20.3607 12.2804 20.4318 12.344 20.491ZM11.988 18.727C12.0983 18.8302 12.245 18.8854 12.3959 18.8805C12.5468 18.8756 12.6896 18.8111 12.793 18.701C12.8441 18.6467 12.884 18.5829 12.9104 18.5131C12.9368 18.4434 12.9491 18.3691 12.9467 18.2946C12.9443 18.2201 12.9271 18.1468 12.8963 18.0789C12.8655 18.011 12.8215 17.9499 12.767 17.899C12.6566 17.7959 12.5098 17.7409 12.3589 17.746C12.208 17.751 12.0652 17.8158 11.962 17.926C11.911 17.9803 11.8713 18.044 11.845 18.1137C11.8187 18.1833 11.8064 18.2575 11.8088 18.3319C11.8112 18.4063 11.8283 18.4795 11.8591 18.5473C11.8898 18.6151 11.9336 18.6762 11.988 18.727ZM12.012 17.181C12.108 17.2578 12.2293 17.2956 12.3519 17.2869C12.4745 17.2782 12.5894 17.2237 12.6736 17.1342C12.7578 17.0447 12.8052 16.9267 12.8064 16.8039C12.8076 16.681 12.7625 16.5621 12.68 16.471C12.5854 16.3829 12.4597 16.3357 12.3305 16.3399C12.2012 16.344 12.0788 16.399 11.99 16.493C11.9461 16.5395 11.9118 16.5943 11.8891 16.6541C11.8664 16.7139 11.8557 16.7776 11.8578 16.8416C11.8598 16.9055 11.8745 16.9684 11.901 17.0267C11.9274 17.085 11.9652 17.1374 12.012 17.181ZM12.687 25.741C12.975 26.161 13.547 26.269 13.969 25.983C14.0691 25.9155 14.1548 25.8288 14.2213 25.728C14.2878 25.6273 14.3337 25.5143 14.3563 25.3957C14.379 25.2772 14.378 25.1553 14.3534 25.0371C14.3288 24.9189 14.2811 24.8067 14.213 24.707C14.075 24.5051 13.8625 24.3661 13.6222 24.3205C13.3819 24.275 13.1333 24.3266 12.931 24.464C12.831 24.5317 12.7453 24.6185 12.6789 24.7194C12.6125 24.8202 12.5667 24.9332 12.544 25.0519C12.5213 25.1705 12.5223 25.2924 12.5468 25.4107C12.5714 25.5289 12.619 25.6412 12.687 25.741ZM11.241 23.805C11.3585 23.9765 11.5392 24.0945 11.7435 24.1331C11.9477 24.1717 12.159 24.1278 12.331 24.011C12.4163 23.9535 12.4894 23.8797 12.5461 23.7939C12.6027 23.708 12.6418 23.6118 12.6612 23.5108C12.6805 23.4097 12.6797 23.3059 12.6587 23.2052C12.6377 23.1045 12.597 23.0089 12.539 22.924C12.4213 22.7527 12.2407 22.6349 12.0365 22.5963C11.8323 22.5577 11.6211 22.6015 11.449 22.718C11.3637 22.7755 11.2906 22.8493 11.2339 22.9351C11.1773 23.021 11.1382 23.1172 11.1188 23.2182C11.0995 23.3193 11.1003 23.4231 11.1213 23.5238C11.1423 23.6245 11.183 23.7201 11.241 23.805ZM10.383 21.922C10.4844 22.0704 10.6404 22.1726 10.8169 22.2063C10.9934 22.2401 11.1761 22.2026 11.325 22.102C11.635 21.892 11.715 21.471 11.504 21.162C11.4025 21.0137 11.2463 20.9117 11.0698 20.8784C10.8932 20.845 10.7106 20.883 10.562 20.984C10.252 21.194 10.172 21.614 10.382 21.922H10.383ZM10.023 20.168C10.1111 20.2965 10.2465 20.3849 10.3996 20.4139C10.5526 20.4429 10.7109 20.4103 10.84 20.323C10.904 20.28 10.9589 20.2247 11.0015 20.1603C11.044 20.096 11.0734 20.0238 11.0879 19.948C11.1024 19.8722 11.1018 19.7943 11.086 19.7188C11.0702 19.6433 11.0396 19.5716 10.996 19.508C10.9079 19.3793 10.7723 19.2907 10.619 19.2616C10.4657 19.2326 10.3071 19.2654 10.178 19.353C10.1142 19.3963 10.0597 19.4517 10.0173 19.5161C9.97504 19.5805 9.94585 19.6526 9.93145 19.7283C9.91706 19.8041 9.91773 19.8819 9.93344 19.9573C9.94915 20.0327 9.97958 20.1043 10.023 20.168ZM10.063 18.632C10.1418 18.7319 10.2555 18.7983 10.3813 18.8177C10.507 18.8372 10.6355 18.8082 10.7408 18.7367C10.846 18.6652 10.9202 18.5564 10.9485 18.4323C10.9767 18.3082 10.9569 18.178 10.893 18.068C10.8177 17.9583 10.702 17.8829 10.5712 17.8581C10.4404 17.8334 10.3052 17.8614 10.195 17.936C10.1405 17.9729 10.0937 18.0202 10.0575 18.0751C10.0213 18.1301 9.99628 18.1917 9.98392 18.2564C9.97157 18.321 9.9721 18.3875 9.9855 18.452C9.9989 18.5164 10.0249 18.5776 10.062 18.632H10.063ZM10.377 17.349C10.4441 17.4337 10.5409 17.4899 10.6477 17.5063C10.7546 17.5226 10.8637 17.4979 10.9531 17.4371C11.0425 17.3763 11.1056 17.284 11.1297 17.1786C11.1538 17.0732 11.1371 16.9626 11.083 16.869C11.0173 16.7808 10.9201 16.7214 10.8116 16.7031C10.7032 16.6849 10.5919 16.7091 10.5009 16.7708C10.4099 16.8326 10.3462 16.927 10.3232 17.0346C10.3001 17.1421 10.3194 17.2544 10.377 17.348V17.349ZM5.637 15.807C5.49225 15.8901 5.36534 16.001 5.26353 16.1332C5.16173 16.2655 5.08704 16.4165 5.04374 16.5777C5.00045 16.7389 4.9894 16.9071 5.01124 17.0726C5.03308 17.238 5.08737 17.3976 5.171 17.542C5.522 18.148 6.301 18.357 6.911 18.007C7.519 17.657 7.729 16.88 7.377 16.273C7.20763 15.9809 6.9294 15.7679 6.60327 15.6805C6.27713 15.5932 5.92967 15.6387 5.637 15.807ZM8.467 13.997C8.34448 14.0673 8.23704 14.161 8.15084 14.2729C8.06464 14.3848 8.00138 14.5126 7.96468 14.649C7.92799 14.7854 7.91857 14.9277 7.93699 15.0677C7.95541 15.2077 8.00129 15.3427 8.072 15.465C8.369 15.978 9.029 16.155 9.545 15.859C10.062 15.562 10.238 14.905 9.941 14.39C9.79757 14.1425 9.56182 13.962 9.28548 13.8882C9.00914 13.8143 8.71478 13.8531 8.467 13.996V13.997ZM11.168 13.02C11.0644 13.0795 10.9735 13.1588 10.9006 13.2535C10.8277 13.3482 10.7742 13.4563 10.7432 13.5717C10.7122 13.6871 10.7042 13.8074 10.7198 13.9259C10.7354 14.0443 10.7742 14.1586 10.834 14.262C10.9555 14.4709 11.1547 14.6233 11.3881 14.6859C11.6216 14.7485 11.8703 14.7162 12.08 14.596C12.1836 14.5363 12.2743 14.4568 12.3472 14.3621C12.42 14.2673 12.4735 14.1591 12.5045 14.0437C12.5355 13.9283 12.5435 13.8079 12.5279 13.6893C12.5124 13.5708 12.4737 13.4565 12.414 13.353C12.2924 13.1442 12.0931 12.992 11.8596 12.9296C11.6262 12.8673 11.3776 12.8997 11.168 13.02ZM13.635 12.714C13.5464 12.7646 13.4687 12.8322 13.4063 12.9129C13.3439 12.9937 13.298 13.0859 13.2714 13.1844C13.2447 13.2829 13.2377 13.3857 13.2509 13.4868C13.264 13.588 13.297 13.6856 13.348 13.774C13.3992 13.8628 13.4674 13.9407 13.5486 14.0031C13.6299 14.0656 13.7227 14.1114 13.8217 14.1379C13.9207 14.1645 14.024 14.1713 14.1256 14.1579C14.2272 14.1445 14.3252 14.1113 14.414 14.06C14.5026 14.0092 14.5802 13.9415 14.6425 13.8606C14.7048 13.7797 14.7505 13.6873 14.777 13.5887C14.8035 13.4901 14.8102 13.3873 14.7968 13.2861C14.7834 13.1849 14.7502 13.0873 14.699 12.999C14.5955 12.8203 14.4254 12.69 14.2259 12.6366C14.0265 12.5832 13.814 12.611 13.635 12.714ZM15.749 12.918C15.6729 12.9616 15.6061 13.0199 15.5525 13.0894C15.499 13.1589 15.4597 13.2383 15.4369 13.3231C15.4142 13.4078 15.4084 13.4962 15.4199 13.5832C15.4314 13.6702 15.46 13.7541 15.504 13.83C15.5973 13.9739 15.7422 14.0766 15.909 14.1168C16.0757 14.1571 16.2515 14.1318 16.4002 14.0463C16.5488 13.9608 16.6591 13.8216 16.7082 13.6573C16.7572 13.4929 16.7414 13.316 16.664 13.163C16.5751 13.0092 16.4288 12.897 16.2572 12.8511C16.0856 12.8051 15.9028 12.8292 15.749 12.918ZM17.487 13.472C17.4218 13.5097 17.3647 13.5599 17.3188 13.6196C17.273 13.6794 17.2394 13.7476 17.22 13.8204C17.2005 13.8931 17.1956 13.969 17.2055 14.0437C17.2153 14.1183 17.2398 14.1903 17.2775 14.2555C17.3152 14.3207 17.3654 14.3778 17.4251 14.4237C17.4849 14.4695 17.5531 14.5031 17.6259 14.5225C17.7728 14.5618 17.9293 14.5411 18.061 14.465C18.1263 14.4276 18.1835 14.3776 18.2295 14.318C18.2754 14.2584 18.3091 14.1903 18.3286 14.1177C18.3481 14.045 18.3531 13.9692 18.3432 13.8946C18.3333 13.82 18.3088 13.7481 18.271 13.683C18.1943 13.5518 18.069 13.4562 17.9222 13.4169C17.7754 13.3775 17.619 13.3977 17.487 13.473V13.472ZM7.614 11.24C7.47808 11.2806 7.35153 11.3477 7.24158 11.4374C7.13164 11.527 7.04047 11.6375 6.9733 11.7624C6.90613 11.8874 6.86429 12.0243 6.85016 12.1655C6.83604 12.3067 6.84992 12.4492 6.891 12.585C6.98694 12.8434 7.17767 13.0555 7.42442 13.1782C7.67117 13.301 7.95541 13.3251 8.21933 13.2457C8.48325 13.1664 8.70704 12.9895 8.84518 12.751C8.98333 12.5126 9.02545 12.2304 8.963 11.962C8.87939 11.6875 8.69032 11.4573 8.43725 11.3219C8.18418 11.1866 7.88776 11.1571 7.613 11.24H7.614ZM10.308 10.287C10.1931 10.3218 10.0862 10.3789 9.99332 10.455C9.90048 10.5311 9.82354 10.6248 9.7669 10.7307C9.6525 10.9445 9.62772 11.1949 9.698 11.427C9.76828 11.6591 9.92787 11.8537 10.1417 11.9681C10.3555 12.0825 10.6059 12.1073 10.838 12.037C10.9573 12.0061 11.0692 11.9514 11.1669 11.8761C11.2645 11.8009 11.346 11.7067 11.4063 11.5992C11.4667 11.4917 11.5047 11.3731 11.5181 11.2506C11.5315 11.128 11.5199 11.004 11.4842 10.886C11.4485 10.768 11.3893 10.6585 11.3101 10.564C11.231 10.4694 11.1336 10.3919 11.0237 10.3359C10.9139 10.28 10.7939 10.2468 10.6709 10.2384C10.5479 10.23 10.4244 10.2465 10.308 10.287ZM12.734 10C12.6368 10.0294 12.5464 10.0776 12.4678 10.1419C12.3893 10.2062 12.3242 10.2853 12.2762 10.3748C12.2282 10.4642 12.1984 10.5623 12.1883 10.6633C12.1782 10.7643 12.1881 10.8663 12.2175 10.9635C12.2469 11.0607 12.2951 11.1511 12.3594 11.2297C12.4237 11.3082 12.5028 11.3733 12.5923 11.4213C12.6817 11.4693 12.7798 11.4991 12.8808 11.5092C12.9818 11.5193 13.0838 11.5093 13.181 11.48C13.3773 11.4207 13.5419 11.2859 13.6388 11.1052C13.7357 10.9245 13.7568 10.7128 13.6975 10.5165C13.6382 10.3202 13.5034 10.1556 13.3227 10.0587C13.142 9.96184 12.9303 9.94072 12.734 10ZM14.834 10.223C14.7508 10.2478 14.6733 10.2889 14.606 10.3437C14.5387 10.3985 14.4829 10.4661 14.4417 10.5426C14.4006 10.619 14.3749 10.7028 14.3662 10.7892C14.3575 10.8756 14.3659 10.9629 14.391 11.046C14.443 11.2126 14.5586 11.352 14.7128 11.434C14.867 11.5159 15.0472 11.5337 15.2144 11.4835C15.3816 11.4334 15.5223 11.3193 15.6059 11.166C15.6895 11.0128 15.7093 10.8328 15.661 10.665C15.6099 10.4969 15.4943 10.356 15.3394 10.2731C15.1846 10.1903 15.0031 10.1722 14.835 10.223H14.834ZM16.544 10.8C16.4 10.8438 16.2793 10.9429 16.2084 11.0757C16.1375 11.2085 16.1222 11.364 16.166 11.508C16.2098 11.652 16.3089 11.7727 16.4417 11.8436C16.5745 11.9145 16.73 11.9298 16.874 11.886C16.9481 11.8668 17.0176 11.8328 17.0782 11.786C17.1389 11.7393 17.1894 11.6808 17.2269 11.614C17.2643 11.5472 17.2879 11.4735 17.2961 11.3974C17.3044 11.3213 17.2972 11.2443 17.2749 11.171C17.2526 11.0978 17.2158 11.0298 17.1666 10.9711C17.1174 10.9125 17.0568 10.8644 16.9886 10.8297C16.9203 10.795 16.8457 10.7746 16.7693 10.7694C16.6929 10.7643 16.6163 10.7747 16.544 10.8ZM17.874 11.595C17.7504 11.6325 17.6468 11.7176 17.5859 11.8315C17.5251 11.9455 17.512 12.0789 17.5495 12.2025C17.587 12.3261 17.6721 12.4297 17.786 12.4906C17.9 12.5514 18.0334 12.5645 18.157 12.527C18.2182 12.5084 18.2751 12.478 18.3246 12.4374C18.374 12.3968 18.4149 12.3469 18.4451 12.2905C18.4752 12.234 18.4939 12.1723 18.5002 12.1086C18.5064 12.045 18.5001 11.9807 18.4815 11.9195C18.4629 11.8583 18.4325 11.8014 18.3919 11.7519C18.3513 11.7025 18.3014 11.6616 18.245 11.6314C18.1885 11.6013 18.1267 11.5826 18.0631 11.5763C17.9995 11.5701 17.9352 11.5764 17.874 11.595ZM10.104 7.888C9.98058 7.89271 9.85938 7.92223 9.74761 7.97479C9.63585 8.02735 9.53581 8.10187 9.45346 8.19392C9.37111 8.28597 9.30814 8.39365 9.2683 8.51056C9.22846 8.62746 9.21256 8.75119 9.22156 8.87437C9.23056 8.99755 9.26427 9.11765 9.32068 9.22753C9.37709 9.3374 9.45505 9.43479 9.5499 9.51389C9.64475 9.59299 9.75456 9.65218 9.87278 9.68793C9.991 9.72369 10.1152 9.73528 10.238 9.722C10.4817 9.70458 10.7085 9.59117 10.8686 9.40668C11.0287 9.22219 11.109 8.98169 11.092 8.738C11.0831 8.61733 11.0506 8.4996 10.9961 8.39154C10.9417 8.28347 10.8665 8.18721 10.7748 8.10826C10.6831 8.0293 10.5768 7.9692 10.4619 7.93141C10.3469 7.89362 10.2256 7.87886 10.105 7.888H10.104ZM12.511 7.61C12.4049 7.61243 12.3005 7.63638 12.204 7.6804C12.1075 7.72443 12.0209 7.7876 11.9495 7.8661C11.8782 7.94459 11.8235 8.03677 11.7889 8.13704C11.7542 8.2373 11.7403 8.34356 11.748 8.44936C11.7556 8.55517 11.7847 8.65831 11.8334 8.75254C11.8822 8.84676 11.9496 8.9301 12.0315 8.99749C12.1134 9.06488 12.2082 9.11493 12.31 9.14458C12.4119 9.17423 12.5187 9.18288 12.624 9.17C12.7301 9.16757 12.8345 9.14362 12.931 9.0996C13.0275 9.05557 13.1141 8.9924 13.1855 8.9139C13.2568 8.83541 13.3115 8.74323 13.3461 8.64296C13.3808 8.5427 13.3947 8.43644 13.387 8.33064C13.3794 8.22483 13.3503 8.12169 13.3016 8.02746C13.2528 7.93324 13.1854 7.8499 13.1035 7.78251C13.0216 7.71512 12.9268 7.66507 12.825 7.63542C12.7231 7.60577 12.6163 7.59712 12.511 7.61ZM14.575 7.814C14.4849 7.81824 14.3965 7.84048 14.3151 7.87941C14.2337 7.91833 14.1609 7.97316 14.101 8.04066C14.0412 8.10816 13.9954 8.18696 13.9665 8.27243C13.9375 8.35789 13.926 8.44828 13.9325 8.53827C13.9391 8.62826 13.9636 8.71603 14.0046 8.79641C14.0456 8.87679 14.1022 8.94814 14.1712 9.00627C14.2403 9.0644 14.3202 9.10813 14.4064 9.13487C14.4925 9.16162 14.5832 9.17084 14.673 9.162C14.7653 9.16085 14.8564 9.14082 14.9407 9.10315C15.025 9.06549 15.1007 9.01098 15.1632 8.94298C15.2256 8.87497 15.2735 8.79491 15.3039 8.70772C15.3342 8.62053 15.3465 8.52805 15.3398 8.43596C15.3331 8.34388 15.3076 8.25414 15.2649 8.17225C15.2223 8.09037 15.1633 8.01808 15.0917 7.95983C15.0201 7.90157 14.9373 7.85858 14.8484 7.8335C14.7596 7.80843 14.6665 7.80179 14.575 7.814ZM16.278 8.382C16.201 8.38752 16.1258 8.40815 16.0568 8.44272C15.9877 8.47729 15.9261 8.52512 15.8756 8.58348C15.825 8.64184 15.7865 8.70959 15.7621 8.78286C15.7377 8.85613 15.728 8.93348 15.7335 9.0105C15.739 9.08752 15.7596 9.1627 15.7942 9.23175C15.8288 9.30079 15.8766 9.36235 15.935 9.41292C15.9933 9.46348 16.0611 9.50205 16.1344 9.52643C16.2076 9.55081 16.285 9.56052 16.362 9.555C16.5175 9.54386 16.6623 9.47139 16.7644 9.35352C16.8665 9.23565 16.9176 9.08205 16.9065 8.9265C16.8954 8.77095 16.8229 8.6262 16.705 8.52408C16.5872 8.42197 16.4335 8.37086 16.278 8.382ZM17.592 9.186C17.5238 9.18713 17.4565 9.20215 17.3943 9.23014C17.3321 9.25813 17.2762 9.29851 17.2302 9.34881C17.1841 9.39911 17.1487 9.45828 17.1263 9.5227C17.1038 9.58712 17.0947 9.65544 17.0996 9.72348C17.1044 9.79153 17.123 9.85788 17.1544 9.91848C17.1857 9.97908 17.2291 10.0327 17.2818 10.0759C17.3345 10.1192 17.3955 10.1513 17.4611 10.1702C17.5266 10.1892 17.5953 10.1945 17.663 10.186C17.7904 10.17 17.9068 10.1057 17.9883 10.0064C18.0698 9.90718 18.1101 9.78047 18.101 9.65238C18.0919 9.52428 18.0341 9.40454 17.9394 9.31779C17.8447 9.23104 17.7204 9.18388 17.592 9.186ZM18.549 10.101C18.4932 10.105 18.4387 10.12 18.3887 10.145C18.3387 10.1701 18.294 10.2047 18.2574 10.247C18.2208 10.2893 18.1928 10.3384 18.1752 10.3915C18.1575 10.4446 18.1505 10.5007 18.1545 10.5565C18.1585 10.6123 18.1735 10.6668 18.1985 10.7168C18.2236 10.7668 18.2582 10.8115 18.3005 10.8481C18.3428 10.8847 18.3919 10.9127 18.445 10.9303C18.4981 10.948 18.5542 10.955 18.61 10.951C18.7227 10.9429 18.8276 10.8904 18.9016 10.805C18.9756 10.7195 19.0126 10.6082 19.0045 10.4955C18.9964 10.3828 18.9439 10.2779 18.8585 10.2039C18.773 10.1299 18.6617 10.0929 18.549 10.101Z" fill="black"/>
</g>
<defs>
<clipPath id="clip0_16_2831">
<rect width="32" height="32" fill="white"/>
</clipPath>
</defs>
</svg>
