<svg width="32" height="32" viewBox="0 0 32 32" fill="none" xmlns="http://www.w3.org/2000/svg">
<g clip-path="url(#clip0_16_2833)">
<path fill-rule="evenodd" clip-rule="evenodd" d="M16 32C7.163 32 0 24.837 0 16C0 7.163 7.163 0 16 0C24.837 0 32 7.163 32 16C32 24.837 24.837 32 16 32ZM15.993 20.998H26.363C26.597 20.998 26.82 20.958 26.939 20.737C27.061 20.511 26.984 20.285 26.854 20.08C26.746 19.91 26.634 19.743 26.524 19.575C25.636 18.208 24.689 16.876 23.871 15.467C22.518 13.135 21.246 10.753 19.944 8.391C19.814 8.155 19.648 7.988 19.372 8.001C19.11 8.013 18.975 8.202 18.873 8.424L16.279 14.074C16.151 14.352 16.089 14.36 15.916 14.116C15.075 12.922 14.232 11.73 13.395 10.534C13.251 10.328 13.058 10.198 12.832 10.282C12.668 10.342 12.512 10.495 12.41 10.646C11.37 12.19 10.343 13.744 9.307 15.292C8.985 15.772 8.69 16.282 8.309 16.71C7.307 17.832 6.266 18.918 5.239 20.016C5.059 20.207 4.931 20.409 5.041 20.682C5.157 20.969 5.399 21 5.667 21C9.109 20.997 12.551 20.998 15.993 20.998ZM18.156 19.887C17.994 20.013 15.546 20.012 15.351 19.869C15.619 19.572 15.883 19.276 16.153 18.985C16.175 18.962 16.241 18.958 16.274 18.974C16.896 19.264 17.516 19.557 18.136 19.85C18.141 19.853 18.143 19.863 18.156 19.887ZM12.482 12.724C12.426 13.276 12.382 13.779 12.318 14.279C12.299 14.3799 12.2417 14.4695 12.158 14.529C11.6808 14.8352 11.1991 15.1342 10.713 15.426C10.656 15.461 10.577 15.458 10.509 15.472C10.525 15.405 10.523 15.326 10.559 15.272C11.1245 14.415 11.6935 13.5603 12.266 12.708C12.3 12.658 12.368 12.631 12.42 12.594L12.482 12.724ZM24.479 19.974C24.204 19.974 23.929 19.97 23.653 19.976C23.501 19.979 23.449 19.912 23.46 19.763C23.52 18.981 23.575 18.199 23.636 17.417C23.641 17.364 23.684 17.314 23.709 17.264C23.757 17.294 23.821 17.314 23.849 17.357C24.376 18.157 24.899 18.959 25.424 19.761C25.524 19.915 25.464 19.974 25.304 19.974H24.479ZM6.745 19.914C6.957 19.682 7.12 19.5 7.287 19.321C7.765 18.81 8.245 18.301 8.721 17.787C8.844 17.655 8.916 17.646 8.994 17.833C9.261 18.474 9.537 19.112 9.816 19.747C9.889 19.914 9.845 19.976 9.672 19.975C8.78 19.974 7.887 19.975 6.994 19.973C6.933 19.973 6.871 19.945 6.744 19.914H6.745ZM19.94 15.301C20.079 15.314 20.158 15.311 20.233 15.329C21.069 15.536 21.904 15.746 22.739 15.955C23.052 16.034 23.194 16.203 23.175 16.533C23.129 17.307 23.069 18.081 23.015 18.855C23.004 19.025 22.999 19.197 22.98 19.366C22.972 19.428 22.93 19.486 22.904 19.546C22.854 19.508 22.788 19.48 22.754 19.431C22.251 18.709 21.753 17.984 21.254 17.259L20.046 15.505C20.017 15.463 19.998 15.414 19.94 15.301ZM19.728 10.166C19.775 10.231 19.828 10.291 19.867 10.36C20.734 11.929 21.599 13.498 22.462 15.068C22.499 15.136 22.504 15.223 22.523 15.301C22.444 15.301 22.361 15.318 22.286 15.3C21.42 15.087 20.556 14.866 19.69 14.656C19.547 14.621 19.506 14.55 19.51 14.412C19.55 13.155 19.584 11.898 19.622 10.641C19.627 10.486 19.642 10.332 19.652 10.179L19.728 10.166ZM15.843 17.873C15.75 17.789 15.692 17.745 15.643 17.692C14.751 16.692 13.862 15.688 12.967 14.691C12.9162 14.6396 12.8783 14.577 12.8562 14.5082C12.8341 14.4394 12.8286 14.3663 12.84 14.295C12.916 13.617 12.975 12.937 13.045 12.257C13.055 12.172 13.09 12.089 13.113 12.005L13.207 11.949C13.232 12.007 13.247 12.071 13.283 12.121C14.0723 13.226 14.864 14.3293 15.658 15.431C15.851 15.699 15.941 15.99 15.926 16.323C15.906 16.742 15.906 17.161 15.893 17.58C15.89 17.66 15.867 17.74 15.843 17.873ZM16.42 17.664C16.44 16.858 16.378 16.059 16.766 15.284C17.5 13.822 18.169 12.324 18.869 10.844C18.9 10.779 18.977 10.736 19.032 10.683C19.052 10.751 19.092 10.82 19.09 10.888C19.062 12.123 19.03 13.358 18.995 14.593C18.9905 14.6677 18.9633 14.7392 18.917 14.798C18.162 15.7255 17.4043 16.6509 16.644 17.574C16.6 17.627 16.535 17.661 16.48 17.704L16.42 17.664ZM12.917 19.974C12.427 19.974 11.938 19.977 11.449 19.971C11.381 19.971 11.314 19.928 11.247 19.904C11.273 19.843 11.287 19.774 11.325 19.722C12.089 18.683 12.859 17.649 13.62 16.608C13.74 16.444 13.817 16.444 13.95 16.594C14.505 17.2152 15.065 17.8319 15.63 18.444C15.735 18.559 15.763 18.639 15.638 18.769C15.304 19.121 14.99 19.493 14.655 19.844C14.5751 19.9195 14.4708 19.9638 14.361 19.969C13.88 19.982 13.398 19.975 12.917 19.975V19.974ZM13.415 16.009L12.165 17.685L10.685 19.669C10.497 19.919 10.451 19.914 10.329 19.634C10.009 18.889 9.691 18.143 9.366 17.4C9.301 17.25 9.286 17.116 9.404 16.994C9.532 16.864 9.651 16.714 9.802 16.618C10.636 16.089 11.481 15.578 12.317 15.051C12.457 14.963 12.537 14.977 12.641 15.104C12.888 15.408 13.149 15.7 13.415 16.009ZM19.21 15.221C19.575 15.749 19.887 16.198 20.197 16.648C20.8987 17.6642 21.5987 18.6815 22.297 19.7C22.34 19.763 22.351 19.848 22.377 19.923C22.305 19.94 22.235 19.972 22.163 19.973C21.407 19.976 20.65 19.978 19.893 19.971C19.7643 19.9685 19.6374 19.9399 19.52 19.887C18.602 19.469 17.688 19.042 16.77 18.622C16.624 18.555 16.557 18.493 16.687 18.336C17.485 17.374 18.277 16.408 19.07 15.442C19.114 15.39 19.145 15.326 19.21 15.222V15.221Z" fill="black"/>
</g>
<defs>
<clipPath id="clip0_16_2833">
<rect width="32" height="32" fill="white"/>
</clipPath>
</defs>
</svg>
