<svg width="32" height="32" viewBox="0 0 32 32" fill="none" xmlns="http://www.w3.org/2000/svg">
<g clip-path="url(#clip0_16_2837)">
<path fill-rule="evenodd" clip-rule="evenodd" d="M8.627 20.124L9.987 19.338L9.809 19.029L8.467 19.804V11.953L15.287 15.995V27.555L16 28L16.714 27.555V15.995L23.533 11.953V19.805L22.19 19.029L22.012 19.339L23.372 20.124L18.102 23.216V24.945L25 20.885V10.295L16 5L7 10.295V20.885L13.899 24.945V23.215L8.627 20.124ZM15.802 6.814V8.395H16.159V6.791L22.819 10.699L16 14.742L9.18 10.699L15.802 6.814ZM16 32C7.163 32 0 24.837 0 16C0 7.163 7.163 0 16 0C24.837 0 32 7.163 32 16C32 24.837 24.837 32 16 32ZM15.802 9.406V11.063H16.159V9.406H15.802ZM15.802 12.074V13.731L15.98 13.812L16.159 13.732V12.074H15.802ZM21.362 18.524L19.927 17.695L19.748 18.005L21.184 18.833L21.362 18.524ZM19.097 17.19L17.661 16.362L17.502 16.476L17.482 16.671L18.918 17.499L19.097 17.19ZM10.637 18.524L10.816 18.834L12.251 18.004L12.072 17.695L10.637 18.525V18.524ZM12.903 17.19L13.081 17.5L14.516 16.67L14.497 16.476L14.338 16.362L12.903 17.19Z" fill="black"/>
</g>
<defs>
<clipPath id="clip0_16_2837">
<rect width="32" height="32" fill="white"/>
</clipPath>
</defs>
</svg>
