<svg width="32" height="32" viewBox="0 0 32 32" fill="none" xmlns="http://www.w3.org/2000/svg">
<g clip-path="url(#clip0_16_2839)">
<path d="M14.863 26.986V23.616C13.0446 23.3357 11.3866 22.4136 10.1893 21.0165C8.99206 19.6195 8.3346 17.8399 8.336 16C8.3346 14.1601 8.99206 12.3805 10.1893 10.9835C11.3866 9.58644 13.0446 8.66428 14.863 8.384V5.014C9.32 5.595 5 10.292 5 16C5 21.708 9.32 26.405 14.863 26.986ZM17.038 5V8.363C18.688 8.58517 20.2215 9.33614 21.4087 10.5033C22.5959 11.6705 23.3728 13.191 23.623 14.837H26.986C26.44 9.617 22.268 5.48 17.038 5ZM27 17.017H23.644C23.4221 18.6925 22.655 20.2484 21.4612 21.4448C20.2673 22.6412 18.713 23.4115 17.038 23.637V27C22.316 26.517 26.518 22.306 27 17.017ZM16 32C7.163 32 0 24.837 0 16C0 7.163 7.163 0 16 0C24.837 0 32 7.163 32 16C32 24.837 24.837 32 16 32Z" fill="black"/>
</g>
<defs>
<clipPath id="clip0_16_2839">
<rect width="32" height="32" fill="white"/>
</clipPath>
</defs>
</svg>
