<svg width="32" height="32" viewBox="0 0 32 32" fill="none" xmlns="http://www.w3.org/2000/svg">
<g clip-path="url(#clip0_16_2841)">
<path d="M16 32C7.163 32 0 24.837 0 16C0 7.163 7.163 0 16 0C24.837 0 32 7.163 32 16C32 24.837 24.837 32 16 32ZM25.569 21.316C25.437 20.528 25.175 19.739 24.979 19.016L24.389 16.651L22.815 10.737C22.683 10.277 22.618 9.817 22.487 9.357C22.421 9.16 22.356 8.897 22.159 8.766C21.962 8.7 21.765 8.7 21.569 8.7H19.142C18.749 8.7 18.422 8.7 18.028 8.766C17.7 8.831 17.372 9.029 17.241 9.357C17.2115 9.42731 17.2084 9.50591 17.2323 9.57832C17.2562 9.65073 17.3054 9.71206 17.371 9.751C17.437 9.817 17.569 9.751 17.634 9.686C17.7 9.686 17.897 9.489 17.962 9.489L21.044 20.856V20.922C21.11 21.185 21.241 21.447 21.437 21.513C21.569 21.579 21.7 21.645 21.897 21.645H25.175C25.372 21.71 25.635 21.579 25.569 21.316ZM17.962 21.316C17.831 20.528 17.569 19.739 17.372 19.016L16.782 16.651L15.208 10.737C15.077 10.277 15.011 9.817 14.88 9.357C14.815 9.16 14.749 8.897 14.552 8.766C14.356 8.7 14.159 8.7 13.962 8.7H11.535C11.142 8.7 10.815 8.7 10.421 8.766C10.093 8.831 9.765 9.029 9.634 9.357C9.60457 9.42742 9.60163 9.50611 9.62571 9.57854C9.64979 9.65096 9.69927 9.71222 9.765 9.751C9.831 9.817 9.962 9.751 10.028 9.686C10.093 9.686 10.29 9.489 10.356 9.489L13.437 20.856V20.922C13.503 21.185 13.634 21.447 13.831 21.513C13.962 21.579 14.093 21.645 14.29 21.645H17.569C17.765 21.71 18.028 21.579 17.962 21.316ZM11.929 18.819L9.831 10.606C9.831 10.474 9.7 10.343 9.503 10.343C9.372 10.343 9.241 10.474 9.175 10.606L6.421 20.987V21.119C6.421 21.447 6.683 21.776 7.077 21.776H10.552C10.6866 21.7724 10.8165 21.7258 10.9227 21.6431C11.0289 21.5603 11.1057 21.4457 11.142 21.316L11.929 18.819ZM19.667 18.622L17.372 10.342C17.372 10.212 17.241 10.146 17.11 10.146C16.978 10.146 16.847 10.211 16.847 10.343L16.388 11.985L18.683 20.002C18.749 20.133 18.815 20.199 18.946 20.199C19.076 20.199 19.142 20.133 19.208 20.002L19.667 18.622Z" fill="black"/>
</g>
<defs>
<clipPath id="clip0_16_2841">
<rect width="32" height="32" fill="white"/>
</clipPath>
</defs>
</svg>
