<svg width="32" height="32" viewBox="0 0 32 32" fill="none" xmlns="http://www.w3.org/2000/svg">
<g clip-path="url(#clip0_16_2869)">
<path d="M16 32C7.163 32 0 24.837 0 16C0 7.163 7.163 0 16 0C24.837 0 32 7.163 32 16C32 24.837 24.837 32 16 32ZM26.31 18.475C26.135 18.398 25.915 18.511 25.82 18.729C25.7876 18.7965 25.7726 18.8709 25.7763 18.9457C25.78 19.0204 25.8022 19.093 25.841 19.157L23.591 23.133C23.5087 23.1229 23.4253 23.1347 23.349 23.167L21.859 21.649C21.8875 21.5212 21.8708 21.3874 21.8117 21.2705C21.7526 21.1536 21.6548 21.0609 21.535 21.008V11.214C21.6271 11.1731 21.7066 11.1082 21.765 11.026L25.434 12.992L25.446 13.041C25.513 13.269 25.716 13.406 25.899 13.347C26.081 13.289 26.175 13.056 26.107 12.827C26.045 12.618 25.871 12.487 25.701 12.51L23.918 9.028L23.926 9.018C24.056 8.829 23.974 8.543 23.746 8.379C23.6814 8.32973 23.6063 8.29599 23.5265 8.28039C23.4467 8.26478 23.3644 8.26773 23.286 8.289L22.07 7.471C22.0581 7.3826 22.0261 7.29809 21.9765 7.22392C21.9269 7.14974 21.8611 7.08787 21.784 7.043C21.714 6.99977 21.6355 6.97221 21.5539 6.9622C21.4722 6.95219 21.3894 6.95996 21.311 6.985L18.485 5.373C18.445 5.199 18.28 5.048 18.061 5.01C17.819 4.967 17.595 5.072 17.516 5.253L11.397 6.365C11.329 6.31902 11.2513 6.28941 11.1699 6.27848C11.0885 6.26755 11.0057 6.2756 10.928 6.302C10.678 6.381 10.518 6.603 10.554 6.814L6.302 11.27C6.112 11.258 5.919 11.406 5.84 11.639C5.80754 11.7239 5.79685 11.8156 5.80891 11.9058C5.82096 11.9959 5.85537 12.0816 5.909 12.155L5.67 17.842C5.543 17.946 5.475 18.142 5.509 18.348C5.549 18.578 5.701 18.752 5.877 18.787L7.497 22.544C7.432 22.716 7.494 22.943 7.667 23.099C7.72712 23.1571 7.80017 23.2001 7.88014 23.2244C7.96011 23.2487 8.04472 23.2537 8.127 23.239L12.065 26.081C12.055 26.288 12.229 26.489 12.481 26.544C12.5584 26.563 12.6391 26.5644 12.7172 26.5481C12.7952 26.5319 12.8686 26.4983 12.932 26.45L18.03 26.807C18.128 26.952 18.332 27.03 18.547 26.989C18.6379 26.9754 18.7237 26.9381 18.7957 26.8809C18.8676 26.8237 18.9233 26.7485 18.957 26.663L23.295 24.065C23.3745 24.0703 23.4542 24.0581 23.5285 24.0292C23.6028 24.0004 23.6699 23.9556 23.725 23.898C23.873 23.751 23.93 23.551 23.885 23.389L26.111 19.286C26.1877 19.2739 26.2598 19.242 26.3204 19.1934C26.3809 19.1448 26.4276 19.0812 26.456 19.009C26.551 18.791 26.486 18.552 26.311 18.475H26.31ZM26.314 18.95C26.275 19.037 26.187 19.083 26.118 19.052C26.047 19.02 26.021 18.925 26.059 18.838C26.097 18.751 26.185 18.706 26.255 18.736C26.325 18.766 26.352 18.862 26.314 18.95ZM23.649 23.742C23.569 23.822 23.452 23.832 23.389 23.767C23.326 23.701 23.341 23.582 23.42 23.502C23.501 23.422 23.617 23.412 23.68 23.478C23.743 23.544 23.729 23.663 23.649 23.742ZM23.02 23.492L19.046 24.866C18.9931 24.8078 18.9283 24.7618 18.856 24.731L18.67 22.024C18.7703 21.9664 18.8505 21.8795 18.9 21.775H20.818C20.908 21.965 21.097 22.095 21.317 22.095C21.4177 22.0951 21.5164 22.067 21.602 22.014L23.032 23.468L23.02 23.492ZM18.852 26.278C18.8214 26.2503 18.7871 26.2271 18.75 26.209L18.846 25.645C18.922 25.6153 18.9899 25.5681 19.0443 25.5073C19.0986 25.4465 19.1379 25.3738 19.159 25.295L22.319 24.202L18.852 26.278ZM18.527 26.816C18.417 26.836 18.314 26.78 18.297 26.689C18.281 26.598 18.357 26.507 18.467 26.488C18.577 26.466 18.68 26.523 18.696 26.614C18.712 26.705 18.636 26.796 18.526 26.816H18.527ZM18.023 26.418L14.215 26.153L18.193 25.511C18.25 25.573 18.323 25.621 18.406 25.653L18.315 26.188C18.1931 26.2269 18.0894 26.3086 18.023 26.418ZM14.302 22.082C14.3634 22.0677 14.4219 22.043 14.475 22.009L18.024 25.089L13.008 25.899L14.302 22.082ZM12.637 25.637L11.38 21.856C11.3974 21.8304 11.4131 21.8037 11.427 21.776H13.683C13.725 21.866 13.79 21.942 13.871 21.998L12.637 25.637ZM12.484 26.372C12.374 26.348 12.301 26.256 12.32 26.165C12.339 26.075 12.444 26.021 12.553 26.045C12.663 26.069 12.735 26.161 12.716 26.252C12.698 26.342 12.593 26.396 12.484 26.372ZM8.397 22.96C8.40403 22.9221 8.40605 22.8834 8.403 22.845L10.526 21.92C10.5857 21.9839 10.6597 22.0326 10.7419 22.0622C10.8242 22.0918 10.9123 22.1013 10.999 22.09L12.202 25.706L8.397 22.96ZM8.041 22.362L7.098 17.714L10.474 21.204C10.4133 21.2927 10.3787 21.3966 10.374 21.504L8.191 22.455C8.14558 22.4172 8.09509 22.3859 8.041 22.362ZM8.018 22.971C7.958 23.041 7.841 23.035 7.758 22.96C7.673 22.885 7.654 22.767 7.714 22.697C7.774 22.627 7.891 22.634 7.974 22.709C8.059 22.785 8.077 22.903 8.018 22.971ZM6.228 18.638C6.27664 18.5671 6.30872 18.4861 6.32188 18.4011C6.33503 18.3162 6.32892 18.2293 6.304 18.147L6.611 17.493L7.39 21.331L6.228 18.638ZM6.2 14.298L6.36 16.501C6.30745 16.584 6.27775 16.6794 6.27389 16.7775C6.27002 16.8757 6.29214 16.9731 6.338 17.06L6.06 17.65L6.2 14.298ZM6 11.647C6.037 11.539 6.135 11.477 6.22 11.507C6.307 11.537 6.346 11.65 6.31 11.757C6.272 11.866 6.174 11.928 6.088 11.898C6.003 11.868 5.962 11.755 5.999 11.647H6ZM6.844 16.8C6.844 16.915 6.761 17.007 6.661 17.007C6.56 17.007 6.477 16.915 6.477 16.8C6.477 16.686 6.56 16.594 6.661 16.594C6.761 16.594 6.844 16.686 6.844 16.8ZM6.614 11.914C6.62703 11.8753 6.6364 11.8355 6.642 11.795L8.546 10.502L6.767 16.132L6.477 12.142C6.53915 12.0772 6.58597 11.9993 6.614 11.914ZM9.64 8.329L8.897 9.539C8.77899 9.56757 8.67318 9.63309 8.595 9.726C8.51906 9.8125 8.46975 9.91912 8.453 10.033L7.206 10.879L9.64 8.329ZM10.894 7.122C10.979 7.137 11.074 7.132 11.167 7.103C11.2922 7.06571 11.4009 6.98666 11.475 6.879L14.743 7.603C14.7576 7.69713 14.7954 7.78615 14.853 7.862L13.783 10.137C13.6986 10.155 13.6195 10.1924 13.552 10.2462C13.4845 10.3 13.4304 10.3687 13.394 10.447H11.427C11.3825 10.3518 11.3119 10.2712 11.2234 10.2145C11.1349 10.1579 11.0321 10.1275 10.927 10.127C10.8527 10.1269 10.7791 10.1421 10.7108 10.1715C10.6425 10.2009 10.581 10.2439 10.53 10.298L9.355 9.938C9.3621 9.85699 9.34542 9.77567 9.307 9.704L10.894 7.122ZM10.952 6.469C11.06 6.435 11.167 6.48 11.193 6.569C11.22 6.657 11.154 6.756 11.047 6.789C10.941 6.822 10.833 6.778 10.806 6.689C10.78 6.601 10.846 6.502 10.952 6.469ZM17.2 5.705L15.473 6.981C15.3621 6.94095 15.2413 6.93812 15.1287 6.97295C15.0161 7.00777 14.9179 7.07836 14.849 7.174L12.268 6.603L17.2 5.705ZM17.805 5.802C17.8421 5.81687 17.8806 5.82793 17.92 5.835C18.084 5.864 18.24 5.825 18.348 5.74L21.022 7.264L21.011 7.302L15.966 7.162L17.805 5.802ZM18.043 5.183C18.153 5.203 18.23 5.293 18.214 5.383C18.198 5.475 18.096 5.533 17.986 5.513C17.876 5.493 17.8 5.403 17.815 5.313C17.83 5.221 17.932 5.163 18.043 5.183ZM21.276 7.908L21.084 10.179C20.9672 10.2347 20.8733 10.329 20.818 10.446H18.562C18.5083 10.3324 18.4177 10.2403 18.3048 10.1849C18.192 10.1295 18.0638 10.114 17.941 10.141L15.817 7.691C15.8265 7.6617 15.8332 7.63156 15.837 7.601L21.101 7.746C21.1483 7.81082 21.2077 7.86583 21.276 7.908ZM21.316 10.466C21.439 10.466 21.539 10.568 21.539 10.693C21.539 10.818 21.439 10.919 21.317 10.919C21.195 10.919 21.095 10.818 21.095 10.693C21.095 10.568 21.195 10.466 21.317 10.466H21.316ZM21.415 7.266C21.47 7.17 21.6 7.143 21.706 7.206C21.812 7.269 21.853 7.398 21.798 7.494C21.743 7.591 21.612 7.618 21.508 7.554C21.401 7.492 21.36 7.362 21.415 7.266ZM25.33 12.584L21.87 10.646C21.8619 10.5414 21.8248 10.4412 21.763 10.3564C21.7012 10.2716 21.6171 10.2057 21.52 10.166L21.703 7.997L25.33 12.584ZM23.037 8.587C23.017 8.754 23.105 8.944 23.276 9.065C23.3626 9.12834 23.4651 9.16642 23.572 9.175L24.85 11.46L22.223 8.04L23.037 8.587ZM23.417 8.53C23.469 8.454 23.585 8.446 23.677 8.511C23.769 8.576 23.801 8.691 23.749 8.767C23.697 8.843 23.58 8.851 23.489 8.786C23.397 8.72 23.365 8.606 23.418 8.53H23.417ZM17.847 10.693C17.847 10.57 17.942 10.471 18.063 10.471C18.183 10.471 18.28 10.571 18.28 10.693C18.2803 10.751 18.2576 10.8068 18.217 10.8482C18.1763 10.8895 18.121 10.9132 18.063 10.914C18.0342 10.9139 18.0057 10.908 17.9792 10.8968C17.9527 10.8856 17.9286 10.8693 17.9084 10.8487C17.8883 10.8282 17.8723 10.8038 17.8616 10.7771C17.8509 10.7504 17.8456 10.7218 17.846 10.693H17.847ZM17.966 15.466C18.089 15.466 18.187 15.567 18.187 15.692C18.1874 15.7214 18.182 15.7506 18.1711 15.778C18.1602 15.8053 18.144 15.8302 18.1235 15.8513C18.103 15.8724 18.0785 15.8892 18.0515 15.9008C18.0245 15.9124 17.9954 15.9186 17.966 15.919C17.9365 15.9187 17.9073 15.9127 17.8802 15.9011C17.8531 15.8895 17.8285 15.8727 17.8078 15.8516C17.7872 15.8305 17.7709 15.8056 17.76 15.7782C17.749 15.7508 17.7436 15.7215 17.744 15.692C17.744 15.567 17.844 15.466 17.966 15.466ZM15.069 7.442C15.069 7.317 15.168 7.215 15.29 7.215C15.413 7.215 15.512 7.317 15.512 7.442C15.512 7.567 15.412 7.668 15.29 7.668C15.2308 7.66721 15.1743 7.64299 15.1328 7.60063C15.0914 7.55828 15.0685 7.50124 15.069 7.442ZM15.231 8.079C15.3336 8.08989 15.4371 8.07188 15.53 8.027L17.589 10.4C17.5468 10.469 17.5199 10.5463 17.5102 10.6266C17.5004 10.7069 17.5079 10.7883 17.5323 10.8655C17.5566 10.9426 17.5972 11.0136 17.6513 11.0738C17.7055 11.1339 17.7718 11.1817 17.846 11.214V15.14C17.8132 15.1471 17.781 15.1571 17.75 15.17L14.37 10.98C14.4399 10.8584 14.4629 10.7154 14.4347 10.578C14.4065 10.4406 14.3291 10.3183 14.217 10.234L15.231 8.079ZM13.671 10.693C13.671 10.568 13.771 10.466 13.893 10.466C14.014 10.466 14.114 10.568 14.114 10.693C14.114 10.818 14.014 10.919 13.893 10.919C13.8636 10.9187 13.8345 10.9127 13.8074 10.9012C13.7804 10.8897 13.7558 10.873 13.7352 10.852C13.7146 10.831 13.6983 10.8062 13.6873 10.7789C13.6763 10.7516 13.6707 10.7224 13.671 10.693ZM10.711 10.693C10.711 10.57 10.807 10.471 10.927 10.471C11.047 10.471 11.144 10.571 11.144 10.693C11.144 10.815 11.047 10.914 10.927 10.914C10.807 10.914 10.711 10.815 10.711 10.693ZM10.927 21.303C11.05 21.303 11.149 21.403 11.149 21.529C11.1494 21.5585 11.144 21.5877 11.133 21.615C11.122 21.6424 11.1057 21.6673 11.0851 21.6883C11.0645 21.7093 11.0399 21.726 11.0127 21.7375C10.9856 21.7489 10.9565 21.7549 10.927 21.755C10.8977 21.7546 10.8688 21.7485 10.8419 21.7369C10.815 21.7253 10.7906 21.7086 10.7702 21.6876C10.7498 21.6666 10.7337 21.6418 10.7228 21.6146C10.712 21.5874 10.7066 21.5583 10.707 21.529C10.707 21.404 10.805 21.303 10.927 21.303ZM8.731 9.843C8.806 9.757 8.921 9.737 8.988 9.799C9.056 9.859 9.051 9.979 8.978 10.064C8.903 10.151 8.788 10.17 8.72 10.109C8.652 10.048 8.658 9.929 8.73 9.843H8.731ZM7.106 16.502L9.026 10.425C9.07167 10.4017 9.11404 10.3725 9.152 10.338L10.374 10.713C10.377 10.8198 10.4103 10.9236 10.47 11.0123C10.5296 11.101 10.6132 11.1709 10.711 11.214V20.817L7.109 17.095C7.16355 17.0063 7.19198 16.9041 7.191 16.8C7.19154 16.6946 7.16205 16.5912 7.106 16.502ZM18.4 20.962C18.3517 20.9628 18.3037 20.9695 18.257 20.982L14.773 16.652C14.806 16.5673 14.8178 16.4758 14.8075 16.3855C14.7972 16.2952 14.765 16.2087 14.7138 16.1336C14.6626 16.0585 14.5939 15.997 14.5136 15.9544C14.4334 15.9117 14.3439 15.8893 14.253 15.889C14.1794 15.8898 14.1066 15.9051 14.0389 15.934C13.9712 15.9629 13.9099 16.0049 13.8584 16.0576C13.807 16.1103 13.7664 16.1726 13.739 16.2409C13.7117 16.3093 13.6981 16.3824 13.699 16.456C13.6989 16.5524 13.7232 16.6473 13.7697 16.7318C13.8162 16.8163 13.8834 16.8876 13.965 16.939V21.008C13.8952 21.0388 13.8324 21.0833 13.7804 21.139C13.7283 21.1947 13.688 21.2603 13.662 21.332H11.447C11.4209 21.2604 11.3806 21.1948 11.3285 21.1391C11.2764 21.0835 11.2137 21.0389 11.144 21.008V11.214C11.2138 11.1832 11.2766 11.1387 11.3286 11.083C11.3807 11.0273 11.421 10.9617 11.447 10.89H13.373C13.4188 11.018 13.5099 11.1248 13.6292 11.19C13.7485 11.2553 13.8875 11.2745 14.02 11.244L17.448 15.492C17.4239 15.5559 17.4117 15.6237 17.412 15.692C17.4111 15.7656 17.4247 15.8387 17.452 15.9071C17.4794 15.9754 17.52 16.0377 17.5714 16.0904C17.6229 16.1431 17.6842 16.1851 17.7519 16.214C17.8196 16.2429 17.8924 16.2582 17.966 16.259C18.0397 16.2582 18.1125 16.2429 18.1802 16.214C18.248 16.1851 18.3094 16.1431 18.3609 16.0905C18.4125 16.0378 18.4531 15.9755 18.4806 15.9071C18.5081 15.8388 18.5218 15.7657 18.521 15.692C18.5214 15.6006 18.4997 15.5105 18.458 15.4292C18.4162 15.3479 18.3555 15.2779 18.281 15.225V11.215C18.3505 11.1839 18.413 11.1391 18.4647 11.0832C18.5164 11.0274 18.5563 10.9617 18.582 10.89H20.798C20.8236 10.9617 20.8636 11.0275 20.9155 11.0832C20.9675 11.1389 21.0302 11.1834 21.1 11.214V21.008C21.0303 21.0386 20.9675 21.0832 20.9156 21.1389C20.8637 21.1946 20.8237 21.2603 20.798 21.332H18.92C18.8819 21.2243 18.8116 21.131 18.7185 21.0648C18.6254 20.9986 18.5142 20.9627 18.4 20.962ZM18.64 25.009C18.763 25.009 18.863 25.099 18.863 25.211C18.863 25.323 18.763 25.412 18.641 25.412C18.52 25.412 18.421 25.322 18.421 25.212C18.421 25.102 18.52 25.009 18.641 25.009H18.64ZM18.179 21.529C18.179 21.404 18.278 21.303 18.399 21.303C18.523 21.303 18.622 21.403 18.622 21.529C18.6224 21.5585 18.617 21.5877 18.606 21.615C18.595 21.6424 18.5787 21.6673 18.5581 21.6883C18.5375 21.7093 18.5129 21.726 18.4857 21.7375C18.4586 21.7489 18.4295 21.7549 18.4 21.755C18.3706 21.7547 18.3416 21.7487 18.3146 21.7372C18.2876 21.7257 18.2631 21.7089 18.2425 21.6879C18.222 21.6669 18.2058 21.6421 18.1949 21.6148C18.184 21.5875 18.1786 21.5584 18.179 21.529ZM14.032 16.456C14.032 16.33 14.132 16.23 14.254 16.23C14.376 16.23 14.475 16.33 14.475 16.456C14.4754 16.4854 14.47 16.5145 14.4591 16.5418C14.4482 16.5691 14.432 16.5939 14.4115 16.6149C14.3909 16.6359 14.3664 16.6527 14.3394 16.6642C14.3124 16.6757 14.2834 16.6817 14.254 16.682C14.2246 16.6817 14.1955 16.6757 14.1684 16.6642C14.1414 16.6527 14.1168 16.636 14.0962 16.615C14.0756 16.594 14.0593 16.5692 14.0483 16.5419C14.0373 16.5146 14.0317 16.4854 14.032 16.456ZM14.182 21.303C14.304 21.303 14.403 21.403 14.403 21.529C14.4034 21.5584 14.398 21.5875 14.3871 21.6148C14.3762 21.6421 14.36 21.6669 14.3395 21.6879C14.3189 21.7089 14.2944 21.7257 14.2674 21.7372C14.2404 21.7487 14.2114 21.7547 14.182 21.755C14.1525 21.7549 14.1234 21.7489 14.0963 21.7375C14.0691 21.726 14.0445 21.7093 14.0239 21.6883C14.0033 21.6673 13.987 21.6424 13.976 21.615C13.965 21.5877 13.9596 21.5585 13.96 21.529C13.96 21.404 14.06 21.303 14.182 21.303ZM14.398 21.008V17.002C14.4237 16.9954 14.4487 16.9867 14.473 16.976L17.915 21.256C17.8694 21.3397 17.8456 21.4336 17.846 21.529C17.846 21.784 18.011 21.999 18.236 22.071L18.42 24.715C18.3842 24.7272 18.3497 24.743 18.317 24.762L14.724 21.645C14.7513 21.5175 14.7338 21.3845 14.6744 21.2684C14.615 21.1524 14.5174 21.0604 14.398 21.008ZM21.538 21.528C21.5384 21.5574 21.533 21.5866 21.5221 21.614C21.5112 21.6413 21.495 21.6662 21.4745 21.6873C21.454 21.7084 21.4295 21.7252 21.4025 21.7368C21.3755 21.7484 21.3464 21.7546 21.317 21.755C21.2875 21.7549 21.2584 21.7489 21.2313 21.7375C21.2041 21.726 21.1795 21.7093 21.1589 21.6883C21.1383 21.6673 21.122 21.6424 21.111 21.615C21.1 21.5877 21.0946 21.5585 21.095 21.529C21.095 21.404 21.195 21.303 21.317 21.303C21.439 21.303 21.539 21.403 21.539 21.529L21.538 21.528ZM5.828 18.507C5.738 18.524 5.651 18.445 5.633 18.332C5.613 18.219 5.67 18.115 5.76 18.1C5.85 18.084 5.936 18.163 5.956 18.276C5.975 18.388 5.917 18.492 5.828 18.507ZM25.8 12.793C25.873 12.77 25.955 12.824 25.98 12.916C26.008 13.007 25.97 13.101 25.898 13.124C25.825 13.147 25.744 13.092 25.717 13.001C25.69 12.91 25.727 12.816 25.8 12.793Z" fill="black"/>
</g>
<defs>
<clipPath id="clip0_16_2869">
<rect width="32" height="32" fill="white"/>
</clipPath>
</defs>
</svg>
