<svg width="32" height="32" viewBox="0 0 32 32" fill="none" xmlns="http://www.w3.org/2000/svg">
<g clip-path="url(#clip0_16_2871)">
<path d="M16 32C7.163 32 0 24.837 0 16C0 7.163 7.163 0 16 0C24.837 0 32 7.163 32 16C32 24.837 24.837 32 16 32ZM18.586 17.376V13.54C18.1966 13.4194 17.856 13.1774 17.614 12.8494C17.372 12.5214 17.2413 12.1246 17.241 11.717C17.2408 11.3986 17.3202 11.0852 17.4719 10.8053C17.6236 10.5254 17.8428 10.2878 18.1096 10.1141C18.3765 9.94044 18.6825 9.8362 18.9999 9.81086C19.3173 9.78552 19.636 9.83988 19.927 9.969L21.713 8.936L17.194 6.32C16.8311 6.11002 16.4193 5.99945 16 5.99945C15.5807 5.99945 15.1689 6.11002 14.806 6.32L12.533 7.635L13.517 8.185V10.858C13.7974 10.9364 14.0562 11.0779 14.2736 11.2717C14.4909 11.4654 14.6611 11.7063 14.7711 11.9759C14.8811 12.2455 14.928 12.5367 14.9082 12.8272C14.8885 13.1177 14.8025 13.3998 14.657 13.652L18.333 17.473C18.415 17.435 18.499 17.402 18.586 17.375V17.376ZM19.724 17.376C20.1135 17.4963 20.4542 17.7382 20.6963 18.0663C20.9383 18.3944 21.0689 18.7913 21.0689 19.199C21.0689 19.6067 20.9383 20.0036 20.6963 20.3317C20.4542 20.6598 20.1135 20.9017 19.724 21.022V24.214L23.815 21.846C24.1752 21.6378 24.4743 21.3385 24.6823 20.9781C24.8903 20.6178 24.9999 20.2091 25 19.793V12.207C25 11.361 24.549 10.579 23.815 10.154L22.847 9.594L20.816 10.768C20.9581 11.0163 21.0426 11.2933 21.0633 11.5787C21.084 11.864 21.0403 12.1504 20.9354 12.4165C20.8306 12.6827 20.6673 12.922 20.4577 13.1166C20.248 13.3112 19.9972 13.4563 19.724 13.541V17.376ZM17.497 18.245L13.821 14.423C13.7231 14.4692 13.6214 14.5071 13.517 14.536V18.134C13.9187 18.246 14.2727 18.4864 14.5249 18.8184C14.7772 19.1505 14.9138 19.556 14.914 19.973C14.914 20.3373 14.8099 20.694 14.614 21.0011C14.4181 21.3082 14.1385 21.553 13.8082 21.7066C13.4779 21.8602 13.1106 21.9162 12.7495 21.8681C12.3884 21.82 12.0486 21.6697 11.77 21.435L9.94 22.863L14.805 25.679C15.543 26.107 16.455 26.107 17.193 25.679L18.585 24.873V21.023C18.3113 20.9381 18.0602 20.7927 17.8503 20.5976C17.6405 20.4025 17.4772 20.1626 17.3726 19.8958C17.268 19.629 17.2248 19.3421 17.2462 19.0563C17.2675 18.7706 17.3529 18.4933 17.496 18.245H17.497ZM12.379 18.166V14.504C11.627 14.247 11.086 13.535 11.086 12.698C11.086 11.861 11.627 11.148 12.379 10.891V8.851L11.389 8.298L8.185 10.154C7.82477 10.3622 7.52565 10.6615 7.31766 11.0219C7.10966 11.3822 7.00011 11.7909 7 12.207V19.793C7 20.639 7.451 21.421 8.185 21.846L8.882 22.249L11.152 20.474C11.0241 20.0054 11.0799 19.5056 11.3079 19.0767C11.5359 18.6478 11.919 18.3221 12.379 18.166ZM13 13.523C13.111 13.527 13.2216 13.5086 13.3253 13.4689C13.429 13.4293 13.5236 13.3691 13.6035 13.2921C13.6835 13.215 13.7471 13.1227 13.7906 13.0206C13.8341 12.9184 13.8566 12.8086 13.8567 12.6975C13.8569 12.5865 13.8346 12.4766 13.7914 12.3744C13.7481 12.2721 13.6847 12.1796 13.605 12.1024C13.5252 12.0252 13.4307 11.9648 13.3271 11.9249C13.2235 11.8849 13.113 11.8663 13.002 11.87C12.7878 11.8772 12.5847 11.9673 12.4356 12.1213C12.2865 12.2753 12.203 12.4812 12.2027 12.6955C12.2025 12.9099 12.2855 13.116 12.4342 13.2703C12.5829 13.4247 12.7858 13.5153 13 13.523ZM13 20.798C13.111 20.802 13.2216 20.7836 13.3253 20.7439C13.429 20.7043 13.5236 20.6441 13.6035 20.5671C13.6835 20.49 13.7471 20.3977 13.7906 20.2956C13.8341 20.1934 13.8566 20.0836 13.8567 19.9725C13.8569 19.8615 13.8346 19.7516 13.7914 19.6494C13.7481 19.5471 13.6847 19.4546 13.605 19.3774C13.5252 19.3002 13.4307 19.2398 13.3271 19.1999C13.2235 19.1599 13.113 19.1413 13.002 19.145C12.7878 19.1522 12.5847 19.2423 12.4356 19.3963C12.2865 19.5503 12.203 19.7562 12.2027 19.9705C12.2025 20.1849 12.2855 20.391 12.4342 20.5453C12.5829 20.6997 12.7858 20.7903 13 20.798ZM19.155 12.543C19.266 12.547 19.3766 12.5286 19.4803 12.4889C19.584 12.4493 19.6786 12.3891 19.7585 12.3121C19.8385 12.235 19.9021 12.1427 19.9456 12.0406C19.9891 11.9384 20.0116 11.8286 20.0117 11.7175C20.0119 11.6065 19.9896 11.4966 19.9464 11.3944C19.9031 11.2921 19.8397 11.1996 19.76 11.1224C19.6802 11.0452 19.5857 10.9848 19.4821 10.9449C19.3785 10.9049 19.268 10.8863 19.157 10.89C18.9428 10.8972 18.7397 10.9873 18.5906 11.1413C18.4415 11.2953 18.358 11.5012 18.3577 11.7155C18.3575 11.9299 18.4405 12.136 18.5892 12.2903C18.7379 12.4447 18.9408 12.5353 19.155 12.543ZM19.155 20.025C19.3743 20.0253 19.5848 19.9384 19.7401 19.7835C19.8954 19.6286 19.9827 19.4183 19.983 19.199C19.9833 18.9797 19.8964 18.7692 19.7415 18.6139C19.5866 18.4586 19.3763 18.3713 19.157 18.371C18.9377 18.3707 18.7272 18.4576 18.5719 18.6125C18.4166 18.7674 18.3293 18.9777 18.329 19.197C18.3287 19.4163 18.4156 19.6268 18.5705 19.7821C18.7254 19.9374 18.9357 20.0247 19.155 20.025Z" fill="black"/>
</g>
<defs>
<clipPath id="clip0_16_2871">
<rect width="32" height="32" fill="white"/>
</clipPath>
</defs>
</svg>
