<svg width="32" height="32" viewBox="0 0 32 32" fill="none" xmlns="http://www.w3.org/2000/svg">
<g clip-path="url(#clip0_16_2873)">
<path fill-rule="evenodd" clip-rule="evenodd" d="M11.29 8.162L7.823 10.06C7.45001 10.2992 7.13613 10.6199 6.905 10.998C6.64087 11.4305 6.50076 11.9273 6.5 12.434L6.507 15.006L6.5 15V19.566C6.5 20.096 6.655 20.604 6.932 21.044C7.191 21.454 7.557 21.804 8.007 22.051L14.493 25.617C14.9715 25.8782 15.51 26.0099 16.055 25.999V21.676L15.691 21.476L11.275 19.048L10.931 18.845L10.924 18.647V13.602L7.277 15.607L10.924 13.602V13.202L15.68 10.58L15.668 10.568L15.691 10.581L16.055 10.381V6C15.5826 5.99105 15.1143 6.08881 14.685 6.286L11.283 8.156L11.29 8.161V8.162ZM16 32C7.163 32 0 24.837 0 16C0 7.163 7.163 0 16 0C24.837 0 32 7.163 32 16C32 24.837 24.837 32 16 32ZM20.36 13.66L16.053 16.028V20.81L20.36 18.443V13.66ZM25.5 12.434C25.5 11.939 25.365 11.464 25.121 11.044L21.187 13.207V18.886L20.781 19.109V23.816L23.993 22.051C24.4469 21.8033 24.8277 21.4405 25.097 20.999C25.3602 20.567 25.4996 20.0709 25.5 19.565V12.435V12.434ZM23.993 9.95L20.781 8.184L16.447 10.567L20.781 12.949L21.187 13.172V13.208L25.121 11.045C24.8514 10.5844 24.4614 10.2058 23.993 9.95ZM16.055 10.381L16.447 10.566L20.781 8.184L17.507 6.384C17.0613 6.14052 16.5629 6.0094 16.055 6.002V10.382V10.381ZM16.083 21.692L16.055 21.677V26C16.5628 25.9925 17.0612 25.8614 17.507 25.618L20.729 23.846L16.447 21.492L16.083 21.692ZM20.781 19.11L16.447 21.492L20.729 23.846L20.781 23.817V19.11Z" fill="black"/>
</g>
<defs>
<clipPath id="clip0_16_2873">
<rect width="32" height="32" fill="white"/>
</clipPath>
</defs>
</svg>
