<svg width="32" height="32" viewBox="0 0 32 32" fill="none" xmlns="http://www.w3.org/2000/svg">
<g clip-path="url(#clip0_16_2879)">
<path d="M16 32C7.163 32 0 24.837 0 16C0 7.163 7.163 0 16 0C24.837 0 32 7.163 32 16C32 24.837 24.837 32 16 32ZM16 4C9.375 4 4 9.375 4 16C4 22.625 9.375 28 16 28C22.625 28 28 22.625 28 16C28 9.375 22.625 4 16 4ZM15.95 23.62L9.474 19.78V12.112L15.951 8.282L22.427 12.112V19.781L15.951 23.619L15.95 23.62ZM13.025 10.748L12.893 10.83L19 20.48V10.822L15.95 9.014L13.025 10.748ZM12.827 21.03L15.951 22.888L18.803 21.195L12.827 11.751V21.031V21.03ZM10.1 12.482V19.419L12.278 20.709V11.192L10.1 12.482ZM19.552 20.751L21.804 19.419V12.482L19.552 11.151V20.751Z" fill="black"/>
</g>
<defs>
<clipPath id="clip0_16_2879">
<rect width="32" height="32" fill="white"/>
</clipPath>
</defs>
</svg>
