<svg width="32" height="32" viewBox="0 0 32 32" fill="none" xmlns="http://www.w3.org/2000/svg">
<g clip-path="url(#clip0_16_2881)">
<path d="M5 10.16L10.485 13.307V13.319L21.408 19.629V13.316L15.94 10.16L21.407 13.317L10.675 7.127H10.684C10.6202 7.09014 10.5477 7.07073 10.474 7.07073C10.4003 7.07073 10.3278 7.09014 10.264 7.127L5 10.158V10.16ZM10.485 13.327V19.646L21.196 25.826C21.2605 25.861 21.3326 25.8793 21.406 25.8793C21.4794 25.8793 21.5515 25.861 21.616 25.826L26.881 22.792L23.888 21.062L21.408 19.635V19.629V19.635L10.485 13.327ZM23.888 21.062L26.892 22.792V10.403C26.8916 10.3277 26.8709 10.2539 26.8322 10.1894C26.7935 10.1248 26.7382 10.0718 26.672 10.036L21.408 7V19.63L23.888 21.062ZM16 32C7.163 32 0 24.837 0 16C0 7.163 7.163 0 16 0C24.837 0 32 7.163 32 16C32 24.837 24.837 32 16 32ZM5 10.16V22.547C5.00024 22.6224 5.02079 22.6964 5.05951 22.7612C5.09822 22.8259 5.15366 22.8791 5.22 22.915L10.485 25.951V19.646L10.465 19.635V13.315L10.485 13.327V13.319L10.465 13.307V13.315L5 10.16Z" fill="black"/>
</g>
<defs>
<clipPath id="clip0_16_2881">
<rect width="32" height="32" fill="white"/>
</clipPath>
</defs>
</svg>
