<svg width="32" height="32" viewBox="0 0 32 32" fill="none" xmlns="http://www.w3.org/2000/svg">
<g clip-path="url(#clip0_16_2883)">
<path fill-rule="evenodd" clip-rule="evenodd" d="M16 32C7.163 32 0 24.837 0 16C0 7.163 7.163 0 16 0C24.837 0 32 7.163 32 16C32 24.837 24.837 32 16 32ZM20.5 16.842L17.892 16.976L20.218 11.051L13.134 12.027L12.5 18.559H14.05L13.805 26L20.5 16.842ZM15.002 23.34C15.002 23.47 14.892 23.576 14.756 23.576C14.62 23.576 14.509 23.47 14.509 23.34V21.59C14.509 21.46 14.619 21.354 14.756 21.354C14.893 21.354 15.002 21.459 15.002 21.589V23.34ZM13.17 18.054L13.714 12.324C13.7207 12.2691 13.7475 12.2187 13.7893 12.1825C13.831 12.1463 13.8847 12.1269 13.94 12.128H13.98C14.044 12.128 14.104 12.153 14.147 12.198C14.19 12.243 14.211 12.303 14.206 12.363L13.733 17.583H15.143L15.078 20.759C15.0749 20.8294 15.0444 20.8958 14.993 20.944C14.9416 20.9922 14.8734 21.0184 14.803 21.017H14.791C14.717 21.017 14.646 20.988 14.594 20.937C14.542 20.886 14.514 20.818 14.515 20.747L14.579 18.054H13.17ZM13.17 11.454L20.077 10.646L16.694 9.232C16.694 9.232 17.046 6.673 14.72 6L14.509 6.808C14.509 6.808 15.919 7.145 15.778 9.3L13.17 11.454Z" fill="black"/>
</g>
<defs>
<clipPath id="clip0_16_2883">
<rect width="32" height="32" fill="white"/>
</clipPath>
</defs>
</svg>
