<svg width="32" height="32" viewBox="0 0 32 32" fill="none" xmlns="http://www.w3.org/2000/svg">
<g clip-path="url(#clip0_16_2887)">
<path d="M16 0C24.837 0 32 7.163 32 16C32 24.837 24.837 32 16 32C7.163 32 0 24.837 0 16C0 7.163 7.163 0 16 0ZM14.022 16.4C14.022 16.4 11.454 17.952 11.105 20.866C10.755 23.779 12.738 25.66 12.738 25.66C12.738 25.66 15.158 24.391 15.613 21.49C16.068 18.589 14.022 16.4 14.022 16.4ZM20.218 20.877C18.382 19.94 16.476 20.827 16.476 20.827L16.483 20.855C16.548 21.105 17.08 22.937 18.817 23.747C20.554 24.557 22.137 23.823 22.347 23.717L22.371 23.706C22.371 23.706 22.054 21.814 20.218 20.876V20.877ZM10.578 19.157H10.47C10.1 19.164 8.921 19.263 8.115 20.188C7.148 21.3 7.439 22.641 7.439 22.641C7.439 22.641 8.803 22.796 9.81 21.721C10.817 20.645 10.586 19.157 10.578 19.157ZM23.226 18.675C21.756 18.724 20.865 19.94 20.865 19.94C20.865 19.94 21.872 21.059 23.341 20.958C24.811 20.856 25.551 19.701 25.551 19.701C25.551 19.701 24.697 18.627 23.226 18.675ZM23.934 13.817C23.795 13.776 21.264 13.054 18.958 14.735C16.587 16.463 16.485 19.46 16.485 19.46C16.485 19.46 19.398 20.177 21.705 18.364C23.755 16.754 23.927 14.414 23.939 13.915V13.819L23.934 13.817ZM13.06 15.426C13.06 15.426 11.273 14.312 9.34 15.016C7.683 15.62 7.042 17.057 6.892 17.456L6.865 17.532L6.856 17.559C6.856 17.559 8.42 18.669 10.378 18.035C12.338 17.401 13.06 15.425 13.06 15.425V15.426ZM14.926 9.957C12.286 9.64 10.493 11.24 10.18 11.543L10.132 11.591C10.142 11.612 10.162 11.646 10.192 11.696L10.268 11.818C10.666 12.43 11.947 14.097 14.302 14.466C17.201 14.921 19.392 12.873 19.392 12.873C19.392 12.873 17.84 10.307 14.926 9.957ZM18.231 5.709L18.215 5.732C18.082 5.934 17.167 7.412 17.755 9.232C18.39 11.19 20.365 11.913 20.365 11.913C20.365 11.913 21.479 10.128 20.775 8.193C20.07 6.26 18.23 5.71 18.23 5.71L18.231 5.709ZM15.603 6.966C14.492 6 13.15 6.292 13.15 6.292C13.15 6.292 12.995 7.656 14.07 8.662C15.146 9.67 16.634 9.438 16.634 9.438V9.322C16.627 8.952 16.528 7.772 15.602 6.966H15.603Z" fill="black"/>
</g>
<defs>
<clipPath id="clip0_16_2887">
<rect width="32" height="32" fill="white"/>
</clipPath>
</defs>
</svg>
