<svg width="32" height="32" viewBox="0 0 32 32" fill="none" xmlns="http://www.w3.org/2000/svg">
<g clip-path="url(#clip0_16_2891)">
<path fill-rule="evenodd" clip-rule="evenodd" d="M16 32C7.163 32 0 24.837 0 16C0 7.163 7.163 0 16 0C24.837 0 32 7.163 32 16C32 24.837 24.837 32 16 32ZM25.515 14.804C23.997 14.826 17.767 14.812 16.171 14.821C16.112 14.821 16.005 14.931 16.004 14.99C15.992 15.66 15.991 16.329 16.004 16.998C16.006 17.061 16.121 17.176 16.184 17.176C18.578 17.185 20.972 17.183 23.367 17.19C23.41 17.19 23.497 17.285 23.491 17.323C22.848 21.155 19.334 23.9 15.456 23.608C11.178 23.285 7.97 19.54 8.421 15.291C8.755 12.151 10.446 9.921 13.403 8.844C16.326 7.779 18.999 8.405 21.306 10.519C21.338 10.548 21.442 10.552 21.47 10.524C21.9816 10.0216 22.4886 9.51455 22.991 9.003C23.017 8.977 23.021 8.885 22.999 8.863C20.763 6.733 18.107 5.767 15.031 6.047C9.599 6.541 5.531 11.457 6.044 16.874C6.572 22.454 11.402 26.47 16.966 25.956C22.362 25.456 26.43 20.594 25.964 15.216C25.949 15.052 25.92 14.948 25.851 14.885C25.784 14.824 25.68 14.802 25.515 14.805V14.804Z" fill="black"/>
</g>
<defs>
<clipPath id="clip0_16_2891">
<rect width="32" height="32" fill="white"/>
</clipPath>
</defs>
</svg>
