<svg width="32" height="32" viewBox="0 0 32 32" fill="none" xmlns="http://www.w3.org/2000/svg">
<g clip-path="url(#clip0_16_2893)">
<path fill-rule="evenodd" clip-rule="evenodd" d="M16 32C7.163 32 0 24.837 0 16C0 7.163 7.163 0 16 0C24.837 0 32 7.163 32 16C32 24.837 24.837 32 16 32ZM19.261 23.5L19.262 23.498C19.4162 23.501 19.5701 23.4842 19.72 23.448C20.596 23.243 21.337 22.478 21.513 21.652L25 8.556L22.228 8.542L19.942 17.11L13.762 8.513L13.758 8.517L13.761 8.507L12.74 8.5V8.501C12.5856 8.49862 12.4314 8.51507 12.281 8.55C11.406 8.756 10.665 9.521 10.488 10.346L7 23.445L9.773 23.457L12.058 14.889L18.238 23.487H18.241L19.261 23.5ZM12.668 12.606L13.151 10.796L19.332 19.395L18.849 21.205L12.669 12.605L12.668 12.606Z" fill="black"/>
</g>
<defs>
<clipPath id="clip0_16_2893">
<rect width="32" height="32" fill="white"/>
</clipPath>
</defs>
</svg>
