<svg width="32" height="32" viewBox="0 0 32 32" fill="none" xmlns="http://www.w3.org/2000/svg">
<g clip-path="url(#clip0_16_2895)">
<path d="M16 0C24.837 0 32 7.163 32 16C32 24.837 24.837 32 16 32C7.163 32 0 24.837 0 16C0 7.163 7.163 0 16 0ZM15.966 5L15.855 5.014C15.7209 5.04494 15.5957 5.10617 15.489 5.193L6.849 11.613L6.76 11.684C6.67757 11.7621 6.61205 11.8562 6.56749 11.9606C6.52294 12.065 6.50031 12.1775 6.501 12.291V19.713C6.50037 19.846 6.53186 19.9772 6.59279 20.0954C6.65373 20.2136 6.74231 20.3154 6.851 20.392L15.49 26.81C15.765 27.05 16.197 27.068 16.482 26.835C19.373 24.688 22.264 22.541 25.152 20.393C25.2621 20.3172 25.3515 20.2152 25.4121 20.0961C25.4727 19.9769 25.5026 19.8446 25.499 19.711V12.287L25.495 12.179C25.4828 12.0718 25.4491 11.9681 25.3958 11.8743C25.3425 11.7805 25.2708 11.6984 25.185 11.633L16.482 5.168L16.389 5.105C16.2278 5.01125 16.038 4.97926 15.855 5.015L15.966 5ZM15.751 25.028C15.898 25.028 16.047 25.037 16.194 25.05C16.196 25.391 16.196 25.733 16.194 26.074C16.044 26.077 15.894 26.076 15.745 26.074L15.743 25.377L15.746 25.202L15.751 25.028ZM14.041 24.11L14.294 24.112C14.449 24.427 14.656 24.716 14.776 25.049C14.625 25.057 14.475 25.057 14.324 25.059C14.14 24.746 13.968 24.426 13.789 24.111L14.042 24.11H14.041ZM16.768 24.59C16.9147 24.5878 17.0615 24.5912 17.208 24.6C17.211 24.75 17.21 24.9 17.191 25.048H16.771L16.767 24.818L16.768 24.59ZM16.293 22.133L16.509 22.354C16.507 22.844 16.508 23.334 16.509 23.825C16.4453 23.892 16.3826 23.96 16.321 24.029C16.119 24.033 15.917 24.034 15.715 24.028C15.717 23.889 15.7 23.748 15.733 23.612C15.847 23.6 15.961 23.604 16.076 23.603V22.574H15.239L14.401 22.569C14.3992 22.4253 14.3992 22.2817 14.401 22.138C15.031 22.128 15.662 22.138 16.293 22.133ZM19.175 22.543C19.342 22.401 19.494 22.639 19.637 22.709V22.762L19.262 23.004C19.012 23.164 18.76 23.324 18.517 23.496L18.729 23.494L18.898 23.495L19.068 23.498C19.068 23.648 19.068 23.798 19.066 23.948C18.606 23.955 18.147 23.953 17.688 23.949C17.68 23.8078 17.676 23.6664 17.676 23.525C18.166 23.183 18.678 22.875 19.176 22.544L19.175 22.543ZM13.095 22.957L13.99 22.961V23.41L13.094 23.415L12.199 23.412C12.197 23.2613 12.197 23.1107 12.199 22.96L13.095 22.957ZM11.592 22.3L11.814 22.302C11.816 22.452 11.816 22.602 11.814 22.752C11.666 22.755 11.518 22.755 11.37 22.753C11.368 22.603 11.369 22.452 11.371 22.301L11.592 22.3ZM20.185 20.686C20.42 21.045 20.643 21.413 20.885 21.769C20.952 21.739 20.983 21.665 21.025 21.608C21.21 21.304 21.409 21.01 21.595 20.707C21.601 20.932 21.605 21.157 21.599 21.382C21.604 21.466 21.543 21.532 21.505 21.6C21.299 21.91 21.102 22.224 20.9 22.535C20.657 22.167 20.422 21.795 20.182 21.425C20.181 21.178 20.179 20.932 20.185 20.685V20.686ZM18.75 20.133L19.267 21.975H19.05L18.833 21.972C18.709 21.502 18.576 21.036 18.45 20.567L18.214 20.555L17.826 21.975L17.392 21.973L17.654 21.056L17.906 20.136C18.188 20.131 18.469 20.134 18.75 20.133ZM9.998 21.163L10.392 21.164L10.786 21.167C10.788 21.316 10.798 21.465 10.779 21.612C10.389 21.632 9.996 21.622 9.605 21.615C9.60365 21.467 9.60365 21.319 9.605 21.171L9.998 21.164V21.163ZM13.148 20.115C13.273 20.204 13.399 20.291 13.523 20.382C13.134 20.628 12.753 20.886 12.361 21.125C12.93 21.136 13.499 21.124 14.068 21.132C14.071 21.284 14.071 21.436 14.067 21.588C13.224 21.591 12.381 21.595 11.537 21.586C11.5338 21.442 11.5334 21.298 11.536 21.154C12.071 20.804 12.606 20.452 13.148 20.114V20.115ZM15.048 19.781H15.271C15.275 20.346 15.271 20.911 15.274 21.474C15.168 21.479 15.062 21.484 14.956 21.494C14.9112 21.4847 14.8662 21.4764 14.821 21.469C14.824 20.907 14.818 20.344 14.824 19.782L15.048 19.781ZM16.426 20.197C16.61 20.505 16.827 20.811 16.922 21.161L16.482 21.164L16.222 20.694L15.957 20.226C16.114 20.228 16.271 20.218 16.427 20.197H16.426ZM22.385 20.41L22.615 20.412V20.861L22.385 20.863L22.155 20.858C22.1526 20.71 22.1526 20.562 22.155 20.414L22.385 20.41ZM11.597 18.618C11.602 18.863 11.599 19.108 11.601 19.353C11.356 19.717 11.132 20.095 10.881 20.454C10.649 20.094 10.424 19.728 10.181 19.374C10.1775 19.125 10.1785 18.876 10.184 18.627C10.418 18.99 10.652 19.353 10.883 19.717C11.13 19.357 11.352 18.98 11.597 18.618ZM12.747 19.093C12.8937 19.0898 13.0406 19.0932 13.187 19.103C13.191 19.255 13.191 19.407 13.187 19.558C13.0393 19.5594 12.8917 19.5594 12.744 19.558C12.7376 19.403 12.7383 19.2479 12.746 19.093H12.747ZM18.863 17.869C19.341 17.873 19.819 17.869 20.297 17.871L20.514 18.081V19.523H20.296L20.078 19.519C20.077 19.115 20.074 18.711 20.079 18.306H19.075V18.491L19.072 18.675C18.929 18.677 18.785 18.677 18.642 18.677C18.638 18.477 18.639 18.279 18.639 18.079L18.863 17.869ZM7.666 17.582L7.947 17.585C7.949 17.729 7.949 17.874 7.948 18.018L7.598 18.023L7.599 18.538L7.601 19.054C8.154 19.056 8.707 19.051 9.259 19.057C9.262 19.199 9.262 19.341 9.261 19.483H8.359C8.032 19.485 7.705 19.487 7.378 19.478C7.29024 19.4296 7.21966 19.3552 7.176 19.265L7.17 18.775L7.172 17.793L7.278 17.688L7.384 17.583L7.666 17.582ZM17.32 17.962C17.447 18.05 17.572 18.14 17.7 18.226C17.333 18.489 16.942 18.718 16.567 18.971C17.129 18.981 17.69 18.971 18.252 18.977C18.256 19.134 18.256 19.292 18.252 19.449C17.411 19.454 16.571 19.45 15.73 19.45C15.709 19.306 15.709 19.16 15.707 19.015C16.24 18.655 16.788 18.321 17.32 17.961V17.962ZM23.309 17.892C23.436 17.978 23.562 18.069 23.686 18.16L22.533 18.907L23.38 18.909H24.228V19.368C23.388 19.371 22.548 19.371 21.709 19.368C21.7073 19.2213 21.7073 19.0747 21.709 18.928C22.239 18.577 22.774 18.235 23.309 17.892ZM13.359 15.909L13.579 15.911C13.926 16.479 14.283 17.041 14.636 17.604C14.789 17.804 14.698 18.072 14.722 18.305L14.569 18.308L14.247 17.796C14.032 17.456 13.817 17.116 13.614 16.768C13.559 17.334 13.604 17.906 13.586 18.476C13.436 18.477 13.286 18.477 13.138 18.473C13.134 17.619 13.134 16.765 13.138 15.91L13.358 15.909H13.359ZM21.395 16.819L21.542 16.833C21.557 17.358 21.548 17.884 21.546 18.41C21.397 18.413 21.248 18.413 21.099 18.41C21.0941 17.8807 21.0941 17.3513 21.099 16.822C21.247 16.82 21.396 16.81 21.542 16.833L21.395 16.819ZM10.084 17.456C10.598 17.399 11.117 17.444 11.633 17.428C11.766 17.426 11.899 17.432 12.031 17.446C12.033 17.598 12.033 17.751 12.031 17.904C11.382 17.903 10.735 17.907 10.086 17.902C10.0829 17.7534 10.0822 17.6047 10.084 17.456ZM24.074 15.399L24.56 15.406C24.683 15.483 24.821 15.608 24.795 15.772C24.795 16.124 24.792 16.477 24.795 16.829C24.79 16.999 24.798 17.167 24.793 17.337C24.801 17.475 24.763 17.611 24.771 17.749L24.356 17.748V15.84C24.016 15.83 23.676 15.838 23.336 15.835C23.336 15.953 23.336 16.071 23.334 16.19C23.191 16.1922 23.048 16.1928 22.905 16.192C22.9027 15.9973 22.902 15.8027 22.903 15.608L23.099 15.404C23.586 15.399 24.074 15.394 24.56 15.406L24.074 15.399ZM17.238 17.132L17.454 17.134C17.456 17.284 17.456 17.436 17.454 17.588C17.31 17.59 17.166 17.59 17.021 17.588V17.133H17.238V17.132ZM15.328 16.236L15.553 16.238C15.555 16.611 15.554 16.984 15.553 17.358C15.403 17.36 15.253 17.36 15.102 17.356C15.099 16.9837 15.099 16.6113 15.102 16.239L15.328 16.236ZM19.94 16.754L20.627 16.756C20.645 16.892 20.657 17.03 20.644 17.168C20.6 17.258 20.497 17.222 20.419 17.23C20.029 17.218 19.639 17.253 19.252 17.208C19.2487 17.058 19.2493 16.908 19.254 16.758L19.94 16.754ZM18.044 16.737L18.264 16.738C18.267 16.89 18.267 17.042 18.264 17.194H17.823C17.8213 17.042 17.8213 16.89 17.823 16.738L18.043 16.737H18.044ZM9.694 15.422L9.695 16.87H9.241V16.146L9.242 15.422H9.695H9.694ZM11.329 14.847L11.749 14.85C11.917 15.464 12.099 16.075 12.259 16.692L11.838 16.693C11.694 16.219 11.583 15.737 11.435 15.265L11.196 15.282C11.09 15.757 10.939 16.22 10.824 16.692L10.391 16.691C10.563 16.077 10.734 15.462 10.911 14.849L11.329 14.847ZM16.725 14.711L16.792 14.725C16.945 14.777 17.066 14.945 17.046 15.108V16.39L16.825 16.63H16.541L16.257 16.628C16.2555 16.4813 16.2555 16.3347 16.257 16.188L16.612 16.184L16.613 15.174C16.058 15.124 15.498 15.166 14.941 15.151C14.9396 15.0053 14.9396 14.8597 14.941 14.714L16.656 14.713L16.726 14.711H16.725ZM7.823 15.826C7.971 15.823 8.12 15.828 8.268 15.838V16.268C8.118 16.269 7.968 16.27 7.819 16.268C7.818 16.12 7.819 15.973 7.823 15.826ZM18.463 13.981L18.747 13.984C18.752 14.129 18.752 14.274 18.75 14.421C18.63 14.423 18.509 14.423 18.389 14.424V15.459L19.226 15.461L20.064 15.463C20.065 15.61 20.065 15.757 20.061 15.903C19.433 15.907 18.804 15.903 18.175 15.905C18.095 15.799 17.941 15.718 17.961 15.563C17.9581 15.1497 17.9578 14.7363 17.96 14.323C17.94 14.168 18.097 14.088 18.178 13.981H18.463ZM13.63 14.713C13.633 14.867 13.633 15.021 13.63 15.175H12.538L12.533 14.945L12.537 14.714L13.63 14.713ZM22.523 14.182L23.498 14.183V14.641C22.848 14.641 22.198 14.647 21.548 14.638C21.546 14.488 21.545 14.337 21.548 14.186L22.523 14.182ZM20.308 14.182L20.54 14.187C20.542 14.337 20.541 14.487 20.54 14.637C20.3857 14.6422 20.2313 14.6422 20.077 14.637C20.075 14.487 20.075 14.337 20.077 14.187L20.308 14.182ZM8.292 13.242L9.414 13.246L9.416 13.678L9.082 13.9C8.85957 14.0484 8.63385 14.1917 8.405 14.33C8.26 14.277 8.15 14.155 8.026 14.065C8.211 13.946 8.399 13.831 8.578 13.705C8.109 13.702 7.64 13.707 7.171 13.702C7.16872 13.5497 7.16872 13.3973 7.171 13.245L8.292 13.241V13.242ZM11.39 12.873C11.628 12.876 11.864 12.873 12.102 12.877C11.749 13.133 11.374 13.354 11.02 13.607C11.384 13.84 11.742 14.084 12.104 14.319C11.86 14.324 11.616 14.321 11.372 14.322C11.02 14.079 10.655 13.855 10.308 13.604C10.658 13.344 11.031 13.119 11.39 12.874V12.873ZM14.534 13.686L15.504 13.688C15.52 13.838 15.518 13.988 15.498 14.138C14.853 14.14 14.21 14.138 13.566 14.138C13.5649 13.987 13.5646 13.836 13.565 13.685H14.535L14.534 13.686ZM16.159 13.686L16.392 13.69V14.132C16.237 14.136 16.082 14.136 15.926 14.134C15.9246 13.9853 15.9246 13.8367 15.926 13.688L16.159 13.686ZM17.238 12.347L17.454 12.348C17.458 12.831 17.455 13.314 17.455 13.796L17.02 13.798L17.021 12.348H17.238V12.347ZM22.747 13.18L22.971 13.182C22.9751 13.334 22.9751 13.486 22.971 13.638C22.821 13.641 22.671 13.641 22.523 13.638C22.5199 13.4863 22.5199 13.3347 22.523 13.183L22.747 13.18ZM21.032 11.383L21.242 11.403L21.765 13.236H21.333C21.195 12.765 21.078 12.287 20.936 11.816L20.698 11.819L20.509 12.529L20.317 13.236H19.882C20.06 12.627 20.228 12.015 20.399 11.404C20.68 11.401 20.963 11.357 21.243 11.403L21.032 11.383ZM18.763 12.48L18.983 12.483C18.983 12.633 18.983 12.785 18.981 12.936L18.544 12.935L18.543 12.708L18.544 12.481L18.764 12.48H18.763ZM24.083 11.968C24.247 12.278 24.447 12.573 24.57 12.905C24.419 12.91 24.266 12.911 24.115 12.912L23.583 11.972L23.833 11.969L24.083 11.968ZM15.863 10.593L16.078 10.595C16.085 11.235 16.078 11.878 16.082 12.52C16.015 12.584 15.949 12.65 15.884 12.715C15.391 12.72 14.899 12.715 14.407 12.718C14.342 12.654 14.275 12.594 14.217 12.526C14.192 12.329 14.21 12.129 14.21 11.932H14.622L14.625 12.102L14.624 12.272C14.963 12.31 15.304 12.282 15.644 12.29C15.646 11.726 15.641 11.16 15.648 10.596L15.863 10.593ZM12.468 11.654L12.685 11.656C12.689 12.008 12.687 12.361 12.687 12.713C12.54 12.714 12.394 12.715 12.247 12.713C12.246 12.361 12.241 12.008 12.251 11.655H12.468V11.654ZM22.745 11.035L22.969 11.038C22.974 11.522 22.974 12.007 22.969 12.491C22.819 12.494 22.671 12.493 22.522 12.491C22.5176 12.0067 22.5176 11.5223 22.522 11.038L22.745 11.035ZM9.343 11.632L10.316 11.636C10.3195 11.7873 10.3195 11.9387 10.316 12.09C9.666 12.096 9.019 12.095 8.37 12.09C8.36763 11.9387 8.36763 11.7873 8.37 11.636L9.343 11.632ZM11.063 11.636C11.0662 11.788 11.0662 11.94 11.063 12.092C10.916 12.094 10.769 12.093 10.621 12.092C10.6193 11.94 10.6193 11.788 10.621 11.636H11.064H11.063ZM14.273 9.954C14.273 10.196 14.289 10.44 14.268 10.682C14.049 11.064 13.795 11.426 13.559 11.797L13.088 11.07C13.0099 10.9483 12.9339 10.8253 12.86 10.701C12.835 10.456 12.853 10.208 12.854 9.961C13.091 10.327 13.321 10.697 13.561 11.059C13.801 10.692 14.031 10.319 14.273 9.954ZM17.202 8.858L17.418 8.859C17.808 9.476 18.188 10.099 18.581 10.713C18.581 10.9 18.582 11.087 18.578 11.274C18.522 11.2637 18.466 11.2537 18.41 11.244C18.076 10.738 17.769 10.214 17.438 9.706L17.435 11.422L17.21 11.424L16.985 11.422C16.983 10.568 16.981 9.714 16.986 8.86L17.202 8.858ZM11.9 9.338L12.221 9.34L12.543 9.354C12.544 9.496 12.543 9.639 12.542 9.781C12.066 10.071 11.608 10.394 11.125 10.671C10.983 10.617 10.875 10.501 10.758 10.404C11.074 10.209 11.384 10.002 11.703 9.812C11.541 9.804 11.379 9.805 11.218 9.803C11.2148 9.65236 11.2142 9.50167 11.216 9.351C11.336 9.349 11.457 9.35 11.578 9.351L11.9 9.338ZM20.478 10.021L21.544 10.024V10.464C20.834 10.465 20.123 10.466 19.411 10.464V10.024L20.478 10.021ZM15.247 9.517L15.469 9.52C15.472 9.671 15.472 9.821 15.469 9.972C15.321 9.9763 15.173 9.9763 15.025 9.972C15.022 9.822 15.022 9.671 15.025 9.52L15.247 9.517ZM18.999 9.204L19.229 9.208V9.648L18.999 9.651L18.77 9.649C18.7691 9.50167 18.7691 9.35433 18.77 9.207L19 9.204H18.999ZM14.089 7.365L14.322 7.368C14.324 8.031 14.327 8.693 14.32 9.355C14.173 9.359 14.026 9.359 13.879 9.358C13.829 8.698 13.869 8.032 13.859 7.37L14.089 7.365ZM15.791 8.305C15.949 8.619 16.149 8.912 16.277 9.241C16.125 9.248 15.972 9.248 15.82 9.248C15.64 8.938 15.465 8.624 15.293 8.308C15.459 8.304 15.625 8.305 15.791 8.305ZM18.403 8.079L19.019 8.081C19.021 8.234 19.021 8.387 19.019 8.54C18.609 8.544 18.197 8.546 17.786 8.539C17.7843 8.38667 17.7843 8.23433 17.786 8.082L18.403 8.079ZM15.97 6.577L16.655 6.583L16.729 6.64L16.863 6.773L16.861 7.492L16.863 8.21C16.727 8.212 16.59 8.218 16.455 8.209L16.422 8.075C16.422 7.717 16.452 7.359 16.423 7.001H15.417L15.415 7.182L15.414 7.362H14.988C14.989 7.17 14.968 6.976 14.996 6.785C15.072 6.697 15.15 6.56 15.284 6.578H15.97V6.577Z" fill="black"/>
</g>
<defs>
<clipPath id="clip0_16_2895">
<rect width="32" height="32" fill="white"/>
</clipPath>
</defs>
</svg>
