<svg width="32" height="32" viewBox="0 0 32 32" fill="none" xmlns="http://www.w3.org/2000/svg">
<g clip-path="url(#clip0_16_2901)">
<path fill-rule="evenodd" clip-rule="evenodd" d="M16 32C7.163 32 0 24.837 0 16C0 7.163 7.163 0 16 0C24.837 0 32 7.163 32 16C32 24.837 24.837 32 16 32ZM14.403 19.36L14.385 23.852L11.56 22.405L11.625 12.951L16.369 19.174L20.643 21.561L22 20.443V8.779L16.028 6L16.092 12.8L17.505 14.673L17.634 8.477L20.302 9.808V19.688L17.283 17.842L11.818 10.678C11.7655 10.6086 11.6994 10.5507 11.6237 10.5078C11.548 10.465 11.4642 10.4382 11.3777 10.429C11.2912 10.4198 11.2037 10.4285 11.1207 10.4544C11.0377 10.4804 10.9609 10.5232 10.895 10.58L10.212 11.166C10.1457 11.2214 10.0923 11.2907 10.0557 11.369C10.0191 11.4472 10.0001 11.5326 10 11.619V23.337L16 26V21.464L14.403 19.36Z" fill="black"/>
</g>
<defs>
<clipPath id="clip0_16_2901">
<rect width="32" height="32" fill="white"/>
</clipPath>
</defs>
</svg>
