<svg width="32" height="32" viewBox="0 0 32 32" fill="none" xmlns="http://www.w3.org/2000/svg">
<g clip-path="url(#clip0_16_2903)">
<path fill-rule="evenodd" clip-rule="evenodd" d="M10.618 31.072C13.941 30.511 17.804 28.972 21.551 26.539C26.983 23.011 30.795 18.497 31.949 14.719C31.983 15.141 32 15.569 32 16C32 24.837 24.837 32 16 32C14.112 32 12.3 31.673 10.618 31.072ZM2.00502 23.76C0.686176 21.3865 -0.00400722 18.7153 1.75018e-05 16C1.75018e-05 7.163 7.16302 0 16 0C22.12 0 27.437 3.435 30.128 8.483C26.554 6.34 19.226 7.778 12.292 12.281C10.8491 13.2154 9.47706 14.2549 8.18702 15.391C7.8007 15.1065 7.32499 14.9704 6.84667 15.0075C6.36834 15.0445 5.91928 15.2523 5.58137 15.5928C5.24347 15.9334 5.03925 16.3841 5.00596 16.8627C4.97266 17.3413 5.11252 17.8159 5.40002 18.2C3.77702 20.085 2.61102 21.995 2.00602 23.76H2.00502ZM5.75502 18.565C6.1315 18.8647 6.60341 19.0185 7.08417 18.9984C7.56494 18.9783 8.02233 18.7855 8.37246 18.4554C8.72259 18.1254 8.94198 17.6801 8.99039 17.2014C9.0388 16.7226 8.91298 16.2425 8.63602 15.849C9.17602 15.426 9.75002 15.016 10.353 14.624C15.795 11.09 21.598 10.368 23.315 13.011C25.031 15.654 22.011 20.661 16.569 24.196C11.127 27.73 5.32402 28.452 3.60802 25.809C2.47202 24.059 3.41102 21.273 5.75402 18.565H5.75502Z" fill="black"/>
</g>
<defs>
<clipPath id="clip0_16_2903">
<rect width="32" height="32" fill="white"/>
</clipPath>
</defs>
</svg>
