<svg width="32" height="32" viewBox="0 0 32 32" fill="none" xmlns="http://www.w3.org/2000/svg">
<g clip-path="url(#clip0_16_2905)">
<path fill-rule="evenodd" clip-rule="evenodd" d="M16 32C7.163 32 0 24.837 0 16C0 7.163 7.163 0 16 0C24.837 0 32 7.163 32 16C32 24.837 24.837 32 16 32ZM26.082 16.833C26.589 16.833 27 16.46 27 16V14.333C27 13.873 26.59 13.5 26.082 13.5H20.552C20.045 13.5 19.634 13.873 19.634 14.333C19.634 14.793 20.045 15.166 20.552 15.166H25.164V16C25.164 16.46 25.575 16.833 26.082 16.833ZM21.533 16.833H20.833L15.601 13.653C15.4424 13.5521 15.258 13.499 15.07 13.5H13.235C12.728 13.5 12.317 13.873 12.317 14.333C12.317 14.793 12.727 15.166 13.235 15.166H14.777L20.129 18.406C20.256 18.466 20.399 18.5 20.552 18.5H23.368C23.875 18.5 24.286 18.127 24.286 17.666C24.286 17.206 23.876 16.833 23.368 16.833H21.533ZM15.07 16.833H13.516L8.284 13.653C8.12534 13.5521 7.94101 13.499 7.753 13.5H5.918C5.411 13.5 5 13.873 5 14.333C5 14.793 5.41 15.166 5.918 15.166H7.46L12.812 18.406C12.938 18.466 13.082 18.5 13.235 18.5H15.07C15.577 18.5 15.988 18.127 15.988 17.666C15.988 17.206 15.577 16.833 15.07 16.833ZM5.918 16.833C5.411 16.833 5 17.206 5 17.667C5 18.127 5.41 18.5 5.918 18.5H7.753C8.26 18.5 8.671 18.127 8.671 17.667C8.671 17.207 8.26 16.833 7.753 16.833H5.918Z" fill="black"/>
</g>
<defs>
<clipPath id="clip0_16_2905">
<rect width="32" height="32" fill="white"/>
</clipPath>
</defs>
</svg>
