<svg width="32" height="32" viewBox="0 0 32 32" fill="none" xmlns="http://www.w3.org/2000/svg">
<g clip-path="url(#clip0_16_2909)">
<path d="M16 32C7.163 32 0 24.837 0 16C0 7.163 7.163 0 16 0C24.837 0 32 7.163 32 16C32 24.837 24.837 32 16 32ZM27.986 14.669C27.476 14.56 26.97 14.418 26.454 14.304C25.978 14.192 25.505 14.056 25.026 13.953C24.89 13.923 24.753 13.867 24.609 13.878C24.511 13.903 24.433 13.975 24.347 14.028L19.64 16.98C19.549 17.042 19.46 17.103 19.356 17.14C19.412 16.925 19.518 16.73 19.599 16.527L20.319 14.795C20.554 14.249 20.774 13.695 21.013 13.149C21.035 13.094 21.063 13.035 21.047 12.977C20.74 12.885 20.423 12.824 20.114 12.743C19.518 12.598 18.922 12.445 18.326 12.303C18.206 12.275 18.09 12.225 17.967 12.217C17.9425 12.2358 17.9232 12.2606 17.911 12.289L14.378 20.759C14.3566 20.8101 14.3444 20.8646 14.342 20.92C14.537 20.987 14.743 21.02 14.941 21.073C15.642 21.243 16.341 21.419 17.04 21.591C17.17 21.621 17.299 21.675 17.435 21.675C17.511 21.575 17.541 21.449 17.591 21.335C17.937 20.519 18.271 19.698 18.619 18.882C18.677 18.746 18.719 18.604 18.791 18.478C18.914 18.462 19.028 18.515 19.145 18.54C19.963 18.743 20.785 18.938 21.601 19.147C21.823 19.207 22.074 19.289 22.199 19.503C22.299 19.653 22.258 19.845 22.188 19.999L21.261 22.22C21.214 22.343 21.136 22.46 21.13 22.596C21.347 22.669 21.573 22.705 21.793 22.766C22.469 22.936 23.149 23.1 23.825 23.267C23.959 23.297 24.09 23.348 24.226 23.351C24.259 23.3083 24.2859 23.2611 24.306 23.211C24.722 22.206 25.142 21.207 25.56 20.205C25.66 19.954 25.771 19.706 25.824 19.442C25.9218 19.0885 25.8781 18.7108 25.702 18.389C25.518 18.072 25.184 17.883 24.858 17.738C24.505 17.576 24.12 17.501 23.748 17.401C23.7608 17.371 23.7816 17.3451 23.808 17.326C25.201 16.46 26.598 15.602 27.985 14.734V14.67L27.986 14.669ZM16.882 12.97C16.8691 12.7881 16.8142 12.6117 16.7215 12.4547C16.6288 12.2976 16.501 12.1642 16.348 12.065C16.075 11.868 15.758 11.751 15.446 11.637C14.9804 11.4842 14.5083 11.3521 14.031 11.241C12.996 10.991 11.963 10.729 10.927 10.478C10.188 10.2768 9.43767 10.1199 8.68 10.008C8.435 10.002 8.19 9.991 7.945 10.013C7.61202 10.0599 7.29664 10.1914 7.029 10.395C6.8017 10.588 6.61187 10.8212 6.469 11.083C6.302 11.366 6.189 11.676 6.057 11.976L4.428 15.891C4.25 16.297 4.086 16.718 4.033 17.161C4.009 17.401 4.065 17.644 4.192 17.851C4.356 18.101 4.585 18.302 4.854 18.433C5.478 18.739 6.154 18.912 6.826 19.073C7.836 19.327 8.853 19.572 9.863 19.825C10.607 20.003 11.347 20.209 12.107 20.304C12.547 20.374 12.999 20.342 13.424 20.209C13.764 20.079 14.056 19.851 14.265 19.555C14.56 19.157 14.727 18.686 14.919 18.235C15.449 16.957 15.986 15.682 16.518 14.405C16.715 13.953 16.908 13.475 16.882 12.97ZM13.262 13.861C13.282 13.714 13.177 13.588 13.054 13.524C12.804 13.388 12.519 13.338 12.247 13.268C11.525 13.088 10.803 12.91 10.077 12.734C9.87127 12.6737 9.65468 12.66 9.443 12.694C9.198 12.764 9.075 13.012 8.992 13.229C8.582 14.204 8.182 15.181 7.77 16.153C7.725 16.267 7.68 16.381 7.67 16.503C7.67 16.643 7.767 16.765 7.886 16.823C8.065 16.915 8.26 16.966 8.449 17.016L10.704 17.57C10.966 17.631 11.241 17.698 11.509 17.64C11.734 17.567 11.849 17.336 11.932 17.133L13.037 14.482C13.124 14.282 13.235 14.084 13.263 13.862L13.262 13.861Z" fill="black"/>
</g>
<defs>
<clipPath id="clip0_16_2909">
<rect width="32" height="32" fill="white"/>
</clipPath>
</defs>
</svg>
