<svg width="32" height="32" viewBox="0 0 32 32" fill="none" xmlns="http://www.w3.org/2000/svg">
<g clip-path="url(#clip0_16_2921)">
<path d="M16 32C7.163 32 0 24.837 0 16C0 7.163 7.163 0 16 0C24.837 0 32 7.163 32 16C32 24.837 24.837 32 16 32ZM16.346 24.993C16.562 24.972 16.97 24.953 17.372 24.889C19.49 24.549 21.29 23.595 22.707 21.987C24.624 19.811 25.345 17.265 24.847 14.407C24.453 12.149 23.326 10.3 21.513 8.896C19.483 7.323 17.171 6.736 14.633 7.108C12.7951 7.36273 11.0892 8.2062 9.771 9.512C7.676 11.564 6.767 14.067 7.061 16.989C7.19293 18.3105 7.63009 19.5833 8.338 20.707C8.35813 20.7358 8.37109 20.7689 8.37579 20.8037C8.38048 20.8385 8.37678 20.8739 8.365 20.907C8.1573 21.5687 7.81324 22.1795 7.355 22.7C6.645 23.505 7.055 24.747 8.102 24.96C8.488 25.039 8.876 24.985 9.26 24.935C10.1567 24.8109 11.0219 24.5185 11.81 24.073C11.89 24.028 11.95 24.031 12.03 24.07C13.33 24.715 14.707 25.01 16.346 24.993ZM9.916 22.605C10.02 22.38 10.116 22.181 10.206 21.979C10.41 21.51 10.57 21.027 10.685 20.528C10.7228 20.3747 10.7272 20.2151 10.6979 20.06C10.6686 19.9049 10.6062 19.7579 10.515 19.629C10.035 18.911 9.697 18.131 9.551 17.28C9.105 14.697 9.882 12.544 11.895 10.863C12.933 9.996 14.153 9.532 15.505 9.438C17.507 9.3 19.235 9.942 20.657 11.35C21.837 12.519 22.487 13.954 22.562 15.616C22.679 18.211 21.599 20.215 19.429 21.608C18.174 22.413 16.771 22.696 15.284 22.537C14.3802 22.4404 13.5067 22.1553 12.72 21.7C12.349 21.487 12.002 21.5 11.65 21.748C11.1619 22.0976 10.6248 22.3729 10.056 22.565C10.019 22.577 9.981 22.587 9.916 22.605ZM16.007 12.193C15.978 12.245 15.962 12.27 15.948 12.297C15.568 13.065 15.188 13.832 14.811 14.602C14.773 14.679 14.731 14.728 14.639 14.741C14.062 14.82 13.487 14.904 12.911 14.986L11.995 15.118L11.965 15.166C12.005 15.192 12.054 15.211 12.088 15.245C12.686 15.828 13.282 16.412 13.878 16.997C13.934 17.052 13.99 17.098 13.971 17.199C13.847 17.88 13.73 18.563 13.611 19.245L13.507 19.877C13.566 19.849 13.597 19.836 13.628 19.819C14.375 19.427 15.122 19.036 15.866 18.639C15.97 18.583 16.047 18.589 16.148 18.642C16.888 19.039 17.63 19.429 18.372 19.82C18.404 19.837 18.439 19.848 18.485 19.866C18.482 19.826 18.482 19.803 18.479 19.782C18.336 18.937 18.197 18.092 18.047 17.249C18.025 17.126 18.057 17.052 18.141 16.971C18.619 16.513 19.094 16.051 19.568 15.589C19.719 15.442 19.863 15.286 20.018 15.127C19.982 15.119 19.953 15.111 19.924 15.107C19.084 14.985 18.246 14.862 17.406 14.745C17.294 14.73 17.226 14.692 17.176 14.584C16.983 14.169 16.778 13.761 16.576 13.35C16.391 12.973 16.206 12.595 16.007 12.193Z" fill="black"/>
</g>
<defs>
<clipPath id="clip0_16_2921">
<rect width="32" height="32" fill="white"/>
</clipPath>
</defs>
</svg>
