<svg width="32" height="32" viewBox="0 0 32 32" fill="none" xmlns="http://www.w3.org/2000/svg">
<g clip-path="url(#clip0_16_2923)">
<path d="M15.937 10.222L17.947 7.086C18.4627 7.16965 18.9909 7.05123 19.4215 6.75538C19.8521 6.45953 20.1521 6.00903 20.2591 5.49761C20.366 4.9862 20.2716 4.45325 19.9956 4.00965C19.7195 3.56605 19.2831 3.24597 18.777 3.116C18.3739 3.03252 17.9549 3.07357 17.5757 3.2337C17.1965 3.39383 16.8749 3.66547 16.6536 4.01258C16.4323 4.3597 16.3218 4.76589 16.3367 5.17728C16.3516 5.58866 16.4912 5.98579 16.737 6.316L14.243 10.207C13.2022 10.3094 12.1918 10.6158 11.2694 11.1089C10.3471 11.602 9.53101 12.2719 8.86775 13.0805C8.20448 13.8892 7.70706 14.8205 7.40391 15.8215C7.10076 16.8224 6.99783 17.8733 7.101 18.914C7.30904 21.0153 8.34297 22.948 9.9755 24.2873C11.608 25.6265 13.7056 26.2627 15.807 26.056C17.9085 25.8482 19.8414 24.8144 21.1809 23.1818C22.5204 21.5493 23.1567 19.4516 22.95 17.35C22.7705 15.5398 21.9768 13.8455 20.701 12.5487C19.4252 11.252 17.7441 10.4309 15.937 10.222ZM16 32C7.163 32 0 24.837 0 16C0 7.163 7.163 0 16 0C24.837 0 32 7.163 32 16C32 24.837 24.837 32 16 32ZM15.022 22.344C14.4672 22.3445 13.9178 22.2357 13.4052 22.0236C12.8925 21.8116 12.4267 21.5006 12.0344 21.1083C11.642 20.7161 11.3309 20.2504 11.1187 19.7378C10.9066 19.2252 10.7976 18.6758 10.798 18.121C10.7975 17.5661 10.9064 17.0166 11.1185 16.5039C11.3306 15.9912 11.6417 15.5253 12.034 15.133C12.4263 14.7407 12.8922 14.4296 13.4049 14.2175C13.9176 14.0054 14.4671 13.8965 15.022 13.897C15.8801 13.8968 16.7178 14.1582 17.4236 14.6463C18.1293 15.1344 18.6694 15.826 18.972 16.629C18.5751 16.1179 17.9916 15.7852 17.3496 15.704C16.7076 15.6228 16.0596 15.7998 15.548 16.196C15.0367 16.5927 14.7038 17.1763 14.6226 17.8184C14.5414 18.4604 14.7185 19.1085 15.115 19.62C15.3427 19.913 15.6343 20.1502 15.9675 20.3136C16.3007 20.477 16.6667 20.5622 17.0378 20.5629C17.4089 20.5636 17.7752 20.4796 18.109 20.3175C18.4428 20.1553 18.7352 19.9192 18.964 19.627C18.6602 20.4264 18.1204 21.1144 17.4163 21.5997C16.7122 22.085 15.8771 22.3446 15.022 22.344Z" fill="black"/>
</g>
<defs>
<clipPath id="clip0_16_2923">
<rect width="32" height="32" fill="white"/>
</clipPath>
</defs>
</svg>
