<svg width="32" height="32" viewBox="0 0 32 32" fill="none" xmlns="http://www.w3.org/2000/svg">
<g clip-path="url(#clip0_16_2925)">
<path d="M16 32C7.163 32 0 24.837 0 16C0 7.163 7.163 0 16 0C24.837 0 32 7.163 32 16C32 24.837 24.837 32 16 32ZM16.858 25.5C18.146 25.5 18.511 24.306 18.511 23.394C18.511 22.482 18.446 22.069 18.446 21.657C18.446 21.007 18.774 19.384 19.369 18.704C20.528 17.379 21.258 16.192 21.258 14.47C22.266 13.949 24.048 13.471 24.734 12.69C25.42 11.909 26 10.8 26 9.214C26 8.809 25.914 8.237 25.742 7.499C25.347 8.733 24.739 9.579 23.918 10.039C22.717 10.713 21.363 11.212 20.206 11.212H11.794C10.637 11.212 9.284 10.712 8.082 10.039C7.262 9.579 6.653 8.733 6.258 7.499C6.086 8.238 6 8.81 6 9.215C6 10.8 6.58 11.908 7.266 12.689C7.952 13.47 9.734 13.949 10.742 14.469C10.742 16.192 11.472 17.379 12.631 18.704C13.226 19.384 13.554 21.007 13.554 21.657C13.554 22.069 13.489 22.482 13.489 23.394C13.489 24.306 13.854 25.5 15.142 25.5H16.858Z" fill="black"/>
</g>
<defs>
<clipPath id="clip0_16_2925">
<rect width="32" height="32" fill="white"/>
</clipPath>
</defs>
</svg>
