<svg width="32" height="32" viewBox="0 0 32 32" fill="none" xmlns="http://www.w3.org/2000/svg">
<g clip-path="url(#clip0_16_2927)">
<path d="M16 0C24.837 0 32 7.163 32 16C32 24.837 24.837 32 16 32C7.163 32 0 24.837 0 16C0 7.163 7.163 0 16 0ZM16.663 7.55C16.1105 7.51553 15.5559 7.53462 15.007 7.607C14.288 7.67421 13.5836 7.85091 12.918 8.131C12.143 8.511 11.643 9.144 11.643 9.991C11.643 11.091 12.535 11.985 13.637 11.985C13.821 11.985 14.458 11.783 14.61 11.731C15.3278 11.4805 16.0964 11.4116 16.8473 11.5305C17.5983 11.6493 18.3081 11.9521 18.9135 12.412C19.5189 12.8718 20.001 13.4744 20.317 14.1659C20.6329 14.8574 20.7727 15.6163 20.724 16.375C20.6646 17.3197 20.3157 18.2232 19.7248 18.9626C19.1339 19.702 18.3296 20.2416 17.4212 20.5078C16.5129 20.7741 15.5446 20.7541 14.648 20.4507C13.7514 20.1473 12.97 19.5751 12.41 18.812L12.277 18.622L12.176 18.479C11.372 17.271 11.569 15.489 11.568 15.466C11.55 14.9892 11.3619 14.5345 11.0377 14.1844C10.7135 13.8343 10.2746 13.6118 9.80055 13.5573C9.3265 13.5028 8.8486 13.6198 8.45338 13.8872C8.05815 14.1546 7.77174 14.5547 7.646 15.015C7.601 15.182 7.578 15.671 7.585 15.736C7.53456 16.9718 7.75293 18.2038 8.22501 19.3469C8.69709 20.4901 9.41165 21.5172 10.3193 22.3572C11.227 23.1973 12.3062 23.8304 13.4824 24.2128C14.6586 24.5952 15.9038 24.7177 17.132 24.572C19.2501 24.3199 21.1975 23.2851 22.5917 21.6708C23.9859 20.0564 24.7263 17.9792 24.6674 15.8469C24.6086 13.7147 23.7547 11.6815 22.2735 10.1465C20.7923 8.61158 18.7908 7.68581 16.662 7.551L16.663 7.55ZM8.673 10.19C8.33582 10.0338 7.95095 10.0154 7.60044 10.1389C7.24993 10.2623 6.96152 10.5178 6.7967 10.8509C6.63188 11.184 6.60369 11.5683 6.71815 11.9218C6.8326 12.2754 7.08064 12.5702 7.40938 12.7435C7.73812 12.9168 8.12155 12.9548 8.47792 12.8495C8.83429 12.7441 9.1354 12.5037 9.31704 12.1795C9.49869 11.8553 9.5465 11.4729 9.45029 11.114C9.35407 10.755 9.12144 10.4479 8.802 10.258L8.673 10.19ZM9.953 7.599C9.69248 7.4804 9.39597 7.46813 9.12654 7.5648C8.85711 7.66146 8.63603 7.85942 8.51032 8.11658C8.38461 8.37375 8.36419 8.66981 8.45342 8.94179C8.54264 9.21377 8.73445 9.44021 8.98806 9.57294C9.24167 9.70567 9.53706 9.73422 9.81139 9.65251C10.0857 9.57079 10.3174 9.38527 10.457 9.13541C10.5966 8.88554 10.6333 8.59105 10.5592 8.31458C10.485 8.0381 10.3059 7.80146 10.06 7.655L9.953 7.599ZM6.328 7.561C6.14297 7.48188 5.93444 7.47774 5.74641 7.54944C5.55838 7.62115 5.40556 7.76309 5.32019 7.94532C5.23483 8.12755 5.22359 8.33582 5.28885 8.52618C5.35412 8.71654 5.49078 8.8741 5.67 8.96562C5.84923 9.05714 6.05699 9.07545 6.24946 9.0167C6.44193 8.95795 6.60405 8.82673 6.70161 8.65073C6.79917 8.47472 6.82455 8.2677 6.77238 8.07334C6.72021 7.87899 6.59458 7.71249 6.422 7.609L6.328 7.561Z" fill="black"/>
</g>
<defs>
<clipPath id="clip0_16_2927">
<rect width="32" height="32" fill="white"/>
</clipPath>
</defs>
</svg>
