<svg width="32" height="32" viewBox="0 0 32 32" fill="none" xmlns="http://www.w3.org/2000/svg">
<g clip-path="url(#clip0_16_2929)">
<path d="M16 0C24.837 0 32 7.163 32 16C32 24.837 24.837 32 16 32C7.163 32 0 24.837 0 16C0 7.163 7.163 0 16 0ZM10.913 6.003C9.161 6.023 7.505 7.038 6.653 8.564C6.179 9.384 6.001 10.304 6 11.242L6.001 20.429C5.995 21.141 6.026 21.826 6.248 22.509C6.743 24.091 8.078 25.373 9.671 25.819C9.189 25.434 8.976 24.899 8.819 24.32C8.495 23.05 8.47 21.73 8.522 20.43C8.517 17.367 8.524 14.304 8.518 11.242C8.523 10.715 8.562 10.22 8.831 9.754C9.246 9.01 10.055 8.512 10.913 8.524C14.103 8.521 17.298 8.524 20.488 8.522C20.97 8.523 21.408 8.487 21.868 8.662C22.251 8.79522 22.5935 9.02407 22.8632 9.32683C23.1329 9.6296 23.3208 9.99625 23.409 10.392C23.504 10.855 23.479 11.369 23.48 11.842V20.829C23.48 21.27 23.431 21.702 23.242 22.105C22.851 22.924 22.005 23.492 21.089 23.475C18.563 23.479 16.035 23.475 13.509 23.477C13.505 22.653 13.506 21.828 13.509 21.004C15.57 21.004 17.631 21.001 19.692 21.006C20.136 21.03 20.647 20.805 20.852 20.396C20.967 20.186 20.986 19.964 20.991 19.731C20.989 17.234 20.99 14.738 20.99 12.24C21.004 12.0181 20.9537 11.7969 20.8452 11.6028C20.7366 11.4088 20.5744 11.2502 20.378 11.146C20.037 10.946 19.671 10.998 19.292 10.991C16.932 10.997 14.569 10.988 12.21 10.996C11.535 10.979 10.973 11.567 10.994 12.24C10.984 15.828 10.994 19.436 10.989 23.026C11.008 23.739 10.985 24.415 11.398 25.032C11.711 25.542 12.24 25.801 12.81 25.914C13.483 26.023 14.127 25.997 14.804 25.998C16.864 25.998 18.925 25.997 20.987 26C22.012 26.009 23.011 25.676 23.852 25.096C24.755 24.43 25.455 23.511 25.777 22.429C26 21.697 25.996 20.986 26 20.229V11.642C25.996 11.151 25.99 10.649 25.915 10.162C25.7053 8.96097 25.0663 7.87705 24.117 7.112C23.2326 6.39268 22.127 6.00061 20.987 6.002C17.63 6.001 14.27 5.998 10.913 6.002V6.003ZM18.453 13.513V18.487H13.51V13.513H18.455H18.453Z" fill="black"/>
</g>
<defs>
<clipPath id="clip0_16_2929">
<rect width="32" height="32" fill="white"/>
</clipPath>
</defs>
</svg>
