<svg width="32" height="32" viewBox="0 0 32 32" fill="none" xmlns="http://www.w3.org/2000/svg">
<g clip-path="url(#clip0_16_2941)">
<path d="M16 32C7.163 32 0 24.837 0 16C0 7.163 7.163 0 16 0C24.837 0 32 7.163 32 16C32 24.837 24.837 32 16 32ZM11.687 10.062H11.719C14.594 10.125 17.469 10 20.344 10.125C21.062 10.125 21.906 10.469 22.062 11.219C22.312 12.969 20.844 14.563 19.25 14.969C17.5 15.25 15.75 15.156 14.031 15.156C13.6162 16.1777 13.1995 17.1987 12.781 18.219C14.875 18.219 16.969 18.312 19.031 18C20.487 17.6745 21.835 16.9804 22.9458 15.9845C24.0566 14.9885 24.8931 13.724 25.375 12.312C25.875 11 26.094 9.344 25.094 8.188C24.25 7.125 22.75 7.125 21.5 7.03L12.937 7L11.687 10.063V10.062ZM8 10.906V10.937L6.625 14.375H16.813L18.156 10.906H8ZM9.625 15.156H9.656L6 24.531H9.469L13.156 15.156H9.625Z" fill="black"/>
</g>
<defs>
<clipPath id="clip0_16_2941">
<rect width="32" height="32" fill="white"/>
</clipPath>
</defs>
</svg>
