<svg width="32" height="32" viewBox="0 0 32 32" fill="none" xmlns="http://www.w3.org/2000/svg">
<g clip-path="url(#clip0_16_2951)">
<path fill-rule="evenodd" clip-rule="evenodd" d="M16 32C7.163 32 0 24.837 0 16C0 7.163 7.163 0 16 0C24.837 0 32 7.163 32 16C32 24.837 24.837 32 16 32ZM8.41 20.902C8.906 21.409 9.656 21.64 10.667 21.637C12.827 21.637 14.621 19.771 14.621 16.64V16.25C14.621 13.24 13.071 10.988 10.707 10.988C10.143 10.988 9.137 11.009 8.349 11.765H8.26V11.125H6V25H8.312V20.902H8.41ZM12.474 16.826C12.474 18.845 11.609 19.759 10.436 19.762C8.946 19.762 8.187 18.488 8.187 16.823V16.143C8.187 14.396 8.958 12.872 10.396 12.872C11.727 12.872 12.474 14.182 12.474 16.143V16.826ZM15.74 7V21.576H18.055V7H15.74ZM24.669 13.409H24.959L24.946 11.076C24.846 11.076 24.931 11.073 24.827 11.073C23.785 11.058 22.517 11.314 22 11.86H21.912V11.223H19.779V21.585H22.082V15.741C22.082 14.439 23.371 13.409 24.669 13.409ZM23.697 19.095V21.576H26V19.095H23.697Z" fill="black"/>
</g>
<defs>
<clipPath id="clip0_16_2951">
<rect width="32" height="32" fill="white"/>
</clipPath>
</defs>
</svg>
