<svg width="32" height="32" viewBox="0 0 32 32" fill="none" xmlns="http://www.w3.org/2000/svg">
<g clip-path="url(#clip0_16_2961)">
<path fill-rule="evenodd" clip-rule="evenodd" d="M16 32C7.163 32 0 24.837 0 16C0 7.163 7.163 0 16 0C24.837 0 32 7.163 32 16C32 24.837 24.837 32 16 32ZM12.033 18.18H12.305C13.66 18.181 15.015 18.185 16.37 18.182C17.412 18.18 18.446 18.092 19.454 17.814C20.725 17.462 21.864 16.884 22.692 15.851C23.817 14.448 24.188 12.841 23.913 11.089C23.736 9.962 23.099 9.149 22.041 8.678C21.665 8.51943 21.2731 8.40143 20.872 8.326C19.72 8.089 18.545 8.029 17.372 8.014C15.365 7.988 13.356 8.007 11.348 8.001C11.164 8.001 11.133 8.098 11.105 8.239C10.871 9.425 10.627 10.609 10.399 11.797C10.362 11.988 10.286 12.045 10.091 12.039C9.682 12.025 9.272 12.039 8.863 12.036C8.723 12.036 8.656 12.073 8.63 12.223C8.537 12.762 8.426 13.298 8.323 13.835C8.315 13.877 8.317 13.921 8.313 13.995H9.99L8 23.934C8.056 23.954 8.078 23.969 8.1 23.969C8.981 23.979 9.863 23.986 10.745 23.999C10.885 24.001 10.913 23.926 10.934 23.817C11.169 22.6 11.406 21.383 11.644 20.166L12.033 18.18ZM12.588 15.442L12.878 13.986H16.981L17.357 12.048H13.267C13.352 11.608 13.431 11.208 13.511 10.8C13.581 10.794 13.635 10.786 13.688 10.786C15.161 10.79 16.633 10.779 18.105 10.806C18.6317 10.8202 19.1565 10.877 19.674 10.976C20.381 11.104 20.797 11.559 20.914 12.256C20.999 12.757 20.936 13.241 20.686 13.689C20.124 14.697 19.245 15.252 18.088 15.39C17.7833 15.4252 17.4767 15.4419 17.17 15.44C15.737 15.445 14.304 15.442 12.87 15.442H12.588Z" fill="black"/>
</g>
<defs>
<clipPath id="clip0_16_2961">
<rect width="32" height="32" fill="white"/>
</clipPath>
</defs>
</svg>
