<svg width="32" height="32" viewBox="0 0 32 32" fill="none" xmlns="http://www.w3.org/2000/svg">
<g clip-path="url(#clip0_16_2963)">
<path d="M16 32C7.163 32 0 24.837 0 16C0 7.163 7.163 0 16 0C24.837 0 32 7.163 32 16C32 24.837 24.837 32 16 32ZM27.995 15.954C27.986 15.9136 27.9649 15.8768 27.9345 15.8486C27.9042 15.8204 27.866 15.8021 27.825 15.796L25.567 13.533L26.461 10.189C26.4751 10.1364 26.4677 10.0803 26.4405 10.0331C26.4134 9.98583 26.3686 9.95129 26.316 9.937L22.96 9.035L22.12 5.892C22.118 5.87836 22.1147 5.86496 22.11 5.852L22.086 5.765C22.0791 5.73891 22.0672 5.71443 22.0509 5.69296C22.0345 5.67149 22.0141 5.65346 21.9908 5.6399C21.9675 5.62634 21.9417 5.61751 21.915 5.61392C21.8882 5.61034 21.8611 5.61206 21.835 5.619L18.553 6.501L16.116 4.058C16.0769 4.02071 16.025 3.9999 15.971 3.9999C15.917 3.9999 15.8651 4.02071 15.826 4.058L13.418 6.472L10.244 5.619C10.2179 5.61191 10.1906 5.61007 10.1637 5.61358C10.1369 5.6171 10.111 5.6259 10.0876 5.63947C10.0641 5.65305 10.0436 5.67113 10.0272 5.69267C10.0108 5.71422 9.99885 5.7388 9.992 5.765L9.118 9.035L5.763 9.937C5.7368 9.94385 5.71222 9.95582 5.69067 9.97222C5.66913 9.98863 5.65105 10.0091 5.63747 10.0326C5.6239 10.056 5.6151 10.0819 5.61158 10.1087C5.60807 10.1356 5.60991 10.1629 5.617 10.189L6.482 13.425L4.06 15.853C4.02147 15.8916 3.99983 15.9439 3.99983 15.9985C3.99983 16.0531 4.02147 16.1054 4.06 16.144L6.55 18.641L5.686 21.878C5.67193 21.9306 5.67928 21.9867 5.70646 22.0339C5.73363 22.0812 5.77842 22.1157 5.831 22.13L9.039 22.991L9.924 26.301C9.93086 26.3271 9.94279 26.3516 9.95913 26.373C9.97546 26.3945 9.99588 26.4125 10.0192 26.4261C10.0425 26.4397 10.0683 26.4485 10.095 26.4521C10.1218 26.4557 10.1489 26.4539 10.175 26.447L13.457 25.565L15.826 27.94C15.845 27.9592 15.8676 27.9744 15.8924 27.9848C15.9173 27.9952 15.944 28.0005 15.971 28.0005C15.998 28.0005 16.0247 27.9952 16.0496 27.9848C16.0744 27.9744 16.097 27.9592 16.116 27.94L18.513 25.536L21.903 26.447C21.929 26.4541 21.9562 26.456 21.9829 26.4525C22.0096 26.449 22.0354 26.4403 22.0587 26.4268C22.0821 26.4134 22.1025 26.3954 22.1189 26.374C22.1352 26.3525 22.1472 26.3281 22.154 26.302L23.039 22.992L26.248 22.13C26.3006 22.1157 26.3454 22.0812 26.3725 22.0339C26.3997 21.9867 26.4071 21.9306 26.393 21.878L25.499 18.533L27.805 16.221L27.881 16.185C27.9232 16.1652 27.9575 16.1317 27.9782 16.0899C27.9989 16.0481 28.0048 16.0006 27.995 15.955V15.954ZM25.376 18.074L25.205 17.433L26.722 16.726L25.376 18.074ZM25.867 21.501L23.767 20.271V20.27L25.164 18.869L25.867 21.501ZM23.657 20.681L25.667 21.86L23.162 22.533L23.657 20.681ZM21.859 25.817L20.609 23.644L22.582 23.114L21.859 25.817ZM19.355 24.692L20.837 25.735L18.848 25.201L19.355 24.692ZM16.176 27.298V24.908L18.056 25.413L16.176 27.298ZM15.766 24.945V27.298L13.915 25.442L15.766 24.945ZM10.577 25.913L11.759 23.863L13.123 25.23L10.577 25.913ZM9.497 23.114L10.232 23.312L10.062 25.228L9.497 23.114ZM6.407 21.859L8.417 20.666L8.917 22.533L6.407 21.859ZM8.214 20.309L6.212 21.497L6.886 18.977L8.214 20.309ZM4.734 16.239H7.193L6.673 18.183L4.734 16.239ZM6.814 14.664L4.971 15.522L6.605 13.884L6.814 14.664ZM6.142 10.562L8.167 11.736L6.817 13.089L6.142 10.562ZM8.48 11.422L8.467 11.435L6.347 10.205L8.996 9.494L8.48 11.422ZM10.252 6.382L11.423 8.416L9.576 8.912L10.252 6.382ZM12.594 7.298L11.167 6.293L13.083 6.808L12.594 7.298ZM15.766 4.7V7.103L13.876 6.595L15.766 4.7ZM16.176 7.14V4.7L18.096 6.624L16.176 7.14ZM21.572 6.116L20.326 8.279L18.888 6.837L21.572 6.116ZM21.875 8.744L22.02 7.105L22.503 8.912L21.875 8.744ZM25.725 10.204L23.594 11.406L23.083 9.494L25.725 10.204ZM23.8 11.761L25.939 10.553L25.232 13.196L23.8 11.761ZM27.242 15.792H24.963L25.445 13.991L27.242 15.792ZM24.876 16.203H26.867L25.097 17.028L24.876 16.203ZM24.566 17.275L24.652 16.955L24.719 17.205L24.566 17.275ZM24.428 17.793L24.827 17.607L25.041 18.409L23.979 19.474L24.428 17.793ZM23.187 20.85L22.704 22.655L20.904 23.138L23.187 20.85ZM20.32 23.143L18.76 20.434L23.943 18.019L23.399 20.056L20.32 23.143ZM20.232 23.813L21.194 25.483L19.65 24.396L20.232 23.813ZM19.141 24.038L19.532 23.932L19.309 24.156L19.141 24.038ZM18.624 24.176L19.014 24.451L18.391 25.077L16.831 24.657L18.624 24.176ZM15.247 24.658L13.58 25.106L12.36 23.882L15.247 24.658ZM10.69 22.79L10.987 23.088L10.671 23.003L10.69 22.79ZM10.311 22.41L10.269 22.895L9.374 22.655L8.942 21.038L10.311 22.41ZM8.15 19.663L7.008 18.518L7.426 16.955L8.15 19.663ZM7.125 15.828H5.288L6.921 15.067L7.125 15.828ZM7.589 14.755L7.426 15.367L7.299 14.891L7.589 14.755ZM7.728 14.238L7.191 14.488L6.94 13.548L8.268 12.216L7.728 14.238ZM9.06 10.84L9.453 9.371L10.919 8.977L9.06 10.84ZM11.744 8.15L10.824 6.554L12.3 7.593L11.744 8.15ZM12.904 8.018L12.291 8.183L12.641 7.833L12.904 8.018ZM13.421 7.879L12.935 7.537L13.541 6.931L15.247 7.389L13.421 7.879ZM16.831 7.389L18.431 6.959L19.601 8.133L16.831 7.389ZM21.408 9.363L20.973 8.927L21.436 9.051L21.408 9.363ZM21.786 9.743L21.838 9.159L22.625 9.371L23.068 11.028L21.786 9.743ZM23.86 12.403L25.11 13.656L24.652 15.366L23.86 12.403ZM18.086 19.264L19.673 16.436L20.671 18.125C20.6932 18.1621 20.7267 18.1912 20.7665 18.2082C20.8063 18.2251 20.8504 18.2291 20.8926 18.2194C20.9348 18.2098 20.9728 18.187 21.0012 18.1544C21.0297 18.1218 21.0471 18.0811 21.051 18.038L21.214 16.204H24.429L24.082 17.502L18.554 20.077L18.086 19.264ZM17.302 20.661L17.852 19.681L18.181 20.251L17.302 20.661ZM13.816 20.291L14.336 19.388L17.566 19.352L16.633 21.015C16.6119 21.0529 16.6032 21.0965 16.6083 21.1395C16.6134 21.1826 16.6319 21.223 16.6613 21.2549C16.6906 21.2868 16.7293 21.3087 16.7718 21.3173C16.8144 21.3259 16.8585 21.3209 16.898 21.303L18.387 20.609L19.986 23.386L18.703 23.73L13.816 20.291ZM13.61 20.648L18.186 23.869L16.039 24.446L12.041 23.372L13.61 20.648ZM13.859 19.393L13.479 20.053L12.562 19.408L13.859 19.393ZM11.269 16.239H12.284L13.904 18.981L11.921 19.004C11.8772 19.004 11.8346 19.018 11.7994 19.044C11.7642 19.0699 11.7382 19.1065 11.7252 19.1483C11.7123 19.1901 11.713 19.2349 11.7274 19.2762C11.7417 19.3176 11.7689 19.3532 11.805 19.378L13.273 20.41L11.671 23.192L10.737 22.257L11.269 16.239ZM10.859 16.239L10.359 21.877L8.729 20.244L7.659 16.239H10.859ZM12.041 15.828H11.306L11.402 14.746L12.041 15.828ZM13.491 12.006L14.001 12.891L12.433 15.684L11.431 13.987C11.4089 13.9495 11.3755 13.9199 11.3355 13.9027C11.2955 13.8855 11.2511 13.8814 11.2087 13.8911C11.1662 13.9008 11.128 13.9237 11.0994 13.9566C11.0709 13.9895 11.0536 14.0306 11.05 14.074L10.895 15.828H7.728L8.075 14.53L13.491 12.006ZM13.285 11.649L8.213 14.012L8.848 11.635L11.656 8.82L13.285 11.649ZM18.292 11.811L17.809 12.649L14.587 12.685L15.523 11.017C15.5441 10.9791 15.5528 10.9355 15.5477 10.8925C15.5426 10.8494 15.5241 10.809 15.4947 10.7771C15.4654 10.7452 15.4267 10.7234 15.3842 10.7147C15.3416 10.7061 15.2975 10.7111 15.258 10.729L13.658 11.475L12.046 8.675L13.342 8.326L18.292 11.811ZM18.498 11.453L13.858 8.188L16.039 7.602L20.089 8.69L18.498 11.453ZM18.286 12.643L18.629 12.048L19.456 12.631L18.286 12.643ZM20.802 16.204L20.699 17.366L20.013 16.204H20.802ZM14.234 12.474L13.864 11.832L14.854 11.372L14.234 12.474ZM17.797 18.941C17.79 18.94 17.784 18.938 17.777 18.938L14.379 18.976L12.675 16.093L14.355 13.099L17.681 13.062L17.686 13.073L19.431 16.027L17.797 18.941ZM21.739 10.277L23.28 11.822L24.342 15.793H21.25L21.739 10.277ZM20.839 15.793H19.769L18.153 13.056L20.098 13.035C20.1417 13.0348 20.1841 13.0206 20.2192 12.9946C20.2543 12.9685 20.2801 12.932 20.2929 12.8903C20.3057 12.8485 20.3049 12.8038 20.2905 12.7625C20.2762 12.7213 20.249 12.6857 20.213 12.661L18.835 11.691L20.414 8.948L21.361 9.898L20.839 15.793ZM21.472 8.636L20.712 8.431L21.632 6.833L21.472 8.636ZM10.634 23.42L11.418 23.63L10.469 25.278L10.634 23.42Z" fill="black"/>
</g>
<defs>
<clipPath id="clip0_16_2963">
<rect width="32" height="32" fill="white"/>
</clipPath>
</defs>
</svg>
