<svg width="32" height="32" viewBox="0 0 32 32" fill="none" xmlns="http://www.w3.org/2000/svg">
<g clip-path="url(#clip0_16_2965)">
<path fill-rule="evenodd" clip-rule="evenodd" d="M16 32C7.163 32 0 24.837 0 16C0 7.163 7.163 0 16 0C24.837 0 32 7.163 32 16C32 24.837 24.837 32 16 32ZM9 7.5V16.709C9 21.759 12.75 26.142 17.883 25.335C20.898 20.915 18.289 14.068 11.823 10.22C19.95 13.579 21.611 19.66 20.734 24.713C20.687 24.979 20.625 25.24 20.565 25.5C22.047 24.472 22.752 23.486 23.415 21.683C25.756 15.206 21.093 7.947 9 7.5Z" fill="black"/>
</g>
<defs>
<clipPath id="clip0_16_2965">
<rect width="32" height="32" fill="white"/>
</clipPath>
</defs>
</svg>
