<svg width="32" height="32" viewBox="0 0 32 32" fill="none" xmlns="http://www.w3.org/2000/svg">
<g clip-path="url(#clip0_16_2967)">
<path fill-rule="evenodd" clip-rule="evenodd" d="M16 32C7.163 32 0 24.837 0 16C0 7.163 7.163 0 16 0C24.837 0 32 7.163 32 16C32 24.837 24.837 32 16 32ZM23.312 7.044C23.195 6.92334 23.055 6.82741 22.9002 6.7619C22.7454 6.69638 22.5791 6.66263 22.411 6.66263C22.2429 6.66263 22.0766 6.69638 21.9218 6.7619C21.767 6.82741 21.627 6.92334 21.51 7.044L19.183 9.43L16.2 6.377C16.1395 6.31461 16.0725 6.25895 16 6.211C15.7763 6.05251 15.5032 5.9794 15.2303 6.0049C14.9573 6.0304 14.7025 6.15282 14.512 6.35L14.487 6.376H14.486L14.485 6.378L6.861 14.197C6.8566 14.2022 6.85192 14.2072 6.847 14.212L6.831 14.227C6.391 14.677 6.391 15.408 6.831 15.859L9.137 18.213C9.577 18.656 10.283 18.653 10.719 18.206C10.929 17.989 11.0469 17.6993 11.0482 17.3974C11.0495 17.0955 10.9341 16.8048 10.726 16.586L9.276 15.103L15.281 8.943L18.399 12.138C18.781 12.528 19.369 12.615 19.841 12.348C19.968 12.2841 20.0836 12.1996 20.183 12.098L23.313 8.89C23.5519 8.64213 23.6854 8.31127 23.6854 7.967C23.6854 7.62273 23.5519 7.29187 23.313 7.044H23.312ZM25.17 16.146L25.142 16.117L25.139 16.115L25.137 16.113L22.864 13.788C22.7606 13.6829 22.6372 13.5996 22.5011 13.5429C22.365 13.4863 22.2189 13.4574 22.0715 13.4581C21.9241 13.4587 21.7783 13.4889 21.6427 13.5467C21.5071 13.6046 21.3845 13.689 21.282 13.795C21.072 14.012 20.9541 14.3017 20.9528 14.6036C20.9515 14.9055 21.0669 15.1962 21.275 15.415L22.725 16.898L16.731 23.042L13.605 19.844C13.4629 19.6966 13.2851 19.5882 13.089 19.5294C12.8928 19.4705 12.6848 19.4632 12.485 19.508C12.236 19.558 12.007 19.684 11.829 19.87L8.699 23.078C8.375 23.407 8.248 23.888 8.365 24.34C8.483 24.792 8.827 25.145 9.269 25.265C9.711 25.385 10.18 25.255 10.502 24.923L12.815 22.545L15.732 25.529C15.8306 25.6645 15.9576 25.7767 16.1042 25.8579C16.2508 25.939 16.4134 25.9871 16.5806 25.9987C16.7477 26.0104 16.9154 25.9853 17.0718 25.9252C17.2282 25.8651 17.3696 25.7715 17.486 25.651L25.14 17.803C25.1447 17.7977 25.1497 17.7927 25.155 17.788L25.171 17.773C25.3831 17.5553 25.5018 17.2633 25.5016 16.9593C25.5014 16.6553 25.3824 16.3635 25.17 16.146Z" fill="black"/>
</g>
<defs>
<clipPath id="clip0_16_2967">
<rect width="32" height="32" fill="white"/>
</clipPath>
</defs>
</svg>
