<svg width="32" height="32" viewBox="0 0 32 32" fill="none" xmlns="http://www.w3.org/2000/svg">
<g clip-path="url(#clip0_16_2969)">
<path d="M16 32C7.163 32 0 24.837 0 16C0 7.163 7.163 0 16 0C24.837 0 32 7.163 32 16C32 24.837 24.837 32 16 32ZM16.049 8.316C17.365 8.316 18.431 7.583 18.431 6.678C18.431 5.773 17.365 5.04 16.049 5.04C14.733 5.04 13.666 5.773 13.666 6.678C13.666 7.583 14.733 8.316 16.049 8.316ZM14.816 26.6C14.816 26.796 14.989 26.975 15.186 26.975H16.853C17.049 26.975 17.2 26.796 17.2 26.6V19.52H20.128C20.324 19.52 20.464 19.352 20.464 19.156V9.448C20.464 9.251 20.325 9.104 20.128 9.104H14.816V26.601V26.6ZM13.92 19.519V9.104H11.91C11.713 9.104 11.536 9.251 11.536 9.448V19.156C11.536 19.352 11.713 19.52 11.909 19.52H13.92V19.519Z" fill="black"/>
</g>
<defs>
<clipPath id="clip0_16_2969">
<rect width="32" height="32" fill="white"/>
</clipPath>
</defs>
</svg>
