<svg width="32" height="32" viewBox="0 0 32 32" fill="none" xmlns="http://www.w3.org/2000/svg">
<g clip-path="url(#clip0_16_2975)">
<path d="M16 32C7.163 32 0 24.837 0 16C0 7.163 7.163 0 16 0C24.837 0 32 7.163 32 16C32 24.837 24.837 32 16 32ZM15.22 26.804C15.272 26.791 15.261 26.754 15.23 26.657C15.077 26.19 14.114 22.715 14.131 22.692C14.149 22.68 14.341 22.709 14.564 22.762C15.165 22.891 16.239 22.932 16.876 22.844C20 22.424 22.47 19.959 22.885 16.847C22.925 16.537 22.937 16.029 22.92 15.574C22.885 14.704 22.896 14.762 21.921 11.334C21.553 10.038 21.063 8.292 20.823 7.463L20.403 5.971C20.487 6.009 20.573 6.049 20.66 6.091C23.895 7.644 26.102 10.587 26.745 14.201C26.861 14.885 26.844 17.185 26.715 17.851C26.365 19.615 25.688 21.151 24.66 22.523C24.204 23.13 23.153 24.181 22.54 24.643C21.174 25.664 19.51 26.388 17.886 26.669C17.138 26.802 16.097 26.855 15.22 26.804ZM11.64 25.931C9.89699 25.164 8.38319 23.9572 7.247 22.429C6.435 21.326 5.95 20.374 5.559 19.077C4.485 15.557 5.296 11.685 7.708 8.847C9.162 7.136 11.264 5.839 13.436 5.331C14.441 5.098 14.774 5.063 16.076 5.069C16.33 5.069 16.538 5.069 16.716 5.072C16.744 5.216 16.979 6.068 17.267 7.077C17.582 8.187 17.822 9.115 17.799 9.139C17.775 9.168 17.547 9.145 17.296 9.086C16.677 8.952 15.258 8.952 14.646 9.086C12.38 9.582 10.663 10.931 9.688 12.976C9.41048 13.5697 9.21405 14.198 9.104 14.844C9.016 15.369 9.028 16.596 9.121 17.121C9.168 17.361 9.495 18.599 9.857 19.866C10.213 21.133 10.745 23.001 11.031 24.012C11.317 25.022 11.585 25.874 11.621 25.915C11.6271 25.9206 11.6334 25.926 11.64 25.931ZM14.213 27.836C14.973 27.942 17.466 27.912 18.061 27.79C19.019 27.591 20.309 27.2 20.701 26.996C20.759 26.966 21.081 26.809 21.419 26.639C23.393 25.659 25.139 24.012 26.371 21.968C26.523 21.717 27.025 20.712 27.025 20.66C27.0562 20.5627 27.0929 20.4672 27.135 20.374C27.439 19.708 27.836 18.149 27.925 17.267C28.14 15.217 27.865 13.32 27.077 11.328C27.0072 11.1428 26.9274 10.9615 26.838 10.785C26.7247 10.5949 26.6196 10.4001 26.523 10.201C26.3989 9.95859 26.262 9.72293 26.113 9.495C26.038 9.395 25.973 9.296 25.973 9.267C25.973 9.244 25.903 9.145 25.822 9.039C25.74 8.94 25.542 8.689 25.384 8.479C24.981 7.953 24.053 7.019 23.492 6.575C22.832 6.05 22.792 6.026 22.207 5.665C20.999 4.928 19.574 4.374 18.237 4.123C17.401 3.965 14.593 3.959 13.769 4.117C10.984 4.637 8.339 6.237 6.599 8.45C6.4 8.707 6.207 8.952 6.172 8.993C6.143 9.028 5.985 9.279 5.822 9.547C5.664 9.81 5.512 10.067 5.477 10.114C5.355 10.312 5.027 10.978 4.928 11.253C4.88825 11.374 4.83772 11.4911 4.777 11.603C4.73 11.667 4.461 12.537 4.491 12.537C4.47939 12.5867 4.45944 12.634 4.432 12.677C4.392 12.753 4.304 13.08 4.245 13.407C4.181 13.728 4.105 14.155 4.065 14.347C4.029 14.546 4 15.247 4 15.982C4 17.18 4.012 17.326 4.181 18.149C4.339 18.937 4.619 19.912 4.777 20.245C4.806 20.309 4.882 20.496 4.946 20.654C5.419 21.886 6.546 23.521 7.673 24.601C9.15 26.015 11.124 27.118 12.981 27.568C13.238 27.626 13.489 27.696 13.541 27.714C13.594 27.737 13.898 27.79 14.213 27.836ZM16.835 19.486C16.374 19.603 15.533 19.591 15.048 19.463C13.436 19.031 12.362 17.635 12.356 15.983C12.35 14.896 12.672 14.126 13.448 13.349C13.991 12.806 14.4 12.579 15.171 12.385C17.045 11.912 19.036 13.133 19.521 15.048C19.638 15.498 19.632 16.391 19.515 16.853C19.2 18.085 18.102 19.165 16.835 19.486Z" fill="black"/>
</g>
<defs>
<clipPath id="clip0_16_2975">
<rect width="32" height="32" fill="white"/>
</clipPath>
</defs>
</svg>
