<svg width="32" height="32" viewBox="0 0 32 32" fill="none" xmlns="http://www.w3.org/2000/svg">
<g clip-path="url(#clip0_16_2983)">
<path d="M16 32C7.163 32 0 24.837 0 16C0 7.163 7.163 0 16 0C24.837 0 32 7.163 32 16C32 24.837 24.837 32 16 32ZM16.49 5.003C16.317 5.003 16.144 4.996 15.971 5.004C15.469 5.029 15.109 5.387 15.095 5.868C15.081 6.354 15.411 6.737 15.909 6.793C16.563 6.867 17.231 6.869 17.871 7.006C22.149 7.92 25.111 11.538 25.209 15.926C25.222 16.521 25.569 16.904 26.099 16.906C26.639 16.906 27.031 16.502 26.999 15.902C26.961 15.222 26.925 14.535 26.791 13.871C25.772 8.839 21.619 5.279 16.49 5.003ZM15.532 27C15.789 26.983 16.056 27.002 16.302 26.941C16.686 26.846 16.938 26.399 16.883 25.999C16.825 25.576 16.477 25.281 16.043 25.236C15.283 25.156 14.507 25.126 13.771 24.944C9.691 23.938 6.848 20.32 6.775 16.116C6.7743 15.9135 6.72744 15.7137 6.638 15.532C6.458 15.195 6.046 15.044 5.691 15.135C5.265 15.245 4.971 15.575 5.002 16.036C5.052 16.789 5.105 17.549 5.247 18.288C6.181 23.121 10.609 26.852 15.532 27ZM15.984 11.997C13.35 12.005 11.438 14.527 12.137 17.073C12.605 18.777 14.223 20.029 15.939 20.013C16.485 20.009 16.888 19.631 16.892 19.12C16.896 18.618 16.52 18.25 15.985 18.221C15.8236 18.213 15.6631 18.1923 15.505 18.159C14.352 17.91 13.612 16.759 13.841 15.577C14.065 14.42 15.185 13.638 16.337 13.834C16.8494 13.9128 17.3175 14.1698 17.659 14.5598C18.0006 14.9497 18.1935 15.4477 18.204 15.966C18.218 16.35 18.364 16.636 18.704 16.809C19.331 17.129 20.009 16.663 20.004 15.922C19.989 13.775 18.161 11.99 15.984 11.997ZM23.539 15.754C23.509 15.471 23.488 15.224 23.456 14.977C22.991 11.32 19.785 8.48 16.114 8.473C15.504 8.471 15.102 8.823 15.097 9.361C15.092 9.898 15.492 10.251 16.093 10.279C18.551 10.396 20.284 11.595 21.297 13.83C21.603 14.506 21.724 15.23 21.731 15.976C21.736 16.466 22.047 16.825 22.485 16.896C22.904 16.966 23.334 16.731 23.465 16.327C23.525 16.137 23.519 15.925 23.539 15.754ZM8.478 16.215C8.50811 18.0162 9.20133 19.743 10.425 21.065C11.91 22.683 13.767 23.508 15.969 23.528C16.385 23.532 16.689 23.322 16.828 22.963C17.074 22.325 16.623 21.763 15.848 21.743C14.712 21.717 13.6095 21.3528 12.6816 20.6969C11.7537 20.041 11.0425 19.1232 10.639 18.061C10.3959 17.424 10.2679 16.7488 10.261 16.067C10.249 15.348 9.608 14.91 8.996 15.193C8.531 15.407 8.426 15.808 8.478 16.215ZM20.012 19.035C19.968 18.929 19.934 18.715 19.812 18.585C19.3521 18.0828 18.8717 17.5997 18.372 17.137C18.033 16.827 17.479 16.895 17.169 17.227C16.864 17.555 16.834 18.078 17.145 18.41C17.595 18.892 18.062 19.36 18.545 19.807C18.813 20.054 19.152 20.078 19.485 19.922C19.822 19.765 19.975 19.482 20.012 19.035Z" fill="black"/>
</g>
<defs>
<clipPath id="clip0_16_2983">
<rect width="32" height="32" fill="white"/>
</clipPath>
</defs>
</svg>
