<svg width="32" height="32" viewBox="0 0 32 32" fill="none" xmlns="http://www.w3.org/2000/svg">
<g clip-path="url(#clip0_16_2985)">
<path fill-rule="evenodd" clip-rule="evenodd" d="M16 32C7.163 32 0 24.837 0 16C0 7.163 7.163 0 16 0C24.837 0 32 7.163 32 16C32 24.837 24.837 32 16 32ZM25.628 21.209C25.5279 21.2111 25.4327 21.2526 25.363 21.3245C25.2934 21.3964 25.2549 21.4929 25.256 21.593V22.745H20.454L20.442 22.014C23.203 20.012 24.388 16.396 23.372 13.076C22.354 9.756 19.369 7.5 15.994 7.5C12.619 7.5 9.634 9.756 8.617 13.076C7.6 16.396 8.785 20.012 11.547 22.014H11.558L11.546 22.732H6.744V21.58C6.744 21.368 6.578 21.196 6.372 21.196C6.166 21.196 6 21.368 6 21.58V23.488H12.279L12.303 21.828C12.3031 21.7524 12.2815 21.6784 12.241 21.6146C12.2004 21.5508 12.1425 21.5 12.074 21.468C12.052 21.4268 12.0187 21.3928 11.978 21.37C10.098 20.035 8.975 17.83 8.978 15.474C8.978 12.029 11.335 9.062 14.609 8.384C17.884 7.707 21.167 9.506 22.456 12.685C23.745 15.865 22.681 19.539 19.914 21.469C19.883 21.4949 19.8548 21.5241 19.83 21.556C19.7887 21.591 19.7554 21.6345 19.7325 21.6835C19.7095 21.7325 19.6974 21.7859 19.697 21.84L19.721 23.5H26V21.593C26.0011 21.4929 25.9626 21.3964 25.893 21.3245C25.8233 21.2526 25.7281 21.2111 25.628 21.209ZM20.67 16.033C20.5164 15.8342 20.3522 15.6439 20.178 15.463C20.352 15.283 20.516 15.093 20.67 14.893C21.498 13.841 21.75 12.912 21.39 12.268C21.114 11.785 20.526 11.525 19.673 11.525C19.1374 11.5381 18.6054 11.617 18.089 11.76C17.633 10.113 16.876 9.06 16.012 9.06C15.148 9.06 14.392 10.113 13.923 11.748C13.4067 11.6046 12.8747 11.5254 12.339 11.512C11.486 11.512 10.898 11.772 10.622 12.255C10.262 12.899 10.514 13.828 11.342 14.881C11.496 15.081 11.66 15.271 11.834 15.451C10.682 16.677 10.178 17.878 10.622 18.646C10.898 19.129 11.486 19.389 12.339 19.389C12.8746 19.3759 13.4066 19.297 13.923 19.154C14.379 20.789 15.136 21.842 16 21.842C16.864 21.842 17.62 20.789 18.089 19.154C18.6054 19.297 19.1374 19.3759 19.673 19.389C20.526 19.389 21.114 19.129 21.39 18.646C21.75 18.027 21.498 17.086 20.67 16.033ZM19.685 11.983C20.154 11.983 20.765 12.07 20.994 12.491C21.246 12.949 20.994 13.705 20.31 14.584C20.166 14.757 20.01 14.943 19.842 15.116C19.412 14.708 18.959 14.328 18.485 13.977C18.4302 13.3775 18.338 12.782 18.209 12.194C18.6918 12.0698 19.1868 11.999 19.685 11.983ZM17.045 17.321C16.7071 17.5257 16.3583 17.7116 16 17.878C15.2903 17.5255 14.6083 17.1197 13.96 16.664C13.931 16.2603 13.9146 15.8557 13.911 15.451C13.911 15.03 13.923 14.621 13.959 14.237C14.271 14.014 14.595 13.804 14.956 13.593C15.294 13.388 15.642 13.202 16 13.036C16.348 13.209 16.696 13.395 17.044 13.593C17.393 13.803 17.729 14.014 18.041 14.237C18.065 14.621 18.089 15.03 18.089 15.451C18.089 15.871 18.077 16.268 18.041 16.665C17.7171 16.8962 17.3845 17.115 17.044 17.321H17.045ZM17.993 17.284C17.933 17.754 17.861 18.188 17.777 18.597C17.3635 18.4694 16.9584 18.3161 16.564 18.138C16.804 18.015 17.044 17.878 17.284 17.73C17.524 17.581 17.753 17.432 17.993 17.284ZM15.46 18.138C15.064 18.314 14.66 18.468 14.247 18.597C14.1457 18.1647 14.0735 17.726 14.031 17.284C14.259 17.432 14.499 17.581 14.739 17.73L15.46 18.138ZM13.491 16.305C13.144 16.04 12.811 15.755 12.495 15.451C12.809 15.145 13.142 14.86 13.491 14.596C13.479 14.881 13.467 15.154 13.467 15.451C13.467 15.748 13.479 16.033 13.491 16.305ZM14.031 13.643C14.091 13.172 14.163 12.738 14.247 12.33C14.66 12.457 15.065 12.61 15.46 12.788C15.22 12.912 14.98 13.048 14.727 13.197C14.4888 13.3358 14.2566 13.4846 14.031 13.643ZM16.552 12.788C16.948 12.612 17.352 12.459 17.765 12.33C17.866 12.762 17.938 13.2 17.981 13.643C17.7467 13.4916 17.5107 13.343 17.273 13.197C17.033 13.048 16.793 12.912 16.553 12.788H16.552ZM18.533 14.608C18.879 14.871 19.208 15.156 19.517 15.463C19.217 15.748 18.881 16.033 18.533 16.318C18.545 16.045 18.557 15.76 18.557 15.463C18.557 15.166 18.545 14.893 18.533 14.609V14.608ZM16.012 9.531C16.612 9.531 17.248 10.398 17.657 11.871C17.095 12.048 16.546 12.263 16.012 12.514C15.4787 12.2627 14.9292 12.0475 14.367 11.87C14.776 10.398 15.4 9.53 16.012 9.53V9.531ZM11.03 12.491C11.27 12.07 11.87 11.983 12.339 11.983C12.837 11.993 13.333 12.064 13.815 12.193C13.6862 12.7814 13.594 13.3772 13.539 13.977C13.063 14.325 12.609 14.705 12.182 15.115C12.0191 14.9393 11.863 14.7575 11.714 14.57C11.018 13.717 10.766 12.949 11.03 12.49V12.491ZM12.339 18.931C11.87 18.931 11.259 18.844 11.03 18.423C10.73 17.878 11.138 16.888 12.17 15.785C12.598 16.2 13.056 16.581 13.539 16.925C13.594 17.525 13.686 18.12 13.815 18.707C13.335 18.847 12.838 18.922 12.339 18.931ZM16.012 21.383C15.412 21.383 14.776 20.516 14.367 19.043C14.929 18.865 15.4785 18.6498 16.012 18.399C16.5455 18.6498 17.095 18.865 17.657 19.043C17.248 20.516 16.612 21.383 16.012 21.383ZM20.994 18.423C20.754 18.844 20.154 18.931 19.685 18.931C19.1863 18.9207 18.6908 18.8501 18.209 18.721C18.338 18.133 18.429 17.537 18.485 16.937C18.961 16.589 19.415 16.208 19.842 15.797C20.01 15.971 20.166 16.157 20.31 16.33C20.994 17.21 21.246 17.977 20.994 18.423ZM16.012 13.643C15.046 13.649 14.267 14.462 14.272 15.459C14.276 16.456 15.062 17.261 16.028 17.259C16.994 17.257 17.777 16.448 17.777 15.451C17.77 14.451 16.982 13.643 16.012 13.643ZM16.012 16.801C15.296 16.801 14.715 16.202 14.715 15.463C14.715 14.724 15.296 14.126 16.012 14.126C16.728 14.126 17.309 14.724 17.309 15.463C17.303 16.2 16.726 16.795 16.012 16.801Z" fill="black"/>
</g>
<defs>
<clipPath id="clip0_16_2985">
<rect width="32" height="32" fill="white"/>
</clipPath>
</defs>
</svg>
