<svg width="32" height="32" viewBox="0 0 32 32" fill="none" xmlns="http://www.w3.org/2000/svg">
<g clip-path="url(#clip0_16_2987)">
<path fill-rule="evenodd" clip-rule="evenodd" d="M16 32C7.163 32 0 24.837 0 16C0 7.163 7.163 0 16 0C24.837 0 32 7.163 32 16C32 24.837 24.837 32 16 32ZM23.313 16C23.3143 14.5876 22.9043 13.2053 22.133 12.022L25 9.154L22.846 7L19.978 9.868C18.832 9.123 17.468 8.687 16 8.687C14.532 8.687 13.168 9.123 12.022 9.867L9.154 7L7 9.154L9.868 12.022C9.123 13.168 8.687 14.532 8.687 16C8.687 17.468 9.124 18.832 9.868 19.978L7 22.846L9.154 25L12.022 22.132C13.168 22.877 14.532 23.313 16 23.313C17.468 23.313 18.832 22.877 19.978 22.132L22.846 25L25 22.846L22.132 19.978C22.9037 18.7948 23.314 17.4126 23.313 16ZM11.5 16C11.5 13.519 13.519 11.5 16 11.5C18.481 11.5 20.5 13.519 20.5 16C20.5 16.653 20.357 17.272 20.106 17.833L17.136 14.863L14.864 17.136L17.834 20.106C17.2574 20.3656 16.6323 20.4999 16 20.5C14.8069 20.4987 13.6631 20.0241 12.8195 19.1805C11.9759 18.3369 11.5013 17.1931 11.5 16Z" fill="black"/>
</g>
<defs>
<clipPath id="clip0_16_2987">
<rect width="32" height="32" fill="white"/>
</clipPath>
</defs>
</svg>
