<svg width="32" height="32" viewBox="0 0 32 32" fill="none" xmlns="http://www.w3.org/2000/svg">
<g clip-path="url(#clip0_16_2993)">
<path fill-rule="evenodd" clip-rule="evenodd" d="M16 32C7.163 32 0 24.837 0 16C0 7.163 7.163 0 16 0C24.837 0 32 7.163 32 16C32 24.837 24.837 32 16 32ZM11.47 7.661C10.4599 7.661 9.49122 8.06225 8.77698 8.77648C8.06275 9.49072 7.6615 10.4594 7.6615 11.4695C7.6615 12.4796 8.06275 13.4483 8.77698 14.1625C9.49122 14.8767 10.4599 15.278 11.47 15.278C12.4801 15.278 13.4488 14.8767 14.163 14.1625C14.8772 13.4483 15.2785 12.4796 15.2785 11.4695C15.2785 10.4594 14.8772 9.49072 14.163 8.77648C13.4488 8.06225 12.4801 7.661 11.47 7.661ZM15.277 20.531C15.277 19.1378 15.8304 17.8017 16.8156 16.8166C17.8007 15.8314 19.1368 15.278 20.53 15.278C21.2832 15.278 22.0194 15.0547 22.6456 14.6362C23.2718 14.2178 23.7599 13.6231 24.0481 12.9273C24.3364 12.2314 24.4118 11.4658 24.2648 10.7271C24.1179 9.98842 23.7552 9.3099 23.2227 8.77734C22.6901 8.24478 22.0116 7.8821 21.2729 7.73517C20.5342 7.58824 19.7686 7.66365 19.0727 7.95187C18.3769 8.24009 17.7822 8.72817 17.3638 9.35439C16.9453 9.98061 16.722 10.7168 16.722 11.47C16.722 14.37 14.37 16.723 11.469 16.723C10.7158 16.723 9.97961 16.9463 9.35339 17.3648C8.72717 17.7832 8.23909 18.3779 7.95087 19.0737C7.66265 19.7696 7.58724 20.5352 7.73417 21.2739C7.8811 22.0126 8.24378 22.6911 8.77634 23.2237C9.3089 23.7562 9.98742 24.1189 10.7261 24.2658C11.4648 24.4128 12.2304 24.3374 12.9263 24.0491C13.6221 23.7609 14.2168 23.2728 14.6352 22.6466C15.0537 22.0204 15.277 21.2842 15.277 20.531ZM20.53 24.339C21.0301 24.3391 21.5253 24.2406 21.9873 24.0493C22.4493 23.858 22.8692 23.5776 23.2228 23.224C23.5765 22.8705 23.857 22.4507 24.0484 21.9887C24.2399 21.5267 24.3384 21.0316 24.3385 20.5315C24.3386 20.0314 24.2401 19.5362 24.0488 19.0742C23.8575 18.6122 23.5771 18.1923 23.2235 17.8387C22.87 17.485 22.4502 17.2045 21.9882 17.0131C21.5262 16.8216 21.0311 16.7231 20.531 16.723C19.5211 16.723 18.5525 17.1242 17.8383 17.8383C17.1242 18.5525 16.723 19.5211 16.723 20.531C16.723 21.5409 17.1242 22.5095 17.8383 23.2237C18.5525 23.9378 19.5211 24.339 20.531 24.339H20.53ZM20.53 21.679C20.2255 21.679 19.9335 21.5581 19.7182 21.3428C19.5029 21.1275 19.382 20.8355 19.382 20.531C19.382 20.2265 19.5029 19.9345 19.7182 19.7192C19.9335 19.504 20.2255 19.383 20.53 19.383C20.8345 19.383 21.1265 19.504 21.3418 19.7192C21.5571 19.9345 21.678 20.2265 21.678 20.531C21.678 20.8355 21.5571 21.1275 21.3418 21.3428C21.1265 21.5581 20.8345 21.679 20.53 21.679ZM11.47 21.679C11.1655 21.679 10.8735 21.5581 10.6582 21.3428C10.4429 21.1275 10.322 20.8355 10.322 20.531C10.322 20.2265 10.4429 19.9345 10.6582 19.7192C10.8735 19.504 11.1655 19.383 11.47 19.383C11.7745 19.383 12.0665 19.504 12.2818 19.7192C12.4971 19.9345 12.618 20.2265 12.618 20.531C12.618 20.8355 12.4971 21.1275 12.2818 21.3428C12.0665 21.5581 11.7745 21.679 11.47 21.679ZM20.53 12.617C20.2255 12.617 19.9335 12.4961 19.7182 12.2808C19.5029 12.0655 19.382 11.7735 19.382 11.469C19.382 11.1645 19.5029 10.8725 19.7182 10.6572C19.9335 10.4419 20.2255 10.321 20.53 10.321C20.8345 10.321 21.1265 10.4419 21.3418 10.6572C21.5571 10.8725 21.678 11.1645 21.678 11.469C21.678 11.7735 21.5571 12.0655 21.3418 12.2808C21.1265 12.4961 20.8345 12.617 20.53 12.617ZM11.47 12.617C11.1655 12.617 10.8735 12.4961 10.6582 12.2808C10.4429 12.0655 10.322 11.7735 10.322 11.469C10.322 11.1645 10.4429 10.8725 10.6582 10.6572C10.8735 10.4419 11.1655 10.321 11.47 10.321C11.7745 10.321 12.0665 10.4419 12.2818 10.6572C12.4971 10.8725 12.618 11.1645 12.618 11.469C12.618 11.7735 12.4971 12.0655 12.2818 12.2808C12.0665 12.4961 11.7745 12.617 11.47 12.617Z" fill="black"/>
</g>
<defs>
<clipPath id="clip0_16_2993">
<rect width="32" height="32" fill="white"/>
</clipPath>
</defs>
</svg>
