<svg width="32" height="32" viewBox="0 0 32 32" fill="none" xmlns="http://www.w3.org/2000/svg">
<g clip-path="url(#clip0_16_3005)">
<path d="M16 0C24.837 0 32 7.163 32 16C32 24.837 24.837 32 16 32C7.163 32 0 24.837 0 16C0 7.163 7.163 0 16 0ZM25.432 20.42L14.906 26.506L15.113 26.616L16.663 25.731L16.882 26.094L18.448 25.178L18.668 25.558L25.432 21.653V20.421V20.42ZM25.432 18.699L13.406 25.636L13.627 25.763L15.177 24.861L15.381 25.241L18.448 23.471L18.668 23.836L25.432 19.931V18.7V18.699ZM25.432 16.976L11.92 24.783L12.142 24.893L13.691 24.009L13.895 24.372L18.448 21.748L18.668 22.111L25.432 18.209V16.976ZM25.432 15.254L10.434 23.914L10.641 24.041L12.205 23.139L12.409 23.519L18.449 20.026L18.667 20.389L25.432 16.487V15.254ZM25.432 13.547L8.95 23.06L9.154 23.187L10.704 22.286L10.923 22.649L18.447 18.303L18.667 18.683L25.431 14.763V13.546L25.432 13.547ZM25.432 11.824L7.465 22.192L7.669 22.318L9.187 21.448L9.408 21.812L18.448 16.582L18.668 16.959L25.432 13.04V11.824ZM24.896 10.402L6.5 21.037V21.273L9.218 19.709L9.44 20.072L18.494 14.842L18.701 15.206L25.431 11.335V10.719L25.115 10.529L24.895 10.402H24.896ZM23.41 9.549L6.5 19.315V19.551L9.218 17.987L9.44 18.35L18.494 13.12L18.701 13.5L24.47 10.166L24.04 9.912L23.632 9.674L23.41 9.549ZM21.924 8.694L6.5 17.593V17.829L9.218 16.265L9.44 16.628L17.008 12.265L17.216 12.631L22.984 9.296L22.555 9.057L22.129 8.807L21.924 8.694ZM20.438 7.824L6.5 15.872V16.122L9.218 14.544L9.44 14.922L15.476 11.431L15.681 11.794L21.498 8.444L21.072 8.206L20.642 7.952L20.438 7.826V7.824ZM18.952 6.972L6.5 14.146V14.399L9.218 12.835L9.44 13.198L13.99 10.575L14.195 10.94L20.012 7.588L19.586 7.335L19.159 7.099L18.952 6.972ZM17.452 6.102L6.5 12.442V12.678L9.218 11.114L9.44 11.477L12.504 9.709L12.712 10.072L18.526 6.72L18.1 6.484L17.673 6.23L17.452 6.104V6.102ZM15.966 5.25L6.5 10.719V10.955L9.218 9.39L9.44 9.753L11.004 8.852L11.226 9.215L17.026 5.865L16.599 5.612L16.171 5.376L15.966 5.249V5.25Z" fill="black"/>
</g>
<defs>
<clipPath id="clip0_16_3005">
<rect width="32" height="32" fill="white"/>
</clipPath>
</defs>
</svg>
