<svg width="32" height="32" viewBox="0 0 32 32" fill="none" xmlns="http://www.w3.org/2000/svg">
<g clip-path="url(#clip0_16_3007)">
<path fill-rule="evenodd" clip-rule="evenodd" d="M16 32C7.163 32 0 24.837 0 16C0 7.163 7.163 0 16 0C24.837 0 32 7.163 32 16C32 24.837 24.837 32 16 32ZM25.893 20.662L17.25 5.436C17.1739 5.30312 17.0639 5.19278 16.9313 5.1162C16.7987 5.03961 16.6481 4.99952 16.495 5C16.3419 4.99952 16.1913 5.03961 16.0587 5.1162C15.9261 5.19278 15.8161 5.30312 15.74 5.436L7.11 20.663C7.00137 20.855 6.97299 21.0821 7.03106 21.2948C7.08912 21.5076 7.22892 21.6888 7.42 21.799L16.057 26.879C16.1917 26.9577 16.345 26.9992 16.501 26.9992C16.657 26.9992 16.8103 26.9577 16.945 26.879L25.581 21.803C25.772 21.693 25.9118 21.512 25.97 21.2995C26.0283 21.0869 26.0002 20.86 25.892 20.668L25.894 20.662H25.893ZM20.583 16.312C20.3071 15.5343 19.8101 14.8542 19.153 14.355L19.145 14.348C19.0756 14.2955 19.0045 14.2451 18.932 14.197L18.918 14.187C18.8465 14.1401 18.7738 14.0951 18.7 14.052L18.68 14.04C18.6076 13.998 18.5332 13.9597 18.457 13.925L18.435 13.913C18.3571 13.8764 18.2784 13.8414 18.199 13.808L18.173 13.798C17.9161 13.6913 17.6495 13.6096 17.377 13.554C17.22 13.8388 17.018 14.0964 16.779 14.317C17.3404 14.3618 17.8827 14.5412 18.36 14.84L18.387 14.856L18.519 14.946L18.579 14.988C18.619 15.018 18.656 15.048 18.697 15.078L18.764 15.132C18.8 15.162 18.833 15.192 18.867 15.223L18.935 15.288L19.028 15.382L19.096 15.455L19.179 15.552L19.244 15.633L19.319 15.733C19.344 15.766 19.361 15.792 19.381 15.821C19.401 15.85 19.427 15.888 19.448 15.923L19.506 16.019C19.524 16.051 19.546 16.087 19.564 16.121C19.584 16.154 19.6 16.191 19.618 16.227C19.635 16.263 19.652 16.293 19.667 16.327C19.6857 16.3714 19.7037 16.4161 19.721 16.461C19.8159 16.6978 19.883 16.9448 19.921 17.197L20.03 17.601C20.076 17.769 20.501 19.257 21.486 19.758C22.615 20.337 24.11 21.052 24.698 21.335L16.932 25.895V22.77C16.932 22.277 17.932 21.7 18.395 21.497L18.422 21.482C18.517 21.435 18.612 21.384 18.702 21.33L18.741 21.31C18.9413 21.1893 19.1319 21.0533 19.311 20.903L19.359 20.86L19.414 20.811C19.4703 20.7604 19.5253 20.7084 19.579 20.655L19.607 20.628C19.666 20.569 19.725 20.513 19.777 20.444L19.826 20.388C19.87 20.336 19.912 20.283 19.953 20.229L19.989 20.184C20.039 20.118 20.085 20.05 20.131 19.981L20.147 19.961C20.209 19.864 20.264 19.767 20.322 19.666C20.1042 19.4031 19.9176 19.1159 19.766 18.81C19.704 18.983 19.626 19.151 19.536 19.312C19.498 19.382 19.458 19.45 19.418 19.516L19.4 19.543C19.3623 19.5991 19.3229 19.6541 19.282 19.708L19.246 19.754C19.2053 19.8066 19.1626 19.8576 19.118 19.907L19.094 19.935C18.8047 20.251 18.4591 20.5104 18.075 20.7L18.002 20.737C17.805 20.824 16.069 21.594 16.069 22.765V25.891L8.279 21.323C8.78 21.017 10.244 20.165 11.448 19.79C11.919 19.646 12.919 20.263 13.486 20.716L13.52 20.746C13.595 20.816 13.674 20.883 13.756 20.946L13.784 20.971C13.964 21.115 14.156 21.244 14.357 21.358L14.492 21.431L14.519 21.445C14.65 21.511 14.784 21.571 14.921 21.624L14.981 21.647L15.021 21.663C15.218 21.735 15.421 21.791 15.626 21.833C15.7873 21.5446 15.9955 21.2851 16.242 21.065C15.9134 21.0407 15.5898 20.97 15.281 20.855L15.228 20.835L15.126 20.794L15.074 20.772L14.975 20.726C14.7457 20.6148 14.5294 20.4786 14.33 20.32L14.02 20.044C13.7354 19.7989 13.4272 19.5825 13.1 19.398C12.33 18.968 11.686 18.828 11.192 18.98C10.162 19.298 9.002 19.916 8.294 20.324L16.072 6.607V12.614C16.072 12.827 15.752 13.383 14.683 13.855L14.609 13.895C14.505 13.945 14.404 13.999 14.305 14.057L14.285 14.067C13.956 14.2612 13.6541 14.4979 13.387 14.771L13.377 14.781C13.2758 14.8851 13.18 14.9942 13.09 15.108L13.079 15.123C13.0355 15.1785 12.9932 15.2348 12.952 15.292L12.938 15.312C12.9009 15.3659 12.8649 15.4206 12.83 15.476L12.818 15.493C12.7828 15.5497 12.7491 15.6074 12.717 15.666L12.694 15.707C12.665 15.763 12.636 15.823 12.607 15.875L12.594 15.902C12.5682 15.9547 12.5439 16.008 12.521 16.062L12.496 16.122C12.473 16.178 12.452 16.238 12.431 16.292L12.411 16.352C12.3957 16.3949 12.3817 16.4383 12.369 16.482C12.362 16.506 12.354 16.529 12.348 16.554C12.2906 16.7548 12.2488 16.9598 12.223 17.167L12.213 17.26C12.2083 17.3022 12.2046 17.3446 12.202 17.387C12.2 17.43 12.202 17.472 12.195 17.514C12.188 17.557 12.195 17.566 12.195 17.594V17.689C12.195 17.899 12.211 18.109 12.243 18.318C12.578 18.3997 12.9022 18.5206 13.209 18.678C13.1148 18.3761 13.0643 18.0622 13.059 17.746V17.689C13.059 17.613 13.059 17.538 13.068 17.458V17.398C13.068 17.333 13.081 17.267 13.09 17.202V17.174C13.1003 17.1017 13.1144 17.0299 13.132 16.959L13.144 16.904C13.159 16.844 13.174 16.786 13.193 16.727L13.205 16.689C13.225 16.62 13.25 16.553 13.276 16.486L13.296 16.441C13.318 16.386 13.342 16.331 13.367 16.276L13.386 16.234C13.417 16.169 13.451 16.106 13.486 16.043L13.505 16.012C13.5365 15.9578 13.5695 15.9044 13.604 15.852L13.629 15.815C13.67 15.755 13.712 15.699 13.757 15.637L13.765 15.627C13.808 15.572 13.853 15.519 13.899 15.467L13.924 15.437C14.135 15.205 14.377 15.002 14.644 14.834L15.012 14.664C15.209 14.577 16.937 13.786 16.937 12.614V6.607L24.776 20.427C24.076 20.09 22.846 19.495 21.886 19.007C21.338 18.727 20.964 17.74 20.868 17.386L20.762 16.971C20.7228 16.7483 20.6652 16.5292 20.59 16.316L20.582 16.312H20.583Z" fill="black"/>
</g>
<defs>
<clipPath id="clip0_16_3007">
<rect width="32" height="32" fill="white"/>
</clipPath>
</defs>
</svg>
