<svg width="32" height="32" viewBox="0 0 32 32" fill="none" xmlns="http://www.w3.org/2000/svg">
<g clip-path="url(#clip0_16_3009)">
<path d="M16 0C24.837 0 32 7.163 32 16C32 24.837 24.837 32 16 32C7.163 32 0 24.837 0 16C0 7.163 7.163 0 16 0ZM23.027 16.24C23.0105 16.2117 22.9884 16.1871 22.9621 16.1675C22.9358 16.148 22.9058 16.134 22.874 16.1263C22.8421 16.1186 22.8091 16.1175 22.7768 16.1229C22.7444 16.1284 22.7136 16.1403 22.686 16.158L21.446 16.963C21.3919 16.9981 21.3535 17.0528 21.3387 17.1156C21.324 17.1784 21.3341 17.2445 21.367 17.3L22.455 19.145C22.4712 19.1728 22.4761 19.2057 22.4687 19.237C22.4612 19.2683 22.442 19.2955 22.415 19.313L16.065 23.438C16.0456 23.4509 16.0228 23.4578 15.9995 23.4578C15.9762 23.4578 15.9534 23.4509 15.934 23.438L9.585 19.313C9.55838 19.2952 9.53947 19.268 9.53205 19.2368C9.52463 19.2057 9.52926 19.1729 9.545 19.145L10.634 17.3C10.6669 17.2445 10.677 17.1784 10.6623 17.1156C10.6475 17.0528 10.6091 16.9981 10.555 16.963L9.315 16.158C9.28742 16.1403 9.25655 16.1284 9.22425 16.1229C9.19194 16.1175 9.15887 16.1186 9.12702 16.1263C9.09516 16.134 9.06519 16.148 9.03889 16.1675C9.0126 16.1871 8.99052 16.2117 8.974 16.24L7.07 19.468C7.00411 19.5788 6.98355 19.7108 7.01262 19.8363C7.04168 19.9619 7.11813 20.0714 7.226 20.142L15.736 25.672C15.8148 25.7235 15.9069 25.751 16.001 25.751C16.0951 25.751 16.1872 25.7235 16.266 25.672L24.776 20.142C24.8829 20.0706 24.9585 19.9611 24.9873 19.8358C25.0162 19.7105 24.996 19.5789 24.931 19.468L23.027 16.24ZM16.564 5.75H15.436C15.3508 5.75028 15.2672 5.77274 15.1934 5.81518C15.1196 5.85762 15.0581 5.91856 15.015 5.992L10.231 14.103C10.1982 14.1586 10.1883 14.2248 10.2032 14.2876C10.2181 14.3504 10.2567 14.405 10.311 14.44L11.55 15.245C11.5776 15.2628 11.6086 15.2749 11.641 15.2804C11.6734 15.286 11.7066 15.2849 11.7386 15.2772C11.7705 15.2695 11.8006 15.2555 11.827 15.2358C11.8534 15.2162 11.8755 15.1914 11.892 15.163L15.895 8.377C15.9058 8.35876 15.9212 8.34364 15.9396 8.33314C15.958 8.32264 15.9788 8.31712 16 8.31712C16.0212 8.31712 16.042 8.32264 16.0604 8.33314C16.0788 8.34364 16.0942 8.35876 16.105 8.377L20.108 15.163C20.178 15.283 20.335 15.32 20.45 15.245L21.69 14.44C21.7439 14.4047 21.7822 14.35 21.7967 14.2872C21.8112 14.2244 21.8009 14.1584 21.768 14.103L16.984 5.992C16.941 5.9187 16.8797 5.85785 16.806 5.81543C16.7324 5.773 16.649 5.75045 16.564 5.75Z" fill="black"/>
</g>
<defs>
<clipPath id="clip0_16_3009">
<rect width="32" height="32" fill="white"/>
</clipPath>
</defs>
</svg>
