<svg width="32" height="32" viewBox="0 0 32 32" fill="none" xmlns="http://www.w3.org/2000/svg">
<g clip-path="url(#clip0_16_3011)">
<path d="M16 0C24.837 0 32 7.163 32 16C32 24.837 24.837 32 16 32C7.163 32 0 24.837 0 16C0 7.163 7.163 0 16 0ZM23.073 7.5H10.296C9.263 7.5 8.5 8.28 8.5 9.346V22.676C8.49433 23.1043 8.65085 23.5189 8.93815 23.8366C9.22545 24.1544 9.62228 24.3517 10.049 24.389L10.219 24.395C10.4457 24.3988 10.6708 24.3569 10.8809 24.2719C11.0911 24.1869 11.282 24.0605 11.4422 23.9002C11.6025 23.74 11.7289 23.5491 11.8139 23.3389C11.8989 23.1288 11.9408 22.9037 11.937 22.677V10.789L20.435 10.788L15.413 15.8C15.2548 15.9568 15.1293 16.1433 15.0436 16.3488C14.958 16.5544 14.9138 16.7748 14.9138 16.9975C14.9138 17.2202 14.958 17.4406 15.0436 17.6462C15.1293 17.8517 15.2548 18.0382 15.413 18.195L21.148 23.912C21.4664 24.2232 21.8949 24.3961 22.3402 24.393C22.7854 24.39 23.2114 24.2112 23.5256 23.8956C23.8397 23.58 24.0165 23.1532 24.0175 22.7079C24.0185 22.2627 23.8437 21.835 23.531 21.518L18.993 16.995L23.233 12.768C23.553 12.451 23.731 12.02 23.73 11.571L23.737 8.154C23.7362 7.97878 23.6682 7.81055 23.547 7.684L23.544 7.686L23.469 7.623C23.3539 7.54007 23.2149 7.49689 23.073 7.5Z" fill="black"/>
</g>
<defs>
<clipPath id="clip0_16_3011">
<rect width="32" height="32" fill="white"/>
</clipPath>
</defs>
</svg>
