<svg width="32" height="32" viewBox="0 0 32 32" fill="none" xmlns="http://www.w3.org/2000/svg">
<g clip-path="url(#clip0_16_3013)">
<path d="M16 32C7.163 32 0 24.837 0 16C0 7.163 7.163 0 16 0C24.837 0 32 7.163 32 16C32 24.837 24.837 32 16 32ZM11.816 9.24C11.116 8.31 10.034 7.64 8.853 7.592C7.621 7.52 6.407 8.105 5.602 9.021C4.992 9.724 4.701 10.656 4.69 11.578C4.68483 13.3413 4.68417 15.1047 4.688 16.868C4.668 17.102 4.878 17.266 5.099 17.241C10.091 17.255 15.085 17.225 20.077 17.257C20.0549 18.3476 20.0806 19.4386 20.154 20.527C18.73 21.563 17.062 22.294 15.318 22.566C15.091 22.617 14.708 22.556 14.658 22.868C14.637 23.453 14.656 24.041 14.649 24.627C14.616 24.833 14.777 25.044 14.992 25.041C17.1106 24.8718 19.1374 24.1035 20.836 22.826C21.46 23.636 22.351 24.276 23.38 24.43C24.835 24.689 26.364 23.987 27.234 22.818C27.784 22.074 27.979 21.132 27.975 20.222C27.97 18.547 27.99 16.872 27.965 15.199C27.984 14.933 27.734 14.798 27.497 14.819C22.521 14.809 17.545 14.824 12.571 14.81C12.541 13.825 12.614 12.836 12.507 11.854C12.496 11.718 12.464 11.531 12.607 11.45C14.132 10.408 15.887 9.654 17.732 9.45C17.932 9.445 18.024 9.22 18.01 9.046C18.01 8.486 18.024 7.924 18.004 7.365C18.011 7.131 17.781 6.997 17.569 7.039C15.493 7.209 13.481 7.992 11.816 9.24ZM6.7 11.882C6.724 10.94 7.586 10.112 8.533 10.15C9.503 10.132 10.376 10.985 10.395 11.951C10.415 12.959 10.403 13.966 10.401 14.974C9.168 15.001 7.936 14.983 6.702 14.984C6.69749 13.95 6.69683 12.916 6.7 11.882ZM22.409 17.172C23.641 17.169 24.873 17.165 26.105 17.174C26.115 18.159 26.109 19.144 26.109 20.129C26.117 20.879 25.646 21.626 24.934 21.89C24.161 22.189 23.217 21.893 22.744 21.216C22.5167 20.8959 22.3976 20.5115 22.404 20.119C22.407 19.137 22.4 18.154 22.409 17.171V17.172Z" fill="black"/>
</g>
<defs>
<clipPath id="clip0_16_3013">
<rect width="32" height="32" fill="white"/>
</clipPath>
</defs>
</svg>
