<svg width="32" height="32" viewBox="0 0 32 32" fill="none" xmlns="http://www.w3.org/2000/svg">
<g clip-path="url(#clip0_16_3015)">
<path fill-rule="evenodd" clip-rule="evenodd" d="M10.144 20.024H7.094C7.0817 20.0239 7.0695 20.0262 7.0581 20.0308C7.0467 20.0354 7.03633 20.0422 7.02759 20.0509C7.01885 20.0595 7.01191 20.0698 7.00717 20.0812C7.00244 20.0925 7 20.1047 7 20.117V20.754C7 20.805 7.042 20.847 7.093 20.847H9.607C8.92927 21.8909 8.26257 22.942 7.607 24H14.926C13.017 23.064 12.039 22.013 11.99 20.847H14.739C14.7637 20.847 14.7873 20.8372 14.8048 20.8198C14.8222 20.8023 14.832 20.7787 14.832 20.754V20.117C14.832 20.0923 14.8222 20.0687 14.8048 20.0512C14.7873 20.0338 14.7637 20.024 14.739 20.024H12.108C12.205 19.66 12.36 19.224 12.568 18.744H15.578C15.6027 18.744 15.6263 18.7342 15.6438 18.7168C15.6612 18.6993 15.671 18.6757 15.671 18.651V18.015C15.671 17.9903 15.6612 17.9667 15.6438 17.9492C15.6263 17.9318 15.6027 17.922 15.578 17.922H12.954C14.474 14.91 17.641 10.884 21.359 10.884C23.727 10.884 23.771 12.987 24.949 12.987C26.127 12.987 27 12.673 27 12.073C27 11.473 26.254 9.285 23.457 9.285C18.802 9.285 16.887 12.849 14.646 12.849C12.746 12.849 11.896 11.204 11.896 10.245C11.896 8.81 13.526 7.32 14.273 7.275C14.552 7.257 14.459 7 13.853 7C12.547 7 10.31 8.68 10.31 10.062C10.31 12.604 12.455 13.535 13.76 13.535C14.42 13.535 14.46 13.626 14.46 13.809C14.46 13.929 13.49 15.093 11.554 17.922H7.932C7.90733 17.922 7.88368 17.9318 7.86624 17.9492C7.8488 17.9667 7.839 17.9903 7.839 18.015V18.651C7.839 18.703 7.881 18.745 7.932 18.745H10.996C10.728 19.143 10.444 19.569 10.144 20.025V20.024ZM16 32C7.163 32 0 24.837 0 16C0 7.163 7.163 0 16 0C24.837 0 32 7.163 32 16C32 24.837 24.837 32 16 32Z" fill="black"/>
</g>
<defs>
<clipPath id="clip0_16_3015">
<rect width="32" height="32" fill="white"/>
</clipPath>
</defs>
</svg>
