<svg width="32" height="32" viewBox="0 0 32 32" fill="none" xmlns="http://www.w3.org/2000/svg">
<g clip-path="url(#clip0_16_3021)">
<path d="M16 32C7.163 32 0 24.837 0 16C0 7.163 7.163 0 16 0C24.837 0 32 7.163 32 16C32 24.837 24.837 32 16 32ZM25.696 15.732C25.146 15.732 24.675 16.065 24.484 16.537H20.48C20.3948 16.5367 20.311 16.5591 20.2372 16.6018C20.1634 16.6445 20.1023 16.706 20.06 16.78L19.275 18.176L18.693 13.261C18.628 12.711 17.813 12.705 17.739 13.254L16.725 20.777L15.744 6.438C15.704 5.865 14.85 5.848 14.787 6.42L13.567 17.567L12.718 12.897C12.628 12.399 11.905 12.374 11.779 12.866L10.841 16.536H6.48C6.214 16.536 5.999 16.747 5.999 17.006C5.999 17.265 6.214 17.476 6.479 17.476H11.215C11.435 17.476 11.627 17.33 11.681 17.121L12.165 15.226L13.212 20.982C13.31 21.517 14.104 21.49 14.162 20.949L15.153 11.895L16.088 25.562C16.127 26.128 16.968 26.154 17.044 25.592L18.184 17.138L18.492 19.745C18.546 20.2 19.165 20.319 19.391 19.918L20.763 17.477H24.483C24.673 17.948 25.145 18.282 25.695 18.282C26.415 18.282 26.999 17.711 26.999 17.007C26.999 16.303 26.415 15.732 25.695 15.732H25.696Z" fill="black"/>
</g>
<defs>
<clipPath id="clip0_16_3021">
<rect width="32" height="32" fill="white"/>
</clipPath>
</defs>
</svg>
