<svg width="32" height="32" viewBox="0 0 32 32" fill="none" xmlns="http://www.w3.org/2000/svg">
<g clip-path="url(#clip0_16_3023)">
<path fill-rule="evenodd" clip-rule="evenodd" d="M16 32C7.163 32 0 24.837 0 16C0 7.163 7.163 0 16 0C24.837 0 32 7.163 32 16C32 24.837 24.837 32 16 32ZM10.5 15.238V17.046H12.264V19.654H10.5V21.359H12.264V25H14.252V21.359H18.252V19.654H14.252V17.046H16.761C17.5254 17.0524 18.2866 16.948 19.021 16.736C19.717 16.529 20.321 16.216 20.835 15.793C21.349 15.372 21.755 14.843 22.053 14.205C22.351 13.568 22.5 12.819 22.5 11.958C22.5 11.098 22.36 10.358 22.078 9.738C21.796 9.118 21.407 8.605 20.91 8.201C20.413 7.797 19.817 7.495 19.121 7.297C18.3685 7.09155 17.591 6.99159 16.811 7H12.264V15.238H10.5ZM16.81 15.238H14.252V8.808H16.811C17.953 8.808 18.852 9.058 19.506 9.557C20.16 10.056 20.488 10.857 20.488 11.958C20.488 13.06 20.16 13.882 19.506 14.425C18.852 14.967 17.953 15.238 16.811 15.238H16.81Z" fill="black"/>
</g>
<defs>
<clipPath id="clip0_16_3023">
<rect width="32" height="32" fill="white"/>
</clipPath>
</defs>
</svg>
