<svg width="32" height="32" viewBox="0 0 32 32" fill="none" xmlns="http://www.w3.org/2000/svg">
<g clip-path="url(#clip0_16_3025)">
<path fill-rule="evenodd" clip-rule="evenodd" d="M16 32C7.163 32 0 24.837 0 16C0 7.163 7.163 0 16 0C24.837 0 32 7.163 32 16C32 24.837 24.837 32 16 32ZM9.5 27L15.149 22.812L13.118 10.212L9.5 27ZM13.188 10.115L15.242 22.764L18.685 22.824L13.188 10.114V10.115ZM13.27 10.019L18.802 22.824L20.471 11.042L13.27 10.019ZM18.93 22.643L21.615 12.498L20.553 11.15L18.93 22.643ZM20.447 10.933L19.747 7.853L13.421 9.934L20.447 10.934V10.933ZM13.387 9.826L19.747 7.744L17.693 6.841L13.386 9.826H13.387ZM13.281 9.79L17.623 6.793L14.11 8.201L13.281 9.79ZM14.111 8.13L17.401 6.793L14.507 6.889L14.11 8.129L14.111 8.13ZM14.484 6.793L17.424 6.697L15.417 5.794L14.484 6.794V6.793ZM15.476 5.734L18.686 7.166L16.876 5.048L15.476 5.734ZM17.075 5.132L18.79 7.178L19.164 6.047L17.074 5.132H17.075ZM18.86 7.214L19.712 7.648L19.245 6.059L18.86 7.214ZM16.923 5L19.155 5.918C19.165 5.92195 19.176 5.92244 19.1863 5.91939C19.1966 5.91634 19.2056 5.90993 19.2118 5.90117C19.218 5.89242 19.2211 5.88183 19.2206 5.8711C19.2201 5.86038 19.216 5.85013 19.209 5.842L18.452 5H16.922H16.923ZM19.339 5.963L19.806 7.696L22.448 6.971C22.4637 6.96722 22.4777 6.95825 22.4877 6.94556C22.4977 6.93286 22.5031 6.91716 22.5031 6.901C22.5031 6.88484 22.4977 6.86914 22.4877 6.85644C22.4777 6.84375 22.4637 6.83478 22.448 6.831L19.338 5.963H19.339Z" fill="black"/>
</g>
<defs>
<clipPath id="clip0_16_3025">
<rect width="32" height="32" fill="white"/>
</clipPath>
</defs>
</svg>
