<svg width="32" height="32" viewBox="0 0 32 32" fill="none" xmlns="http://www.w3.org/2000/svg">
<g clip-path="url(#clip0_16_3033)">
<path d="M16 32C7.163 32 0 24.837 0 16C0 7.163 7.163 0 16 0C24.837 0 32 7.163 32 16C32 24.837 24.837 32 16 32ZM26.633 15.817L15.817 5L5 15.817L15.817 19.813L26.633 15.817ZM8.364 14.9L15.697 7.402C15.697 7.402 22.866 14.735 23.168 14.882C23.471 15.028 18.237 14.882 18.237 14.882L15.817 12.407L13.369 14.9H8.364ZM15.817 20.574L5 16.605L15.817 26.633L26.633 16.55L15.817 20.574Z" fill="black"/>
</g>
<defs>
<clipPath id="clip0_16_3033">
<rect width="32" height="32" fill="white"/>
</clipPath>
</defs>
</svg>
