<svg width="32" height="32" viewBox="0 0 32 32" fill="none" xmlns="http://www.w3.org/2000/svg">
<g clip-path="url(#clip0_16_3045)">
<path fill-rule="evenodd" clip-rule="evenodd" d="M16 32C7.163 32 0 24.837 0 16C0 7.163 7.163 0 16 0C24.837 0 32 7.163 32 16C32 24.837 24.837 32 16 32ZM16 7.5C13.7457 7.5 11.5837 8.39553 9.98959 9.98959C8.39553 11.5837 7.5 13.7457 7.5 16C7.5 18.2543 8.39553 20.4163 9.98959 22.0104C11.5837 23.6045 13.7457 24.5 16 24.5H24.5V16C24.5 13.7457 23.6045 11.5837 22.0104 9.98959C20.4163 8.39553 18.2543 7.5 16 7.5ZM21.1 21.1H16.077C13.257 21.1 10.914 18.845 10.9 16.026C10.8974 15.3521 11.0281 14.6843 11.2848 14.0612C11.5415 13.4381 11.919 12.872 12.3955 12.3955C12.872 11.919 13.4381 11.5415 14.0612 11.2848C14.6843 11.0281 15.3521 10.8974 16.026 10.9C18.845 10.914 21.1 13.258 21.1 16.077V21.1Z" fill="black"/>
</g>
<defs>
<clipPath id="clip0_16_3045">
<rect width="32" height="32" fill="white"/>
</clipPath>
</defs>
</svg>
