<svg width="32" height="32" viewBox="0 0 32 32" fill="none" xmlns="http://www.w3.org/2000/svg">
<g clip-path="url(#clip0_16_3047)">
<path d="M20.52 16.42L24.998 11.942L16.056 3L7.119 11.937H16L15.998 11.939H7.057L11.529 16.41L11.555 16.384L11.561 16.39L7.071 20.878L16.014 29.821L24.957 20.878H16.062H24.977L20.521 16.419L20.52 16.42ZM16.049 20.877H16.035L16.042 20.871L16.035 20.877H16.049ZM16 32C7.163 32 0 24.837 0 16C0 7.163 7.163 0 16 0C24.837 0 32 7.163 32 16C32 24.837 24.837 32 16 32Z" fill="black"/>
</g>
<defs>
<clipPath id="clip0_16_3047">
<rect width="32" height="32" fill="white"/>
</clipPath>
</defs>
</svg>
