<svg width="32" height="32" viewBox="0 0 32 32" fill="none" xmlns="http://www.w3.org/2000/svg">
<g clip-path="url(#clip0_16_3059)">
<path fill-rule="evenodd" clip-rule="evenodd" d="M16 32C7.163 32 0 24.837 0 16C0 7.163 7.163 0 16 0C24.837 0 32 7.163 32 16C32 24.837 24.837 32 16 32ZM7.894 18.31V21.217V18.309H7V22.749H7.894V21.217C8.147 21.63 8.45 21.986 8.808 22.271C9.403 22.744 10.126 23 10.968 23C12.185 23 13.162 22.496 13.831 21.632C14.375 20.929 14.677 20.019 14.677 19.222C14.677 18.177 14.26 17.362 13.473 16.713C12.897 16.238 12.286 15.929 11.053 15.418L10.85 15.334C9.733 14.871 9.228 14.623 8.779 14.268C8.235 13.838 7.969 13.348 7.969 12.688C7.969 11.802 8.276 11.081 8.816 10.578C9.32751 10.111 9.9964 9.85425 10.689 9.859C11.735 9.859 12.475 10.305 12.967 11.122C13.384 11.814 13.597 12.749 13.597 13.672H14.491V10.056H15.591V22.803H18.236V21.245C18.485 21.645 18.781 21.992 19.131 22.271C19.726 22.744 20.449 23 21.291 23C22.508 23 23.485 22.496 24.154 21.632C24.698 20.929 25 20.019 25 19.222C25 18.177 24.583 17.362 23.796 16.713C23.22 16.238 22.609 15.929 21.376 15.418C21.3083 15.39 21.2407 15.362 21.173 15.334C20.056 14.871 19.551 14.623 19.102 14.268C18.558 13.838 18.292 13.348 18.292 12.688C18.292 11.802 18.599 11.081 19.139 10.578C19.6505 10.111 20.3194 9.85425 21.012 9.859C22.058 9.859 22.798 10.305 23.29 11.122C23.707 11.814 23.92 12.749 23.92 13.672H24.814V9.252H23.919V10.468C23.27 9.533 22.292 9 21.012 9C20.082 9 19.182 9.34 18.517 9.96C17.799 10.628 17.397 11.573 17.397 12.688C17.397 13.618 17.792 14.346 18.534 14.932C19.071 15.356 19.624 15.628 20.819 16.123L21.022 16.207C22.172 16.684 22.729 16.965 23.213 17.365C23.808 17.856 24.106 18.436 24.106 19.223C24.106 19.837 23.864 20.568 23.436 21.119C22.931 21.771 22.216 22.141 21.292 22.141C20.111 22.141 19.296 21.491 18.763 20.357C18.5637 19.9237 18.417 19.4682 18.326 19C18.2938 18.8412 18.2685 18.681 18.25 18.52C18.2436 18.4501 18.2389 18.3801 18.236 18.31H17.342V21.944H16.484V9.197H13.596V10.467C12.946 9.533 11.97 9 10.69 9C9.76 9 8.86 9.34 8.195 9.96C7.477 10.628 7.075 11.573 7.075 12.688C7.075 13.618 7.47 14.346 8.212 14.932C8.749 15.356 9.302 15.628 10.497 16.123L10.7 16.207C11.85 16.684 12.407 16.965 12.891 17.365C13.486 17.856 13.784 18.436 13.784 19.223C13.784 19.837 13.542 20.568 13.114 21.119C12.609 21.771 11.894 22.141 10.97 22.141C9.789 22.141 8.974 21.493 8.438 20.356C8.238 19.932 8.092 19.466 7.995 18.997C7.96198 18.8371 7.93529 18.676 7.915 18.514C7.902 18.414 7.895 18.329 7.895 18.309L7.894 18.31Z" fill="black"/>
</g>
<defs>
<clipPath id="clip0_16_3059">
<rect width="32" height="32" fill="white"/>
</clipPath>
</defs>
</svg>
