<svg width="32" height="32" viewBox="0 0 32 32" fill="none" xmlns="http://www.w3.org/2000/svg">
<g clip-path="url(#clip0_16_3061)">
<path d="M16 32C7.163 32 0 24.837 0 16C0 7.163 7.163 0 16 0C24.837 0 32 7.163 32 16C32 24.837 24.837 32 16 32ZM26.667 10.147L23.229 8.168C23.111 8.098 23.002 8.037 22.885 7.97C22.771 7.905 22.66 7.835 22.544 7.768C21.855 7.374 21.164 6.992 20.483 6.584L17.217 4.698C17.027 4.583 16.045 4.006 16.003 4.006C15.986 4.006 15.862 4.086 15.835 4.103L11.373 6.673C11.308 6.71 11.263 6.739 11.197 6.775C11.1403 6.80642 11.0843 6.83909 11.029 6.873L10.687 7.073C10.6288 7.10814 10.5701 7.14248 10.511 7.176L10.175 7.37C10.057 7.44 9.946 7.5 9.83 7.567L9.139 7.962C9.079 7.993 9.029 8.026 8.971 8.059L8.107 8.559C7.987 8.629 7.876 8.687 7.759 8.754L7.076 9.157C6.733 9.353 6.389 9.562 6.041 9.751C5.888 9.833 5.085 10.323 5.006 10.344V23.058C5.07 23.064 5.948 23.587 6.039 23.641L7.415 24.437C7.53 24.507 7.645 24.57 7.759 24.636L8.439 25.028C8.497 25.058 8.549 25.092 8.609 25.125C8.675 25.161 8.718 25.192 8.785 25.225C8.96 25.315 9.128 25.422 9.295 25.523L10.161 26.022C10.221 26.055 10.269 26.084 10.328 26.119C10.666 26.323 11.017 26.506 11.354 26.709L12.561 27.409C13.358 27.88 14.171 28.319 14.964 28.795L15.907 29.341C16.057 29.442 16.112 29.328 16.348 29.199L18.414 28.007C18.528 27.941 18.639 27.877 18.759 27.81L19.096 27.617C19.153 27.586 19.206 27.553 19.263 27.518L21.158 26.421C21.724 26.082 22.308 25.775 22.874 25.435L26.647 23.249C26.702 23.216 26.757 23.183 26.815 23.151C26.875 23.119 26.932 23.074 27 23.059V10.344C26.893 10.272 26.782 10.217 26.667 10.147ZM19.877 22.591H16.662V23.433C16.662 23.443 16.658 23.446 16.648 23.446H15.098V22.591H12.129V20.211C12.129 20.186 12.159 20.165 12.174 20.151L12.475 19.826C12.4839 19.8179 12.4922 19.8092 12.5 19.8C12.5069 19.7904 12.5146 19.7814 12.523 19.773L12.698 19.587L12.7 19.584L12.752 19.531L12.775 19.503L12.831 19.444L12.837 19.437L13.024 19.235C13.064 19.194 13.104 19.155 13.142 19.11L13.144 19.108L13.15 19.1L13.276 18.966C13.294 18.946 13.308 18.935 13.325 18.913L13.477 18.751L13.502 18.726C13.5103 18.7172 13.5179 18.7078 13.525 18.698L13.78 18.426L13.782 18.424L13.788 18.417L13.827 18.377C13.877 18.313 13.967 18.233 14.02 18.169L14.026 18.161C14.043 18.141 14.062 18.127 14.078 18.108L14.177 18.001C14.247 17.931 14.307 17.855 14.377 17.785L14.602 17.543L14.627 17.518L14.725 17.41C14.744 17.391 14.762 17.377 14.777 17.357C14.792 17.337 14.811 17.323 14.828 17.303L14.927 17.196C14.937 17.186 14.945 17.179 14.954 17.168L15.029 17.087C15.044 17.067 15.063 17.053 15.08 17.033C15.124 16.984 15.25 16.855 15.277 16.819C15.293 16.799 15.312 16.787 15.326 16.767C15.2864 16.7185 15.244 16.6724 15.199 16.629L15.101 16.521L15.075 16.496C15.065 16.484 15.062 16.478 15.05 16.466C14.973 16.388 14.902 16.305 14.824 16.226L14.699 16.091C14.6917 16.0814 14.6837 16.0723 14.675 16.064L13.525 14.83C13.5173 14.8195 13.509 14.8095 13.5 14.8L13.33 14.617L13.328 14.615L12.951 14.209C12.943 14.199 12.935 14.193 12.926 14.184L12.826 14.074C12.758 14.004 12.693 13.928 12.624 13.859L12.602 13.835L12.6 13.833L12.526 13.752C12.492 13.715 12.456 13.681 12.423 13.644C12.412 13.632 12.41 13.626 12.398 13.614C12.33 13.545 12.268 13.47 12.198 13.402C12.19 13.392 12.182 13.386 12.174 13.377C12.165 13.367 12.129 13.332 12.129 13.321V10.932H15.097V9.94C15.619 9.94 16.135 9.95 16.657 9.95V10.9C16.657 10.911 16.66 10.915 16.671 10.915H19.877V13.326H15.454C15.48 13.366 15.52 13.399 15.551 13.435L15.797 13.705C15.812 13.725 15.828 13.739 15.845 13.759C15.887 13.809 15.934 13.852 15.975 13.902L16.333 14.295C16.403 14.363 16.463 14.44 16.53 14.51L17.443 15.513L17.449 15.521L17.776 15.881L17.801 15.905C17.845 15.949 17.881 15.999 17.925 16.043L18.513 16.686C18.537 16.712 18.563 16.736 18.583 16.766C18.574 16.78 18.567 16.784 18.556 16.796C18.5489 16.8055 18.5412 16.8145 18.533 16.823L18.41 16.956C18.4029 16.9655 18.3952 16.9745 18.387 16.983L18.092 17.306C18.072 17.325 18.062 17.341 18.042 17.36C18.002 17.4 17.942 17.475 17.895 17.52L17.689 17.749C17.648 17.798 17.538 17.907 17.505 17.949L17.212 18.269C17.149 18.346 17.078 18.412 17.014 18.488L16.894 18.618C16.834 18.679 16.782 18.744 16.724 18.806C16.714 18.816 16.706 18.823 16.697 18.834C16.629 18.911 16.555 18.984 16.488 19.064L16.478 19.076L16.221 19.355L16.215 19.362L16.206 19.372L16.204 19.375L16.086 19.505C16.0777 19.5131 16.07 19.5217 16.063 19.531C16.0553 19.5402 16.0469 19.5489 16.038 19.557C15.987 19.607 15.943 19.667 15.892 19.717C15.8838 19.7255 15.8761 19.7345 15.869 19.744L15.771 19.852C15.763 19.862 15.755 19.868 15.746 19.877L15.454 20.199H19.754C19.795 20.199 19.877 20.189 19.877 20.212V22.592V22.591Z" fill="black"/>
</g>
<defs>
<clipPath id="clip0_16_3061">
<rect width="32" height="32" fill="white"/>
</clipPath>
</defs>
</svg>
