<svg width="32" height="32" viewBox="0 0 32 32" fill="none" xmlns="http://www.w3.org/2000/svg">
<g clip-path="url(#clip0_16_3063)">
<path fill-rule="evenodd" clip-rule="evenodd" d="M16 32C7.163 32 0 24.837 0 16C0 7.163 7.163 0 16 0C24.837 0 32 7.163 32 16C32 24.837 24.837 32 16 32ZM16.913 21.234C22.543 20.797 26.962 16.599 26.962 16.599C26.962 16.599 22.667 12.511 17.152 11.985L16.73 11.25L15.98 10L15.539 10.734L14.809 11.984C9.294 12.522 5 16.59 5 16.6C5 16.6 9.42 20.798 15.049 21.235L15.981 22.971L16.913 21.235V21.234ZM5.932 16.599C5.932 16.599 9.986 13.831 14.155 13.126L13.493 14.267L14.011 15.279L15.414 12.977C15.606 12.967 15.798 12.957 15.981 12.957C16.163 12.957 16.355 12.967 16.538 12.977L17.912 15.279L18.44 14.218L17.806 13.116C21.976 13.811 26.03 16.52 26.03 16.589C26.03 16.669 21.774 19.507 17.499 20.112L19.583 16.202L19.017 15.22L17.931 17.244L16.441 20.211C16.279 20.221 16.125 20.221 15.961 20.221C15.798 20.221 15.635 20.221 15.471 20.211L13.445 16.222L13.455 16.212L12.935 15.24L12.369 16.222L14.453 20.122C10.178 19.507 5.923 16.599 5.932 16.599Z" fill="black"/>
</g>
<defs>
<clipPath id="clip0_16_3063">
<rect width="32" height="32" fill="white"/>
</clipPath>
</defs>
</svg>
