<svg width="32" height="32" viewBox="0 0 32 32" fill="none" xmlns="http://www.w3.org/2000/svg">
<g clip-path="url(#clip0_16_3067)">
<path d="M16 32C7.163 32 0 24.837 0 16C0 7.163 7.163 0 16 0C24.837 0 32 7.163 32 16C32 24.837 24.837 32 16 32ZM13.3 15.02C15.55 15.02 16.615 15.455 18.864 15.455C21.911 15.455 24 14.211 24 11.636C24 9.062 22.26 7.818 19.72 7.818C15.572 7.818 12.088 10.983 11.636 15.164C12.1851 15.0657 12.7421 15.0178 13.3 15.021V15.02ZM13.136 16.545C10.089 16.545 8 17.79 8 20.364C8 22.938 9.74 24.182 12.28 24.182C16.428 24.182 19.912 21.017 20.364 16.836C19.8149 16.9347 19.2579 16.9829 18.7 16.98C16.45 16.98 15.385 16.545 13.136 16.545Z" fill="black"/>
</g>
<defs>
<clipPath id="clip0_16_3067">
<rect width="32" height="32" fill="white"/>
</clipPath>
</defs>
</svg>
