<svg width="32" height="32" viewBox="0 0 32 32" fill="none" xmlns="http://www.w3.org/2000/svg">
<g clip-path="url(#clip0_16_3073)">
<path d="M16 0C24.837 0 32 7.163 32 16C32 24.837 24.837 32 16 32C7.163 32 0 24.837 0 16C0 7.163 7.163 0 16 0ZM24.706 19.517H10.34C10.1847 19.5168 10.0356 19.5779 9.925 19.687L7.087 22.502C7.0458 22.5427 7.01768 22.5948 7.00625 22.6516C6.99481 22.7083 7.00058 22.7672 7.02281 22.8207C7.04504 22.8742 7.08272 22.9198 7.13103 22.9518C7.17934 22.9837 7.23609 23.0005 7.294 23H21.66C21.8153 23.0002 21.9644 22.9391 22.075 22.83L24.913 20.014C24.9539 19.9732 24.9817 19.9213 24.9929 19.8647C25.0041 19.808 24.9983 19.7494 24.9761 19.6961C24.9539 19.6428 24.9164 19.5974 24.8683 19.5655C24.8202 19.5336 24.7637 19.5167 24.706 19.517ZM21.66 14.225H7.294L7.226 14.232C7.17528 14.2437 7.12861 14.2687 7.09085 14.3045C7.0531 14.3403 7.02564 14.3856 7.01134 14.4357C6.99705 14.4857 6.99643 14.5387 7.00956 14.589C7.02269 14.6394 7.04909 14.6853 7.086 14.722L9.926 17.538L9.996 17.598C10.096 17.668 10.216 17.708 10.34 17.708H24.706L24.774 17.701C24.8247 17.6893 24.8714 17.6643 24.9091 17.6285C24.9469 17.5927 24.9744 17.5474 24.9887 17.4973C25.003 17.4473 25.0036 17.3943 24.9904 17.344C24.9773 17.2936 24.9509 17.2477 24.914 17.211L22.074 14.395L22.004 14.335C21.9037 14.2633 21.7833 14.2248 21.66 14.225ZM24.706 9H10.34C10.1847 8.99983 10.0356 9.06092 9.925 9.17L7.087 11.986C7.04615 12.0268 7.01834 12.0787 7.0071 12.1353C6.99587 12.192 7.00171 12.2506 7.0239 12.3039C7.04609 12.3572 7.08361 12.4026 7.13171 12.4345C7.1798 12.4664 7.23629 12.4833 7.294 12.483H21.66C21.8153 12.4832 21.9644 12.4221 22.075 12.313L24.913 9.498C24.9542 9.4573 24.9823 9.40522 24.9938 9.34845C25.0052 9.29167 24.9994 9.23278 24.9772 9.1793C24.955 9.12582 24.9173 9.08019 24.869 9.04825C24.8207 9.0163 24.7639 8.99951 24.706 9Z" fill="black"/>
</g>
<defs>
<clipPath id="clip0_16_3073">
<rect width="32" height="32" fill="white"/>
</clipPath>
</defs>
</svg>
