<svg width="32" height="32" viewBox="0 0 32 32" fill="none" xmlns="http://www.w3.org/2000/svg">
<g clip-path="url(#clip0_16_3077)">
<path fill-rule="evenodd" clip-rule="evenodd" d="M16 32C7.163 32 0 24.837 0 16C0 7.163 7.163 0 16 0C24.837 0 32 7.163 32 16C32 24.837 24.837 32 16 32ZM8.459 22.141L9.244 24.671L10.656 24.246L10.612 24.103L12.111 26.292L13.335 25.478L13.231 25.328L15.328 27L16.258 25.87L16.097 25.742L18.637 26.702L19.166 25.344L19.031 25.294L21.685 25.476L21.788 24.026L21.583 24.011L24.235 23.408L23.902 21.991L23.662 22.046L26.06 20.681L25.322 19.421L25.092 19.553L27 17.537L25.92 16.545L25.74 16.735L26.97 14.253L25.642 13.615L25.535 13.833L25.971 11.121L24.512 10.893L24.482 11.083L24.052 8.411L22.594 8.639L22.604 8.704L21.46 6.39L20.133 7.028L20.171 7.104L18.385 5.218L17.305 6.21L17.395 6.304L15.101 5L14.363 6.26L14.528 6.354L11.899 5.756L11.567 7.173L11.816 7.229L9.064 7.419L9.166 8.869L9.474 8.849L6.845 9.843L7.375 11.201L7.655 11.094L5.455 12.85L6.384 13.98L6.529 13.864L5 16.098L6.224 16.911L6.322 16.767L5.525 19.337L6.936 19.763L6.982 19.615V22.282H8.46L8.459 22.141ZM8.459 20.413V17.983H7.489L8.212 15.652L7.279 15.37L8.664 13.347L7.853 12.808L9.775 11.275L9.159 10.525L11.448 9.66L11.088 8.737L13.52 8.57L13.45 7.601L15.82 8.14L16.037 7.212L18.142 8.409L18.618 7.597L20.281 9.354L20.971 8.721L22.045 10.891L22.891 10.485L23.277 12.885L24.216 12.738L23.83 15.139L24.812 15.293L23.729 17.479L24.627 17.911L22.944 19.689L23.674 20.359L21.544 21.571L22.038 22.415L19.651 22.958L19.87 23.893L17.434 23.725L17.368 24.665L15.092 23.804L14.754 24.671L12.866 23.164L12.257 23.904L10.895 21.914L10.097 22.444L9.381 20.135L8.459 20.413ZM15.709 17.688C15.715 17.8421 15.6826 17.9952 15.6147 18.1336C15.5467 18.2721 15.4455 18.3914 15.32 18.481C15.06 18.667 14.7 18.76 14.238 18.76C12.995 18.76 12.373 18.238 12.373 17.195H10.423C10.423 17.805 10.579 18.342 10.89 18.805C11.205 19.268 11.66 19.635 12.256 19.903C12.8814 20.1731 13.5568 20.308 14.238 20.299C15.283 20.299 16.114 20.067 16.732 19.604C17.349 19.136 17.658 18.494 17.658 17.675C17.658 16.94 17.406 16.325 16.9 15.831C16.395 15.338 15.59 14.924 14.484 14.591C13.884 14.409 13.429 14.214 13.118 14.007C12.811 13.799 12.658 13.541 12.658 13.234C12.658 12.905 12.79 12.641 13.053 12.442C13.316 12.238 13.686 12.137 14.161 12.137C14.653 12.137 15.035 12.257 15.307 12.5C15.579 12.738 15.715 13.074 15.715 13.507H17.658C17.6664 12.9678 17.5132 12.4384 17.218 11.987C16.918 11.5322 16.493 11.1738 15.994 10.955C15.467 10.708 14.867 10.585 14.193 10.585C13.523 10.585 12.919 10.697 12.379 10.922C11.844 11.147 11.432 11.462 11.142 11.864C10.8574 12.2613 10.7077 12.7394 10.715 13.228C10.715 14.21 11.25 14.992 12.321 15.572C12.714 15.784 13.247 16 13.921 16.221C14.595 16.437 15.061 16.645 15.32 16.844C15.58 17.039 15.709 17.32 15.709 17.688ZM21.639 11.89L19.39 11.57L18.223 18.634L19.766 18.742L21.639 11.89ZM20.005 19.456L17.937 18.956L17.466 21.278L19.518 21.877L20.005 19.456Z" fill="black"/>
</g>
<defs>
<clipPath id="clip0_16_3077">
<rect width="32" height="32" fill="white"/>
</clipPath>
</defs>
</svg>
