<svg width="32" height="32" viewBox="0 0 32 32" fill="none" xmlns="http://www.w3.org/2000/svg">
<g clip-path="url(#clip0_16_3085)">
<path fill-rule="evenodd" clip-rule="evenodd" d="M16 32C7.163 32 0 24.837 0 16C0 7.163 7.163 0 16 0C24.837 0 32 7.163 32 16C32 24.837 24.837 32 16 32ZM21.069 18.89C21.083 17.457 20.462 16.424 19.224 15.806C18.762 15.576 18.268 15.412 17.787 15.222C16.997 14.91 16.157 14.694 15.429 14.27C14.285 13.604 14.291 12.022 15.367 11.244C16.131 10.691 16.999 10.678 17.879 10.715C18.884 10.758 19.836 11.048 20.784 11.367C21.338 11.553 21.628 11.38 21.766 10.798C21.84 10.489 21.896 10.175 21.954 9.862C22.051 9.339 22.031 9.282 21.528 9.126C20.8604 8.91283 20.1853 8.72404 19.504 8.56C19.146 8.477 19.036 8.31 19.099 7.95C19.154 7.637 19.169 7.317 19.199 7C19.267 6.276 19.189 6.17 18.495 6.027C18.082 5.943 17.937 6.045 17.877 6.493C17.822 6.897 17.787 7.303 17.742 7.708C17.67 8.338 17.644 8.349 17.035 8.331C16.768 8.323 16.688 8.206 16.717 7.951C16.753 7.647 16.778 7.343 16.807 7.038C16.881 6.257 16.791 6.138 16.039 6.015C15.685 5.957 15.537 6.063 15.491 6.442C15.431 6.935 15.352 7.43 15.346 7.925C15.339 8.382 15.155 8.596 14.748 8.75C13.221 9.328 12.192 10.418 11.875 12.099C11.594 13.589 11.817 14.986 13.093 15.93C13.662 16.35 14.346 16.62 15.004 16.887C15.744 17.188 16.534 17.364 17.268 17.679C18.161 18.062 18.438 18.832 18.129 19.784C17.92 20.424 17.504 20.872 16.938 21.177C16.081 21.638 15.152 21.7 14.213 21.677C13.173 21.652 12.172 21.417 11.198 21.033C10.648 20.817 10.36 20.997 10.236 21.593C10.164 21.941 10.106 22.293 10.022 22.639C9.956 22.91 10.036 23.092 10.28 23.189C10.68 23.347 11.079 23.519 11.49 23.643C12.415 23.922 12.418 23.911 12.292 24.914C12.192 25.723 12.248 25.807 13.012 25.972C13.37 26.05 13.525 25.958 13.587 25.586C13.647 25.223 13.682 24.854 13.717 24.486C13.741 24.23 13.85 24.101 14.111 24.088C14.691 24.059 14.778 24.146 14.708 24.754L14.684 24.944C14.59 25.684 14.666 25.798 15.372 25.966C15.782 26.064 15.935 25.962 15.998 25.516C16.052 25.139 16.091 24.758 16.118 24.376C16.141 24.073 16.292 23.936 16.569 23.866C17.033 23.75 17.499 23.626 17.947 23.456C19.857 22.729 21.056 20.964 21.069 18.891V18.89Z" fill="black"/>
</g>
<defs>
<clipPath id="clip0_16_3085">
<rect width="32" height="32" fill="white"/>
</clipPath>
</defs>
</svg>
