<svg width="32" height="32" viewBox="0 0 32 32" fill="none" xmlns="http://www.w3.org/2000/svg">
<g clip-path="url(#clip0_16_3089)">
<path fill-rule="evenodd" clip-rule="evenodd" d="M16 32C7.163 32 0 24.837 0 16C0 7.163 7.163 0 16 0C24.837 0 32 7.163 32 16C32 24.837 24.837 32 16 32ZM24.977 18.971C24.9042 18.9299 24.8283 18.8944 24.75 18.865V13.247C24.839 13.217 24.928 13.169 25.017 13.131C25.937 12.626 26.273 11.481 25.759 10.579C25.6229 10.3437 25.4387 10.1398 25.2185 9.98038C24.9984 9.821 24.7471 9.70976 24.4811 9.65392C24.215 9.59807 23.9403 9.59887 23.6746 9.65626C23.4089 9.71365 23.1583 9.82634 22.939 9.987L17.895 7.125C17.905 7.037 17.915 6.96 17.915 6.872C17.915 5.834 17.055 5 16.005 5C14.957 5 14.077 5.854 14.077 6.882C14.077 6.97 14.087 7.047 14.097 7.134L9.09 9.977C8.82201 9.77229 8.50535 9.64085 8.17116 9.59561C7.83698 9.55038 7.49677 9.5929 7.184 9.719C6.87326 9.84247 6.60105 10.0465 6.3954 10.3102C6.18975 10.5738 6.0581 10.8875 6.014 11.219C5.97241 11.5493 6.02025 11.8848 6.15253 12.1903C6.2848 12.4958 6.49667 12.7603 6.766 12.956C6.836 13.004 6.905 13.053 6.984 13.101C7.064 13.15 7.151 13.189 7.241 13.218V18.826C6.261 19.214 5.787 20.301 6.182 21.261C6.37681 21.7256 6.74647 22.0949 7.2112 22.2893C7.67592 22.4837 8.19845 22.4875 8.666 22.3C8.756 22.271 8.834 22.223 8.914 22.184C8.99517 22.1357 9.07425 22.084 9.151 22.029L14.107 24.833C13.938 25.851 14.651 26.812 15.689 26.977C16.728 27.142 17.707 26.443 17.875 25.424C17.895 25.318 17.895 25.221 17.895 25.114C17.8936 25.023 17.8869 24.9322 17.875 24.842L22.801 22.058C22.881 22.116 22.96 22.174 23.049 22.223C23.969 22.727 25.136 22.407 25.65 21.505C25.8891 21.0781 25.9525 20.5749 25.8269 20.1021C25.7013 19.6292 25.3964 19.2239 24.977 18.972V18.971ZM25.324 21.319C25.1232 21.6476 24.8023 21.8852 24.4293 21.9813C24.0564 22.0774 23.6607 22.0246 23.326 21.834C23.0581 21.683 22.8465 21.449 22.7233 21.1672C22.6001 20.8854 22.5719 20.5712 22.643 20.272L20.328 18.942C19.967 19.2982 19.5103 19.5419 19.0134 19.6434C18.5165 19.745 18.0008 19.7 17.529 19.514C17.183 19.621 16.441 19.689 16.441 19.689V23.686C16.6319 23.7418 16.8098 23.8351 16.9643 23.9604C17.1188 24.0857 17.2468 24.2405 17.3408 24.4158C17.4348 24.591 17.493 24.7833 17.5119 24.9813C17.5308 25.1793 17.5101 25.3791 17.451 25.569C17.204 26.364 16.343 26.801 15.531 26.559C15.521 26.559 15.511 26.549 15.501 26.549C15.4364 26.5289 15.3737 26.5028 15.314 26.471C15.1351 26.385 14.9752 26.2642 14.8437 26.1156C14.7121 25.967 14.6116 25.7937 14.548 25.6057C14.4844 25.4177 14.4589 25.2189 14.4732 25.021C14.4874 24.823 14.5411 24.6299 14.631 24.453C14.819 24.084 15.156 23.813 15.551 23.687V19.612C15.261 19.524 14.977 19.4172 14.701 19.292C14.2596 19.3789 13.8047 19.3691 13.3675 19.2635C12.9302 19.1579 12.521 18.9588 12.168 18.68L9.408 20.242C9.45175 20.4275 9.45824 20.6198 9.4271 20.8078C9.39597 20.9958 9.32782 21.1758 9.22662 21.3373C9.12542 21.4987 8.99317 21.6385 8.83754 21.7485C8.68191 21.8585 8.506 21.9365 8.32 21.978C7.531 22.163 6.739 21.686 6.55 20.912C6.50611 20.7264 6.4995 20.534 6.53056 20.3459C6.56163 20.1578 6.62974 19.9777 6.73096 19.8161C6.83217 19.6545 6.96447 19.5146 7.12018 19.4046C7.27588 19.2945 7.4519 19.2165 7.638 19.175C7.87375 19.1196 8.11945 19.1226 8.35381 19.1836C8.58817 19.2446 8.80413 19.3618 8.983 19.525L11.565 18.059C11.143 17.4771 10.9447 16.7626 11.0064 16.0464C11.0681 15.3302 11.3857 14.6602 11.901 14.159L8.963 12.509C8.68006 12.7703 8.30567 12.9097 7.92077 12.8971C7.53586 12.8846 7.17134 12.7211 6.906 12.442C6.77491 12.3056 6.67251 12.1443 6.60485 11.9676C6.53719 11.7909 6.50564 11.6025 6.51207 11.4134C6.51851 11.2243 6.56279 11.0385 6.6423 10.8668C6.72182 10.6952 6.83495 10.5412 6.975 10.414C7.25796 10.1526 7.63246 10.0132 8.01745 10.0259C8.40244 10.0387 8.76692 10.2025 9.032 10.482C9.19594 10.6512 9.31451 10.8591 9.37674 11.0863C9.43897 11.3136 9.44285 11.5529 9.388 11.782L12.643 13.615C13.0708 13.39 13.5448 13.2671 14.028 13.256C14.483 12.888 15.649 12.51 15.649 12.51V8.144C15.4787 8.09548 15.3198 8.01354 15.1816 7.90294C15.0433 7.79234 14.9285 7.65531 14.8438 7.49984C14.7591 7.34438 14.7062 7.17359 14.6882 6.99746C14.6702 6.82133 14.6875 6.64338 14.739 6.474C14.957 5.766 15.719 5.378 16.441 5.592C17.163 5.805 17.569 6.552 17.351 7.261C17.2853 7.47354 17.1677 7.66636 17.0088 7.82209C16.8499 7.97782 16.6548 8.09154 16.441 8.153V12.433C16.441 12.433 18.578 12.956 19.251 13.742L22.712 11.812C22.6693 11.6264 22.6639 11.4341 22.6961 11.2464C22.7283 11.0586 22.7975 10.8792 22.8997 10.7184C23.0018 10.5577 23.1349 10.4188 23.2912 10.3099C23.4475 10.201 23.6238 10.1242 23.81 10.084C24.602 9.91 25.393 10.385 25.571 11.161C25.6136 11.3466 25.6188 11.5387 25.5865 11.7263C25.5543 11.914 25.485 12.0933 25.3829 12.2539C25.2807 12.4146 25.1477 12.5534 24.9915 12.6622C24.8353 12.7711 24.6591 12.8478 24.473 12.888C24.238 12.9402 23.9939 12.9348 23.7614 12.8723C23.529 12.8098 23.3151 12.692 23.138 12.529L19.715 14.431C19.814 14.634 19.903 14.838 19.962 15.051C21.021 15.76 21.397 17.118 20.832 18.253L23.098 19.543C23.3284 19.3339 23.6192 19.2035 23.9285 19.1704C24.2378 19.1373 24.5496 19.2034 24.819 19.359C25.502 19.757 25.739 20.63 25.324 21.319ZM7.984 19.961C7.90416 19.9602 7.82494 19.9752 7.75087 20.005C7.6768 20.0348 7.60933 20.0789 7.55231 20.1348C7.4953 20.1907 7.44985 20.2573 7.41857 20.3308C7.38729 20.4042 7.37078 20.4832 7.37 20.563C7.37 20.895 7.645 21.164 7.984 21.164C8.322 21.164 8.597 20.894 8.597 20.563C8.59512 20.4577 8.56767 20.3544 8.517 20.262C8.46131 20.1705 8.38304 20.0949 8.2897 20.0423C8.19637 19.9898 8.0911 19.9621 7.984 19.962V19.961ZM16.649 6.873C16.6482 6.79316 16.6317 6.71425 16.6004 6.64078C16.5692 6.56731 16.5237 6.50073 16.4667 6.44483C16.4097 6.38893 16.3422 6.3448 16.2681 6.31498C16.1941 6.28515 16.1148 6.27021 16.035 6.271C15.8739 6.26967 15.7189 6.33231 15.604 6.44518C15.489 6.55805 15.4236 6.71192 15.422 6.873C15.422 7.205 15.697 7.474 16.035 7.474C16.1958 7.47481 16.3505 7.41216 16.4655 7.29965C16.5804 7.18713 16.6464 7.03383 16.649 6.873ZM24.127 12.093C24.467 12.093 24.741 11.823 24.741 11.491C24.7402 11.4112 24.7237 11.3322 24.6924 11.2588C24.6611 11.1853 24.6157 11.1187 24.5587 11.0628C24.5017 11.0069 24.4342 10.9628 24.3601 10.933C24.2861 10.9032 24.2068 10.8882 24.127 10.889C23.9659 10.8877 23.8109 10.9503 23.696 11.0632C23.581 11.1761 23.5156 11.3299 23.514 11.491C23.5171 11.6516 23.5831 11.8045 23.6977 11.9171C23.8123 12.0296 23.9664 12.0928 24.127 12.093ZM8.27 10.937C8.13022 10.8571 7.96454 10.8357 7.80906 10.8775C7.65358 10.9193 7.52092 11.0208 7.44 11.16C7.39971 11.228 7.3736 11.3034 7.36323 11.3818C7.35286 11.4601 7.35844 11.5398 7.37965 11.6159C7.40086 11.6921 7.43725 11.7631 7.48663 11.8248C7.53601 11.8865 7.59736 11.9376 7.667 11.975C7.80678 12.0549 7.97246 12.0763 8.12794 12.0345C8.28342 11.9927 8.41608 11.8912 8.497 11.752C8.537 11.6839 8.56289 11.6085 8.57311 11.5302C8.58333 11.4519 8.57768 11.3724 8.5565 11.2963C8.53531 11.2203 8.49903 11.1492 8.4498 11.0875C8.40058 11.0258 8.33943 10.9746 8.27 10.937ZM24.374 20.077C24.2804 20.023 24.175 19.9928 24.067 19.989C23.9591 19.9872 23.8526 20.0138 23.7581 20.0661C23.6637 20.1184 23.5847 20.1945 23.529 20.287C23.4742 20.3788 23.4453 20.4836 23.4453 20.5905C23.4453 20.6974 23.4742 20.8022 23.529 20.894C23.5847 20.9865 23.6637 21.0626 23.7581 21.1149C23.8526 21.1672 23.9591 21.1938 24.067 21.192C24.1742 21.1909 24.2794 21.1628 24.3728 21.1104C24.4663 21.058 24.5451 20.9829 24.602 20.892C24.6421 20.8238 24.6681 20.7483 24.6783 20.6698C24.6886 20.5914 24.6829 20.5117 24.6616 20.4355C24.6403 20.3593 24.6038 20.2882 24.5544 20.2264C24.505 20.1647 24.4437 20.1135 24.374 20.076V20.077ZM15.422 25.092C15.4142 25.1748 15.4233 25.2583 15.4488 25.3374C15.4743 25.4165 15.5156 25.4897 15.5702 25.5523C15.6248 25.615 15.6916 25.6659 15.7665 25.702C15.8415 25.738 15.9229 25.7584 16.006 25.762C16.1547 25.7629 16.2991 25.7121 16.4146 25.6184C16.53 25.5247 16.6094 25.3937 16.639 25.248C16.66 25.0903 16.6176 24.9308 16.521 24.8044C16.4244 24.678 16.2816 24.5951 16.124 24.574C15.9662 24.5497 15.8053 24.5884 15.6758 24.6818C15.5463 24.7751 15.4588 24.9156 15.432 25.073C15.4265 25.0783 15.423 25.0854 15.422 25.093V25.092ZM18.944 15.807L18.914 15.584C18.9042 15.5315 18.8908 15.4797 18.874 15.429C18.874 15.409 18.864 15.39 18.864 15.371C18.844 15.313 18.824 15.245 18.805 15.186V15.176C18.6489 14.7734 18.3936 14.4167 18.063 14.139L18.053 14.129C17.9947 14.0779 17.9318 14.0323 17.865 13.993L17.855 13.983C17.796 13.945 17.727 13.896 17.668 13.867L17.658 13.857C17.594 13.8208 17.5279 13.7884 17.46 13.76L17.44 13.75C17.3684 13.7193 17.296 13.6903 17.223 13.663L17.213 13.653C17.133 13.634 17.064 13.605 16.985 13.595H16.975C16.8968 13.5776 16.8177 13.5649 16.738 13.557H16.728C16.3071 13.4982 15.8781 13.5481 15.482 13.702L15.432 13.741C15.372 13.761 15.274 13.809 15.215 13.838C15.1837 13.8579 15.1501 13.874 15.115 13.886C15.086 13.896 15.037 13.935 15.007 13.954L14.868 14.051L14.838 14.071C14.779 14.11 14.73 14.158 14.67 14.207L14.621 14.255C14.5655 14.3072 14.5128 14.3623 14.463 14.42C14.3453 14.4007 14.2263 14.391 14.107 14.391C14.067 14.391 14.037 14.391 14.007 14.401C13.6684 14.4174 13.3398 14.5206 13.0526 14.7006C12.7654 14.8806 12.5293 15.1314 12.367 15.429L12.356 15.449C12.326 15.505 12.299 15.564 12.276 15.624C12.266 15.643 12.266 15.653 12.256 15.672C12.2352 15.7222 12.2188 15.774 12.207 15.827C12.197 15.847 12.197 15.876 12.187 15.895L12.158 16.05C12.158 16.07 12.148 16.09 12.148 16.118C12.1397 16.192 12.1364 16.2665 12.138 16.341C12.137 16.403 12.14 16.465 12.148 16.526C12.148 16.546 12.158 16.565 12.158 16.594C12.168 16.633 12.168 16.671 12.178 16.71C12.188 16.749 12.188 16.759 12.198 16.788C12.2093 16.8157 12.216 16.8451 12.218 16.875C12.218 16.905 12.237 16.933 12.247 16.962C12.2552 16.9854 12.2652 17.0082 12.277 17.03C12.292 17.0616 12.3054 17.094 12.317 17.127C12.327 17.147 12.336 17.157 12.336 17.176C12.475 17.496 12.71 17.766 13.009 17.952C13.157 18.039 13.306 18.117 13.464 18.165C13.525 18.186 13.588 18.202 13.652 18.214L13.672 18.224L13.85 18.253L13.89 18.263C13.958 18.273 14.028 18.273 14.107 18.273C14.374 18.273 14.631 18.223 14.868 18.117C14.928 18.156 14.978 18.195 15.037 18.233L15.057 18.243C15.106 18.273 15.165 18.301 15.225 18.33H15.235C15.802 18.613 16.4529 18.6788 17.065 18.515H17.075C17.1633 18.4952 17.2492 18.4657 17.331 18.427L17.598 18.311C17.853 18.506 18.166 18.611 18.488 18.611C18.558 18.611 18.618 18.601 18.686 18.601L18.736 18.592C18.8625 18.5745 18.9858 18.5388 19.102 18.486L19.132 18.476C19.191 18.446 19.24 18.418 19.3 18.389C19.4597 18.2865 19.5971 18.153 19.7042 17.9963C19.8112 17.8396 19.8856 17.663 19.923 17.477V17.447C19.933 17.409 19.933 17.37 19.943 17.331C19.943 17.283 19.953 17.234 19.953 17.185C19.953 16.545 19.547 15.992 18.943 15.808L18.944 15.807Z" fill="black"/>
</g>
<defs>
<clipPath id="clip0_16_3089">
<rect width="32" height="32" fill="white"/>
</clipPath>
</defs>
</svg>
