<svg width="32" height="32" viewBox="0 0 32 32" fill="none" xmlns="http://www.w3.org/2000/svg">
<g clip-path="url(#clip0_16_3093)">
<path d="M16 0C24.837 0 32 7.163 32 16C32 24.837 24.837 32 16 32C7.163 32 0 24.837 0 16C0 7.163 7.163 0 16 0ZM27.675 13C26.9174 13.0015 26.1883 13.2892 25.6339 13.8055C25.0794 14.3217 24.7405 15.0284 24.685 15.784C24.6315 15.0295 24.2945 14.3231 23.7418 13.8067C23.189 13.2903 22.4614 13.0021 21.705 13V13.462L21.871 13.468C22.5139 13.5101 23.1167 13.7952 23.5572 14.2654C23.9977 14.7356 24.2429 15.3557 24.243 16C24.2439 16.3336 24.1789 16.664 24.0517 16.9723C23.9245 17.2807 23.7376 17.5608 23.5017 17.7967C23.2658 18.0326 22.9857 18.2195 22.6773 18.3467C22.369 18.4739 22.0386 18.5389 21.705 18.538V19L21.879 18.995C22.6052 18.951 23.2908 18.6451 23.8086 18.1341C24.3265 17.623 24.6414 16.9416 24.695 16.216C24.7489 16.9722 25.0873 17.6798 25.6421 18.1964C26.1969 18.713 26.9269 19.0001 27.685 19V18.538L27.519 18.532C26.8763 18.4896 26.2737 18.2044 25.8334 17.7343C25.3932 17.2641 25.1481 16.6441 25.148 16C25.1469 15.6673 25.2115 15.3377 25.338 15.03C25.4645 14.7224 25.6504 14.4426 25.8851 14.2069C26.1198 13.9712 26.3988 13.784 26.7059 13.6562C27.013 13.5284 27.3423 13.4624 27.675 13.462V13ZM11.633 16H11.19V19H11.643V18.656L11.633 16ZM17.643 13C15.99 13 14.643 14.348 14.643 16C14.643 17.652 15.99 19 17.643 19C18.4386 19 19.2017 18.6839 19.7643 18.1213C20.3269 17.5587 20.643 16.7956 20.643 16C20.643 15.2044 20.3269 14.4413 19.7643 13.8787C19.2017 13.3161 18.4386 13 17.643 13ZM13.393 13H9.538L9.362 13.005C8.59862 13.0513 7.88158 13.3868 7.35691 13.9433C6.83224 14.4997 6.5394 15.2352 6.538 16C6.53642 16.6726 6.26851 17.3173 5.79289 17.7929C5.31726 18.2685 4.67263 18.5364 4 18.538V19L4.176 18.995C4.93939 18.9487 5.65642 18.6132 6.18109 18.0567C6.70576 17.5003 6.9986 16.7648 7 16C7.00158 15.3274 7.26949 14.6827 7.74511 14.2071C8.22074 13.7315 8.86537 13.4636 9.538 13.462H13.393V13ZM17.643 13.462C18.3159 13.4623 18.9612 13.7298 19.437 14.2057C19.9127 14.6817 20.18 15.3271 20.18 16C20.1818 16.6445 19.9375 17.2654 19.4971 17.736C19.0567 18.2065 18.4532 18.4912 17.81 18.532L17.643 18.538L17.476 18.532C16.8339 18.488 16.2323 18.2023 15.7923 17.7325C15.3524 17.2627 15.1068 16.6436 15.105 16C15.1051 15.356 15.35 14.7362 15.7901 14.2661C16.2301 13.7959 16.8325 13.5106 17.475 13.468L17.643 13.462Z" fill="black"/>
</g>
<defs>
<clipPath id="clip0_16_3093">
<rect width="32" height="32" fill="white"/>
</clipPath>
</defs>
</svg>
