<svg width="32" height="32" viewBox="0 0 32 32" fill="none" xmlns="http://www.w3.org/2000/svg">
<g clip-path="url(#clip0_16_3095)">
<path d="M16 32C7.163 32 0 24.837 0 16C0 7.163 7.163 0 16 0C24.837 0 32 7.163 32 16C32 24.837 24.837 32 16 32ZM5.155 9.036C5.095 9.666 5.095 10.31 5.215 10.94C5.833 10.964 6.465 10.964 7.095 10.964C7.274 11.298 7.465 11.619 7.619 11.976C8.369 13.56 9.131 15.131 9.917 16.702C10.369 17.607 10.738 18.595 11.429 19.369C11.643 19.655 12.024 19.69 12.381 19.69H19.048C19.608 19.69 20.214 19.667 20.655 19.298C21.19 18.833 21.429 18.167 21.785 17.571C22.738 15.905 23.667 14.226 24.643 12.571C24.845 12.214 25 11.75 24.786 11.357C24.607 11 24.166 10.988 23.81 10.964C19 10.964 14.167 10.988 9.357 10.964C8.988 10.345 8.881 9.595 8.405 9.06C7.333 8.964 6.226 9.036 5.155 9.036ZM12.667 20.976C12.083 21.107 11.607 21.619 11.536 22.214C11.429 22.929 11.429 23.762 11.94 24.334C12.417 24.81 13.155 24.857 13.798 24.81C14.358 24.762 14.952 24.5 15.19 23.952C15.44 23.345 15.44 22.667 15.298 22.036C15.167 21.488 14.69 21.071 14.143 20.952C13.655 20.857 13.143 20.857 12.667 20.976ZM18.619 20.976C18.036 21.107 17.583 21.596 17.464 22.179C17.3194 22.8082 17.3953 23.468 17.679 24.048C17.976 24.583 18.595 24.798 19.167 24.821C19.75 24.833 20.393 24.774 20.833 24.357C21.31 23.857 21.381 23.107 21.31 22.452C21.262 21.892 20.976 21.298 20.429 21.072C19.857 20.857 19.214 20.845 18.619 20.976Z" fill="black"/>
</g>
<defs>
<clipPath id="clip0_16_3095">
<rect width="32" height="32" fill="white"/>
</clipPath>
</defs>
</svg>
