<svg width="32" height="32" viewBox="0 0 32 32" fill="none" xmlns="http://www.w3.org/2000/svg">
<g clip-path="url(#clip0_16_3097)">
<path fill-rule="evenodd" clip-rule="evenodd" d="M16 32C7.163 32 0 24.837 0 16C0 7.163 7.163 0 16 0C24.837 0 32 7.163 32 16C32 24.837 24.837 32 16 32ZM6.047 15.454L6.039 13.717L15.681 19.376C15.909 19.51 16.191 19.511 16.421 19.377L26.632 13.433C26.7434 13.3676 26.8358 13.2743 26.9001 13.1623C26.9645 13.0504 26.9986 12.9236 26.9991 12.7944C26.9996 12.6653 26.9665 12.5382 26.903 12.4258C26.8395 12.3133 26.7478 12.2193 26.637 12.153L16.425 6.103C16.3116 6.0357 16.1822 6.00027 16.0504 6.00045C15.9185 6.00062 15.7892 6.0364 15.676 6.104L5.256 12.34C5.1648 12.3948 5.09225 12.4759 5.04783 12.5726C5.00341 12.6693 4.98918 12.7771 5.007 12.882C5.00217 12.9144 4.99983 12.9472 5 12.98V15.454C5 16.101 5.343 16.699 5.899 17.023L15.682 22.723C15.912 22.856 16.195 22.855 16.424 22.72L25.897 17.116V19.017L16.05 24.895L5.787 18.862C5.72761 18.8271 5.66188 18.8043 5.59363 18.795C5.52537 18.7856 5.45594 18.7899 5.38935 18.8076C5.32276 18.8252 5.26034 18.8559 5.20569 18.8979C5.15105 18.9399 5.10527 18.9922 5.071 19.052C5.00124 19.1729 4.98196 19.3164 5.01735 19.4513C5.05273 19.5863 5.13992 19.7019 5.26 19.773L15.68 25.899C15.91 26.035 16.196 26.034 16.426 25.896L26.583 19.833C26.6929 19.7669 26.7838 19.6735 26.8468 19.5619C26.9099 19.4503 26.9431 19.3242 26.943 19.196V16.569C26.943 16.4394 26.9088 16.312 26.844 16.1997C26.7791 16.0875 26.6859 15.9942 26.5736 15.9294C26.4614 15.8645 26.334 15.8303 26.2044 15.8303C26.0747 15.8302 25.9473 15.8643 25.835 15.929L16.05 21.719L6.423 16.109C6.30861 16.0421 6.21371 15.9465 6.14775 15.8316C6.08178 15.7167 6.04705 15.5865 6.047 15.454ZM16.053 18.374L6.555 12.789L16.053 7.105L25.647 12.789L16.053 18.373V18.374Z" fill="black"/>
</g>
<defs>
<clipPath id="clip0_16_3097">
<rect width="32" height="32" fill="white"/>
</clipPath>
</defs>
</svg>
