<svg width="32" height="32" viewBox="0 0 32 32" fill="none" xmlns="http://www.w3.org/2000/svg">
<g clip-path="url(#clip0_16_3107)">
<path d="M13.147 15.434C13.1541 15.4495 13.1575 15.4663 13.157 15.4834C13.1565 15.5004 13.152 15.517 13.144 15.532C13.1287 15.5583 13.1039 15.5777 13.0748 15.5865C13.0456 15.5952 13.0143 15.5925 12.987 15.579C5.45 11.659 19.828 7.094 27.751 12.439C27.847 12.494 27.931 12.549 28 12.602C27.919 12.544 27.834 12.495 27.751 12.439C24.811 10.763 10.147 9.096 13.147 15.434ZM21.473 20.754C25.631 18.864 22.249 12.392 16.748 13.641C16.7183 13.6474 16.6874 13.6422 16.6615 13.6263C16.6356 13.6105 16.6168 13.5853 16.609 13.556C16.6047 13.5357 16.6063 13.5145 16.6136 13.4951C16.6209 13.4756 16.6335 13.4586 16.65 13.446C20.93 10.23 28.964 17.738 21.473 20.753V20.754ZM4 18.011C16.101 25.754 22.334 18.478 17.955 15.301L17.949 15.296C17.9379 15.2871 17.9286 15.2762 17.9218 15.2638C17.9149 15.2513 17.9105 15.2376 17.909 15.2235C17.9074 15.2094 17.9086 15.1951 17.9126 15.1815C17.9165 15.1678 17.9231 15.1551 17.932 15.144C17.9455 15.1275 17.9633 15.115 17.9834 15.108C18.0035 15.1009 18.0252 15.0996 18.046 15.104C28.547 17 14.26 27.665 4 18.01V18.011ZM12.2 10.854C5.581 15.394 12.944 17.454 14.281 17.018C14.3019 17.0124 14.3238 17.0117 14.345 17.016C14.3597 17.0193 14.3736 17.0255 14.3858 17.0343C14.3981 17.0431 14.4084 17.0543 14.4161 17.0672C14.4239 17.0801 14.429 17.0944 14.431 17.1094C14.433 17.1243 14.432 17.1395 14.428 17.154C13.525 20.617 3.118 13.762 12.2 10.854ZM16 0C7.164 0 0 7.163 0 16C0 24.836 7.164 32 16 32C24.836 32 32 24.836 32 16C32 7.163 24.836 0 16 0Z" fill="black"/>
</g>
<defs>
<clipPath id="clip0_16_3107">
<rect width="32" height="32" fill="white"/>
</clipPath>
</defs>
</svg>
