<svg width="32" height="32" viewBox="0 0 32 32" fill="none" xmlns="http://www.w3.org/2000/svg">
<g clip-path="url(#clip0_16_3113)">
<path d="M16 32C7.163 32 0 24.837 0 16C0 7.163 7.163 0 16 0C24.837 0 32 7.163 32 16C32 24.837 24.837 32 16 32ZM15.7 27.4C22.162 27.4 27.4 22.162 27.4 15.7C27.4 9.238 22.162 4 15.7 4C9.238 4 4 9.238 4 15.7C4 22.162 9.238 27.4 15.7 27.4ZM18.59 19.7L20.94 15.7L18.32 11.22H13.08L10.46 15.7L12.81 19.7L15.7 15.7L18.59 19.7ZM19.45 9.3L23.19 15.7L19.45 22.1H11.96L8.21 15.7L11.95 9.3H19.45Z" fill="black"/>
</g>
<defs>
<clipPath id="clip0_16_3113">
<rect width="32" height="32" fill="white"/>
</clipPath>
</defs>
</svg>
