<svg width="32" height="32" viewBox="0 0 32 32" fill="none" xmlns="http://www.w3.org/2000/svg">
<g clip-path="url(#clip0_16_3115)">
<path fill-rule="evenodd" clip-rule="evenodd" d="M16 32C7.163 32 0 24.837 0 16C0 7.163 7.163 0 16 0C24.837 0 32 7.163 32 16C32 24.837 24.837 32 16 32ZM25.08 11.478L19.026 6.56C18.393 6.048 17.246 5.85 16.473 6.122L9.053 8.728C8.281 8.998 7.531 9.862 7.389 10.646L6.029 18.17C5.886 18.954 6.286 20.01 6.919 20.523L12.977 25.44C13.609 25.953 14.757 26.15 15.529 25.878L22.948 23.273C23.72 23.003 24.47 22.139 24.612 21.355L25.972 13.831C26.112 13.052 25.712 11.991 25.08 11.478ZM18.769 14.856L15.939 14.852L15.413 17.514C15.248 18.339 15.203 18.804 16.053 18.804H17.967L17.567 20.494H15.279C13.926 20.494 13.046 19.231 13.398 17.452C13.538 16.753 13.958 14.859 13.958 14.859H12.719L12.976 13.54C14.1027 13.1048 15.064 12.3265 15.724 11.315H16.639L16.239 13.331L19.071 13.327L18.769 14.856Z" fill="black"/>
</g>
<defs>
<clipPath id="clip0_16_3115">
<rect width="32" height="32" fill="white"/>
</clipPath>
</defs>
</svg>
