<svg width="32" height="32" viewBox="0 0 32 32" fill="none" xmlns="http://www.w3.org/2000/svg">
<g clip-path="url(#clip0_16_3117)">
<path d="M26.998 16.205L27 16C27 12.96 25.925 10.365 23.775 8.215C21.632 6.072 19.04 5 16 5C12.96 5 10.365 6.072 8.215 8.215C6.072 10.365 5 12.96 5 16C5.01944 15.7177 5.02945 15.4349 5.03 15.152C5.07066 15.1539 5.11112 15.1589 5.151 15.167L9.842 7.031C9.8109 6.99514 9.78344 6.95628 9.76 6.915C10.233 6.582 10.725 6.293 11.236 6.047C11.263 6.092 11.286 6.139 11.304 6.189H20.696C20.7142 6.13966 20.737 6.09212 20.764 6.047C21.2793 6.29682 21.7733 6.58847 22.241 6.919C22.218 6.95706 22.1919 6.99318 22.163 7.027L26.849 15.167C26.8892 15.1589 26.93 15.1539 26.971 15.152C26.9952 15.5024 27.0042 15.8538 26.998 16.205ZM26.97 16.867C26.9294 16.8654 26.8889 16.8607 26.849 16.853L22.158 24.978C22.186 25.011 22.212 25.045 22.236 25.08C22.7856 24.6897 23.3008 24.2532 23.776 23.775C25.718 21.838 26.783 19.535 26.97 16.867ZM22.113 25.166C21.677 25.465 21.226 25.727 20.759 25.953C20.7341 25.911 20.713 25.8668 20.696 25.821H11.304C11.2868 25.8669 11.2654 25.9111 11.24 25.953C10.9842 25.8302 10.7336 25.6968 10.489 25.553C12.126 26.516 13.963 27 16 27C18.293 27 20.33 26.389 22.113 25.166ZM9.765 25.085C9.78759 25.0472 9.81334 25.0114 9.842 24.978L5.151 16.853C5.11108 16.8607 5.07063 16.8654 5.03 16.867C5.217 19.536 6.278 21.838 8.215 23.775C8.708 24.268 9.225 24.705 9.765 25.085ZM16 32C7.163 32 0 24.837 0 16C0 7.163 7.163 0 16 0C24.837 0 32 7.163 32 16C32 24.837 24.837 32 16 32ZM26.347 15.46L21.797 7.572V15.201C21.911 15.244 22.015 15.311 22.109 15.406C22.199 15.4936 22.269 15.5997 22.314 15.717H26.191C26.2269 15.6223 26.2798 15.5348 26.347 15.459V15.46ZM26.191 16.302H22.314C22.269 16.4196 22.1991 16.5261 22.109 16.614C22.0211 16.7042 21.9147 16.7741 21.797 16.819V24.438L26.347 16.56C26.2798 16.4841 26.227 16.3967 26.191 16.302ZM5.81 15.717H9.687C9.73205 15.5997 9.80199 15.4936 9.892 15.406C9.9799 15.3158 10.0864 15.2459 10.204 15.201V7.572L5.654 15.459C5.724 15.539 5.775 15.625 5.81 15.717ZM11.295 6.793L17.409 12.088C17.5824 11.9867 17.7869 11.9522 17.984 11.991L20.854 7.031C20.7869 6.95493 20.7337 6.86759 20.697 6.773H11.305C11.3024 6.77999 11.299 6.78669 11.295 6.793ZM11.305 15.717H15.192C15.2256 15.6192 15.2768 15.5284 15.343 15.449L10.788 7.572V15.201C10.902 15.244 11.006 15.311 11.1 15.406C11.19 15.4936 11.26 15.5997 11.305 15.717ZM18.637 13.14L21.087 15.26C21.1276 15.2368 21.1701 15.217 21.214 15.201V7.572L18.49 12.283C18.6212 12.436 18.6923 12.6315 18.69 12.833C18.6907 12.9377 18.6728 13.0416 18.637 13.14ZM17.034 12.527L11.616 7.84L15.849 15.157C15.9487 15.1372 16.0513 15.1372 16.151 15.157L17.179 13.384C17.0446 13.2326 16.9715 13.0365 16.974 12.834C16.974 12.724 16.994 12.621 17.033 12.527H17.034ZM16.814 15.717H20.697C20.7008 15.7109 20.7042 15.7046 20.707 15.698L18.257 13.578C18.0837 13.6797 17.8792 13.7145 17.682 13.676L16.659 15.45C16.7264 15.5289 16.7789 15.6194 16.814 15.717ZM20.902 16.614C20.8119 16.5261 20.742 16.4196 20.697 16.302H16.805C16.7708 16.3911 16.7214 16.4737 16.659 16.546L21.214 24.437V16.82C21.0964 16.7751 20.9899 16.7051 20.902 16.615V16.614ZM15.86 16.848L14.827 18.636C14.96 18.794 15.027 18.977 15.027 19.186C15.027 19.296 15.009 19.397 14.973 19.493L20.385 24.174L16.152 16.843C16.0555 16.8593 15.957 16.861 15.86 16.848ZM20.707 25.217L14.593 19.931C14.4197 20.0328 14.2152 20.0676 14.018 20.029L11.154 24.979C11.2191 25.0549 11.2699 25.142 11.304 25.236H20.697C20.7008 25.2299 20.7041 25.2236 20.707 25.217ZM14.32 18.343L15.348 16.555C15.2834 16.4802 15.2326 16.3946 15.198 16.302H11.305C11.3023 16.309 11.2989 16.3157 11.295 16.322L13.745 18.441C13.9182 18.3391 14.1228 18.3043 14.32 18.343ZM13.37 18.879L10.915 16.76C10.8744 16.783 10.8319 16.8024 10.788 16.818V24.442L13.517 19.736C13.3826 19.5846 13.3095 19.3885 13.312 19.186C13.312 19.076 13.332 18.974 13.37 18.879ZM9.892 16.614C9.8019 16.5261 9.73195 16.4196 9.687 16.302H5.81C5.77401 16.3967 5.72115 16.4841 5.654 16.56L10.204 24.437V16.82C10.0864 16.775 9.97994 16.7051 9.892 16.615V16.614Z" fill="black"/>
</g>
<defs>
<clipPath id="clip0_16_3117">
<rect width="32" height="32" fill="white"/>
</clipPath>
</defs>
</svg>
