<svg width="32" height="32" viewBox="0 0 32 32" fill="none" xmlns="http://www.w3.org/2000/svg">
<g clip-path="url(#clip0_16_3119)">
<path d="M16 32C7.163 32 0 24.837 0 16C0 7.163 7.163 0 16 0C24.837 0 32 7.163 32 16C32 24.837 24.837 32 16 32ZM26.983 15.774V15.544L22.463 18.172V16.862L26.983 14.235V9.387L15.99 3L10.495 6.194L10.297 6.309L14.817 8.936L13.691 9.59L9.171 6.963L5 9.387V22.161L10.495 25.355L10.694 25.47V20.216L11.82 20.87V26.125L15.992 28.548L26.983 22.161V15.774ZM21.288 13.35L16.738 15.996V21.498L15.992 21.931L15.429 21.604V16.314L10.694 13.562V12.696L11.257 12.368L15.809 15.013L20.544 12.263L21.289 12.696V13.351L21.288 13.35ZM14.83 6.27L15.991 5.596L24.749 10.686V12.861L23.589 13.535V11.359L20.542 9.59L15.808 12.341L14.681 11.687L19.416 8.935L14.83 6.27ZM8.395 21.54L7.233 20.865V10.685L9.105 9.597L10.267 10.271L8.395 11.36V14.898L13.129 17.65V18.959L8.395 16.208V21.538V21.54ZM24.75 19.515V20.865L15.992 25.955L14.12 24.866V23.516L15.992 24.604L19.037 22.835V17.333L20.163 16.678V22.181L24.75 19.515Z" fill="black"/>
</g>
<defs>
<clipPath id="clip0_16_3119">
<rect width="32" height="32" fill="white"/>
</clipPath>
</defs>
</svg>
