<svg width="32" height="32" viewBox="0 0 32 32" fill="none" xmlns="http://www.w3.org/2000/svg">
<g clip-path="url(#clip0_16_3125)">
<path d="M16 32C7.163 32 0 24.837 0 16C0 7.163 7.163 0 16 0C24.837 0 32 7.163 32 16C32 24.837 24.837 32 16 32ZM6 11.386V12.536C6 12.75 6.173 12.923 6.386 12.923H11.7C12.473 12.923 12.86 13.276 12.86 13.981C12.86 14.494 12.473 14.814 11.7 14.942H6.386C6.33514 14.942 6.28478 14.952 6.23782 14.9716C6.19086 14.9911 6.14822 15.0197 6.11235 15.0558C6.07648 15.0918 6.04809 15.1346 6.02881 15.1817C6.00953 15.2287 5.99974 15.2791 6 15.33V16.48C6 16.693 6.173 16.866 6.386 16.866H11.7C12.795 16.93 13.343 17.316 13.343 18.02C13.343 18.724 12.795 19.078 11.7 19.078H6.386C6.28363 19.078 6.18545 19.1187 6.11306 19.1911C6.04067 19.2634 6 19.3616 6 19.464V20.614C6 20.828 6.173 21.001 6.386 21.001H11.7C13.246 21.001 15.565 20.521 15.565 18.116C15.565 17.091 15.115 16.322 14.213 15.809C14.857 15.232 15.179 14.591 15.179 13.886C15.179 12.196 13.729 11.001 11.411 11.001H6.387C6.28453 11.001 6.18625 11.0416 6.1137 11.114C6.04115 11.1864 6.00026 11.2845 6 11.387V11.386ZM16.435 11.386V12.536C16.435 12.75 16.608 12.923 16.821 12.923H19.72C19.933 12.923 20.106 13.096 20.106 13.31V20.614C20.106 20.827 20.279 21 20.493 21H21.942C21.9928 21.0001 22.0431 20.9902 22.09 20.9709C22.137 20.9516 22.1796 20.9232 22.2156 20.8873C22.2515 20.8514 22.2801 20.8088 22.2995 20.7619C22.319 20.715 22.329 20.6648 22.329 20.614V11.386C22.329 11.3352 22.319 11.285 22.2995 11.2381C22.2801 11.1912 22.2515 11.1486 22.2156 11.1127C22.1796 11.0768 22.137 11.0484 22.09 11.0291C22.0431 11.0098 21.9928 10.9999 21.942 11H16.822C16.7712 10.9999 16.7209 11.0098 16.674 11.0291C16.627 11.0484 16.5844 11.0768 16.5484 11.1127C16.5125 11.1486 16.4839 11.1912 16.4645 11.2381C16.445 11.285 16.435 11.3352 16.435 11.386ZM23.68 11C23.5776 11 23.4794 11.0407 23.4071 11.1131C23.3347 11.1854 23.294 11.2836 23.294 11.386V12.536C23.294 12.75 23.467 12.923 23.68 12.923H25.613C25.7154 12.923 25.8136 12.8823 25.8859 12.8099C25.9583 12.7376 25.999 12.6394 25.999 12.537V11.387C25.9991 11.3362 25.9892 11.2859 25.9699 11.239C25.9506 11.192 25.9222 11.1494 25.8863 11.1134C25.8504 11.0775 25.8078 11.0489 25.7609 11.0295C25.714 11.01 25.6638 11 25.613 11H23.68Z" fill="black"/>
</g>
<defs>
<clipPath id="clip0_16_3125">
<rect width="32" height="32" fill="white"/>
</clipPath>
</defs>
</svg>
