<svg width="32" height="32" viewBox="0 0 32 32" fill="none" xmlns="http://www.w3.org/2000/svg">
<g clip-path="url(#clip0_16_3127)">
<path d="M16 32C7.163 32 0 24.837 0 16C0 7.163 7.163 0 16 0C24.837 0 32 7.163 32 16C32 24.837 24.837 32 16 32ZM13.092 7.913H13.055V20.653C13.055 26.39 20.175 26.751 22.78 25.236L21.716 22.06C20.541 22.673 17.422 22.457 17.422 20.616V14.553H23V11.053H17.459L17.495 6L13.092 7.913ZM8.982 15.491C10.076 15.491 10.963 14.425 10.963 13.11C10.963 11.794 10.076 10.728 8.982 10.728C7.887 10.728 7 11.794 7 13.11C7 14.425 7.887 15.491 8.982 15.491Z" fill="black"/>
</g>
<defs>
<clipPath id="clip0_16_3127">
<rect width="32" height="32" fill="white"/>
</clipPath>
</defs>
</svg>
