<svg width="32" height="32" viewBox="0 0 32 32" fill="none" xmlns="http://www.w3.org/2000/svg">
<g clip-path="url(#clip0_16_3141)">
<path fill-rule="evenodd" clip-rule="evenodd" d="M16 32C7.163 32 0 24.837 0 16C0 7.163 7.163 0 16 0C24.837 0 32 7.163 32 16C32 24.837 24.837 32 16 32ZM10.123 7C9.811 8.658 7.935 8.762 7.935 8.762C3.56 23.062 15.958 27 15.958 27C29.398 21.508 23.876 8.658 23.876 8.658C22.21 8.554 21.896 7 21.896 7H10.123ZM21.273 8.023L21.285 8.282C21.3053 8.47956 21.3685 8.67032 21.47 8.841C21.66 9.159 21.97 9.357 22.456 9.389L22.626 9.4L22.691 9.558C22.7441 9.69351 22.7941 9.83021 22.841 9.968C22.951 10.293 23.061 10.664 23.163 11.073C23.782 13.553 23.855 16.172 23.026 18.633C22.022 21.613 19.78 24.008 16.074 25.593L15.979 25.633L15.881 25.602C15.768 25.564 15.6563 25.5223 15.546 25.477C15.2542 25.3595 14.9676 25.2293 14.687 25.087C13.7519 24.6143 12.88 24.0256 12.092 23.335C10.599 22.024 9.466 20.385 8.84 18.385C8.077 15.945 8.11 13.083 9.079 9.774L9.131 9.596L9.315 9.578C9.38924 9.56738 9.46272 9.55202 9.535 9.532C9.71594 9.48249 9.88849 9.40632 10.047 9.306C10.407 9.076 10.651 8.736 10.739 8.247L10.753 8.023H21.273ZM11.228 8.568C11.0952 9.06467 10.7789 9.49246 10.343 9.765C10.1023 9.91815 9.83663 10.0278 9.558 10.089C8.665 13.229 8.646 15.929 9.364 18.223C9.958 20.122 11.034 21.678 12.454 22.926C13.244 23.619 14.09 24.173 14.936 24.601C15.2673 24.7687 15.6074 24.9183 15.955 25.049C19.46 23.526 21.561 21.266 22.506 18.459C23.297 16.111 23.226 13.593 22.631 11.205C22.5223 10.7689 22.3921 10.3383 22.241 9.915C21.665 9.833 21.254 9.545 20.999 9.121C20.8974 8.95026 20.8232 8.76468 20.779 8.571L11.228 8.568ZM18.588 14.15C18.8152 14.15 19.0332 14.2399 19.1944 14.4001C19.3555 14.5603 19.4467 14.7778 19.448 15.005V18.58C19.4467 18.8072 19.3555 19.0247 19.1944 19.1849C19.0332 19.3451 18.8152 19.435 18.588 19.435H13.431C13.2038 19.435 12.9858 19.3451 12.8246 19.1849C12.6635 19.0247 12.5723 18.8072 12.571 18.58V15.005C12.5723 14.7778 12.6635 14.5603 12.8246 14.4001C12.9858 14.2399 13.2038 14.15 13.431 14.15H13.654C13.683 12.717 14.449 12.144 15.091 11.916C15.557 11.759 16.057 11.736 16.535 11.85C18.18 12.218 18.315 13.542 18.285 14.15H18.588ZM16.583 18.192L16.28 16.685C16.4225 16.6236 16.5394 16.5148 16.6109 16.377C16.6824 16.2393 16.7041 16.0811 16.6723 15.9292C16.6405 15.7773 16.5573 15.6411 16.4366 15.5435C16.3159 15.446 16.1652 15.3932 16.01 15.394C15.9184 15.3545 15.8191 15.3359 15.7194 15.3394C15.6197 15.343 15.5221 15.3687 15.4335 15.4147C15.345 15.4606 15.2677 15.5257 15.2074 15.6052C15.1471 15.6847 15.1052 15.7766 15.0848 15.8742C15.0644 15.9719 15.0659 16.0729 15.0893 16.1699C15.1127 16.2668 15.1574 16.3574 15.2201 16.435C15.2828 16.5126 15.362 16.5753 15.4519 16.6185C15.5418 16.6618 15.6402 16.6845 15.74 16.685L15.437 18.192H16.583ZM14.395 14.15H17.451C17.481 12.403 15.854 12.492 15.854 12.492C14.621 12.574 14.424 13.682 14.395 14.15Z" fill="black"/>
</g>
<defs>
<clipPath id="clip0_16_3141">
<rect width="32" height="32" fill="white"/>
</clipPath>
</defs>
</svg>
