<svg width="32" height="32" viewBox="0 0 32 32" fill="none" xmlns="http://www.w3.org/2000/svg">
<g clip-path="url(#clip0_16_3143)">
<path d="M16 32C7.163 32 0 24.837 0 16C0 7.163 7.163 0 16 0C24.837 0 32 7.163 32 16C32 24.837 24.837 32 16 32ZM16.006 5.6C16.4 5.6 16.787 5.703 17.128 5.9L24.288 10.034C24.6293 10.2312 24.9127 10.5147 25.1096 10.8561C25.3066 11.1976 25.4102 11.5848 25.41 11.979V20.413C25.41 21.215 24.983 21.956 24.288 22.357L17.127 26.492C16.7857 26.689 16.3986 26.7928 16.0045 26.7928C15.6104 26.7928 15.2233 26.689 14.882 26.492L7.72 22.357C7.37873 22.16 7.0953 21.8766 6.89818 21.5354C6.70106 21.1942 6.59719 20.8071 6.597 20.413V11.979C6.597 11.177 7.025 10.436 7.72 10.034L14.88 5.9C15.222 5.703 15.61 5.599 16.003 5.599H16.005L16.006 5.6ZM16.004 4.039C15.3363 4.03939 14.6804 4.21527 14.102 4.549L6.94 8.682C6.36211 9.01681 5.88221 9.49743 5.54827 10.0758C5.21432 10.6542 5.03803 11.3101 5.037 11.978V20.412C5.03803 21.0799 5.21432 21.7358 5.54827 22.3142C5.88221 22.8926 6.36211 23.3732 6.94 23.708L14.1 27.842C15.278 28.522 16.729 28.522 17.906 27.842L25.067 23.708C25.6449 23.3732 26.1248 22.8926 26.4587 22.3142C26.7927 21.7358 26.969 21.0799 26.97 20.412V11.978C26.969 11.3101 26.7927 10.6542 26.4587 10.0758C26.1248 9.49743 25.6449 9.01681 25.067 8.682L17.907 4.547C17.3281 4.21293 16.6714 4.03704 16.003 4.037L16.004 4.039ZM20.894 15.949H19.232C19.1499 15.9491 19.0693 15.9707 18.9982 16.0118C18.9271 16.0528 18.868 16.1119 18.827 16.183L17.964 17.676C17.9229 17.7471 17.9013 17.8278 17.9013 17.91C17.9013 17.9922 17.9229 18.0729 17.964 18.144L19 19.936C19.8531 18.724 20.4939 17.3758 20.895 15.949H20.894ZM15.127 17.519H16.885C16.967 17.5191 17.0476 17.4977 17.1187 17.4568C17.1898 17.4159 17.2489 17.357 17.29 17.286L18.152 15.793C18.1931 15.7219 18.2147 15.6412 18.2147 15.559C18.2147 15.4768 18.1931 15.3961 18.152 15.325L17.29 13.832C17.249 13.7609 17.1899 13.7018 17.1188 13.6608C17.0477 13.6197 16.9671 13.5981 16.885 13.598H15.127C15.0447 13.5979 14.9639 13.6194 14.8926 13.6605C14.8213 13.7016 14.7621 13.7608 14.721 13.832L13.86 15.325C13.8189 15.3961 13.7973 15.4768 13.7973 15.559C13.7973 15.6412 13.8189 15.7219 13.86 15.793L14.721 17.286C14.7621 17.3572 14.8213 17.4164 14.8926 17.4575C14.9639 17.4986 15.0447 17.5201 15.127 17.52V17.519ZM12.778 15.169C12.8602 15.1689 12.941 15.1473 13.0122 15.1062C13.0835 15.0651 13.1427 15.0061 13.184 14.935L14.045 13.442C14.0861 13.3709 14.1077 13.2902 14.1077 13.208C14.1077 13.1258 14.0861 13.0451 14.045 12.974L12.971 11.113L10.874 12.257C10.7988 12.2982 10.7364 12.3592 10.6936 12.4335C10.6507 12.5077 10.6291 12.5923 10.631 12.678C10.648 13.516 10.746 14.35 10.922 15.169H12.778ZM19.233 15.169H21.089C21.265 14.349 21.363 13.516 21.38 12.678C21.3818 12.5922 21.3601 12.5075 21.317 12.4333C21.274 12.359 21.2114 12.2981 21.136 12.257L19.04 11.113L17.966 12.974C17.9249 13.0451 17.9033 13.1258 17.9033 13.208C17.9033 13.2902 17.9249 13.3709 17.966 13.442L18.828 14.935C18.869 15.0061 18.9281 15.0652 18.9992 15.1062C19.0703 15.1473 19.1509 15.1689 19.233 15.169ZM16.23 9.579C16.1613 9.54154 16.0843 9.52191 16.006 9.52191C15.9277 9.52191 15.8507 9.54154 15.782 9.579L13.656 10.739L14.722 12.584C14.7631 12.6551 14.8221 12.7142 14.8932 12.7552C14.9643 12.7963 15.0449 12.8179 15.127 12.818H16.885C16.9671 12.818 17.0478 12.7964 17.1189 12.7554C17.19 12.7143 17.249 12.6552 17.29 12.584L18.356 10.739L16.23 9.579ZM15.127 18.3C15.0447 18.2999 14.9639 18.3214 14.8926 18.3625C14.8213 18.4036 14.7621 18.4628 14.721 18.534L13.521 20.614C14.1673 21.417 14.9053 22.1416 15.72 22.773C15.8021 22.8362 15.9029 22.8704 16.0065 22.8704C16.1101 22.8704 16.2108 22.8362 16.293 22.773C17.1074 22.1412 17.8451 21.4163 18.491 20.613L17.291 18.534C17.25 18.4629 17.1909 18.4038 17.1198 18.3628C17.0487 18.3217 16.9681 18.3001 16.886 18.3H15.126H15.127ZM11.116 15.949C11.5171 17.3758 12.1579 18.724 13.011 19.936L14.046 18.144C14.0871 18.0729 14.1087 17.9922 14.1087 17.91C14.1087 17.8278 14.0871 17.7471 14.046 17.676L13.184 16.183C13.143 16.1119 13.0839 16.0528 13.0128 16.0118C12.9417 15.9707 12.8611 15.9491 12.779 15.949H11.116Z" fill="black"/>
</g>
<defs>
<clipPath id="clip0_16_3143">
<rect width="32" height="32" fill="white"/>
</clipPath>
</defs>
</svg>
