<svg width="32" height="32" viewBox="0 0 32 32" fill="none" xmlns="http://www.w3.org/2000/svg">
<g clip-path="url(#clip0_16_3149)">
<path fill-rule="evenodd" clip-rule="evenodd" d="M16 32C7.163 32 0 24.837 0 16C0 7.163 7.163 0 16 0C24.837 0 32 7.163 32 16C32 24.837 24.837 32 16 32ZM17.7 15.4H21.2V12.6H10.8V15.4H14.3V25.856C15.6281 26.0835 16.9883 26.042 18.3 25.734V22.824C18.1026 22.8907 17.9024 22.9488 17.7 22.998V15.4ZM19.1 25.51C23.105 24.205 26 20.44 26 16C26 10.477 21.523 6 16 6C10.477 6 6 10.477 6 16C6 20.44 8.895 24.205 12.9 25.51V22.5C11.4258 21.7967 10.2345 20.6131 9.5217 19.1434C8.80893 17.6738 8.61705 16.0054 8.97757 14.4123C9.3381 12.8192 10.2296 11.3961 11.5057 10.3765C12.7818 9.35692 14.3666 8.80154 16 8.80154C17.6334 8.80154 19.2182 9.35692 20.4943 10.3765C21.7704 11.3961 22.6619 12.8192 23.0224 14.4123C23.3829 16.0054 23.1911 17.6738 22.4783 19.1434C21.7655 20.6131 20.5742 21.7967 19.1 22.5V25.51Z" fill="black"/>
</g>
<defs>
<clipPath id="clip0_16_3149">
<rect width="32" height="32" fill="white"/>
</clipPath>
</defs>
</svg>
