<svg width="32" height="32" viewBox="0 0 32 32" fill="none" xmlns="http://www.w3.org/2000/svg">
<g clip-path="url(#clip0_16_3171)">
<path d="M16 32C7.163 32 0 24.837 0 16C0 7.163 7.163 0 16 0C24.837 0 32 7.163 32 16C32 24.837 24.837 32 16 32ZM6 8V8.01C7.175 13.24 8.35 18.47 9.527 23.698H13.504L17.031 8H13.827L11.923 17.7C11.786 18.355 11.683 19.02 11.519 19.67C11.475 19.5076 11.4363 19.3439 11.403 19.179L9.313 8C8.208 8.003 7.103 8.003 6 8ZM18.314 12.932V12.931C17.521 13.899 17.3 15.193 17.207 16.415C17.137 17.668 17.146 18.93 17.294 20.177C17.442 21.26 17.815 22.39 18.67 23.103C19.59 23.88 20.843 24.037 21.997 23.993C23.059 23.95 24.181 23.596 24.877 22.73C25.571 21.897 25.767 20.777 25.827 19.717H23.163C23.067 20.356 22.975 21.054 22.535 21.552C22.205 21.916 21.661 22.012 21.209 21.865C20.785 21.713 20.519 21.3 20.375 20.883C20.079 20.038 20.135 19.127 20.131 18.245H26C26.001 17.05 25.988 15.845 25.737 14.675C25.53 13.739 25.094 12.799 24.299 12.243C23.401 11.611 22.259 11.515 21.199 11.589C20.125 11.659 19.011 12.056 18.314 12.932ZM20.588 14.177H20.589C21.084 13.435 22.38 13.437 22.789 14.266C23.12 14.936 23.115 15.711 23.162 16.444H20.13C20.122 15.673 20.134 14.831 20.588 14.177Z" fill="black"/>
</g>
<defs>
<clipPath id="clip0_16_3171">
<rect width="32" height="32" fill="white"/>
</clipPath>
</defs>
</svg>
