<svg width="32" height="32" viewBox="0 0 32 32" fill="none" xmlns="http://www.w3.org/2000/svg">
<g clip-path="url(#clip0_16_3173)">
<path fill-rule="evenodd" clip-rule="evenodd" d="M16 32C7.163 32 0 24.837 0 16C0 7.163 7.163 0 16 0C24.837 0 32 7.163 32 16C32 24.837 24.837 32 16 32ZM14.738 24.734C15.24 25.755 16.69 25.755 17.191 24.734L24.971 8.885C24.9914 8.8454 25.0011 8.8012 24.9994 8.75671C24.9976 8.71221 24.9843 8.66893 24.9609 8.63107C24.9374 8.59322 24.9046 8.56208 24.8655 8.54069C24.8265 8.5193 24.7825 8.50838 24.738 8.509H24.407C24.3369 8.50882 24.2681 8.52795 24.2081 8.56429C24.1481 8.60062 24.0993 8.65277 24.067 8.715L18.462 20.087C17.962 21.107 16.511 21.107 16.01 20.087L10.388 8.706C10.3557 8.64377 10.3069 8.59162 10.2469 8.55529C10.1869 8.51895 10.1181 8.49982 10.048 8.5H7.38C7.31575 8.50031 7.25263 8.5169 7.19654 8.54823C7.14045 8.57955 7.09321 8.62459 7.05925 8.67913C7.02529 8.73367 7.00571 8.79592 7.00234 8.86008C6.99898 8.92424 7.01193 8.98821 7.04 9.046L14.738 24.734Z" fill="black"/>
</g>
<defs>
<clipPath id="clip0_16_3173">
<rect width="32" height="32" fill="white"/>
</clipPath>
</defs>
</svg>
