<svg width="32" height="32" viewBox="0 0 32 32" fill="none" xmlns="http://www.w3.org/2000/svg">
<g clip-path="url(#clip0_16_3179)">
<path d="M16 32C7.163 32 0 24.837 0 16C0 7.163 7.163 0 16 0C24.837 0 32 7.163 32 16C32 24.837 24.837 32 16 32ZM22.63 16.918C22.27 16.824 21.91 16.745 21.534 16.651C23.031 14.404 24.511 12.18 26 9.932C25.9549 9.92644 25.9095 9.92377 25.864 9.924C24.912 9.924 23.959 9.924 23.007 9.916C22.863 9.916 22.815 9.986 22.751 10.081C20.991 12.736 19.23 15.393 17.469 18.053C16.989 18.782 16.501 19.51 15.997 20.27C15.9546 20.2215 15.9171 20.1689 15.885 20.113C13.7004 16.77 11.5127 13.429 9.322 10.09C9.29333 10.0327 9.24848 9.98517 9.19302 9.95317C9.13755 9.92117 9.07392 9.90616 9.01 9.91C8.106 9.917 7.202 9.91 6.297 9.917C6.241 9.917 6.177 9.925 6.089 9.933C7.554 12.157 8.986 14.35 10.435 16.566C10.379 16.582 10.347 16.582 10.315 16.59C9.642 16.762 8.97 16.91 8.306 17.115C7.642 17.32 7.002 17.585 6.481 18.055C5.825 18.642 5.841 19.253 6.521 19.825C6.545 19.848 6.577 19.863 6.601 19.887C7.066 20.255 7.601 20.497 8.162 20.694C9.931 21.328 11.779 21.571 13.652 21.704C13.7088 21.7049 13.7645 21.7205 13.8135 21.7492C13.8626 21.7779 13.9034 21.8189 13.932 21.868C14.6105 22.9167 15.2962 23.9607 15.989 25C16.032 24.929 16.079 24.86 16.133 24.796C16.789 23.817 17.437 22.838 18.093 21.86C18.1173 21.822 18.1489 21.7892 18.186 21.7634C18.2231 21.7377 18.2649 21.7195 18.309 21.71C19.246 21.593 20.19 21.515 21.119 21.374C22.263 21.202 23.383 20.912 24.439 20.403C24.856 20.207 25.248 19.973 25.536 19.604C25.864 19.181 25.888 18.758 25.528 18.359C25.2844 18.1245 25.0161 17.917 24.728 17.74C24.079 17.34 23.359 17.114 22.631 16.918H22.63ZM8.898 18.798C8.80275 18.7001 8.75013 18.5684 8.75163 18.4319C8.75313 18.2953 8.80863 18.1648 8.906 18.069C9.079 17.867 9.288 17.697 9.522 17.568C9.882 17.395 10.254 17.246 10.635 17.121C10.6709 17.115 10.7078 17.1175 10.7426 17.1285C10.7773 17.1395 10.809 17.1585 10.835 17.184C11.483 18.163 12.123 19.15 12.772 20.129C12.78 20.144 12.78 20.168 12.796 20.223C11.651 20.05 10.546 19.855 9.546 19.323C9.303 19.1838 9.08417 19.0062 8.898 18.797V18.798ZM21.502 19.643C20.806 19.839 20.094 19.996 19.39 20.168C19.3263 20.176 19.2617 20.176 19.198 20.168C19.446 19.792 19.686 19.424 19.926 19.064C20.31 18.492 20.694 17.92 21.07 17.341C21.142 17.231 21.214 17.184 21.334 17.247C21.687 17.419 22.047 17.583 22.391 17.756C22.491 17.816 22.583 17.89 22.663 17.975C22.983 18.304 22.983 18.665 22.663 18.985C22.34 19.298 21.94 19.525 21.503 19.643H21.502ZM21.51 9H10.475L16.029 17.732L21.51 9Z" fill="black"/>
</g>
<defs>
<clipPath id="clip0_16_3179">
<rect width="32" height="32" fill="white"/>
</clipPath>
</defs>
</svg>
