<svg width="32" height="32" viewBox="0 0 32 32" fill="none" xmlns="http://www.w3.org/2000/svg">
<g clip-path="url(#clip0_16_3183)">
<path fill-rule="evenodd" clip-rule="evenodd" d="M16 32C7.163 32 0 24.837 0 16C0 7.163 7.163 0 16 0C24.837 0 32 7.163 32 16C32 24.837 24.837 32 16 32ZM20.265 8L16.031 17.113L11.704 8H7L16 26L25 8H20.265ZM16 12.959C16.788 12.959 17.427 12.303 17.427 11.494C17.427 10.685 16.787 10.028 16 10.028C15.212 10.028 14.573 10.685 14.573 11.494C14.573 12.303 15.212 12.959 16 12.959ZM22.465 16.999C21.677 16.999 21.038 17.656 21.038 18.465C21.038 19.275 21.678 19.93 22.465 19.93C23.253 19.93 23.891 19.274 23.891 18.465C23.891 17.656 23.253 17 22.465 17V16.999Z" fill="black"/>
</g>
<defs>
<clipPath id="clip0_16_3183">
<rect width="32" height="32" fill="white"/>
</clipPath>
</defs>
</svg>
