<svg width="32" height="32" viewBox="0 0 32 32" fill="none" xmlns="http://www.w3.org/2000/svg">
<g clip-path="url(#clip0_16_3187)">
<path fill-rule="evenodd" clip-rule="evenodd" d="M27.25 4.624C27.1476 4.52565 27.0436 4.42897 26.938 4.334L15.783 19.787L11.52 14.349H4.582L2.632 16.569H6.26L14.921 27.763C15.211 28.035 15.497 28.171 15.783 28.171C16.068 28.171 16.34 28.035 16.599 27.763L30.294 8.82C30.1998 8.62659 30.1014 8.43522 29.999 8.246C31.3155 10.6181 32.0042 13.2871 32 16C32 24.837 24.837 32 16 32C7.163 32 0 24.837 0 16C0 7.163 7.163 0 16 0C20.386 0 24.36 1.765 27.25 4.624Z" fill="black"/>
</g>
<defs>
<clipPath id="clip0_16_3187">
<rect width="32" height="32" fill="white"/>
</clipPath>
</defs>
</svg>
