<svg width="32" height="32" viewBox="0 0 32 32" fill="none" xmlns="http://www.w3.org/2000/svg">
<g clip-path="url(#clip0_16_3191)">
<path fill-rule="evenodd" clip-rule="evenodd" d="M16 32C7.163 32 0 24.837 0 16C0 7.163 7.163 0 16 0C24.837 0 32 7.163 32 16C32 24.837 24.837 32 16 32ZM21.89 7.468C21.946 7.251 21.946 7.168 21.883 7.091C21.776 6.964 21.675 6.97 21.549 7.111C21.467 7.2 21.442 7.353 21.442 7.711C21.442 8.495 21.342 8.585 21.007 8.112C20.887 7.94 20.755 7.825 20.679 7.825C20.616 7.825 20.559 7.838 20.559 7.851C20.5501 7.89229 20.5377 7.93277 20.522 7.972C20.503 8.023 20.572 8.157 20.686 8.278C20.995 8.617 21.083 8.84 21.114 9.358C21.14 9.823 21.134 9.861 20.887 10.353C20.56 11.017 20.345 11.553 20.245 11.961C20.163 12.319 20.144 12.338 19.961 12.211C19.721 12.044 19.205 11.904 18.688 11.866C18.398 11.846 18.165 11.84 18.165 11.859C18.165 11.923 18.297 12.651 18.335 12.759C18.36 12.868 18.417 12.874 18.877 12.836C19.86 12.759 20.327 12.663 20.465 12.51C20.635 12.319 20.894 11.827 21.165 11.157C21.48 10.385 21.745 9.861 21.895 9.695C21.972 9.612 22.293 9.446 22.621 9.319C23.081 9.14 23.207 9.063 23.207 8.968C23.207 8.763 23.017 8.751 22.677 8.929C22.407 9.076 22.35 9.089 22.274 9.012C22.148 8.885 22.243 8.738 22.715 8.329C23.283 7.838 23.327 7.742 23.049 7.634C22.841 7.557 22.69 7.646 22.519 7.946C22.343 8.272 22.041 8.559 21.921 8.508C21.801 8.458 21.782 7.902 21.89 7.468ZM16.879 10.142C16.835 9.644 16.759 9.498 16.494 9.382C16.267 9.287 15.964 9.28 15.549 9.357C14.547 9.536 14.244 9.632 13.569 9.977C12.908 10.315 12.832 10.372 12.7 10.64C12.46 11.1 12.48 11.266 12.77 11.432C13.21 11.68 13.311 11.821 13.311 12.172C13.311 12.344 13.28 12.542 13.236 12.606C13.091 12.842 13.834 14.157 14.54 14.891C14.767 15.134 14.969 15.389 14.988 15.471C15.032 15.638 14.982 16.314 14.888 16.761C14.8044 17.1744 14.8047 17.6004 14.8889 18.0137C14.9731 18.427 15.1394 18.8192 15.378 19.167C16.028 20.137 16.86 20.45 17.667 20.023C18.07 19.806 18.265 19.557 18.442 19.008C18.789 17.942 18.814 16.882 18.518 15.97C18.322 15.37 18.278 15.095 18.07 13.155C17.875 11.368 17.824 11.093 17.641 11.017C17.566 10.991 17.408 10.927 17.295 10.883C17.011 10.78 16.923 10.615 16.879 10.143V10.142ZM10.916 12.523C10.916 12.197 10.803 11.846 10.67 11.738C10.557 11.648 10.393 11.629 10.33 11.7C10.236 11.795 10.299 12.127 10.475 12.485C10.677 12.887 10.708 13.117 10.589 13.238C10.419 13.41 10.236 13.334 9.586 12.798C9.391 12.638 9.151 12.683 9.151 12.874C9.151 13.021 9.435 13.212 9.876 13.353C10.053 13.41 10.242 13.513 10.305 13.589C10.412 13.717 10.418 13.729 10.311 13.806C10.241 13.857 10.109 13.87 9.933 13.844C9.78853 13.8234 9.64173 13.8258 9.498 13.851C9.366 13.883 9.334 13.927 9.353 14.068C9.372 14.228 9.397 14.24 9.624 14.234C9.80825 14.2292 9.99183 14.2098 10.173 14.176L10.469 14.126L10.954 14.578C11.219 14.828 11.534 15.172 11.647 15.351C11.937 15.785 12.277 16.123 12.429 16.123C12.561 16.123 12.914 15.689 13.229 15.133C13.513 14.643 13.545 14.489 13.475 13.985L13.405 13.538L12.965 14.285C12.618 14.878 12.492 15.031 12.385 15.038C12.208 15.038 11.805 14.617 11.61 14.234C11.414 13.838 11.414 13.244 11.603 12.931C11.742 12.701 11.78 12.331 11.673 12.261C11.547 12.178 11.363 12.37 11.263 12.689C11.2 12.874 11.131 13.053 11.099 13.085C11.023 13.168 10.916 12.848 10.916 12.523ZM22.444 18.273C22.835 17.859 23.087 17.463 23.068 17.303C23.056 17.202 22.998 17.176 22.798 17.163C22.495 17.157 22.451 17.163 21.726 17.413C20.326 17.891 19.123 18.657 18.706 19.34C18.593 19.519 18.593 19.525 18.706 19.48C19.596 19.11 20.824 18.67 20.856 18.702C20.913 18.752 19.696 21.019 19.539 21.152C19.343 21.325 19.318 21.433 19.457 21.548C19.526 21.612 19.709 21.606 20.339 21.523C21.669 21.35 21.871 21.376 22.98 21.893C23.528 22.148 23.68 22.173 23.736 22.021C23.786 21.887 23.692 21.771 23.44 21.67C22.885 21.453 22.936 21.23 23.547 21.23C23.887 21.23 24.827 21.401 25.104 21.516C25.167 21.542 25.274 21.491 25.388 21.396C25.564 21.236 25.57 21.229 25.451 21.133C25.356 21.063 25.148 21.038 24.587 21.038C23.963 21.038 23.831 21.018 23.705 20.916L23.56 20.796L23.768 20.667C23.881 20.597 24.247 20.476 24.581 20.399C25.791 20.131 26.1 19.985 25.974 19.749C25.823 19.461 25.564 19.487 24.619 19.914C24.064 20.164 23.541 20.291 23.484 20.195C23.384 20.029 23.56 19.805 24.127 19.378C24.455 19.129 24.745 18.88 24.764 18.829C24.808 18.702 24.606 18.485 24.436 18.485C24.234 18.485 24.007 18.689 23.673 19.161C23.503 19.404 23.276 19.64 23.119 19.729C22.848 19.889 22.614 19.933 22.551 19.838C22.539 19.812 22.646 19.576 22.804 19.314C22.927 19.118 23.033 18.911 23.119 18.695C23.169 18.504 23.112 18.357 22.986 18.357C22.797 18.357 22.589 18.65 22.514 19.033C22.469 19.238 22.406 19.473 22.362 19.55C22.268 19.736 21.751 20.284 21.467 20.508C21.24 20.68 20.245 21.121 20.194 21.07C20.144 21.019 20.264 20.865 21.436 19.448C21.833 18.97 22.286 18.44 22.444 18.274V18.273ZM7.992 20.528C7.83286 20.2895 7.68341 20.0446 7.544 19.794C7.311 19.386 7.267 19.347 7.071 19.328C6.95048 19.3173 6.82959 19.3442 6.725 19.405C6.611 19.488 6.611 19.507 6.693 19.666C6.743 19.762 6.983 20.011 7.229 20.216C7.903 20.777 8.332 21.613 7.973 21.664C7.777 21.696 7.418 21.485 6.901 21.045C6.656 20.828 6.403 20.655 6.347 20.655C6.177 20.655 6 20.783 6 20.905C6 21.058 6.082 21.122 6.555 21.313C7.057 21.514 7.522 21.801 7.929 22.162C8.301 22.513 8.256 22.59 7.702 22.532C7.399 22.507 7.261 22.513 7.229 22.571C7.135 22.724 7.387 22.845 8.169 23.024C8.603 23.126 9.082 23.266 9.227 23.343C9.567 23.522 10.154 24.083 10.525 24.593C10.822 25.009 11.005 25.098 11.168 24.9C11.206 24.85 11.276 24.607 11.301 24.364C11.326 24.122 11.509 23.445 11.704 22.864C12.076 21.728 12.12 21.409 11.963 20.892C11.913 20.726 11.887 20.579 11.913 20.566C11.937 20.554 12.171 20.586 12.429 20.636C13.217 20.79 13.853 20.713 15.159 20.311C15.757 20.12 15.819 20.043 15.517 19.826C15.234 19.622 13.116 19.316 11.975 19.316C11.282 19.316 11.244 19.341 11.068 19.89C10.973 20.19 10.96 20.509 10.954 22.105C10.948 23.125 10.929 23.988 10.897 24.013C10.752 24.16 10.462 23.471 10.343 22.698C10.261 22.13 10.293 21.708 10.475 21.128C10.633 20.63 10.614 20.368 10.405 20.305C10.135 20.215 9.983 20.496 9.965 21.128C9.958 21.364 9.915 21.6 9.876 21.658C9.801 21.76 9.788 21.76 9.63 21.651C9.385 21.491 9.334 21.307 9.265 20.305C9.227 19.755 9.177 19.392 9.133 19.366C9.019 19.29 8.742 19.309 8.66 19.392C8.553 19.5 8.565 19.756 8.704 20.285C8.855 20.866 8.924 21.422 8.843 21.422C8.761 21.422 8.225 20.86 7.992 20.528ZM17.03 9.568C17.03 9.568 16.96 10.124 17.093 10.437C17.093 10.437 17.263 10.717 17.49 10.762C17.49 10.762 17.591 10.213 17.42 9.773C17.42 9.779 17.352 9.518 17.03 9.569V9.568ZM12.486 11.388C12.266 11.624 12.429 11.835 12.429 11.828C12.681 12.224 13.185 12.46 13.185 12.46C13.28 12.243 13.154 11.943 13.154 11.943C12.971 11.656 12.486 11.388 12.486 11.388Z" fill="black"/>
</g>
<defs>
<clipPath id="clip0_16_3191">
<rect width="32" height="32" fill="white"/>
</clipPath>
</defs>
</svg>
