<svg width="32" height="32" viewBox="0 0 32 32" fill="none" xmlns="http://www.w3.org/2000/svg">
<g clip-path="url(#clip0_16_3203)">
<path d="M16 32C7.163 32 0 24.837 0 16C0 7.163 7.163 0 16 0C24.837 0 32 7.163 32 16C32 24.837 24.837 32 16 32ZM15.24 4C12.2899 4.19746 9.51505 5.47181 7.44283 7.5809C5.37062 9.68999 4.1454 12.4868 4 15.44V16.56C4.14025 19.542 5.38518 22.3652 7.49243 24.4798C9.59969 26.5945 12.4185 27.8493 15.4 28H16.58C19.5152 27.8541 22.2929 26.629 24.38 24.56C26.4382 22.5225 27.6644 19.7919 27.82 16.9L27.86 15.66C27.8681 15.55 27.8327 15.4411 27.7615 15.3568C27.6903 15.2725 27.589 15.2195 27.4791 15.209C27.3693 15.1986 27.2597 15.2315 27.1739 15.3009C27.0881 15.3702 27.0328 15.4704 27.02 15.58C26.97 16.328 26.856 17.071 26.68 17.8C26.2985 19.6284 25.4493 21.3266 24.2154 22.7288C22.9815 24.1309 21.4051 25.1891 19.64 25.8C17.4821 26.5514 15.138 26.5785 12.9634 25.877C10.7888 25.1755 8.90235 23.7838 7.59034 21.9131C6.27833 20.0423 5.61237 17.7947 5.69352 15.5111C5.77468 13.2276 6.5985 11.0329 8.04 9.26C9.80541 7.11467 12.3335 5.73696 15.0932 5.41623C17.853 5.0955 20.6296 5.85672 22.84 7.54C23.1 7.72 23.36 8.02 23.7 7.94C24.1 7.8 24.1 7.26 23.76 7.04C21.7638 5.20609 19.1876 4.13033 16.48 4H15.24ZM25 10.22H25.02C24.48 10.7 24.6 11.46 24.7 12.1C23.8 14.04 22.46 15.74 21 17.28L20.4 17.32C19.8039 16.6804 19.3113 15.9516 18.94 15.16C19.18 14.58 19.32 13.86 18.9 13.32C18.34 12.44 16.9 12.46 16.36 13.34C16 13.84 16.1 14.46 16.26 15C15.4112 16.8402 14.2393 18.5134 12.8 19.94C11.4759 18.3605 10.4156 16.5776 9.66 14.66C10.12 13.84 9.86 12.64 8.92 12.3C7.86 11.8 6.58 12.88 6.84 14C6.94 14.82 7.76 15.28 8.54 15.32C9.78381 16.8869 10.7695 18.6423 11.46 20.52C11.22 21.14 11.16 21.88 11.62 22.4C12.24 23.16 13.56 23.08 14.06 22.26C14.44 21.78 14.34 21.14 14.2 20.6C15.0208 18.8261 16.1065 17.1874 17.42 15.74L18.02 15.72C18.6328 16.3473 19.1394 17.07 19.52 17.86C19.26 18.48 19.12 19.26 19.62 19.82C20.3 20.7 21.86 20.48 22.22 19.42C22.52 18.88 22.04 18.2 22.42 17.68C23.36 15.94 24.46 14.28 25.84 12.88C26.88 12.96 27.9 12.06 27.64 11C27.46 9.82 25.8 9.34 25 10.22Z" fill="black"/>
</g>
<defs>
<clipPath id="clip0_16_3203">
<rect width="32" height="32" fill="white"/>
</clipPath>
</defs>
</svg>
