<svg width="32" height="32" viewBox="0 0 32 32" fill="none" xmlns="http://www.w3.org/2000/svg">
<g clip-path="url(#clip0_16_3221)">
<path fill-rule="evenodd" clip-rule="evenodd" d="M25.977 19.754L28.16 20.299L28.523 18.843L26.34 18.299L26.884 16.116L25.428 15.753L24.884 17.936L22.701 17.392L22.338 18.847L24.521 19.392L23.977 21.575L25.432 21.938L25.977 19.754ZM16 32C7.163 32 0 24.837 0 16C0 7.163 7.163 0 16 0C24.837 0 32 7.163 32 16C32 24.837 24.837 32 16 32ZM20.611 13.76C20.891 11.916 19.521 10.934 17.646 10.283L18.269 7.784L16.782 7.414L16.176 9.847C15.7801 9.7491 15.3831 9.65576 14.985 9.567L15.595 7.117L14.11 6.747L13.486 9.245C13.1689 9.17384 12.8526 9.0995 12.537 9.022L12.539 9.015L10.489 8.503L10.084 10.127C10.084 10.127 11.187 10.38 11.164 10.396C11.766 10.546 11.873 10.953 11.853 11.276L11.143 14.122C11.184 14.132 11.238 14.148 11.297 14.172L11.14 14.133L10.146 18.121C10.071 18.308 9.882 18.59 9.462 18.486C9.476 18.507 8.382 18.216 8.382 18.216L7.632 19.959L9.567 20.441C9.927 20.531 10.28 20.626 10.627 20.715L9.997 23.242L11.482 23.612L12.106 21.112C12.511 21.222 12.906 21.324 13.29 21.42L12.67 23.909L14.156 24.279L14.786 21.756C17.321 22.233 19.231 22.025 20.046 19.677C20.704 17.787 20.03 16.703 18.698 16.001C19.672 15.767 20.408 15.11 20.611 13.761V13.76ZM17.184 18.646C16.714 20.534 13.607 19.532 12.599 19.281L13.435 15.933C14.442 16.184 17.675 16.676 17.184 18.646ZM17.671 13.749C17.241 15.467 14.656 14.609 13.817 14.4L14.574 11.363C15.414 11.573 18.117 11.957 17.671 13.749Z" fill="black"/>
</g>
<defs>
<clipPath id="clip0_16_3221">
<rect width="32" height="32" fill="white"/>
</clipPath>
</defs>
</svg>
