<svg width="32" height="32" viewBox="0 0 32 32" fill="none" xmlns="http://www.w3.org/2000/svg">
<g clip-path="url(#clip0_16_3231)">
<path fill-rule="evenodd" clip-rule="evenodd" d="M16 32C7.163 32 0 24.837 0 16C0 7.163 7.163 0 16 0C24.837 0 32 7.163 32 16C32 24.837 24.837 32 16 32ZM6.145 11.954C6.229 12.654 6.351 13.352 6.51 14.047C6.535 14.158 6.568 14.256 6.61 14.347C6.9988 15.1868 7.63547 15.8873 8.43436 16.3544C9.23325 16.8215 10.156 17.0327 11.0786 16.9597C12.0011 16.8866 12.8791 16.5327 13.5945 15.9456C14.3099 15.3586 14.8283 14.5665 15.08 13.676C15.19 13.281 15.243 12.859 15.26 12.323C15.2806 11.2562 15.585 10.2141 16.142 9.30405C16.699 8.39396 17.4884 7.64872 18.429 7.145C17.7594 7.07231 17.0872 7.02561 16.414 7.005C14.2949 6.95905 12.1818 7.24656 10.152 7.857C8.70532 8.29191 7.31247 8.88903 6 9.637C6.002 10.396 6.05 11.167 6.145 11.954ZM22.758 20.514C24.5507 17.7475 25.6371 14.5833 25.922 11.299C25.972 10.729 25.998 10.176 26 9.635C25.5573 9.3828 25.105 9.14795 24.644 8.931C23.881 8.574 23.255 8.319 22.636 8.124C21.8471 7.87091 21.0033 7.84218 20.199 8.041C19.0742 8.31238 18.0964 9.00498 17.4671 9.97601C16.8379 10.947 16.6052 12.1225 16.817 13.26C17.061 14.566 17.754 15.578 18.891 16.3C18.9697 16.3502 19.0494 16.3989 19.13 16.446C20.0346 16.995 20.7759 17.776 21.277 18.708C21.7629 19.5932 22.0139 20.5882 22.006 21.598C22.269 21.245 22.52 20.883 22.758 20.514ZM19.721 24.187C19.7694 24.1402 19.8093 24.0854 19.839 24.025L19.883 23.938C19.973 23.761 20.011 23.687 20.055 23.595C20.575 22.51 20.673 21.409 20.338 20.288C20.0345 19.2587 19.3747 18.3709 18.4766 17.7836C17.5785 17.1962 16.5007 16.9475 15.436 17.082C14.8354 17.158 14.2557 17.3517 13.73 17.652C12.8118 18.1803 11.7706 18.4573 10.7113 18.455C9.65193 18.4527 8.61191 18.1713 7.696 17.639C8.67717 19.877 10.0535 21.92 11.759 23.67C12.7384 24.6757 13.8192 25.5775 14.984 26.361C15.393 26.636 15.793 26.885 16.002 27C17.3449 26.2067 18.5929 25.263 19.722 24.187H19.721Z" fill="black"/>
</g>
<defs>
<clipPath id="clip0_16_3231">
<rect width="32" height="32" fill="white"/>
</clipPath>
</defs>
</svg>
