<svg width="32" height="32" viewBox="0 0 32 32" fill="none" xmlns="http://www.w3.org/2000/svg">
<g clip-path="url(#clip0_16_3241)">
<path d="M16 32C7.163 32 0 24.837 0 16C0 7.163 7.163 0 16 0C24.837 0 32 7.163 32 16C32 24.837 24.837 32 16 32ZM28 16C28.0054 13.4202 27.1695 10.9089 25.619 8.847L23.659 10.807C24.6969 12.34 25.252 14.1487 25.253 16C25.253 21.11 21.1 25.262 15.991 25.262C10.881 25.262 6.728 21.109 6.728 16C6.72558 14.1479 7.28103 12.3379 8.322 10.806L6.362 8.846C4.82512 10.9142 3.99673 13.4233 4 16C4 22.628 9.372 28 16 28C22.628 28 28 22.628 28 16ZM22.637 16C22.637 14.8463 22.3368 13.7126 21.766 12.71L16 18.474L10.234 12.708C9.66261 13.711 9.36242 14.8456 9.363 16C9.36485 17.7597 10.0647 19.4467 11.309 20.691C12.5533 21.9353 14.2403 22.6351 16 22.637C17.7597 22.6351 19.4467 21.9353 20.691 20.691C21.9353 19.4467 22.6351 17.7597 22.637 16ZM23.847 6.925C21.671 5.03342 18.8833 3.9943 16 4C13 4 10.253 5.097 8.153 6.925L10.019 8.791L16 14.762L23.847 6.925Z" fill="black"/>
</g>
<defs>
<clipPath id="clip0_16_3241">
<rect width="32" height="32" fill="white"/>
</clipPath>
</defs>
</svg>
