<svg width="32" height="32" viewBox="0 0 32 32" fill="none" xmlns="http://www.w3.org/2000/svg">
<g clip-path="url(#clip0_16_3247)">
<path fill-rule="evenodd" clip-rule="evenodd" d="M16.526 23H17.94L18.917 18.077L21.223 18.087C22.833 18.087 24.157 17.675 25.196 16.851C26.236 16.027 26.829 14.93 26.975 13.558C27.063 12.617 26.919 11.798 26.541 11.103L23.811 12.53C23.831 12.64 23.842 12.753 23.846 12.865C23.868 13.737 23.663 14.431 23.231 14.948C22.799 15.464 22.191 15.728 21.409 15.741L19.378 15.721L19.572 14.746L16.057 16.583L15.417 19.828L14.555 17.368L11.91 18.751L12.992 23H16.526ZM15.211 12.01H16.961L16.429 14.703L19.945 12.865L20.245 11.355L22.54 11.375C22.61 11.379 22.68 11.388 22.748 11.401L25.548 9.937C24.802 9.351 23.847 9.042 22.682 9.01L17.556 9H15.341L13.461 12.01H15.211H13.461L12.41 13.789L11.18 9H7.7L10.072 15.827L7.605 19.317L14.264 15.835L16.961 12.009L15.211 12.01ZM16 32C7.163 32 0 24.837 0 16C0 7.163 7.163 0 16 0C24.837 0 32 7.163 32 16C32 24.837 24.837 32 16 32ZM5.786 21.952L5.766 21.915L5 23H8.765L11.113 19.167L5.786 21.952Z" fill="black"/>
</g>
<defs>
<clipPath id="clip0_16_3247">
<rect width="32" height="32" fill="white"/>
</clipPath>
</defs>
</svg>
