<svg width="32" height="32" viewBox="0 0 32 32" fill="none" xmlns="http://www.w3.org/2000/svg">
<g clip-path="url(#clip0_16_3249)">
<path fill-rule="evenodd" clip-rule="evenodd" d="M16 32C7.163 32 0 24.837 0 16C0 7.163 7.163 0 16 0C24.837 0 32 7.163 32 16C32 24.837 24.837 32 16 32ZM25.575 12.846L17.465 10.522L14.691 15.247L11.469 11.51L12.929 11.322L14.434 13.09L16.104 10.131L8.754 8.024C8.65525 7.99473 8.55054 7.99201 8.45041 8.0161C8.35028 8.04019 8.25826 8.09025 8.18363 8.16122C8.109 8.2322 8.0544 8.32159 8.02532 8.42039C7.99624 8.51919 7.99372 8.62391 8.018 8.724L11.274 21.8L14.771 15.912L17.993 19.649L16.533 19.837L15.029 18.069L11.719 23.586L12.209 25.556C12.2345 25.6559 12.2857 25.7474 12.3576 25.8213C12.4295 25.8953 12.5195 25.9491 12.6186 25.9774C12.7177 26.0057 12.8226 26.0076 12.9227 25.9828C13.0227 25.958 13.1146 25.9074 13.189 25.836L25.819 13.826C25.8936 13.7554 25.948 13.6662 25.9769 13.5676C26.0057 13.469 26.0078 13.3645 25.9829 13.2648C25.9581 13.1651 25.9073 13.0738 25.8356 13.0002C25.7639 12.9267 25.674 12.8734 25.575 12.846Z" fill="black"/>
</g>
<defs>
<clipPath id="clip0_16_3249">
<rect width="32" height="32" fill="white"/>
</clipPath>
</defs>
</svg>
