<svg width="32" height="32" viewBox="0 0 32 32" fill="none" xmlns="http://www.w3.org/2000/svg">
<g clip-path="url(#clip0_16_3255)">
<path d="M16 32C7.163 32 0 24.837 0 16C0 7.163 7.163 0 16 0C24.837 0 32 7.163 32 16C32 24.837 24.837 32 16 32ZM23.07 8L18.496 12.523C17.8305 13.1799 16.9331 13.5482 15.998 13.5482C15.0629 13.5482 14.1655 13.1799 13.5 12.523L8.93 8H6.035L12.055 13.957C13.1066 14.9931 14.5237 15.5739 16 15.5739C17.4763 15.5739 18.8934 14.9931 19.945 13.957L25.961 8H23.071H23.07ZM8.895 24.563L13.504 20C14.1695 19.3431 15.0669 18.9748 16.002 18.9748C16.9371 18.9748 17.8345 19.3431 18.5 20L23.105 24.563H26L19.945 18.57C18.8934 17.5339 17.4763 16.9531 16 16.9531C14.5237 16.9531 13.1066 17.5339 12.055 18.57L6 24.562H8.895V24.563Z" fill="black"/>
</g>
<defs>
<clipPath id="clip0_16_3255">
<rect width="32" height="32" fill="white"/>
</clipPath>
</defs>
</svg>
