<svg width="32" height="32" viewBox="0 0 32 32" fill="none" xmlns="http://www.w3.org/2000/svg">
<g clip-path="url(#clip0_16_3269)">
<path d="M16 0C24.837 0 32 7.163 32 16C32 24.837 24.837 32 16 32C7.163 32 0 24.837 0 16C0 7.163 7.163 0 16 0ZM17.342 16.075L17.185 17.745C19.142 19.303 19.406 20.46 19.106 22.003C18.427 24.393 16.355 24.643 15.473 24.491C14.463 24.306 14.039 24.254 13.167 23.23C12.7467 22.6945 12.4946 22.0464 12.4428 21.3677C12.391 20.6889 12.5418 20.01 12.876 19.417L12.888 19.397L13.33 21.497L14.6 21.245L13.77 16.821L9.5 17.833L9.842 19.212L11.591 18.872L11.574 18.913C11.499 19.097 11.194 19.871 11.103 20.475C10.515 24.163 13.636 25.833 14.933 25.921C17.506 26.109 19 24.997 19.776 23.818C21.216 21.458 20.497 19.712 20.079 18.824C19.533 17.706 17.342 16.075 17.342 16.075ZM16.582 9.755H15.209V22.36H16.582V9.754V9.755ZM16.552 6.009C13.972 5.888 12.509 7.039 11.767 8.239C10.387 10.639 11.152 12.363 11.597 13.236C12.173 14.339 14.407 15.912 14.407 15.912L14.518 14.239C12.518 12.736 12.224 11.588 12.485 10.036C13.1 7.627 15.164 7.327 16.052 7.454C17.061 7.612 17.488 7.654 18.388 8.654C18.823 9.17778 19.0927 9.819 19.1626 10.4963C19.2326 11.1735 19.0998 11.8563 18.781 12.458L18.77 12.478L18.273 10.394L17.013 10.678L17.958 15.078L22.197 13.954L21.818 12.582L20.078 12.969C20.078 12.969 20.439 12.045 20.524 11.351C21.015 7.648 17.848 6.063 16.552 6.009Z" fill="black"/>
</g>
<defs>
<clipPath id="clip0_16_3269">
<rect width="32" height="32" fill="white"/>
</clipPath>
</defs>
</svg>
