<svg width="32" height="32" viewBox="0 0 32 32" fill="none" xmlns="http://www.w3.org/2000/svg">
<g clip-path="url(#clip0_16_3273)">
<path fill-rule="evenodd" clip-rule="evenodd" d="M16 32C7.163 32 0 24.837 0 16C0 7.163 7.163 0 16 0C24.837 0 32 7.163 32 16C32 24.837 24.837 32 16 32ZM15.992 27C22.164 26.992 26.988 22.004 27 16.002C27.008 9.934 22.08 5.004 16.015 5C9.932 4.996 5 9.915 5 15.986C5 22.07 9.917 26.996 15.992 27ZM11.509 21.03C15.228 21.032 18.945 21.03 22.66 21.022C20.727 23.72 16.604 25.335 12.672 23.58C8.612 21.77 6.992 17.252 8.138 13.65H8.274C10.534 13.648 12.796 13.65 15.058 13.653C15.0996 13.6575 15.1416 13.6487 15.1779 13.6278C15.2142 13.607 15.2429 13.5752 15.26 13.537C15.694 12.76 16.136 11.987 16.573 11.211C16.604 11.161 16.632 11.107 16.67 11.033H9.49C9.487 11.021 9.479 11.013 9.475 11.002C9.634 10.815 9.785 10.622 9.952 10.442C11.222 9.068 12.772 8.199 14.612 7.872C16.462 7.547 18.224 7.818 19.898 8.672C20.5719 9.01132 21.1919 9.44837 21.738 9.969C22.955 11.134 23.78 12.527 24.156 14.177C24.4684 15.5396 24.4322 16.959 24.051 18.304C24.032 18.378 24.005 18.409 23.92 18.409C21.404 18.406 18.887 18.405 16.368 18.405C16.341 18.405 16.314 18.405 16.263 18.401C17.658 15.944 19.042 13.501 20.436 11.041H20.293C19.29 11.041 18.283 11.041 17.279 11.037C17.2476 11.0335 17.2159 11.0403 17.1887 11.0563C17.1614 11.0724 17.1401 11.0968 17.128 11.126C16.268 12.646 15.408 14.166 14.543 15.684C13.556 17.416 12.571 19.15 11.587 20.886C11.564 20.924 11.54 20.971 11.509 21.029V21.03ZM24.152 22.928L22.711 21.46C25.353 18.191 25.245 13.638 22.684 10.56C23.172 10.066 23.664 9.573 24.168 9.065C25.783 11.025 26.648 13.242 26.709 15.765C26.787 18.828 25.547 21.379 24.152 22.928Z" fill="black"/>
</g>
<defs>
<clipPath id="clip0_16_3273">
<rect width="32" height="32" fill="white"/>
</clipPath>
</defs>
</svg>
