<svg width="32" height="32" viewBox="0 0 32 32" fill="none" xmlns="http://www.w3.org/2000/svg">
<g clip-path="url(#clip0_16_3277)">
<path d="M16 32C7.163 32 0 24.837 0 16C0 7.163 7.163 0 16 0C24.837 0 32 7.163 32 16C32 24.837 24.837 32 16 32ZM5 15.615V20.462L9.495 23L13.989 20.462V15.615L9.495 13.077L5 15.615ZM18.01 15.615V20.462L22.506 23L27 20.462V15.615L22.505 13.077L18.011 15.615H18.01ZM17.538 19.825V15.231L21.559 12.96V11.23L15.961 8L10.362 11.23V12.915L14.462 15.231V19.869L15.961 20.692L17.538 19.826V19.825Z" fill="black"/>
</g>
<defs>
<clipPath id="clip0_16_3277">
<rect width="32" height="32" fill="white"/>
</clipPath>
</defs>
</svg>
