<svg width="32" height="32" viewBox="0 0 32 32" fill="none" xmlns="http://www.w3.org/2000/svg">
<g clip-path="url(#clip0_16_3281)">
<path d="M16 32C7.163 32 0 24.837 0 16C0 7.163 7.163 0 16 0C24.837 0 32 7.163 32 16C32 24.837 24.837 32 16 32ZM18.266 8.637C17.8385 8.53571 17.3888 8.59254 17 8.797C16.153 9.182 15.262 9.462 14.347 9.632C13.9414 9.72808 13.5428 9.8517 13.154 10.002C12.8295 10.1843 12.4903 10.3392 12.14 10.465C11.268 10.588 9.658 9.518 9.81 11.175C9.81 11.479 10.122 11.64 10.027 12.028C9.933 12.417 9.516 12.758 9.317 13.061C8.90836 13.7466 8.58974 14.482 8.369 15.249C7.83064 16.9863 7.93499 18.8593 8.663 20.526C9.013 21.346 9.48 22.112 10.046 22.8C10.323 23.123 10.566 23.472 10.776 23.842C10.936 24.28 11.136 24.702 11.373 25.102C11.5778 25.3594 11.85 25.555 12.1593 25.6671C12.4685 25.7792 12.8028 25.8034 13.125 25.737C13.4561 25.6232 13.774 25.474 14.073 25.292C14.5838 25.0889 15.1185 24.9518 15.664 24.884C17.6545 24.572 19.4701 23.5651 20.789 22.042C21.4139 21.288 21.8985 20.428 22.22 19.503C22.4068 18.9871 22.5431 18.4543 22.627 17.912C22.675 17.571 22.571 16.708 22.817 16.482C22.977 16.329 23.357 16.292 23.471 16.149C23.5574 15.9608 23.6237 15.7641 23.669 15.562C23.849 15.003 22.798 14.558 22.391 14.368C21.86 14.046 21.671 13.098 21.339 12.578C20.884 11.848 20.221 11.252 19.823 10.494C19.425 9.736 19.378 9.158 18.696 8.798C18.6105 8.753 18.5216 8.71488 18.43 8.684C18.26 8.277 19.008 8.116 19.236 8.144C19.643 8.264 20.016 8.478 20.326 8.769C20.922 9.215 22.096 10.532 22.959 10.219C23.821 9.906 22.798 8.381 22.324 7.983C21.9367 7.61789 21.4695 7.34821 20.9596 7.19544C20.4498 7.04267 19.9113 7.01101 19.387 7.103C18.909 7.246 18.517 7.593 18.317 8.049C18.272 8.216 18.13 8.52 18.267 8.637H18.266ZM23.896 6.695C23.328 6.553 22.002 6.572 21.595 7.131C22.002 7.358 22.286 7.708 22.703 7.718C23.12 7.728 23.603 7.329 24.133 7.557C23.906 7.557 22.883 7.747 22.817 8.059C22.96 8.294 23.132 8.51 23.328 8.703C23.594 8.921 23.622 8.997 24.02 8.779C24.5072 8.47144 24.8747 8.00683 25.062 7.462C25.062 7.178 25.147 7.367 24.939 7.131C24.6333 6.90139 24.2752 6.75154 23.897 6.695H23.896ZM18.554 7.197C19.3234 6.78657 20.2174 6.67509 21.064 6.884C20.9821 5.97163 20.5555 5.1248 19.871 4.516C20.691 5.026 21.268 5.846 21.471 6.789C21.936 6.714 22.419 6.534 22.864 6.467C22.7838 5.56012 22.3844 4.7111 21.737 4.071C21.424 3.777 20.543 3 20.04 3C19.537 3 18.884 4.137 18.695 4.601C18.3708 5.42879 18.3211 6.33879 18.553 7.197H18.554ZM23.111 15.723C22.968 16.045 22.409 16.235 22.163 16.576C21.8089 17.2149 21.3365 17.7806 20.771 18.243C20.2013 18.5399 19.5459 18.6285 18.9178 18.4936C18.2897 18.3587 17.7285 18.0087 17.331 17.504C16.9116 16.98 16.6843 16.3282 16.687 15.657C16.687 15.136 17.256 13.828 16.687 13.544C16.119 13.26 15.854 14.179 15.636 14.492C15.2547 15.125 14.675 15.6143 13.987 15.884C13.4517 16.0652 12.8772 16.0975 12.325 15.9773C11.7728 15.8572 11.2636 15.5892 10.852 15.202C10.5768 14.8104 10.3937 14.3615 10.3164 13.8891C10.2392 13.4167 10.2698 12.9329 10.406 12.474C10.4187 12.0065 10.3774 11.5391 10.283 11.081C10.283 10.399 10.88 10.645 11.363 10.74C12.5604 10.9532 13.6979 11.4219 14.698 12.114C15.6373 12.8942 16.7636 13.4164 17.966 13.629C18.771 13.705 19.569 13.841 20.354 14.037C20.742 14.151 21.102 14.34 21.481 14.473C21.881 14.603 22.269 14.77 22.637 14.975C22.893 15.088 23.262 15.315 23.12 15.685L23.11 15.723H23.111Z" fill="black"/>
</g>
<defs>
<clipPath id="clip0_16_3281">
<rect width="32" height="32" fill="white"/>
</clipPath>
</defs>
</svg>
