<svg width="32" height="32" viewBox="0 0 32 32" fill="none" xmlns="http://www.w3.org/2000/svg">
<g clip-path="url(#clip0_16_3289)">
<path d="M16 32C7.163 32 0 24.837 0 16C0 7.163 7.163 0 16 0C24.837 0 32 7.163 32 16C32 24.837 24.837 32 16 32ZM15.496 27H16.521C16.565 26.991 16.61 26.98 16.655 26.974C16.994 26.937 17.335 26.917 17.672 26.864C20.342 26.436 22.558 25.188 24.342 23.162C24.412 23.082 24.42 23.03 24.353 22.942C23.583 21.922 22.817 20.901 22.05 19.879C22.026 19.847 21.997 19.819 21.966 19.782L21.859 19.94C21.1702 20.9579 20.2307 21.7811 19.131 22.33C19.026 22.384 18.961 22.385 18.871 22.295C18.508 21.927 18.135 21.57 17.766 21.208L17.101 20.561C14.893 22.211 12.697 23.851 10.491 25.501C10.528 25.526 10.545 25.541 10.564 25.551C11.8324 26.278 13.2343 26.7419 14.686 26.915C14.956 26.947 15.226 26.972 15.496 27ZM16.466 5H15.523C15.475 5.009 15.426 5.02 15.377 5.026C14.942 5.077 14.502 5.103 14.073 5.181C11.839 5.586 9.913 6.593 8.29 8.176C8.04 8.419 7.81 8.682 7.562 8.946L10.029 12.233L10.131 12.083C10.8267 11.0475 11.7814 10.2122 12.9 9.66C12.993 9.613 13.05 9.621 13.125 9.695C13.594 10.159 14.068 10.618 14.54 11.078C14.625 11.161 14.711 11.241 14.8 11.325C17.044 9.715 19.276 8.115 21.518 6.505C21.485 6.482 21.468 6.468 21.448 6.457C20.0917 5.67811 18.5835 5.20061 17.026 5.057C16.838 5.039 16.651 5.019 16.464 5H16.466ZM6.458 10.534C5.123 12.954 4.682 15.492 5.226 18.178C5.734 20.688 7 22.756 8.95 24.435L12.21 21.989C12.193 21.955 12.19 21.945 12.184 21.94L12.081 21.87C11.0457 21.1742 10.211 20.2191 9.66 19.1C9.616 19.013 9.619 18.958 9.691 18.886C9.947 18.633 10.196 18.373 10.447 18.116L11.455 17.082L6.46 10.534H6.458ZM20.633 14.904L25.556 21.407C26.78 19.351 27.41 16.431 26.703 13.479C26.137 11.114 24.904 9.155 23.047 7.564L19.768 10.024C19.831 10.069 19.867 10.096 19.904 10.121C20.9536 10.8208 21.799 11.7862 22.354 12.919C22.402 13.015 22.404 13.076 22.322 13.157C22.059 13.417 21.807 13.685 21.551 13.951L20.633 14.904Z" fill="black"/>
</g>
<defs>
<clipPath id="clip0_16_3289">
<rect width="32" height="32" fill="white"/>
</clipPath>
</defs>
</svg>
