<svg width="32" height="32" viewBox="0 0 32 32" fill="none" xmlns="http://www.w3.org/2000/svg">
<g clip-path="url(#clip0_16_2300)">
<path d="M16 32C7.163 32 0 24.837 0 16C0 7.163 7.163 0 16 0C24.837 0 32 7.163 32 16C32 24.837 24.837 32 16 32ZM13.77 6.5C13.6155 6.49992 13.4637 6.54102 13.3303 6.61905C13.1969 6.69709 13.0867 6.80925 13.011 6.944L6.105 19.263C6.0323 19.3929 5.99413 19.5392 5.99413 19.688C5.99413 19.8368 6.0323 19.9831 6.105 20.113L8.315 24.055C8.39046 24.1898 8.50045 24.3021 8.63367 24.3803C8.76689 24.4585 8.91852 24.4998 9.073 24.5H22.927C23.0816 24.5 23.2335 24.4587 23.3669 24.3805C23.5003 24.3023 23.6105 24.1899 23.686 24.055L25.895 20.113C25.9677 19.9831 26.0059 19.8368 26.0059 19.688C26.0059 19.5392 25.9677 19.3929 25.895 19.263L18.989 6.944C18.9133 6.80925 18.8031 6.69709 18.6697 6.61905C18.5363 6.54102 18.3845 6.49992 18.23 6.5H13.77ZM16 11.401L20.653 19.688H11.347L16 11.401Z" fill="black"/>
</g>
<defs>
<clipPath id="clip0_16_2300">
<rect width="32" height="32" fill="white"/>
</clipPath>
</defs>
</svg>
