<svg width="32" height="32" viewBox="0 0 32 32" fill="none" xmlns="http://www.w3.org/2000/svg">
<g clip-path="url(#clip0_16_2306)">
<path d="M16 32C7.163 32 0 24.837 0 16C0 7.163 7.163 0 16 0C24.837 0 32 7.163 32 16C32 24.837 24.837 32 16 32ZM24.984 17.631H20.056L19.176 14.991H24.976C25.1744 14.991 25.3646 14.9122 25.5049 14.7719C25.6452 14.6316 25.724 14.4414 25.724 14.243C25.724 14.0446 25.6452 13.8544 25.5049 13.7141C25.3646 13.5738 25.1744 13.495 24.976 13.495H18.7L16.183 5.822C16.1511 5.5685 16.0298 5.33468 15.841 5.16253C15.6522 4.99039 15.4082 4.89119 15.1529 4.88276C14.8975 4.87433 14.6475 4.95721 14.4477 5.11653C14.248 5.27584 14.1116 5.50116 14.063 5.752L8.043 24.055C8.027 24.155 8.027 24.255 8.043 24.355C8.04717 24.5989 8.13928 24.833 8.30237 25.0144C8.46546 25.1958 8.68857 25.3121 8.93063 25.342C9.1727 25.372 9.41743 25.3135 9.61979 25.1773C9.82216 25.0412 9.96854 24.8365 10.032 24.601L15.083 9.201L16.526 13.495H15.276C15.0776 13.495 14.8874 13.5738 14.7471 13.7141C14.6068 13.8544 14.528 14.0446 14.528 14.243C14.528 14.4414 14.6068 14.6316 14.7471 14.7719C14.8874 14.9122 15.0776 14.991 15.276 14.991H17.036L17.916 17.631H15.276C15.1778 17.631 15.0805 17.6503 14.9898 17.6879C14.899 17.7255 14.8165 17.7806 14.7471 17.8501C14.6776 17.9195 14.6225 18.002 14.5849 18.0928C14.5473 18.1835 14.528 18.2808 14.528 18.379C14.528 18.4772 14.5473 18.5745 14.5849 18.6652C14.6225 18.756 14.6776 18.8385 14.7471 18.9079C14.8165 18.9774 14.899 19.0325 14.9898 19.0701C15.0805 19.1077 15.1778 19.127 15.276 19.127H18.436L19.861 23.351H12.302C12.0219 23.351 11.7533 23.4623 11.5553 23.6603C11.3573 23.8583 11.246 24.1269 11.246 24.407C11.246 24.6871 11.3573 24.9557 11.5553 25.1537C11.7533 25.3517 12.0219 25.463 12.302 25.463H21.243C21.797 25.463 22.246 25.014 22.246 24.46C22.2465 24.308 22.2134 24.1577 22.149 24.02L20.539 19.127H24.939C25.0372 19.127 25.1345 19.1077 25.2252 19.0701C25.316 19.0325 25.3985 18.9774 25.4679 18.9079C25.5374 18.8385 25.5925 18.756 25.6301 18.6652C25.6677 18.5745 25.687 18.4772 25.687 18.379C25.687 18.2808 25.6677 18.1835 25.6301 18.0928C25.5925 18.002 25.5374 17.9195 25.4679 17.8501C25.3985 17.7806 25.316 17.7255 25.2252 17.6879C25.1345 17.6503 25.0372 17.631 24.939 17.631H24.983H24.984Z" fill="black"/>
</g>
<defs>
<clipPath id="clip0_16_2306">
<rect width="32" height="32" fill="white"/>
</clipPath>
</defs>
</svg>
