<svg width="32" height="32" viewBox="0 0 32 32" fill="none" xmlns="http://www.w3.org/2000/svg">
<g clip-path="url(#clip0_16_2310)">
<path fill-rule="evenodd" clip-rule="evenodd" d="M16 32C7.163 32 0 24.837 0 16C0 7.163 7.163 0 16 0C24.837 0 32 7.163 32 16C32 24.837 24.837 32 16 32ZM9.752 11C7.279 11.174 5.161 13.228 5 15.621V16.406C5.17 18.804 7.317 20.834 9.787 21H10.59C12.55 20.828 14.198 19.585 15.386 18.138C15.096 17.713 14.803 17.289 14.502 16.872C13.738 18 12.742 19.064 11.4 19.532C10.192 19.97 8.79 19.689 7.785 18.936C6.443 17.986 5.955 16.143 6.555 14.657C7.237 12.853 9.525 11.791 11.398 12.47C12.913 13.021 13.848 14.385 14.764 15.598C15.828 16.97 16.708 18.511 18.079 19.634C19.023 20.436 20.235 20.9 21.482 21H22.228C24.254 20.82 26.107 19.466 26.743 17.583C26.28 17.5797 25.817 17.5817 25.354 17.589C24.446 19.443 21.861 20.34 20.013 19.243C17.456 17.726 16.352 14.849 14.343 12.811C13.375 11.821 12.069 11.134 10.656 11H9.752ZM21.432 11C19.458 11.183 17.822 12.453 16.649 13.921C16.924 14.328 17.208 14.73 17.494 15.128C18.237 14.053 19.201 13.047 20.481 12.588C22.087 11.978 24.096 12.553 25.046 13.958C25.436 14.496 25.586 15.147 25.7 15.783C24.076 15.793 22.453 15.783 20.827 15.787C20.829 16.147 20.829 16.504 20.827 16.864C22.884 16.862 24.943 16.874 27 16.855V15.625C26.795 13.228 24.675 11.157 22.182 11H21.432Z" fill="black"/>
</g>
<defs>
<clipPath id="clip0_16_2310">
<rect width="32" height="32" fill="white"/>
</clipPath>
</defs>
</svg>
