<svg width="32" height="32" viewBox="0 0 32 32" fill="none" xmlns="http://www.w3.org/2000/svg">
<g clip-path="url(#clip0_16_2319)">
<path fill-rule="evenodd" clip-rule="evenodd" d="M16 32C7.163 32 0 24.837 0 16C0 7.163 7.163 0 16 0C24.837 0 32 7.163 32 16C32 24.837 24.837 32 16 32ZM19.755 17.334C22.001 13.815 23.75 8 23.75 8L20.005 8.849L18.634 13.699C18.505 10.063 16.012 8.732 16.012 8.732C14.015 7.759 12.235 8.187 10.952 8.856C9.364 9.682 8.209 11.122 7.656 12.78C6.87 15.139 6.966 17.786 7.07 18.984C7.112 19.546 7.236 20.099 7.44 20.627C8.818 24.2 12.635 23.997 12.635 23.997C16.132 23.873 18.257 19.755 18.257 19.755L19.259 22.783C20.157 24.302 22.146 23.733 22.555 23.648C22.627 23.632 22.691 23.624 22.764 23.608L25 23.267V22.294C20.132 22.426 19.755 17.335 19.755 17.335V17.334ZM15.016 20.993C14.7149 21.3016 14.3352 21.5222 13.918 21.631C13.011 21.857 12.314 21.476 11.833 21.009C11.2956 20.4663 10.9277 19.7791 10.774 19.031C9.892 14.041 11.111 11.854 11.921 10.849C12.1416 10.5673 12.4261 10.342 12.7508 10.1918C13.0756 10.0416 13.4314 9.9707 13.789 9.985C16.933 10.149 17.639 16.727 17.639 16.727C16.749 19.062 15.602 20.417 15.016 20.993Z" fill="black"/>
</g>
<defs>
<clipPath id="clip0_16_2319">
<rect width="32" height="32" fill="white"/>
</clipPath>
</defs>
</svg>
