<svg width="32" height="32" viewBox="0 0 32 32" fill="none" xmlns="http://www.w3.org/2000/svg">
<g clip-path="url(#clip0_16_2324)">
<path d="M16 0C24.837 0 32 7.163 32 16C32 24.837 24.837 32 16 32C7.163 32 0 24.837 0 16C0 7.163 7.163 0 16 0ZM19.093 7H16.693L16.637 7.084L14.391 10.972L12.089 14.958L9.802 18.93L7.5 22.916H10.25L12.553 18.93L14.854 14.958L17.142 10.972L17.522 10.34L17.689 10.972L18.391 13.596L17.605 14.958L15.304 18.93L13.016 22.916H15.766L18.068 18.93L19.261 16.867L19.823 18.93L20.889 22.916H23.359L22.293 18.93L21.226 14.958L20.946 13.933L22.658 10.972H20.16L20.075 10.677L19.205 7.421L19.093 7Z" fill="black"/>
</g>
<defs>
<clipPath id="clip0_16_2324">
<rect width="32" height="32" fill="white"/>
</clipPath>
</defs>
</svg>
