<svg width="32" height="32" viewBox="0 0 32 32" fill="none" xmlns="http://www.w3.org/2000/svg">
<g clip-path="url(#clip0_16_2326)">
<path d="M16 32C7.163 32 0 24.837 0 16C0 7.163 7.163 0 16 0C24.837 0 32 7.163 32 16C32 24.837 24.837 32 16 32ZM27 16.015L26.999 16.001V15.978C26.999 15.971 26.999 15.963 26.997 15.956V15.955C26.9917 15.8896 26.974 15.8258 26.945 15.767L26.942 15.762L26.936 15.75C26.797 15.495 23.446 9.5 16 9.5C8.554 9.5 5.203 15.494 5.063 15.75C5.06096 15.754 5.05896 15.758 5.057 15.762L5.055 15.766C5.02515 15.825 5.00682 15.8891 5.001 15.955L5 15.978V16.023C5.00351 16.1029 5.02541 16.1809 5.064 16.251C5.203 16.506 8.556 22.5 16.001 22.5C23.446 22.5 26.798 16.506 26.937 16.251C26.9752 16.1808 26.9967 16.1028 27 16.023V16.015ZM25.89 16C25.332 16.868 23.245 19.747 19.467 20.94L19.555 20.875C19.5942 20.8461 19.6251 20.8074 19.6446 20.7627C19.6641 20.7181 19.6715 20.6691 19.6662 20.6207C19.6608 20.5723 19.6428 20.5262 19.614 20.4869C19.5852 20.4477 19.5466 20.4166 19.502 20.397C19.4577 20.378 19.4091 20.3712 19.3612 20.3774C19.3134 20.3836 19.2681 20.4024 19.23 20.432C18.566 20.932 17.798 21.272 16.985 21.424C16.3301 21.4777 15.6719 21.4777 15.017 21.424C12.833 21.021 11.115 19.304 10.685 17.094C10.7931 17.0167 10.8725 16.9058 10.9108 16.7786C10.9492 16.6514 10.9443 16.5151 10.897 16.391C10.799 16.135 10.542 15.979 10.273 16.014C10.004 16.049 9.795 16.266 9.764 16.539C9.733 16.812 9.891 17.07 10.145 17.165C10.4267 18.6784 11.276 20.027 12.519 20.935C8.75 19.74 6.667 16.867 6.11 16C6.673 15.126 8.785 12.213 12.615 11.036C12.5905 11.0531 12.5662 11.0704 12.542 11.088C12.495 11.1225 12.4601 11.1709 12.4422 11.2264C12.4242 11.2818 12.4242 11.3415 12.442 11.397C12.4549 11.4378 12.4773 11.4749 12.5073 11.5054C12.5372 11.5359 12.574 11.5589 12.6145 11.5725C12.655 11.5861 12.6982 11.59 12.7405 11.5839C12.7828 11.5777 12.8231 11.5616 12.858 11.537C13.5756 11.018 14.4103 10.6844 15.288 10.566C15.305 10.5639 15.3217 10.5603 15.338 10.555C15.7793 10.5298 16.2217 10.5298 16.663 10.555C16.6793 10.5603 16.696 10.5639 16.713 10.566C18.965 10.866 20.793 12.582 21.287 14.805C21.19 14.8956 21.1257 15.0158 21.1042 15.1467C21.0827 15.2777 21.1051 15.4121 21.168 15.529C21.2292 15.6473 21.3291 15.7411 21.451 15.7949C21.5729 15.8487 21.7095 15.8591 21.8381 15.8246C21.9668 15.79 22.0798 15.7125 22.1583 15.6049C22.2369 15.4973 22.2763 15.3661 22.27 15.233C22.2684 15.1006 22.2225 14.9726 22.1397 14.8693C22.0569 14.766 21.9419 14.6934 21.813 14.663C21.4798 13.1923 20.611 11.8983 19.376 11.033C23.212 12.207 25.328 15.126 25.891 16H25.89ZM20.82 16.017C20.82 13.319 18.658 11.126 16 11.126C13.342 11.126 11.18 13.32 11.18 16.017C11.18 18.714 13.343 20.91 16 20.91C18.657 20.91 20.82 18.715 20.82 16.018V16.017ZM20.276 16.017C20.276 18.41 18.358 20.357 16 20.357C13.642 20.357 11.723 18.41 11.723 16.017C11.723 13.624 13.643 11.678 16 11.678C18.357 11.678 20.276 13.625 20.276 16.018V16.017ZM17.576 14.674C17.576 13.929 17.057 13.288 16.336 13.144C15.616 12.999 14.896 13.391 14.616 14.08C14.336 14.769 14.576 15.563 15.189 15.974L14.761 18.601C14.7513 18.6476 14.7523 18.6958 14.7639 18.742C14.7755 18.7882 14.7975 18.8311 14.8281 18.8676C14.8587 18.9041 14.8972 18.9332 14.9406 18.9526C14.9841 18.9721 15.0314 18.9815 15.079 18.98H16.999C17.208 18.98 17.349 18.81 17.315 18.601L16.886 15.975C17.317 15.686 17.576 15.198 17.576 14.675V14.674ZM21.923 16.717C21.9276 16.6786 21.9241 16.6397 21.9127 16.6028C21.9013 16.5659 21.8823 16.5318 21.8568 16.5027C21.8313 16.4736 21.8 16.4503 21.7649 16.4341C21.7298 16.418 21.6916 16.4094 21.653 16.409C21.5859 16.4096 21.5214 16.4347 21.4716 16.4797C21.4219 16.5247 21.3903 16.5863 21.383 16.653C21.2557 17.7912 20.7757 18.8612 20.01 19.713C19.9628 19.7027 19.9137 19.705 19.8677 19.7196C19.8217 19.7342 19.7803 19.7607 19.7477 19.7963C19.7151 19.8319 19.6924 19.8755 19.6819 19.9226C19.6713 19.9698 19.6734 20.0188 19.6878 20.0649C19.7022 20.111 19.7284 20.1526 19.7639 20.1853C19.7993 20.2181 19.8428 20.241 19.8899 20.2518C19.937 20.2625 19.9861 20.2607 20.0322 20.2465C20.0784 20.2323 20.12 20.2063 20.153 20.171C20.2001 20.1812 20.249 20.1785 20.2947 20.1634C20.3404 20.1483 20.3813 20.1212 20.413 20.085C21.2554 19.1474 21.7834 17.9697 21.923 16.717ZM12.053 11.849C12.0272 11.8242 11.9966 11.8047 11.9632 11.7918C11.9297 11.7789 11.894 11.7728 11.8582 11.7738C11.8224 11.7748 11.7871 11.783 11.7544 11.7978C11.7218 11.8126 11.6924 11.8337 11.668 11.86C10.8236 12.763 10.2767 13.9033 10.101 15.127C10.0951 15.166 10.0977 15.2059 10.1085 15.2438C10.1194 15.2818 10.1382 15.3169 10.1638 15.347C10.1894 15.377 10.2211 15.4012 10.2569 15.418C10.2926 15.4347 10.3315 15.4436 10.371 15.444C10.506 15.444 10.62 15.344 10.64 15.208C10.7996 14.0964 11.2963 13.0605 12.063 12.24C12.1129 12.1867 12.1398 12.1159 12.1379 12.043C12.136 11.97 12.1055 11.9007 12.053 11.85V11.849Z" fill="black"/>
</g>
<defs>
<clipPath id="clip0_16_2326">
<rect width="32" height="32" fill="white"/>
</clipPath>
</defs>
</svg>
