<svg width="32" height="32" viewBox="0 0 32 32" fill="none" xmlns="http://www.w3.org/2000/svg">
<g clip-path="url(#clip0_16_2336)">
<path fill-rule="evenodd" clip-rule="evenodd" d="M16 32C7.163 32 0 24.837 0 16C0 7.163 7.163 0 16 0C24.837 0 32 7.163 32 16C32 24.837 24.837 32 16 32ZM6 19.25V23.5L16 10.75L26 23.5V19.25L16 6.5L6 19.25ZM16.5 20.5C17.163 20.5 17.7989 20.2366 18.2678 19.7678C18.7366 19.2989 19 18.663 19 18C19 17.337 18.7366 16.7011 18.2678 16.2322C17.7989 15.7634 17.163 15.5 16.5 15.5C15.837 15.5 15.2011 15.7634 14.7322 16.2322C14.2634 16.7011 14 17.337 14 18C14 18.663 14.2634 19.2989 14.7322 19.7678C15.2011 20.2366 15.837 20.5 16.5 20.5Z" fill="black"/>
</g>
<defs>
<clipPath id="clip0_16_2336">
<rect width="32" height="32" fill="white"/>
</clipPath>
</defs>
</svg>
