<svg width="32" height="32" viewBox="0 0 32 32" fill="none" xmlns="http://www.w3.org/2000/svg">
<g clip-path="url(#clip0_16_2338)">
<path d="M16 32C7.163 32 0 24.837 0 16C0 7.163 7.163 0 16 0C24.837 0 32 7.163 32 16C32 24.837 24.837 32 16 32ZM23.772 21.883L21.799 16.574H22.977C23.2001 16.5743 23.4144 16.4867 23.5734 16.3303C23.7325 16.1739 23.8236 15.9611 23.827 15.738C23.827 15.528 23.741 15.325 23.59 15.177C23.439 15.029 23.232 14.944 23.017 14.944H21.177L20.882 14.118H22.977C23.1953 14.12 23.4058 14.0368 23.5637 13.8861C23.7217 13.7354 23.8147 13.5291 23.823 13.311C23.824 13.089 23.735 12.877 23.575 12.721C23.415 12.565 23.199 12.477 22.973 12.478H20.253L18.78 8.51C18.5583 7.9407 18.1944 7.43771 17.723 7.049C17.2529 6.67175 16.6623 6.47713 16.06 6.501C15.4559 6.48149 14.8642 6.67552 14.389 7.049C13.9178 7.43807 13.553 7.94044 13.329 8.509L11.786 12.513H9.082C8.8682 12.5111 8.66233 12.5939 8.50928 12.7432C8.35623 12.8925 8.26842 13.0962 8.265 13.31C8.265 13.768 8.644 14.139 9.112 14.139H11.165L10.849 14.943H9.009C8.90276 14.9418 8.79732 14.9616 8.69872 15.0011C8.60011 15.0407 8.51026 15.0993 8.4343 15.1736C8.35834 15.2479 8.29776 15.3364 8.25601 15.4341C8.21427 15.5318 8.19217 15.6368 8.191 15.743C8.191 16.197 8.565 16.564 9.027 16.566H10.208L8.202 21.882C8.079 22.182 8.011 22.5 8 22.823C8.02 23.276 8.222 23.703 8.56 24.013C8.93412 24.3298 9.40981 24.5012 9.9 24.496C10.3095 24.5207 10.7152 24.4048 11.0498 24.1675C11.3844 23.9302 11.6279 23.5856 11.74 23.191L12.516 20.922H19.66L20.437 23.245C20.5631 23.6263 20.8121 23.9549 21.1452 24.1793C21.4782 24.4038 21.8763 24.5113 22.277 24.485C22.587 24.492 22.892 24.415 23.161 24.265C23.394 24.095 23.601 23.895 23.775 23.667C23.9268 23.412 24.0047 23.1198 24 22.823C23.9513 22.5079 23.875 22.1977 23.772 21.896V21.883ZM13.66 17.386L16.045 10.274L18.475 17.386H13.66Z" fill="black"/>
</g>
<defs>
<clipPath id="clip0_16_2338">
<rect width="32" height="32" fill="white"/>
</clipPath>
</defs>
</svg>
