<svg width="32" height="32" viewBox="0 0 32 32" fill="none" xmlns="http://www.w3.org/2000/svg">
<g clip-path="url(#clip0_16_2346)">
<path d="M11.76 14.102C11.9101 14.2831 11.9893 14.5125 11.9828 14.7476C11.9764 14.9827 11.8848 15.2074 11.725 15.38L15.599 22.28C15.7338 22.2174 15.8809 22.1853 16.0296 22.1862C16.1782 22.187 16.3249 22.2208 16.459 22.285L20.221 15.497C20.1038 15.4075 20.0084 15.2927 19.9419 15.1611C19.8754 15.0295 19.8397 14.8845 19.8373 14.7371C19.8348 14.5896 19.8659 14.4436 19.928 14.3099C19.9901 14.1761 20.0818 14.0582 20.196 13.965L16.122 6.565C16.066 6.541 16.05 6.55 16.042 6.564L11.76 14.102ZM11.35 15.636C11.1923 15.6972 11.0217 15.7179 10.854 15.696L8.362 20.083C8.6 20.586 8.882 21.067 9.206 21.521C9.969 21.701 11.919 22.165 15.057 22.917C15.0921 22.7871 15.1537 22.6659 15.238 22.561L11.35 15.636ZM10.811 13.753C11.0093 13.719 11.2131 13.7444 11.397 13.826L15.559 6.5C12.439 6.55 9.828 7.135 7.724 8.254L10.811 13.753ZM10.391 13.929L7.335 8.483C7.22379 8.57197 7.13559 8.68636 7.07781 8.81653C7.02004 8.9467 6.99438 9.08884 7.003 9.231L7.465 16.613C7.52871 17.627 7.75528 18.6241 8.136 19.566L10.426 15.536C10.2942 15.4488 10.1855 15.3309 10.1092 15.1925C10.0329 15.0541 9.99139 14.8992 9.98815 14.7412C9.9849 14.5831 10.02 14.4267 10.0906 14.2852C10.1611 14.1438 10.2649 14.0215 10.393 13.929H10.391ZM16.991 22.927L22.88 21.4C23.152 21.003 23.394 20.587 23.604 20.155L21.13 15.661C20.9692 15.71 20.7988 15.7183 20.634 15.685L16.816 22.572C16.896 22.676 16.957 22.796 16.991 22.927ZM16.25 24.127V26.488C16.3363 26.4635 16.4185 26.4264 16.494 26.378L20.117 24.065C21.0044 23.4995 21.7935 22.7929 22.453 21.973L16.997 23.388C16.9542 23.5689 16.8615 23.7342 16.7295 23.865C16.5974 23.9958 16.4313 24.0869 16.25 24.128V24.127ZM15.796 24.127C15.6124 24.0856 15.4445 23.9927 15.3117 23.8594C15.1789 23.7261 15.0867 23.5577 15.046 23.374C13.2435 22.942 11.4405 22.512 9.637 22.084C10.2782 22.857 11.0359 23.5254 11.883 24.065L15.506 26.379C15.596 26.437 15.695 26.477 15.796 26.5V24.127ZM21.166 13.793L24.246 8.238C22.184 7.148 19.637 6.57 16.605 6.503L20.602 13.765C20.7889 13.7209 20.9844 13.7306 21.166 13.793ZM21.549 14.034C21.6416 14.1266 21.7145 14.2369 21.7635 14.3583C21.8124 14.4798 21.8363 14.6098 21.8338 14.7407C21.8313 14.8716 21.8024 15.0007 21.7488 15.1202C21.6952 15.2396 21.6181 15.3471 21.522 15.436L23.835 19.639C24.2333 18.6761 24.4698 17.654 24.535 16.614L24.998 9.231C25.0068 9.08298 24.9785 8.9351 24.9156 8.8008C24.8527 8.6665 24.7573 8.55004 24.638 8.462L21.549 14.034ZM16 32C7.163 32 0 24.837 0 16C0 7.163 7.163 0 16 0C24.837 0 32 7.163 32 16C32 24.837 24.837 32 16 32ZM16 11.235C16.1414 11.2372 16.2765 11.2939 16.3773 11.3931C16.478 11.4924 16.5366 11.6266 16.541 11.768V13.722L19.427 15.5L19.074 16.211L16.541 15.321V17.276L17.263 17.809V18.342L16 17.987L14.737 18.342V17.809L15.459 17.276V15.322L12.882 16.166L12.572 15.499L15.459 13.722V11.768C15.4634 11.6266 15.522 11.4924 15.6227 11.3931C15.7235 11.2939 15.8586 11.2372 16 11.235Z" fill="black"/>
</g>
<defs>
<clipPath id="clip0_16_2346">
<rect width="32" height="32" fill="white"/>
</clipPath>
</defs>
</svg>
