<svg width="32" height="32" viewBox="0 0 32 32" fill="none" xmlns="http://www.w3.org/2000/svg">
<g clip-path="url(#clip0_16_2350)">
<path d="M16 32C7.163 32 0 24.837 0 16C0 7.163 7.163 0 16 0C24.837 0 32 7.163 32 16C32 24.837 24.837 32 16 32ZM23.917 21.11L16.328 23.843C16.1369 23.9189 15.9241 23.9189 15.733 23.843L8.12 21.11C7.94459 21.045 7.79343 20.9276 7.68699 20.7738C7.58056 20.6199 7.524 20.4371 7.525 20.25V21.35C7.52225 21.5375 7.5781 21.7211 7.68477 21.8753C7.79145 22.0295 7.9436 22.1465 8.12 22.21L15.708 24.943C15.907 25.019 16.118 25.019 16.304 24.943L23.892 22.211C24.0674 22.146 24.2186 22.0286 24.325 21.8748C24.4314 21.7209 24.488 21.5381 24.487 21.351V20.251C24.4998 20.4371 24.4509 20.6222 24.3478 20.7777C24.2448 20.9331 24.0934 21.0503 23.917 21.111V21.11ZM23.917 19.162L16.328 21.895C16.1369 21.9709 15.9241 21.9709 15.733 21.895L8.12 19.162C7.94405 19.0942 7.79289 18.9745 7.68661 18.8187C7.58033 18.663 7.52396 18.4786 7.525 18.29V19.403C7.52225 19.5905 7.5781 19.7741 7.68477 19.9283C7.79145 20.0825 7.9436 20.1995 8.12 20.263L15.708 22.995C15.907 23.071 16.118 23.071 16.304 22.995L23.892 20.263C24.0674 20.198 24.2186 20.0806 24.325 19.9268C24.4314 19.7729 24.488 19.5901 24.487 19.403V18.303C24.4965 18.4885 24.4462 18.6721 24.3436 18.8269C24.241 18.9817 24.0915 19.0995 23.917 19.163V19.162ZM23.917 17.202L16.328 19.934C16.1369 20.0099 15.9241 20.0099 15.733 19.934L8.12 17.202C7.94459 17.137 7.79343 17.0196 7.68699 16.8658C7.58056 16.7119 7.524 16.5291 7.525 16.342V17.442C7.52225 17.6295 7.5781 17.8131 7.68477 17.9673C7.79145 18.1215 7.9436 18.2385 8.12 18.302L15.72 21.047C15.92 21.123 16.13 21.123 16.316 21.047L23.904 18.315C24.0796 18.2501 24.231 18.1328 24.3376 17.979C24.4442 17.8251 24.5009 17.6422 24.5 17.455V16.355C24.5039 16.5395 24.4497 16.7205 24.3451 16.8725C24.2405 17.0245 24.0907 17.1398 23.917 17.202ZM7.5 10.662V15.494C7.49725 15.6815 7.5531 15.8651 7.65978 16.0193C7.76645 16.1735 7.9186 16.2905 8.095 16.354L15.684 19.086C15.8751 19.162 16.0879 19.162 16.279 19.086L23.892 16.354C24.0674 16.289 24.2186 16.1716 24.325 16.0178C24.4314 15.8639 24.488 15.6811 24.487 15.494V10.662C24.4898 10.4745 24.4339 10.2909 24.3272 10.1367C24.2206 9.98253 24.0684 9.86552 23.892 9.802L16.292 7.057C16.1006 6.98085 15.8874 6.98085 15.696 7.057L8.096 9.802C7.91942 9.86535 7.76704 9.9823 7.66018 10.1365C7.55332 10.2907 7.49732 10.4744 7.5 10.662Z" fill="black"/>
</g>
<defs>
<clipPath id="clip0_16_2350">
<rect width="32" height="32" fill="white"/>
</clipPath>
</defs>
</svg>
