<svg width="32" height="32" viewBox="0 0 32 32" fill="none" xmlns="http://www.w3.org/2000/svg">
<g clip-path="url(#clip0_16_2354)">
<path fill-rule="evenodd" clip-rule="evenodd" d="M20.167 18.702C21.1193 18.1224 21.8139 17.2006 22.1088 16.1256C22.4036 15.0505 22.2763 13.9033 21.753 12.919L18.53 6.857C18.2606 6.35042 17.8941 5.90186 17.4513 5.53694C17.0085 5.17201 16.4983 4.89787 15.9495 4.73017C15.4008 4.56247 14.8245 4.50448 14.2534 4.55953C13.6823 4.61458 13.1276 4.78158 12.621 5.051L12.497 5.117C11.4742 5.66107 10.7093 6.58912 10.3706 7.69704C10.032 8.80496 10.1472 10.002 10.691 11.025L11.647 12.823C11.719 12.779 11.792 12.737 11.867 12.697L11.991 12.631C12.4976 12.3616 13.0522 12.1946 13.6234 12.1395C14.1945 12.0845 14.7708 12.1425 15.3195 12.3102C15.8682 12.4779 16.3785 12.752 16.8213 13.1169C17.2641 13.4819 17.6306 13.9304 17.9 14.437L20.167 18.702ZM16 32C7.163 32 0 24.837 0 16C0 7.163 7.163 0 16 0C24.837 0 32 7.163 32 16C32 24.837 24.837 32 16 32ZM20.167 18.702C20.0949 18.7461 20.0215 18.7881 19.947 18.828L19.823 18.893C19.3164 19.1624 18.7617 19.3294 18.1906 19.3845C17.6195 19.4395 17.0432 19.3815 16.4945 19.2138C15.9457 19.0461 15.4355 18.772 14.9927 18.4071C14.5499 18.0421 14.1834 17.5936 13.914 17.087L11.647 12.823C10.695 13.4026 10.0005 14.3242 9.70569 15.399C9.41086 16.4739 9.53796 17.6208 10.061 18.605L13.283 24.665C13.8271 25.6878 14.7551 26.4527 15.863 26.7914C16.971 27.13 18.168 27.0148 19.191 26.471L19.315 26.405C20.338 25.8611 21.1031 24.9331 21.4419 23.8252C21.7808 22.7173 21.6657 21.5201 21.122 20.497L20.167 18.702Z" fill="black"/>
</g>
<defs>
<clipPath id="clip0_16_2354">
<rect width="32" height="32" fill="white"/>
</clipPath>
</defs>
</svg>
