<svg width="32" height="32" viewBox="0 0 32 32" fill="none" xmlns="http://www.w3.org/2000/svg">
<g clip-path="url(#clip0_16_2368)">
<path d="M16 0C24.837 0 32 7.163 32 16C32 24.837 24.837 32 16 32C7.163 32 0 24.837 0 16C0 7.163 7.163 0 16 0ZM16.086 5.25L9.25 9.1V22.771L16.086 26.7L22.843 22.693V15.936L16.321 12.007L14.121 13.107L20.643 16.957L20.721 21.593L16.086 24.186L11.371 21.514V10.2L16.086 7.607L18.286 8.786V12.479L20.486 13.736V7.45L16.086 5.25ZM14.121 13.579V19.236L18.993 16.486L17.343 15.464L15.85 16.25V14.6L14.121 13.579Z" fill="black"/>
</g>
<defs>
<clipPath id="clip0_16_2368">
<rect width="32" height="32" fill="white"/>
</clipPath>
</defs>
</svg>
