<svg width="32" height="32" viewBox="0 0 32 32" fill="none" xmlns="http://www.w3.org/2000/svg">
<g clip-path="url(#clip0_16_2378)">
<path d="M22.585 9.694L22.652 9.725L25.582 13.631L25.562 13.653L25.503 13.533L20.982 15.817L19.608 11.267L22.662 9.865L22.585 9.694ZM22.42 9.617L19.445 10.983H12.595L9.513 9.687L12.475 8.327H19.645L22.42 9.617ZM9.266 9.937L12.386 11.25L11.006 15.817L6.493 13.538L9.266 9.937ZM12.706 11.31H19.282L20.708 16.03L15.994 24.362L11.281 16.03L12.706 11.31ZM25.218 14.043L16.794 23.607L20.999 16.174L25.218 14.043ZM15.171 23.567L6.793 14.055L10.989 16.175L15.171 23.567ZM6.431 13.643L6.421 13.633L6.464 13.576L6.431 13.643ZM16 32C7.163 32 0 24.837 0 16C0 7.163 7.163 0 16 0C24.837 0 32 7.163 32 16C32 24.837 24.837 32 16 32ZM9.222 9.462L6 13.646L16 25L26 13.648L22.861 9.462L19.717 8H12.405L9.222 9.462ZM18.423 14.834C18.344 14.004 17.637 13.726 16.743 13.646V12.495H16.051V13.616C15.869 13.616 15.683 13.62 15.498 13.624V12.495H14.807V13.646C14.657 13.649 14.51 13.652 14.367 13.652L14.366 13.649H13.411V14.397C13.411 14.397 13.923 14.387 13.914 14.397C14.194 14.397 14.286 14.561 14.312 14.704V16.015C14.332 16.015 14.357 16.016 14.386 16.02H14.312V17.858C14.3 17.948 14.248 18.09 14.052 18.09C14.062 18.098 13.549 18.09 13.549 18.09L13.412 18.927H14.312C14.48 18.927 14.645 18.93 14.807 18.931V20.095H15.498V18.943C15.688 18.947 15.872 18.949 16.051 18.949V20.096H16.743V18.933C17.907 18.865 18.721 18.569 18.823 17.463C18.903 16.571 18.49 16.173 17.829 16.013C18.231 15.806 18.482 15.441 18.423 14.834ZM17.455 17.324C17.455 18.194 15.984 18.095 15.515 18.096V16.553C15.984 16.553 17.455 16.416 17.455 17.324ZM17.133 15.147C17.133 15.939 15.905 15.847 15.515 15.847V14.447C15.905 14.447 17.133 14.321 17.133 15.147Z" fill="black"/>
</g>
<defs>
<clipPath id="clip0_16_2378">
<rect width="32" height="32" fill="white"/>
</clipPath>
</defs>
</svg>
