<svg width="32" height="32" viewBox="0 0 32 32" fill="none" xmlns="http://www.w3.org/2000/svg">
<g clip-path="url(#clip0_16_2384)">
<path d="M15.999 31.997C7.163 31.997 0 24.834 0 15.999C0 7.163 7.163 0 15.999 0C24.834 0 31.997 7.163 31.997 15.999C31.997 24.834 24.834 31.997 15.999 31.997ZM23.437 16.754C22.807 16.058 21.901 15.626 20.717 15.458V15.433C21.754 15.265 22.569 14.84 23.123 14.16C23.6852 13.4856 23.9906 12.634 23.985 11.756C23.985 10.295 23.515 9.302 22.541 8.521C21.567 7.741 20.105 7.484 18.124 7.484H10.643V14.447H6.347V17.114H18.074C18.997 17.114 19.69 17.179 20.148 17.548C20.606 17.917 20.84 18.394 20.84 19.099C20.84 19.804 20.609 20.406 20.148 20.784C19.688 21.161 18.994 21.41 18.074 21.41H14.05V19.336H10.643V24.077H18.37C20.335 24.077 21.837 23.564 22.879 22.767C23.92 21.97 24.409 20.793 24.409 19.348C24.4219 18.392 24.075 17.4661 23.437 16.754ZM17.644 14.44H14.05V10.144H17.644C19.492 10.144 20.414 10.865 20.414 12.292C20.414 13.719 19.492 14.44 17.644 14.44Z" fill="black"/>
</g>
<defs>
<clipPath id="clip0_16_2384">
<rect width="32" height="32" fill="white"/>
</clipPath>
</defs>
</svg>
