<svg width="32" height="32" viewBox="0 0 32 32" fill="none" xmlns="http://www.w3.org/2000/svg">
<g clip-path="url(#clip0_16_2394)">
<path fill-rule="evenodd" clip-rule="evenodd" d="M8.297 11.568C7.51557 12.9272 7.10551 14.4681 7.108 16.036C7.108 20.986 11.113 25 16.054 25C20.995 25 25 20.987 25 16.036C25 11.086 20.995 7.072 16.054 7.072C14.4722 7.06973 12.9185 7.4895 11.553 8.288C11.3009 7.81004 10.8959 7.43038 10.4027 7.2097C9.90941 6.98903 9.35642 6.94008 8.83208 7.07067C8.30774 7.20127 7.84232 7.50387 7.5102 7.93012C7.17808 8.35636 6.99845 8.88164 7 9.422C6.99957 9.86405 7.12023 10.2978 7.34888 10.6761C7.57753 11.0544 7.90543 11.3629 8.297 11.568ZM16 32C7.163 32 0 24.837 0 16C0 7.163 7.163 0 16 0C24.837 0 32 7.163 32 16C32 24.837 24.837 32 16 32ZM16.054 20.446C13.624 20.446 11.654 18.472 11.654 16.036C11.654 13.6 13.624 11.626 16.054 11.626C18.484 11.626 20.454 13.601 20.454 16.036C20.454 18.471 18.484 20.446 16.054 20.446Z" fill="black"/>
</g>
<defs>
<clipPath id="clip0_16_2394">
<rect width="32" height="32" fill="white"/>
</clipPath>
</defs>
</svg>
