<svg width="32" height="32" viewBox="0 0 32 32" fill="none" xmlns="http://www.w3.org/2000/svg">
<g clip-path="url(#clip0_16_2398)">
<path fill-rule="evenodd" clip-rule="evenodd" d="M16 32C7.163 32 0 24.837 0 16C0 7.163 7.163 0 16 0C24.837 0 32 7.163 32 16C32 24.837 24.837 32 16 32ZM7.9 7C7.66131 7 7.43239 7.09482 7.2636 7.2636C7.09482 7.43239 7 7.66131 7 7.9V14.1C7 14.3387 7.09482 14.5676 7.2636 14.7364C7.43239 14.9052 7.66131 15 7.9 15H14.1C14.3387 15 14.5676 14.9052 14.7364 14.7364C14.9052 14.5676 15 14.3387 15 14.1V7.9C15 7.66131 14.9052 7.43239 14.7364 7.2636C14.5676 7.09482 14.3387 7 14.1 7H7.9ZM17.9 7C17.6613 7 17.4324 7.09482 17.2636 7.2636C17.0948 7.43239 17 7.66131 17 7.9V14.1C17 14.3387 17.0948 14.5676 17.2636 14.7364C17.4324 14.9052 17.6613 15 17.9 15H24.1C24.3387 15 24.5676 14.9052 24.7364 14.7364C24.9052 14.5676 25 14.3387 25 14.1V7.9C25 7.66131 24.9052 7.43239 24.7364 7.2636C24.5676 7.09482 24.3387 7 24.1 7H17.9ZM17.9 17C17.6613 17 17.4324 17.0948 17.2636 17.2636C17.0948 17.4324 17 17.6613 17 17.9V24.1C17 24.3387 17.0948 24.5676 17.2636 24.7364C17.4324 24.9052 17.6613 25 17.9 25H24.1C24.3387 25 24.5676 24.9052 24.7364 24.7364C24.9052 24.5676 25 24.3387 25 24.1V17.9C25 17.6613 24.9052 17.4324 24.7364 17.2636C24.5676 17.0948 24.3387 17 24.1 17H17.9ZM7.9 17C7.66131 17 7.43239 17.0948 7.2636 17.2636C7.09482 17.4324 7 17.6613 7 17.9V24.1C7 24.3387 7.09482 24.5676 7.2636 24.7364C7.43239 24.9052 7.66131 25 7.9 25H14.1C14.3387 25 14.5676 24.9052 14.7364 24.7364C14.9052 24.5676 15 24.3387 15 24.1V17.9C15 17.6613 14.9052 17.4324 14.7364 17.2636C14.5676 17.0948 14.3387 17 14.1 17H7.9Z" fill="black"/>
</g>
<defs>
<clipPath id="clip0_16_2398">
<rect width="32" height="32" fill="white"/>
</clipPath>
</defs>
</svg>
