<svg width="32" height="32" viewBox="0 0 32 32" fill="none" xmlns="http://www.w3.org/2000/svg">
<g clip-path="url(#clip0_16_2404)">
<path fill-rule="evenodd" clip-rule="evenodd" d="M16 32C7.163 32 0 24.837 0 16C0 7.163 7.163 0 16 0C24.837 0 32 7.163 32 16C32 24.837 24.837 32 16 32ZM11.633 20.336C11.4771 20.1757 11.2906 20.0482 11.0846 19.961C10.8786 19.8739 10.6573 19.8288 10.4336 19.8285C10.21 19.8283 9.98851 19.8727 9.78231 19.9594C9.57611 20.046 9.38934 20.1731 9.233 20.333C8.913 20.657 8.733 21.098 8.733 21.558C8.733 22.018 8.913 22.458 9.233 22.783C9.897 23.457 10.971 23.456 11.633 22.78C12.295 22.104 12.295 21.01 11.633 20.336ZM22.696 8.726C22.3856 8.59543 22.043 8.56147 21.713 8.62855C21.383 8.69562 21.0808 8.86062 20.846 9.102C20.5262 9.42869 20.3474 9.86784 20.348 10.325C20.348 10.784 20.527 11.224 20.846 11.548C21.331 12.042 22.062 12.19 22.696 11.923C23.33 11.656 23.744 11.024 23.744 10.325C23.744 9.625 23.33 8.995 22.696 8.727V8.726ZM11.41 19.003L13.202 20.828L14.842 19.156C14.4349 18.9881 14.0659 18.7394 13.7574 18.4251C13.4489 18.1108 13.2073 17.7372 13.047 17.327L11.41 19.003ZM21.107 12.866L19.316 11.041L17.675 12.713C18.08 12.878 18.447 13.126 18.756 13.44C19.064 13.752 19.306 14.126 19.466 14.538L21.107 12.866ZM20.42 20.808C20.2913 21.1239 20.2575 21.4706 20.3229 21.8054C20.3883 22.1402 20.5499 22.4487 20.788 22.693C21.107 23.018 21.538 23.201 21.989 23.201C22.439 23.201 22.871 23.018 23.189 22.693C23.4272 22.4487 23.5889 22.1403 23.6545 21.8055C23.72 21.4707 23.6865 21.124 23.558 20.808C23.4324 20.4942 23.216 20.225 22.9364 20.0349C22.6569 19.8448 22.327 19.7425 21.989 19.741C21.302 19.741 20.683 20.162 20.42 20.808ZM9.035 9.51C8.90627 9.82593 8.87252 10.1726 8.93788 10.5074C9.00325 10.8422 9.1649 11.1507 9.403 11.395C9.722 11.719 10.153 11.902 10.604 11.902C11.054 11.902 11.486 11.719 11.804 11.395C12.0421 11.1507 12.2037 10.8422 12.2693 10.5075C12.3348 10.1727 12.3013 9.82607 12.173 9.51C12.0475 9.19599 11.8312 8.92659 11.5517 8.73631C11.2721 8.54603 10.9421 8.44356 10.604 8.442C9.917 8.442 9.298 8.863 9.035 9.51ZM19.18 20.754L20.972 18.929L19.331 17.257C19.1707 17.6675 18.929 18.0413 18.6203 18.3558C18.3116 18.6703 17.9424 18.9191 17.535 19.087L19.18 20.754ZM13.339 10.944L11.547 12.77L13.188 14.442C13.351 14.029 13.594 13.654 13.902 13.34C14.209 13.026 14.576 12.78 14.98 12.617L13.339 10.944ZM16.281 9.463C17.219 9.463 17.981 8.688 17.981 7.731C17.981 7.272 17.801 6.831 17.483 6.507C17.3264 6.34663 17.1392 6.21917 16.9327 6.13211C16.7261 6.04504 16.5042 6.00013 16.28 6C15.341 6 14.58 6.775 14.58 7.731C14.58 8.687 15.341 9.463 16.28 9.463H16.281ZM17.981 24.269C17.981 23.809 17.801 23.369 17.483 23.044C17.3265 22.8837 17.1395 22.7564 16.9331 22.6693C16.7267 22.5822 16.505 22.5373 16.281 22.537C15.342 22.537 14.581 23.312 14.581 24.269C14.581 25.226 15.342 26 16.281 26C17.22 26 17.981 25.225 17.981 24.269ZM16.898 10.369H15.828V12.513C16.1819 12.4505 16.5441 12.4505 16.898 12.513V10.369ZM16.898 19.581C16.5441 19.6435 16.1819 19.6435 15.828 19.581V21.726H16.898V19.581ZM22.23 16.189C22.3325 16.451 22.4991 16.6831 22.7145 16.8641C22.9298 17.0452 23.1872 17.1693 23.4629 17.2252C23.7386 17.2811 24.024 17.267 24.2928 17.1842C24.5617 17.1013 24.8055 16.9524 25.002 16.751C25.322 16.426 25.5 15.985 25.5 15.526C25.5 14.826 25.086 14.194 24.45 13.926C24.1394 13.7955 23.7967 13.7616 23.4665 13.8286C23.1364 13.8957 22.8341 14.0606 22.599 14.302C22.3606 14.5465 22.1986 14.8553 22.1331 15.1905C22.0675 15.5257 22.1012 15.8727 22.23 16.189ZM6.5 15.82C6.5 16.776 7.261 17.551 8.2 17.551C8.65 17.551 9.083 17.369 9.402 17.044C9.721 16.72 9.899 16.279 9.899 15.82C9.899 14.863 9.138 14.088 8.199 14.089C7.261 14.089 6.499 14.864 6.5 15.82ZM21.583 16.365V15.274H19.48C19.541 15.634 19.541 16.003 19.48 16.363L21.583 16.365ZM12.94 16.365C12.8786 16.0043 12.8786 15.6357 12.94 15.275H10.835V16.365H12.94ZM16.23 18.402C17.56 18.402 18.64 17.303 18.64 15.948C18.639 14.592 17.56 13.494 16.23 13.493C14.899 13.493 13.82 14.592 13.82 15.948C13.82 17.304 14.899 18.402 16.23 18.402Z" fill="black"/>
</g>
<defs>
<clipPath id="clip0_16_2404">
<rect width="32" height="32" fill="white"/>
</clipPath>
</defs>
</svg>
