<svg width="32" height="32" viewBox="0 0 32 32" fill="none" xmlns="http://www.w3.org/2000/svg">
<g clip-path="url(#clip0_16_2410)">
<path d="M16 32C7.163 32 0 24.837 0 16C0 7.163 7.163 0 16 0C24.837 0 32 7.163 32 16C32 24.837 24.837 32 16 32ZM25.195 19.4C24.725 19.107 24.126 19.149 23.655 19.359C23.6444 19.2957 23.6147 19.2371 23.57 19.191L21.688 16L23.57 12.81C23.613 12.767 23.613 12.683 23.656 12.641C24.126 12.893 24.682 12.893 25.196 12.599C25.3772 12.499 25.5367 12.364 25.6651 12.2017C25.7935 12.0395 25.8884 11.8532 25.944 11.6539C25.9997 11.4546 26.0151 11.2462 25.9893 11.0409C25.9636 10.8355 25.8972 10.6374 25.794 10.458C25.366 9.702 24.383 9.45 23.613 9.87C23.143 10.164 22.843 10.626 22.8 11.172H18.865L16.984 7.98C16.941 7.938 16.898 7.896 16.898 7.854C17.326 7.56 17.625 7.098 17.625 6.552C17.625 5.671 16.898 4.999 16.043 4.999C15.187 4.999 14.46 5.713 14.46 6.552C14.46 7.098 14.76 7.602 15.187 7.854C15.145 7.896 15.102 7.938 15.102 7.98L13.22 11.17H9.243C9.22434 10.9033 9.14044 10.6453 8.99867 10.4186C8.85691 10.1919 8.66163 10.0035 8.43 9.87C7.66 9.45 6.676 9.701 6.249 10.457C6.14586 10.6364 6.07951 10.8346 6.05382 11.04C6.02814 11.2454 6.04363 11.4538 6.09939 11.6531C6.15516 11.8525 6.25008 12.0387 6.37861 12.2009C6.50715 12.3631 6.66671 12.4981 6.848 12.598C7.318 12.892 7.917 12.85 8.388 12.64C8.388 12.682 8.43 12.766 8.473 12.808L10.355 16L8.43 19.19C8.387 19.233 8.387 19.317 8.344 19.359C7.874 19.107 7.318 19.107 6.804 19.401C6.035 19.821 5.778 20.786 6.206 21.542C6.634 22.298 7.617 22.55 8.387 22.13C8.857 21.836 9.157 21.374 9.2 20.828H13.135L15.016 24.019C15.059 24.061 15.102 24.103 15.102 24.145C14.674 24.439 14.375 24.901 14.375 25.447C14.375 26.328 15.102 27 15.957 27C16.813 27 17.54 26.286 17.54 25.447C17.54 24.901 17.24 24.397 16.813 24.145C16.855 24.103 16.898 24.061 16.898 24.019L18.78 20.829H22.715C22.757 21.332 23.014 21.836 23.527 22.129C24.297 22.549 25.281 22.298 25.708 21.542C25.8279 21.3717 25.9102 21.1778 25.9493 20.9733C25.9885 20.7687 25.9836 20.5582 25.9351 20.3556C25.8866 20.1531 25.7955 19.9632 25.6679 19.7986C25.5403 19.634 25.3791 19.4985 25.195 19.401V19.4ZM18.053 14.95C18.053 15.37 17.882 15.706 17.668 16.042C17.925 16.294 18.053 16.672 18.053 17.05C18.053 17.931 17.326 18.645 16.428 18.645H14.375C14.3248 18.6457 14.2751 18.6364 14.2285 18.6177C14.182 18.599 14.1396 18.5713 14.1038 18.5362C14.068 18.501 14.0395 18.4592 14.02 18.413C14.0004 18.3668 13.9903 18.3172 13.99 18.267V13.733C13.9903 13.6828 14.0004 13.6332 14.02 13.587C14.0395 13.5408 14.068 13.499 14.1038 13.4638C14.1396 13.4287 14.182 13.401 14.2285 13.3823C14.2751 13.3636 14.3248 13.3543 14.375 13.355H16.428C17.326 13.355 18.053 14.069 18.053 14.95Z" fill="black"/>
</g>
<defs>
<clipPath id="clip0_16_2410">
<rect width="32" height="32" fill="white"/>
</clipPath>
</defs>
</svg>
