<svg width="32" height="32" viewBox="0 0 32 32" fill="none" xmlns="http://www.w3.org/2000/svg">
<g clip-path="url(#clip0_16_2432)">
<path fill-rule="evenodd" clip-rule="evenodd" d="M16 32C7.163 32 0 24.837 0 16C0 7.163 7.163 0 16 0C24.837 0 32 7.163 32 16C32 24.837 24.837 32 16 32ZM20.215 7.2L18.492 6.77L17.819 9.546C17.365 9.429 16.899 9.325 16.446 9.22L17.132 6.43L15.41 6L14.71 8.842C14.335 8.751 13.973 8.672 13.61 8.582L11.24 7.982L10.786 9.833C10.786 9.833 12.068 10.133 12.042 10.146C12.742 10.316 12.872 10.785 12.846 11.15L12.327 13.236L11.874 15.048L10.903 18.96C10.812 19.168 10.605 19.494 10.113 19.377C10.125 19.403 8.856 19.064 8.856 19.064L8 21.033L10.24 21.593C10.655 21.698 11.07 21.815 11.472 21.919L10.759 24.801L12.482 25.231L13.182 22.375L13.738 20.289L14.684 16.469C14.878 16.522 15.086 16.561 15.306 16.613C16.006 16.769 16.731 16.834 17.443 16.887C17.883 16.926 18.311 16.939 18.751 16.939C19.4079 16.9245 20.0587 16.8098 20.681 16.599C21.2 16.43 21.808 16.209 22.197 15.791C22.65 15.309 22.871 14.671 22.961 14.031C23.272 11.932 21.679 10.798 19.516 10.041L20.215 7.2ZM20.073 17.5C19.593 17.578 19.347 17.617 18.868 17.643L18.194 17.682C18.842 18.125 19.244 18.738 19.036 19.585C18.648 21.176 16.588 20.955 15.06 20.615L14.541 22.728L14.516 22.818L13.855 25.57L15.565 26L16.277 23.119C19.205 23.679 21.42 23.458 22.339 20.772C22.922 19.116 22.495 17.825 21.601 17.03C21.588 17.043 21.562 17.043 21.549 17.056C21.135 17.226 20.552 17.421 20.073 17.499V17.5ZM19.567 14.005C19.088 15.961 16.083 14.97 15.111 14.722L15.966 11.254C16.938 11.515 20.073 11.958 19.567 14.005Z" fill="black"/>
</g>
<defs>
<clipPath id="clip0_16_2432">
<rect width="32" height="32" fill="white"/>
</clipPath>
</defs>
</svg>
