<svg width="32" height="32" viewBox="0 0 32 32" fill="none" xmlns="http://www.w3.org/2000/svg">
<g clip-path="url(#clip0_16_2434)">
<path d="M16 32C7.163 32 0 24.837 0 16C0 7.163 7.163 0 16 0C24.837 0 32 7.163 32 16C32 24.837 24.837 32 16 32ZM16 27C17.135 27 18.263 26.826 19.344 26.481C19.4577 26.4479 19.5636 26.3923 19.6556 26.3176C19.7475 26.243 19.8235 26.1507 19.8792 26.0461C19.9349 25.9416 19.9692 25.827 19.9799 25.7091C19.9907 25.5911 19.9777 25.4722 19.9418 25.3594C19.906 25.2465 19.8479 25.142 19.771 25.0519C19.6941 24.9618 19.5999 24.888 19.4941 24.8349C19.3883 24.7817 19.2729 24.7503 19.1547 24.7424C19.0365 24.7345 18.918 24.7504 18.806 24.789C17.8987 25.078 16.9522 25.2247 16 25.224C10.914 25.224 6.776 21.086 6.776 16C6.776 10.914 10.914 6.776 16 6.776C21.086 6.776 25.224 10.914 25.224 16C25.224 16.84 25.11 17.678 24.884 18.488C24.8206 18.7149 24.85 18.9577 24.9656 19.1629C25.0812 19.3682 25.2736 19.5191 25.5005 19.5825C25.7274 19.6459 25.9702 19.6165 26.1754 19.5009C26.3807 19.3853 26.5316 19.1929 26.595 18.966C26.865 18 27 17.002 27 16C27 9.937 22.063 5 16 5C9.937 5 5 9.934 5 16C5 22.066 9.934 27 16 27ZM19.375 15.974C18.9836 15.6525 18.4989 15.4659 17.993 15.442C18.3571 15.1814 18.6263 14.8093 18.76 14.382C18.89 13.97 18.908 13.532 18.814 13.112C18.6886 12.5459 18.3731 12.0398 17.92 11.678C17.6968 11.5038 17.4412 11.3756 17.168 11.301C16.8805 11.223 16.578 11.2179 16.288 11.286L15.727 11.408C15.6505 11.425 15.5704 11.411 15.5042 11.369C15.438 11.327 15.3912 11.2605 15.374 11.184L15.226 10.516C15.2088 10.4395 15.162 10.373 15.0958 10.331C15.0296 10.289 14.9495 10.275 14.873 10.292L14.196 10.442C14.1196 10.4586 14.0529 10.5046 14.0104 10.5702C13.9678 10.6358 13.953 10.7155 13.969 10.792L14.119 11.465C14.1274 11.503 14.1283 11.5422 14.1215 11.5805C14.1147 11.6187 14.1005 11.6553 14.0796 11.6881C14.0587 11.7209 14.0316 11.7492 13.9997 11.7715C13.9679 11.7938 13.932 11.8096 13.894 11.818L12.061 12.224C11.874 12.2651 11.7111 12.3789 11.6079 12.5401C11.5048 12.7014 11.4699 12.897 11.511 13.084L13.161 20.544C13.2021 20.731 13.3159 20.8939 13.4771 20.9971C13.6384 21.1002 13.834 21.1351 14.021 21.094L15.854 20.687C15.892 20.6786 15.9312 20.6777 15.9695 20.6845C16.0077 20.6913 16.0443 20.7055 16.0771 20.7264C16.1099 20.7473 16.1382 20.7744 16.1605 20.8063C16.1828 20.8381 16.1986 20.874 16.207 20.912L16.355 21.579C16.3634 21.617 16.3792 21.6529 16.4015 21.6847C16.4238 21.7166 16.4521 21.7437 16.4849 21.7646C16.5177 21.7855 16.5543 21.7997 16.5925 21.8065C16.6308 21.8133 16.67 21.8124 16.708 21.804L17.385 21.654C17.423 21.6456 17.4589 21.6298 17.4907 21.6075C17.5226 21.5852 17.5497 21.5569 17.5706 21.5241C17.5915 21.4913 17.6057 21.4547 17.6125 21.4165C17.6193 21.3782 17.6184 21.339 17.61 21.301L17.461 20.629C17.4442 20.5532 17.4578 20.4738 17.499 20.408C17.5401 20.3421 17.6055 20.2951 17.681 20.277L17.934 20.216C18.342 20.126 18.423 20.069 18.765 19.892C19.0889 19.7312 19.3825 19.5157 19.633 19.255C19.863 19.014 20.031 18.723 20.127 18.405C20.223 18.062 20.229 17.699 20.143 17.353C20.011 16.752 19.755 16.292 19.375 15.974ZM13.945 14.377C13.9039 14.19 13.9388 13.9944 14.0419 13.8331C14.1451 13.6719 14.308 13.5581 14.495 13.517L15.875 13.211C15.9792 13.1863 16.0873 13.1837 16.1926 13.2033C16.2978 13.223 16.3978 13.2644 16.486 13.325C16.676 13.449 16.802 13.657 16.866 13.949C16.936 14.265 16.901 14.518 16.759 14.706C16.6262 14.8892 16.4303 15.0167 16.209 15.064L14.904 15.353C14.8113 15.3735 14.7156 15.3755 14.6221 15.3589C14.5287 15.3424 14.4395 15.3076 14.3595 15.2565C14.2795 15.2054 14.2104 15.139 14.1561 15.0612C14.1018 14.9834 14.0634 14.8957 14.043 14.803L13.945 14.377ZM17.854 18.144C17.7867 18.2499 17.6984 18.3409 17.5945 18.4112C17.4906 18.4816 17.3733 18.5298 17.25 18.553L15.681 18.9C15.494 18.9411 15.2984 18.9062 15.1371 18.8031C14.9759 18.6999 14.8621 18.537 14.821 18.35L14.704 17.823C14.6629 17.636 14.6978 17.4404 14.8009 17.2791C14.9041 17.1179 15.067 17.0041 15.254 16.963L16.91 16.596C17.025 16.569 17.1448 16.569 17.2598 16.596C17.3749 16.6231 17.4821 16.6765 17.573 16.752C17.777 16.914 17.916 17.143 17.965 17.399C17.9985 17.5241 18.0061 17.6546 17.9874 17.7827C17.9686 17.9109 17.9239 18.0338 17.856 18.144H17.854ZM21.152 23.527C21.1096 23.5774 21.0866 23.6412 21.087 23.707V23.987C21.087 24.14 21.211 24.264 21.364 24.264H23.816C23.8525 24.2641 23.8886 24.2571 23.9223 24.2432C23.956 24.2293 23.9867 24.209 24.0125 24.1832C24.0383 24.1575 24.0588 24.1269 24.0728 24.0932C24.0868 24.0596 24.094 24.0235 24.094 23.987V23.772C24.094 23.7355 24.0868 23.6994 24.0728 23.6658C24.0588 23.6321 24.0383 23.6015 24.0125 23.5758C23.9867 23.55 23.956 23.5297 23.9223 23.5158C23.8886 23.5019 23.8525 23.4949 23.816 23.495H22.765C22.7128 23.4951 22.6616 23.4805 22.6173 23.4528C22.573 23.425 22.5375 23.3854 22.5148 23.3383C22.4921 23.2913 22.4832 23.2388 22.4891 23.1869C22.495 23.135 22.5154 23.0858 22.548 23.045L24.014 21.203C24.0535 21.1544 24.0751 21.0936 24.075 21.031V20.747C24.075 20.7106 24.0678 20.6746 24.0539 20.641C24.04 20.6074 24.0196 20.5769 23.9939 20.5511C23.9681 20.5254 23.9376 20.505 23.904 20.4911C23.8704 20.4772 23.8344 20.47 23.798 20.47H21.44C21.4035 20.4699 21.3674 20.4769 21.3337 20.4908C21.3 20.5047 21.2693 20.525 21.2435 20.5508C21.2177 20.5765 21.1972 20.6071 21.1832 20.6408C21.1692 20.6744 21.162 20.7105 21.162 20.747V20.963C21.162 21.116 21.286 21.24 21.44 21.24H22.472C22.5248 21.2399 22.5765 21.2548 22.6211 21.2831C22.6657 21.3113 22.7013 21.3517 22.7236 21.3996C22.746 21.4474 22.7543 21.5006 22.7474 21.5529C22.7406 21.6053 22.7189 21.6546 22.685 21.695L21.152 23.527Z" fill="black"/>
</g>
<defs>
<clipPath id="clip0_16_2434">
<rect width="32" height="32" fill="white"/>
</clipPath>
</defs>
</svg>
