<svg width="32" height="32" viewBox="0 0 32 32" fill="none" xmlns="http://www.w3.org/2000/svg">
<g clip-path="url(#clip0_16_2436)">
<path d="M16 32C24.837 32 32 24.837 32 16C32 7.163 24.837 0 16 0C7.163 0 0 7.163 0 16C0 24.837 7.163 32 16 32ZM16 3C23.179 3 29 8.821 29 16C29 23.179 23.179 29 16 29C8.821 29 3 23.179 3 16C3 8.821 8.821 3 16 3ZM15.962 4.94C22.049 4.94 26.985 9.874 26.985 15.962C26.985 22.049 22.049 26.985 15.962 26.985C9.874 26.985 4.94 22.049 4.94 15.962C4.94 9.874 9.874 4.94 15.962 4.94ZM15.962 28.022C22.621 28.022 28.019 22.624 28.019 15.964C28.019 9.304 22.62 3.907 15.962 3.907C9.302 3.907 3.904 9.305 3.904 15.964C3.904 22.624 9.302 28.022 15.962 28.022ZM18.012 16.978C18.0774 17.0172 18.1302 17.0743 18.1642 17.1425C18.1982 17.2107 18.212 17.2872 18.204 17.363C18.1737 17.6759 18.207 17.9917 18.3019 18.2914C18.3968 18.5911 18.5513 18.8686 18.7562 19.1071C18.961 19.3455 19.212 19.5401 19.494 19.6791C19.7759 19.8182 20.0831 19.8987 20.397 19.916C20.7023 19.9278 21.007 19.8794 21.2936 19.7735C21.5802 19.6675 21.8431 19.5062 22.0674 19.2987C22.2916 19.0911 22.4728 18.8414 22.6006 18.5639C22.7283 18.2863 22.8002 17.9863 22.812 17.681C22.8238 17.3757 22.7754 17.071 22.6695 16.7844C22.5635 16.4978 22.4022 16.2349 22.1947 16.0106C21.9871 15.7864 21.7374 15.6052 21.4599 15.4774C21.1823 15.3497 20.8823 15.2778 20.577 15.266C20.2193 15.2574 19.8644 15.3316 19.5401 15.4826C19.2157 15.6337 18.9306 15.8577 18.707 16.137C18.6457 16.2128 18.5588 16.2635 18.4626 16.2797C18.3665 16.2959 18.2678 16.2765 18.185 16.225L16.465 15.167C16.4065 15.1308 16.358 15.0804 16.3243 15.0204C16.2905 14.9604 16.2725 14.8928 16.272 14.824V14.807C16.272 14.62 16.402 14.464 16.58 14.417C17.106 14.2801 17.5674 13.9631 17.8837 13.5211C18.2 13.079 18.3512 12.5401 18.311 11.998C18.2677 11.4323 18.0198 10.9017 17.6135 10.5056C17.2073 10.1095 16.6706 9.87499 16.104 9.846C15.5431 9.82019 14.9919 9.99813 14.5519 10.347C14.112 10.6958 13.8131 11.192 13.7103 11.744C13.6076 12.296 13.708 12.8665 13.993 13.3502C14.278 13.834 14.7284 14.1983 15.261 14.376C15.3414 14.4026 15.4114 14.4538 15.4611 14.5224C15.5108 14.5909 15.5377 14.6733 15.538 14.758V14.857C15.538 15.002 15.458 15.137 15.332 15.208L13.694 16.126C13.6151 16.1707 13.5234 16.1871 13.4339 16.1726C13.3445 16.158 13.2626 16.1134 13.202 16.046C12.9798 15.7965 12.7064 15.5978 12.4004 15.4637C12.0944 15.3296 11.763 15.2632 11.429 15.269C10.8206 15.282 10.2413 15.532 9.81431 15.9656C9.38736 16.3993 9.14651 16.9824 9.143 17.591C9.14472 17.9087 9.21159 18.2226 9.33945 18.5134C9.46732 18.8042 9.65347 19.0657 9.88641 19.2817C10.1193 19.4977 10.3941 19.6637 10.6937 19.7693C10.9933 19.8749 11.3114 19.9179 11.6283 19.8957C11.9452 19.8735 12.2542 19.7866 12.5361 19.6402C12.8181 19.4939 13.067 19.2912 13.2676 19.0449C13.4681 18.7985 13.616 18.5136 13.7021 18.2078C13.7881 17.902 13.8106 17.5818 13.768 17.267C13.7573 17.19 13.7693 17.1115 13.8025 17.0411C13.8357 16.9708 13.8887 16.9117 13.955 16.871L15.656 15.821C15.7187 15.7822 15.7909 15.7614 15.8647 15.7611C15.9385 15.7607 16.0109 15.7808 16.074 15.819L18.012 16.979V16.978ZM15.997 6.686C14.6093 6.68629 13.2733 7.21327 12.2591 8.16047C11.2449 9.10768 10.628 10.4045 10.533 11.789C11.1918 11.685 11.8634 11.6918 12.52 11.809C12.6081 10.9485 13.0122 10.1513 13.6541 9.57146C14.2959 8.99164 15.13 8.67045 15.995 8.67C16.9216 8.67106 17.8099 9.03982 18.4648 9.69531C19.1197 10.3508 19.4877 11.2394 19.488 12.166C19.488 13.156 19.075 14.049 18.413 14.684C18.8017 14.4007 19.2435 14.1986 19.712 14.0898C20.1806 13.981 20.6662 13.9678 21.14 14.051C21.4442 13.2231 21.544 12.334 21.4308 11.4593C21.3176 10.5846 20.9949 9.75017 20.4901 9.02696C19.9852 8.30375 19.3132 7.71315 18.5311 7.30541C17.749 6.89767 16.88 6.68483 15.998 6.685L15.997 6.686ZM11.465 23.01C13.185 23.01 14.716 22.21 15.711 20.96C15.2778 20.3447 14.968 19.6513 14.799 18.918C14.5337 19.5847 14.0744 20.1565 13.4805 20.5592C12.8867 20.962 12.1856 21.1772 11.468 21.177C10.5264 21.1613 9.62864 20.7762 8.96831 20.1047C8.30797 19.4333 7.93791 18.5292 7.93791 17.5875C7.93791 16.6458 8.30797 15.7417 8.96831 15.0703C9.62864 14.3988 10.5264 14.0137 11.468 13.998C12.257 13.998 12.985 14.254 13.576 14.685C12.9134 14.0506 12.5272 13.1809 12.501 12.264C11.7156 12.1108 10.9061 12.1333 10.1305 12.33C9.35487 12.5267 8.63241 12.8926 8.01497 13.4016C7.39752 13.9105 6.9004 14.5499 6.55928 15.2737C6.21817 15.9975 6.04151 16.7878 6.042 17.588C6.04187 18.3001 6.18206 19.0053 6.45455 19.6633C6.72705 20.3212 7.12652 20.9191 7.63013 21.4226C8.13374 21.9261 8.73163 22.3255 9.38963 22.5978C10.0476 22.8702 10.7529 23.0103 11.465 23.01ZM20.521 23.01C21.2668 23.2001 22.0446 23.2292 22.8026 23.0955C23.5605 22.9619 24.2814 22.6684 24.9172 22.2346C25.553 21.8009 26.0892 21.2368 26.4902 20.5798C26.8912 19.9228 27.1478 19.188 27.2429 18.4243C27.338 17.6605 27.2695 16.8852 27.0419 16.15C26.8142 15.4147 26.4328 14.7363 25.9228 14.1599C25.4127 13.5834 24.7859 13.1221 24.0839 12.8066C23.3818 12.4911 22.6207 12.3287 21.851 12.33C21.8353 12.9468 21.7212 13.5572 21.513 14.138C22.3436 14.3779 23.0598 14.9096 23.5299 15.6352C23.9999 16.3609 24.1923 17.2318 24.0716 18.088C23.951 18.9441 23.5254 19.728 22.8731 20.2955C22.2208 20.863 21.3856 21.176 20.521 21.177C19.6312 21.1765 18.7733 20.8455 18.1137 20.2484C17.4541 19.6512 17.0397 18.8303 16.951 17.945C16.3417 18.0452 15.7204 18.0489 15.11 17.956C15.2038 19.3272 15.8146 20.6117 16.819 21.5499C17.8234 22.488 19.1466 23.0099 20.521 23.01Z" fill="black"/>
</g>
<defs>
<clipPath id="clip0_16_2436">
<rect width="32" height="32" fill="white"/>
</clipPath>
</defs>
</svg>
