<svg width="32" height="32" viewBox="0 0 32 32" fill="none" xmlns="http://www.w3.org/2000/svg">
<g clip-path="url(#clip0_16_2438)">
<path d="M16 32C7.163 32 0 24.837 0 16C0 7.163 7.163 0 16 0C24.837 0 32 7.163 32 16C32 24.837 24.837 32 16 32ZM16 27C22.075 27 27 22.075 27 16C27 9.925 22.075 5 16 5C9.925 5 5 9.925 5 16C5 22.075 9.925 27 16 27ZM15.012 6.74C15.448 6.71 15.887 6.69 16.324 6.675C16.329 7.572 16.327 8.47 16.324 9.367L15.014 9.365C15.014 8.49 15.014 7.615 15.012 6.74ZM18.164 9.407H18.165C18.163 8.582 18.163 7.757 18.169 6.933C20.599 7.542 22.763 9.13 24.036 11.291C25.477 13.688 25.719 16.749 24.698 19.351C23.622 22.171 21.093 24.351 18.163 25.066C18.165 24.246 18.167 23.428 18.161 22.609C19.553 22.477 21.078 22.355 22.204 21.429C23.341 20.433 23.604 18.738 23.274 17.324C23.02 16.245 22.003 15.561 20.976 15.322C22.692 14.412 22.872 11.772 21.471 10.515C20.553 9.738 19.316 9.562 18.164 9.407ZM9.418 9.372C10.536 8.39 11.802 7.563 13.224 7.102C13.231 7.874 13.229 8.646 13.229 9.418C11.958 9.42 10.687 9.433 9.419 9.372H9.418ZM7.936 11.362C8.306 10.669 8.888 10.12 9.254 9.426C9.32 9.511 9.344 9.614 9.325 9.734C9.334 10.261 9.342 10.787 9.418 11.308C10.065 11.312 10.722 11.262 11.363 11.389C11.751 11.463 11.985 11.866 11.962 12.239C11.983 14.553 11.956 16.868 11.975 19.182C11.955 19.587 12.056 20.076 11.704 20.372C11.101 20.575 10.45 20.466 9.826 20.479C9.584 21.146 9.417 21.841 9.403 22.549C10.675 22.619 11.953 22.572 13.228 22.585C13.228 23.355 13.23 24.127 13.225 24.897C10.728 24.094 8.595 22.23 7.52 19.834C6.275 17.161 6.443 13.903 7.936 11.361V11.362ZM15.066 11.463C16.174 11.495 17.392 11.327 18.39 11.919C19.245 12.405 19.298 13.778 18.47 14.319C17.472 14.981 16.207 14.854 15.067 14.875V11.463H15.066ZM15.066 16.711H15.067C16.429 16.748 17.92 16.515 19.147 17.248C20.05 17.751 20.155 19.188 19.279 19.77C18.054 20.619 16.474 20.382 15.067 20.496V16.71L15.066 16.711ZM15.015 22.636H16.38C16.38 23.532 16.382 24.428 16.378 25.324C15.9217 25.312 15.4656 25.2917 15.01 25.263C15.013 24.387 15.015 23.511 15.015 22.636Z" fill="black"/>
</g>
<defs>
<clipPath id="clip0_16_2438">
<rect width="32" height="32" fill="white"/>
</clipPath>
</defs>
</svg>
