<svg width="32" height="32" viewBox="0 0 32 32" fill="none" xmlns="http://www.w3.org/2000/svg">
<g clip-path="url(#clip0_16_2442)">
<path d="M16 32C7.163 32 0 24.837 0 16C0 7.163 7.163 0 16 0C24.837 0 32 7.163 32 16C32 24.837 24.837 32 16 32ZM9.03 5L9.036 5.003C9.03 7.578 9.036 10.153 9.03 12.733C9.02688 12.7602 9.03064 12.7877 9.04095 12.813C9.05126 12.8384 9.06779 12.8607 9.089 12.878L14.633 18.42C14.91 18.262 15.208 18.134 15.523 18.075C15.532 15.681 15.523 13.286 15.526 10.889C15.5273 10.8458 15.5243 10.8026 15.517 10.76C15.456 10.688 15.377 10.632 15.304 10.565L9.03 5ZM16.477 13.607H16.48C16.48 15.097 16.47 16.587 16.48 18.075C16.818 18.143 17.141 18.275 17.43 18.463C18.148 17.757 18.857 17.04 19.571 16.328C19.909 15.984 20.262 15.655 20.589 15.305C19.4406 14.305 17.9963 13.7086 16.477 13.607ZM9.033 14.275L9.03 14.272V20.091H13.502C13.578 19.749 13.714 19.423 13.904 19.128C12.28 17.512 10.661 15.888 9.034 14.275H9.033ZM20.639 16.608V16.611C19.793 17.454 18.944 18.297 18.104 19.143C18.271 19.39 18.393 19.664 18.463 19.953C18.48 20.009 18.48 20.111 18.568 20.091C20.035 20.088 21.505 20.094 22.972 20.088C22.8693 18.5721 22.2721 17.1318 21.272 15.988C21.047 16.185 20.852 16.404 20.639 16.608ZM9.03 21.042C9.13087 22.5468 9.72082 23.9775 10.71 25.116C10.737 25.16 10.774 25.105 10.798 25.087L13.898 21.995C13.7101 21.7063 13.5784 21.3846 13.51 21.047C13.289 21.033 13.07 21.042 12.851 21.042H9.031H9.03ZM18.492 21.047C18.431 21.357 18.314 21.654 18.148 21.922C18.594 22.383 19.055 22.83 19.507 23.285L21.315 25.087C22.2922 23.9545 22.8739 22.5346 22.972 21.042H20.376C19.746 21.047 19.122 21.032 18.492 21.047ZM17.238 22.777L17.235 22.774C16.9984 22.9061 16.7427 23.0006 16.477 23.054V27.517C18.0032 27.4186 19.4542 26.8184 20.604 25.81L17.448 22.66C17.378 22.695 17.308 22.736 17.238 22.777ZM12.647 24.571V24.574C12.236 24.991 11.813 25.396 11.41 25.819C12.5573 26.8214 14.0027 27.4181 15.523 27.517V23.054C15.185 22.9805 14.8629 22.8471 14.572 22.66C13.925 23.29 13.289 23.935 12.647 24.57V24.571Z" fill="black"/>
</g>
<defs>
<clipPath id="clip0_16_2442">
<rect width="32" height="32" fill="white"/>
</clipPath>
</defs>
</svg>
