<svg width="32" height="32" viewBox="0 0 32 32" fill="none" xmlns="http://www.w3.org/2000/svg">
<g clip-path="url(#clip0_16_2450)">
<path d="M16 0C24.837 0 32 7.163 32 16C32 24.837 24.837 32 16 32C7.163 32 0 24.837 0 16C0 7.163 7.163 0 16 0ZM14.96 5.75H11.333L10.031 13.091H14.65L9.163 18.038L8 24.695C8 24.695 12.387 24.819 16.107 24.695C19.842 24.57 24.197 21.366 24.833 17.742C25.701 12.842 22.896 10.945 22.896 10.945L20.354 13.434C20.354 13.434 22.493 15.814 20.524 19.08C18.587 22.284 12.154 21.693 12.154 21.693L12.65 18.878L21.702 10.043H14.2L14.96 5.75ZM20.927 10.338L12.387 18.768L11.813 21.988C11.813 21.988 13.72 22.128 15.223 21.988C16.727 21.833 18.416 21.211 18.416 21.211L13.952 24.461H8.264L9.38 18.146L15.285 12.827H10.263L14.324 10.338H20.927Z" fill="black"/>
</g>
<defs>
<clipPath id="clip0_16_2450">
<rect width="32" height="32" fill="white"/>
</clipPath>
</defs>
</svg>
