<svg width="32" height="32" viewBox="0 0 32 32" fill="none" xmlns="http://www.w3.org/2000/svg">
<g clip-path="url(#clip0_16_2452)">
<path d="M16 32C7.163 32 0 24.837 0 16C0 7.163 7.163 0 16 0C24.837 0 32 7.163 32 16C32 24.837 24.837 32 16 32ZM16.017 21.804C15.2525 21.8389 14.4903 21.6965 13.79 21.388C13.0523 21.0705 12.3916 20.5977 11.853 20.002C10.9567 19.0218 10.4638 17.7392 10.473 16.411C10.447 15.671 10.548 14.931 10.771 14.225C10.97 13.629 11.271 13.072 11.659 12.579C12.1062 12.0064 12.6652 11.5307 13.302 11.181C13.8952 10.8531 14.548 10.647 15.222 10.575C15.7703 10.5049 16.3257 10.512 16.872 10.596C17.572 10.712 18.242 10.97 18.838 11.354C19.4555 11.7489 19.9868 12.2646 20.4 12.87C20.451 12.941 20.51 12.97 20.586 12.895L21.074 12.406C21.234 12.246 21.407 12.091 21.55 11.926C21.693 11.762 21.866 11.636 22.017 11.476C22.451 11.017 22.91 10.579 23.357 10.129C23.432 10.053 23.44 10.015 23.52 10.149C23.6 10.284 23.71 10.399 23.798 10.524C24.6239 11.6661 25.1849 12.9779 25.44 14.364C25.508 14.702 25.549 15.044 25.563 15.388C25.595 15.993 25.583 16.599 25.525 17.202C25.429 17.989 25.247 18.762 24.982 19.51C24.6864 20.3057 24.287 21.0589 23.794 21.75C23.71 21.855 23.697 21.93 23.794 22.028C24.262 22.491 24.724 22.966 25.188 23.434C25.327 23.598 25.365 23.594 25.487 23.434C26.287 22.387 26.905 21.214 27.318 19.964C27.488 19.46 27.628 18.947 27.739 18.428C27.87 17.808 27.904 17.173 27.971 16.545C28.03 15.994 27.908 15.442 27.908 14.891C27.9094 14.8797 27.9094 14.8683 27.908 14.857C27.778 14.263 27.723 13.657 27.554 13.063C27.354 12.342 27.094 11.638 26.779 10.958C26.3858 10.1354 25.8986 9.36127 25.327 8.651C24.876 8.081 24.377 7.55 23.837 7.063C23.659 6.903 23.617 6.908 23.453 7.084L22.051 8.574L21.078 9.602C21.015 9.67 20.952 9.703 20.872 9.632C20.4646 9.30426 20.0226 9.02192 19.554 8.79C19.1096 8.55239 18.6391 8.36715 18.152 8.238C17.5814 8.06869 16.991 7.97522 16.396 7.96C16.3317 7.964 16.2673 7.964 16.203 7.96C15.8398 7.93123 15.4745 7.93961 15.113 7.985C14.643 8.03 14.179 8.12 13.727 8.255C13.1701 8.41526 12.6323 8.63555 12.123 8.912C10.7809 9.62235 9.66599 10.6964 8.906 12.011C8.55233 12.6355 8.27788 13.3016 8.089 13.994C7.976 14.447 7.895 14.907 7.845 15.371C7.77934 15.8396 7.77229 16.3146 7.824 16.785C7.872 17.427 7.991 18.061 8.177 18.676C8.29 19.013 8.416 19.343 8.557 19.666C8.742 20.076 8.967 20.468 9.226 20.836C9.68594 21.5108 10.2387 22.1175 10.868 22.638C11.5648 23.2136 12.359 23.66 13.213 23.956C14.2049 24.288 15.2504 24.4309 16.295 24.377C17.115 24.347 17.927 24.197 18.704 23.931C19.3317 23.7116 19.9276 23.41 20.476 23.034C20.611 22.941 20.616 22.904 20.502 22.785L18.922 21.16C18.9076 21.1388 18.8888 21.121 18.8669 21.1076C18.845 21.0942 18.8206 21.0856 18.7952 21.0824C18.7697 21.0792 18.7439 21.0814 18.7194 21.0889C18.6949 21.0964 18.6723 21.1091 18.653 21.126C18.435 21.266 18.203 21.381 17.958 21.468C17.3434 21.7195 16.6814 21.8342 16.018 21.804H16.017ZM25.037 23.711L20.777 19.374C20.684 19.277 20.607 19.274 20.532 19.374C20.231 19.8129 19.8664 20.2045 19.45 20.536C19.349 20.616 19.349 20.679 19.45 20.772C19.833 21.155 20.212 21.547 20.591 21.93C21.084 22.431 21.576 22.932 22.073 23.433C22.161 23.521 22.157 23.563 22.073 23.639C21.875 23.787 21.681 23.939 21.475 24.06C20.3951 24.8054 19.1695 25.3136 17.879 25.551C17.3775 25.6647 16.8652 25.7241 16.351 25.728H16.145C15.781 25.753 15.415 25.742 15.055 25.694C14.633 25.631 14.237 25.58 13.837 25.492C13.3302 25.3765 12.8343 25.2173 12.355 25.016C11.5408 24.677 10.777 24.2278 10.085 23.681C9.40157 23.143 8.79169 22.5177 8.271 21.821C7.7221 21.0912 7.28497 20.2836 6.974 19.425C6.6333 18.5843 6.43948 17.6913 6.401 16.785C6.39383 16.6895 6.39383 16.5935 6.401 16.498V15.505C6.37803 15.3979 6.37803 15.2871 6.401 15.18C6.401 15.1 6.435 15.025 6.448 14.945C6.49 14.572 6.556 14.202 6.646 13.837C6.761 13.347 6.914 12.867 7.105 12.401C7.95264 10.3252 9.49433 8.60784 11.467 7.542C12.6338 6.89427 13.9265 6.50545 15.257 6.402H15.5C16.8852 6.31409 18.2728 6.53261 19.564 7.042L19.926 7.193C20.478 7.43773 21.0065 7.73228 21.505 8.073C21.5229 8.08937 21.544 8.10179 21.5671 8.10946C21.5901 8.11713 21.6144 8.11988 21.6386 8.11752C21.6627 8.11516 21.6861 8.10775 21.7072 8.09578C21.7283 8.0838 21.7466 8.06752 21.761 8.048C22.208 7.538 22.679 7.054 23.147 6.566C23.235 6.473 23.239 6.389 23.147 6.313C21.6036 5.19073 19.8154 4.45172 17.93 4.157C17.3891 4.07104 16.8434 4.01894 16.296 4.001C15.4479 3.98758 14.6009 4.06672 13.77 4.237C13.2392 4.34248 12.7161 4.48312 12.204 4.658C11.292 4.963 10.422 5.381 9.614 5.9C8.644 6.52 7.767 7.272 7.008 8.136C5.99425 9.28648 5.21226 10.6219 4.705 12.069C4.493 12.681 4.325 13.307 4.204 13.943C4.111 14.5 4.048 15.063 4.014 15.627C3.97967 16.2329 4.00782 16.8408 4.098 17.441C4.164 18.038 4.278 18.628 4.439 19.206C4.553 19.597 4.667 19.989 4.814 20.368C5.108 21.128 5.477 21.858 5.917 22.545C6.46435 23.3902 7.11021 24.1673 7.841 24.86C8.314 25.296 8.821 25.693 9.357 26.048C10.075 26.539 10.847 26.948 11.657 27.265C12.463 27.585 13.304 27.813 14.161 27.947C14.804 28.043 15.453 28.099 16.103 28.115C16.523 28.115 16.945 28.048 17.34 28.039C17.64 28.017 17.937 27.972 18.229 27.905C18.553 27.85 18.873 27.765 19.193 27.681C20.3897 27.3679 21.5274 26.8616 22.561 26.182C23.498 25.582 24.348 24.857 25.088 24.027C25.21 23.887 25.206 23.863 25.038 23.711H25.037Z" fill="black"/>
</g>
<defs>
<clipPath id="clip0_16_2452">
<rect width="32" height="32" fill="white"/>
</clipPath>
</defs>
</svg>
