<svg width="32" height="32" viewBox="0 0 32 32" fill="none" xmlns="http://www.w3.org/2000/svg">
<g clip-path="url(#clip0_16_2458)">
<path d="M16 32C7.163 32 0 24.837 0 16C0 7.163 7.163 0 16 0C24.837 0 32 7.163 32 16C32 24.837 24.837 32 16 32ZM27 16.03C26.975 9.971 22.128 5.057 16.12 5V7.802C20.064 7.8 23.436 10.665 24.104 14.584H20.214C20.364 15.042 20.442 15.519 20.448 16C20.447 16.482 20.368 16.96 20.214 17.416H24.104C23.445 21.341 20.068 24.21 16.12 24.198V27C19.006 27 21.773 25.845 23.814 23.788C25.8578 21.7231 27.0029 18.9343 27 16.029V16.03ZM19.746 18.389C19.4434 18.87 19.0485 19.2862 18.584 19.6136C18.1196 19.9409 17.5948 20.173 17.0401 20.2963C16.4854 20.4196 15.9118 20.4317 15.3524 20.3319C14.7929 20.2322 14.2589 20.0225 13.781 19.715C11.77 18.42 11.181 15.727 12.465 13.7C12.7675 13.2189 13.1624 12.8026 13.6268 12.4752C14.0912 12.1477 14.616 11.9155 15.1707 11.7921C15.7254 11.6687 16.299 11.6565 16.8585 11.7562C17.4179 11.8559 17.9521 12.0656 18.43 12.373C18.952 12.723 19.4 13.173 19.746 13.7H22.818C21.682 10.395 18.346 8.4 14.925 8.98C11.505 9.56 9 12.547 9 16.044C9 19.541 11.505 22.528 14.925 23.108C18.346 23.688 21.682 21.694 22.818 18.388L19.746 18.389Z" fill="black"/>
</g>
<defs>
<clipPath id="clip0_16_2458">
<rect width="32" height="32" fill="white"/>
</clipPath>
</defs>
</svg>
