<svg width="32" height="32" viewBox="0 0 32 32" fill="none" xmlns="http://www.w3.org/2000/svg">
<g clip-path="url(#clip0_16_2460)">
<path fill-rule="evenodd" clip-rule="evenodd" d="M16 32C7.163 32 0 24.837 0 16C0 7.163 7.163 0 16 0C24.837 0 32 7.163 32 16C32 24.837 24.837 32 16 32ZM12.984 10.622C13.148 10.642 13.266 10.65 13.382 10.67C14.465 10.856 15.547 11.05 16.632 11.23C17.995 11.458 18.899 12.336 19.03 13.665C19.095 14.328 19.021 15.005 19.06 15.672C19.071 15.874 19.205 16.153 19.364 16.239C19.527 16.326 19.851 16.299 19.996 16.182C20.9353 15.4206 21.8575 14.6384 22.762 13.836C22.888 13.726 22.966 13.499 22.976 13.322C23.006 12.765 23.002 12.206 22.995 11.647C22.97 9.681 21.705 8.119 19.814 7.733C18.748 7.516 17.67 7.36 16.609 7.123C14.698 6.695 13.091 7.392 12.1 9.11C12.0093 9.26006 11.8704 9.37497 11.706 9.436C10.23 9.916 9.066 11.369 9.04 12.935C8.99427 15.4407 8.98793 17.9471 9.021 20.453C9.048 22.315 10.283 23.871 11.955 24.229C13.253 24.507 14.557 24.784 15.871 24.959C17.474 25.171 18.971 24.574 19.843 23.023C19.9001 22.9112 19.9791 22.8119 20.0753 22.7312C20.1715 22.6505 20.2829 22.5899 20.403 22.553C21.82 22.073 22.924 20.575 22.973 19.053C22.999 18.211 22.981 17.366 22.993 16.523C22.998 16.185 22.914 15.917 22.593 15.762C22.289 15.615 22.057 15.745 21.831 15.935C21.001 16.635 20.158 17.322 19.347 18.045C19.188 18.186 19.077 18.463 19.067 18.683C19.032 19.426 19.057 20.171 19.052 20.916C19.049 21.402 19.032 21.411 18.547 21.357C18.475 21.349 18.403 21.342 18.332 21.328C17.31 21.138 16.29 20.938 15.266 20.759C13.849 20.511 12.956 19.451 12.954 17.975C12.95 15.729 12.952 13.483 12.954 11.237C12.954 11.053 12.972 10.869 12.984 10.622ZM21.627 17.878C21.828 19.343 21.327 20.576 20.365 20.982C20.365 20.322 20.363 19.685 20.369 19.047C20.369 18.994 20.411 18.928 20.453 18.891C20.827 18.564 21.205 18.241 21.627 17.878ZM20.469 13.981C20.319 13.389 20.244 12.777 20.009 12.238C19.403 10.848 18.294 10.12 16.841 9.884C15.783 9.712 14.731 9.495 13.601 9.284C14.067 8.752 14.574 8.427 15.195 8.406C15.707 8.389 16.229 8.463 16.738 8.55C17.738 8.719 18.736 8.902 19.726 9.122C20.828 9.368 21.624 10.395 21.67 11.558C21.674 11.658 21.671 11.756 21.67 11.856C21.667 13.122 21.54 13.343 20.47 13.981H20.469ZM11.646 10.973V11.499C11.646 13.731 11.644 15.962 11.646 18.194C11.649 20.146 13.117 21.823 15.01 22.104C16.116 22.269 17.21 22.509 18.377 22.728C18.011 23.242 17.547 23.461 17.027 23.591C16.391 23.749 15.781 23.567 15.165 23.447C14.193 23.259 13.212 23.115 12.251 22.881C11.129 22.607 10.351 21.598 10.342 20.421C10.322 17.991 10.315 15.561 10.349 13.131C10.362 12.231 10.786 11.507 11.646 10.973Z" fill="black"/>
</g>
<defs>
<clipPath id="clip0_16_2460">
<rect width="32" height="32" fill="white"/>
</clipPath>
</defs>
</svg>
