<svg width="32" height="32" viewBox="0 0 32 32" fill="none" xmlns="http://www.w3.org/2000/svg">
<g clip-path="url(#clip0_16_2462)">
<path d="M16 32C7.163 32 0 24.837 0 16C0 7.163 7.163 0 16 0C24.837 0 32 7.163 32 16C32 24.837 24.837 32 16 32ZM9.51 11.744L15.886 8.076L22.246 11.752L15.886 15.429L9.511 11.744H9.51ZM22.486 11.614L25.743 9.714L15.886 4L6 9.714V21.143L15.886 26.857L25.743 21.143L22.248 19.105L15.886 22.781L9.496 19.105V15.809L15.896 19.505L22.314 15.79V19.105L25.771 21.143V9.714L22.486 11.614Z" fill="black"/>
</g>
<defs>
<clipPath id="clip0_16_2462">
<rect width="32" height="32" fill="white"/>
</clipPath>
</defs>
</svg>
