<svg width="32" height="32" viewBox="0 0 32 32" fill="none" xmlns="http://www.w3.org/2000/svg">
<g clip-path="url(#clip0_16_2466)">
<path d="M13.548 25.408C14.553 25.742 15.603 25.923 16.688 25.981C17.3963 26.0257 18.1073 25.9982 18.81 25.899C20.001 25.7296 21.1482 25.3323 22.189 24.729C22.459 24.572 22.711 24.387 22.966 24.218L19.894 21.18C19.861 21.205 19.821 21.239 19.778 21.265C19.474 21.449 19.185 21.667 18.862 21.807C17.968 22.195 17.032 22.279 16.084 22.131C15.2387 23.2233 14.3933 24.3157 13.548 25.408ZM12.582 25.032C12.5861 24.9808 12.5983 24.9305 12.618 24.883L14.063 21.393C13.6425 21.1265 13.2638 20.7993 12.939 20.422C12.4174 19.8249 12.0136 19.1344 11.749 18.387L11.637 18.401C11.196 18.459 10.891 17.983 11.139 17.623L11.447 17.176C11.3957 16.8436 11.366 16.5082 11.358 16.172C11.342 15.518 11.417 14.872 11.575 14.237C11.948 12.738 12.745 11.522 14.075 10.677C14.7998 10.2135 15.6267 9.93374 16.484 9.862C17.3413 8.61733 18.1987 7.37267 19.056 6.128C18.659 6.065 18.256 6.025 17.846 6.008C17.183 5.978 16.513 6.036 15.85 6.092C14.9721 6.17074 14.1091 6.36924 13.285 6.682C11.548 7.33 10.08 8.339 8.962 9.812C7.751 11.41 7.15 13.226 7.027 15.2C6.979 15.97 6.993 16.742 7.089 17.508C7.214 18.497 7.465 19.454 7.875 20.368C8.669 22.136 9.899 23.525 11.586 24.518C11.912 24.71 12.244 24.881 12.582 25.032ZM20.025 6.334C20.0458 6.42729 20.0388 6.52461 20.005 6.614L19.971 6.702L18.688 10.077C19.113 10.211 19.514 10.407 19.888 10.673C20.01 10.759 20.073 10.743 20.173 10.643C21.081 9.743 21.993 8.847 22.905 7.949C22.934 7.921 22.958 7.889 23 7.841L22.917 7.783C22.785 7.68 22.659 7.569 22.521 7.475C21.7591 6.95695 20.9153 6.5712 20.025 6.334ZM16 32C7.163 32 0 24.837 0 16C0 7.163 7.163 0 16 0C24.837 0 32 7.163 32 16C32 24.837 24.837 32 16 32ZM16.321 17.282L13.098 25.071L13.141 25.101L22.041 13.591L16.465 14.471L19.52 6.441L19.476 6.421L11.568 17.903L16.321 17.283V17.282Z" fill="black"/>
</g>
<defs>
<clipPath id="clip0_16_2466">
<rect width="32" height="32" fill="white"/>
</clipPath>
</defs>
</svg>
