<svg width="32" height="32" viewBox="0 0 32 32" fill="none" xmlns="http://www.w3.org/2000/svg">
<g clip-path="url(#clip0_16_2470)">
<path d="M24.668 18.863L18.034 22.522L15.242 18.793L7.169 23.045V23.985L15 19.862L17.792 23.59L25.156 19.528L25.301 20.798L26.921 18.162L25.966 18.173V18.148L25.918 18.174L23.608 18.201L24.667 18.864L24.668 18.863ZM16 32C7.163 32 0 24.837 0 16C0 7.163 7.163 0 16 0C24.837 0 32 7.163 32 16C32 24.837 24.837 32 16 32ZM14.556 17.958V8.644H11.496V19.569L14.556 17.958ZM23.209 18.439V8.644H20.149V20.139L23.209 18.439ZM18.883 20.843V9.893H15.822V17.997L18.226 21.207L18.883 20.843ZM10.229 20.236V11.312H7.169V21.848L10.229 20.236Z" fill="black"/>
<path opacity="0.5" d="M18.883 20.843L18.226 21.207L15.822 17.997V9.894H18.882V20.843H18.883ZM10.229 20.236L7.16901 21.848V11.312H10.229V20.236Z" fill="black"/>
</g>
<defs>
<clipPath id="clip0_16_2470">
<rect width="32" height="32" fill="white"/>
</clipPath>
</defs>
</svg>
