<svg width="32" height="32" viewBox="0 0 32 32" fill="none" xmlns="http://www.w3.org/2000/svg">
<g clip-path="url(#clip0_16_2473)">
<path fill-rule="evenodd" clip-rule="evenodd" d="M16 32C7.163 32 0 24.837 0 16C0 7.163 7.163 0 16 0C24.837 0 32 7.163 32 16C32 24.837 24.837 32 16 32ZM17.81 7.87C17.81 8.753 17.782 11.875 17.435 15.023C17.108 17.99 16.589 21.246 16.47 21.977C16.62 21.991 16.762 22.014 16.896 22.044C17.182 21.469 18.589 18.585 19.234 16.418C19.972 13.938 20.398 10.63 20.41 9.292L20.412 9.051C20.167 8.678 19.633 7.983 18.942 7.797C18.338 7.635 17.987 7.707 17.809 7.781L17.81 7.87ZM20.709 9.294C20.696 10.649 20.266 13.995 19.52 16.501C18.887 18.63 17.53 21.434 17.19 22.121C17.336 22.167 17.478 22.222 17.615 22.288C17.98 21.818 19.653 19.625 20.701 17.643C21.936 15.303 23.084 12.201 23.239 11.599L23.303 11.352C23.166 10.934 22.838 10.156 22.202 9.747C21.545 9.324 20.97 9.277 20.709 9.283V9.294ZM20.966 17.778C19.933 19.733 18.301 21.886 17.88 22.431C18.054 22.535 18.217 22.655 18.368 22.791C18.816 22.356 20.685 20.524 21.929 18.98C23.365 17.197 24.792 14.695 25.026 14.152L25.147 13.87C25.114 13.51 25.012 12.94 24.703 12.518C24.341 12.024 23.785 11.775 23.526 11.681C23.33 12.426 22.142 15.551 20.966 17.778ZM11.005 9.526C11.117 10.403 11.649 13.183 12.577 16.178C13.409 18.863 14.647 21.543 14.925 22.134C15.069 22.087 15.217 22.05 15.366 22.024C15.256 21.384 14.69 18.02 14.339 14.857C13.955 11.4 13.799 8.471 13.778 7.876L13.776 7.817C13.515 7.741 12.931 7.647 12.182 7.99C11.492 8.305 11.132 8.897 10.97 9.252L11.005 9.526ZM14.076 7.866C14.097 8.458 14.253 11.377 14.636 14.826C14.987 17.994 15.556 21.366 15.662 21.981C15.805 21.967 15.948 21.959 16.092 21.959L16.17 21.961C16.278 21.297 16.807 17.994 17.138 14.991C17.484 11.858 17.511 8.749 17.511 7.871V7.729C17.23 7.483 16.578 7 15.78 7C14.983 7 14.345 7.483 14.071 7.73L14.075 7.866H14.076ZM16.092 22.253C14.464 22.253 13.722 23.21 13.502 23.565C14.878 24.56 15.753 25 16.105 25C16.457 25 17.454 24.467 18.679 23.608C18.454 23.234 17.709 22.253 16.092 22.253ZM25.293 14.285C25.036 14.868 23.603 17.377 22.163 19.163C20.911 20.717 19.035 22.557 18.579 22.998C18.705 23.134 18.819 23.281 18.919 23.437C19.8956 22.733 20.8278 21.9692 21.71 21.15C24.062 18.961 25.935 16.797 25.997 15.706C26.0197 15.4276 25.9661 15.1482 25.8421 14.8978C25.7181 14.6475 25.5283 14.4357 25.293 14.285ZM6.82 14.073C7.357 15.414 8.38 17.003 9.862 18.795C11.0528 20.2327 12.3606 21.5692 13.772 22.791C13.872 22.701 13.979 22.617 14.091 22.541C13.673 22.053 12.181 20.233 10.808 17.6C9.27 14.65 8.686 12.61 8.436 11.738L8.399 11.608L8.397 11.602C8.053 11.693 7.185 11.977 6.844 12.597C6.6914 12.8828 6.61203 13.202 6.613 13.526C6.678 13.71 6.747 13.892 6.82 14.073ZM13.56 23.001C12.1419 21.7711 10.8275 20.4266 9.63 18.981C8.182 17.229 7.166 15.666 6.603 14.329C6.393 14.511 5.954 14.999 6.003 15.862C6.069 16.993 7.718 18.784 10.729 21.358C11.5485 22.0647 12.393 22.7418 13.261 23.388C13.3499 23.2508 13.4503 23.1213 13.561 23.001H13.56ZM8.687 11.527L8.724 11.657C8.972 12.521 9.55 14.542 11.074 17.466C12.468 20.139 13.982 21.96 14.347 22.382C14.444 22.329 14.543 22.281 14.645 22.238C14.345 21.6 13.12 18.934 12.292 16.264C11.358 13.251 10.822 10.448 10.71 9.563L10.705 9.529C10.2124 9.50503 9.72636 9.64965 9.327 9.939C8.862 10.278 8.672 10.826 8.595 11.192C8.619 11.284 8.648 11.394 8.687 11.527Z" fill="black"/>
</g>
<defs>
<clipPath id="clip0_16_2473">
<rect width="32" height="32" fill="white"/>
</clipPath>
</defs>
</svg>
