<svg width="32" height="32" viewBox="0 0 32 32" fill="none" xmlns="http://www.w3.org/2000/svg">
<g clip-path="url(#clip0_16_2479)">
<path fill-rule="evenodd" clip-rule="evenodd" d="M16 32C7.163 32 0 24.837 0 16C0 7.163 7.163 0 16 0C24.837 0 32 7.163 32 16C32 24.837 24.837 32 16 32ZM16.276 26C17.6265 26.0078 18.9649 25.746 20.213 25.23C21.907 24.54 23.324 23.487 24.432 22.044C25.5157 20.6529 26.2033 18.9948 26.422 17.245C26.666 15.327 26.333 13.509 25.515 11.773C24.921 10.513 24.067 9.435 23.011 8.513C21.584 7.269 19.921 6.501 18.054 6.163C16.6795 5.91336 15.2683 5.95081 13.909 6.273C12.407 6.61516 11.0009 7.2897 9.794 8.247C9.54 8.449 9.514 8.607 9.702 8.873C9.826 9.049 9.97 9.213 10.114 9.375C10.419 9.717 10.555 9.723 10.914 9.443C11.6366 8.87581 12.4488 8.43307 13.317 8.133C14.962 7.567 16.636 7.466 18.34 7.878C20.249 8.338 21.829 9.313 23.045 10.822C24.781 12.976 25.271 15.429 24.612 18.077C24.087 20.187 22.832 21.837 20.994 23.024C19.461 24.013 17.764 24.454 15.919 24.39C14.1816 24.3435 12.4994 23.7694 11.096 22.744C10.487 22.306 10.49 22.303 9.976 22.86L9.939 22.899C9.519 23.351 9.534 23.558 10.027 23.919C11.881 25.282 13.957 25.994 16.276 25.999V26ZM15.64 19.617C15.542 19.611 15.52 19.604 15.507 19.61C15.467 19.63 15.428 19.654 15.389 19.676C14.919 19.939 14.425 20.035 13.891 19.894C13.69 19.841 13.636 19.76 13.755 19.574C14.192 18.888 14.345 18.127 14.307 17.332C14.26 16.34 13.947 15.452 13.174 14.764C12.386 14.0463 11.3568 13.6515 10.291 13.658C9.828 13.655 9.364 13.686 8.9 13.703C8.705 13.71 8.632 13.633 8.689 13.441C8.764 13.182 8.834 12.921 8.9 12.661C8.94 12.505 9.027 12.445 9.192 12.444C9.929 12.44 10.666 12.43 11.403 12.413C12.113 12.396 12.765 12.196 13.335 11.766C13.817 11.403 14.077 10.936 14.039 10.33C14.035 10.256 14.003 10.158 13.949 10.123C13.914 10.099 13.803 10.151 13.749 10.196C13.295 10.57 12.779 10.828 12.193 10.858C11.404 10.898 10.611 10.889 9.821 10.87C9.294 10.858 8.77 10.779 8.243 10.75C7.885 10.73 7.64 10.889 7.546 11.196C7.116 12.596 6.694 13.997 6.277 15.401C6.219 15.595 6.067 15.814 6.294 15.998C6.513 16.174 6.717 16.01 6.904 15.924C8.172 15.339 9.461 15.294 10.779 15.744C12.281 16.256 12.678 17.641 12.063 18.897C11.927 19.175 11.846 19.181 11.574 19.019C11.1 18.736 10.636 18.43 10.14 18.189C9.054 17.663 7.919 17.449 6.726 17.799C6.08 17.989 5.453 18.567 5.503 19.414C5.532 19.9 5.773 20.246 6.115 20.539C6.569 20.929 7.102 21.158 7.697 21.284C9.505 21.668 11.221 21.522 12.815 20.522C12.932 20.4578 13.0635 20.4248 13.197 20.426C13.542 20.418 13.888 20.448 14.233 20.436C14.731 20.421 15.143 20.208 15.483 19.853C15.538 19.795 15.573 19.719 15.64 19.617ZM11.072 19.843C10.837 19.943 10.608 20.068 10.364 20.14C9.412 20.422 8.464 20.412 7.53 20.052C7.43605 20.0189 7.34719 19.9727 7.266 19.915C7.02 19.727 6.809 19.512 6.896 19.167C6.976 18.854 7.248 18.785 7.52 18.722C8.124 18.581 8.701 18.726 9.256 18.929C9.8 19.127 10.323 19.387 10.853 19.622C10.925 19.654 10.989 19.705 11.056 19.746L11.072 19.843Z" fill="black"/>
</g>
<defs>
<clipPath id="clip0_16_2479">
<rect width="32" height="32" fill="white"/>
</clipPath>
</defs>
</svg>
