<svg width="32" height="32" viewBox="0 0 32 32" fill="none" xmlns="http://www.w3.org/2000/svg">
<g clip-path="url(#clip0_16_2493)">
<path d="M16 0C24.837 0 32 7.163 32 16C32 24.837 24.837 32 16 32C7.163 32 0 24.837 0 16C0 7.163 7.163 0 16 0ZM8.466 16.207C8.37312 16.2057 8.28089 16.2227 8.1946 16.2571C8.1083 16.2915 8.02965 16.3426 7.96313 16.4074C7.89662 16.4722 7.84355 16.5496 7.80698 16.635C7.77041 16.7203 7.75104 16.8121 7.75 16.905V20.158C7.75 20.741 8.061 21.282 8.57 21.588L15.735 25.877C15.869 25.957 16.025 26 16.184 26C16.2953 26.0012 16.4057 25.9804 16.509 25.9388C16.6122 25.8971 16.7062 25.8355 16.7856 25.7575C16.8649 25.6794 16.9281 25.5865 16.9714 25.4839C17.0147 25.3814 17.0373 25.2713 17.038 25.16V21.79C17.038 21.292 16.768 20.833 16.328 20.583L8.826 16.302C8.71621 16.2398 8.59219 16.2071 8.466 16.207ZM11.896 11.035C11.803 11.0335 11.7107 11.0505 11.6243 11.0848C11.5379 11.1191 11.4591 11.1702 11.3925 11.235C11.3259 11.2999 11.2727 11.3773 11.2361 11.4627C11.1994 11.5482 11.18 11.64 11.179 11.733V16.02L17.769 19.877C18.201 20.13 18.464 20.587 18.464 21.077V24.876C18.4874 24.8698 18.5099 24.8608 18.531 24.849L20.173 23.945C20.2606 23.8975 20.3337 23.8274 20.3847 23.7418C20.4358 23.6563 20.4628 23.5586 20.463 23.459V16.619C20.4617 16.373 20.3955 16.1318 20.271 15.9196C20.1465 15.7075 19.9681 15.532 19.754 15.411L12.254 11.13C12.1448 11.0681 12.0215 11.0354 11.896 11.035ZM15.536 6.095C15.3723 6.00189 15.1788 5.97613 14.9965 6.02316C14.8141 6.0702 14.6572 6.18634 14.559 6.347C14.4968 6.45393 14.4637 6.57529 14.463 6.699V10.765L21.199 14.718C21.628 14.971 21.892 15.426 21.892 15.918V22.873L23.449 22.05C23.5387 22.0028 23.6139 21.9322 23.6669 21.8458C23.7199 21.7594 23.7486 21.6603 23.75 21.559V11.568C23.75 11.07 23.48 10.608 23.039 10.358L15.536 6.095Z" fill="black"/>
</g>
<defs>
<clipPath id="clip0_16_2493">
<rect width="32" height="32" fill="white"/>
</clipPath>
</defs>
</svg>
