<svg width="32" height="32" viewBox="0 0 32 32" fill="none" xmlns="http://www.w3.org/2000/svg">
<g clip-path="url(#clip0_16_2495)">
<path d="M16 32C7.163 32 0 24.837 0 16C0 7.163 7.163 0 16 0C24.837 0 32 7.163 32 16C32 24.837 24.837 32 16 32ZM25.82 14.715C26.197 14.697 26.57 14.624 27 14.569C26.913 13.949 26.868 13.351 26.74 12.772C26.207 10.355 24.944 8.398 22.96 6.922C21.299 5.689 19.422 5.059 17.356 5.011C16.493 4.991 15.63 5.004 14.766 5.007C13.9224 5.00947 13.0829 5.12311 12.269 5.345C10.2326 5.8975 8.42796 7.09061 7.12198 8.74793C5.816 10.4053 5.07797 12.4388 5.017 14.548C4.98845 15.6 4.99779 16.6527 5.045 17.704C5.067 18.257 5.143 18.817 5.269 19.356C5.832 21.785 7.138 23.731 9.161 25.182C10.842 26.387 12.731 26.974 14.796 26.996C15.541 27.004 16.286 26.996 17.031 26.998C17.7308 27.0064 18.4293 26.9377 19.114 26.793C22.169 26.118 24.427 24.387 25.891 21.622C26.484 20.502 26.805 19.295 26.927 18.034C26.945 17.84 26.948 17.644 26.96 17.414C26.28 17.351 25.62 17.264 24.957 17.237C24.3213 17.2132 23.6848 17.2218 23.05 17.263C22.487 17.298 21.926 17.389 21.365 17.463C21.2825 17.4758 21.2048 17.5103 21.14 17.563C20.031 18.468 18.944 19.401 17.977 20.463C17.585 20.893 17.209 21.335 17.046 21.921C16.886 22.491 16.429 22.809 15.833 22.809C15.5187 22.8079 15.215 22.6951 14.9763 22.4906C14.7376 22.2861 14.5794 22.0034 14.53 21.693C14.439 21.053 14.762 20.421 15.418 20.264C15.746 20.186 16.04 20.03 16.281 19.798C16.811 19.2888 17.3327 18.7711 17.846 18.245C18.09 17.995 18.308 17.718 18.534 17.45C18.722 17.227 18.64 17 18.356 16.954C18.254 16.938 18.15 16.933 18.047 16.926C17.29 16.879 16.533 16.812 15.776 16.794C15.1798 16.7872 14.5836 16.8059 13.989 16.85C13.619 16.873 13.26 16.96 12.931 17.15C12.8044 17.226 12.6667 17.282 12.523 17.316C12.031 17.419 11.483 17.141 11.205 16.665C11.0611 16.4145 11.0028 16.1239 11.0391 15.8373C11.0754 15.5507 11.2042 15.2837 11.406 15.077C11.74 14.735 12.34 14.497 12.919 14.845C13.094 14.949 13.294 15.037 13.492 15.071C13.923 15.143 14.36 15.211 14.795 15.215C15.574 15.223 16.353 15.192 17.131 15.16C17.544 15.143 17.956 15.1 18.367 15.052C18.632 15.022 18.72 14.782 18.547 14.575C17.943 13.85 17.321 13.14 16.627 12.499C16.24 12.141 15.831 11.825 15.3 11.697C15.1527 11.6554 15.0185 11.5769 14.91 11.469C14.297 10.877 14.422 9.844 15.15 9.4C15.844 8.977 16.78 9.258 17.004 9.989C17.17 10.531 17.466 10.977 17.832 11.39C18.836 12.52 19.981 13.498 21.146 14.453C21.2022 14.5009 21.2702 14.5327 21.343 14.545C22.047 14.627 22.75 14.745 23.456 14.77C24.243 14.798 25.033 14.752 25.82 14.715Z" fill="black"/>
</g>
<defs>
<clipPath id="clip0_16_2495">
<rect width="32" height="32" fill="white"/>
</clipPath>
</defs>
</svg>
