<svg width="32" height="32" viewBox="0 0 32 32" fill="none" xmlns="http://www.w3.org/2000/svg">
<g clip-path="url(#clip0_16_2503)">
<path fill-rule="evenodd" clip-rule="evenodd" d="M16 32C7.163 32 0 24.837 0 16C0 7.163 7.163 0 16 0C24.837 0 32 7.163 32 16C32 24.837 24.837 32 16 32ZM24.833 15.346C24.769 15.467 24.742 15.526 24.708 15.582C24.314 16.229 23.916 16.873 23.525 17.522C22.795 18.734 22.067 19.948 21.34 21.162C21.258 21.298 21.17 21.369 21.007 21.284C19.861 20.696 18.616 20.512 17.367 20.372C16.0325 20.2226 14.683 20.2775 13.365 20.535C12.892 20.626 12.89 20.615 13.099 21.062C13.289 21.472 13.36 21.506 13.761 21.437C16.319 20.997 18.797 21.218 21.163 22.38C21.521 22.555 21.598 22.53 21.805 22.183L26.834 13.73C26.882 13.65 26.924 13.565 27 13.422C26.889 13.466 26.847 13.478 26.81 13.497C25.66 14.067 24.49 14.573 23.222 14.785C22.325 14.935 21.432 14.985 20.555 14.651C19.661 14.311 18.985 13.671 18.352 12.969L17.913 12.487L17.588 13.014C17.461 13.22 17.501 13.4 17.668 13.558C18.012 13.886 18.346 14.228 18.706 14.536C19.597 15.298 20.606 15.771 21.783 15.816C22.663 15.849 23.513 15.674 24.359 15.453C24.494 15.417 24.632 15.391 24.833 15.346ZM7.179 15.467L7.224 15.411C7.614 15.489 8.005 15.571 8.397 15.644C9.254 15.803 10.112 15.844 10.967 15.639C12.054 15.379 12.98 14.806 13.807 14.048C14.73 13.2 15.429 12.166 16.123 11.122C16.434 10.654 16.521 10.252 16.153 9.801C16.085 9.718 16.032 9.624 15.949 9.5C15.877 9.628 15.836 9.7 15.796 9.774C15.166 10.906 14.473 11.992 13.618 12.96C13.084 13.563 12.491 14.092 11.771 14.451C10.614 15.028 9.415 14.993 8.201 14.691C7.255 14.457 6.361 14.073 5.479 13.66C5.334 13.592 5.186 13.53 5.039 13.466L5 13.52C5.045 13.606 5.085 13.696 5.134 13.78C5.481 14.365 5.83 14.949 6.178 15.534C7.466 17.7 8.753 19.867 10.044 22.032C10.409 22.642 10.334 22.572 10.932 22.297C11.209 22.17 11.21 22.162 11.049 21.897C9.929 20.036 8.806 18.176 7.685 16.316C7.515 16.034 7.347 15.751 7.179 15.468V15.467Z" fill="black"/>
</g>
<defs>
<clipPath id="clip0_16_2503">
<rect width="32" height="32" fill="white"/>
</clipPath>
</defs>
</svg>
