<svg width="32" height="32" viewBox="0 0 32 32" fill="none" xmlns="http://www.w3.org/2000/svg">
<g clip-path="url(#clip0_16_2507)">
<path d="M16 32C7.163 32 0 24.837 0 16C0 7.163 7.163 0 16 0C24.837 0 32 7.163 32 16C32 24.837 24.837 32 16 32ZM16 27C22.075 27 27 22.075 27 16C27 9.925 22.075 5 16 5C9.925 5 5 9.925 5 16C5 22.075 9.925 27 16 27ZM16 25.454C13.4926 25.454 11.088 24.458 9.31501 22.685C7.54204 20.912 6.546 18.5074 6.546 16C6.546 13.4926 7.54204 11.088 9.31501 9.31501C11.088 7.54204 13.4926 6.546 16 6.546C18.5074 6.546 20.912 7.54204 22.685 9.31501C24.458 11.088 25.454 13.4926 25.454 16C25.454 18.5074 24.458 20.912 22.685 22.685C20.912 24.458 18.5074 25.454 16 25.454ZM16.072 22.541C18.86 22.541 20.462 21.337 21.649 19.701L19.022 17.833C18.267 18.749 17.493 19.36 16.18 19.36C14.417 19.36 13.176 17.887 13.176 16V15.964C13.176 14.131 14.417 12.64 16.18 12.64C17.385 12.64 18.213 13.215 18.932 14.113L21.559 12.083C20.443 10.538 18.789 9.459 16.216 9.459C12.403 9.459 9.578 12.334 9.578 16V16.036C9.578 19.791 12.475 22.541 16.072 22.541Z" fill="black"/>
</g>
<defs>
<clipPath id="clip0_16_2507">
<rect width="32" height="32" fill="white"/>
</clipPath>
</defs>
</svg>
