<svg width="32" height="32" viewBox="0 0 32 32" fill="none" xmlns="http://www.w3.org/2000/svg">
<g clip-path="url(#clip0_16_2523)">
<path fill-rule="evenodd" clip-rule="evenodd" d="M16 32C7.163 32 0 24.837 0 16C0 7.163 7.163 0 16 0C24.837 0 32 7.163 32 16C32 24.837 24.837 32 16 32ZM13.785 16.928C13.943 16.762 13.943 16.648 13.775 16.49C13.45 16.182 13.122 15.876 12.797 15.568L11.289 14.137C11.159 14.013 11.026 13.891 10.895 13.768C10.821 13.698 10.738 13.666 10.632 13.692C10.5433 13.7185 10.4515 13.733 10.359 13.735C10.217 13.731 10.143 13.805 10.076 13.913C9.521 14.803 8.963 15.692 8.406 16.581C8.134 17.017 7.86 17.453 7.589 17.891C7.47 18.084 7.552 18.246 7.779 18.276L8.912 18.424C9.409 18.488 9.905 18.554 10.402 18.614C10.643 18.643 10.717 18.709 10.746 18.946C10.768 19.127 10.792 19.308 10.82 19.488C10.838 19.605 10.937 19.686 11.067 19.707C11.127 19.667 11.199 19.635 11.249 19.583C11.547 19.275 11.839 18.962 12.134 18.653L13.784 16.928H13.785ZM24.875 19.247C24.477 18.911 24.072 18.583 23.682 18.239C23.519 18.095 23.357 18.036 23.146 18.103C23.0775 18.1251 23.0053 18.1335 22.9336 18.1277C22.8619 18.1218 22.792 18.1019 22.728 18.069C22.552 17.979 22.403 18.009 22.243 18.113C21.485 18.603 20.723 19.086 19.963 19.571L18.605 20.439C18.493 20.511 18.41 20.6 18.406 20.741L18.372 21.936C18.3629 22.0076 18.3704 22.0804 18.3938 22.1487C18.4172 22.217 18.4559 22.279 18.507 22.33C18.755 22.615 19.001 22.903 19.247 23.19L19.84 23.874C19.8928 23.9416 19.97 23.9858 20.055 23.997C20.29 24.024 20.464 23.877 20.461 23.642C20.459 23.437 20.446 23.232 20.438 23.028C20.4354 22.9745 20.4453 22.9211 20.467 22.8722C20.4887 22.8232 20.5216 22.78 20.563 22.746C20.6097 22.7062 20.6592 22.6698 20.711 22.637L22.354 21.572C23.204 21.021 24.054 20.468 24.904 19.918C25.048 19.825 25.116 19.701 25.091 19.532C25.071 19.399 24.969 19.325 24.876 19.247H24.875ZM17.577 20.239C17.175 19.834 16.767 19.436 16.362 19.034L14.563 17.244C14.525 17.2074 14.48 17.179 14.4306 17.1605C14.3812 17.142 14.3286 17.1338 14.2759 17.1364C14.2233 17.139 14.1717 17.1524 14.1244 17.1757C14.0771 17.1991 14.0351 17.2318 14.001 17.272C13.551 17.747 13.1 18.221 12.649 18.694C12.231 19.131 11.815 19.569 11.394 20.003C11.207 20.194 11.21 20.433 11.406 20.611C11.756 20.931 12.095 21.264 12.439 21.591C12.499 21.649 12.564 21.704 12.626 21.761C12.6576 21.7921 12.6951 21.8166 12.7363 21.8329C12.7776 21.8493 12.8217 21.8571 12.866 21.856H13.062C13.328 21.842 13.616 21.824 13.905 21.813C14.394 21.793 14.883 21.78 15.372 21.757C15.493 21.752 15.626 21.747 15.732 21.697C16.322 21.425 16.906 21.14 17.492 20.857C17.667 20.773 17.742 20.646 17.704 20.46C17.6828 20.376 17.6389 20.2996 17.577 20.239ZM20.055 12.19C20.146 12.33 20.231 12.476 20.318 12.62C21.088 13.887 21.861 15.153 22.626 16.423C22.6664 16.4917 22.723 16.5495 22.7907 16.5913C22.8585 16.6332 22.9355 16.6579 23.015 16.6634C23.0945 16.6688 23.1741 16.6547 23.2469 16.6224C23.3198 16.5901 23.3836 16.5406 23.433 16.478C23.956 15.773 24.486 15.072 25.01 14.368C25.1037 14.2559 25.1579 14.116 25.164 13.97L25.186 13.96C25.149 13.875 25.124 13.782 25.074 13.705C24.702 13.133 24.325 12.563 23.949 11.993C23.771 11.723 23.594 11.45 23.414 11.181C23.31 11.025 23.16 10.938 22.971 10.971C22.114 11.121 21.259 11.284 20.401 11.427C20.08 11.48 19.861 11.892 20.055 12.19ZM18.55 15.722L18.702 14.398L18.832 13.268L18.932 12.388C18.922 12.37 18.905 12.309 18.871 12.298C18.83 12.284 18.772 12.308 18.725 12.324C18.702 12.332 18.685 12.359 18.667 12.379L18.011 13.069C17.565 13.537 17.121 14.006 16.674 14.474L14.716 16.523C14.579 16.666 14.58 16.708 14.722 16.84C15.15 17.24 15.577 17.64 16.002 18.043C16.492 18.505 16.981 18.97 17.47 19.433C17.606 19.563 17.741 19.693 17.883 19.816C17.915 19.843 17.979 19.863 18.015 19.849C18.051 19.835 18.084 19.779 18.093 19.737C18.112 19.649 18.113 19.557 18.123 19.466L18.271 18.165C18.313 17.795 18.358 17.426 18.4 17.057L18.55 15.722ZM22.356 16.742C22.182 16.459 22.012 16.174 21.84 15.89L19.885 12.674C19.832 12.586 19.782 12.495 19.721 12.413C19.698 12.383 19.641 12.354 19.606 12.36C19.573 12.366 19.544 12.415 19.518 12.448C19.508 12.462 19.508 12.484 19.504 12.503L19.405 13.213L19.143 15.119L18.873 17.07L18.626 18.852L18.516 19.66C18.526 19.691 18.53 19.756 18.562 19.802C18.619 19.886 18.726 19.892 18.83 19.825C19.093 19.659 19.355 19.492 19.617 19.324C20.451 18.79 21.284 18.255 22.121 17.724C22.228 17.657 22.28 17.58 22.268 17.454C22.2512 17.3128 22.2837 17.17 22.36 17.05C22.43 16.943 22.42 16.845 22.356 16.741V16.742ZM18.303 11.838L17.578 11.965L14.608 12.486L12.093 12.926C11.831 12.971 11.569 13.016 11.308 13.063C11.165 13.088 11.093 13.159 11.083 13.284C11.076 13.376 11.126 13.441 11.189 13.501C11.661 13.944 12.133 14.387 12.603 14.831C13.087 15.288 13.57 15.748 14.053 16.206C14.208 16.354 14.329 16.354 14.478 16.198C14.893 15.764 15.305 15.327 15.719 14.892L17.701 12.818L18.381 12.103C18.431 12.05 18.475 11.988 18.426 11.922C18.394 11.879 18.334 11.858 18.303 11.838ZM11.564 12.47C11.524 12.498 11.491 12.536 11.454 12.569L11.476 12.61C11.513 12.61 11.55 12.616 11.586 12.61L14.156 12.148L16.51 11.725C17.173 11.606 17.836 11.485 18.5 11.367C18.59 11.351 18.64 11.307 18.673 11.223C18.7101 11.1357 18.7564 11.0525 18.811 10.975C18.853 10.913 18.875 10.855 18.841 10.785L18.722 10.525C18.413 9.859 18.104 9.192 17.793 8.526C17.718 8.364 17.623 8.343 17.473 8.445L12.963 11.517C12.496 11.834 12.03 12.151 11.564 12.47ZM6.874 13.996C6.931 13.983 6.988 13.976 7.042 13.957C7.843 13.672 8.644 13.384 9.446 13.102C9.50667 13.0843 9.56162 13.051 9.60533 13.0054C9.64904 12.9597 9.67997 12.9034 9.695 12.842C9.72506 12.7181 9.78879 12.6049 9.87914 12.5149C9.96949 12.4249 10.083 12.3616 10.207 12.332C10.2736 12.3162 10.3354 12.2848 10.3876 12.2405C10.4397 12.1962 10.4806 12.1401 10.507 12.077C10.783 11.504 11.065 10.933 11.343 10.361C11.495 10.049 11.647 9.738 11.794 9.424C11.8265 9.36279 11.8405 9.2935 11.8345 9.22447C11.8285 9.15545 11.8026 9.08964 11.76 9.035C11.7215 8.97908 11.6674 8.93565 11.6045 8.91006C11.5416 8.88447 11.4726 8.87785 11.406 8.891C11.3349 8.90603 11.267 8.93309 11.205 8.971C10.229 9.533 9.255 10.097 8.279 10.658C8.17511 10.7156 8.08872 10.8003 8.029 10.903C7.663 11.532 7.293 12.159 6.925 12.788C6.797 13.005 6.665 13.219 6.546 13.441C6.405 13.704 6.58 13.991 6.875 13.996H6.874ZM11.027 12.17C11.023 12.245 11.09 12.287 11.16 12.257C11.191 12.243 11.22 12.222 11.248 12.203L12.428 11.399L16.122 8.886L16.74 8.465C16.82 8.411 16.882 8.347 16.875 8.25C16.875 8.091 16.763 7.993 16.601 8C16.374 8.011 16.147 8.027 15.921 8.036L13.991 8.109C13.664 8.122 13.337 8.139 13.01 8.149C12.886 8.154 12.813 8.209 12.763 8.319C12.548 8.798 12.327 9.275 12.109 9.753C11.759 10.519 11.409 11.284 11.061 12.05C11.0425 12.0876 11.031 12.1283 11.027 12.17ZM9.664 13.82C9.696 13.77 9.735 13.717 9.688 13.654C9.636 13.584 9.573 13.612 9.51 13.631L9.245 13.713L7.23 14.353C6.874 14.466 6.518 14.579 6.162 14.694C6.043 14.733 6.002 14.787 6 14.914C6.006 14.937 6.017 14.985 6.033 15.032L6.703 16.914C6.779 17.129 6.854 17.344 6.935 17.558C6.985 17.692 7.125 17.745 7.231 17.668C7.27192 17.6343 7.30617 17.5933 7.332 17.547L9.172 14.607C9.336 14.344 9.501 14.083 9.664 13.82ZM25.782 16.429C25.705 15.991 25.627 15.554 25.551 15.116C25.529 14.987 25.461 14.896 25.329 14.866C25.203 14.839 25.104 14.889 25.029 14.992L24.804 15.295C24.435 15.792 24.068 16.29 23.698 16.785C23.618 16.894 23.597 17.003 23.659 17.126C23.724 17.254 23.729 17.392 23.705 17.528C23.681 17.664 23.725 17.763 23.827 17.848C24.28 18.227 24.733 18.606 25.184 18.987C25.404 19.172 25.622 19.108 25.698 18.833L25.963 17.877C25.979 17.818 25.989 17.758 26 17.709C25.994 17.66 25.99 17.622 25.984 17.585L25.782 16.429ZM18.218 8.485L18.763 9.667C18.906 9.974 19.051 10.28 19.193 10.587C19.227 10.663 19.273 10.717 19.363 10.72C19.61 10.73 19.803 10.84 19.96 11.023C19.988 11.055 20.032 11.072 20.055 11.087L20.135 11.071C20.941 10.926 21.748 10.78 22.555 10.636C22.629 10.623 22.692 10.606 22.706 10.522C22.72 10.438 22.666 10.399 22.6 10.366L22.003 10.066L18.641 8.386C18.558 8.346 18.479 8.296 18.391 8.268C18.3349 8.25076 18.2744 8.25467 18.221 8.279C18.161 8.313 18.171 8.383 18.199 8.443L18.218 8.485Z" fill="black"/>
</g>
<defs>
<clipPath id="clip0_16_2523">
<rect width="32" height="32" fill="white"/>
</clipPath>
</defs>
</svg>
