<svg width="32" height="32" viewBox="0 0 32 32" fill="none" xmlns="http://www.w3.org/2000/svg">
<g clip-path="url(#clip0_16_2525)">
<path fill-rule="evenodd" clip-rule="evenodd" d="M4.77401 27.4C3.25991 25.9129 2.05777 24.1387 1.23802 22.1812C0.418268 20.2236 -0.00261976 18.1222 1.22686e-05 16C1.22686e-05 7.163 7.16301 0 16 0C24.837 0 32 7.163 32 16C32 20.61 30.05 24.763 26.932 27.683C26.3539 26.7653 25.7805 25.8447 25.212 24.921C22.324 20.197 20.144 15.157 18.595 9.844C17.745 6.927 16.951 3.994 16.131 1.068C16.0919 0.900098 16.013 0.744051 15.901 0.613C15.773 1.017 15.634 1.417 15.518 1.823C14.211 6.384 12.84 10.926 11.127 15.351C9.54301 19.443 7.11901 23.679 4.77401 27.401V27.4ZM21.147 32H13.517L10.371 31.188C12.1592 26.1463 13.9492 21.1053 15.741 16.065L15.895 16.068C17.6551 21.3755 19.4058 26.6862 21.147 32Z" fill="black"/>
</g>
<defs>
<clipPath id="clip0_16_2525">
<rect width="32" height="32" fill="white"/>
</clipPath>
</defs>
</svg>
