<svg width="32" height="32" viewBox="0 0 32 32" fill="none" xmlns="http://www.w3.org/2000/svg">
<g clip-path="url(#clip0_16_2529)">
<path d="M16 32C7.163 32 0 24.837 0 16C0 7.163 7.163 0 16 0C24.837 0 32 7.163 32 16C32 24.837 24.837 32 16 32ZM13.707 19.86C13.7045 20.5024 13.7135 21.1449 13.734 21.787L19.317 18.497C22.127 16.841 24.217 15.604 24.807 15.249C20.5778 12.6408 16.3421 10.0431 12.1 7.456L11.339 7L10.23 7.75C9.774 8.06 9.393 8.32 9.197 8.456C9.324 8.538 9.532 8.666 9.799 8.826C9.907 8.89 20.579 15.374 20.608 15.499C20.638 15.602 20.638 15.602 18.915 16.656C17.174 17.7163 15.438 18.7846 13.707 19.861V19.86ZM11.339 13.564V19.776C11.341 22.887 11.346 25.273 11.35 25.972C12.937 25.072 24.324 18.555 24.739 18.309L24.809 18.269L25 15.585L24.42 15.927C13.59 22.316 13.578 22.32 13.55 22.329L13.489 22.351L13.435 22.314C13.355 22.257 13.355 22.257 13.289 16.68L13.267 14.75L12.237 14.112C11.9397 13.9261 11.6403 13.7434 11.339 13.564ZM9 24.8L10.037 25.441C10.423 25.681 10.752 25.884 10.945 26.001C10.947 25.261 10.95 22.723 10.952 19.669L10.957 12.901L11.608 13.28C11.858 13.426 13.096 14.182 14.368 14.968C15.634 15.751 16.904 16.526 17.199 16.7L17.671 16.975L20.035 15.529L19.32 15.099C18.832 14.807 16.538 13.409 14.206 11.981C12.6118 11.0019 11.0142 10.0286 9.413 9.061L9.025 8.833L9 24.8Z" fill="black"/>
</g>
<defs>
<clipPath id="clip0_16_2529">
<rect width="32" height="32" fill="white"/>
</clipPath>
</defs>
</svg>
