<svg width="32" height="32" viewBox="0 0 32 32" fill="none" xmlns="http://www.w3.org/2000/svg">
<g clip-path="url(#clip0_16_2531)">
<path fill-rule="evenodd" clip-rule="evenodd" d="M16 32C7.163 32 0 24.837 0 16C0 7.163 7.163 0 16 0C24.837 0 32 7.163 32 16C32 24.837 24.837 32 16 32ZM24.884 18.507L20.463 16L24.884 13.493C25.1365 13.3525 25.3584 13.1629 25.5367 12.9354C25.7149 12.7079 25.846 12.4471 25.9221 12.1684C25.9982 11.8896 26.0178 11.5984 25.9799 11.3119C25.9419 11.0254 25.8471 10.7494 25.701 10.5C25.085 9.452 23.72 9.093 22.653 9.698L18.231 12.205V7.19C18.231 5.981 17.232 5 16 5C14.768 5 13.769 5.981 13.769 7.191V12.205L9.347 9.698C8.28 9.093 6.915 9.452 6.3 10.5C6.15391 10.7494 6.05911 11.0254 6.02115 11.3119C5.98319 11.5984 6.00283 11.8896 6.07894 12.1684C6.15504 12.4471 6.28607 12.7079 6.46432 12.9354C6.64258 13.1629 6.86448 13.3525 7.117 13.493L11.537 16L7.117 18.507C6.8644 18.6475 6.6424 18.837 6.46405 19.0644C6.28569 19.2918 6.15456 19.5526 6.07836 19.8314C6.00216 20.1102 5.98243 20.4014 6.02032 20.688C6.05821 20.9745 6.15295 21.2506 6.299 21.5C6.915 22.548 8.28 22.907 9.347 22.302L13.769 19.795V24.809C13.769 26.019 14.768 27 16 27C17.232 27 18.231 26.019 18.231 24.809V19.795L22.653 22.302C23.72 22.907 25.085 22.548 25.701 21.5C25.8471 21.2506 25.9419 20.9746 25.9799 20.6881C26.0178 20.4016 25.9982 20.1104 25.9221 19.8316C25.846 19.5529 25.7149 19.2921 25.5367 19.0646C25.3584 18.8371 25.1365 18.6475 24.884 18.507ZM25.082 21.149C24.8764 21.4926 24.5444 21.7421 24.1572 21.8441C23.77 21.9461 23.3583 21.8926 23.01 21.695L18.231 18.985V17.265L19.749 16.405L24.527 19.114C25.253 19.525 25.501 20.437 25.082 21.149ZM17.517 24.809C17.517 25.632 16.838 26.299 16 26.299C15.162 26.299 14.483 25.632 14.483 24.809V19.39L16 18.53L17.517 19.39V24.809ZM8.99 21.695C8.64174 21.8926 8.22998 21.9461 7.84277 21.8441C7.45556 21.7421 7.12364 21.4926 6.918 21.149C6.81873 20.9795 6.75431 20.7918 6.7285 20.5971C6.7027 20.4023 6.71603 20.2044 6.76772 20.0148C6.81942 19.8253 6.90842 19.648 7.02953 19.4933C7.15064 19.3386 7.30141 19.2097 7.473 19.114L12.251 16.404L13.769 17.265V18.985L8.99 21.695ZM7.473 12.886C7.30141 12.7903 7.15064 12.6614 7.02953 12.5067C6.90842 12.352 6.81942 12.1747 6.76772 11.9852C6.71603 11.7956 6.7027 11.5977 6.7285 11.4029C6.75431 11.2082 6.81873 11.0205 6.918 10.851C7.12364 10.5074 7.45556 10.2579 7.84277 10.1559C8.22998 10.0539 8.64174 10.1074 8.99 10.305L13.769 13.015V14.735L12.251 15.595L7.473 12.886ZM14.483 7.191C14.483 6.368 15.163 5.701 16 5.701C16.838 5.701 17.517 6.368 17.517 7.191V12.609L16 13.47L14.483 12.61V7.191ZM18.231 15.545L19.035 16L18.231 16.455V15.545ZM16.714 13.875L17.517 13.419V14.33L16.714 13.875ZM14.483 14.33V13.42L15.286 13.875L14.483 14.33ZM13.769 16.455L12.965 16L13.769 15.545V16.455ZM15.286 18.125L14.483 18.581V17.67L15.286 18.125ZM17.517 17.67V18.58L16.714 18.125L17.517 17.67ZM16 17.72L14.483 16.86V15.14L16 14.28L17.517 15.14V16.86L16 17.72ZM23.01 10.305C23.3583 10.1074 23.77 10.0539 24.1572 10.1559C24.5444 10.2579 24.8764 10.5074 25.082 10.851C25.502 11.563 25.252 12.475 24.527 12.886L19.749 15.596L18.231 14.735V13.015L23.01 10.305Z" fill="black"/>
</g>
<defs>
<clipPath id="clip0_16_2531">
<rect width="32" height="32" fill="white"/>
</clipPath>
</defs>
</svg>
