<svg width="32" height="32" viewBox="0 0 32 32" fill="none" xmlns="http://www.w3.org/2000/svg">
<g clip-path="url(#clip0_16_2541)">
<path d="M16 32C7.163 32 0 24.837 0 16C0 7.163 7.163 0 16 0C24.837 0 32 7.163 32 16C32 24.837 24.837 32 16 32ZM25.075 19.1C24.248 19.054 24.708 17.738 24.34 16.237C23.903 14.575 24.547 13.42 25.397 13.467C25.797 13.529 26.175 13.687 26.5 13.928C26.3525 13.2053 26.0888 12.5113 25.719 11.873C24.96 10.603 23.306 8.756 21.238 7.302V21.224C21.3259 21.4133 21.3702 21.6199 21.3679 21.8286C21.3655 22.0373 21.3164 22.2428 21.2242 22.43C21.1321 22.6173 20.9991 22.7815 20.8352 22.9107C20.6713 23.0398 20.4805 23.1307 20.2769 23.1765C20.0733 23.2223 19.862 23.222 19.6585 23.1755C19.4551 23.129 19.2646 23.0375 19.1011 22.9078C18.9376 22.7781 18.8052 22.6135 18.7137 22.4259C18.6221 22.2384 18.5737 22.0327 18.572 21.824C17.4742 22.5079 16.1684 22.7779 14.8894 22.5855C13.6104 22.393 12.4419 21.7507 11.594 20.774C10.7427 19.7945 10.2653 18.5456 10.2463 17.248C10.2273 15.9505 10.6678 14.688 11.49 13.684C12.3085 12.6824 13.4574 12.0056 14.7302 11.7752C16.0031 11.5448 17.3163 11.7759 18.434 12.427V7.025C18.427 6.604 18.614 6.203 18.94 5.94C16.251 4.693 13.241 4.439 10.667 6.725C6.347 10.58 4.187 15.96 6.347 21.316C6.393 21.432 6.439 21.547 6.485 21.639C6.548 21.509 6.634 21.393 6.738 21.293C7.864 20.139 9.105 22.493 11.748 23.856C13.425 24.71 14.39 25.841 14.758 26.903C17.216 27.203 19.744 26.811 21.766 25.633C24.409 24.11 25.949 21.339 26.5 18.523C26.1036 18.8705 25.6015 19.0738 25.075 19.1ZM14.712 19.192C16.045 19.954 17.653 19.654 17.952 17.945C18.112 16.953 18.021 15.405 17.148 14.921C14.252 13.259 11.816 17.53 14.712 19.192ZM16.068 8.156C16.688 8.133 17.262 8.872 17.285 9.218C17.308 9.565 16.757 9.426 16.159 9.634C15.493 9.864 15.01 9.657 14.988 9.311C14.965 8.964 15.424 8.179 16.068 8.156Z" fill="black"/>
</g>
<defs>
<clipPath id="clip0_16_2541">
<rect width="32" height="32" fill="white"/>
</clipPath>
</defs>
</svg>
