<svg width="32" height="32" viewBox="0 0 32 32" fill="none" xmlns="http://www.w3.org/2000/svg">
<g clip-path="url(#clip0_16_2547)">
<path d="M16 0C24.837 0 32 7.163 32 16C32 24.837 24.837 32 16 32C7.163 32 0 24.837 0 16C0 7.163 7.163 0 16 0ZM15.417 23.003C15.292 23.609 15.667 24.215 16.29 24.34C16.4352 24.3714 16.5853 24.3737 16.7314 24.3467C16.8775 24.3196 17.0168 24.2638 17.1412 24.1825C17.2656 24.1012 17.3726 23.996 17.456 23.873C17.5394 23.75 17.5975 23.6117 17.627 23.466C17.751 22.843 17.377 22.254 16.753 22.13C16.6079 22.0987 16.458 22.0965 16.3121 22.1236C16.1661 22.1506 16.027 22.2063 15.9027 22.2875C15.7784 22.3687 15.6715 22.4738 15.5882 22.5966C15.5048 22.7194 15.4466 22.8575 15.417 23.003ZM16.272 6.625C12.565 6.625 9.536 9.637 9.536 13.361C9.536 14.11 9.66 14.841 9.892 15.553C9.97412 15.7881 10.1453 15.9815 10.3686 16.0916C10.5919 16.2018 10.8495 16.2199 11.086 16.142C11.3209 16.0597 11.5141 15.8885 11.624 15.6652C11.734 15.4419 11.7519 15.1844 11.674 14.948C11.4785 14.3929 11.3879 13.8062 11.407 13.218C11.478 10.706 13.51 8.638 16.023 8.514C16.6813 8.47941 17.3397 8.57909 17.9582 8.80698C18.5767 9.03487 19.1424 9.38619 19.6209 9.83959C20.0994 10.293 20.4806 10.839 20.7414 11.4444C21.0022 12.0497 21.1371 12.7018 21.138 13.361C21.1365 14.6007 20.6616 15.7929 19.8103 16.6941C18.9589 17.5952 17.7956 18.1371 16.558 18.209C16.558 18.209 15.613 18.262 15.15 18.334C14.918 18.369 14.74 18.405 14.615 18.423C14.561 18.441 14.508 18.387 14.525 18.333L14.686 17.55L15.559 13.522C15.6099 13.2812 15.5636 13.03 15.4303 12.823C15.297 12.6161 15.0873 12.4702 14.847 12.417C14.606 12.3661 14.3547 12.4125 14.1477 12.5461C13.9408 12.6796 13.795 12.8895 13.742 13.13C13.742 13.13 11.639 22.932 11.621 23.039C11.5701 23.28 11.6165 23.5313 11.7501 23.7383C11.8836 23.9452 12.0935 24.091 12.334 24.144C12.575 24.1949 12.8263 24.1485 13.0333 24.0149C13.2402 23.8814 13.386 23.6715 13.439 23.431C13.456 23.324 13.742 22.023 13.742 22.023C13.8432 21.546 14.0893 21.1119 14.4465 20.7801C14.8038 20.4482 15.2549 20.2348 15.738 20.169C16.0875 20.1307 16.438 20.101 16.789 20.08C18.481 19.9481 20.0611 19.1832 21.214 17.9378C22.3669 16.6924 23.0078 15.0581 23.009 13.361C23.009 9.637 19.979 6.625 16.272 6.625Z" fill="black"/>
</g>
<defs>
<clipPath id="clip0_16_2547">
<rect width="32" height="32" fill="white"/>
</clipPath>
</defs>
</svg>
