<svg width="32" height="32" viewBox="0 0 32 32" fill="none" xmlns="http://www.w3.org/2000/svg">
<g clip-path="url(#clip0_16_2552)">
<path d="M16 32C7.163 32 0 24.837 0 16C0 7.163 7.163 0 16 0C24.837 0 32 7.163 32 16C32 24.837 24.837 32 16 32ZM23.134 17.467C22.583 15.04 20.87 12.364 20.87 12.364C22.844 17.751 22.084 21.814 21.561 24.119C21.561 24.119 20.871 26.697 22.356 24.549C24.208 21.861 23.134 17.467 23.134 17.467ZM18.258 7.91C19.285 11.568 19.75 14.673 19.895 17.262C20.15 21.674 19.477 24.577 19.059 26.11C18.925 26.609 19.483 26.98 19.808 26.603L19.814 26.597C20.626 25.668 21.01 23.492 21.19 21.582L21.242 20.955C21.41 18.655 21.312 16.334 20.772 14.11C19.779 10.006 18.258 7.91 18.258 7.91ZM16.418 14.354C16.168 8.346 15.715 3.011 15.715 3.011C15.715 3.011 15.257 8.079 15.007 13.953C14.967 14.906 14.931 15.875 14.902 16.85C14.862 18.267 14.844 19.69 14.844 21.065C14.85 23.509 14.944 25.802 15.164 27.631C15.251 28.356 16.191 28.356 16.278 27.631C16.429 26.383 16.516 24.85 16.551 23.166C16.5835 21.3454 16.5758 19.5243 16.528 17.704C16.498 16.589 16.464 15.463 16.418 14.354ZM9.399 21.594C9.26225 20.4613 9.23112 19.3184 9.306 18.18C9.364 17.286 9.492 16.328 9.713 15.306C9.916 14.371 10.194 13.39 10.572 12.357C10.572 12.357 9.364 14.244 8.656 16.281C8.516 16.671 8.401 17.071 8.313 17.46C8.313 17.46 8.087 18.482 8.053 19.846C8.029 20.792 8.104 21.912 8.406 22.969C8.55864 23.5223 8.7875 24.0517 9.086 24.542C9.086 24.542 10.572 26.754 9.881 24.112C9.66603 23.2836 9.50502 22.4422 9.399 21.593V21.594ZM11.518 20.409C11.4695 19.2129 11.4889 18.0149 11.576 16.821C11.6363 15.9395 11.7294 15.0606 11.855 14.186C12.115 12.305 12.54 10.221 13.185 7.91C13.185 7.91 11.657 10.006 10.665 14.11C10.612 14.33 10.565 14.551 10.519 14.766C10.339 15.66 10.223 16.566 10.165 17.483C10.095 18.633 10.113 19.793 10.195 20.949L10.247 21.582C10.427 23.492 10.804 25.668 11.622 26.597L11.628 26.603C11.953 26.975 12.516 26.603 12.378 26.11C12.075 24.978 11.628 23.097 11.518 20.409ZM14.055 20.635C14.0222 19.3039 14.0162 17.9723 14.037 16.641C14.049 15.765 14.072 14.841 14.113 13.872C14.212 11.37 14.682 7.753 15.007 4.688C15.007 4.688 13.405 8.003 12.673 13.983C12.575 14.801 12.482 15.683 12.412 16.636L12.36 17.344C12.36 17.344 12.273 18.609 12.307 20.316C12.354 22.51 12.597 25.436 13.503 27.352C13.533 27.41 13.567 27.462 13.613 27.502L13.619 27.509C13.962 27.834 14.49 27.526 14.444 27.021C14.231 24.8982 14.1009 22.7679 14.054 20.635H14.055ZM17.375 20.635C17.3 23.747 17.103 25.924 16.987 27.021C16.94 27.526 17.468 27.834 17.811 27.509L17.817 27.503C17.8631 27.4603 17.9005 27.409 17.927 27.352C18.833 25.436 19.077 22.51 19.123 20.316C19.158 18.609 19.071 17.344 19.071 17.344L19.018 16.636C18.9523 15.7497 18.8656 14.8652 18.758 13.983C18.026 8.003 16.423 4.688 16.423 4.688C16.749 7.753 17.219 11.37 17.317 13.872C17.358 14.842 17.381 15.765 17.393 16.642C17.4138 17.973 17.4078 19.3043 17.375 20.635Z" fill="black"/>
</g>
<defs>
<clipPath id="clip0_16_2552">
<rect width="32" height="32" fill="white"/>
</clipPath>
</defs>
</svg>
