<svg width="32" height="32" viewBox="0 0 32 32" fill="none" xmlns="http://www.w3.org/2000/svg">
<g clip-path="url(#clip0_16_2554)">
<path fill-rule="evenodd" clip-rule="evenodd" d="M24.963 14.512L24.943 12.563L13.791 6L11.078 7.674L11.072 7.671L8 9.484V22.506L10.811 24.307H10.812L10.831 24.32V24.318L13.823 26L25 19.479L24.983 14.511L24.963 14.512ZM21.688 17.624L13.834 22.242L11.542 20.879L19.349 16.285L21.688 17.624ZM18.822 15.984L13.985 18.907L14.006 13.226L18.822 15.984ZM14.008 12.618L14.018 9.929L21.75 14.444V17.149L14.008 12.618ZM10.82 23.57L8.486 22.175V9.896L10.832 11.297V20.869L10.85 20.859L10.82 23.57ZM11.236 20.569V11.296L13.581 9.895V19.151L11.236 20.569ZM16 32C7.163 32 0 24.837 0 16C0 7.163 7.163 0 16 0C24.837 0 32 7.163 32 16C32 24.837 24.837 32 16 32ZM14.116 22.601L24.536 16.481L24.506 19.301L14.069 25.437L14.116 22.601ZM21.909 14.017L11.477 7.917L13.883 6.527L24.338 12.631L21.909 14.017Z" fill="black"/>
</g>
<defs>
<clipPath id="clip0_16_2554">
<rect width="32" height="32" fill="white"/>
</clipPath>
</defs>
</svg>
