<svg width="32" height="32" viewBox="0 0 32 32" fill="none" xmlns="http://www.w3.org/2000/svg">
<g clip-path="url(#clip0_16_2556)">
<path d="M16 32C7.163 32 0 24.837 0 16C0 7.163 7.163 0 16 0C24.837 0 32 7.163 32 16C32 24.837 24.837 32 16 32ZM16.084 4C10.614 4.004 6.18 8.436 6.174 13.905C6.179 14.439 6.239 14.971 6.352 15.493C6.35776 15.5177 6.36952 15.5406 6.38625 15.5597C6.40298 15.5787 6.42416 15.5933 6.44791 15.6022C6.47165 15.6111 6.49723 15.6141 6.52237 15.6107C6.5475 15.6073 6.57142 15.5978 6.592 15.583C6.97059 15.3119 7.42436 15.1658 7.89 15.165C7.9125 15.1658 7.93489 15.1615 7.95554 15.1525C7.9762 15.1436 7.9946 15.1302 8.00944 15.1132C8.02427 15.0963 8.03515 15.0763 8.0413 15.0546C8.04745 15.033 8.04872 15.0102 8.045 14.988C7.97915 14.6344 7.94501 14.2757 7.943 13.916C7.943 11.7571 8.8006 9.6867 10.3272 8.16015C11.8537 6.6336 13.9241 5.776 16.083 5.776C18.2419 5.776 20.3123 6.6336 21.8389 8.16015C23.3654 9.6867 24.223 11.7571 24.223 13.916C24.223 18.406 18.479 24.141 16.423 26.166C16.3325 26.2548 16.2108 26.3046 16.084 26.3046C15.9572 26.3046 15.8355 26.2548 15.745 26.166C14.8749 25.3165 14.0305 24.4411 13.213 23.541H13.171C12.3848 23.4636 11.6129 23.2785 10.877 22.991L10.741 22.936C10.7096 22.922 10.6743 22.919 10.6409 22.9276C10.6076 22.9363 10.5782 22.956 10.5575 22.9835C10.5368 23.011 10.5261 23.0448 10.5271 23.0792C10.5281 23.1136 10.5407 23.1467 10.563 23.173C11.8356 24.6941 13.1861 26.1484 14.609 27.53C15.0029 27.9141 15.5313 28.1292 16.0815 28.1292C16.6317 28.1292 17.1601 27.9141 17.554 27.53C21.174 23.954 25.994 18.664 25.994 13.905C25.988 8.435 21.554 4.004 16.084 4ZM20.204 14.907V14.502C20.1968 14.2451 20.1663 13.9894 20.113 13.738C20.06 13.4848 19.9864 13.2363 19.893 12.995C19.7957 12.7533 19.6804 12.5193 19.548 12.295C19.0054 11.3839 18.2036 10.6552 17.245 10.202C16.785 9.98203 16.2883 9.8488 15.78 9.809H13.637C13.5582 9.81948 13.4847 9.85463 13.427 9.90941C13.3693 9.96419 13.3305 10.0358 13.316 10.114V10.148C13.3156 10.154 13.3156 10.16 13.316 10.166V16.657C13.323 16.849 13.317 17.041 13.298 17.232C13.266 17.46 13.207 17.682 13.12 17.895C12.9338 18.3614 12.5993 18.7536 12.168 19.011C11.968 19.13 11.754 19.221 11.53 19.284C11.2822 19.3527 11.027 19.3916 10.77 19.4C11.565 19.975 12.5 20.33 13.477 20.427C14.5025 20.5175 15.5344 20.3519 16.48 19.945C17.4349 19.5414 18.2887 18.9315 18.98 18.159L18.97 18.15C19.32 17.757 19.607 17.313 19.823 16.834C20.023 16.352 20.144 15.84 20.18 15.32C20.1943 15.1828 20.2024 15.045 20.204 14.907ZM21.968 14.441C21.9571 14.0809 21.914 13.7224 21.839 13.37C21.6903 12.673 21.4282 12.0051 21.063 11.393C20.3392 10.1757 19.2675 9.20293 17.986 8.6C17.3312 8.28909 16.6248 8.1013 15.902 8.046C15.811 8.046 15.723 8.046 15.623 8.036H13.625C13.561 8.036 13.495 8.036 13.43 8.05C13.169 8.08 12.915 8.16 12.682 8.284C12.3617 8.45515 12.0901 8.70489 11.8928 9.00978C11.6955 9.31467 11.5789 9.66469 11.554 10.027V16.657C11.554 16.773 11.546 16.889 11.53 17.004C11.52 17.082 11.501 17.158 11.473 17.232C11.4511 17.2871 11.4207 17.3383 11.383 17.384C11.2908 17.483 11.1709 17.552 11.039 17.582C10.842 17.632 10.639 17.648 10.436 17.629C9.71191 17.5581 9.03058 17.2534 8.495 16.761C8.34118 16.6187 8.14182 16.5357 7.93248 16.5268C7.72314 16.5178 7.51742 16.5835 7.35203 16.7122C7.18663 16.8408 7.07231 17.024 7.02945 17.2291C6.98658 17.4342 7.01797 17.6479 7.118 17.832C7.74196 18.9717 8.59847 19.9676 9.632 20.755C10.165 21.1527 10.7489 21.4772 11.368 21.72C11.9894 21.9625 12.6412 22.1186 13.305 22.184C14.6228 22.306 15.9503 22.0985 17.168 21.58C18.3809 21.0784 19.4564 20.2943 20.305 19.293L20.316 19.302C20.7842 18.7726 21.1686 18.1747 21.456 17.529C21.7284 16.8715 21.8922 16.1741 21.941 15.464C21.955 15.286 21.964 15.125 21.97 14.955V14.704C21.977 14.63 21.971 14.529 21.97 14.441H21.968Z" fill="black"/>
</g>
<defs>
<clipPath id="clip0_16_2556">
<rect width="32" height="32" fill="white"/>
</clipPath>
</defs>
</svg>
