<svg width="32" height="32" viewBox="0 0 32 32" fill="none" xmlns="http://www.w3.org/2000/svg">
<g clip-path="url(#clip0_16_2592)">
<path d="M16 0C24.837 0 32 7.163 32 16C32 24.837 24.837 32 16 32C7.163 32 0 24.837 0 16C0 7.163 7.163 0 16 0ZM15.657 5.108L15.573 5.178L5.179 15.568C5.07824 15.6684 5.01593 15.801 5.00296 15.9426C4.98998 16.0843 5.02716 16.226 5.108 16.343L5.178 16.428L15.568 26.821C15.6685 26.922 15.8012 26.9845 15.9431 26.9975C16.085 27.0104 16.2269 26.9731 16.344 26.892L16.428 26.822L26.818 16.432C26.8753 16.3757 26.921 16.3087 26.9522 16.2346C26.9835 16.1606 26.9998 16.0812 27.0002 16.0008C27.0005 15.9205 26.985 15.8409 26.9544 15.7666C26.9238 15.6923 26.8788 15.6248 26.822 15.568L16.432 5.178C16.3315 5.07739 16.1988 5.01527 16.0572 5.00248C15.9156 4.98968 15.7739 5.02703 15.657 5.108ZM16.044 7.436L16.084 7.463L24.538 15.916C24.5553 15.9325 24.5672 15.9538 24.5721 15.9773C24.5769 16.0007 24.5744 16.025 24.565 16.047L24.538 16.088L16.922 23.704V16H15.074V23.704L7.458 16.088C7.44101 16.0713 7.42936 16.0499 7.42456 16.0266C7.41975 16.0033 7.42199 15.979 7.431 15.957L7.458 15.917L15.912 7.463C15.9288 7.44581 15.9503 7.43404 15.9739 7.42923C15.9974 7.42441 16.0218 7.42677 16.044 7.436Z" fill="black"/>
</g>
<defs>
<clipPath id="clip0_16_2592">
<rect width="32" height="32" fill="white"/>
</clipPath>
</defs>
</svg>
