<svg width="32" height="32" viewBox="0 0 32 32" fill="none" xmlns="http://www.w3.org/2000/svg">
<g clip-path="url(#clip0_16_2596)">
<path d="M16 32C7.163 32 0 24.837 0 16C0 7.163 7.163 0 16 0C24.837 0 32 7.163 32 16C32 24.837 24.837 32 16 32ZM6 22.998H19.095L20.988 19.159H7.894L6 23V22.998ZM8.51 17.908H21.606L23.494 14.08H10.4L8.512 17.908H8.51ZM11.017 12.828H24.11L26 9H12.905L11.017 12.829V12.828Z" fill="black"/>
<path d="M7.894 19.16H16.675L14.781 22.998H6L7.894 19.159V19.16ZM8.511 17.908L10.4 14.08H19.18L17.292 17.908H8.51H8.511ZM11.017 12.828L12.905 9H21.686L19.797 12.829H11.017V12.828Z" fill="black" fill-opacity="0.4"/>
<path d="M7.894 19.161H12.291L10.398 23H6L7.894 19.161ZM10.399 14.081H14.797L12.91 17.91H8.51L10.4 14.08L10.399 14.081ZM12.905 9.001H17.303L15.414 12.831H11.017L12.905 9V9.001Z" fill="black" fill-opacity="0.4"/>
</g>
<defs>
<clipPath id="clip0_16_2596">
<rect width="32" height="32" fill="white"/>
</clipPath>
</defs>
</svg>
