<svg width="32" height="32" viewBox="0 0 32 32" fill="none" xmlns="http://www.w3.org/2000/svg">
<g clip-path="url(#clip0_16_2600)">
<path fill-rule="evenodd" clip-rule="evenodd" d="M16 32C7.163 32 0 24.837 0 16C0 7.163 7.163 0 16 0C24.837 0 32 7.163 32 16C32 24.837 24.837 32 16 32ZM25.149 10.295C25.1274 10.2828 25.1061 10.2701 25.085 10.257L25.083 10.256L25.081 10.255L22.414 8.703L20.719 7.716L18.983 6.706C18.053 6.166 17.093 5.606 16.146 5.057L16.05 5L15.947 5.04C15.8555 5.07452 15.7669 5.11632 15.682 5.165L15.672 5.171L11.702 7.526L9.964 8.556C8.915 9.178 7.83 9.821 6.77 10.454C6.51 10.579 6.517 10.856 6.52 10.99L6.521 11.022V11.082C6.517 13.514 6.514 16.029 6.508 18.505L6.5 21.257C6.486 21.461 6.58 21.64 6.738 21.717C8.63 22.805 10.55 23.913 12.406 24.984L15.748 26.912C15.829 26.9663 15.9236 26.9968 16.021 27C16.0983 27.0003 16.1736 26.975 16.235 26.928L21.08 24.1L22.9 23.038C23.654 22.597 24.435 22.14 25.2 21.695C25.29 21.655 25.3654 21.5882 25.4158 21.5037C25.4663 21.4192 25.4894 21.3212 25.482 21.223L25.497 10.806C25.523 10.496 25.262 10.356 25.148 10.296L25.149 10.295ZM16.38 25.965L16.386 21.522L18.03 20.567C18.485 20.301 18.95 20.031 19.4 19.77L20.644 19.046L20.645 19.045L20.671 19.028C20.743 18.9888 20.8058 18.9346 20.855 18.869L20.9 18.807V18.731C20.892 17.781 20.89 16.725 20.893 15.406L20.894 14.794V13.63L24.744 11.378L24.738 15.243L24.729 21.092C22.9327 22.1385 21.137 23.1862 19.342 24.235L16.38 25.965ZM12.184 13.41L16.006 11.166L19.789 13.398L16.012 15.606L14.708 14.857C13.8673 14.3736 13.0259 13.8913 12.184 13.41ZM11.794 14.06L15.639 16.265L15.633 20.645L11.865 18.449L11.794 14.06ZM7.274 11.466L11.034 13.626L11.116 18.584C11.106 18.779 11.202 18.957 11.357 19.03C11.892 19.343 12.437 19.66 12.964 19.966L13.992 20.565L15.632 21.52L15.629 25.97L7.255 21.14L7.274 11.466ZM24.368 10.72L20.538 12.958L16.263 10.437C16.1901 10.3858 16.1036 10.3575 16.0145 10.3557C15.9255 10.354 15.8379 10.3788 15.763 10.427L11.43 12.97L7.65 10.806L10.276 9.249C12.036 8.204 13.913 7.092 16.012 5.852C17.902 6.958 19.732 8.022 21.276 8.918C21.816 9.234 22.366 9.554 22.898 9.863L24.367 10.719L24.368 10.72ZM16.386 20.647L16.389 16.265L20.178 14.051V18.443C18.9132 19.1762 17.6492 19.9109 16.386 20.647ZM21.513 19.854C21.5797 19.8381 21.6417 19.8064 21.6936 19.7614C21.7454 19.7165 21.7857 19.6598 21.811 19.596C21.8479 19.5134 21.8601 19.4219 21.8463 19.3325C21.8325 19.2431 21.7931 19.1596 21.733 19.092L21.732 19.09C21.6908 19.0427 21.6402 19.0047 21.5833 18.9783C21.5264 18.952 21.4647 18.9379 21.402 18.937C21.2966 18.9384 21.1951 18.9769 21.1152 19.0456C21.0353 19.1143 20.9821 19.209 20.965 19.313C20.9487 19.3929 20.9537 19.4756 20.9793 19.5529C21.0049 19.6303 21.0503 19.6996 21.111 19.754C21.1483 19.7918 21.1929 19.8216 21.2421 19.8417C21.2912 19.8618 21.3439 19.8718 21.397 19.871C21.4363 19.8712 21.4754 19.8654 21.513 19.854ZM23.577 21.262C23.6362 21.3142 23.7094 21.348 23.7875 21.3594C23.8656 21.3708 23.9454 21.3592 24.017 21.326C24.091 21.295 24.1555 21.2451 24.204 21.1811C24.2525 21.1172 24.2832 21.0416 24.293 20.962C24.3069 20.8745 24.2953 20.7848 24.2595 20.7037C24.2236 20.6226 24.1651 20.5536 24.091 20.505C24.0198 20.4551 23.935 20.4283 23.848 20.428C23.7695 20.4282 23.6927 20.4511 23.627 20.494C23.5617 20.5343 23.5074 20.5901 23.4687 20.6563C23.43 20.7226 23.4081 20.7973 23.405 20.874C23.3995 20.9478 23.4124 21.0219 23.4424 21.0896C23.4724 21.1572 23.5186 21.2165 23.577 21.262ZM10.388 18.942C10.2836 18.9441 10.183 18.9819 10.103 19.049C10.023 19.1161 9.96827 19.2085 9.948 19.311C9.9331 19.3764 9.93281 19.4443 9.94716 19.5098C9.96151 19.5754 9.99015 19.6369 10.031 19.6901C10.0719 19.7433 10.124 19.7869 10.1836 19.8176C10.2433 19.8483 10.309 19.8656 10.376 19.868C10.41 19.868 10.446 19.863 10.478 19.855C10.5475 19.8399 10.6123 19.8084 10.6669 19.7629C10.7216 19.7175 10.7645 19.6595 10.792 19.594C10.8286 19.5128 10.8408 19.4226 10.8271 19.3346C10.8134 19.2465 10.7745 19.1643 10.715 19.098C10.6753 19.0496 10.6254 19.0106 10.5689 18.9836C10.5124 18.9566 10.4506 18.9424 10.388 18.942ZM22.344 20.518C22.4038 20.5663 22.4753 20.5982 22.5512 20.6105C22.6271 20.6228 22.705 20.615 22.777 20.588C22.8489 20.5621 22.9127 20.5178 22.9622 20.4595C23.0117 20.4013 23.045 20.3311 23.059 20.256C23.0789 20.1756 23.0765 20.0913 23.052 20.0122C23.0275 19.933 22.9818 19.8621 22.92 19.807C22.8392 19.7297 22.7318 19.6864 22.62 19.686C22.513 19.6899 22.4107 19.731 22.3308 19.8021C22.2508 19.8733 22.1982 19.9702 22.182 20.076C22.1678 20.1574 22.1752 20.2411 22.2037 20.3187C22.2321 20.3963 22.2805 20.4651 22.344 20.518ZM9.439 19.795C9.36245 19.725 9.26271 19.6858 9.159 19.685C9.10604 19.6852 9.05366 19.6961 9.005 19.717C8.9243 19.7474 8.85411 19.8005 8.80284 19.8699C8.75158 19.9392 8.72142 20.0219 8.716 20.108C8.7 20.293 8.786 20.468 8.933 20.554C8.99948 20.5961 9.07632 20.6189 9.155 20.62C9.22077 20.6192 9.28558 20.6042 9.345 20.576H9.346C9.41301 20.5462 9.47142 20.4999 9.51582 20.4416C9.56022 20.3832 9.58917 20.3145 9.6 20.242C9.61583 20.1599 9.60923 20.0751 9.5809 19.9964C9.55256 19.9177 9.50354 19.8482 9.439 19.795ZM15.949 6.167C15.9242 6.16716 15.8994 6.1695 15.875 6.174C15.7993 6.18425 15.7275 6.21333 15.666 6.25859C15.6045 6.30384 15.5553 6.36381 15.523 6.433V6.435C15.4889 6.50467 15.4733 6.58197 15.4779 6.65942C15.4824 6.73686 15.5069 6.81182 15.549 6.877C15.5989 6.95458 15.671 7.0154 15.7558 7.05159C15.8407 7.08778 15.9345 7.09768 16.025 7.08H16.027L16.03 7.079C16.118 7.06659 16.2001 7.0277 16.2655 6.96751C16.3309 6.90732 16.3764 6.82867 16.396 6.742C16.4159 6.66871 16.4166 6.59151 16.3978 6.51791C16.379 6.44431 16.3416 6.37682 16.289 6.322C16.2465 6.27362 16.1942 6.23479 16.1356 6.20808C16.077 6.18136 16.0134 6.16736 15.949 6.167ZM8.15 20.49C8.08482 20.4507 8.01013 20.4299 7.934 20.4299C7.85787 20.4299 7.78318 20.4507 7.718 20.49C7.64651 20.5316 7.58741 20.5915 7.5468 20.6636C7.5062 20.7357 7.48555 20.8173 7.487 20.9C7.487 21.074 7.579 21.233 7.723 21.308C7.783 21.343 7.853 21.362 7.927 21.362C8.01374 21.3612 8.09843 21.3355 8.171 21.288C8.23927 21.2449 8.29482 21.1844 8.33191 21.1127C8.36899 21.0409 8.38629 20.9606 8.382 20.88C8.38177 20.8002 8.36012 20.7219 8.31931 20.6533C8.2785 20.5847 8.22003 20.5283 8.15 20.49ZM16.19 9.205C16.1128 9.15506 16.0229 9.12834 15.931 9.128C15.8517 9.12774 15.7737 9.14843 15.705 9.188C15.638 9.22359 15.5813 9.2759 15.5405 9.33985C15.4997 9.40381 15.4761 9.47723 15.472 9.553C15.4648 9.62921 15.4773 9.706 15.5085 9.77591C15.5397 9.84582 15.5884 9.90648 15.65 9.952C15.73 10.015 15.827 10.048 15.934 10.048C16.0024 10.0474 16.0698 10.0324 16.132 10.004H16.133C16.2092 9.9723 16.2751 9.91993 16.3232 9.85278C16.3712 9.78564 16.3996 9.7064 16.405 9.624C16.4106 9.54107 16.3936 9.45817 16.3557 9.38418C16.3179 9.31019 16.2606 9.24791 16.19 9.204V9.205ZM15.62 8.447C15.705 8.527 15.812 8.569 15.93 8.569C15.999 8.56861 16.0672 8.55362 16.13 8.525C16.2109 8.491 16.28 8.43405 16.3289 8.36119C16.3778 8.28832 16.4042 8.20273 16.405 8.115C16.4075 8.03163 16.3868 7.94921 16.3451 7.87697C16.3034 7.80473 16.2424 7.74553 16.169 7.706C16.0973 7.66671 16.0168 7.64607 15.935 7.646C15.8483 7.64521 15.7634 7.67028 15.691 7.718C15.6298 7.75567 15.5782 7.8071 15.5404 7.86821C15.5025 7.92932 15.4795 7.99841 15.473 8.07V8.073C15.4663 8.1426 15.4763 8.21279 15.502 8.27781C15.5277 8.34283 15.5685 8.40081 15.621 8.447H15.62Z" fill="black"/>
</g>
<defs>
<clipPath id="clip0_16_2600">
<rect width="32" height="32" fill="white"/>
</clipPath>
</defs>
</svg>
