<svg width="32" height="32" viewBox="0 0 32 32" fill="none" xmlns="http://www.w3.org/2000/svg">
<g clip-path="url(#clip0_16_2604)">
<path d="M16 32C7.163 32 0 24.837 0 16C0 7.163 7.163 0 16 0C24.837 0 32 7.163 32 16C32 24.837 24.837 32 16 32ZM14.737 4.502C14.629 4.517 14.212 4.595 13.811 4.656C11.573 5.034 9.506 6.13 7.793 7.85C6.073 9.563 5.023 11.546 4.583 13.907C4.383 14.98 4.383 17.078 4.583 18.151C5.023 20.511 6.073 22.494 7.793 24.207C9.506 25.927 11.488 26.977 13.849 27.417C14.922 27.617 17.02 27.617 18.093 27.417C20.453 26.977 22.437 25.927 24.15 24.207C25.87 22.494 26.92 20.512 27.36 18.151C27.56 17.078 27.56 14.98 27.36 13.907C26.92 11.547 25.87 9.563 24.15 7.85C22.475 6.168 20.585 5.142 18.294 4.68C17.584 4.533 15.223 4.417 14.737 4.502ZM18.857 8.592C18.949 8.63 18.98 8.745 18.98 9.054V9.471H18.494C17.877 9.471 17.391 9.702 17.19 10.088C17.059 10.335 17.051 10.636 17.051 14.293C17.051 16.453 17.021 18.266 16.99 18.32C16.828 18.567 15.64 18.637 15.107 18.428L14.891 18.343V14.355C14.891 10.635 14.883 10.335 14.752 10.088C14.552 9.702 14.065 9.471 13.448 9.471H12.962V9.054C12.962 8.792 13.001 8.622 13.062 8.599C13.202 8.537 18.71 8.537 18.857 8.591V8.592ZM14.428 11.808V12.758L14.204 12.888C13.873 13.082 13.317 13.66 13.094 14.038C12.9585 14.2858 12.8495 14.5473 12.769 14.818L12.646 15.258H11.759C10.748 15.258 10.779 15.296 10.995 14.448C11.265 13.421 11.921 12.379 12.715 11.747C13.155 11.392 14.127 10.859 14.32 10.859C14.405 10.859 14.428 11.06 14.428 11.809V11.808ZM18.255 11.13C18.9142 11.4592 19.4955 11.9254 19.9599 12.4975C20.4244 13.0695 20.7613 13.7342 20.948 14.447C21.164 15.296 21.195 15.257 20.184 15.257H19.297L19.173 14.817C19.0927 14.5467 18.9841 14.2855 18.849 14.038C18.625 13.66 18.069 13.082 17.738 12.888L17.514 12.758V11.808C17.514 11.06 17.537 10.859 17.622 10.859C17.676 10.859 17.962 10.983 18.255 11.129V11.13ZM12.654 15.983C12.654 16.345 12.893 17.086 13.14 17.472C14.459 19.562 17.483 19.562 18.803 17.472C19.05 17.086 19.289 16.345 19.289 15.982V15.72H21.133L21.094 16.121C20.901 17.996 19.867 19.509 18.247 20.311C17.499 20.681 16.843 20.836 15.971 20.836C13.271 20.836 11.134 18.868 10.848 16.121L10.81 15.721H12.654V15.983ZM17.09 21.561C17.19 22.101 17.746 22.433 18.579 22.433H18.98V23.281H12.962V22.455L13.525 22.417C13.888 22.394 14.181 22.325 14.343 22.232C14.583 22.093 14.891 21.63 14.891 21.414C14.891 21.337 15.138 21.314 15.963 21.314H17.043L17.09 21.561Z" fill="black"/>
</g>
<defs>
<clipPath id="clip0_16_2604">
<rect width="32" height="32" fill="white"/>
</clipPath>
</defs>
</svg>
