<svg width="32" height="32" viewBox="0 0 32 32" fill="none" xmlns="http://www.w3.org/2000/svg">
<g clip-path="url(#clip0_16_2606)">
<path d="M15.81 27.675C15.91 27.728 16.043 27.754 16.123 27.754C16.2746 27.7469 16.4192 27.6884 16.533 27.588C17.402 27.04 21.493 24.461 23.631 23.2C24.061 22.954 24.185 22.708 24.061 22.277C23.3381 18.8935 22.6204 15.5088 21.908 12.123L21.9 12.143C21.894 11.987 21.817 11.848 21.662 11.631C21.662 11.631 18.277 6.708 16.8 4.554C16.492 4.184 16.308 4 16.123 4C15.938 4 15.693 4.185 15.446 4.554C13.969 6.646 10.585 11.631 10.585 11.631C10.445 11.827 10.368 11.959 10.35 12.097L10.338 12.062C10.338 12.062 8.862 19.138 8.123 22.277C8 22.707 8.123 22.954 8.553 23.2C10.953 24.615 15.815 27.692 15.815 27.692L15.81 27.675ZM10.768 13.419C11.405 15.189 13.115 19.96 13.908 22.339C14.246 23.269 14.963 25.392 15.378 26.629L10.954 23.939C10.338 23.569 9.662 23.2 9.046 22.769C8.8 22.585 8.8 22.4 8.8 22.277C9.415 19.386 10.092 16.249 10.768 13.419ZM16.901 26.571C17.3929 25.1644 17.8719 23.7533 18.338 22.338C19.117 20.053 20.779 15.383 21.442 13.526C22.11 16.328 22.777 19.422 23.385 22.276C23.385 22.4 23.385 22.585 23.138 22.769C22.523 23.2 21.846 23.569 21.231 23.939C19.889 24.755 18.271 25.737 16.901 26.571ZM20.551 12.492C19.953 14.252 17.37 21.852 16.123 25.538C14.5981 21.1923 13.0818 16.8436 11.574 12.492H20.551ZM11.656 11.815C12.406 10.718 14.966 6.972 16.062 5.354C17.5273 7.50971 18.9957 9.66338 20.467 11.815H11.657H11.656ZM16 32C7.163 32 0 24.837 0 16C0 7.163 7.163 0 16 0C24.837 0 32 7.163 32 16C32 24.837 24.837 32 16 32Z" fill="black"/>
</g>
<defs>
<clipPath id="clip0_16_2606">
<rect width="32" height="32" fill="white"/>
</clipPath>
</defs>
</svg>
