<svg width="32" height="32" viewBox="0 0 32 32" fill="none" xmlns="http://www.w3.org/2000/svg">
<g clip-path="url(#clip0_16_2614)">
<path d="M16 32C7.163 32 0 24.837 0 16C0 7.163 7.163 0 16 0C24.837 0 32 7.163 32 16C32 24.837 24.837 32 16 32ZM16.72 10.078C19.813 9.472 19.985 11.549 19.985 11.549C20.157 13.886 18.18 13.973 18.18 13.973L17.598 14.013C16.688 14.04 15.926 14.713 15.78 15.617C15.7366 15.8863 15.7509 16.1617 15.8221 16.425C15.8933 16.6882 16.0198 16.9333 16.193 17.144C16.543 17.569 17.059 17.821 17.607 17.834L18.18 17.867C22.306 17.607 23.51 14.232 23.51 14.232C25.229 9.992 21.876 7.395 21.876 7.395C19.371 5.428 16.486 5.902 14.516 6.639C12.845 7.26967 11.3696 8.32919 10.238 9.711C5.444 15.523 9.843 21.848 9.843 21.848C12.089 24.892 15.55 26.158 18.129 25.984C18.6367 25.9441 19.1104 25.7133 19.4548 25.3381C19.7991 24.9629 19.9886 24.4712 19.985 23.962C19.985 23.424 19.773 22.908 19.395 22.528C19.2086 22.3399 18.9868 22.1906 18.7424 22.0887C18.498 21.9867 18.2358 21.9342 17.971 21.934H17.713C17.3374 21.9345 16.9633 21.8864 16.6 21.791C11.354 20.405 11.992 15.271 11.992 15.271C12.593 10.684 16.719 10.078 16.719 10.078H16.72Z" fill="black"/>
</g>
<defs>
<clipPath id="clip0_16_2614">
<rect width="32" height="32" fill="white"/>
</clipPath>
</defs>
</svg>
