<svg width="32" height="32" viewBox="0 0 32 32" fill="none" xmlns="http://www.w3.org/2000/svg">
<g clip-path="url(#clip0_16_2629)">
<path d="M16.035 14.286C16.6103 14.2784 17.1594 14.0445 17.5634 13.635C17.9675 13.2255 18.194 12.6733 18.194 12.098C18.1928 11.8173 18.2612 11.5406 18.3932 11.2928C18.5251 11.045 18.7164 10.8337 18.95 10.678C19.1503 10.5422 19.3773 10.4507 19.6157 10.4094C19.8542 10.3681 20.0987 10.3781 20.333 10.4386C20.5673 10.4992 20.7861 10.6089 20.9747 10.7605C21.1633 10.9121 21.3175 11.1022 21.427 11.318C21.655 11.769 21.675 12.297 21.48 12.763C21.3825 12.9919 21.2367 13.197 21.0525 13.3642C20.8683 13.5315 20.6502 13.6569 20.413 13.732C20.2478 13.783 20.0759 13.8086 19.903 13.808C19.6041 13.8081 19.3084 13.8694 19.0341 13.9882C18.7598 14.107 18.5128 14.2807 18.3082 14.4987C18.1037 14.7166 17.946 14.9742 17.8448 15.2554C17.7436 15.5367 17.7011 15.8357 17.72 16.134C17.7531 16.6908 17.9977 17.2139 18.4036 17.5964C18.8095 17.9789 19.3462 18.192 19.904 18.192C20.1846 18.1906 20.4612 18.259 20.7089 18.3909C20.9566 18.5229 21.1676 18.7143 21.323 18.948C21.642 19.423 21.703 20.026 21.485 20.556C21.3139 20.9679 20.9894 21.2971 20.58 21.474C20.3682 21.5644 20.1403 21.6115 19.91 21.6123C19.6797 21.6132 19.4515 21.5678 19.239 21.479C18.933 21.3486 18.6712 21.1326 18.485 20.857C18.2944 20.5751 18.193 20.2423 18.194 19.902C18.194 19.6137 18.137 19.3282 18.0263 19.0619C17.9156 18.7957 17.7534 18.5539 17.5489 18.3506C17.3445 18.1473 17.1018 17.9863 16.835 17.8771C16.5681 17.7678 16.2823 17.7124 15.994 17.714C14.784 17.714 13.806 18.694 13.806 19.902C13.807 20.1827 13.7385 20.4593 13.6066 20.7071C13.4747 20.9549 13.2835 21.1661 13.05 21.322C12.717 21.5468 12.3154 21.6469 11.9159 21.6047C11.5164 21.5624 11.1446 21.3805 10.866 21.091V21.089C10.6331 20.8475 10.4764 20.5428 10.4154 20.213C10.3544 19.8831 10.3918 19.5425 10.5229 19.2337C10.654 18.9249 10.8731 18.6615 11.1528 18.4763C11.4325 18.291 11.7605 18.1922 12.096 18.192C12.4005 18.1922 12.7016 18.1288 12.9802 18.006C13.2588 17.8831 13.5087 17.7035 13.7139 17.4785C13.9191 17.2535 14.075 16.9882 14.1718 16.6996C14.2686 16.4109 14.3041 16.1052 14.276 15.802C14.2275 15.2573 13.9768 14.7506 13.5734 14.3815C13.1699 14.0124 12.6428 13.8078 12.096 13.808C11.8677 13.8082 11.6416 13.763 11.431 13.675C11.1249 13.5444 10.863 13.328 10.677 13.052C10.5356 12.8428 10.4424 12.6048 10.404 12.3552C10.3657 12.1056 10.3833 11.8506 10.4554 11.6086C10.5275 11.3666 10.6524 11.1436 10.8211 10.9557C10.9898 10.7678 11.1981 10.6197 11.431 10.522C11.6416 10.4339 11.8677 10.3885 12.096 10.3885C12.3243 10.3885 12.5504 10.4339 12.761 10.522C13.067 10.652 13.329 10.868 13.515 11.143C13.705 11.425 13.807 11.758 13.805 12.098C13.8049 12.3889 13.8629 12.6769 13.9755 12.9451C14.0881 13.2134 14.253 13.4565 14.4606 13.6602C14.6683 13.8639 14.9145 14.0242 15.1848 14.1317C15.4551 14.2391 15.7442 14.2916 16.035 14.286ZM16 7.426C14.8338 6.44961 13.3441 5.94569 11.8246 6.01363C10.3052 6.08157 8.86639 6.71643 7.792 7.793C6.71604 8.86758 6.08135 10.306 6.01287 11.8251C5.94439 13.3443 6.44709 14.834 7.422 16.001C6.4602 17.1534 5.95812 18.6206 6.0122 20.1206C6.06628 21.6207 6.67271 23.0478 7.715 24.128C8.78316 25.2366 10.2318 25.8991 11.769 25.982C13.3062 26.065 14.8178 25.5622 15.999 24.575C17.1772 25.5605 18.6845 26.0639 20.2184 25.9842C21.7524 25.9044 23.1994 25.2474 24.269 24.145C25.3174 23.0647 25.9288 21.6347 25.9855 20.1304C26.0422 18.6261 25.5401 17.1541 24.576 15.998C25.3415 15.0802 25.8201 13.9576 25.9524 12.7699C26.0847 11.5821 25.8648 10.3817 25.32 9.318C24.8947 8.49048 24.2859 7.77116 23.54 7.215L23.535 7.212C22.4378 6.3956 21.0976 5.9726 19.7305 6.01124C18.3635 6.04989 17.0493 6.54792 16 7.425V7.426ZM16 32C7.163 32 0 24.837 0 16C0 7.163 7.163 0 16 0C24.837 0 32 7.163 32 16C32 24.837 24.837 32 16 32Z" fill="black"/>
<path opacity="0.622" d="M14.275 15.803C14.3031 16.1061 14.2676 16.4117 14.1709 16.7003C14.0742 16.9889 13.9183 17.2542 13.7132 17.4791C13.5081 17.7041 13.2584 17.8837 12.9799 18.0067C12.7014 18.1296 12.4004 18.193 12.096 18.193C11.756 18.1915 11.4236 18.2926 11.142 18.483C10.8663 18.6691 10.6503 18.931 10.52 19.237C10.3899 19.5457 10.3534 19.8857 10.4149 20.2149C10.4764 20.5442 10.6333 20.8481 10.866 21.089V21.091C11.1447 21.3803 11.5165 21.5621 11.916 21.6041C12.3156 21.6462 12.7171 21.5459 13.05 21.321C13.2832 21.165 13.4743 20.9537 13.606 20.7059C13.7377 20.4581 13.8061 20.1816 13.805 19.901C13.8051 19.6127 13.8622 19.3272 13.973 19.061C14.0839 18.7948 14.2462 18.5531 14.4508 18.3499C14.6553 18.1466 14.898 17.9858 15.1649 17.8767C15.4318 17.7676 15.7176 17.7123 16.006 17.714C14.798 17.714 13.818 18.694 13.818 19.902C13.8172 20.7932 14.0123 21.6736 14.3893 22.4811C14.7664 23.2886 15.3162 24.0034 16 24.575C14.8187 25.5622 13.3072 26.065 11.77 25.982C10.2328 25.8991 8.78413 25.2366 7.71597 24.128C6.67368 23.0478 6.06725 21.6207 6.01317 20.1206C5.95909 18.6205 6.46117 17.1534 7.42297 16.001C7.99454 16.6851 8.70944 17.2354 9.5171 17.6128C10.3248 17.9902 11.2055 18.1855 12.097 18.185C12.4007 18.1851 12.7011 18.1219 12.9791 17.9996C13.2571 17.8772 13.5066 17.6983 13.7117 17.4742C13.9167 17.2501 14.0729 16.9858 14.1702 16.6981C14.2675 16.4104 14.3039 16.1055 14.277 15.803H14.275ZM24.575 15.998C24.0039 15.3142 23.2894 14.7642 22.4823 14.3869C21.6751 14.0097 20.7949 13.8145 19.904 13.815C19.3245 13.8147 18.7687 14.0443 18.3583 14.4534C17.9479 14.8624 17.7166 15.4176 17.715 15.997C17.715 14.788 18.695 13.808 19.903 13.808C20.2395 13.8083 20.5686 13.7093 20.8491 13.5234C21.1297 13.3376 21.3491 13.073 21.48 12.763C21.5762 12.5328 21.6212 12.2844 21.6119 12.0351C21.6025 11.7857 21.5391 11.5414 21.426 11.319C21.3165 11.1032 21.1623 10.9131 20.9737 10.7615C20.785 10.6099 20.5663 10.5002 20.332 10.4396C20.0977 10.3791 19.8532 10.3691 19.6147 10.4104C19.3763 10.4517 19.1493 10.5432 18.949 10.679C18.7154 10.8347 18.5241 11.046 18.3921 11.2938C18.2602 11.5416 18.1918 11.8183 18.193 12.099C18.1991 12.3902 18.1471 12.6797 18.0399 12.9505C17.9327 13.2214 17.7725 13.468 17.5687 13.6761C17.3649 13.8843 17.1216 14.0496 16.8531 14.1624C16.5846 14.2752 16.2962 14.3333 16.005 14.3333C15.7137 14.3332 15.4254 14.275 15.1569 14.162C14.8884 14.0491 14.6452 13.8836 14.4415 13.6754C14.2378 13.4672 14.0777 13.2205 13.9707 12.9496C13.8636 12.6787 13.8117 12.3892 13.818 12.098C13.8173 10.9696 14.1303 9.86329 14.7221 8.90259C15.314 7.94189 16.1613 7.16467 17.1694 6.65777C18.1775 6.15087 19.3067 5.93425 20.4308 6.03212C21.5549 6.12999 22.6296 6.5385 23.535 7.212L23.539 7.215C24.2025 7.7097 24.7583 8.33448 25.1723 9.05117C25.5864 9.76786 25.8499 10.5614 25.947 11.3834C26.044 12.2054 25.9725 13.0385 25.7368 13.8319C25.5011 14.6253 25.1061 15.3624 24.576 15.998H24.575Z" fill="black"/>
</g>
<defs>
<clipPath id="clip0_16_2629">
<rect width="32" height="32" fill="white"/>
</clipPath>
</defs>
</svg>
