<svg width="32" height="32" viewBox="0 0 32 32" fill="none" xmlns="http://www.w3.org/2000/svg">
<g clip-path="url(#clip0_16_2634)">
<path fill-rule="evenodd" clip-rule="evenodd" d="M16 32C7.163 32 0 24.837 0 16C0 7.163 7.163 0 16 0C24.837 0 32 7.163 32 16C32 24.837 24.837 32 16 32ZM18.08 12.574L18.086 12.581C17.482 12.233 16.876 11.891 16.278 11.534C16.102 11.428 15.967 11.409 15.781 11.525C15.265 11.847 14.729 12.138 14.211 12.455C14.069 12.542 13.97 12.533 13.834 12.452C13.2721 12.1201 12.7064 11.7947 12.137 11.476C12.062 11.434 11.937 11.39 11.877 11.423C11.224 11.784 10.578 12.16 9.907 12.547C10.513 12.902 11.086 13.248 11.671 13.574C11.87 13.684 11.951 13.804 11.95 14.044C11.938 16.111 11.943 18.179 11.943 20.246V20.566C12.059 20.506 12.136 20.469 12.209 20.426C12.728 20.126 13.241 19.816 13.765 19.525C13.94 19.428 14.007 19.32 14.005 19.113C13.996 17.055 14 14.996 14 12.937V12.622C14.089 12.666 14.15 12.693 14.209 12.726C14.737 13.028 15.26 13.34 15.795 13.63C15.967 13.723 16.018 13.83 16.017 14.022C16.01 16.319 16.013 18.617 16.013 20.914V21.239C16.658 20.836 17.257 20.453 17.867 20.086C18.025 19.991 18.074 19.883 18.074 19.704C18.0684 18.2197 18.0671 16.7353 18.07 15.251C18.071 14.359 18.077 13.467 18.08 12.574ZM18.086 12.581L18.08 12.574C18.681 12.924 19.279 13.282 19.887 13.62C20.053 13.711 20.095 13.818 20.095 13.995C20.089 16.078 20.091 18.162 20.091 20.246V20.575C20.786 20.173 21.441 19.798 22.089 19.412C22.136 19.384 22.154 19.275 22.154 19.204C22.158 17.041 22.159 14.877 22.15 12.714C22.15 12.627 22.072 12.504 21.994 12.459C21.4266 12.1202 20.8522 11.7935 20.271 11.479C20.2159 11.454 20.1562 11.4409 20.0957 11.4406C20.0352 11.4402 19.9754 11.4526 19.92 11.477C19.347 11.787 18.784 12.117 18.221 12.445C18.168 12.475 18.131 12.535 18.086 12.581ZM6.939 18.788C7.12656 18.7884 7.31233 18.7516 7.48552 18.6796C7.65872 18.6076 7.81589 18.5019 7.94791 18.3687C8.07993 18.2355 8.18416 18.0773 8.25456 17.9035C8.32496 17.7296 8.36012 17.5435 8.358 17.356C8.35762 17.1684 8.31999 16.9827 8.2473 16.8098C8.1746 16.6368 8.06828 16.48 7.93451 16.3485C7.80073 16.2169 7.64217 16.1133 7.46802 16.0435C7.29387 15.9737 7.10759 15.9392 6.92 15.942C6.73239 15.9419 6.54661 15.9789 6.37341 16.0511C6.20022 16.1232 6.04304 16.2289 5.91098 16.3622C5.77893 16.4955 5.67461 16.6536 5.60406 16.8274C5.53352 17.0013 5.49815 17.1874 5.5 17.375C5.506 18.165 6.144 18.792 6.94 18.788H6.939ZM8.854 23.075C9.21038 23.071 9.55066 22.926 9.80032 22.6717C10.05 22.4173 10.1887 22.0744 10.186 21.718C10.178 20.982 9.551 20.365 8.826 20.381C8.46957 20.3886 8.13035 20.5357 7.88127 20.7908C7.63219 21.0459 7.49313 21.3885 7.494 21.745C7.504 22.487 8.11 23.079 8.854 23.075ZM7.767 11.399C7.59671 11.3961 7.42755 11.4273 7.26952 11.4908C7.11148 11.5543 6.96777 11.6488 6.84688 11.7688C6.72598 11.8887 6.63034 12.0317 6.56561 12.1892C6.50088 12.3468 6.46837 12.5157 6.47 12.686C6.46628 12.8562 6.49645 13.0254 6.55875 13.1839C6.62105 13.3423 6.71423 13.4868 6.83288 13.6089C6.95152 13.731 7.09327 13.8282 7.24986 13.895C7.40645 13.9619 7.57476 13.9968 7.745 13.998C7.91762 14.0003 8.08897 13.9682 8.24909 13.9036C8.40921 13.8391 8.55491 13.7434 8.67773 13.6221C8.80054 13.5007 8.89802 13.3562 8.9645 13.1969C9.03099 13.0376 9.06515 12.8666 9.065 12.694C9.065 11.979 8.486 11.401 7.767 11.399ZM25.289 16.305C25.6112 16.305 25.9203 16.177 26.1481 15.9491C26.376 15.7213 26.504 15.4122 26.504 15.09C26.504 14.7678 26.376 14.4587 26.1481 14.2309C25.9203 14.003 25.6112 13.875 25.289 13.875C24.9668 13.875 24.6577 14.003 24.4299 14.2309C24.202 14.4587 24.074 14.7678 24.074 15.09C24.074 15.4122 24.202 15.7213 24.4299 15.9491C24.6577 16.177 24.9668 16.305 25.289 16.305ZM9.542 8.617C9.53893 8.76275 9.56507 8.90764 9.61889 9.04312C9.6727 9.17861 9.7531 9.30195 9.85534 9.40586C9.95758 9.50978 10.0796 9.59218 10.2142 9.64819C10.3488 9.7042 10.4932 9.7327 10.639 9.732C10.7847 9.73306 10.9292 9.7052 11.0641 9.65005C11.199 9.59489 11.3216 9.51353 11.4248 9.41067C11.5281 9.30781 11.6099 9.18549 11.6655 9.0508C11.7212 8.91612 11.7495 8.77173 11.749 8.626C11.7509 8.48016 11.7237 8.3354 11.6692 8.20013C11.6146 8.06487 11.5337 7.94179 11.4312 7.83805C11.3286 7.73431 11.2065 7.65198 11.0719 7.59584C10.9373 7.53969 10.7929 7.51086 10.647 7.511C10.5012 7.50898 10.3566 7.53621 10.2215 7.59109C10.0865 7.64597 9.96381 7.72738 9.86079 7.8305C9.75776 7.93362 9.67646 8.05636 9.62171 8.19145C9.56695 8.32654 9.53985 8.47125 9.542 8.617ZM24.636 20.91C24.7819 20.9111 24.9264 20.8829 25.0612 20.827C25.1959 20.7711 25.318 20.6887 25.4202 20.5847C25.5225 20.4807 25.6028 20.3572 25.6563 20.2215C25.7099 20.0859 25.7356 19.9408 25.732 19.795C25.7319 19.6493 25.703 19.5051 25.6471 19.3706C25.5912 19.2361 25.5093 19.1139 25.4061 19.0111C25.3029 18.9083 25.1804 18.8268 25.0457 18.7714C24.911 18.7159 24.7667 18.6876 24.621 18.688C24.4753 18.6896 24.3313 18.7199 24.1973 18.7772C24.0634 18.8346 23.942 18.9178 23.8403 19.0221C23.7386 19.1264 23.6584 19.2498 23.6045 19.3852C23.5506 19.5206 23.5239 19.6653 23.526 19.811C23.5244 19.9567 23.552 20.1013 23.6074 20.2361C23.6627 20.3709 23.7446 20.4932 23.8481 20.5957C23.9517 20.6982 24.0748 20.7789 24.2101 20.8329C24.3455 20.8869 24.4903 20.9131 24.636 20.91ZM15.986 6.855C15.9899 6.74478 15.9716 6.6349 15.9324 6.53185C15.8931 6.42879 15.8336 6.33464 15.7574 6.25495C15.6811 6.17526 15.5897 6.11165 15.4885 6.06786C15.3872 6.02407 15.2783 6.001 15.168 6C14.9502 5.99806 14.7403 6.0814 14.5831 6.2322C14.426 6.38301 14.334 6.58931 14.327 6.807C14.3218 6.91698 14.3386 7.02689 14.3767 7.13023C14.4147 7.23357 14.473 7.32823 14.5483 7.4086C14.6235 7.48898 14.7141 7.55344 14.8147 7.59817C14.9154 7.6429 15.0239 7.66698 15.134 7.669C15.244 7.67358 15.3538 7.6559 15.4568 7.61704C15.5598 7.57817 15.6539 7.51891 15.7334 7.44281C15.813 7.36671 15.8764 7.27534 15.9198 7.17416C15.9632 7.07299 15.9857 6.96409 15.986 6.854V6.855ZM21.757 24.357C22.238 24.361 22.605 24.006 22.607 23.535C22.6083 23.4265 22.5881 23.3188 22.5475 23.2181C22.5069 23.1175 22.4467 23.0259 22.3704 22.9487C22.2941 22.8715 22.2033 22.8102 22.1031 22.7684C22.003 22.7265 21.8955 22.705 21.787 22.705C21.6766 22.7016 21.5666 22.7206 21.4637 22.7606C21.3607 22.8006 21.2669 22.861 21.1877 22.9381C21.1086 23.0152 21.0458 23.1074 21.0031 23.2092C20.9603 23.3111 20.9385 23.4205 20.939 23.531C20.9374 23.6392 20.9574 23.7467 20.9979 23.8471C21.0383 23.9475 21.0984 24.0389 21.1745 24.1158C21.2507 24.1927 21.3415 24.2537 21.4415 24.2951C21.5415 24.3365 21.6488 24.3575 21.757 24.357ZM17.477 26C17.5811 26.0032 17.6849 25.9855 17.782 25.9479C17.8792 25.9103 17.9678 25.8536 18.0427 25.7812C18.1176 25.7087 18.1771 25.622 18.2179 25.5261C18.2587 25.4303 18.2798 25.3272 18.28 25.223C18.279 25.0131 18.1954 24.812 18.0475 24.663C17.8995 24.5141 17.6989 24.4294 17.489 24.427C17.385 24.4253 17.2816 24.4443 17.185 24.483C17.0885 24.5217 17.0006 24.5793 16.9265 24.6524C16.8525 24.7256 16.7938 24.8127 16.7539 24.9088C16.7139 25.0049 16.6936 25.108 16.694 25.212C16.6911 25.3158 16.7094 25.4192 16.7477 25.5157C16.7859 25.6123 16.8434 25.7001 16.9166 25.7738C16.9899 25.8475 17.0773 25.9055 17.1736 25.9444C17.2699 25.9833 17.3731 26.0022 17.477 26ZM20.105 8.277C20.2926 8.27499 20.4722 8.20031 20.6059 8.06864C20.7396 7.93698 20.8171 7.75859 20.822 7.571C20.8192 7.38337 20.7438 7.20413 20.6115 7.07098C20.4793 6.93782 20.3006 6.86112 20.113 6.857C19.9247 6.85594 19.7437 6.92973 19.6098 7.06213C19.4759 7.19453 19.4001 7.3747 19.399 7.563C19.3979 7.7513 19.4717 7.93232 19.6041 8.06622C19.7365 8.20012 19.9167 8.27594 20.105 8.277ZM13.567 24.559C13.5708 24.3945 13.509 24.2352 13.3954 24.1161C13.2818 23.997 13.1255 23.9279 12.961 23.924C12.8794 23.9227 12.7984 23.9375 12.7225 23.9675C12.6466 23.9976 12.5775 24.0423 12.5189 24.0992C12.4604 24.1561 12.4137 24.2239 12.3814 24.2989C12.3492 24.3738 12.332 24.4544 12.331 24.536C12.3275 24.6177 12.3406 24.6993 12.3694 24.7759C12.3983 24.8524 12.4424 24.9224 12.499 24.9814C12.5557 25.0405 12.6237 25.0874 12.6989 25.1195C12.7742 25.1516 12.8552 25.1681 12.937 25.168C13.0186 25.1704 13.0999 25.1564 13.176 25.127C13.2522 25.0975 13.3217 25.053 13.3804 24.9963C13.4391 24.9395 13.4858 24.8716 13.5179 24.7965C13.5499 24.7214 13.5666 24.6407 13.567 24.559ZM24.23 10.58C24.2292 10.5097 24.2144 10.4402 24.1864 10.3757C24.1584 10.3112 24.1177 10.2529 24.0668 10.2044C24.016 10.1558 23.9559 10.118 23.8901 10.093C23.8244 10.068 23.7543 10.0565 23.684 10.059C23.6135 10.0601 23.5439 10.0754 23.4794 10.1038C23.4148 10.1322 23.3566 10.1733 23.3082 10.2245C23.2597 10.2757 23.222 10.3362 23.1973 10.4022C23.1725 10.4682 23.1612 10.5385 23.164 10.609C23.1677 10.7511 23.2273 10.886 23.3299 10.9843C23.4326 11.0826 23.5699 11.1364 23.712 11.134C24.012 11.124 24.236 10.884 24.23 10.581V10.58Z" fill="black"/>
</g>
<defs>
<clipPath id="clip0_16_2634">
<rect width="32" height="32" fill="white"/>
</clipPath>
</defs>
</svg>
