<svg width="32" height="32" viewBox="0 0 32 32" fill="none" xmlns="http://www.w3.org/2000/svg">
<g clip-path="url(#clip0_16_2636)">
<path fill-rule="evenodd" clip-rule="evenodd" d="M16 32C7.163 32 0 24.837 0 16C0 7.163 7.163 0 16 0C24.837 0 32 7.163 32 16C32 24.837 24.837 32 16 32ZM8 19.004H9.994C11.097 23 13.733 25 17.9 25C19.485 25 20.851 24.784 22 24.352V21.979C20.791 22.473 19.68 22.719 18.666 22.719C17.247 22.719 16.154 22.448 15.389 21.904C14.623 21.359 13.973 20.393 13.44 19.004H18.396L19.196 17.001H13.012C12.982 16.623 12.967 16.195 12.967 15.716C12.967 15.3 12.986 14.968 13.023 14.721H20.119L20.93 12.718H13.508C14.221 10.426 15.824 9.28 18.317 9.28C19.5859 9.27376 20.8415 9.53832 22 10.056V7.532C20.7325 7.1722 19.4206 6.9931 18.103 7C13.943 7 11.27 8.906 10.083 12.718H8.812L8 14.721H9.69C9.65087 15.1365 9.63185 15.5537 9.633 15.971C9.633 16.303 9.644 16.646 9.667 17.001H8.81L8 19.004Z" fill="black"/>
</g>
<defs>
<clipPath id="clip0_16_2636">
<rect width="32" height="32" fill="white"/>
</clipPath>
</defs>
</svg>
