<svg width="32" height="32" viewBox="0 0 32 32" fill="none" xmlns="http://www.w3.org/2000/svg">
<g clip-path="url(#clip0_16_2638)">
<path fill-rule="evenodd" clip-rule="evenodd" d="M10.082 17.21C10.3471 17.3842 10.6578 17.4761 10.975 17.4744C11.2922 17.4726 11.6018 17.3771 11.865 17.2L12.979 18.314L14.142 17.152L12.559 15.57C12.4916 15.1964 12.2952 14.8582 12.0041 14.6144C11.7131 14.3707 11.3457 14.2368 10.966 14.236C10.159 14.236 9.489 14.828 9.366 15.601L6.88 18.089C6.72305 17.4038 6.64388 16.703 6.644 16C6.644 10.84 10.841 6.644 16 6.644C21.159 6.644 25.356 10.84 25.356 16C25.356 16.764 25.264 17.506 25.09 18.217L21.216 14.343C21.1752 13.9442 20.988 13.5746 20.6907 13.3057C20.3934 13.0368 20.0069 12.8876 19.606 12.887C19.1988 12.8872 18.8067 13.0408 18.5076 13.317C18.2085 13.5933 18.0244 13.9721 17.992 14.378L9.575 22.795L8.413 23.958C8.811 24.338 9.238 24.688 9.69 25.005C11.5369 26.3055 13.7411 27.0024 16 27C22.065 27 27 22.065 27 16C27 9.935 22.065 5 16 5C9.935 5 5 9.935 5 16C4.99898 17.7607 5.42226 19.4956 6.234 21.058L7.464 19.828L10.082 17.21ZM18.791 15.904C19.0415 16.0511 19.3272 16.1277 19.6177 16.1256C19.9082 16.1235 20.1927 16.0428 20.441 15.892L24.486 19.938C22.996 23.135 19.753 25.356 16 25.356C14.1776 25.358 12.3948 24.8246 10.873 23.822L18.791 15.904ZM16 32C7.163 32 0 24.837 0 16C0 7.163 7.163 0 16 0C24.837 0 32 7.163 32 16C32 24.837 24.837 32 16 32ZM19.635 13.788C19.7328 13.7844 19.8303 13.8006 19.9217 13.8356C20.0131 13.8706 20.0965 13.9237 20.167 13.9916C20.2374 14.0596 20.2934 14.1411 20.3316 14.2312C20.3699 14.3213 20.3895 14.4181 20.3895 14.516C20.3894 14.6139 20.3696 14.7107 20.3313 14.8008C20.2929 14.8908 20.2368 14.9722 20.1663 15.0401C20.0957 15.108 20.0123 15.1609 19.9208 15.1958C19.8293 15.2306 19.7318 15.2467 19.634 15.243C19.4457 15.2359 19.2675 15.1561 19.1369 15.0203C19.0063 14.8845 18.9333 14.7034 18.9335 14.515C18.9336 14.3266 19.0068 14.1456 19.1376 14.01C19.2684 13.8744 19.4467 13.7949 19.635 13.788ZM10.975 15.115C11.0706 15.1151 11.1652 15.1341 11.2535 15.1708C11.3418 15.2075 11.422 15.2612 11.4895 15.3289C11.557 15.3966 11.6105 15.477 11.647 15.5653C11.6834 15.6537 11.7021 15.7484 11.702 15.844C11.7019 15.9396 11.6829 16.0342 11.6462 16.1225C11.6095 16.2108 11.5558 16.291 11.4881 16.3585C11.4204 16.426 11.34 16.4795 11.2517 16.516C11.1633 16.5524 11.0686 16.5711 10.973 16.571C10.7799 16.5709 10.5948 16.494 10.4584 16.3574C10.3219 16.2208 10.2454 16.0356 10.2455 15.8425C10.2456 15.6494 10.3225 15.4643 10.4591 15.3279C10.5957 15.1914 10.7809 15.1149 10.974 15.115H10.975Z" fill="black"/>
</g>
<defs>
<clipPath id="clip0_16_2638">
<rect width="32" height="32" fill="white"/>
</clipPath>
</defs>
</svg>
