<svg width="32" height="32" viewBox="0 0 32 32" fill="none" xmlns="http://www.w3.org/2000/svg">
<g clip-path="url(#clip0_16_2644)">
<path fill-rule="evenodd" clip-rule="evenodd" d="M16 32C7.163 32 0 24.837 0 16C0 7.163 7.163 0 16 0C24.837 0 32 7.163 32 16C32 24.837 24.837 32 16 32ZM8 24.254V24.52L8.045 24.695C8.205 25.294 8.62 25.667 9.22 25.849C9.928 26.064 10.652 26.021 11.37 25.896C12.422 25.714 13.302 25.219 14.045 24.497C14.559 23.997 14.981 23.433 15.326 22.814C16.038 21.537 16.473 20.165 16.862 18.778C17.056 18.088 17.224 17.392 17.399 16.698C17.429 16.579 17.482 16.54 17.616 16.54C18.109 16.543 18.603 16.537 19.096 16.518C19.384 16.507 19.655 16.428 19.849 16.199C19.942 16.089 20.045 15.985 20.131 15.87C20.396 15.517 20.351 15.067 20.035 14.753C19.776 14.497 19.448 14.404 19.093 14.391C18.763 14.379 18.433 14.389 18.099 14.389C18.097 14.361 18.092 14.343 18.096 14.327C18.176 14.001 18.261 13.675 18.338 13.348C18.356 13.268 18.406 13.269 18.469 13.268C18.944 13.26 19.419 13.256 19.893 13.24C20.248 13.228 20.588 13.179 20.878 12.941C21.234 12.651 21.309 12.351 21.236 11.97C21.164 11.595 20.891 11.376 20.534 11.242C20.241 11.132 19.935 11.131 19.628 11.136C19.416 11.139 19.203 11.136 18.986 11.136C18.991 11.093 18.989 11.066 18.997 11.04C19.247 10.224 19.551 9.428 19.971 8.676C20.173 8.315 20.413 7.978 20.72 7.689C20.777 7.635 20.854 7.599 20.922 7.555L20.949 7.59C20.937 7.623 20.924 7.656 20.914 7.69C20.78 8.138 20.821 8.56 21.154 8.92C21.508 9.306 21.966 9.45 22.498 9.432C23.191 9.409 23.956 8.837 23.998 7.937C24.014 7.62 23.881 7.352 23.744 7.083C23.6397 6.87461 23.4948 6.68911 23.318 6.53733C23.1411 6.38555 22.9358 6.27053 22.714 6.199C21.938 5.933 21.141 5.967 20.352 6.107C19.162 6.318 18.169 6.894 17.326 7.707C16.686 8.324 16.17 9.035 15.73 9.792C15.489 10.208 15.285 10.644 15.077 11.077C15.017 11.203 14.95 11.252 14.799 11.249C14.1747 11.2397 13.5503 11.2383 12.926 11.245C12.7782 11.2445 12.631 11.263 12.488 11.3C12.09 11.41 11.841 11.669 11.783 12.057C11.726 12.441 11.823 12.787 12.176 13.031C12.46 13.227 12.789 13.304 13.128 13.318C13.56 13.335 13.993 13.322 14.431 13.322C14.431 13.356 14.436 13.379 14.431 13.399C14.339 13.745 14.248 14.092 14.15 14.436C14.141 14.467 14.082 14.506 14.046 14.506C13.66 14.512 13.274 14.505 12.887 14.511C12.484 14.518 12.072 14.492 11.68 14.561C11.12 14.657 10.826 15.038 10.836 15.534C10.846 16.101 11.254 16.47 11.853 16.516C12.293 16.55 12.737 16.537 13.179 16.544C13.309 16.546 13.438 16.544 13.579 16.544C13.559 16.637 13.546 16.716 13.525 16.792C12.998 18.732 12.475 20.675 11.939 22.613C11.84 22.97 11.693 23.315 11.562 23.663C11.542 23.716 11.485 23.756 11.445 23.801C11.408 23.755 11.361 23.713 11.337 23.661C11.252 23.4748 11.1161 23.3163 10.945 23.204C10.412 22.842 9.825 22.778 9.21 22.947C8.604 23.114 8.198 23.482 8.043 24.079L8 24.254Z" fill="black"/>
</g>
<defs>
<clipPath id="clip0_16_2644">
<rect width="32" height="32" fill="white"/>
</clipPath>
</defs>
</svg>
