<svg width="32" height="32" viewBox="0 0 32 32" fill="none" xmlns="http://www.w3.org/2000/svg">
<g clip-path="url(#clip0_16_2648)">
<path d="M16 32C7.163 32 0 24.837 0 16C0 7.163 7.163 0 16 0C24.837 0 32 7.163 32 16C32 24.837 24.837 32 16 32ZM15.932 12.908L11.715 12.29L11.478 13.905L15.598 14.508C15.5539 14.7458 15.5126 14.9842 15.474 15.223L15.298 16.286L11.202 15.686L10.98 17.303L15.016 17.895C14.107 22.389 13.388 24.335 12.481 25.345C12.39 25.451 12.103 25.609 11.856 25.638C11.515 25.678 11.236 25.507 11.025 25.008C10.9136 24.7227 10.7266 24.4731 10.484 24.286C10.2293 24.0944 9.91071 24.0078 9.594 24.044C9.389 24.016 9.007 24.295 8.906 24.645C8.77 25.115 9.08 25.615 9.853 26.1C11.368 27.05 12.823 26.757 14.12 25.603C14.899 24.909 15.608 23.862 15.784 23.423C16.239 22.543 16.884 20.317 17.372 18.239L21.605 18.859L21.842 17.244L17.705 16.638C17.7497 16.4005 17.7917 16.1625 17.831 15.924L18.006 14.86L22.102 15.46L22.324 13.843L18.288 13.253C18.898 10.241 19.336 8.788 19.812 7.995C19.949 7.769 20.082 7.597 20.296 7.36L20.531 7.1C20.621 6.994 20.909 6.836 21.156 6.807C21.496 6.767 21.776 6.939 21.986 7.437C22.122 7.757 22.306 7.996 22.528 8.159C22.816 8.371 23.118 8.43 23.418 8.401C23.623 8.429 24.005 8.15 24.106 7.801C24.242 7.33 23.932 6.831 23.159 6.346L23.026 6.557L23.159 6.346C21.644 5.395 20.189 5.688 18.892 6.843C18.112 7.536 17.403 8.585 17.228 9.023C16.753 9.94 16.304 11.345 15.932 12.908Z" fill="black"/>
</g>
<defs>
<clipPath id="clip0_16_2648">
<rect width="32" height="32" fill="white"/>
</clipPath>
</defs>
</svg>
