<svg width="32" height="32" viewBox="0 0 32 32" fill="none" xmlns="http://www.w3.org/2000/svg">
<g clip-path="url(#clip0_16_2650)">
<path d="M16.194 12.326H16.191H16.194L15.51 15.3C15.936 15.394 16.38 15.55 16.818 15.427C16.9588 15.3827 17.0865 15.3044 17.1899 15.1991C17.2933 15.0937 17.3693 14.9646 17.411 14.823C17.493 14.56 17.534 14.29 17.606 14.028L18.33 14.212C18.362 14.217 18.325 14.236 18.345 14.215L18.363 14.201C18.663 13.879 19.005 13.526 19.275 13.185C18.8318 12.9634 18.3594 12.8055 17.872 12.716L16.238 12.336L16.242 12.327H16.196L16.194 12.326ZM16 32C7.163 32 0 24.837 0 16C0 7.163 7.163 0 16 0C24.837 0 32 7.163 32 16C32 24.837 24.837 32 16 32ZM20.306 11.828C20.355 11.749 20.399 11.644 20.444 11.554C21.4624 9.75065 21.9984 7.71505 22 5.644C20.565 4.816 19.05 4.294 17.402 4.113C18.012 6.775 18.876 9.353 20.125 11.782L20.306 11.828ZM12.077 11.373L12.033 11.363L11.683 11.283V11.277H11.678L11.993 9.904C12.226 9.954 12.459 10.009 12.691 10.066H12.696C13.5449 8.14996 14.2067 6.15636 14.672 4.113C12.525 4.35052 10.4822 5.16424 8.76 6.468V6.472C7.31427 7.56653 6.13503 8.97411 5.31068 10.5892C4.48632 12.2043 4.03824 13.9851 4 15.798V16.038C5.28089 16.7742 6.68513 17.2709 8.144 17.504L8.151 17.497C9.68196 15.6066 10.9999 13.5532 12.081 11.374H12.078L12.077 11.373ZM19.591 13.398L19.535 13.36C19.265 13.702 19.002 13.982 18.702 14.297L18.787 14.313L18.897 14.35L17.815 19.038L16.517 18.738C16.585 18.355 16.754 17.973 16.675 17.575C16.6384 17.4324 16.5687 17.3004 16.4715 17.1898C16.3744 17.0791 16.2526 16.9929 16.116 16.938C15.824 16.799 15.498 16.75 15.186 16.675L14.582 19.297C14.545 19.474 14.545 19.672 14.657 19.822C14.747 19.954 14.901 20.022 15.051 20.059L16.015 20.284L15.726 21.439C19.106 21.406 22.546 21.933 25.776 22.927C26.304 22.213 26.526 21.929 26.883 21.117C24.91 19.287 23.285 16.959 21.82 14.704L21.46 16.267L20.009 15.93C20.132 15.345 20.249 14.722 20.076 14.13C19.951 13.737 19.853 13.539 19.591 13.398ZM8.18 17.805C7.215 18.994 6.206 20.15 5.083 21.191C5.435 22.005 5.66 22.177 6.185 22.89C7.96738 22.3515 9.78932 21.954 11.634 21.701C11.728 21.292 11.75 21.18 11.84 20.767L9.624 20.254C9.729 19.8 9.838 19.342 9.939 18.884C10.273 18.949 10.603 19.039 10.933 19.106C11.095 19.146 11.266 19.116 11.405 19.024C11.544 18.922 11.615 18.754 11.653 18.592L11.866 17.775C11.7947 17.7773 11.7236 17.7837 11.653 17.794C10.734 17.924 9.838 17.906 8.915 17.824C8.657 17.797 8.463 17.818 8.211 17.762L8.181 17.805H8.18ZM13.325 21.109L13.235 21.559L14.184 21.491L14.214 21.315L13.325 21.109ZM11.686 17.531C11.756 17.521 11.826 17.515 11.896 17.512V17.508L13.039 12.558C13.084 12.333 13.174 12.108 13.103 11.883C13.0755 11.8023 13.0299 11.7291 12.9695 11.6689C12.9092 11.6087 12.8358 11.5632 12.755 11.536L12.718 11.524C12.528 11.473 12.674 11.509 12.481 11.464C12.46 11.459 12.364 11.491 12.342 11.487C11.273 13.6411 9.96761 15.6696 8.45 17.535C8.702 17.587 8.66 17.572 8.911 17.598C9.836 17.683 10.767 17.66 11.686 17.531ZM14.229 10.417V10.421C14.405 9.678 14.57 8.932 14.75 8.19L16.228 8.53L15.714 10.762L16.599 10.968C16.687 10.597 16.774 10.225 16.859 9.853L16.988 9.295L17.117 8.737L18.594 9.075C18.574 9.175 18.552 9.275 18.53 9.375C18.387 10.021 18.228 10.662 18.085 11.311L19.787 11.707C18.537 9.277 17.71 6.737 17.101 4.075C16.719 4.03 16.558 4.045 16.171 4.038H15.935C15.511 4.038 15.354 4.027 14.938 4.075C14.471 6.118 13.918 8.261 13.068 10.177L14.229 10.417ZM26.964 11.156C25.93 8.842 24.455 7.1 22.262 5.83C22.26 7.902 21.762 9.751 20.744 11.556C20.6822 11.6689 20.6258 11.7847 20.575 11.903C21.261 12.053 21.689 12.145 22.375 12.299V12.306L21.933 14.293C23.395 16.547 25.026 19.029 26.995 20.859C27.623 19.427 27.965 17.886 28 16.322V15.759C27.9617 14.1711 27.61 12.6065 26.965 11.155L26.964 11.156ZM4 16.3V16.473C4.023 18.072 4.365 19.387 5.005 20.853C6.06673 19.8736 7.05319 18.8156 7.956 17.688C6.501 17.456 5.275 17.04 4 16.3ZM15.685 21.7L15.182 23.89H15.179L13.694 23.55L14.107 21.753L13.162 21.82L12.812 23.343H12.81L11.324 23.002C11.399 22.664 11.474 22.334 11.557 22.001C9.788 22.241 8.042 22.626 6.337 23.152C7.43204 24.6382 8.85481 25.8521 10.4949 26.6994C12.135 27.5468 13.9483 28.0048 15.794 28.038H16.285C18.117 27.9907 19.9141 27.5261 21.5394 26.6794C23.1647 25.8327 24.5754 24.6263 25.664 23.152C22.4323 22.1568 19.0663 21.667 15.685 21.7Z" fill="black"/>
</g>
<defs>
<clipPath id="clip0_16_2650">
<rect width="32" height="32" fill="white"/>
</clipPath>
</defs>
</svg>
