<svg width="32" height="32" viewBox="0 0 32 32" fill="none" xmlns="http://www.w3.org/2000/svg">
<g clip-path="url(#clip0_16_2664)">
<path fill-rule="evenodd" clip-rule="evenodd" d="M16 32C7.163 32 0 24.837 0 16C0 7.163 7.163 0 16 0C24.837 0 32 7.163 32 16C32 24.837 24.837 32 16 32ZM12.7 26.9C14.1228 27.3386 15.6215 27.4748 17.1 27.3C15.7 25.4 14.2 23.5 12.8 21.7C14.2 20.5 15.7 19.4 17.1 18.3C16.1 17 15.1 15.8 14.1 14.5L9.8 17.9C9.46752 16.8295 9.43295 15.6887 9.7 14.6C9.99 13.7 10.43 12.854 11 12.1C11.58 11.3993 12.2939 10.8214 13.1 10.4C14.0118 9.97984 14.9969 9.74205 16 9.7C15.9 9.5 15.7 9.4 15.6 9.2C14.6 7.9 13.6 6.6 12.6 5.4C11.9427 5.6057 11.3065 5.87358 10.7 6.2C8.973 7.05018 7.51821 8.36642 6.5 10C5.8045 11.1805 5.29836 12.4627 5 13.8C4.64991 15.3808 4.64991 17.0191 5 18.6C5.3058 19.9197 5.84786 21.1733 6.6 22.3C7.30535 23.3711 8.18402 24.3174 9.2 25.1C10.2311 25.9333 11.4224 26.546 12.7 26.9ZM22.23 14.786C22.396 15.903 22.386 16.841 22.2 17.6C21.9854 18.5103 21.576 19.3632 21 20.1C20.4224 20.8495 19.68 21.4559 18.8302 21.8721C17.9804 22.2883 17.0462 22.5032 16.1 22.5C16.333 22.89 16.601 23.258 16.9 23.6C17.7 24.7 18.5 25.7 19.4 26.8C20.6172 26.4456 21.743 25.8315 22.7 25C23.6826 24.2507 24.5284 23.3372 25.2 22.3C25.9696 21.2196 26.5137 19.9952 26.8 18.7C27.134 17.1542 27.1679 15.5586 26.9 14C26.7247 12.6443 26.2462 11.3454 25.5 10.2C24.8664 9.13597 24.0546 8.18884 23.1 7.4C21.1412 5.74364 18.6651 4.82395 16.1 4.8H14.7C14.7 4.9 14.8 4.9 14.8 5C16.3 6.9 17.7 8.7 19.1 10.5C17.7 11.7 16.2 12.8 14.8 13.9C15.8 15.2 16.8 16.4 17.8 17.7C18.99 16.68 21.965 14.406 22.1 14.3C22.15 14.46 22.193 14.623 22.23 14.786ZM17.507 23.159C17.495 23.145 17.483 23.131 17.471 23.117C19.1096 22.7902 20.5744 21.8808 21.594 20.557C22.2352 19.736 22.691 18.7859 22.93 17.772C23.2279 16.5531 23.1885 15.2762 22.816 14.078L22.493 13.038L21.637 13.71C21.186 14.064 19.587 15.294 19.49 15.37C18.884 15.84 18.378 16.242 17.914 16.625C17.5732 16.1922 17.2305 15.7608 16.886 15.331C16.42 14.749 16.116 14.367 15.852 14.031C16.49 13.538 17.339 12.885 17.41 12.831C18.1505 12.2618 18.8767 11.6743 19.588 11.069L20.131 10.604L19.692 10.04C18.5282 8.54063 17.3606 7.04429 16.189 5.551C18.541 5.594 20.813 6.449 22.616 7.973C23.511 8.713 24.266 9.593 24.856 10.583C25.5485 11.6411 25.9929 12.842 26.156 14.096C26.4116 15.57 26.3811 17.0795 26.066 18.542C25.8016 19.7375 25.2993 20.8676 24.589 21.865C23.9602 22.8404 23.1671 23.6994 22.245 24.404C21.4843 25.0681 20.6067 25.5849 19.657 25.928C18.9145 25.025 18.1976 24.1013 17.507 23.158V23.159Z" fill="black"/>
</g>
<defs>
<clipPath id="clip0_16_2664">
<rect width="32" height="32" fill="white"/>
</clipPath>
</defs>
</svg>
