<svg width="32" height="32" viewBox="0 0 32 32" fill="none" xmlns="http://www.w3.org/2000/svg">
<g clip-path="url(#clip0_16_2666)">
<path fill-rule="evenodd" clip-rule="evenodd" d="M16 32C7.163 32 0 24.837 0 16C0 7.163 7.163 0 16 0C24.837 0 32 7.163 32 16C32 24.837 24.837 32 16 32ZM12.869 12.685V15.173H23.954V12.685H12.869ZM23.954 16.829H12.869V19.317H21.102V21.652C19.998 22.604 17.836 23.096 17.836 23.096C11.489 24.202 9.466 18.766 9.466 18.766C7.626 12.501 12.086 10.013 12.086 10.013C17.56 6.696 21.654 10.934 21.654 10.934L23.586 9.046C20.366 5.36 15.399 6.051 15.399 6.051C7.349 6.881 6.291 13.652 6.291 13.652C4.957 19.088 8.637 22.82 8.637 22.82C15.353 29.637 24 23.372 24 23.372V16.83L23.954 16.829Z" fill="black"/>
</g>
<defs>
<clipPath id="clip0_16_2666">
<rect width="32" height="32" fill="white"/>
</clipPath>
</defs>
</svg>
