<svg width="32" height="32" viewBox="0 0 32 32" fill="none" xmlns="http://www.w3.org/2000/svg">
<g clip-path="url(#clip0_16_2676)">
<path d="M16 32C7.163 32 0 24.837 0 16C0 7.163 7.163 0 16 0C24.837 0 32 7.163 32 16C32 24.837 24.837 32 16 32ZM21.002 9.855L21.812 6.614L19.216 5.968L18.573 8.543C18.1498 8.40049 17.7157 8.29247 17.275 8.22L17.919 5.645L15.323 5L14.513 8.241C11.53 8.783 9.004 10.978 8.233 14.064C7.462 17.15 8.659 20.27 11.037 22.144L10.227 25.386L12.823 26.032L13.466 23.457C13.8892 23.5995 14.3233 23.7075 14.764 23.78L14.12 26.355L16.716 27L17.526 23.759C18.575 23.5709 19.5756 23.1744 20.4687 22.593C21.3619 22.0116 22.1294 21.2571 22.726 20.374L19.879 19.666C19.2215 20.3303 18.4022 20.8116 17.5018 21.0624C16.6014 21.3132 15.6512 21.3248 14.745 21.096C11.879 20.384 10.125 17.524 10.828 14.709C11.531 11.894 14.427 10.19 17.294 10.903C18.2012 11.1247 19.0347 11.5798 19.7118 12.223C20.3889 12.8663 20.8861 13.6753 21.154 14.57L24 15.278C23.8889 14.2194 23.5663 13.1938 23.0513 12.2623C22.5363 11.3307 21.8394 10.5121 21.002 9.855Z" fill="black"/>
</g>
<defs>
<clipPath id="clip0_16_2676">
<rect width="32" height="32" fill="white"/>
</clipPath>
</defs>
</svg>
