<svg width="32" height="32" viewBox="0 0 32 32" fill="none" xmlns="http://www.w3.org/2000/svg">
<g clip-path="url(#clip0_16_2684)">
<path fill-rule="evenodd" clip-rule="evenodd" d="M16 32C7.163 32 0 24.837 0 16C0 7.163 7.163 0 16 0C24.837 0 32 7.163 32 16C32 24.837 24.837 32 16 32ZM24.777 10.5L23.979 11.31C24.614 12.321 24.813 13.59 24.379 14.804C23.653 16.864 21.404 17.95 19.355 17.214C19.065 17.104 18.793 16.974 18.557 16.809L16 19.403L13.77 17.123C13.2466 17.4777 12.6471 17.7041 12.0199 17.7839C11.3926 17.8636 10.7555 17.7945 10.16 17.582C9.14768 17.208 8.32421 16.449 7.86904 15.4705C7.41387 14.492 7.36389 13.3732 7.73 12.358C7.84 12.027 8.003 11.732 8.184 11.457L7.223 10.482L7.041 10.794C6.03397 12.4654 5.50156 14.3797 5.501 16.331C5.48 22.2 10.196 27 15.98 27H16C21.785 27 26.482 22.236 26.5 16.368C26.5 14.418 25.974 12.505 24.977 10.831L24.777 10.5ZM9.363 12.652C9.07976 13.0356 8.92726 13.5001 8.928 13.977C8.928 15.172 9.888 16.147 11.068 16.147C11.557 16.147 12.01 15.982 12.373 15.687L9.363 12.652ZM19.863 15.503C20.207 15.743 20.606 15.871 21.06 15.871C22.238 15.871 23.2 14.896 23.2 13.701C23.2 13.259 23.073 12.836 22.837 12.487L19.863 15.503ZM16.036 17.784L24.596 9.139L24.269 8.771C23.2232 7.58957 21.9393 6.64278 20.5015 5.99286C19.0638 5.34293 17.5048 5.00457 15.927 5H15.909C12.772 5 9.852 6.288 7.712 8.587L7.368 8.955L16.036 17.785V17.784ZM8.782 8.954C9.72247 8.02113 10.8376 7.28273 12.0635 6.78101C13.2895 6.2793 14.6023 6.0241 15.927 6.03H15.946C18.666 6.03 21.277 7.152 23.199 9.102L16.036 16.332L8.782 8.955V8.954Z" fill="black"/>
</g>
<defs>
<clipPath id="clip0_16_2684">
<rect width="32" height="32" fill="white"/>
</clipPath>
</defs>
</svg>
