<svg width="32" height="32" viewBox="0 0 32 32" fill="none" xmlns="http://www.w3.org/2000/svg">
<g clip-path="url(#clip0_16_2686)">
<path fill-rule="evenodd" clip-rule="evenodd" d="M16 32C7.163 32 0 24.837 0 16C0 7.163 7.163 0 16 0C24.837 0 32 7.163 32 16C32 24.837 24.837 32 16 32ZM20.499 5.288L18.227 7.622C17.5233 7.1348 16.6879 6.87353 15.832 6.873C15.259 6.87265 14.6917 6.98786 14.1643 7.21174C13.6368 7.43563 13.1598 7.76358 12.762 8.176C11.9479 9.01558 11.4949 10.1405 11.5 11.31C11.5 12.49 11.948 13.608 12.762 14.445C13.3598 15.0654 14.1312 15.4907 14.975 15.665V17.705C14.1273 17.8748 13.3529 18.3027 12.758 18.93C11.9456 19.7695 11.494 20.8937 11.5 22.062C11.5 23.242 11.948 24.36 12.762 25.197C13.1592 25.6103 13.636 25.9387 14.1636 26.1625C14.6913 26.3863 15.2588 26.5007 15.832 26.499C16.405 26.4995 16.9721 26.3844 17.4996 26.1607C18.0271 25.937 18.5041 25.6092 18.902 25.197C19.7181 24.3584 20.1711 23.2321 20.163 22.062C20.1708 20.8917 19.7174 19.7655 18.901 18.927C18.3033 18.3062 17.5319 17.8806 16.688 17.706V15.666C17.5358 15.4966 18.3104 15.0686 18.905 14.441C19.7193 13.6031 20.1712 12.4784 20.163 11.31C20.163 10.422 19.904 9.562 19.425 8.832L21.702 6.492L20.5 5.287L20.499 5.288ZM15.832 19.345C16.543 19.345 17.199 19.622 17.685 20.132C18.188 20.661 18.463 21.338 18.463 22.062C18.463 22.792 18.186 23.479 17.688 23.99C17.4494 24.2419 17.1614 24.4421 16.8421 24.578C16.5228 24.7139 16.179 24.7826 15.832 24.78C15.132 24.78 14.47 24.498 13.975 23.99C13.4766 23.4724 13.1987 22.7815 13.2 22.063C13.2 21.333 13.478 20.646 13.975 20.136C14.2137 19.8838 14.5017 19.6834 14.8212 19.5473C15.1407 19.4112 15.4848 19.3423 15.832 19.345ZM17.685 13.255C17.4465 13.5062 17.159 13.7056 16.8403 13.841C16.5215 13.9764 16.1783 14.0448 15.832 14.042C15.132 14.042 14.47 13.759 13.975 13.251C13.4766 12.7334 13.1987 12.0425 13.2 11.324C13.2 10.594 13.478 9.907 13.975 9.396C14.2138 9.14395 14.5018 8.94374 14.8213 8.80783C15.1408 8.67192 15.4848 8.60322 15.832 8.606C16.532 8.606 17.194 8.888 17.688 9.396C17.9381 9.65025 18.1354 9.95154 18.2684 10.2825C18.4014 10.6134 18.4676 10.9674 18.463 11.324C18.463 12.054 18.186 12.74 17.685 13.254V13.255Z" fill="black"/>
</g>
<defs>
<clipPath id="clip0_16_2686">
<rect width="32" height="32" fill="white"/>
</clipPath>
</defs>
</svg>
