<svg width="32" height="32" viewBox="0 0 32 32" fill="none" xmlns="http://www.w3.org/2000/svg">
<g clip-path="url(#clip0_16_2690)">
<path fill-rule="evenodd" clip-rule="evenodd" d="M16 32C7.163 32 0 24.837 0 16C0 7.163 7.163 0 16 0C24.837 0 32 7.163 32 16C32 24.837 24.837 32 16 32ZM16.053 5H15.943C15.88 5.05 15.821 5.107 15.752 5.147C12.767 6.877 9.782 8.607 6.794 10.33C6.59 10.448 6.504 10.573 6.504 10.821C6.512 14.286 6.509 17.75 6.5 21.214C6.5 21.424 6.56 21.544 6.742 21.649C8.90036 22.8926 11.0564 24.1403 13.21 25.392C14.124 25.923 15.032 26.464 15.943 27H16.053C16.096 26.968 16.137 26.932 16.183 26.905C19.198 25.156 22.213 23.407 25.23 21.661C25.396 21.565 25.5 21.471 25.5 21.242C25.4891 17.75 25.4865 14.258 25.492 10.766C25.492 10.561 25.418 10.454 25.252 10.358C22.7142 8.89385 20.1782 7.42652 17.644 5.956C17.109 5.646 16.583 5.319 16.053 5ZM18.859 22.48C18.794 22.435 18.664 22.416 18.6 22.452C17.924 22.83 17.255 23.222 16.584 23.612C16.555 23.628 16.532 23.656 16.492 23.691L17.956 24.606C17.515 24.866 17.089 25.062 16.726 25.341C16.22 25.729 15.78 25.731 15.275 25.341C14.924 25.069 14.511 24.879 14.126 24.651C14.113 24.644 14.108 24.622 14.079 24.569C14.711 24.192 18.435 21.997 19.606 21.192C20.677 20.454 21.556 19.496 22.03 18.249C22.23 17.726 22.318 17.159 22.45 16.609C22.468 16.535 22.446 16.451 22.441 16.356C22.344 16.351 22.264 16.343 22.184 16.342C20.177 16.342 18.169 16.34 16.162 16.345C16.064 16.345 15.917 16.373 15.877 16.439C15.442 17.168 15.023 17.906 14.572 18.689H18.998L19.028 18.758C18.845 18.912 18.678 19.091 18.476 19.216C17.291 19.953 13.026 22.626 12.095 23.249C11.949 23.346 11.855 23.349 11.71 23.265C10.41 22.505 9.109 21.748 7.803 20.999C7.654 20.914 7.61 20.816 7.611 20.65C7.616 17.553 7.617 14.455 7.612 11.357C7.612 11.189 7.659 11.092 7.804 11.009C9.11886 10.2564 10.4302 9.49777 11.738 8.733C11.9 8.638 11.996 8.649 12.141 8.765C12.468 9.027 12.814 9.267 13.159 9.505C13.22 9.546 13.34 9.571 13.396 9.539C14.099 9.136 14.794 8.72 15.529 8.286L14.091 7.382C14.394 7.203 14.657 7.047 14.921 6.893C15.22 6.718 15.515 6.535 15.823 6.376C15.912 6.33 16.061 6.313 16.143 6.358C16.703 6.666 17.251 6.993 17.803 7.315C17.823 7.328 17.835 7.356 17.875 7.408C17.41 7.693 13.899 9.776 12.641 10.6C11.6703 11.2304 10.8616 12.0803 10.28 13.081C9.018 15.251 9.37 18.223 11.1 20.036C11.71 20.674 12.37 21.246 13.114 21.717C13.19 21.766 13.329 21.802 13.396 21.765C14.089 21.379 14.774 20.976 15.46 20.578C15.474 20.569 15.482 20.55 15.496 20.53C14.976 20.195 14.448 19.871 13.936 19.522C13.294 19.082 12.695 18.589 12.246 17.939C11.339 16.629 11.436 14.959 12.473 13.754C13.225 12.88 14.175 12.266 15.147 11.684C16.391 10.937 19.567 8.997 19.89 8.744C20.007 8.654 20.084 8.628 20.222 8.709C21.553 9.489 22.891 10.256 24.22 11.038C24.3 11.085 24.376 11.218 24.376 11.313C24.386 14.438 24.386 17.563 24.379 20.689C24.379 20.784 24.309 20.922 24.229 20.969C22.883 21.759 21.531 22.538 20.179 23.319C20.149 23.336 20.115 23.349 20.092 23.36C19.676 23.06 19.272 22.763 18.859 22.48ZM21.753 13.143C21.051 11.899 20.005 11.001 18.836 10.232C18.756 10.179 18.575 10.213 18.474 10.269C17.916 10.577 17.367 10.903 16.815 11.224C16.708 11.287 16.602 11.352 16.467 11.433L16.647 11.557C17.24 11.948 17.85 12.317 18.424 12.737C19.23 13.326 19.914 14.027 20.234 15.017C20.252 15.073 20.346 15.143 20.406 15.144C21.061 15.153 21.716 15.149 22.393 15.149C22.355 14.542 22.098 13.755 21.753 13.143Z" fill="black"/>
</g>
<defs>
<clipPath id="clip0_16_2690">
<rect width="32" height="32" fill="white"/>
</clipPath>
</defs>
</svg>
