<svg width="32" height="32" viewBox="0 0 32 32" fill="none" xmlns="http://www.w3.org/2000/svg">
<g clip-path="url(#clip0_16_2696)">
<path d="M16 0C24.837 0 32 7.163 32 16C32 24.837 24.837 32 16 32C7.163 32 0 24.837 0 16C0 7.163 7.163 0 16 0ZM20.707 19.543C20.5195 19.3555 20.2652 19.2502 20 19.2502C19.7348 19.2502 19.4805 19.3555 19.293 19.543L15.293 23.543C15.1975 23.6352 15.1213 23.7456 15.0689 23.8676C15.0165 23.9896 14.9889 24.1208 14.9877 24.2536C14.9866 24.3864 15.0119 24.5181 15.0622 24.641C15.1125 24.7638 15.1867 24.8755 15.2806 24.9694C15.3745 25.0633 15.4861 25.1375 15.609 25.1878C15.7319 25.2381 15.8636 25.2634 15.9964 25.2623C16.1292 25.2611 16.2604 25.2335 16.3824 25.1811C16.5044 25.1287 16.6148 25.0525 16.707 24.957L20.707 20.957C20.8945 20.7695 20.9998 20.5152 20.9998 20.25C20.9998 19.9848 20.8945 19.7305 20.707 19.543ZM15 7.25C14.2121 7.25 13.4319 7.40519 12.7039 7.70672C11.9759 8.00825 11.3145 8.45021 10.7574 9.00736C10.2002 9.56451 9.75825 10.2259 9.45672 10.9539C9.15519 11.6819 9 12.4621 9 13.25C9 14.0379 9.15519 14.8181 9.45672 15.5461C9.75825 16.2741 10.2002 16.9355 10.7574 17.4926C11.3145 18.0498 11.9759 18.4917 12.7039 18.7933C13.4319 19.0948 14.2121 19.25 15 19.25C16.5913 19.25 18.1174 18.6179 19.2426 17.4926C20.3679 16.3674 21 14.8413 21 13.25C21 11.6587 20.3679 10.1326 19.2426 9.00736C18.1174 7.88214 16.5913 7.25 15 7.25ZM15 9.25C16.0609 9.25 17.0783 9.67143 17.8284 10.4216C18.5786 11.1717 19 12.1891 19 13.25C19 14.3109 18.5786 15.3283 17.8284 16.0784C17.0783 16.8286 16.0609 17.25 15 17.25C13.9391 17.25 12.9217 16.8286 12.1716 16.0784C11.4214 15.3283 11 14.3109 11 13.25C11 12.1891 11.4214 11.1717 12.1716 10.4216C12.9217 9.67143 13.9391 9.25 15 9.25ZM22 7.25C21.7348 7.25 21.4804 7.35536 21.2929 7.54289C21.1054 7.73043 21 7.98478 21 8.25C21 8.51522 21.1054 8.76957 21.2929 8.95711C21.4804 9.14464 21.7348 9.25 22 9.25C22.2652 9.25 22.5196 9.14464 22.7071 8.95711C22.8946 8.76957 23 8.51522 23 8.25C23 7.98478 22.8946 7.73043 22.7071 7.54289C22.5196 7.35536 22.2652 7.25 22 7.25Z" fill="black"/>
</g>
<defs>
<clipPath id="clip0_16_2696">
<rect width="32" height="32" fill="white"/>
</clipPath>
</defs>
</svg>
