<svg width="32" height="32" viewBox="0 0 32 32" fill="none" xmlns="http://www.w3.org/2000/svg">
<g clip-path="url(#clip0_16_2700)">
<path d="M15.547 10.221C14.762 8.871 14.044 7.953 13.37 7.457C12.538 6.844 11.685 6.839 11.017 7.495C10.382 8.118 10.323 8.905 10.81 9.649C10.937 9.842 11.1 10.033 11.298 10.221H8.358C7.568 10.221 7 10.888 7 11.554C7 12.33 7.68 12.888 8.358 12.888H15.376V11.11H16.508V12.888H23.642C24.432 12.888 25 12.221 25 11.554C25 10.779 24.32 10.221 23.642 10.221H20.734C20.926 10.023 21.081 9.821 21.196 9.615C21.608 8.875 21.491 8.107 20.867 7.495C20.199 6.839 19.347 6.845 18.515 7.457C17.84 7.953 17.122 8.872 16.338 10.221H15.547ZM14.231 10.221H13.211C12.495 9.815 11.998 9.408 11.761 9.047C11.555 8.731 11.571 8.523 11.817 8.28C12.058 8.044 12.282 8.045 12.69 8.346C13.133 8.671 13.652 9.298 14.231 10.221ZM17.653 10.221C18.233 9.298 18.751 8.671 19.193 8.346C19.602 8.046 19.826 8.044 20.067 8.28C20.337 8.546 20.373 8.777 20.203 9.081C20.007 9.433 19.556 9.829 18.873 10.221H17.653ZM16 32C7.163 32 0 24.837 0 16C0 7.163 7.163 0 16 0C24.837 0 32 7.163 32 16C32 24.837 24.837 32 16 32ZM15.376 14H8.02V21.222C8.012 21.961 8.308 22.672 8.84 23.194C9.372 23.716 10.097 24.007 10.85 24H15.377L15.376 14ZM16.508 14V24H21.036C21.786 24.0082 22.5086 23.7183 23.045 23.194C23.3074 22.9375 23.5153 22.6305 23.6562 22.2917C23.7971 21.9528 23.8682 21.589 23.865 21.222V13.999L16.508 14Z" fill="black"/>
</g>
<defs>
<clipPath id="clip0_16_2700">
<rect width="32" height="32" fill="white"/>
</clipPath>
</defs>
</svg>
