<svg width="32" height="32" viewBox="0 0 32 32" fill="none" xmlns="http://www.w3.org/2000/svg">
<g clip-path="url(#clip0_16_2702)">
<path d="M16 32C7.163 32 0 24.837 0 16C0 7.163 7.163 0 16 0C24.837 0 32 7.163 32 16C32 24.837 24.837 32 16 32ZM15.99 12.679L18.79 9.859C17.9557 8.5061 17.0232 7.2163 16 6C14.9751 7.22154 14.0412 8.51669 13.206 9.875L15.99 12.679ZM21.708 15.489C20.949 13.813 20.193 12.255 19.318 10.741L15.99 14.093L12.68 10.759C11.852 12.197 11.122 13.693 10.4 15.316C9.614 17.518 8.322 19.893 9.43 22.007C11.337 25.651 15.817 27.061 19.436 25.142C20.7644 24.433 21.8488 23.3406 22.548 22.007C23.647 19.893 22.494 17.691 21.708 15.49V15.489Z" fill="black"/>
</g>
<defs>
<clipPath id="clip0_16_2702">
<rect width="32" height="32" fill="white"/>
</clipPath>
</defs>
</svg>
