<svg width="32" height="32" viewBox="0 0 32 32" fill="none" xmlns="http://www.w3.org/2000/svg">
<g clip-path="url(#clip0_16_2710)">
<path d="M9.254 8.307C9.22997 8.30825 9.20597 8.30991 9.182 8.312C9.102 8.412 9.004 8.352 8.904 8.372C8.547 8.432 8.27 8.689 8.29 8.986C8.31 9.324 8.587 9.403 8.865 9.462C9.539 9.622 10.214 9.562 10.888 9.582C11.701 9.582 12.158 9.978 12.276 10.792C12.356 11.386 14.141 27.016 14.161 27.353C14.1626 27.4219 14.1868 27.4883 14.2298 27.5421C14.2728 27.5959 14.3322 27.6342 14.399 27.651C15.073 27.856 15.777 27.951 16.481 27.929C17.272 27.949 18.061 27.849 18.821 27.631C18.941 27.591 19.04 27.551 19.04 27.393C19.06 26.977 20.19 12.041 20.19 11.803C20.1782 11.1083 20.402 10.4301 20.825 9.879C21.162 9.482 21.539 9.125 21.876 8.729C21.8784 8.71573 21.8804 8.70239 21.882 8.689C22.277 8.669 22.672 8.669 23.066 8.629C23.245 8.609 23.523 8.609 23.503 8.272C23.463 8.074 23.146 7.519 21.698 7.856C21.559 7.896 20.766 8.134 20.488 7.995C20.911 7.721 21.348 7.47 21.797 7.241C21.995 7.082 22.154 6.864 22.035 6.626C21.916 6.388 21.678 6.408 21.46 6.487C21.0491 6.61468 20.6749 6.83934 20.369 7.142C20.168 7.346 19.949 7.532 19.714 7.697C19.139 7.975 19.139 7.975 19 7.935C18.822 7.855 18.623 7.717 18.762 7.519C18.843 7.39 18.903 7.249 18.941 7.102C19.001 6.844 18.921 6.765 18.742 6.765C18.385 6.785 18.266 7.3 18.207 7.38C18.169 7.458 18.122 7.53 18.068 7.598C18.022 7.64346 17.9641 7.67507 17.901 7.68922C17.8379 7.70336 17.772 7.69948 17.711 7.678C17.592 7.658 17.493 7.598 17.592 7.439C17.771 7.162 18.326 6.725 18.485 6.15C18.485 6.15 18.762 5.396 17.989 5.377C17.572 5.357 17.235 5.654 17.116 6.11C16.997 6.586 17.255 7.241 17.116 7.558C17.066 7.692 16.999 7.818 16.918 7.935C16.7844 8.05475 16.6114 8.12098 16.432 8.12098C16.2526 8.12098 16.0796 8.05475 15.946 7.935C15.8697 7.846 15.814 7.74118 15.7831 7.6281C15.7521 7.51501 15.7466 7.39646 15.767 7.281C15.835 7.01955 15.888 6.75446 15.926 6.487C15.946 6.289 15.589 5.932 15.291 6.17C15.152 6.27 15.211 6.428 15.271 6.567C15.371 6.864 15.549 7.717 14.577 7.3C14.2 7.102 14.517 6.13 14.379 5.773C14.366 5.71796 14.3395 5.667 14.302 5.62465C14.2645 5.58231 14.2171 5.54989 14.1641 5.53029C14.111 5.51069 14.0539 5.50452 13.9979 5.51232C13.9419 5.52012 13.8887 5.54165 13.843 5.575C13.7915 5.59595 13.7453 5.62793 13.7075 5.66869C13.6697 5.70945 13.6413 5.75801 13.6244 5.81093C13.6074 5.86385 13.6022 5.91984 13.6093 5.97497C13.6163 6.0301 13.6353 6.08302 13.665 6.13C13.745 6.289 14.22 7.201 13.843 7.36C13.704 7.42 13.407 7.3 13.209 7.181C12.495 6.864 12.376 5.773 12.157 5.634C12.0557 5.55929 11.9323 5.52066 11.8066 5.52429C11.6808 5.52791 11.5598 5.57358 11.463 5.654C11.3654 5.70902 11.2913 5.79793 11.2548 5.9039C11.2183 6.00986 11.2219 6.12553 11.265 6.229C11.364 6.408 11.741 6.507 11.82 7.122L11.843 7.139C11.835 7.139 11.827 7.139 11.82 7.142C11.701 7.142 11.642 7.062 11.562 7.003C11.3843 6.88088 11.18 6.80277 10.9662 6.77513C10.7523 6.74748 10.5349 6.77109 10.332 6.844C10.2471 6.86401 10.1699 6.9085 10.11 6.97196C10.0501 7.03542 10.0101 7.11505 9.995 7.201C9.99605 7.29264 10.0252 7.38176 10.0785 7.45632C10.1318 7.53089 10.2066 7.58732 10.293 7.618C10.49 7.692 10.682 7.778 10.868 7.876C10.968 7.916 11.126 7.936 11.106 8.114V8.12C11.0901 8.09995 11.0695 8.08415 11.046 8.074C10.5566 8.13563 10.0608 8.03103 9.638 7.777C9.54233 7.70946 9.4281 7.67321 9.311 7.67321C9.1939 7.67321 9.07967 7.70946 8.984 7.777C8.726 7.995 9.103 8.253 9.123 8.253C9.16315 8.27786 9.20705 8.29609 9.253 8.307H9.254ZM13.919 7.416C13.894 7.42094 13.8693 7.42728 13.845 7.435C13.8573 7.42909 13.87 7.42408 13.883 7.42C13.895 7.41841 13.907 7.41707 13.919 7.416ZM16 32C7.163 32 0 24.837 0 16C0 7.163 7.163 0 16 0C24.837 0 32 7.163 32 16C32 24.837 24.837 32 16 32ZM23.88 9.443C23.126 9.165 21.46 9.581 21.38 9.7C21.698 9.76 21.797 9.8 22.273 9.879C22.783 9.972 23.273 10.153 23.721 10.415C24.197 10.692 24.395 10.315 24.395 10.315C24.475 10.137 24.257 9.581 23.88 9.443ZM10.333 6.15C10.2111 5.95773 10.0786 5.77244 9.936 5.595C9.559 5.198 8.826 5 8.428 5.198C8.21 5.298 8.111 5.436 8.29 5.674C8.507 5.889 8.783 6.034 9.083 6.091C9.261 6.131 10.055 6.309 10.253 6.348C10.453 6.348 10.333 6.15 10.333 6.15ZM24.257 7.42C24.297 7.3 24.257 6.904 23.542 7.003C22.947 7.103 22.531 7.261 22.551 7.34C22.571 7.42 23.225 7.539 23.364 7.558C23.919 7.658 24.237 7.498 24.257 7.42ZM17.037 4.107C16.9675 4.04268 16.8773 4.00531 16.7827 4.00164C16.6881 3.99798 16.5953 4.02825 16.521 4.087C15.926 4.464 16.362 5.753 16.421 5.753C16.481 5.753 16.541 5.297 17.136 4.623C17.1642 4.58285 17.184 4.53743 17.1943 4.48945C17.2045 4.44147 17.205 4.39192 17.1957 4.34375C17.1863 4.29558 17.1674 4.24979 17.1399 4.20911C17.1125 4.16844 17.0772 4.13371 17.036 4.107H17.037Z" fill="black"/>
</g>
<defs>
<clipPath id="clip0_16_2710">
<rect width="32" height="32" fill="white"/>
</clipPath>
</defs>
</svg>
