<svg width="32" height="32" viewBox="0 0 32 32" fill="none" xmlns="http://www.w3.org/2000/svg">
<g clip-path="url(#clip0_16_2716)">
<path d="M16 32C7.163 32 0 24.837 0 16C0 7.163 7.163 0 16 0C24.837 0 32 7.163 32 16C32 24.837 24.837 32 16 32ZM7.973 16.453C7.455 16.865 6.993 17.597 7.016 18.716C7.033 19.49 7.449 20.02 7.973 20.38V21.763C7.973 22.626 8.393 23.435 9.101 23.93L13.954 27.249V10.29L7.973 12.04V16.453ZM14.373 22.949V27.255H17.636V22.95H14.373V22.949ZM13.633 9.969L13.923 10.259L8.843 5.159C8.77162 5.08787 8.68077 5.03947 8.58191 5.01993C8.48305 5.00039 8.38062 5.01057 8.28754 5.04919C8.19446 5.08781 8.11491 5.15314 8.05893 5.23694C8.00295 5.32073 7.97305 5.41923 7.973 5.52V11.59L13.633 9.97V9.969ZM14.373 16.04V22.534H17.636V16.04H14.374H14.373ZM18.366 9.97L24.027 11.59V5.52C24.0268 5.41931 23.9967 5.32095 23.9407 5.23731C23.8846 5.15367 23.805 5.0885 23.712 5.05C23.619 5.0115 23.5166 5.0014 23.4178 5.02098C23.3191 5.04055 23.2283 5.08893 23.157 5.16L18.157 10.18L18.367 9.97H18.366ZM14.374 10.291V15.621H17.636V10.291H14.374ZM24.027 16.453V12.04L18.056 10.294V27.255L22.899 23.93C23.2473 23.686 23.5316 23.3616 23.7279 22.9844C23.9243 22.6072 24.0269 22.1882 24.027 21.763V20.38C24.551 20.02 24.967 19.49 24.984 18.716C25.008 17.597 24.545 16.865 24.027 16.453ZM9.276 16.045C10.283 16.782 10.283 21.161 10.283 21.161C10.283 21.161 9.144 21.051 8.203 20.525C8.979 20.786 9.602 20.728 9.873 20.758L9.891 20.759H9.895L9.909 20.761L9.947 20.764L9.96 20.766H9.973C9.973 20.766 10.133 16.944 8.976 16.274C8.788 16.209 8.456 16.247 8.09 16.364C8.556 16.05 9.043 15.944 9.276 16.045ZM22.066 20.827H22.08L22.092 20.826L22.109 20.824H22.113L22.148 20.821H22.15L22.166 20.819L22.315 20.802H22.322C22.648 20.76 23.048 20.764 23.662 20.572L23.798 20.527C22.856 21.053 21.718 21.163 21.718 21.163C21.718 21.163 21.718 16.785 22.725 16.048C22.958 15.946 23.445 16.052 23.91 16.368C23.544 16.251 23.213 16.213 23.024 16.278C21.867 16.947 22.066 20.828 22.066 20.828V20.827Z" fill="black"/>
</g>
<defs>
<clipPath id="clip0_16_2716">
<rect width="32" height="32" fill="white"/>
</clipPath>
</defs>
</svg>
