<svg width="32" height="32" viewBox="0 0 32 32" fill="none" xmlns="http://www.w3.org/2000/svg">
<g clip-path="url(#clip0_16_2718)">
<path d="M16 32C7.163 32 0 24.837 0 16C0 7.163 7.163 0 16 0C24.837 0 32 7.163 32 16C32 24.837 24.837 32 16 32ZM7 21.23C6.882 21.494 6.782 21.73 6.673 21.985C6.491 22.404 6.3 22.822 6.118 23.241C6.091 23.295 6.109 23.313 6.155 23.322C6.236 23.341 6.318 23.35 6.4 23.359C6.628 23.368 6.864 23.377 7.1 23.377C7.255 23.387 7.419 23.387 7.583 23.377C7.864 23.35 8.146 23.322 8.428 23.277C9.24791 23.1623 10.0455 22.9228 10.793 22.567C11.1945 22.3816 11.5781 22.1597 11.939 21.904C12.239 21.676 12.539 21.449 12.821 21.204C13.003 21.04 13.176 20.867 13.331 20.676C13.549 20.43 13.749 20.166 13.94 19.903C14.186 19.557 14.386 19.184 14.55 18.793C14.75 18.329 14.895 17.847 14.986 17.356H16.823C16.905 17.356 16.95 17.374 16.95 17.466C16.96 17.511 16.969 17.566 16.987 17.611C17.087 18.084 17.232 18.548 17.442 18.984C17.7934 19.7247 18.2666 20.4011 18.842 20.985C18.97 21.121 19.115 21.258 19.261 21.376C19.488 21.558 19.715 21.74 19.951 21.913C20.407 22.231 20.879 22.495 21.389 22.713C21.8131 22.8939 22.2512 23.0401 22.699 23.15C23.071 23.231 23.453 23.295 23.826 23.35C24.099 23.386 24.381 23.413 24.663 23.413C24.973 23.413 25.291 23.395 25.6 23.377C25.727 23.367 25.845 23.341 25.973 23.313C25.836 23.004 25.709 22.713 25.582 22.422C25.4203 22.0601 25.2626 21.6964 25.109 21.331C25.099 21.312 25.081 21.303 25.063 21.294C24.973 21.285 24.881 21.285 24.79 21.276L24.072 21.221C23.6844 21.1859 23.3026 21.1036 22.935 20.976C22.5527 20.8498 22.1842 20.6853 21.835 20.485C21.2994 20.1874 20.819 19.7997 20.415 19.339C20.2597 19.1589 20.1141 18.9707 19.979 18.775C19.7517 18.4404 19.571 18.0764 19.442 17.693C19.406 17.583 19.379 17.474 19.342 17.347H20.67C20.816 17.347 20.852 17.32 20.907 17.192C21.089 16.756 21.28 16.328 21.462 15.901L21.725 15.301C21.716 15.291 21.707 15.291 21.698 15.282C21.4281 15.1919 21.1455 15.146 20.861 15.146C20.388 15.136 19.906 15.146 19.433 15.146H19.333C19.343 15.119 19.343 15.082 19.352 15.055C19.461 14.682 19.606 14.327 19.788 13.991C20.015 13.581 20.298 13.209 20.625 12.881C20.752 12.745 20.907 12.627 21.043 12.508C21.38 12.226 21.743 11.99 22.135 11.799C22.9721 11.3945 23.8883 11.1801 24.818 11.171C24.872 11.181 24.918 11.181 24.972 11.171C25.036 11.153 25.127 11.19 25.163 11.099C25.218 10.953 25.281 10.817 25.345 10.68C25.518 10.29 25.682 9.907 25.845 9.525L26 9.161C25.982 9.143 25.982 9.134 25.973 9.134C25.763 9.098 25.554 9.052 25.345 9.044C25.136 9.034 24.927 9.044 24.709 9.044C24.563 9.044 24.427 9.052 24.281 9.061C24.054 9.08 23.826 9.098 23.608 9.134C23.3419 9.16863 23.0779 9.21737 22.817 9.28C22.471 9.37 22.126 9.48 21.78 9.598C21.28 9.78 20.807 10.008 20.352 10.289C19.9116 10.5591 19.4975 10.8698 19.115 11.217C18.931 11.3847 18.758 11.5641 18.597 11.754C18.3806 12.001 18.177 12.2591 17.987 12.527C17.778 12.817 17.597 13.136 17.451 13.463C17.269 13.854 17.123 14.263 17.014 14.691C16.9883 14.8375 16.9583 14.9833 16.924 15.128H15.077C15.0607 15.1274 15.0449 15.1218 15.0319 15.112C15.0188 15.1021 15.0091 15.0885 15.004 15.073C14.959 14.873 14.922 14.663 14.868 14.463C14.7067 13.8534 14.4553 13.2713 14.122 12.736C13.7864 12.1978 13.3861 11.7028 12.93 11.262C12.84 11.181 12.749 11.099 12.658 11.026C12.458 10.862 12.248 10.698 12.039 10.544C11.5649 10.2076 11.0556 9.92397 10.52 9.698C10.1359 9.53433 9.74096 9.39734 9.338 9.288C8.70782 9.12275 8.06113 9.0285 7.41 9.007C7.00287 8.98843 6.59489 9.00651 6.191 9.061L6 9.116C6.091 9.326 6.182 9.516 6.264 9.716C6.373 9.953 6.473 10.198 6.582 10.444C6.673 10.653 6.764 10.854 6.855 11.062C6.85873 11.0751 6.86574 11.087 6.87537 11.0966C6.88499 11.1063 6.89691 11.1133 6.91 11.117C6.973 11.126 7.037 11.135 7.1 11.135C7.364 11.153 7.619 11.162 7.883 11.19C8.219 11.235 8.547 11.308 8.865 11.408C9.247 11.535 9.62 11.699 9.975 11.899C10.32 12.09 10.629 12.317 10.911 12.581C11.139 12.799 11.348 13.027 11.539 13.272C11.93 13.772 12.212 14.346 12.376 14.964C12.394 15.028 12.394 15.082 12.412 15.155H12.294C11.848 15.155 11.412 15.146 10.966 15.155C10.912 15.1536 10.8596 15.1733 10.82 15.21C10.7841 15.2627 10.7567 15.3207 10.739 15.382L10.184 16.665C10.1119 16.8453 10.0358 17.024 9.956 17.201C9.966 17.211 9.975 17.22 9.993 17.229C10.02 17.229 10.047 17.238 10.075 17.247C10.365 17.311 10.657 17.347 10.957 17.347H12.385C12.375 17.374 12.375 17.411 12.367 17.437C12.2614 17.8303 12.1086 18.2094 11.912 18.566C11.684 18.966 11.402 19.339 11.075 19.666C10.9208 19.8101 10.76 19.9469 10.593 20.076C10.0203 20.5215 9.36502 20.8491 8.665 21.04C8.31058 21.1348 7.94853 21.1984 7.583 21.23C7.392 21.24 7.191 21.23 7 21.23Z" fill="black"/>
</g>
<defs>
<clipPath id="clip0_16_2718">
<rect width="32" height="32" fill="white"/>
</clipPath>
</defs>
</svg>
