<svg width="32" height="32" viewBox="0 0 32 32" fill="none" xmlns="http://www.w3.org/2000/svg">
<g clip-path="url(#clip0_16_2726)">
<path d="M16 32C7.163 32 0 24.837 0 16C0 7.163 7.163 0 16 0C24.837 0 32 7.163 32 16C32 24.837 24.837 32 16 32ZM18.347 10.533C18.347 7.013 16.64 4.027 15.36 3.067C15.36 3.067 15.253 2.96 15.253 3.173C15.147 9.893 11.733 11.707 9.92 14.267C5.547 19.92 9.6 26.213 13.76 27.387C16.107 28.027 13.227 26.213 12.907 22.48C12.373 17.787 18.347 14.373 18.347 10.533ZM20.587 12.88C20.373 13.733 19.52 15.547 18.347 17.253C14.4 22.907 16.64 25.68 17.92 27.173C18.667 28.027 17.92 27.173 19.733 26.32C19.84 26.213 23.36 24.4 23.68 20.24C24.107 16.187 21.547 13.627 20.587 12.88Z" fill="black"/>
</g>
<defs>
<clipPath id="clip0_16_2726">
<rect width="32" height="32" fill="white"/>
</clipPath>
</defs>
</svg>
