<svg width="32" height="32" viewBox="0 0 32 32" fill="none" xmlns="http://www.w3.org/2000/svg">
<g clip-path="url(#clip0_16_2728)">
<path fill-rule="evenodd" clip-rule="evenodd" d="M16.02 16.945L15.491 18.585H14.703L16.02 14.478V7.945H23.364L21.967 23.335L16.02 24.937V16.945ZM16 32C7.163 32 0 24.837 0 16C0 7.163 7.163 0 16 0C24.837 0 32 7.163 32 16C32 24.837 24.837 32 16 32ZM8.636 24.469L15.98 26.5L23.364 24.469L25 6.5H7L8.636 24.469ZM13.799 17.676L10.273 16.244V15.652L13.799 14.219V14.961L11.33 15.951L13.8 16.935L13.799 17.676ZM21.732 16.244V15.652L18.205 14.219V14.961L20.675 15.948L18.205 16.935V17.676L21.732 16.244ZM16.02 16.944L17.12 13.531H16.324L16.02 14.478V16.944Z" fill="black"/>
</g>
<defs>
<clipPath id="clip0_16_2728">
<rect width="32" height="32" fill="white"/>
</clipPath>
</defs>
</svg>
