<svg width="32" height="32" viewBox="0 0 32 32" fill="none" xmlns="http://www.w3.org/2000/svg">
<g clip-path="url(#clip0_16_2738)">
<path d="M16 0C24.837 0 32 7.163 32 16C32 24.837 24.837 32 16 32C7.163 32 0 24.837 0 16C0 7.163 7.163 0 16 0ZM9.83 10.5H9.824L9.576 10.506C6.95 10.623 4.768 12.379 4.166 14.704C4.05602 15.1269 4.00024 15.562 4 15.999C4 19.033 6.615 21.5 9.83 21.5C11.17 21.5 12.633 20.833 14.178 19.518C14.8319 18.9538 15.4467 18.3457 16.018 17.698V17.697L16.148 17.837C17.743 19.54 19.833 21.36 21.934 21.492L22.176 21.5L22.424 21.494C25.054 21.377 27.237 19.617 27.837 17.287L27.84 17.277C27.945 16.867 28 16.44 28 16.001C28 12.967 25.385 10.5 22.17 10.5C20.83 10.5 19.367 11.167 17.822 12.482C17.1681 13.0462 16.5533 13.6543 15.982 14.302L16.008 14.332L15.852 14.164C14.257 12.461 12.167 10.64 10.072 10.508L9.829 10.5H9.83ZM22.17 12.693C24.098 12.693 25.666 14.177 25.666 16C25.666 17.814 24.097 19.296 22.168 19.308C22.12 19.308 22.065 19.305 21.999 19.296C20.784 18.854 19.762 18.089 19.491 17.846C19.243 17.623 18.914 17.306 18.558 16.952L18.247 16.642L17.561 15.949C18.1235 15.2906 18.7342 14.6749 19.388 14.107C20.762 12.938 21.66 12.693 22.171 12.693H22.17ZM9.832 12.693C9.89 12.693 9.96 12.697 10.042 12.707C11.238 13.157 12.242 13.914 12.509 14.155C12.863 14.472 13.382 14.984 13.912 15.518L14.23 15.841C14.3 15.911 14.369 15.983 14.439 16.051C13.8765 16.7094 13.2658 17.3251 12.612 17.893C11.238 19.062 10.34 19.307 9.829 19.307C7.902 19.307 6.334 17.823 6.334 16C6.334 14.186 7.903 12.704 9.832 12.692V12.693Z" fill="black"/>
</g>
<defs>
<clipPath id="clip0_16_2738">
<rect width="32" height="32" fill="white"/>
</clipPath>
</defs>
</svg>
