<svg width="32" height="32" viewBox="0 0 32 32" fill="none" xmlns="http://www.w3.org/2000/svg">
<g clip-path="url(#clip0_16_2740)">
<path fill-rule="evenodd" clip-rule="evenodd" d="M11.296 22.472C12.837 23.5937 14.7279 24.1284 16.6282 23.9797C18.5284 23.831 20.3132 23.0087 21.6609 21.6609C23.0087 20.3132 23.831 18.5284 23.9797 16.6282C24.1284 14.7279 23.5937 12.837 22.472 11.296L20.308 13.46C20.8721 14.415 21.1027 15.5305 20.9634 16.6309C20.8241 17.7313 20.3228 18.7542 19.5385 19.5385C18.7542 20.3228 17.7313 20.8241 16.6309 20.9634C15.5305 21.1027 14.415 20.8721 13.46 20.308L11.296 22.472ZM9.528 20.704L11.692 18.54C11.1279 17.585 10.8973 16.4695 11.0366 15.3691C11.1759 14.2687 11.6772 13.2458 12.4615 12.4615C13.2458 11.6772 14.2687 11.1759 15.3691 11.0366C16.4695 10.8973 17.585 11.1279 18.54 11.692L20.704 9.528C19.163 8.40627 17.2721 7.8716 15.3718 8.0203C13.4716 8.16899 11.6869 8.99128 10.3391 10.3391C8.99128 11.6869 8.16899 13.4716 8.0203 15.3718C7.8716 17.2721 8.40627 19.163 9.528 20.704ZM16 32C7.163 32 0 24.837 0 16C0 7.163 7.163 0 16 0C24.837 0 32 7.163 32 16C32 24.837 24.837 32 16 32ZM24 10C24.5304 10 25.0391 9.78929 25.4142 9.41421C25.7893 9.03914 26 8.53043 26 8C26 7.46957 25.7893 6.96086 25.4142 6.58579C25.0391 6.21071 24.5304 6 24 6C23.4696 6 22.9609 6.21071 22.5858 6.58579C22.2107 6.96086 22 7.46957 22 8C22 8.53043 22.2107 9.03914 22.5858 9.41421C22.9609 9.78929 23.4696 10 24 10ZM8 26C8.53043 26 9.03914 25.7893 9.41421 25.4142C9.78929 25.0391 10 24.5304 10 24C10 23.4696 9.78929 22.9609 9.41421 22.5858C9.03914 22.2107 8.53043 22 8 22C7.46957 22 6.96086 22.2107 6.58579 22.5858C6.21071 22.9609 6 23.4696 6 24C6 24.5304 6.21071 25.0391 6.58579 25.4142C6.96086 25.7893 7.46957 26 8 26Z" fill="black"/>
</g>
<defs>
<clipPath id="clip0_16_2740">
<rect width="32" height="32" fill="white"/>
</clipPath>
</defs>
</svg>
