<svg width="32" height="32" viewBox="0 0 32 32" fill="none" xmlns="http://www.w3.org/2000/svg">
<g clip-path="url(#clip0_16_2742)">
<path fill-rule="evenodd" clip-rule="evenodd" d="M16 32C7.163 32 0 24.837 0 16C0 7.163 7.163 0 16 0C24.837 0 32 7.163 32 16C32 24.837 24.837 32 16 32ZM14.812 6C13.808 8.89 12.612 11.715 11.565 14.59C12.292 15.888 12.982 17.205 13.718 18.496L19.263 8.825C17.758 7.915 16.33 6.888 14.812 6ZM10 26C11.595 25.966 13.188 25.986 14.783 25.986C17.17 21.745 19.594 17.523 22 13.29C21.1657 11.8346 20.3337 10.378 19.504 8.92C16.4 14.645 13.139 20.291 10 26ZM15.082 25.977C17.202 24.728 19.321 23.477 21.427 22.202C20.63 21.17 19.815 20.149 19.012 19.122C17.665 21.386 16.412 23.702 15.082 25.977Z" fill="black"/>
</g>
<defs>
<clipPath id="clip0_16_2742">
<rect width="32" height="32" fill="white"/>
</clipPath>
</defs>
</svg>
