<svg width="32" height="32" viewBox="0 0 32 32" fill="none" xmlns="http://www.w3.org/2000/svg">
<g clip-path="url(#clip0_16_2744)">
<path d="M16 32C7.163 32 0 24.837 0 16C0 7.163 7.163 0 16 0C24.837 0 32 7.163 32 16C32 24.837 24.837 32 16 32ZM15.79 4C9.279 4 4 9.279 4 15.79C4 22.301 9.279 27.58 15.79 27.58C22.301 27.58 27.58 22.301 27.58 15.79C27.569 9.283 22.297 4.011 15.79 4ZM15.79 26C10.158 26 5.592 21.435 5.59 15.803C5.588 10.171 10.151 5.603 15.783 5.6C21.415 5.596 25.984 10.158 25.99 15.79C25.984 21.421 21.421 25.984 15.79 25.99V26ZM10.58 14.74V11.04H13.18V14.74H15.06V10.58C15.0897 10.4217 15.0806 10.2585 15.0336 10.1044C14.9867 9.95031 14.9032 9.80984 14.7903 9.69496C14.6773 9.58007 14.5383 9.49417 14.3851 9.44455C14.2318 9.39494 14.0688 9.38308 13.91 9.41H9.79C9.05 9.41 8.68 9.8 8.68 10.58V14.74H10.58ZM13.18 15.96L13.19 15.94H8.69V20.94C8.66063 21.0943 8.66804 21.2534 8.71163 21.4044C8.75522 21.5553 8.83377 21.6939 8.9409 21.8088C9.04804 21.9237 9.18074 22.0118 9.32827 22.0659C9.47579 22.1199 9.63397 22.1385 9.79 22.12H13.93C14.0878 22.1464 14.2497 22.1346 14.4021 22.0855C14.5544 22.0364 14.6927 21.9514 14.8054 21.8378C14.918 21.7241 15.0018 21.5851 15.0496 21.4323C15.0974 21.2796 15.1078 21.1176 15.08 20.96V15.96H13.18ZM20.98 16.03H18.4V11.13H20.9V13.67H22.9V10.67C22.9323 10.5067 22.9234 10.3379 22.874 10.179C22.8246 10.02 22.7363 9.87591 22.6172 9.75971C22.498 9.64351 22.3517 9.5589 22.1915 9.51355C22.0314 9.46819 21.8624 9.46354 21.7 9.5H17.6C17.4397 9.46935 17.2744 9.4784 17.1184 9.52635C16.9624 9.57431 16.8205 9.65971 16.7051 9.7751C16.5897 9.8905 16.5043 10.0324 16.4564 10.1884C16.4084 10.3444 16.3994 10.5097 16.43 10.67V21.03C16.4026 21.1866 16.413 21.3476 16.4603 21.4994C16.5076 21.6512 16.5904 21.7896 16.7019 21.903C16.8133 22.0164 16.9502 22.1016 17.1012 22.1515C17.2522 22.2014 17.4129 22.2146 17.57 22.19H21.74C21.8986 22.2183 22.0616 22.2078 22.2153 22.1595C22.369 22.1112 22.5087 22.0265 22.6226 21.9126C22.7365 21.7987 22.8212 21.659 22.8695 21.5053C22.9178 21.3516 22.9283 21.1886 22.9 21.03V16.03H20.98Z" fill="black"/>
</g>
<defs>
<clipPath id="clip0_16_2744">
<rect width="32" height="32" fill="white"/>
</clipPath>
</defs>
</svg>
