<svg width="32" height="32" viewBox="0 0 32 32" fill="none" xmlns="http://www.w3.org/2000/svg">
<g clip-path="url(#clip0_16_2752)">
<path fill-rule="evenodd" clip-rule="evenodd" d="M7.026 19.009C8.378 22.802 11.988 25.517 16.228 25.517C16.9551 25.5174 17.6799 25.4366 18.389 25.276C18.5869 25.7837 18.9334 26.2199 19.3832 26.5275C19.8329 26.8351 20.3651 26.9998 20.91 27C21.6291 26.9981 22.318 26.7108 22.8253 26.2011C23.3325 25.6914 23.6166 25.0011 23.615 24.282C23.615 23.684 23.423 23.132 23.097 22.682C24.0188 21.768 24.75 20.6801 25.2484 19.4814C25.7467 18.2828 26.0022 16.9971 26 15.699C26.0043 13.2198 25.0696 10.831 23.384 9.013C23.5988 8.61558 23.7109 8.17076 23.71 7.719C23.7109 7.36285 23.6417 7.01002 23.5062 6.68063C23.3708 6.35124 23.1718 6.05176 22.9206 5.79927C22.6694 5.54679 22.371 5.34625 22.0423 5.20912C21.7136 5.07198 21.3611 5.00092 21.005 5C20.5589 4.99994 20.1197 5.11043 19.7267 5.32158C19.3337 5.53273 18.9992 5.83796 18.753 6.21C17.9294 5.99 17.0805 5.87905 16.228 5.88C11.551 5.88 7.642 9.181 6.682 13.591C5.96673 13.5989 5.28355 13.8891 4.78123 14.3983C4.2789 14.9076 3.99811 15.5947 4 16.31C3.99912 16.6932 4.07944 17.0722 4.23568 17.422C4.39192 17.7719 4.62052 18.0847 4.90642 18.3398C5.19233 18.5949 5.52905 18.7865 5.89439 18.9021C6.25973 19.0176 6.64541 19.0544 7.026 19.01V19.009ZM7.516 18.904C8.06668 18.729 8.54728 18.3831 8.88803 17.9165C9.22879 17.4499 9.41198 16.8868 9.411 16.309C9.411 14.971 8.448 13.859 7.181 13.633C8.116 9.479 11.811 6.378 16.228 6.378C17.016 6.378 17.781 6.476 18.511 6.662C18.3706 6.99635 18.2986 7.35539 18.299 7.718C18.2981 8.07423 18.3673 8.42715 18.5029 8.7566C18.6384 9.08605 18.8374 9.38558 19.0887 9.63808C19.34 9.89058 19.6386 10.0911 19.9674 10.2282C20.2962 10.3653 20.6488 10.4362 21.005 10.437C21.85 10.437 22.605 10.047 23.1 9.437C24.6516 11.1528 25.5089 13.3847 25.505 15.698C25.5071 16.9257 25.2665 18.1418 24.7969 19.2762C24.3274 20.4105 23.6382 21.4409 22.769 22.308C22.2681 21.8294 21.6018 21.5625 20.909 21.563C20.5089 21.5635 20.1138 21.6525 19.7522 21.8237C19.3905 21.9948 19.0712 22.2439 18.8171 22.553C18.5631 22.8621 18.3806 23.2236 18.2827 23.6116C18.1848 23.9995 18.174 24.4044 18.251 24.797C17.5869 24.945 16.9084 25.0195 16.228 25.019C12.226 25.019 8.816 22.472 7.515 18.904H7.516ZM16 32C7.163 32 0 24.837 0 16C0 7.163 7.163 0 16 0C24.837 0 32 7.163 32 16C32 24.837 24.837 32 16 32ZM16.228 18.42C16.5846 18.4192 16.9376 18.3482 17.2668 18.2109C17.5959 18.0737 17.8948 17.873 18.1464 17.6202C18.398 17.3674 18.5973 17.0676 18.7329 16.7378C18.8686 16.4079 18.9379 16.0546 18.937 15.698C18.937 14.195 17.724 12.977 16.228 12.977C14.732 12.977 13.52 14.195 13.52 15.698C13.5191 16.0545 13.5884 16.4078 13.724 16.7375C13.8596 17.0673 14.0588 17.3671 14.3103 17.6198C14.5617 17.8726 14.8605 18.0734 15.1895 18.2107C15.5186 18.3479 15.8715 18.4191 16.228 18.42Z" fill="black"/>
</g>
<defs>
<clipPath id="clip0_16_2752">
<rect width="32" height="32" fill="white"/>
</clipPath>
</defs>
</svg>
