<svg width="32" height="32" viewBox="0 0 32 32" fill="none" xmlns="http://www.w3.org/2000/svg">
<g clip-path="url(#clip0_16_2754)">
<path d="M16 32C7.163 32 0 24.837 0 16C0 7.163 7.163 0 16 0C24.837 0 32 7.163 32 16C32 24.837 24.837 32 16 32ZM8.413 11.919C8.38 11.899 8.353 11.915 8.353 11.954V14.256C8.35407 14.277 8.36006 14.2974 8.37048 14.3157C8.3809 14.3339 8.39547 14.3494 8.413 14.361L11.323 16.043C11.3405 16.0546 11.3551 16.0701 11.3655 16.0883C11.3759 16.1066 11.3819 16.127 11.383 16.148V24.478C11.3844 24.4991 11.3907 24.5197 11.4015 24.5379C11.4122 24.5561 11.4272 24.5716 11.445 24.583L13.438 25.733C13.471 25.753 13.498 25.737 13.498 25.698V14.928C13.4971 14.9068 13.4912 14.8862 13.4807 14.8678C13.4703 14.8494 13.4557 14.8337 13.438 14.822L8.413 11.919ZM23.587 11.919L18.563 14.822C18.5453 14.8335 18.5306 14.849 18.52 14.8673C18.5094 14.8855 18.5033 14.906 18.502 14.927V25.698C18.502 25.738 18.529 25.753 18.562 25.733L20.556 24.583C20.5736 24.5713 20.5882 24.5556 20.5986 24.5372C20.6091 24.5187 20.615 24.4981 20.616 24.477V16.147C20.6172 16.1259 20.6233 16.1054 20.6339 16.0872C20.6445 16.0689 20.6593 16.0535 20.677 16.042L23.587 14.361C23.6045 14.3494 23.6191 14.3339 23.6295 14.3157C23.6399 14.2974 23.6459 14.277 23.647 14.256V11.954C23.647 11.915 23.62 11.9 23.587 11.919ZM23.981 7.503C23.981 7.465 23.953 7.449 23.921 7.468L16.061 12.014C16.0421 12.0237 16.0212 12.0287 16 12.0287C15.9788 12.0287 15.9579 12.0237 15.939 12.014L8.08 7.468C8.047 7.448 8.02 7.465 8.02 7.503V9.805C8.02107 9.82598 8.02706 9.84641 8.03748 9.86465C8.0479 9.88289 8.06247 9.89843 8.08 9.91L14.884 13.844C14.9015 13.8556 14.916 13.8712 14.9264 13.8894C14.9368 13.9076 14.9429 13.928 14.944 13.949V28.234C14.945 28.2552 14.9511 28.2759 14.9617 28.2944C14.9723 28.3128 14.9872 28.3284 15.005 28.34L15.94 28.88C15.959 28.8893 15.9798 28.8942 16.001 28.8942C16.0222 28.8942 16.043 28.8893 16.062 28.88L16.997 28.34C17.0147 28.3283 17.0293 28.3126 17.0397 28.2942C17.0502 28.2758 17.0561 28.2552 17.057 28.234V13.95C17.0583 13.929 17.0644 13.9085 17.075 13.8903C17.0856 13.872 17.1003 13.8565 17.118 13.845L23.92 9.91C23.9377 9.89833 23.9523 9.88264 23.9627 9.86421C23.9732 9.84579 23.9791 9.82515 23.98 9.804V7.504L23.981 7.503ZM16.036 13.319C16.028 13.319 16.025 13.313 16.029 13.306C16.033 13.299 16.039 13.299 16.043 13.306C16.047 13.313 16.043 13.319 16.036 13.319ZM15.012 7.202C14.9928 7.20625 14.9755 7.21684 14.963 7.23207C14.9505 7.2473 14.9434 7.26629 14.943 7.286V10.159C14.9443 10.18 14.9504 10.2005 14.961 10.2187C14.9716 10.237 14.9863 10.2525 15.004 10.264L15.939 10.804C15.977 10.824 16.022 10.824 16.061 10.804L16.996 10.264C17.0135 10.2524 17.028 10.2368 17.0384 10.2186C17.0488 10.2004 17.0549 10.18 17.056 10.159V7.285C17.0558 7.26538 17.049 7.24641 17.0366 7.23116C17.0243 7.21591 17.0071 7.20528 16.988 7.201L16.068 7.032C16.0226 7.0251 15.9764 7.0251 15.931 7.032L15.012 7.202Z" fill="black"/>
</g>
<defs>
<clipPath id="clip0_16_2754">
<rect width="32" height="32" fill="white"/>
</clipPath>
</defs>
</svg>
