<svg width="32" height="32" viewBox="0 0 32 32" fill="none" xmlns="http://www.w3.org/2000/svg">
<g clip-path="url(#clip0_16_2766)">
<path fill-rule="evenodd" clip-rule="evenodd" d="M16 32C7.163 32 0 24.837 0 16C0 7.163 7.163 0 16 0C24.837 0 32 7.163 32 16C32 24.837 24.837 32 16 32ZM17.548 18.711H22.611V16.423H18.414L24.5 7.5H20.853L16.053 15.034L11.251 7.5H7.5L13.56 16.423H9.39V18.711H14.453V20.589H9.39V22.877H14.453V25.5H17.549V22.877H22.612V20.59H17.549L17.548 18.711Z" fill="black"/>
</g>
<defs>
<clipPath id="clip0_16_2766">
<rect width="32" height="32" fill="white"/>
</clipPath>
</defs>
</svg>
