<svg width="32" height="32" viewBox="0 0 32 32" fill="none" xmlns="http://www.w3.org/2000/svg">
<g clip-path="url(#clip0_16_2770)">
<path fill-rule="evenodd" clip-rule="evenodd" d="M16 32C7.163 32 0 24.837 0 16C0 7.163 7.163 0 16 0C24.837 0 32 7.163 32 16C32 24.837 24.837 32 16 32ZM19.636 13.03C19.986 13.03 20.269 12.752 20.269 12.41V12.043C20.2682 11.9607 20.2512 11.8794 20.219 11.8037C20.1867 11.7279 20.1399 11.6593 20.0811 11.6017C20.0223 11.5442 19.9527 11.4987 19.8763 11.4681C19.8 11.4374 19.7183 11.4221 19.636 11.423H19.26C19.1777 11.4221 19.096 11.4374 19.0197 11.4681C18.9433 11.4987 18.8737 11.5442 18.8149 11.6017C18.7561 11.6593 18.7093 11.7279 18.677 11.8037C18.6448 11.8794 18.6278 11.9607 18.627 12.043V13.029L19.636 13.03ZM13.701 13.03V12.043C13.7002 11.9607 13.6832 11.8794 13.651 11.8037C13.6187 11.7279 13.5719 11.6593 13.5131 11.6017C13.4543 11.5442 13.3847 11.4987 13.3083 11.4681C13.232 11.4374 13.1503 11.4221 13.068 11.423H12.693C12.6107 11.4221 12.529 11.4374 12.4527 11.4681C12.3763 11.4987 12.3067 11.5442 12.2479 11.6017C12.1891 11.6593 12.1423 11.7279 12.11 11.8037C12.0778 11.8794 12.0608 11.9607 12.06 12.043V12.41C12.06 12.752 12.343 13.03 12.693 13.03H13.701ZM12.693 19.613H13.068C13.418 19.613 13.701 19.336 13.701 18.994V18.007H12.693C12.6107 18.0061 12.529 18.0214 12.4527 18.0521C12.3763 18.0827 12.3067 18.1282 12.2479 18.1857C12.1891 18.2433 12.1423 18.3119 12.11 18.3877C12.0778 18.4634 12.0608 18.5447 12.06 18.627V18.994C12.06 19.336 12.343 19.614 12.693 19.614V19.613ZM19.26 19.613H19.636C19.986 19.613 20.269 19.336 20.269 18.994V18.627C20.2682 18.5447 20.2512 18.4634 20.219 18.3877C20.1867 18.3119 20.1399 18.2433 20.0811 18.1857C20.0223 18.1282 19.9527 18.0827 19.8763 18.0521C19.8 18.0214 19.7183 18.0061 19.636 18.007H18.626V18.994C18.626 19.336 18.91 19.614 19.26 19.614V19.613ZM15.976 11.583H16.352C16.702 11.583 16.985 11.307 16.985 10.965V10.597C16.9841 10.5148 16.967 10.4336 16.9347 10.358C16.9024 10.2824 16.8555 10.2139 16.7967 10.1564C16.7379 10.0989 16.6684 10.0536 16.5921 10.023C16.5158 9.99235 16.4342 9.97708 16.352 9.978H15.976C15.8937 9.97708 15.812 9.99239 15.7357 10.0231C15.6593 10.0537 15.5897 10.0992 15.5309 10.1567C15.4721 10.2143 15.4253 10.2829 15.393 10.3587C15.3608 10.4344 15.3438 10.5157 15.343 10.598V10.965C15.343 11.307 15.627 11.584 15.976 11.584V11.583ZM15.976 21.38H16.352C16.702 21.38 16.985 21.102 16.985 20.76V20.393C16.9842 20.3107 16.9672 20.2294 16.935 20.1537C16.9027 20.0779 16.8559 20.0093 16.7971 19.9517C16.7383 19.8942 16.6687 19.8487 16.5923 19.8181C16.516 19.7874 16.4343 19.7721 16.352 19.773H15.976C15.8937 19.7721 15.812 19.7874 15.7357 19.8181C15.6593 19.8487 15.5897 19.8942 15.5309 19.9517C15.4721 20.0093 15.4253 20.0779 15.393 20.1537C15.3608 20.2294 15.3438 20.3107 15.343 20.393V20.761C15.343 21.102 15.627 21.38 15.976 21.38ZM20.902 16.401H21.277C21.627 16.401 21.91 16.124 21.91 15.782V15.415C21.9092 15.3327 21.8922 15.2514 21.86 15.1757C21.8277 15.0999 21.7809 15.0313 21.7221 14.9737C21.6633 14.9162 21.5937 14.8707 21.5173 14.8401C21.441 14.8094 21.3593 14.7941 21.277 14.795H20.902C20.8197 14.7941 20.738 14.8094 20.6617 14.8401C20.5853 14.8707 20.5157 14.9162 20.4569 14.9737C20.3981 15.0313 20.3513 15.0999 20.319 15.1757C20.2868 15.2514 20.2698 15.3327 20.269 15.415V15.782C20.269 16.124 20.552 16.402 20.902 16.402V16.401ZM10.887 16.401H11.262C11.612 16.401 11.896 16.124 11.896 15.782V15.415C11.8952 15.3326 11.8782 15.2512 11.8459 15.1754C11.8136 15.0996 11.7666 15.031 11.7077 14.9734C11.6488 14.9158 11.5791 14.8704 11.5026 14.8398C11.4262 14.8092 11.3444 14.7939 11.262 14.795H10.887C10.8047 14.7941 10.723 14.8094 10.6467 14.8401C10.5703 14.8707 10.5007 14.9162 10.4419 14.9737C10.3831 15.0313 10.3363 15.0999 10.304 15.1757C10.2718 15.2514 10.2548 15.3327 10.254 15.415V15.782C10.254 16.124 10.537 16.402 10.887 16.402V16.401ZM18.172 14.857C18.2314 14.8574 18.2904 14.8461 18.3454 14.8236C18.4005 14.8012 18.4506 14.7682 18.4928 14.7264C18.5351 14.6846 18.5687 14.6349 18.5917 14.5801C18.6148 14.5252 18.6267 14.4664 18.627 14.407V13.19H17.374C17.3146 13.1896 17.2556 13.2009 17.2006 13.2234C17.1455 13.2458 17.0954 13.2788 17.0532 13.3206C17.0109 13.3624 16.9773 13.4121 16.9543 13.4669C16.9312 13.5218 16.9193 13.5806 16.919 13.64V14.04C16.919 14.49 16.572 14.88 16.115 14.88C15.8922 14.877 15.6793 14.7878 15.5208 14.6312C15.3623 14.4746 15.2707 14.2627 15.265 14.04V13.623C15.2646 13.5657 15.2529 13.5091 15.2307 13.4564C15.2084 13.4036 15.1759 13.3558 15.1352 13.3156C15.0944 13.2754 15.0461 13.2436 14.9931 13.222C14.94 13.2005 14.8833 13.1896 14.826 13.19H13.701V18.168H14.817C14.8755 18.1684 14.9335 18.1572 14.9878 18.1352C15.042 18.1131 15.0913 18.0806 15.1329 18.0394C15.1745 17.9983 15.2076 17.9493 15.2303 17.8954C15.2529 17.8414 15.2647 17.7835 15.265 17.725V17.351C15.265 16.875 15.62 16.476 16.077 16.476C16.2983 16.478 16.5101 16.5663 16.6673 16.7221C16.8246 16.8778 16.9148 17.0887 16.919 17.31V17.722C16.919 17.968 17.121 18.168 17.37 18.168H18.627V16.937C18.6266 16.878 18.6146 16.8197 18.5917 16.7654C18.5687 16.7111 18.5353 16.6618 18.4934 16.6204C18.4514 16.579 18.4017 16.5462 18.3471 16.524C18.2924 16.5018 18.234 16.4906 18.175 16.491H17.8C17.343 16.491 16.919 16.125 16.919 15.674C16.9209 15.456 17.009 15.2476 17.1642 15.0945C17.3194 14.9413 17.529 14.8559 17.747 14.857H18.172ZM18.653 21.422C18.5839 21.4492 18.5209 21.49 18.4677 21.5419C18.4146 21.5938 18.3723 21.6558 18.3434 21.7243C18.3145 21.7928 18.2996 21.8663 18.2996 21.9406C18.2995 22.0149 18.3143 22.0885 18.343 22.157C18.4038 22.2954 18.5161 22.4046 18.6562 22.4614C18.7963 22.5182 18.953 22.518 19.093 22.461C19.1621 22.4339 19.2251 22.3932 19.2782 22.3414C19.3314 22.2896 19.3736 22.2276 19.4025 22.1593C19.4314 22.0909 19.4463 22.0174 19.4464 21.9432C19.4465 21.8689 19.4317 21.7954 19.403 21.727C19.3424 21.5884 19.2301 21.479 19.09 21.422C18.9499 21.365 18.7931 21.365 18.653 21.422ZM13.4 8.897C13.3309 8.92415 13.2679 8.96481 13.2147 9.01661C13.1616 9.06841 13.1192 9.1303 13.0903 9.19866C13.0613 9.26701 13.0463 9.34046 13.0461 9.4147C13.0458 9.48894 13.0604 9.56247 13.089 9.631C13.1497 9.76941 13.2621 9.87864 13.4022 9.93542C13.5423 9.9922 13.699 9.99205 13.839 9.935C13.9081 9.90785 13.9711 9.86719 14.0243 9.81539C14.0774 9.76359 14.1198 9.7017 14.1487 9.63334C14.1777 9.56499 14.1927 9.49154 14.1929 9.4173C14.1932 9.34306 14.1786 9.26953 14.15 9.201C14.0892 9.06259 13.9769 8.95336 13.8368 8.89658C13.6967 8.8398 13.54 8.83995 13.4 8.897ZM21.954 13.325C22.0148 13.4634 22.1271 13.5726 22.2672 13.6294C22.4073 13.6862 22.564 13.686 22.704 13.629C22.7733 13.602 22.8365 13.5613 22.8899 13.5095C22.9433 13.4577 22.9857 13.3957 23.0148 13.3272C23.0439 13.2587 23.0589 13.1851 23.0592 13.1107C23.0594 13.0363 23.0447 12.9626 23.016 12.894C22.9552 12.7556 22.8429 12.6464 22.7028 12.5896C22.5627 12.5328 22.406 12.533 22.266 12.59C22.1967 12.617 22.1335 12.6577 22.0801 12.7095C22.0267 12.7613 21.9843 12.8233 21.9552 12.8918C21.9261 12.9603 21.9111 13.0339 21.9108 13.1083C21.9106 13.1827 21.9253 13.2564 21.954 13.325ZM9.312 18.463C9.37275 18.6017 9.4853 18.7111 9.62562 18.7679C9.76594 18.8247 9.92291 18.8244 10.063 18.767C10.1321 18.7399 10.1951 18.6992 10.2483 18.6474C10.3014 18.5956 10.3438 18.5337 10.3727 18.4653C10.4017 18.397 10.4167 18.3235 10.4169 18.2493C10.4172 18.1751 10.4026 18.1015 10.374 18.033C10.3135 17.8944 10.2011 17.785 10.0609 17.7282C9.92077 17.6714 9.76395 17.6717 9.624 17.729C9.55481 17.7561 9.49173 17.7966 9.43844 17.8484C9.38515 17.9002 9.34273 17.962 9.31367 18.0304C9.28461 18.0988 9.26949 18.1722 9.26921 18.2465C9.26892 18.3208 9.28347 18.3944 9.312 18.463ZM9.312 12.894C9.28329 12.9626 9.26856 13.0362 9.2687 13.1106C9.26884 13.1849 9.28384 13.2585 9.31281 13.327C9.34179 13.3954 9.38415 13.4574 9.43742 13.5093C9.49069 13.5612 9.55378 13.6019 9.623 13.629C9.76309 13.6864 9.92006 13.6867 10.0604 13.6299C10.2007 13.5731 10.3132 13.4637 10.374 13.325C10.4027 13.2565 10.4175 13.1829 10.4174 13.1086C10.4174 13.0343 10.4025 12.9608 10.3736 12.8923C10.3447 12.8238 10.3024 12.7618 10.2493 12.7099C10.1961 12.658 10.1331 12.6172 10.064 12.59C9.92379 12.5323 9.76658 12.5319 9.62602 12.5887C9.48547 12.6455 9.37275 12.7551 9.312 12.894ZM18.489 9.935C18.629 9.99205 18.7857 9.9922 18.9258 9.93542C19.0659 9.87864 19.1782 9.76941 19.239 9.631C19.2676 9.56254 19.2822 9.48906 19.2821 9.41487C19.2819 9.34067 19.267 9.26726 19.2381 9.19891C19.2092 9.13056 19.167 9.06866 19.114 9.01682C19.0609 8.96498 18.998 8.92425 18.929 8.897C18.789 8.83995 18.6323 8.8398 18.4922 8.89658C18.3521 8.95336 18.2398 9.06259 18.179 9.201C18.1504 9.26946 18.1358 9.34294 18.1359 9.41713C18.1361 9.49133 18.151 9.56474 18.1799 9.63309C18.2088 9.70144 18.251 9.76334 18.304 9.81518C18.3571 9.86702 18.42 9.90775 18.489 9.935ZM21.954 18.033C21.9254 18.1015 21.9108 18.1751 21.9111 18.2493C21.9113 18.3235 21.9263 18.397 21.9553 18.4653C21.9842 18.5337 22.0266 18.5956 22.0797 18.6474C22.1329 18.6992 22.1959 18.7399 22.265 18.767C22.405 18.824 22.5617 18.8242 22.7018 18.7674C22.8419 18.7106 22.9542 18.6014 23.015 18.463C23.0436 18.3945 23.0582 18.3211 23.0581 18.2469C23.0579 18.1727 23.043 18.0993 23.0141 18.0309C22.9852 17.9626 22.943 17.9007 22.89 17.8488C22.8369 17.797 22.774 17.7562 22.705 17.729C22.565 17.6717 22.4082 17.6714 22.2681 17.7282C22.1279 17.785 22.0155 17.8944 21.955 18.033H21.954ZM13.071 22.621C13.211 22.678 13.3677 22.6782 13.5078 22.6214C13.6479 22.5646 13.7603 22.4554 13.821 22.317C13.8496 22.2485 13.8642 22.1751 13.8641 22.1009C13.8639 22.0267 13.849 21.9533 13.8201 21.8849C13.7912 21.8166 13.749 21.7547 13.696 21.7028C13.6429 21.651 13.58 21.6102 13.511 21.583C13.371 21.526 13.2143 21.5258 13.0742 21.5826C12.9341 21.6394 12.8217 21.7486 12.761 21.887C12.7323 21.9554 12.7175 22.0289 12.7176 22.1032C12.7177 22.1774 12.7326 22.2509 12.7615 22.3193C12.7904 22.3876 12.8326 22.4496 12.8858 22.5014C12.9389 22.5532 13.0019 22.5939 13.071 22.621ZM21.514 20.991C21.4834 21.0205 21.4591 21.0558 21.4425 21.0949C21.4259 21.134 21.4173 21.176 21.4173 21.2185C21.4173 21.261 21.4259 21.303 21.4425 21.3421C21.4591 21.3812 21.4834 21.4165 21.514 21.446C21.643 21.571 21.85 21.571 21.978 21.446C22.106 21.321 22.107 21.117 21.978 20.992C21.9157 20.9319 21.8326 20.8983 21.746 20.8983C21.6594 20.8983 21.5763 20.9319 21.514 20.992V20.991ZM10.35 9.912C10.3194 9.94148 10.2951 9.97682 10.2785 10.0159C10.2619 10.055 10.2533 10.097 10.2533 10.1395C10.2533 10.182 10.2619 10.224 10.2785 10.2631C10.2951 10.3022 10.3194 10.3375 10.35 10.367C10.4123 10.4271 10.4954 10.4607 10.582 10.4607C10.6686 10.4607 10.7517 10.4271 10.814 10.367C10.942 10.241 10.942 10.038 10.814 9.913C10.686 9.788 10.478 9.787 10.35 9.913V9.912ZM21.514 10.367C21.5763 10.4271 21.6594 10.4607 21.746 10.4607C21.8326 10.4607 21.9157 10.4271 21.978 10.367C22.107 10.241 22.107 10.038 21.978 9.913C21.849 9.788 21.643 9.787 21.514 9.913C21.4836 9.94246 21.4594 9.97774 21.4429 10.0167C21.4263 10.0557 21.4178 10.0976 21.4178 10.14C21.4178 10.1824 21.4263 10.2243 21.4429 10.2633C21.4594 10.3023 21.4836 10.3375 21.514 10.367ZM10.35 21.446C10.478 21.571 10.686 21.571 10.814 21.446C10.942 21.321 10.942 21.117 10.814 20.992C10.7517 20.9319 10.6686 20.8983 10.582 20.8983C10.4954 20.8983 10.4123 20.9319 10.35 20.992C10.3196 21.0215 10.2954 21.0567 10.2789 21.0957C10.2623 21.1347 10.2538 21.1766 10.2538 21.219C10.2538 21.2614 10.2623 21.3033 10.2789 21.3423C10.2954 21.3813 10.3196 21.4165 10.35 21.446ZM23.88 15.599C23.88 15.776 24.028 15.919 24.209 15.919C24.2949 15.9198 24.3775 15.8866 24.439 15.8266C24.5004 15.7667 24.5357 15.6848 24.537 15.599C24.5366 15.5563 24.5278 15.5141 24.5111 15.4749C24.4944 15.4356 24.4701 15.4 24.4397 15.3701C24.4092 15.3402 24.3732 15.3166 24.3336 15.3006C24.294 15.2846 24.2517 15.2766 24.209 15.277C24.1663 15.2766 24.124 15.2846 24.0844 15.3006C24.0448 15.3166 24.0088 15.3402 23.9783 15.3701C23.9478 15.4 23.9236 15.4356 23.9069 15.4749C23.8902 15.5141 23.8814 15.5563 23.881 15.599H23.88ZM7.955 15.599C7.955 15.776 8.102 15.919 8.284 15.919C8.36985 15.9198 8.45254 15.8866 8.51399 15.8266C8.57545 15.7667 8.61068 15.6848 8.612 15.599C8.61161 15.5563 8.60281 15.5141 8.58612 15.4749C8.56942 15.4356 8.54515 15.4 8.51469 15.3701C8.48423 15.3402 8.44818 15.3166 8.4086 15.3006C8.36902 15.2846 8.32668 15.2766 8.284 15.277C8.24124 15.2765 8.19879 15.2844 8.15909 15.3003C8.11939 15.3162 8.08323 15.3398 8.05266 15.3697C8.0221 15.3996 7.99774 15.4353 7.98098 15.4746C7.96422 15.514 7.95539 15.5562 7.955 15.599ZM16.165 8.212C16.251 8.2128 16.3339 8.17946 16.3953 8.11929C16.4568 8.05912 16.4919 7.97702 16.493 7.891C16.4926 7.84823 16.4838 7.80597 16.467 7.76662C16.4503 7.72727 16.4259 7.69162 16.3953 7.66171C16.3648 7.63179 16.3286 7.60821 16.2889 7.5923C16.2492 7.57639 16.2068 7.56847 16.164 7.569C16.1213 7.5686 16.079 7.57662 16.0394 7.59259C15.9998 7.60856 15.9638 7.63216 15.9333 7.66207C15.9028 7.69197 15.8786 7.72757 15.8619 7.76685C15.8452 7.80614 15.8364 7.84832 15.836 7.891C15.836 8.068 15.983 8.211 16.164 8.211L16.165 8.212ZM16.165 23.788C16.2509 23.7888 16.3335 23.7556 16.395 23.6956C16.4564 23.6357 16.4917 23.5538 16.493 23.468C16.4926 23.4252 16.4838 23.383 16.467 23.3436C16.4503 23.3043 16.4259 23.2686 16.3953 23.2387C16.3648 23.2088 16.3286 23.1852 16.2889 23.1693C16.2492 23.1534 16.2068 23.1455 16.164 23.146C16.078 23.1452 15.9951 23.1785 15.9337 23.2387C15.8722 23.2989 15.8371 23.381 15.836 23.467C15.836 23.644 15.983 23.788 16.164 23.788H16.165ZM26.343 15.598C26.343 15.776 26.491 15.92 26.672 15.92C26.758 15.9208 26.8409 15.8875 26.9023 15.8273C26.9638 15.7671 26.9989 15.685 27 15.599C26.9996 15.5563 26.9908 15.5141 26.9741 15.4749C26.9574 15.4356 26.9332 15.4 26.9027 15.3701C26.8722 15.3402 26.8362 15.3166 26.7966 15.3006C26.757 15.2846 26.7147 15.2766 26.672 15.277C26.6292 15.2765 26.5868 15.2844 26.5471 15.3003C26.5074 15.3162 26.4712 15.3398 26.4407 15.3697C26.4101 15.3996 26.3857 15.4353 26.369 15.4746C26.3522 15.514 26.3434 15.5562 26.343 15.599V15.598ZM5.246 15.438C5.11 15.438 5 15.546 5 15.678C5 15.81 5.11 15.92 5.246 15.92C5.382 15.92 5.493 15.812 5.493 15.679C5.493 15.546 5.383 15.438 5.246 15.438ZM15.672 5.321C15.672 5.498 15.819 5.642 16 5.642C16.181 5.642 16.328 5.498 16.328 5.322C16.328 5.144 16.181 5 16 5C15.819 5 15.672 5.144 15.672 5.321ZM25.397 19.426C25.3722 19.4846 25.3593 19.5475 25.3591 19.6111C25.3589 19.6747 25.3713 19.7377 25.3957 19.7964C25.4201 19.8552 25.4559 19.9085 25.5012 19.9532C25.5464 19.9979 25.6 20.0332 25.659 20.057C25.7789 20.1064 25.9132 20.1073 26.0337 20.0596C26.1543 20.0118 26.2515 19.9191 26.305 19.801C26.3299 19.7423 26.3429 19.6792 26.3431 19.6155C26.3433 19.5517 26.3309 19.4886 26.3064 19.4297C26.2819 19.3709 26.2459 19.3175 26.2005 19.2727C26.1551 19.2279 26.1012 19.1927 26.042 19.169C25.9222 19.1192 25.7877 19.1182 25.6672 19.1662C25.5467 19.2142 25.4497 19.3075 25.397 19.426ZM20.067 24.616C19.987 24.5835 19.8975 24.5833 19.8173 24.6154C19.7372 24.6474 19.6725 24.7093 19.637 24.788C19.6205 24.8267 19.612 24.8684 19.612 24.9105C19.612 24.9526 19.6205 24.9943 19.637 25.033C19.6625 25.092 19.7046 25.1423 19.7581 25.1778C19.8117 25.2132 19.8744 25.2324 19.9387 25.2328C20.0029 25.2332 20.0659 25.2149 20.12 25.1801C20.174 25.1454 20.2168 25.0956 20.243 25.037C20.2596 24.9983 20.2683 24.9567 20.2685 24.9146C20.2686 24.8725 20.2603 24.8308 20.244 24.792C20.2277 24.7527 20.2037 24.717 20.1735 24.6869C20.1433 24.6569 20.1074 24.6331 20.068 24.617L20.067 24.616ZM6.442 11.289C6.36162 11.2562 6.27163 11.2558 6.191 11.288C6.15127 11.3034 6.11499 11.3265 6.08426 11.3561C6.05353 11.3856 6.02897 11.4209 6.012 11.46C5.99507 11.4987 5.98616 11.5405 5.98582 11.5828C5.98547 11.6251 5.9937 11.667 6.01 11.706C6.03547 11.765 6.07756 11.8153 6.13113 11.8508C6.18471 11.8862 6.24744 11.9053 6.31169 11.9058C6.37595 11.9062 6.43893 11.8879 6.49297 11.8531C6.547 11.8184 6.58975 11.7686 6.616 11.71C6.63293 11.6713 6.64184 11.6295 6.64218 11.5872C6.64253 11.5449 6.6343 11.503 6.618 11.464C6.60165 11.4247 6.57769 11.389 6.54748 11.3589C6.51727 11.3289 6.48143 11.3051 6.442 11.289ZM5.526 19.539C5.5053 19.5877 5.49452 19.6401 5.4943 19.693C5.49408 19.746 5.50443 19.7984 5.52473 19.8473C5.54503 19.8962 5.57488 19.9405 5.61253 19.9777C5.65018 20.0149 5.69488 20.0443 5.744 20.064C5.954 20.15 6.194 20.054 6.282 19.851C6.30286 19.8022 6.31376 19.7498 6.31406 19.6967C6.31436 19.6437 6.30405 19.5911 6.28374 19.5421C6.26343 19.4931 6.23353 19.4486 6.19579 19.4114C6.15806 19.3741 6.11325 19.3447 6.064 19.325C5.96427 19.2832 5.85215 19.2821 5.75161 19.3219C5.65107 19.3617 5.5701 19.4393 5.526 19.538V19.539ZM19.863 6.252C20.071 6.338 20.313 6.242 20.4 6.038C20.4209 5.98923 20.4318 5.93677 20.4321 5.88373C20.4324 5.83068 20.422 5.77811 20.4017 5.7291C20.3814 5.6801 20.3515 5.63565 20.3138 5.59836C20.2761 5.56108 20.2312 5.53172 20.182 5.512C20.0821 5.47028 19.9699 5.46931 19.8694 5.50931C19.7688 5.54931 19.6879 5.62709 19.644 5.726C19.556 5.93 19.654 6.166 19.863 6.252ZM26.004 11.119C25.9742 11.1307 25.947 11.1482 25.924 11.1706C25.901 11.1929 25.8826 11.2195 25.87 11.249C25.8574 11.278 25.8508 11.3093 25.8507 11.3409C25.8505 11.3725 25.8567 11.4039 25.869 11.433C25.8883 11.4771 25.9199 11.5147 25.9601 11.5412C26.0004 11.5677 26.0474 11.582 26.0955 11.5823C26.1437 11.5826 26.1909 11.569 26.2314 11.543C26.272 11.517 26.3041 11.4799 26.324 11.436C26.3364 11.4067 26.3429 11.3752 26.343 11.3434C26.3431 11.3115 26.3369 11.28 26.3247 11.2506C26.3125 11.2212 26.2946 11.1945 26.272 11.1721C26.2494 11.1496 26.2225 11.1319 26.193 11.12C26.1326 11.0947 26.0647 11.0944 26.004 11.119ZM11.587 5.95C11.5746 5.97926 11.5681 6.01069 11.5679 6.04248C11.5677 6.07427 11.5738 6.10578 11.5859 6.13518C11.598 6.16458 11.6158 6.19128 11.6383 6.21374C11.6608 6.2362 11.6876 6.25396 11.717 6.266C11.7771 6.29064 11.8443 6.29095 11.9046 6.26688C11.9649 6.2428 12.0134 6.19623 12.04 6.137C12.0524 6.10781 12.0589 6.07645 12.0591 6.04473C12.0592 6.01301 12.0531 5.98158 12.041 5.95226C12.0289 5.92294 12.0111 5.89633 11.9886 5.87396C11.9661 5.8516 11.9394 5.83393 11.91 5.822C11.8502 5.7965 11.7827 5.79564 11.7222 5.81961C11.6617 5.84358 11.6131 5.89043 11.587 5.95ZM11.65 24.912C11.6017 24.9117 11.5543 24.9255 11.5138 24.9518C11.4733 24.9781 11.4414 25.0157 11.422 25.06C11.4098 25.0893 11.4035 25.1208 11.4035 25.1526C11.4036 25.1843 11.4099 25.2158 11.4222 25.2451C11.4345 25.2744 11.4524 25.301 11.4751 25.3233C11.4977 25.3456 11.5245 25.3631 11.554 25.375C11.6138 25.3999 11.6809 25.4005 11.7411 25.3766C11.8012 25.3526 11.8497 25.3061 11.876 25.247C11.8884 25.2178 11.8949 25.1864 11.8951 25.1547C11.8952 25.123 11.8891 25.0916 11.877 25.0623C11.8649 25.0329 11.8471 25.0063 11.8246 24.984C11.8021 24.9616 11.7754 24.9439 11.746 24.932C11.7157 24.919 11.683 24.9122 11.65 24.912ZM23.292 23.212C23.3224 23.1825 23.3466 23.1473 23.3631 23.1083C23.3797 23.0693 23.3882 23.0274 23.3882 22.985C23.3882 22.9426 23.3797 22.9007 23.3631 22.8617C23.3466 22.8227 23.3224 22.7875 23.292 22.758C23.23 22.6974 23.1467 22.6636 23.06 22.664C22.973 22.6634 22.8892 22.6972 22.827 22.758C22.7964 22.7875 22.7721 22.8228 22.7555 22.8619C22.7389 22.901 22.7303 22.943 22.7303 22.9855C22.7303 23.028 22.7389 23.07 22.7555 23.1091C22.7721 23.1482 22.7964 23.1835 22.827 23.213C22.8893 23.2734 22.9727 23.3072 23.0595 23.3072C23.1463 23.3072 23.2297 23.2734 23.292 23.213V23.212ZM7.935 8.033C7.88949 8.07726 7.85332 8.1302 7.82861 8.18869C7.80391 8.24717 7.79119 8.31001 7.79119 8.3735C7.79119 8.43699 7.80391 8.49983 7.82861 8.55831C7.85332 8.6168 7.88949 8.66973 7.935 8.714C8.02796 8.80542 8.15312 8.85666 8.2835 8.85666C8.41388 8.85666 8.53904 8.80542 8.632 8.714C8.67751 8.66973 8.71368 8.6168 8.73839 8.55831C8.76309 8.49983 8.77581 8.43699 8.77581 8.3735C8.77581 8.31001 8.76309 8.24717 8.73839 8.18869C8.71368 8.1302 8.67751 8.07726 8.632 8.033C8.53855 7.94252 8.41358 7.89193 8.2835 7.89193C8.15342 7.89193 8.02845 7.94252 7.935 8.033ZM23.46 8.123C23.4373 8.14509 23.4192 8.17152 23.4068 8.20072C23.3945 8.22992 23.3881 8.2613 23.3881 8.293C23.3881 8.3247 23.3945 8.35608 23.4068 8.38528C23.4192 8.41448 23.4373 8.44091 23.46 8.463C23.5067 8.50851 23.5693 8.53398 23.6345 8.53398C23.6997 8.53398 23.7623 8.50851 23.809 8.463C23.8316 8.44084 23.8496 8.41439 23.8619 8.3852C23.8741 8.35601 23.8804 8.32466 23.8804 8.293C23.8804 8.26134 23.8741 8.22999 23.8619 8.2008C23.8496 8.17161 23.8316 8.14516 23.809 8.123C23.7626 8.07702 23.6999 8.05122 23.6345 8.05122C23.5691 8.05122 23.5064 8.07702 23.46 8.123ZM8.027 22.735C8.00426 22.7571 7.98618 22.7835 7.97384 22.8127C7.96149 22.8419 7.95513 22.8733 7.95513 22.905C7.95513 22.9367 7.96149 22.9681 7.97384 22.9973C7.98618 23.0265 8.00426 23.0529 8.027 23.075C8.07369 23.1205 8.1363 23.146 8.2015 23.146C8.2667 23.146 8.32931 23.1205 8.376 23.075C8.39874 23.0529 8.41682 23.0265 8.42916 22.9973C8.44151 22.9681 8.44787 22.9367 8.44787 22.905C8.44787 22.8733 8.44151 22.8419 8.42916 22.8127C8.41682 22.7835 8.39874 22.7571 8.376 22.735C8.329 22.689 8.267 22.665 8.201 22.665C8.135 22.665 8.074 22.689 8.027 22.735ZM16.082 27C16.309 27 16.492 26.82 16.492 26.599C16.4915 26.5457 16.4805 26.493 16.4596 26.4439C16.4387 26.3949 16.4083 26.3504 16.3703 26.3131C16.3322 26.2758 16.2871 26.2463 16.2377 26.2264C16.1882 26.2065 16.1353 26.1965 16.082 26.197C15.855 26.197 15.672 26.377 15.672 26.599C15.672 26.82 15.855 27 16.082 27Z" fill="black"/>
</g>
<defs>
<clipPath id="clip0_16_2770">
<rect width="32" height="32" fill="white"/>
</clipPath>
</defs>
</svg>
