<svg width="32" height="32" viewBox="0 0 32 32" fill="none" xmlns="http://www.w3.org/2000/svg">
<g clip-path="url(#clip0_16_2772)">
<path d="M16 0C24.837 0 32 7.163 32 16C32 24.837 24.837 32 16 32C7.163 32 0 24.837 0 16C0 7.163 7.163 0 16 0ZM21.56 6.56C19.1012 5.07891 16.1566 4.62961 13.368 5.31C11.695 5.712 10.061 6.556 8.801 7.668C8.381 8.038 7.696 8.748 7.396 9.122C5.452 11.539 4.626 14.734 5.159 17.769C5.653 20.589 7.219 23.077 9.589 24.793C11.6 26.254 14.304 27.013 16.749 26.801C19.047 26.607 21.063 25.802 22.803 24.394C23.5059 23.8001 24.1456 23.1353 24.712 22.41C25.3995 21.4785 25.9389 20.4463 26.311 19.35C26.703 18.175 26.869 17.144 26.865 15.863C26.865 13.978 26.395 12.221 25.435 10.523C24.55 8.949 23.12 7.488 21.56 6.559V6.56ZM13.404 6.175C14.4442 5.90944 15.5195 5.80822 16.591 5.875C17.621 5.952 18.411 6.111 19.221 6.4C20.413 6.831 21.207 7.269 22.248 8.066C22.588 8.324 23.163 8.864 23.381 9.126L23.685 9.482C24.818 10.795 25.615 12.574 25.933 14.497C26.025 15.037 26.021 16.703 25.93 17.314C25.676 19.022 25.08 20.458 24 21.973C23.42 22.781 22.263 23.85 21.359 24.408C19.4 25.618 17.325 26.134 15.109 25.958C13.7723 25.8415 12.4712 25.4648 11.279 24.849C9.42937 23.8971 7.9253 22.3885 6.979 20.536C6.199 19.011 5.861 17.61 5.861 15.937C5.861 13.855 6.436 11.991 7.636 10.202C8.006 9.648 8.992 8.568 9.443 8.218C9.521 8.158 9.687 8.024 9.814 7.925C10.724 7.198 12.158 6.499 13.404 6.175ZM20.717 15.412C20.685 15.412 20.533 15.574 20.377 15.772C20.1 16.128 19.741 16.594 18.488 18.212L18.328 18.419L17.544 19.429V22.746L17.635 22.859L17.676 22.905C17.724 22.953 17.746 22.954 17.776 22.923C17.819 22.881 17.921 22.411 18.013 21.818C18.055 21.539 18.105 21.472 18.151 21.631C18.214 21.857 18.154 22.781 18.051 23.191C18.034 23.269 18.048 23.29 18.193 23.361C18.281 23.403 18.359 23.431 18.37 23.421C18.377 23.414 18.49 23.135 18.62 22.806C18.867 22.178 18.91 22.093 18.962 22.146C19.005 22.189 18.948 22.422 18.733 23.064C18.571 23.551 18.557 23.614 18.595 23.721C18.645 23.851 18.652 23.954 18.613 23.954C18.595 23.954 18.412 23.865 18.197 23.759C17.71 23.516 17.505 23.459 17.377 23.53C17.268 23.594 17.24 23.64 17.191 23.834C17.151 23.9477 17.0899 24.0529 17.011 24.144C16.93 24.236 16.87 24.314 16.877 24.321C16.884 24.324 16.982 24.366 17.092 24.409C17.334 24.506 17.636 24.704 17.937 24.959L18.087 25.09L18.387 25.365L18.539 25.249L18.732 25.106C19.177 24.783 19.588 24.531 19.891 24.395C20.631 24.063 21.108 23.749 21.567 23.283C21.984 22.859 22.143 22.549 22.27 21.921C22.312 21.709 22.428 21.497 22.53 21.444C22.594 21.409 22.598 21.412 22.58 21.504C22.566 21.561 22.548 21.642 22.534 21.688C22.517 21.755 22.524 21.762 22.577 21.744C22.88 21.634 23.047 21.271 22.987 20.834C22.919 20.329 22.767 20.177 22.411 20.262C22.2695 20.2983 22.1314 20.3464 21.998 20.406C21.878 20.459 21.768 20.495 21.758 20.484C21.748 20.474 21.768 20.371 21.808 20.258C21.98 19.757 22.005 19.178 21.864 18.988C21.737 18.815 21.504 18.839 21.14 19.058L20.994 19.144C20.819 19.244 20.828 19.211 20.932 19.04C21.112 18.733 21.292 18.37 21.359 18.169C21.475 17.833 21.423 17.499 21.246 17.442C21.116 17.399 20.826 17.582 20.413 17.971C20.2863 18.0978 20.1531 18.218 20.014 18.331C20.014 18.296 20.141 18.066 20.406 17.629C20.561 17.371 20.787 16.962 20.907 16.719C21.084 16.358 21.127 16.238 21.137 16.062C21.154 15.804 21.063 15.589 20.887 15.482C20.8356 15.4476 20.7778 15.4238 20.717 15.412ZM14.371 20.248C14.254 20.085 14.18 20.113 13.845 20.431C13.7121 20.5595 13.5743 20.6829 13.432 20.801C13.192 20.971 12.666 21.211 12.274 21.331C12.044 21.401 11.872 21.472 11.886 21.486C11.949 21.543 12.316 21.589 12.722 21.589C12.959 21.589 13.167 21.599 13.178 21.609C13.192 21.624 13.171 21.677 13.132 21.729C12.972 21.953 13.057 22.02 13.531 22.001L13.647 21.995L14.077 21.97L14.137 22.062L14.164 22.115C14.178 22.152 14.184 22.19 14.176 22.213C14.145 22.305 13.884 22.573 13.661 22.743C13.128 23.145 13.153 23.188 13.908 23.213C14.36 23.226 14.484 23.241 14.508 23.283C14.561 23.368 14.551 23.442 14.458 23.569C14.155 23.989 14.011 24.219 14.021 24.268C14.042 24.391 14.271 24.455 14.657 24.444C15.295 24.426 15.475 24.434 15.627 24.483C15.667 24.497 15.707 24.507 15.739 24.512L15.779 24.515L15.8 24.511C15.803 24.461 15.65 24.156 15.03 22.969C14.935 22.785 14.9 22.679 14.914 22.623C14.957 22.453 14.935 21.953 14.882 21.822C14.8426 21.7428 14.794 21.6686 14.737 21.601L14.671 21.525L14.508 21.352V21.035L14.505 20.876C14.493 20.573 14.446 20.35 14.371 20.248ZM15.151 17.392L15.146 17.404L15.144 17.427C15.144 17.495 14.904 19.76 14.879 19.94C14.869 20.022 14.872 20.071 14.893 20.064C14.914 20.06 15.055 19.937 15.211 19.796C15.366 19.655 15.501 19.556 15.511 19.573C15.525 19.591 15.574 20.064 15.621 20.625C15.665 21.132 15.71 21.601 15.726 21.733L15.729 21.762L15.747 21.882L15.969 21.638L16.045 21.556L16.244 21.334L16.284 21.289L16.379 21.183L16.442 21.257L16.462 21.282C16.522 21.362 16.694 21.58 16.873 21.815C17.212 22.252 17.297 22.345 17.297 22.266C17.3 22.21 16.329 19.4 16.308 19.4C16.294 19.4 16.238 19.598 16.181 19.842C16.128 20.085 16.071 20.282 16.061 20.282C16.051 20.282 16.005 19.905 15.959 19.442C15.864 18.44 15.846 18.306 15.818 18.306C15.808 18.306 15.705 18.451 15.588 18.624C15.475 18.8 15.369 18.942 15.352 18.942C15.334 18.942 15.32 18.906 15.32 18.86C15.32 18.818 15.288 18.472 15.25 18.095C15.207 17.717 15.168 17.403 15.152 17.392H15.151ZM11.646 15.507C11.402 15.44 10.876 15.412 10.622 15.444C9.942 15.539 9.196 15.945 8.776 16.457C8.246 17.099 8.025 17.773 8.06 18.624C8.085 19.15 8.17 19.517 8.363 19.912C8.5112 20.2253 8.72713 20.5017 8.99518 20.7213C9.26323 20.9409 9.57672 21.0983 9.913 21.182C10.291 21.278 10.315 21.25 10.008 21.07C9.465 20.756 9.062 20.385 8.812 19.969C7.968 18.582 8.783 16.531 10.396 15.984C10.651 15.899 10.728 15.889 11.173 15.889H11.317L11.455 15.892C11.662 15.899 11.767 15.918 11.932 15.97C12.278 16.08 12.736 16.32 13.04 16.552C13.467 16.877 13.432 16.859 13.361 16.718C13.273 16.542 12.691 15.98 12.454 15.839C12.2003 15.6937 11.9286 15.582 11.646 15.507ZM9.518 18.416C9.383 18.042 9.376 18.031 9.323 18.193C9.288 18.293 9.285 18.419 9.299 18.61C9.379 19.524 9.758 20.149 10.399 20.449C10.665 20.569 10.943 20.639 10.943 20.583C10.943 20.569 10.841 20.453 10.718 20.322C10.1949 19.773 9.78691 19.125 9.518 18.416ZM12.461 12.998C12.751 12.864 12.729 12.857 12.285 12.924C11.512 13.04 10.442 13.471 9.712 13.958C9.352 14.194 8.805 14.664 8.558 14.943C8.3 15.236 8.003 15.649 8.021 15.698C8.028 15.719 8.116 15.67 8.226 15.582C8.466 15.387 8.776 15.165 8.801 15.165C8.811 15.165 8.949 15.087 9.105 14.992C9.49909 14.7632 9.93032 14.6055 10.379 14.526C10.689 14.484 11.176 14.502 11.42 14.569C11.67 14.636 12.154 14.837 12.422 14.985C12.567 15.066 12.691 15.13 12.698 15.13C12.718 15.13 13.104 15.391 13.396 15.603C13.905 15.966 14.653 16.64 14.985 17.029C15.101 17.166 15.218 17.279 15.242 17.279C15.267 17.283 15.299 17.311 15.309 17.343C15.324 17.378 15.454 17.573 15.599 17.777C16.004 18.3353 16.3821 18.9126 16.732 19.507C17.212 20.322 17.191 20.287 17.226 20.265C17.244 20.253 17.257 20.093 17.26 19.885L17.261 19.312L16.824 18.899L16.54 18.621C16.1641 18.2399 15.8144 17.834 15.493 17.406C15.172 16.979 15.038 16.76 14.145 15.218C13.813 14.643 13.725 14.53 13.559 14.442C13.135 14.23 12.525 14.064 11.896 13.99C11.692 13.965 11.526 13.93 11.526 13.912C11.526 13.845 11.925 13.679 12.2 13.63C12.355 13.602 12.659 13.58 12.874 13.577C13.266 13.577 13.273 13.577 13.294 13.492C13.347 13.28 13.344 13.277 12.698 13.259C12.19 13.243 12.044 13.221 12.123 13.163L12.151 13.146C12.175 13.129 12.316 13.065 12.461 12.998ZM9.913 17.036C9.747 16.94 9.743 16.969 9.874 17.326C10.086 17.904 10.439 18.43 10.944 18.942C11.341 19.342 11.871 19.772 12.042 19.843L12.075 19.853L12.095 19.849L12.098 19.831C12.095 19.757 11.996 19.488 11.861 19.203C11.4888 18.4376 10.938 17.7729 10.255 17.265C10.1438 17.1843 10.0297 17.1076 9.913 17.035V17.036ZM11.649 16.531C11.427 16.429 11.049 16.33 11.049 16.372C11.049 16.379 11.209 16.549 11.402 16.75C11.8265 17.1917 12.1782 17.698 12.444 18.25C12.666 18.748 12.662 18.74 12.691 18.504C12.726 18.239 12.698 17.982 12.599 17.643C12.5308 17.3998 12.4106 17.1744 12.2465 16.9823C12.0825 16.7903 11.8786 16.6363 11.649 16.531ZM17.064 10.513C17.007 10.428 17.011 10.428 16.838 10.478C15.522 10.863 14.194 11.474 13.668 11.933L13.58 12.017L13.442 12.157L13.552 12.56L13.678 13.002C14.078 14.312 14.678 15.498 15.472 16.559C15.782 16.969 16.654 17.826 17.039 18.095C17.389 18.338 17.749 18.553 17.812 18.553C17.875 18.553 18.917 17.336 18.878 17.3C18.747 17.2515 18.615 17.2058 18.482 17.163C17.773 16.926 17.152 16.583 16.722 16.189C16.368 15.867 16.065 15.398 16.397 15.691C16.686 15.945 17.755 16.393 18.373 16.521C18.511 16.545 18.623 16.566 18.627 16.563C18.627 16.563 18.553 16.457 18.457 16.33C18.232 16.033 17.967 15.518 17.822 15.094C17.706 14.749 17.582 14.572 17.392 14.47C17.311 14.43 17.215 14.424 16.951 14.442C16.029 14.502 15.231 14.096 14.801 13.347C14.565 12.934 14.211 12.239 14.229 12.221C14.24 12.211 14.829 12.447 15.542 12.747C16.724 13.242 17.009 13.355 17.23 13.401L17.307 13.416L17.346 13.422L17.519 13.446L17.498 12.761L17.489 12.541C17.4781 12.245 17.4504 11.9499 17.406 11.657C17.332 11.237 17.159 10.661 17.064 10.513ZM22.248 9.285C22.111 9.271 18.271 10.171 18.118 10.252C18.0003 10.3281 17.9149 10.4448 17.878 10.58C17.861 10.654 18.055 11.565 18.55 13.71C18.934 15.373 19.255 16.75 19.27 16.764C19.284 16.778 19.58 16.425 19.926 15.977C20.526 15.2 20.561 15.165 20.674 15.165C20.868 15.165 21.168 15.345 21.284 15.535C21.454 15.807 21.444 16.189 21.264 16.598C21.2287 16.6645 21.2037 16.736 21.19 16.81C21.204 16.824 23.72 16.277 23.883 16.224C23.9605 16.1903 24.031 16.1425 24.091 16.083C24.281 15.882 24.289 15.927 23.441 12.613C23.018 10.951 22.644 9.546 22.612 9.5C22.5728 9.44357 22.5237 9.39477 22.467 9.356C22.3998 9.3172 22.3252 9.29301 22.248 9.285ZM22.831 13.291C22.841 13.319 21.821 15.772 21.783 15.811C21.768 15.825 21.638 15.73 21.493 15.599C21.1509 15.2868 20.8062 14.9775 20.459 14.671C20.035 14.293 19.704 13.979 19.718 13.976C19.735 13.972 20.138 14.092 20.611 14.247L21.475 14.527L21.878 14.149C22.097 13.94 22.4 13.658 22.548 13.52C22.697 13.38 22.824 13.277 22.831 13.29V13.291ZM20.717 14.392C20.261 14.244 20.177 14.226 20.197 14.279C20.205 14.293 20.463 14.537 20.773 14.816C21.083 15.094 21.415 15.398 21.511 15.493C21.603 15.585 21.687 15.656 21.694 15.649C21.704 15.642 21.659 15.398 21.596 15.109L21.479 14.583L21.32 14.562C21.116 14.5167 20.9146 14.4599 20.717 14.392ZM12.92 9.867C12.92 9.807 12.684 9.843 12.09 9.991C11.527 10.1349 10.9734 10.3129 10.432 10.524C9.722 10.803 8.526 11.445 8.618 11.494C8.646 11.509 8.762 11.534 8.878 11.547C9.563 11.626 10.71 11.908 11.258 12.127L11.381 12.179L11.631 12.296L11.491 12.32L11.184 12.383C10.374 12.573 9.62 12.926 9.03 13.393C8.723 13.64 8.219 14.163 8.053 14.403C7.915 14.6 7.915 14.6 8.307 14.303C8.907 13.853 9.888 13.326 10.661 13.037C11.293 12.804 12.179 12.585 12.719 12.532C12.849 12.518 12.955 12.493 12.955 12.479C12.955 12.423 12.545 12.144 12.225 11.978C11.783 11.749 10.858 11.4 10.354 11.266L10.202 11.23L10.079 11.201L10.219 11.081L10.307 11.012C10.6296 10.7879 10.9728 10.5951 11.332 10.436C11.7896 10.243 12.2585 10.0777 12.736 9.941C12.836 9.921 12.92 9.885 12.92 9.867ZM20.561 10.654C20.586 10.587 20.639 10.605 20.713 10.7C20.752 10.75 21.235 11.261 21.786 11.837C22.333 12.409 22.785 12.899 22.785 12.924C22.785 12.987 21.475 14.212 21.405 14.212C21.373 14.212 20.953 14.082 20.47 13.926C19.644 13.654 19.513 13.594 19.626 13.524C19.647 13.514 19.661 13.478 19.661 13.446C19.661 13.404 20.297 11.434 20.561 10.654ZM15.931 13.524C15.818 13.503 15.818 13.503 15.853 13.602C15.899 13.742 16.054 13.824 16.273 13.824C16.506 13.824 16.495 13.767 16.238 13.644C16.1395 13.5949 16.0367 13.5547 15.931 13.524ZM20.611 10.845C20.597 10.827 20.575 10.859 20.561 10.915C20.526 11.103 19.831 13.203 19.761 13.34C19.721 13.418 19.697 13.485 19.707 13.492C19.721 13.51 20.77 12.726 20.907 12.592L21.007 12.497L20.823 11.685C20.723 11.24 20.628 10.863 20.611 10.845ZM12.835 10.295H12.747L12.682 10.302C12.502 10.334 12.144 10.462 11.851 10.605C11.589 10.732 11.155 11.064 11.155 11.138C11.155 11.148 11.279 11.205 11.431 11.261C11.791 11.396 12.267 11.625 12.638 11.847C12.804 11.943 12.952 12.017 12.973 12.013C13.015 11.996 13.001 11.597 12.941 11.194C12.913 10.986 12.888 10.912 12.849 10.912C12.788 10.912 12.775 10.861 12.796 10.649L12.807 10.549L12.835 10.294V10.295ZM19.944 8.459C19.724 8.346 19.467 8.367 18.232 8.6C16.975 8.837 16.033 9.066 15.091 9.366C14.5784 9.53793 14.0753 9.73722 13.584 9.963C13.375 10.068 13.344 10.097 13.287 10.245C13.227 10.404 13.227 10.435 13.287 10.979C13.372 11.78 13.347 11.731 13.584 11.551C13.8858 11.3325 14.2072 11.1423 14.544 10.983C15.931 10.287 17.752 9.761 19.972 9.412C20.275 9.362 20.473 9.317 20.473 9.292C20.473 9.236 20.24 8.752 20.152 8.632C20.0949 8.56102 20.0242 8.5022 19.944 8.459ZM14.808 6.217L14.744 6.219C14.4609 6.23736 14.1786 6.26738 13.898 6.309C13.696 6.341 13.661 6.359 13.682 6.409C13.922 6.987 14.304 8.127 14.275 8.18C14.268 8.194 14.141 8.085 13.993 7.944C13.845 7.799 13.707 7.683 13.689 7.683C13.672 7.683 13.665 7.725 13.675 7.778C13.685 7.834 13.715 8.215 13.735 8.625C13.76 9.038 13.792 9.395 13.805 9.419C13.862 9.511 13.915 9.384 13.968 9.02C14 8.819 14.035 8.643 14.046 8.625C14.06 8.611 14.166 8.727 14.279 8.883C14.392 9.038 14.509 9.165 14.529 9.165C14.5771 9.15916 14.6238 9.14495 14.667 9.123C14.737 9.091 14.755 9.059 14.755 8.96C14.755 8.632 14.512 7.478 14.332 6.963C14.293 6.846 14.268 6.743 14.279 6.733C14.356 6.66 15.002 7.682 15.362 8.433L15.542 8.819L15.666 8.798L15.716 8.788C15.7548 8.78095 15.7918 8.76634 15.825 8.745C15.899 8.671 15.292 6.98 14.992 6.433C14.928 6.317 14.865 6.218 14.844 6.218L14.808 6.217ZM12.616 6.797C12.458 6.733 12.218 6.793 11.936 6.973C11.847 7.026 11.551 7.195 11.279 7.351C10.369 7.859 9.556 8.438 9.578 8.565C9.585 8.593 9.609 8.615 9.634 8.607C9.659 8.604 9.864 8.551 10.086 8.494C10.6127 8.35003 11.157 8.28101 11.703 8.289L11.971 8.293L12.627 8.311L12.652 8.061L12.657 7.975C12.666 7.809 12.674 7.539 12.677 7.315V7.09C12.677 6.846 12.664 6.814 12.617 6.797H12.616ZM15.486 6.2L15.26 6.201C15.193 6.203 15.144 6.209 15.144 6.218C15.144 6.228 15.257 6.43 15.394 6.67C15.7062 7.22967 15.9935 7.8029 16.255 8.388C16.291 8.477 16.333 8.561 16.347 8.579C16.389 8.629 16.626 8.569 16.626 8.509C16.626 8.369 16.126 7.312 15.767 6.68L15.697 6.56L15.486 6.2ZM16.086 6.235C15.912 6.235 15.946 6.269 16.188 6.684C16.421 7.086 16.978 8.234 16.978 8.307C16.978 8.41 17.071 8.41 17.53 8.314C17.953 8.22973 18.3778 8.15438 18.804 8.088C18.828 8.071 18.588 7.439 18.426 7.083C18.179 6.553 18.094 6.419 17.985 6.394L17.808 6.359C17.758 6.349 17.431 6.317 17.078 6.289C16.7832 6.26338 16.4877 6.24537 16.192 6.235H16.135H16.086Z" fill="black"/>
<path d="M16.785 10.672C16.873 10.887 16.919 11.117 16.965 11.6C17.011 12.116 17.095 12.829 17.145 13.125C17.166 13.277 17.226 13.309 17.226 13.171C17.226 13.121 17.201 12.927 17.173 12.737C17.1328 12.4176 17.0975 12.0975 17.067 11.777C17.0451 11.5194 17.0144 11.2625 16.975 11.007C16.93 10.792 16.848 10.612 16.799 10.612C16.774 10.612 16.771 10.637 16.785 10.672ZM17.544 14.802C17.544 14.957 18.038 16.093 18.2 16.309C18.31 16.46 18.281 16.323 18.154 16.093C17.97 15.7614 17.8129 15.4156 17.684 15.059C17.604 14.833 17.544 14.724 17.544 14.802Z" fill="white"/>
</g>
<defs>
<clipPath id="clip0_16_2772">
<rect width="32" height="32" fill="white"/>
</clipPath>
</defs>
</svg>
