<svg width="32" height="32" viewBox="0 0 32 32" fill="none" xmlns="http://www.w3.org/2000/svg">
<g clip-path="url(#clip0_16_2778)">
<path d="M16 0C24.837 0 32 7.163 32 16C32 24.837 24.837 32 16 32C7.163 32 0 24.837 0 16C0 7.163 7.163 0 16 0ZM14.618 17.546L16.545 26.193L16.572 26.271C16.618 26.371 16.702 26.45 16.808 26.488C16.8733 26.5121 16.9437 26.5189 17.0124 26.5076C17.0811 26.4964 17.1458 26.4676 17.2 26.424L22.484 22.542L22.545 22.489C22.5866 22.4446 22.6174 22.3911 22.635 22.3328C22.6525 22.2746 22.6564 22.213 22.6462 22.153C22.636 22.0929 22.6121 22.0361 22.5764 21.9868C22.5406 21.9376 22.4939 21.8972 22.44 21.869L14.618 17.546ZM14.754 6.203C14.6877 6.15956 14.6099 6.13692 14.5306 6.13799C14.4513 6.13906 14.3741 6.16379 14.309 6.209L9.167 10.152L9.073 10.233C8.867 10.433 8.749 10.711 8.75 11.002V21.008L8.756 21.133C8.786 21.423 8.933 21.69 9.167 21.869L14.284 25.801L14.354 25.839C14.4206 25.8677 14.4938 25.8777 14.5657 25.8679C14.6376 25.858 14.7054 25.8287 14.7618 25.7831C14.8183 25.7374 14.8611 25.6773 14.8858 25.6091C14.9106 25.5408 14.9161 25.4672 14.902 25.396L12.919 16.002L14.927 6.613L14.934 6.533C14.9335 6.46742 14.9168 6.40298 14.8854 6.34541C14.854 6.28784 14.8089 6.23892 14.754 6.203ZM23.059 11.728C22.9958 11.6925 22.9242 11.6746 22.8518 11.6762C22.7793 11.6778 22.7086 11.6988 22.647 11.737L14.927 16.162L22.647 20.585L22.727 20.621C22.7885 20.6417 22.8541 20.6474 22.9183 20.6376C22.9825 20.6279 23.0435 20.6029 23.0961 20.5649C23.1487 20.5268 23.1915 20.4768 23.2208 20.4189C23.2502 20.361 23.2654 20.2969 23.265 20.232V12.086L23.257 11.999C23.2452 11.9425 23.2214 11.8891 23.1872 11.8426C23.1531 11.796 23.1093 11.7573 23.059 11.729V11.728ZM17.135 5.853C17.0795 5.82578 17.0187 5.81114 16.9569 5.81014C16.895 5.80913 16.8338 5.82179 16.7774 5.8472C16.7211 5.87261 16.671 5.91014 16.6308 5.95712C16.5907 6.00411 16.5613 6.05938 16.545 6.119L14.618 14.766L22.438 10.443L22.505 10.399C22.5515 10.361 22.5886 10.3128 22.6134 10.2581C22.6382 10.2035 22.65 10.1438 22.648 10.0838C22.646 10.0238 22.6301 9.96508 22.6017 9.91221C22.5732 9.85934 22.533 9.81376 22.484 9.779L17.206 5.897L17.135 5.853Z" fill="black"/>
</g>
<defs>
<clipPath id="clip0_16_2778">
<rect width="32" height="32" fill="white"/>
</clipPath>
</defs>
</svg>
