<svg width="32" height="32" viewBox="0 0 32 32" fill="none" xmlns="http://www.w3.org/2000/svg">
<g clip-path="url(#clip0_16_2786)">
<path d="M16 32C7.163 32 0 24.837 0 16C0 7.163 7.163 0 16 0C24.837 0 32 7.163 32 16C32 24.837 24.837 32 16 32ZM17.147 20.446L11.673 14.746L10 16.45L13.92 20.445L10.143 24.294L11.697 26L17.147 20.446ZM20.327 17.255L22 15.549L18.08 11.554L21.857 7.705L20.303 6L14.829 11.554L20.327 17.255ZM12.367 14.088L17.865 19.788L19.538 18.083L14.04 12.48L12.367 14.088Z" fill="black"/>
</g>
<defs>
<clipPath id="clip0_16_2786">
<rect width="32" height="32" fill="white"/>
</clipPath>
</defs>
</svg>
