<svg width="32" height="32" viewBox="0 0 32 32" fill="none" xmlns="http://www.w3.org/2000/svg">
<g clip-path="url(#clip0_16_2790)">
<path d="M16 0C24.837 0 32 7.163 32 16C32 24.837 24.837 32 16 32C7.163 32 0 24.837 0 16C0 7.163 7.163 0 16 0ZM16 6L14.201 7.055L9.3 9.945L7.5 11V21L9.299 22.055L14.246 24.945L16.045 26L17.844 24.945L22.701 22.055L24.5 21V11L22.701 9.945L17.799 7.055L16 6ZM16 10.22L20.902 13.11V18.89L16 21.78L11.098 18.89V13.11L16 10.22Z" fill="black"/>
</g>
<defs>
<clipPath id="clip0_16_2790">
<rect width="32" height="32" fill="white"/>
</clipPath>
</defs>
</svg>
