<svg width="32" height="32" viewBox="0 0 32 32" fill="none" xmlns="http://www.w3.org/2000/svg">
<g clip-path="url(#clip0_16_2794)">
<path d="M24.92 15.62L25.471 15.233C25.4693 15.231 25.4677 15.229 25.466 15.227L26.163 14.74C26.7213 14.3482 27.177 13.8278 27.4917 13.2227C27.8063 12.6175 27.9705 11.9455 27.9705 11.2635C27.9705 10.5815 27.8063 9.90947 27.4917 9.30434C27.177 8.69921 26.7213 8.17876 26.163 7.787L26.171 7.797L22.21 5.02L17.31 8.449L18.624 9.374L22.204 6.869L25.294 9.036C25.6538 9.28757 25.9476 9.62224 26.1504 10.0116C26.3533 10.4009 26.4592 10.8335 26.4592 11.2725C26.4592 11.7115 26.3533 12.1441 26.1504 12.5334C25.9476 12.9228 25.6538 13.2574 25.294 13.509L23.597 14.693L9.78 5L5.809 7.791C5.2507 8.18276 4.79497 8.70321 4.48034 9.30834C4.16572 9.91347 4.00146 10.5855 4.00146 11.2675C4.00146 11.9495 4.16572 12.6215 4.48034 13.2267C4.79497 13.8318 5.2507 14.3522 5.809 14.744L7.05 15.615L6.746 15.829L6.751 15.836L5.809 16.494C5.2507 16.8858 4.79497 17.4062 4.48034 18.0113C4.16572 18.6165 4.00146 19.2885 4.00146 19.9705C4.00146 20.6525 4.16572 21.3245 4.48034 21.9297C4.79497 22.5348 5.2507 23.0552 5.809 23.447L9.766 26.226L14.663 22.797L13.349 21.871L9.763 24.377L6.673 22.21C6.31321 21.9584 6.01942 21.6238 5.81658 21.2344C5.61373 20.8451 5.50781 20.4125 5.50781 19.9735C5.50781 19.5345 5.61373 19.1019 5.81658 18.7126C6.01942 18.3232 6.31321 17.9886 6.673 17.737L8.378 16.547L22.194 26.239L26.166 23.447C26.7243 23.0552 27.18 22.5348 27.4947 21.9297C27.8093 21.3245 27.9735 20.6525 27.9735 19.9705C27.9735 19.2885 27.8093 18.6165 27.4947 18.0113C27.18 17.4062 26.7243 16.8858 26.166 16.494L24.919 15.62H24.92ZM23.594 16.55L25.291 17.74C25.6508 17.9916 25.9446 18.3262 26.1474 18.7156C26.3503 19.1049 26.4562 19.5375 26.4562 19.9765C26.4562 20.4155 26.3503 20.8481 26.1474 21.2374C25.9446 21.6268 25.6508 21.9614 25.291 22.213L22.197 24.377L9.707 15.62L14.673 12.154L13.353 11.226L12.986 11.482L12.976 11.467L8.376 14.687L6.683 13.5C6.32321 13.2484 6.02942 12.9138 5.82658 12.5244C5.62373 12.1351 5.51781 11.7025 5.51781 11.2635C5.51781 10.8245 5.62373 10.3919 5.82658 10.0026C6.02942 9.61324 6.32321 9.27857 6.683 9.027L9.776 6.863L22.268 15.62L17.294 19.091L18.609 20.017L22.319 17.425L22.329 17.437L23.594 16.55ZM16 32C7.163 32 0 24.837 0 16C0 7.163 7.163 0 16 0C24.837 0 32 7.163 32 16C32 24.837 24.837 32 16 32Z" fill="black"/>
</g>
<defs>
<clipPath id="clip0_16_2794">
<rect width="32" height="32" fill="white"/>
</clipPath>
</defs>
</svg>
