<svg width="32" height="32" viewBox="0 0 32 32" fill="none" xmlns="http://www.w3.org/2000/svg">
<g clip-path="url(#clip0_16_2806)">
<path fill-rule="evenodd" clip-rule="evenodd" d="M16 32C7.163 32 0 24.837 0 16C0 7.163 7.163 0 16 0C24.837 0 32 7.163 32 16C32 24.837 24.837 32 16 32ZM9.291 19.333L20.246 25.641C22.509 24.359 23.64 23.949 23.64 20.205V7.59C21.377 6.308 20.451 5.538 17.211 7.385L6.257 13.692C6.257 16.256 6.051 17.436 9.291 19.333ZM17.525 14.225V17.079L15.037 15.652L17.525 14.225Z" fill="black"/>
<path opacity="0.402" d="M17.52 20.205L6.25702 13.692L17.211 7.38499C20.451 5.53799 21.377 6.30799 23.64 7.58999L12.377 14.103L17.52 17.077V20.205Z" fill="black"/>
<path opacity="0.802" d="M12.377 14.103L23.64 7.59V20.205C23.64 23.949 22.509 24.359 20.246 25.641V12.667L15.05 15.64L12.376 14.102L12.377 14.103Z" fill="black"/>
</g>
<defs>
<clipPath id="clip0_16_2806">
<rect width="32" height="32" fill="white"/>
</clipPath>
</defs>
</svg>
