<svg width="32" height="32" viewBox="0 0 32 32" fill="none" xmlns="http://www.w3.org/2000/svg">
<g clip-path="url(#clip0_16_2811)">
<path d="M16 0C24.837 0 32 7.163 32 16C32 24.837 24.837 32 16 32C7.163 32 0 24.837 0 16C0 7.163 7.163 0 16 0ZM22.012 25.212H9.988C11.7753 26.3804 13.8647 27.0018 16 27C18.216 27 20.285 26.34 22.012 25.212ZM16 5C9.922 5 5 9.922 5 16C5 17.408 5.264 18.75 5.748 19.988L12.793 11.534L18.365 18.222L19.757 16.55L24.8 22.6H23.727L19.762 17.837V22.6H7.2C7.6957 23.254 8.25991 23.853 8.883 24.387H23.117C24.3352 23.3555 25.3137 22.0707 25.9843 20.6221C26.6549 19.1736 27.0016 17.5962 27 16C27 9.922 22.078 5 16 5ZM12.793 12.821V19.988H5.748C5.99 20.615 6.293 21.208 6.639 21.775H15.406L17.831 18.865L12.794 12.821H12.793ZM19.756 9.4C20.4725 9.41932 21.1532 9.71753 21.6531 10.2312C22.1531 10.7448 22.4328 11.4332 22.4328 12.15C22.4328 12.8668 22.1531 13.5552 21.6531 14.0688C21.1532 14.5825 20.4725 14.8807 19.756 14.9C19.0395 14.8807 18.3588 14.5825 17.8589 14.0688C17.3589 13.5552 17.0792 12.8668 17.0792 12.15C17.0792 11.4332 17.3589 10.7448 17.8589 10.2312C18.3588 9.71753 19.0395 9.41932 19.756 9.4ZM12.793 7.409C12.9768 7.40405 13.1596 7.43596 13.3309 7.50286C13.5021 7.56975 13.6581 7.67028 13.7899 7.79849C13.9216 7.92671 14.0263 8.08002 14.0978 8.24937C14.1693 8.41872 14.2061 8.60068 14.2061 8.7845C14.2061 8.96832 14.1693 9.15028 14.0978 9.31963C14.0263 9.48898 13.9216 9.64229 13.7899 9.7705C13.6581 9.89872 13.5021 9.99925 13.3309 10.0661C13.1596 10.133 12.9768 10.165 12.793 10.16C12.4346 10.1503 12.0942 10.0012 11.8441 9.74428C11.594 9.48737 11.4541 9.14301 11.4541 8.7845C11.4541 8.42599 11.594 8.08163 11.8441 7.82472C12.0942 7.56782 12.4346 7.41866 12.793 7.409Z" fill="black"/>
</g>
<defs>
<clipPath id="clip0_16_2811">
<rect width="32" height="32" fill="white"/>
</clipPath>
</defs>
</svg>
