<svg width="32" height="32" viewBox="0 0 32 32" fill="none" xmlns="http://www.w3.org/2000/svg">
<g clip-path="url(#clip0_16_2823)">
<path fill-rule="evenodd" clip-rule="evenodd" d="M16 32C7.163 32 0 24.837 0 16C0 7.163 7.163 0 16 0C24.837 0 32 7.163 32 16C32 24.837 24.837 32 16 32ZM14.22 15.589C14.6197 15.589 15.003 15.4302 15.2856 15.1476C15.5682 14.865 15.727 14.4817 15.727 14.082C15.727 13.6823 15.5682 13.299 15.2856 13.0164C15.003 12.7338 14.6197 12.575 14.22 12.575C13.8203 12.575 13.437 12.7338 13.1544 13.0164C12.8718 13.299 12.713 13.6823 12.713 14.082C12.713 14.4817 12.8718 14.865 13.1544 15.1476C13.437 15.4302 13.8203 15.589 14.22 15.589ZM17.918 15.589C18.3177 15.589 18.701 15.4302 18.9836 15.1476C19.2662 14.865 19.425 14.4817 19.425 14.082C19.425 13.6823 19.2662 13.299 18.9836 13.0164C18.701 12.7338 18.3177 12.575 17.918 12.575C17.5183 12.575 17.135 12.7338 16.8524 13.0164C16.5698 13.299 16.411 13.6823 16.411 14.082C16.411 14.4817 16.5698 14.865 16.8524 15.1476C17.135 15.4302 17.5183 15.589 17.918 15.589ZM14.219 19.288C14.6187 19.288 15.002 19.1292 15.2846 18.8466C15.5672 18.564 15.726 18.1807 15.726 17.781C15.726 17.3813 15.5672 16.998 15.2846 16.7154C15.002 16.4328 14.6187 16.274 14.219 16.274C13.8193 16.274 13.436 16.4328 13.1534 16.7154C12.8708 16.998 12.712 17.3813 12.712 17.781C12.712 18.1807 12.8708 18.564 13.1534 18.8466C13.436 19.1292 13.8193 19.288 14.219 19.288ZM17.918 19.288C18.3177 19.288 18.701 19.1292 18.9836 18.8466C19.2662 18.564 19.425 18.1807 19.425 17.781C19.425 17.3813 19.2662 16.998 18.9836 16.7154C18.701 16.4328 18.3177 16.274 17.918 16.274C17.5183 16.274 17.135 16.4328 16.8524 16.7154C16.5698 16.998 16.411 17.3813 16.411 17.781C16.411 18.1807 16.5698 18.564 16.8524 18.8466C17.135 19.1292 17.5183 19.288 17.918 19.288ZM21.616 15.178C21.9067 15.178 22.1854 15.0625 22.391 14.857C22.5965 14.6514 22.712 14.3727 22.712 14.082C22.712 13.7913 22.5965 13.5126 22.391 13.307C22.1854 13.1015 21.9067 12.986 21.616 12.986C21.3253 12.986 21.0466 13.1015 20.841 13.307C20.6355 13.5126 20.52 13.7913 20.52 14.082C20.52 14.3727 20.6355 14.6514 20.841 14.857C21.0466 15.0625 21.3253 15.178 21.616 15.178ZM21.616 18.877C21.9067 18.877 22.1854 18.7615 22.391 18.556C22.5965 18.3504 22.712 18.0717 22.712 17.781C22.712 17.4903 22.5965 17.2115 22.391 17.006C22.1854 16.8005 21.9067 16.685 21.616 16.685C21.3253 16.685 21.0466 16.8005 20.841 17.006C20.6355 17.2115 20.52 17.4903 20.52 17.781C20.52 18.0717 20.6355 18.3504 20.841 18.556C21.0466 18.7615 21.3253 18.877 21.616 18.877ZM10.384 15.178C10.6747 15.178 10.9534 15.0625 11.159 14.857C11.3645 14.6514 11.48 14.3727 11.48 14.082C11.48 13.7913 11.3645 13.5126 11.159 13.307C10.9534 13.1015 10.6747 12.986 10.384 12.986C10.0933 12.986 9.81455 13.1015 9.60901 13.307C9.40347 13.5126 9.288 13.7913 9.288 14.082C9.288 14.3727 9.40347 14.6514 9.60901 14.857C9.81455 15.0625 10.0933 15.178 10.384 15.178ZM10.384 18.877C10.6747 18.877 10.9534 18.7615 11.159 18.556C11.3645 18.3504 11.48 18.0717 11.48 17.781C11.48 17.4903 11.3645 17.2115 11.159 17.006C10.9534 16.8005 10.6747 16.685 10.384 16.685C10.0933 16.685 9.81455 16.8005 9.60901 17.006C9.40347 17.2115 9.288 17.4903 9.288 17.781C9.288 18.0717 9.40347 18.3504 9.60901 18.556C9.81455 18.7615 10.0933 18.877 10.384 18.877ZM14.219 22.575C14.3656 22.5794 14.5117 22.5544 14.6485 22.5013C14.7853 22.4483 14.91 22.3683 15.0153 22.2661C15.1206 22.1639 15.2043 22.0417 15.2615 21.9066C15.3186 21.7714 15.3481 21.6262 15.3481 21.4795C15.3481 21.3328 15.3186 21.1876 15.2615 21.0524C15.2043 20.9173 15.1206 20.7951 15.0153 20.6929C14.91 20.5907 14.7853 20.5107 14.6485 20.4577C14.5117 20.4046 14.3656 20.3796 14.219 20.384C13.9342 20.3926 13.6639 20.5118 13.4655 20.7163C13.2671 20.9208 13.1561 21.1946 13.1561 21.4795C13.1561 21.7644 13.2671 22.0382 13.4655 22.2427C13.6639 22.4472 13.9342 22.5664 14.219 22.575ZM17.918 22.575C18.0646 22.5794 18.2107 22.5544 18.3475 22.5013C18.4843 22.4483 18.609 22.3683 18.7143 22.2661C18.8196 22.1639 18.9033 22.0417 18.9605 21.9066C19.0176 21.7714 19.0471 21.6262 19.0471 21.4795C19.0471 21.3328 19.0176 21.1876 18.9605 21.0524C18.9033 20.9173 18.8196 20.7951 18.7143 20.6929C18.609 20.5907 18.4843 20.5107 18.3475 20.4577C18.2107 20.4046 18.0646 20.3796 17.918 20.384C17.6332 20.3926 17.3629 20.5118 17.1645 20.7163C16.9661 20.9208 16.8551 21.1946 16.8551 21.4795C16.8551 21.7644 16.9661 22.0382 17.1645 22.2427C17.3629 22.4472 17.6332 22.5664 17.918 22.575ZM14.219 11.48C14.3656 11.4844 14.5117 11.4594 14.6485 11.4063C14.7853 11.3533 14.91 11.2733 15.0153 11.1711C15.1206 11.0689 15.2043 10.9467 15.2615 10.8116C15.3186 10.6764 15.3481 10.5312 15.3481 10.3845C15.3481 10.2378 15.3186 10.0926 15.2615 9.95744C15.2043 9.82232 15.1206 9.70006 15.0153 9.59789C14.91 9.49573 14.7853 9.41575 14.6485 9.36269C14.5117 9.30963 14.3656 9.28457 14.219 9.289C13.9342 9.29761 13.6639 9.4168 13.4655 9.6213C13.2671 9.82581 13.1561 10.0996 13.1561 10.3845C13.1561 10.6694 13.2671 10.9432 13.4655 11.1477C13.6639 11.3522 13.9342 11.4714 14.219 11.48ZM17.918 11.48C18.0646 11.4844 18.2107 11.4594 18.3475 11.4063C18.4843 11.3533 18.609 11.2733 18.7143 11.1711C18.8196 11.0689 18.9033 10.9467 18.9605 10.8116C19.0176 10.6764 19.0471 10.5312 19.0471 10.3845C19.0471 10.2378 19.0176 10.0926 18.9605 9.95744C18.9033 9.82232 18.8196 9.70006 18.7143 9.59789C18.609 9.49573 18.4843 9.41575 18.3475 9.36269C18.2107 9.30963 18.0646 9.28457 17.918 9.289C17.6332 9.29761 17.3629 9.4168 17.1645 9.6213C16.9661 9.82581 16.8551 10.0996 16.8551 10.3845C16.8551 10.6694 16.9661 10.9432 17.1645 11.1477C17.3629 11.3522 17.6332 11.4714 17.918 11.48ZM14.219 7.37C14.3111 7.37352 14.4029 7.35842 14.4891 7.32561C14.5752 7.2928 14.6538 7.24294 14.7202 7.17903C14.7866 7.11512 14.8394 7.03847 14.8755 6.95367C14.9116 6.86887 14.9302 6.77766 14.9302 6.6855C14.9302 6.59334 14.9116 6.50213 14.8755 6.41733C14.8394 6.33253 14.7866 6.25588 14.7202 6.19197C14.6538 6.12806 14.5752 6.0782 14.4891 6.04539C14.4029 6.01258 14.3111 5.99748 14.219 6.001C14.0373 6.001 13.8631 6.07317 13.7346 6.20163C13.6062 6.33009 13.534 6.50433 13.534 6.686C13.534 6.86767 13.6062 7.04191 13.7346 7.17037C13.8631 7.29883 14.0373 7.371 14.219 7.371V7.37ZM17.918 7.37C18.0101 7.37352 18.1019 7.35842 18.1881 7.32561C18.2742 7.2928 18.3528 7.24294 18.4192 7.17903C18.4856 7.11512 18.5384 7.03847 18.5745 6.95367C18.6106 6.86887 18.6292 6.77766 18.6292 6.6855C18.6292 6.59334 18.6106 6.50213 18.5745 6.41733C18.5384 6.33253 18.4856 6.25588 18.4192 6.19197C18.3528 6.12806 18.2742 6.0782 18.1881 6.04539C18.1019 6.01258 18.0101 5.99748 17.918 6.001C17.7363 6.001 17.5621 6.07317 17.4336 6.20163C17.3052 6.33009 17.233 6.50433 17.233 6.686C17.233 6.86767 17.3052 7.04191 17.4336 7.17037C17.5621 7.29883 17.7363 7.371 17.918 7.371V7.37ZM25.315 14.768C25.4967 14.768 25.6709 14.6958 25.7994 14.5674C25.9278 14.4389 26 14.2647 26 14.083C26 13.9013 25.9278 13.7271 25.7994 13.5986C25.6709 13.4702 25.4967 13.398 25.315 13.398C25.1333 13.398 24.9591 13.4702 24.8306 13.5986C24.7022 13.7271 24.63 13.9013 24.63 14.083C24.63 14.2647 24.7022 14.4389 24.8306 14.5674C24.9591 14.6958 25.1333 14.768 25.315 14.768ZM25.315 18.467C25.4967 18.467 25.6709 18.3948 25.7994 18.2664C25.9278 18.1379 26 17.9637 26 17.782C26 17.6003 25.9278 17.4261 25.7994 17.2976C25.6709 17.1692 25.4967 17.097 25.315 17.097C25.1333 17.097 24.9591 17.1692 24.8306 17.2976C24.7022 17.4261 24.63 17.6003 24.63 17.782C24.63 17.9637 24.7022 18.1379 24.8306 18.2664C24.9591 18.3948 25.1333 18.467 25.315 18.467ZM6.685 14.768C6.86667 14.768 7.04091 14.6958 7.16937 14.5674C7.29783 14.4389 7.37 14.2647 7.37 14.083C7.37 13.9013 7.29783 13.7271 7.16937 13.5986C7.04091 13.4702 6.86667 13.398 6.685 13.398C6.50333 13.398 6.32909 13.4702 6.20063 13.5986C6.07217 13.7271 6 13.9013 6 14.083C6 14.2647 6.07217 14.4389 6.20063 14.5674C6.32909 14.6958 6.50333 14.768 6.685 14.768ZM6.685 18.467C6.86667 18.467 7.04091 18.3948 7.16937 18.2664C7.29783 18.1379 7.37 17.9637 7.37 17.782C7.37 17.6003 7.29783 17.4261 7.16937 17.2976C7.04091 17.1692 6.86667 17.097 6.685 17.097C6.50333 17.097 6.32909 17.1692 6.20063 17.2976C6.07217 17.4261 6 17.6003 6 17.782C6 17.9637 6.07217 18.1379 6.20063 18.2664C6.32909 18.3948 6.50333 18.467 6.685 18.467ZM14.219 26C14.4007 26 14.5749 25.9278 14.7034 25.7994C14.8318 25.6709 14.904 25.4967 14.904 25.315C14.904 25.1333 14.8318 24.9591 14.7034 24.8306C14.5749 24.7022 14.4007 24.63 14.219 24.63C14.0373 24.63 13.8631 24.7022 13.7346 24.8306C13.6062 24.9591 13.534 25.1333 13.534 25.315C13.534 25.4967 13.6062 25.6709 13.7346 25.7994C13.8631 25.9278 14.0373 26 14.219 26ZM17.918 26C18.0997 26 18.2739 25.9278 18.4024 25.7994C18.5308 25.6709 18.603 25.4967 18.603 25.315C18.603 25.1333 18.5308 24.9591 18.4024 24.8306C18.2739 24.7022 18.0997 24.63 17.918 24.63C17.7363 24.63 17.5621 24.7022 17.4336 24.8306C17.3052 24.9591 17.233 25.1333 17.233 25.315C17.233 25.4967 17.3052 25.6709 17.4336 25.7994C17.5621 25.9278 17.7363 26 17.918 26Z" fill="black"/>
</g>
<defs>
<clipPath id="clip0_16_2823">
<rect width="32" height="32" fill="white"/>
</clipPath>
</defs>
</svg>
