<svg width="32" height="32" viewBox="0 0 32 32" fill="none" xmlns="http://www.w3.org/2000/svg">
<g clip-path="url(#clip0_16_2829)">
<path d="M16 32C7.163 32 0 24.837 0 16C0 7.163 7.163 0 16 0C24.837 0 32 7.163 32 16C32 24.837 24.837 32 16 32ZM20.985 19.168C20.1825 19.168 19.4128 18.8492 18.8453 18.2817C18.2778 17.7142 17.959 16.9445 17.959 16.142C17.959 15.3395 18.2778 14.5698 18.8453 14.0023C19.4128 13.4348 20.1825 13.116 20.985 13.116C21.7875 13.116 22.5572 13.4348 23.1247 14.0023C23.6922 14.5698 24.011 15.3395 24.011 16.142C24.011 16.9445 23.6922 17.7142 23.1247 18.2817C22.5572 18.8492 21.7875 19.168 20.985 19.168ZM20.985 9.163C20.0519 9.16199 19.1281 9.34872 18.2686 9.71207C17.4091 10.0754 16.6315 10.608 15.982 11.278C17.2513 12.5787 17.9609 14.3246 17.959 16.142C17.9608 17.9594 17.2512 19.7052 15.982 21.006C16.7849 21.8324 17.78 22.4472 18.8784 22.7955C19.9767 23.1438 21.1442 23.2147 22.2767 23.002C23.4091 22.7893 24.4713 22.2996 25.3684 21.5765C26.2656 20.8534 26.9697 19.9195 27.4181 18.858C27.8664 17.7966 28.0451 16.6407 27.938 15.4934C27.8309 14.3461 27.4415 13.2432 26.8045 12.2831C26.1674 11.3229 25.3026 10.5354 24.2872 9.99081C23.2717 9.44621 22.1373 9.16147 20.985 9.162V9.163ZM10.98 19.168C10.1775 19.168 9.40778 18.8492 8.84029 18.2817C8.27281 17.7142 7.954 16.9445 7.954 16.142C7.954 15.3395 8.27281 14.5698 8.84029 14.0023C9.40778 13.4348 10.1775 13.116 10.98 13.116C11.7825 13.116 12.5522 13.4348 13.1197 14.0023C13.6872 14.5698 14.006 15.3395 14.006 16.142C14.006 16.9445 13.6872 17.7142 13.1197 18.2817C12.5522 18.8492 11.7825 19.168 10.98 19.168ZM15.983 11.278C15.015 10.2817 13.7718 9.59693 12.4124 9.31123C11.053 9.02553 9.63933 9.15193 8.3522 9.67425C7.06506 10.1966 5.96304 11.0911 5.18716 12.2432C4.41127 13.3954 3.99681 14.7529 3.99681 16.142C3.99681 17.5311 4.41127 18.8886 5.18716 20.0408C5.96304 21.1929 7.06506 22.0874 8.3522 22.6098C9.63933 23.1321 11.053 23.2585 12.4124 22.9728C13.7718 22.6871 15.015 22.0023 15.983 21.006C14.7142 19.7051 14.0049 17.9592 14.007 16.142C14.007 14.25 14.761 12.535 15.983 11.278ZM14.006 16.143C14.006 18.035 14.76 19.75 15.983 21.007C17.2519 19.7061 17.9612 17.9602 17.959 16.143C17.9612 14.3258 17.2519 12.5799 15.983 11.279C14.7137 12.5797 14.0041 14.3256 14.006 16.143Z" fill="black"/>
</g>
<defs>
<clipPath id="clip0_16_2829">
<rect width="32" height="32" fill="white"/>
</clipPath>
</defs>
</svg>
