<svg width="32" height="32" viewBox="0 0 32 32" fill="none" xmlns="http://www.w3.org/2000/svg">
<g clip-path="url(#clip0_16_2835)">
<path d="M16 0C24.837 0 32 7.163 32 16C32 24.837 24.837 32 16 32C7.163 32 0 24.837 0 16C0 7.163 7.163 0 16 0ZM6 11.81V21.156H7.558V13.111L13.659 17.703V21.156H15.217V17.38C15.2169 17.2391 15.184 17.1002 15.121 16.9742C15.058 16.8482 14.9666 16.7386 14.854 16.654L7.455 11.085C7.3201 10.9837 7.15966 10.9219 6.99163 10.9065C6.8236 10.8912 6.65462 10.9229 6.5036 10.9982C6.35258 11.0734 6.22549 11.1892 6.13655 11.3326C6.0476 11.476 6.00032 11.6413 6 11.81ZM25.99 11.81C25.9899 11.6412 25.9427 11.4757 25.8538 11.3322C25.765 11.1887 25.6379 11.0728 25.4868 10.9974C25.3358 10.922 25.1667 10.8902 24.9986 10.9055C24.8305 10.9208 24.67 10.9826 24.535 11.084L17.135 16.653C17.0226 16.7377 16.9313 16.8474 16.8685 16.9734C16.8057 17.0994 16.773 17.2382 16.773 17.379V21.156H18.331V17.703L24.431 13.111V21.156H25.99V11.81Z" fill="black"/>
</g>
<defs>
<clipPath id="clip0_16_2835">
<rect width="32" height="32" fill="white"/>
</clipPath>
</defs>
</svg>
