<svg width="32" height="32" viewBox="0 0 32 32" fill="none" xmlns="http://www.w3.org/2000/svg">
<g clip-path="url(#clip0_16_2852)">
<path d="M16 32C7.163 32 0 24.837 0 16C0 7.163 7.163 0 16 0C24.837 0 32 7.163 32 16C32 24.837 24.837 32 16 32ZM25 19.899V9.559C22.975 8.426 20.385 9.099 19.216 11.059L15.997 16.459L12.784 11.069C11.615 9.107 9.025 8.435 7 9.568V19.898C7 22.165 8.896 24 11.234 24V16.67L12.464 18.733C12.969 19.473 13.441 19.899 13.88 20.01L14.1 20.133C14.692 20.4205 15.3418 20.5693 16 20.568C16.695 20.5719 17.3804 20.4059 17.9967 20.0845C18.6129 19.7631 19.1413 19.2961 19.536 18.724L20.765 16.664V24C23.104 24 24.999 22.164 24.999 19.899H25Z" fill="black"/>
<path d="M7 9.56799L11.234 16.671V24C8.896 24 7 22.164 7 19.899V9.56799Z" fill="black" fill-opacity="0.5"/>
<path d="M20.765 16.663L24.997 9.56403H24.999V19.9C25 22.164 23.104 24 20.765 24V16.663Z" fill="black" fill-opacity="0.4"/>
<path d="M15.997 16.458L13.88 20.01C13.441 19.9 12.969 19.474 12.464 18.733L7 9.568C9.025 8.435 11.615 9.108 12.784 11.068L15.997 16.458Z" fill="black" fill-opacity="0.198"/>
</g>
<defs>
<clipPath id="clip0_16_2852">
<rect width="32" height="32" fill="white"/>
</clipPath>
</defs>
</svg>
