<svg width="32" height="32" viewBox="0 0 32 32" fill="none" xmlns="http://www.w3.org/2000/svg">
<g clip-path="url(#clip0_16_2861)">
<path fill-rule="evenodd" clip-rule="evenodd" d="M16 32C7.163 32 0 24.837 0 16C0 7.163 7.163 0 16 0C24.837 0 32 7.163 32 16C32 24.837 24.837 32 16 32ZM16.811 11.567C17.7528 10.9363 18.8615 10.601 19.995 10.604C21.845 10.604 24.362 11.738 24.362 16.639C24.362 18.884 23.553 20.551 21.934 21.639C21.912 21.6534 21.8932 21.672 21.8787 21.6939C21.8642 21.7157 21.8542 21.7403 21.8494 21.7661C21.8447 21.7919 21.8452 21.8184 21.851 21.844C21.8567 21.8696 21.8676 21.8937 21.883 21.915C21.9059 21.9466 21.9374 21.9711 21.9737 21.9856C22.0099 22.0001 22.0496 22.0041 22.088 21.997C23.134 21.805 26 20.16 26 15.903C26 12.703 24.514 9.353 21.77 9.353C19.978 9.353 18.225 9.941 16.511 11.117C15.615 9.706 14.325 9 12.641 9C9.89 9 6 11.605 6 16.124C6 18.182 6.54 20.012 7.622 21.614L9.002 20.01C8.204 18.793 7.804 17.311 7.804 15.565C7.804 12.945 9.76 10.31 12.232 10.31C13.522 10.31 14.532 10.707 15.265 11.5V13.43H13.779L12.778 14.578H15.265V16.021H14.476L13.506 17.169H15.265V21.849L16.538 20.113V17.169H17.327L18.085 16.021H16.538V14.578H18.024L19.025 13.43H16.811V11.567Z" fill="black"/>
</g>
<defs>
<clipPath id="clip0_16_2861">
<rect width="32" height="32" fill="white"/>
</clipPath>
</defs>
</svg>
