<svg width="32" height="32" viewBox="0 0 32 32" fill="none" xmlns="http://www.w3.org/2000/svg">
<g clip-path="url(#clip0_16_2865)">
<path fill-rule="evenodd" clip-rule="evenodd" d="M16 32C7.163 32 0 24.837 0 16C0 7.163 7.163 0 16 0C24.837 0 32 7.163 32 16C32 24.837 24.837 32 16 32ZM5 16.002C5.133 16.053 5.206 16.084 5.281 16.11C7.321 16.803 9.358 17.5 11.401 18.183C11.626 18.259 11.752 18.383 11.854 18.589C13.071 21.074 14.296 23.556 15.52 26.038C15.67 26.342 15.823 26.645 16 27C16.045 26.884 16.068 26.83 16.087 26.774C16.778 24.744 17.474 22.716 18.153 20.682C18.1885 20.5573 18.2511 20.442 18.3363 20.3444C18.4215 20.2467 18.5273 20.1691 18.646 20.117C21.278 18.829 23.905 17.529 26.533 16.232L27 15.995C26.859 15.945 26.783 15.917 26.706 15.891C24.666 15.198 22.626 14.508 20.591 13.806C20.443 13.755 20.268 13.645 20.202 13.513C18.846 10.789 17.503 8.058 16.158 5.329C16.11 5.232 16.058 5.136 15.988 5C15.94 5.126 15.909 5.2 15.883 5.275C15.187 7.325 14.489 9.375 13.801 11.427C13.7742 11.5184 13.7278 11.6028 13.6649 11.6744C13.602 11.7459 13.5242 11.8028 13.437 11.841C11.676 12.701 9.918 13.57 8.16 14.437C7.126 14.947 6.094 15.461 5 16.002ZM12.73 18.655L17.492 20.264L15.876 25.037L12.731 18.655H12.73ZM6.977 15.886L13.359 12.733L11.741 17.503L6.977 15.886ZM13.008 17.91C13.432 17.699 13.819 17.505 14.208 17.313C16.074 16.392 17.939 15.467 19.811 14.556C19.9615 14.4902 20.1304 14.4796 20.288 14.526C21.78 15.018 23.267 15.526 24.754 16.031C24.819 16.053 24.882 16.079 25.001 16.125C24.456 16.397 23.958 16.647 23.458 16.894C21.702 17.761 19.946 18.63 18.185 19.489C18.062 19.549 17.884 19.584 17.76 19.543C16.22 19.033 14.685 18.508 13.15 17.986C13.114 17.974 13.083 17.95 13.008 17.91ZM19.507 13.845L12.637 17.237L16.117 6.97C17.261 9.29 18.377 11.551 19.507 13.845Z" fill="black"/>
</g>
<defs>
<clipPath id="clip0_16_2865">
<rect width="32" height="32" fill="white"/>
</clipPath>
</defs>
</svg>
