<svg width="32" height="32" viewBox="0 0 32 32" fill="none" xmlns="http://www.w3.org/2000/svg">
<g clip-path="url(#clip0_16_2889)">
<path fill-rule="evenodd" clip-rule="evenodd" d="M18.151 13.719L19.993 9.976C20.563 8.656 21.215 7.83 21.948 7.5H16C16.543 7.693 16.815 7.995 16.815 8.408C16.815 8.524 16.613 9.022 16.209 9.903L18.151 13.719ZM15.235 19.647L13.331 15.832C12.879 16.74 12.384 17.732 11.844 18.806C10.242 22.299 8.654 24.197 7.078 24.5H21.663L24.515 20.126C23.7 21.034 22.084 21.488 19.667 21.488H14.33L15.235 19.647ZM16 32C7.163 32 0 24.837 0 16C0 7.163 7.163 0 16 0C24.837 0 32 7.163 32 16C32 24.837 24.837 32 16 32ZM5 20.25H9.604L13.189 12.988L16.815 20.25H21.052C20.97 20.195 20.93 20.057 20.93 19.837C20.93 18.719 24.963 9.109 27 8.573H22.193L18.281 16.495L14.248 8.573H9.604C10.201 9.013 10.5 9.481 10.5 9.976C10.5 12.078 6.181 19.549 5 20.25Z" fill="black"/>
</g>
<defs>
<clipPath id="clip0_16_2889">
<rect width="32" height="32" fill="white"/>
</clipPath>
</defs>
</svg>
