<svg width="32" height="32" viewBox="0 0 32 32" fill="none" xmlns="http://www.w3.org/2000/svg">
<g clip-path="url(#clip0_16_2897)">
<path d="M16 32C7.163 32 0 24.837 0 16C0 7.163 7.163 0 16 0C24.837 0 32 7.163 32 16C32 24.837 24.837 32 16 32ZM15.972 4C9.372 4 4 9.372 4 15.972C4 22.572 9.372 27.954 15.982 27.954C22.591 27.954 27.963 22.582 27.963 15.972C27.963 9.363 22.582 4 15.973 4H15.972ZM15.972 27.03C9.88 27.03 4.914 22.074 4.914 15.972C4.924 9.88 9.88 4.923 15.972 4.923C22.065 4.923 27.031 9.88 27.031 15.982C27.031 22.074 22.074 27.031 15.972 27.031V27.03ZM9.774 10.658L14.46 15.344L15.342 14.463L10.655 9.776L9.774 10.658ZM16.592 17.478L21.278 22.165L22.16 21.283L17.473 16.597L16.592 17.478ZM15.096 15.976L15.984 16.864L16.865 15.983L15.978 15.095L15.096 15.976ZM16.605 14.502L17.486 15.382L22.173 10.696L21.291 9.816L16.605 14.502ZM9.808 21.29L10.688 22.171L15.375 17.485L14.494 16.604L9.808 21.29Z" fill="black"/>
</g>
<defs>
<clipPath id="clip0_16_2897">
<rect width="32" height="32" fill="white"/>
</clipPath>
</defs>
</svg>
