<svg width="32" height="32" viewBox="0 0 32 32" fill="none" xmlns="http://www.w3.org/2000/svg">
<g clip-path="url(#clip0_16_2899)">
<path d="M16 0C24.837 0 32 7.163 32 16C32 24.837 24.837 32 16 32C7.163 32 0 24.837 0 16C0 7.163 7.163 0 16 0ZM23.965 7.51H21.885L21.773 7.516C21.5195 7.54407 21.2852 7.66468 21.1151 7.85473C20.945 8.04479 20.8509 8.29092 20.851 8.546V19.648L20.845 19.76C20.76 20.602 19.721 21.003 19.093 20.389L14.738 16.131L14.654 16.057C13.992 15.53 12.98 15.993 12.98 16.872V23.563L12.986 23.673C13.04 24.138 13.436 24.5 13.916 24.5H19.656L19.642 24.49H23.965L24.078 24.484C24.596 24.427 25 23.988 25 23.454V8.546L24.994 8.433C24.9662 8.17946 24.8458 7.9451 24.6559 7.77479C24.4661 7.60448 24.2201 7.5102 23.965 7.51ZM18.305 7.5H13.132L13.14 7.51H8.147L8.022 7.517C7.74107 7.54802 7.48145 7.68159 7.29287 7.89212C7.1043 8.10266 7.00002 8.37536 7 8.658V23.342L7.007 23.467C7.03756 23.748 7.17082 24.0079 7.38122 24.1967C7.59161 24.3855 7.86431 24.4899 8.147 24.49H10.002L10.127 24.483C10.4079 24.452 10.6675 24.3184 10.8561 24.1079C11.0447 23.8973 11.149 23.6246 11.149 23.342V12.618L11.155 12.498C11.246 11.563 12.4 11.115 13.097 11.797L17.072 15.683L17.169 15.769C17.799 16.266 18.713 15.957 18.959 15.243L18.989 15.133L19.006 15.046C19.016 14.986 19.02 14.926 19.02 14.862L18.99 8.185L18.982 8.084C18.958 7.92179 18.8766 7.77359 18.7525 7.6664C18.6284 7.55921 18.47 7.50016 18.306 7.5H18.305Z" fill="black"/>
</g>
<defs>
<clipPath id="clip0_16_2899">
<rect width="32" height="32" fill="white"/>
</clipPath>
</defs>
</svg>
