<svg width="32" height="32" viewBox="0 0 32 32" fill="none" xmlns="http://www.w3.org/2000/svg">
<g clip-path="url(#clip0_16_2907)">
<path d="M19.544 19.969L18.932 18.668H17.55L18.176 19.998H21.138L23.279 17.088L22.5 16.018L23.279 14.948L21.138 12.038H19.523L22.475 16.018L19.544 19.969ZM16 32C7.163 32 0 24.837 0 16C0 7.163 7.163 0 16 0C24.837 0 32 7.163 32 16C32 24.837 24.837 32 16 32ZM14.09 18.668L14.684 17.372L15.805 15.018L16.926 17.333H18.341L15.838 12L12.085 19.999H13.467L14.09 18.668ZM24.07 16L27 12.003H25.42L23.279 14.913L24.07 16ZM24.07 16L23.28 17.088L25.42 19.998H27L24.07 16ZM11.422 13.158C11.0858 12.7867 10.6741 12.4916 10.2144 12.2925C9.75475 12.0935 9.25782 11.9951 8.757 12.004C7.96948 11.9915 7.20182 12.2515 6.584 12.74L7.504 13.72C7.87572 13.4797 8.31154 13.3577 8.754 13.37C9.08856 13.3632 9.42068 13.4284 9.7278 13.5613C10.0349 13.6941 10.3099 13.8915 10.534 14.14C10.996 14.648 11.256 15.328 11.257 16.036C11.2763 16.7387 11.0159 17.4202 10.533 17.931C10.3099 18.1836 10.0361 18.3863 9.7294 18.5259C9.42268 18.6654 9.08997 18.7388 8.753 18.741C8.41603 18.7388 8.08332 18.6654 7.7766 18.5259C7.46988 18.3863 7.19605 18.1836 6.973 17.931C6.57973 17.4924 6.33356 16.9418 6.269 16.3563C6.20444 15.7708 6.32473 15.1797 6.613 14.666L5.692 13.686C5.22646 14.367 4.98491 15.1762 5.001 16.001C4.97426 17.0543 5.36416 18.0755 6.086 18.843C6.42482 19.212 6.83742 19.5057 7.29704 19.705C7.75666 19.9044 8.25304 20.0049 8.754 20C9.807 20 10.699 19.653 11.422 18.844C12.1326 18.0695 12.5207 17.053 12.507 16.002C12.5223 15.48 12.4343 14.9602 12.2481 14.4723C12.0619 13.9844 11.7812 13.5381 11.422 13.159V13.158Z" fill="black"/>
</g>
<defs>
<clipPath id="clip0_16_2907">
<rect width="32" height="32" fill="white"/>
</clipPath>
</defs>
</svg>
