<svg width="32" height="32" viewBox="0 0 32 32" fill="none" xmlns="http://www.w3.org/2000/svg">
<g clip-path="url(#clip0_16_2911)">
<path d="M16 0C24.837 0 32 7.163 32 16C32 24.837 24.837 32 16 32C7.163 32 0 24.837 0 16C0 7.163 7.163 0 16 0ZM7.671 12C5.423 12 4 13.695 4 15.845C4 17.994 5.423 19.685 7.671 19.685C9.919 19.685 11.345 18.006 11.345 15.845C11.345 13.683 9.922 12 7.67 12H7.671ZM24.358 12.002C21.909 12.002 20.768 13.886 20.768 15.894C20.768 18.051 22.088 19.682 24.138 19.682C25.34 19.682 26.012 19.126 26.282 18.656V19.493H27.548V15.577H24.138V16.837H26.24L26.213 17.009C26.029 17.959 25.285 18.405 24.346 18.405C22.923 18.405 22.13 17.359 22.13 15.852C22.13 14.439 22.829 13.279 24.316 13.279C25.288 13.279 26.074 13.775 26.158 14.608H27.548L27.522 14.418C27.262 12.864 26.017 12.002 24.358 12.002ZM14.027 12.178H12.3V19.501H13.545V14.342L15.429 19.501H16.653L18.535 14.342V19.501H19.811V12.178H18.086L16.056 17.776L14.026 12.178H14.027ZM7.671 13.308C9.104 13.308 9.964 14.397 9.964 15.845C9.964 17.292 9.106 18.383 7.671 18.383C6.238 18.383 5.381 17.305 5.381 15.85C5.381 14.394 6.238 13.309 7.671 13.309V13.308Z" fill="black"/>
</g>
<defs>
<clipPath id="clip0_16_2911">
<rect width="32" height="32" fill="white"/>
</clipPath>
</defs>
</svg>
