<svg width="32" height="32" viewBox="0 0 32 32" fill="none" xmlns="http://www.w3.org/2000/svg">
<g clip-path="url(#clip0_16_2913)">
<path fill-rule="evenodd" clip-rule="evenodd" d="M16 32C7.163 32 0 24.837 0 16C0 7.163 7.163 0 16 0C24.837 0 32 7.163 32 16C32 24.837 24.837 32 16 32ZM10.065 6.888H6.875V10.084C7.70428 8.80823 8.79079 7.71967 10.065 6.888ZM25.069 9.998V6.888H21.935C23.1804 7.70068 24.2468 8.75893 25.069 9.998ZM21.981 25.082H25.069V22.002C24.257 23.2256 23.2067 24.2732 21.981 25.082ZM6.875 21.916V25.082H10.019C8.76445 24.2541 7.69415 23.1763 6.875 21.916ZM26 16C26 10.486 21.514 6 16 6C10.486 6 6 10.486 6 16C6 21.514 10.486 26 16 26C21.514 26 26 21.514 26 16ZM16 23.292C11.98 23.292 8.708 20.021 8.708 16C8.708 11.98 11.979 8.708 16 8.708C20.02 8.708 23.292 11.979 23.292 16C23.292 20.02 20.021 23.292 16 23.292Z" fill="black"/>
</g>
<defs>
<clipPath id="clip0_16_2913">
<rect width="32" height="32" fill="white"/>
</clipPath>
</defs>
</svg>
