<svg width="32" height="32" viewBox="0 0 32 32" fill="none" xmlns="http://www.w3.org/2000/svg">
<g clip-path="url(#clip0_16_2915)">
<path d="M16 0C24.837 0 32 7.163 32 16C32 24.837 24.837 32 16 32C7.163 32 0 24.837 0 16C0 7.163 7.163 0 16 0ZM21.143 7C19.019 7 17.286 8.738 17.23 10.869V15.186C16.838 15.186 16.447 15.242 16 15.242C15.553 15.242 15.161 15.242 14.77 15.298V10.868C14.77 8.738 12.981 7 10.801 7.056C8.733 7.056 7.056 8.794 7 10.869V21.186C7.056 23.316 8.789 25.055 10.969 24.999C13.093 24.943 14.77 23.261 14.77 21.186V16.868C15.161 16.868 15.553 16.812 16 16.812C16.447 16.812 16.838 16.812 17.23 16.756V21.13C17.286 23.26 19.019 24.999 21.199 24.943C23.323 24.887 25 23.204 25 21.13V10.869C25 8.739 23.267 7 21.143 7ZM13.26 17.093L13.204 21.186C13.2079 21.4884 13.1513 21.7885 13.0376 22.0687C12.9238 22.349 12.7553 22.6036 12.5418 22.8178C12.3282 23.032 12.0741 23.2013 11.7942 23.3159C11.5143 23.4305 11.2144 23.488 10.912 23.485C10.6095 23.488 10.3095 23.4304 10.0295 23.3158C9.74961 23.2012 9.4954 23.0317 9.28187 22.8174C9.06835 22.6032 8.8998 22.3484 8.78613 22.068C8.67247 21.7877 8.61599 21.4875 8.62 21.185V20.177C8.62 19.28 9.347 18.382 10.577 17.877C11.415 17.485 12.31 17.261 13.26 17.093ZM23.434 14.906V21.186C23.4322 21.794 23.1903 22.3766 22.7611 22.8071C22.3318 23.2377 21.75 23.4813 21.142 23.485C20.8395 23.488 20.5395 23.4304 20.2595 23.3158C19.9796 23.2012 19.7254 23.0317 19.5119 22.8174C19.2983 22.6032 19.1298 22.3484 19.0161 22.068C18.9025 21.7877 18.846 21.4875 18.85 21.185V16.645C19.9847 16.4651 21.0925 16.1446 22.148 15.691C22.595 15.467 23.042 15.242 23.434 14.906ZM10.913 8.57C11.2154 8.56704 11.5153 8.62454 11.7952 8.73912C12.0751 8.8537 12.3292 9.02304 12.5428 9.23721C12.7563 9.45138 12.9248 9.70605 13.0386 9.98627C13.1523 10.2665 13.2089 10.5666 13.205 10.869V15.411C12.0704 15.5906 10.9625 15.9107 9.907 16.364C9.46 16.588 9.012 16.812 8.621 17.149V10.869C8.621 9.635 9.627 8.57 10.913 8.57ZM21.087 8.57C21.3894 8.56704 21.6893 8.62454 21.9692 8.73912C22.2491 8.8537 22.5033 9.02304 22.7168 9.23721C22.9303 9.45138 23.0989 9.70605 23.2126 9.98627C23.3263 10.2665 23.3829 10.5666 23.379 10.869V11.879C23.435 12.831 22.708 13.672 21.479 14.233C20.639 14.626 19.745 14.85 18.795 15.018V10.868C18.7913 10.5657 18.8479 10.2657 18.9617 9.98558C19.0755 9.70547 19.2441 9.45092 19.4576 9.23686C19.6711 9.0228 19.9252 8.85354 20.205 8.73903C20.4848 8.62451 20.7847 8.56705 21.087 8.57Z" fill="black"/>
</g>
<defs>
<clipPath id="clip0_16_2915">
<rect width="32" height="32" fill="white"/>
</clipPath>
</defs>
</svg>
