<svg width="32" height="32" viewBox="0 0 32 32" fill="none" xmlns="http://www.w3.org/2000/svg">
<g clip-path="url(#clip0_16_2917)">
<path d="M16 32C7.163 32 0 24.837 0 16C0 7.163 7.163 0 16 0C24.837 0 32 7.163 32 16C32 24.837 24.837 32 16 32ZM15.943 26.311C21.683 26.311 26.031 22.465 26.933 17.433H22.036C21.304 20.105 19.032 22.061 16.001 22.061C12.992 22.061 10.691 20.091 9.928 17.433H5C5.869 22.483 10.18 26.311 15.943 26.311ZM15.971 10.054C16.6412 10.054 17.284 9.78776 17.7579 9.31386C18.2318 8.83995 18.498 8.1972 18.498 7.527C18.498 6.8568 18.2318 6.21405 17.7579 5.74014C17.284 5.26624 16.6412 5 15.971 5C15.3008 5 14.658 5.26624 14.1841 5.74014C13.7102 6.21405 13.444 6.8568 13.444 7.527C13.444 8.1972 13.7102 8.83995 14.1841 9.31386C14.658 9.78776 15.3008 10.054 15.971 10.054ZM9.655 17.434H22.285C22.279 13.84 19.652 10.857 15.94 10.857C12.229 10.857 9.655 13.79 9.655 17.382V17.433V17.434Z" fill="black"/>
</g>
<defs>
<clipPath id="clip0_16_2917">
<rect width="32" height="32" fill="white"/>
</clipPath>
</defs>
</svg>
