<svg width="32" height="32" viewBox="0 0 32 32" fill="none" xmlns="http://www.w3.org/2000/svg">
<g clip-path="url(#clip0_16_2933)">
<path fill-rule="evenodd" clip-rule="evenodd" d="M16 32C7.163 32 0 24.837 0 16C0 7.163 7.163 0 16 0C24.837 0 32 7.163 32 16C32 24.837 24.837 32 16 32ZM15.08 20.156L12.284 21.316L12.437 20.477L14.534 19.607C14.6594 19.5544 14.7589 19.4543 14.8108 19.3286C14.8627 19.2029 14.8628 19.0618 14.811 18.936C14.7858 18.8737 14.7484 18.817 14.7012 18.7692C14.654 18.7213 14.5977 18.6833 14.5357 18.6573C14.4737 18.6313 14.4072 18.6177 14.34 18.6175C14.2728 18.6173 14.2062 18.6304 14.144 18.656L12.657 19.274L12.94 17.718H18.215C22.798 17.718 25.5 14.86 25.5 11.165C25.5 8.252 23.427 6.867 19.28 7.01H12.507L10.109 20.331L6.816 21.698C6.69059 21.7506 6.59107 21.8507 6.53918 21.9764C6.48728 22.1021 6.48722 22.2432 6.539 22.369C6.56425 22.4313 6.60156 22.488 6.64881 22.5358C6.69605 22.5837 6.75228 22.6217 6.81427 22.6477C6.87626 22.6737 6.94278 22.6873 7.01001 22.6875C7.07723 22.6877 7.14384 22.6746 7.206 22.649L9.893 21.533L9.743 22.372L7.753 23.197C7.62758 23.2496 7.52807 23.3497 7.47618 23.4754C7.42428 23.6011 7.42422 23.7422 7.476 23.868C7.50124 23.9304 7.5386 23.9872 7.58591 24.0352C7.63322 24.0831 7.68956 24.1211 7.75166 24.1472C7.81377 24.1732 7.88041 24.1867 7.94775 24.1868C8.01509 24.187 8.08179 24.1738 8.144 24.148L9.526 23.574L9.269 25H11.613L12.065 22.52L15.471 21.106C15.5964 21.0534 15.6959 20.9533 15.7478 20.8276C15.7997 20.7019 15.7998 20.5608 15.748 20.435C15.7228 20.3727 15.6854 20.316 15.6382 20.2682C15.591 20.2203 15.5347 20.1823 15.4727 20.1563C15.4107 20.1303 15.3442 20.1167 15.277 20.1165C15.2098 20.1163 15.1432 20.1294 15.081 20.155L15.08 20.156ZM14.51 9.109H19.664C22.22 9.109 22.987 10.179 22.987 11.765C22.987 13.349 21.767 15.534 18.557 15.534H13.338L14.51 9.109Z" fill="black"/>
</g>
<defs>
<clipPath id="clip0_16_2933">
<rect width="32" height="32" fill="white"/>
</clipPath>
</defs>
</svg>
