<svg width="32" height="32" viewBox="0 0 32 32" fill="none" xmlns="http://www.w3.org/2000/svg">
<g clip-path="url(#clip0_16_2937)">
<path d="M16 0C24.837 0 32 7.163 32 16C32 24.837 24.837 32 16 32C7.163 32 0 24.837 0 16C0 7.163 7.163 0 16 0ZM18.603 6.912C16.461 5.403 14.584 5.9 12.956 7.427H12.954L12.669 7.421C7.099 7.376 8.733 11.62 6.839 15.931C4.659 20.891 7.014 22.835 10.599 23.47L10.793 23.503L11.001 23.74C11.5681 24.3649 12.248 24.8772 13.005 25.25C18.348 27.86 18.685 23.013 24.338 20.554C27.513 19.174 27.524 16.474 26.058 13.982L26.04 14.027L26.057 13.982L25.877 13.69C25.94 13.787 26 13.884 26.057 13.982C27.019 11.244 26.572 9.093 24.466 8.702C22.151 8.276 20.341 8.139 18.603 6.912ZM13.096 11.344C15.866 9.354 19.421 10.14 20.716 12.997C21.98 15.785 21.63 19.004 19.072 20.664C18.4638 21.0584 17.7836 21.3285 17.0706 21.4588C16.3575 21.5891 15.6257 21.577 14.9174 21.4231C14.2091 21.2693 13.5382 20.9768 12.9434 20.5624C12.3486 20.1481 11.8418 19.6201 11.452 19.009C9.802 16.436 10.618 13.123 13.096 11.344Z" fill="black"/>
</g>
<defs>
<clipPath id="clip0_16_2937">
<rect width="32" height="32" fill="white"/>
</clipPath>
</defs>
</svg>
