<svg width="32" height="32" viewBox="0 0 32 32" fill="none" xmlns="http://www.w3.org/2000/svg">
<g clip-path="url(#clip0_16_2943)">
<path fill-rule="evenodd" clip-rule="evenodd" d="M16 32C7.163 32 0 24.837 0 16C0 7.163 7.163 0 16 0C24.837 0 32 7.163 32 16C32 24.837 24.837 32 16 32ZM23.452 8.929C22.5337 8.00025 21.4401 7.2631 20.2347 6.7603C19.0293 6.2575 17.7361 5.99907 16.43 6C10.946 6 6.5 10.477 6.5 16C6.5 18.624 7.503 21.011 9.144 22.795V15.674H9.152C9.321 11.774 12.515 8.663 16.43 8.663C18.442 8.663 20.263 9.484 21.582 10.812L23.452 8.929ZM23.452 23.071L21.582 21.188C20.2605 22.5244 18.471 23.2943 16.592 23.335V26C19.1737 25.9594 21.6366 24.9082 23.452 23.072V23.071ZM11.68 24.784C12.435 25.199 13.25 25.519 14.109 25.725V20.214C14.837 20.644 15.685 20.891 16.591 20.891C19.303 20.891 21.502 18.677 21.502 15.946C21.502 13.214 19.303 11 16.592 11C13.969 11 11.827 13.069 11.687 15.674H11.68V24.784ZM16.591 18.446C16.2639 18.4448 15.9402 18.3792 15.6384 18.2529C15.3366 18.1267 15.0627 17.9422 14.8322 17.71C14.6018 17.4779 14.4193 17.2026 14.2952 16.9C14.1711 16.5973 14.1078 16.2731 14.109 15.946C14.109 14.565 15.22 13.446 16.591 13.446C17.962 13.446 19.074 14.565 19.074 15.946C19.074 17.326 17.962 18.446 16.591 18.446Z" fill="black"/>
<path opacity="0.5" fill-rule="evenodd" clip-rule="evenodd" d="M23.452 8.929L21.582 10.812C20.9083 10.1306 20.1059 9.58975 19.2215 9.22084C18.3371 8.85194 17.3883 8.66233 16.43 8.663C12.515 8.663 9.32002 11.773 9.15202 15.673H9.14402V22.795C7.43919 20.9433 6.49508 18.517 6.50002 16C6.50002 10.477 10.946 6 16.43 6C17.7361 5.99908 19.0293 6.25751 20.2348 6.7603C21.4402 7.2631 22.5337 8.00026 23.452 8.929ZM23.452 23.071C21.6368 24.9075 19.1739 25.9591 16.592 26V23.336C18.471 23.2953 20.2605 22.5254 21.582 21.189L23.452 23.071Z" fill="black"/>
</g>
<defs>
<clipPath id="clip0_16_2943">
<rect width="32" height="32" fill="white"/>
</clipPath>
</defs>
</svg>
