<svg width="32" height="32" viewBox="0 0 32 32" fill="none" xmlns="http://www.w3.org/2000/svg">
<g clip-path="url(#clip0_16_2947)">
<path fill-rule="evenodd" clip-rule="evenodd" d="M16 32C7.163 32 0 24.837 0 16C0 7.163 7.163 0 16 0C24.837 0 32 7.163 32 16C32 24.837 24.837 32 16 32ZM11.594 16.105C11.686 16.359 11.818 16.597 11.985 16.81L12.016 16.85L11.971 16.796C12.029 16.879 12.091 16.958 12.158 17.033L12.25 17.125C12.286 17.16 12.315 17.195 12.344 17.22L14.34 19.231C14.69 19.583 15.2 19.721 15.677 19.591C16.154 19.463 16.527 19.087 16.655 18.606C16.783 18.125 16.646 17.612 16.297 17.26L12.4 13.333C12.4024 13.3307 12.4047 13.3284 12.407 13.326L12.467 13.275L16.41 9.331L16.434 9.357L16.443 9.367L23.813 16.807C24.0871 16.983 24.4132 17.0597 24.737 17.0242C25.0608 16.9887 25.3626 16.8432 25.592 16.612C26.072 16.129 26.135 15.368 25.742 14.812L17.4 6.408C17.2723 6.27897 17.1203 6.17649 16.9528 6.10646C16.7854 6.03642 16.6057 6.00022 16.4241 5.99994C16.2426 5.99967 16.0628 6.03531 15.8951 6.10483C15.7274 6.17435 15.5751 6.27636 15.447 6.405L12.9 8.954L12.809 9.034C12.749 9.089 12.687 9.14 12.622 9.188L9.477 12.334C9.21692 12.5961 9.07097 12.9503 9.07097 13.3195C9.07097 13.6887 9.21692 14.0429 9.477 14.305L11.97 16.823C11.8062 16.6057 11.6789 16.3632 11.593 16.105H11.594ZM19.74 18.678C19.738 18.68 19.736 18.682 19.734 18.684L19.676 18.731L15.741 22.666L15.716 22.636L8.332 15.179C8.07802 14.943 7.74466 14.811 7.39795 14.8091C7.05124 14.8073 6.71649 14.9357 6.46 15.169C6.20242 15.4035 6.04094 15.7253 6.00677 16.0719C5.9726 16.4186 6.06817 16.7657 6.275 17.046L14.752 25.593C15.292 26.136 16.166 26.136 16.706 25.593L19.33 22.969C19.39 22.916 19.454 22.865 19.52 22.819L22.668 19.67C23.208 19.126 23.208 18.243 22.668 17.698L20.057 15.071C20.0787 15.1014 20.1 15.1321 20.121 15.163C20.0767 15.0991 20.0287 15.038 19.977 14.98L19.886 14.888C19.849 14.853 19.82 14.818 19.792 14.793L17.795 12.783C17.6024 12.5869 17.3556 12.4529 17.0863 12.3982C16.817 12.3435 16.5375 12.3706 16.2836 12.4759C16.0298 12.5813 15.8133 12.7601 15.6619 12.9895C15.5105 13.2188 15.4311 13.4882 15.434 13.763C15.434 14.133 15.579 14.488 15.839 14.749L19.74 18.678Z" fill="black"/>
</g>
<defs>
<clipPath id="clip0_16_2947">
<rect width="32" height="32" fill="white"/>
</clipPath>
</defs>
</svg>
