<svg width="32" height="32" viewBox="0 0 32 32" fill="none" xmlns="http://www.w3.org/2000/svg">
<g clip-path="url(#clip0_16_2949)">
<path d="M16 32C7.163 32 0 24.837 0 16C0 7.163 7.163 0 16 0C24.837 0 32 7.163 32 16C32 24.837 24.837 32 16 32ZM17.153 11.741H10V13.996H17.153V11.741ZM23 12.831L22.98 12.331C22.755 9.411 20.547 7.5 17.46 7.5H11.05V9.932L15.593 9.918H17.281C19.201 9.918 20.351 10.994 20.351 12.831C20.351 14.704 19.19 15.807 17.255 15.807H11.331V24.5H13.93V18.226H17.472C20.71 18.226 23 16.039 23 12.831Z" fill="black"/>
</g>
<defs>
<clipPath id="clip0_16_2949">
<rect width="32" height="32" fill="white"/>
</clipPath>
</defs>
</svg>
