<svg width="32" height="32" viewBox="0 0 32 32" fill="none" xmlns="http://www.w3.org/2000/svg">
<g clip-path="url(#clip0_16_2953)">
<path d="M16 32C7.163 32 0 24.837 0 16C0 7.163 7.163 0 16 0C24.837 0 32 7.163 32 16C32 24.837 24.837 32 16 32ZM5 24H27L16 5L5 24ZM11.872 14.324L16 7.194L20.128 14.324C18.843 13.466 17.465 13.033 16 13.033C14.535 13.033 13.157 13.466 11.872 14.324ZM9.921 17.694C11.731 19.684 13.764 20.694 16 20.694C18.236 20.694 20.27 19.684 22.08 17.694L25.076 22.871H6.924L9.921 17.694ZM16 19.565C14.062 19.565 12.289 18.675 10.662 16.865C12.289 15.052 14.062 14.163 16 14.163C17.938 14.163 19.711 15.053 21.338 16.864C19.711 18.676 17.938 19.566 16 19.566V19.565ZM16 19.082C17.16 19.082 18.101 18.107 18.101 16.904C18.101 15.702 17.161 14.727 16 14.727C14.839 14.727 13.899 15.702 13.899 16.904C13.899 18.107 14.839 19.082 16 19.082ZM16 17.952C15.441 17.952 14.988 17.483 14.988 16.904C14.988 16.325 15.441 15.856 16 15.856C16.559 15.856 17.012 16.326 17.012 16.904C17.012 17.484 16.559 17.953 16 17.953V17.952Z" fill="black"/>
</g>
<defs>
<clipPath id="clip0_16_2953">
<rect width="32" height="32" fill="white"/>
</clipPath>
</defs>
</svg>
