<svg width="32" height="32" viewBox="0 0 32 32" fill="none" xmlns="http://www.w3.org/2000/svg">
<g clip-path="url(#clip0_16_2955)">
<path fill-rule="evenodd" clip-rule="evenodd" d="M16 32C7.163 32 0 24.837 0 16C0 7.163 7.163 0 16 0C24.837 0 32 7.163 32 16C32 24.837 24.837 32 16 32ZM24.758 7.732C23.9542 6.94008 22.8704 6.49734 21.742 6.5C20.597 6.5 19.531 6.94 18.726 7.732L8.87 17.438C8.8203 17.4879 8.78169 17.5477 8.7567 17.6135C8.73171 17.6793 8.72091 17.7497 8.725 17.82V22.816L6 25.5H7.503L9.521 23.513H14.565C14.6358 23.5137 14.706 23.4997 14.7711 23.4718C14.8361 23.4439 14.8947 23.4028 14.943 23.351L24.749 13.693L24.759 13.683C25.1514 13.2964 25.4631 12.8358 25.6761 12.3279C25.8891 11.82 25.9992 11.2748 26 10.724C26.0027 10.168 25.8942 9.61705 25.681 9.10357C25.4677 8.59009 25.1539 8.12444 24.758 7.734V7.732ZM19.026 8.86L19.443 8.45C20.0555 7.84639 20.8821 7.50986 21.742 7.514C22.605 7.514 23.42 7.848 24.041 8.45C24.051 8.46 24.061 8.478 24.08 8.488C24.671 9.09 24.991 9.873 24.991 10.714C24.991 11.564 24.651 12.366 24.041 12.978L23.614 13.398H19.802L22.305 10.933C22.4007 10.8396 22.4562 10.7125 22.4597 10.5789C22.4633 10.4452 22.4146 10.3154 22.324 10.217C22.314 10.207 22.314 10.197 22.304 10.188C22.2037 10.0918 22.07 10.0381 21.931 10.0381C21.792 10.0381 21.6583 10.0918 21.558 10.188L19.036 12.672V8.859L19.026 8.86ZM10.55 22.501L12.606 20.475H16.418L14.362 22.501H10.55ZM16.534 16.597L18.969 14.199H22.781L20.346 16.597H16.534ZM19.512 17.419L17.242 19.654H13.43L15.7 17.419H19.512ZM15.759 12.079L18.203 9.671V13.473L15.759 15.89V12.079ZM12.655 15.135L14.925 12.9V16.702L12.655 18.937V15.135ZM9.745 18.001L11.83 15.957V19.759L9.745 21.803V18.001Z" fill="black"/>
</g>
<defs>
<clipPath id="clip0_16_2955">
<rect width="32" height="32" fill="white"/>
</clipPath>
</defs>
</svg>
