<svg width="32" height="32" viewBox="0 0 32 32" fill="none" xmlns="http://www.w3.org/2000/svg">
<g clip-path="url(#clip0_16_2973)">
<path fill-rule="evenodd" clip-rule="evenodd" d="M16 32C7.163 32 0 24.837 0 16C0 7.163 7.163 0 16 0C24.837 0 32 7.163 32 16C32 24.837 24.837 32 16 32ZM24.281 20.867H24.164C23.404 20.867 22.643 20.867 21.882 20.865C21.8122 20.867 21.7428 20.8534 21.679 20.825C21.471 20.719 21.453 20.479 21.635 20.298C22.187 19.749 22.739 19.2 23.292 18.653C24.045 17.908 24.801 17.166 25.551 16.418C25.95 16.021 26.091 15.536 25.941 14.997C25.5441 13.5505 24.8225 12.2136 23.831 11.088C21.894 8.888 19.449 7.693 16.513 7.518C15.27 7.44554 14.0244 7.607 12.841 7.994C11.0233 8.57056 9.40208 9.64191 8.159 11.088C7.2814 12.0968 6.61281 13.2698 6.192 14.539C6.117 14.763 6.042 14.991 6.012 15.223C5.952 15.695 6.115 16.1 6.454 16.435L7.356 17.333C8.341 18.313 9.327 19.291 10.31 20.273C10.3739 20.3308 10.4218 20.4042 10.449 20.486C10.501 20.696 10.347 20.866 10.116 20.866H7.705C7.69 21.259 7.709 21.631 7.833 21.994C8.113 22.815 8.933 23.444 9.8 23.491C9.887 23.496 9.974 23.498 10.062 23.498C14.022 23.498 17.981 23.498 21.941 23.5C22.419 23.5 22.864 23.395 23.263 23.13C24.096 22.578 24.365 21.728 24.281 20.867ZM8.442 21.407H23.552C23.5528 21.714 23.4546 22.0132 23.272 22.26C22.994 22.635 22.622 22.845 22.15 22.871C22.1034 22.8736 22.0567 22.8749 22.01 22.875L9.982 22.876C9.46 22.876 9.039 22.681 8.727 22.265C8.54412 22.0165 8.44438 21.7166 8.442 21.408V21.407ZM18.71 13.66L17.866 15.077C18.695 15.739 19.136 16.589 19.116 17.655C19.1072 18.3521 18.853 19.0238 18.398 19.552C17.9338 20.108 17.291 20.4857 16.5794 20.6205C15.8677 20.7552 15.1313 20.6388 14.496 20.291C13.8232 19.9227 13.31 19.3189 13.0549 18.5954C12.7999 17.872 12.8209 17.0799 13.114 16.371L11.7 15.54C11.64 15.69 11.579 15.832 11.529 15.977C11.3079 16.6118 11.2293 17.2874 11.299 17.956C11.383 18.78 11.667 19.533 12.151 20.209C12.242 20.337 12.261 20.474 12.184 20.613C12.071 20.814 11.81 20.843 11.637 20.673C11.336 20.379 11.039 20.082 10.74 19.785L7.18 16.245C6.855 15.923 6.758 15.549 6.906 15.113C7.493 13.39 8.406 11.871 9.751 10.626C10.037 10.361 10.355 10.13 10.661 9.887C10.707 9.851 10.728 9.817 10.73 9.757C10.733 9.64547 10.764 9.53649 10.8201 9.44005C10.8762 9.34362 10.9556 9.26282 11.0511 9.20509C11.1466 9.14735 11.255 9.11452 11.3665 9.10961C11.4779 9.1047 11.5888 9.12788 11.689 9.177C11.7156 9.19232 11.7457 9.20047 11.7764 9.20064C11.807 9.20082 11.8372 9.19302 11.864 9.178C12.5636 8.84123 13.3042 8.59717 14.067 8.452C14.9795 8.27884 15.9108 8.2264 16.837 8.296C18.0019 8.36771 19.1422 8.66238 20.196 9.164C20.23 9.181 20.286 9.179 20.323 9.164C20.4211 9.12248 20.5277 9.10454 20.634 9.11161C20.7403 9.11868 20.8435 9.15058 20.9353 9.20473C21.0271 9.25889 21.1049 9.3338 21.1625 9.42345C21.2201 9.51311 21.2559 9.61501 21.267 9.721C21.272 9.761 21.307 9.811 21.342 9.835C22.089 10.3608 22.7528 10.9959 23.311 11.719C24.0411 12.6613 24.6117 13.717 25 14.844C25.053 14.994 25.11 15.146 25.137 15.302C25.202 15.662 25.087 15.97 24.827 16.228L21.238 19.795C20.942 20.089 20.648 20.385 20.349 20.677C20.145 20.875 19.836 20.787 19.767 20.516C19.7548 20.4638 19.7546 20.4095 19.7663 20.3572C19.7781 20.3049 19.8016 20.2559 19.835 20.214C20.191 19.714 20.445 19.169 20.585 18.571C20.7404 17.928 20.7547 17.259 20.627 16.61C20.389 15.402 19.763 14.439 18.775 13.703C18.757 13.689 18.737 13.679 18.708 13.66H18.71ZM23.375 16.7C23.402 16.677 23.421 16.665 23.437 16.65L24.361 15.731C24.4118 15.6847 24.4476 15.6242 24.4638 15.5574C24.48 15.4906 24.4759 15.4205 24.452 15.356C24.1086 14.2602 23.5847 13.2294 22.902 12.306C22.784 12.146 22.657 11.993 22.532 11.832L22.433 11.925C22.083 12.264 21.733 12.604 21.382 12.942C21.224 13.095 21.053 13.09 20.898 12.934C20.811 12.846 20.726 12.757 20.636 12.672C19.514 11.619 18.184 11.017 16.651 10.852C16.619 10.8468 16.5863 10.8499 16.5558 10.8609C16.5254 10.8719 16.4982 10.8905 16.477 10.915C16.4157 10.9794 16.3421 11.0309 16.2605 11.0661C16.1789 11.1014 16.091 11.1198 16.0021 11.1203C15.9132 11.1208 15.8251 11.1033 15.7431 11.0689C15.6611 11.0344 15.5869 10.9838 15.525 10.92C15.462 10.856 15.403 10.843 15.322 10.852C14.6962 10.9176 14.0825 11.069 13.498 11.302C13.27 11.395 13.048 11.502 12.818 11.606L13.464 12.723C15.584 11.767 17.601 11.879 19.412 13.35C21.155 14.766 21.688 16.647 21.25 18.817C21.257 18.81 21.276 18.798 21.292 18.783C21.752 18.326 22.212 17.87 22.669 17.41C22.6993 17.3729 22.715 17.3259 22.713 17.278C22.6887 16.481 22.5203 15.695 22.216 14.958C22.2008 14.9124 22.1737 14.8716 22.1375 14.84C22.1013 14.8083 22.0573 14.7869 22.01 14.778C21.9226 14.7544 21.8409 14.7131 21.7701 14.6567C21.6994 14.6002 21.641 14.5298 21.5986 14.4498C21.5562 14.3698 21.5307 14.2819 21.5237 14.1916C21.5167 14.1013 21.5284 14.0106 21.558 13.925C21.684 13.565 22.088 13.375 22.438 13.513C22.5242 13.5451 22.6029 13.5948 22.6689 13.659C22.7349 13.7231 22.7869 13.8003 22.8215 13.8856C22.8561 13.9709 22.8726 14.0624 22.8699 14.1544C22.8672 14.2464 22.8455 14.3369 22.806 14.42C22.776 14.482 22.782 14.529 22.807 14.588C23.0375 15.1125 23.2027 15.6633 23.299 16.228C23.325 16.381 23.349 16.534 23.375 16.699V16.7ZM22.109 11.39C22.101 11.375 22.098 11.365 22.091 11.358C21.7448 11.0045 21.3658 10.6847 20.959 10.403C20.934 10.386 20.883 10.387 20.852 10.399C20.7576 10.4383 20.6554 10.4555 20.5533 10.4493C20.4512 10.443 20.3519 10.4135 20.263 10.3629C20.1741 10.3123 20.0979 10.242 20.0404 10.1575C19.9828 10.0729 19.9454 9.97627 19.931 9.875C19.921 9.805 19.891 9.773 19.831 9.745C18.8861 9.30354 17.8668 9.04304 16.826 8.977C15.696 8.897 14.578 8.977 13.483 9.288C13.0194 9.41827 12.5689 9.591 12.137 9.804C12.1195 9.8142 12.1043 9.82776 12.0921 9.84389C12.0799 9.86003 12.071 9.87842 12.066 9.898C12.0491 9.98952 12.0134 10.0765 11.9611 10.1535C11.9087 10.2304 11.8409 10.2956 11.762 10.3449C11.6831 10.3942 11.5947 10.4265 11.5026 10.4398C11.4105 10.4531 11.3166 10.447 11.227 10.422C11.138 10.398 11.083 10.413 11.023 10.466C11.005 10.481 10.985 10.493 10.966 10.506C9.299 11.74 8.229 13.391 7.556 15.322C7.493 15.504 7.536 15.642 7.671 15.772C7.961 16.053 8.245 16.341 8.531 16.626L8.617 16.706C8.627 16.646 8.637 16.605 8.642 16.562C8.73018 15.8709 8.91708 15.196 9.197 14.558C9.21216 14.5194 9.21216 14.4766 9.197 14.438C9.004 14.009 9.241 13.555 9.707 13.478C9.73443 13.4756 9.76095 13.467 9.78453 13.4528C9.80811 13.4386 9.82811 13.4192 9.843 13.396C11.173 11.502 12.989 10.418 15.303 10.164C15.3526 10.1556 15.397 10.1284 15.427 10.088C15.4885 9.99381 15.5725 9.91641 15.6714 9.86277C15.7703 9.80913 15.881 9.78094 15.9935 9.78074C16.106 9.78055 16.2167 9.80834 16.3158 9.86163C16.4149 9.91492 16.4992 9.99203 16.561 10.086C16.6 10.146 16.643 10.159 16.706 10.169C17.066 10.227 17.43 10.267 17.783 10.353C19.044 10.6584 20.2011 11.2934 21.136 12.193C21.159 12.215 21.184 12.236 21.211 12.259L22.109 11.389V11.39ZM18.445 17.57C18.4432 17.2496 18.3782 16.9326 18.2539 16.6373C18.1296 16.342 17.9483 16.074 17.7205 15.8487C17.4926 15.6235 17.2226 15.4453 16.9258 15.3244C16.6291 15.2034 16.3114 15.1422 15.991 15.144C14.641 15.151 13.547 16.244 13.553 17.578C13.5585 18.2251 13.82 18.8437 14.2802 19.2986C14.7404 19.7536 15.3619 20.0079 16.009 20.006C17.355 19.998 18.452 18.901 18.445 17.569V17.57ZM10.747 18.834C10.7 18.529 10.643 18.252 10.617 17.971C10.5342 17.0982 10.6711 16.2185 11.015 15.412C11.26 14.832 11.598 14.312 12.027 13.851C12.127 13.743 12.179 13.743 12.285 13.847C12.364 13.924 12.442 14.002 12.519 14.081C12.607 14.171 12.607 14.225 12.521 14.321C12.465 14.383 12.407 14.443 12.357 14.509C12.234 14.669 12.114 14.832 11.988 15.001L13.395 15.828C14.453 14.511 15.763 14.156 17.348 14.751L18.187 13.344C18.169 13.33 18.162 13.323 18.153 13.318C17.2491 12.8545 16.2196 12.6955 15.218 12.865C14.6354 12.958 14.0764 13.1631 13.572 13.469C13.379 13.586 13.233 13.543 13.121 13.348L12.565 12.388L12.3 11.935C12.286 11.939 12.283 11.939 12.28 11.941C11.5463 12.4221 10.9154 13.0441 10.424 13.771C10.408 13.796 10.408 13.841 10.419 13.871C10.579 14.299 10.369 14.691 9.919 14.796C9.89345 14.8001 9.8695 14.8112 9.84976 14.8279C9.83002 14.8446 9.81524 14.8665 9.807 14.891C9.48201 15.6518 9.3029 16.467 9.279 17.294C9.28155 17.3417 9.30147 17.3869 9.335 17.421C9.593 17.683 9.855 17.94 10.115 18.199L10.747 18.834ZM15.995 10.824C16.0943 10.8232 16.1893 10.7839 16.2601 10.7143C16.3308 10.6447 16.3717 10.5502 16.374 10.451C16.3725 10.3517 16.3326 10.2569 16.2627 10.1865C16.1927 10.116 16.0982 10.0753 15.999 10.073C15.8998 10.0747 15.805 10.1145 15.7343 10.1841C15.6636 10.2537 15.6223 10.3478 15.619 10.447C15.6205 10.5464 15.6606 10.6414 15.7307 10.7119C15.8008 10.7824 15.8956 10.8229 15.995 10.825V10.824ZM11.395 9.41C11.297 9.40973 11.2029 9.44812 11.1331 9.51683C11.0632 9.58554 11.0233 9.67904 11.022 9.777C11.022 9.87725 11.0618 9.9734 11.1327 10.0443C11.2036 10.1152 11.2997 10.155 11.4 10.155C11.5003 10.155 11.5964 10.1152 11.6673 10.0443C11.7382 9.9734 11.778 9.87725 11.778 9.777C11.7772 9.72767 11.7667 9.67899 11.7469 9.63376C11.7272 9.58854 11.6987 9.54768 11.6631 9.51355C11.6275 9.47942 11.5855 9.45269 11.5394 9.43491C11.4934 9.41714 11.4443 9.40867 11.395 9.41ZM22.196 14.51C22.2448 14.5096 22.293 14.4996 22.3379 14.4806C22.3829 14.4615 22.4236 14.4338 22.4578 14.3991C22.492 14.3643 22.5191 14.3231 22.5374 14.2779C22.5557 14.2327 22.5649 14.1843 22.5645 14.1355C22.5641 14.0867 22.5541 14.0385 22.5351 13.9936C22.516 13.9486 22.4883 13.9079 22.4536 13.8737C22.4188 13.8395 22.3776 13.8124 22.3324 13.7941C22.2872 13.7758 22.2388 13.7666 22.19 13.767C22.1396 13.7648 22.0893 13.7729 22.0421 13.7908C21.9949 13.8087 21.9519 13.836 21.9156 13.871C21.8793 13.9061 21.8505 13.9481 21.8309 13.9947C21.8114 14.0412 21.8016 14.0912 21.802 14.1417C21.8024 14.1921 21.813 14.242 21.8333 14.2882C21.8536 14.3344 21.8831 14.376 21.9199 14.4104C21.9568 14.4449 22.0003 14.4715 22.0477 14.4886C22.0952 14.5057 22.1456 14.513 22.196 14.51ZM20.593 9.41C20.5437 9.40906 20.4948 9.41802 20.4491 9.43634C20.4034 9.45467 20.3618 9.48198 20.3268 9.51667C20.2918 9.55137 20.2642 9.59273 20.2455 9.6383C20.2268 9.68388 20.2175 9.73274 20.218 9.782C20.2185 9.83129 20.2288 9.87998 20.2482 9.92529C20.2676 9.9706 20.2958 10.0116 20.3311 10.046C20.3664 10.0804 20.4081 10.1075 20.454 10.1256C20.4998 10.1438 20.5487 10.1528 20.598 10.152C20.696 10.1517 20.79 10.1127 20.8593 10.0433C20.9287 9.97401 20.9677 9.88005 20.968 9.782C20.9691 9.73254 20.9601 9.68338 20.9417 9.6375C20.9232 9.59161 20.8956 9.54996 20.8605 9.51508C20.8254 9.48019 20.7836 9.4528 20.7376 9.43457C20.6917 9.41633 20.6424 9.40763 20.593 9.409V9.41ZM10.175 14.138C10.175 14.0887 10.1652 14.0399 10.1461 13.9944C10.127 13.9489 10.0991 13.9077 10.0639 13.8732C10.0287 13.8386 9.98695 13.8114 9.94113 13.7932C9.8953 13.775 9.84631 13.7661 9.797 13.767C9.69921 13.767 9.60541 13.8057 9.53607 13.8747C9.46674 13.9436 9.42753 14.0372 9.427 14.135C9.42606 14.1843 9.43502 14.2332 9.45334 14.2789C9.47167 14.3246 9.49898 14.3662 9.53368 14.4012C9.56837 14.4362 9.60973 14.4638 9.6553 14.4825C9.70088 14.5012 9.74974 14.5105 9.799 14.51C9.84826 14.5108 9.89718 14.5018 9.9429 14.4834C9.98862 14.465 10.0302 14.4377 10.0652 14.4031C10.1003 14.3684 10.128 14.3271 10.1469 14.2816C10.1657 14.2361 10.1753 14.1873 10.175 14.138Z" fill="black"/>
</g>
<defs>
<clipPath id="clip0_16_2973">
<rect width="32" height="32" fill="white"/>
</clipPath>
</defs>
</svg>
