<svg width="32" height="32" viewBox="0 0 32 32" fill="none" xmlns="http://www.w3.org/2000/svg">
<g clip-path="url(#clip0_16_2977)">
<path fill-rule="evenodd" clip-rule="evenodd" d="M16 32C7.163 32 0 24.837 0 16C0 7.163 7.163 0 16 0C24.837 0 32 7.163 32 16C32 24.837 24.837 32 16 32ZM11.192 8C11.437 9.016 11.936 10.109 13.046 10.42C15.49 10.93 18.117 10.09 20.496 11.013C22.826 11.986 22.742 15.845 20.43 16.789C18.854 17.429 17.11 17.176 15.45 17.219C14.35 17.259 13.068 17.017 12.163 17.795C11.39 18.381 11.243 19.39 11.28 20.291C11.338 23.551 11.496 25 11.496 25C11.496 25 13.211 24.356 13.585 23.817C14.515 22.689 14.142 21.137 14.215 19.802C16.923 19.687 19.873 20.244 22.339 18.833C25.013 17.343 25.603 13.671 24.416 11.06C23.467 9.01 21.104 8.127 18.956 8H11.192ZM7 12.43V13.05C7.363 14.174 8.29 15.194 9.546 15.267C11.591 15.357 13.64 15.281 15.684 15.292C15.53 13.928 14.563 12.594 13.09 12.482C11.064 12.359 9.03 12.467 7 12.431V12.43Z" fill="black"/>
</g>
<defs>
<clipPath id="clip0_16_2977">
<rect width="32" height="32" fill="white"/>
</clipPath>
</defs>
</svg>
