<svg width="32" height="32" viewBox="0 0 32 32" fill="none" xmlns="http://www.w3.org/2000/svg">
<g clip-path="url(#clip0_16_2979)">
<path d="M16 32C7.163 32 0 24.837 0 16C0 7.163 7.163 0 16 0C24.837 0 32 7.163 32 16C32 24.837 24.837 32 16 32ZM16 5C9.925 5 5 9.925 5 16C5 22.075 9.925 27 16 27C22.075 27 27 22.075 27 16C27 9.925 22.075 5 16 5ZM26.44 15.55L25.55 15.559L25.546 15.186L26.437 15.178L26.441 15.55H26.44ZM26.212 13.627L25.329 13.75L25.278 13.38L26.16 13.258L26.212 13.628V13.627ZM25.452 11.285L25.606 11.625L24.795 11.993L24.641 11.654L25.451 11.285H25.452ZM24.34 9.59L24.586 9.87L23.916 10.458L23.671 10.178L24.34 9.59ZM23.035 8.197L23.317 8.441L22.736 9.115L22.453 8.872L23.035 8.197ZM21.48 6.938L21.792 7.141L21.307 7.888L20.995 7.686L21.48 6.938ZM19.71 6.065L20.071 6.16L19.845 7.021L19.484 6.926L19.711 6.066L19.71 6.065ZM17.765 5.587L18.136 5.617L18.062 6.505L17.691 6.474L17.765 5.587ZM15.751 5.352H16.123V6.243H15.751V5.352ZM14.097 5.587L14.171 6.474L13.799 6.506L13.725 5.618L14.097 5.587ZM12.151 6.065L12.377 6.926L12.017 7.021L11.79 6.161L12.15 6.065H12.151ZM10.382 6.938L10.867 7.686L10.554 7.888L10.069 7.141L10.382 6.938ZM8.827 8.198L9.408 8.872L9.126 9.115L8.545 8.441L8.827 8.197V8.198ZM7.523 9.588L8.193 10.176L7.946 10.456L7.277 9.869L7.523 9.589V9.588ZM6.412 11.284L7.222 11.653L7.069 11.993L6.258 11.623L6.412 11.284ZM5.703 13.257L6.586 13.379L6.534 13.749L5.652 13.626L5.703 13.256V13.257ZM5.427 15.177L6.317 15.185L6.314 15.558L5.424 15.549L5.427 15.177ZM5.509 17.269L6.395 17.179L6.432 17.549L5.546 17.639L5.509 17.269ZM5.912 19.163L6.78 18.961L6.865 19.324L5.997 19.526L5.912 19.163ZM6.883 21.426L6.699 21.102L7.472 20.66L7.657 20.984L6.883 21.426ZM8.145 23.013L7.874 22.757L8.487 22.11L8.757 22.366L8.145 23.013ZM9.57 24.28L9.267 24.064L9.784 23.338L10.087 23.555L9.57 24.28ZM11.234 25.391L10.904 25.218L11.318 24.43L11.648 24.603L11.234 25.391ZM13.075 26.099L12.707 26.037L12.854 25.159L13.222 25.221L13.075 26.099ZM14.684 26.401L14.677 25.51L15.05 25.506L15.057 26.397L14.684 26.401ZM6.74 16C6.74 10.894 10.894 6.74 16 6.74C21.106 6.74 25.26 10.894 25.26 16C25.26 21.106 21.106 25.26 16 25.26C10.894 25.26 6.74 21.106 6.74 16ZM16.726 26.481L16.714 26.482L16.633 25.596L17.004 25.562L17.016 25.56L17.097 26.447L16.726 26.481ZM18.711 26.063L18.556 25.186L18.923 25.121L19.078 25.999L18.711 26.063ZM20.605 25.409L20.3 24.572L20.65 24.445L20.955 25.282L20.605 25.409ZM22.286 24.379L21.736 23.679L22.028 23.447L22.579 24.147L22.286 24.378V24.379ZM23.72 22.982L23.08 22.364L23.338 22.095L23.978 22.715L23.72 22.982ZM24.892 21.477L24.172 20.952L24.392 20.651L25.112 21.175L24.892 21.477ZM25.844 19.687L25.002 19.393L25.125 19.041L25.966 19.335L25.844 19.686V19.687ZM26.369 17.657L25.479 17.617L25.496 17.244L26.386 17.285L26.369 17.657ZM19.536 20.732L19.258 20.452L18.719 19.906C19.344 19.312 19.74 18.713 19.676 17.332C19.671 17.224 19.682 15.849 19.682 15.74L19.679 14.707C19.682 12.157 19.059 11.001 17.341 10.592C17.146 10.545 16.208 10.522 16.004 10.522H15.914C15.71 10.522 14.647 10.545 14.452 10.592C12.734 11.001 12.111 12.157 12.114 14.707L12.111 15.739C12.111 15.848 12.121 17.224 12.117 17.331C12 19.887 13.454 20.673 15.027 20.615H16.766C17.2199 20.6353 17.6719 20.5436 18.082 20.348L18.714 20.988L18.992 21.269C19.151 21.419 19.394 21.427 19.541 21.281C19.688 21.136 19.684 20.893 19.535 20.732H19.536ZM16.877 19.804L16.796 19.803L16.781 19.802H14.998C14.971 19.8032 14.944 19.8038 14.917 19.804C14.543 19.804 14.006 19.709 13.573 19.255C13.107 18.767 12.884 18.359 12.929 17.369C12.933 17.299 12.933 17.298 12.926 16.056C12.9245 15.7177 12.9245 15.3793 12.926 15.041C12.926 14.615 12.928 14.765 12.928 14.706C12.926 13.576 13.054 12.594 13.329 12.151C13.492 11.887 13.774 11.591 14.628 11.385C14.796 11.36 15.656 11.334 15.913 11.334H16.005C16.263 11.334 16.998 11.36 17.167 11.385C18.02 11.591 18.302 11.887 18.465 12.151C18.74 12.594 18.868 13.576 18.867 14.706L18.869 15.041L18.87 15.739L18.868 16.056C18.861 17.298 18.862 17.3 18.865 17.369C18.91 18.359 18.688 18.767 18.222 19.255L18.148 19.328L17.649 18.823L17.372 18.543C17.213 18.391 16.97 18.384 16.822 18.53C16.676 18.675 16.68 18.918 16.829 19.078L17.107 19.359L17.463 19.719C17.273 19.776 17.076 19.805 16.877 19.804Z" fill="black"/>
</g>
<defs>
<clipPath id="clip0_16_2979">
<rect width="32" height="32" fill="white"/>
</clipPath>
</defs>
</svg>
