<svg width="32" height="32" viewBox="0 0 32 32" fill="none" xmlns="http://www.w3.org/2000/svg">
<g clip-path="url(#clip0_16_2981)">
<path d="M16 32C7.163 32 0 24.837 0 16C0 7.163 7.163 0 16 0C24.837 0 32 7.163 32 16C32 24.837 24.837 32 16 32ZM22.59 19.445C22.565 19.225 22.438 18.721 22.108 18.592C21.943 18.527 21.803 18.579 21.74 18.695C21.638 18.876 21.714 19.225 21.905 19.535C22.095 19.846 22.273 20.001 22.4 20.001C22.527 20.001 22.641 19.846 22.59 19.445ZM20.813 20.325C20.61 20.143 20.381 20.053 20.178 20.053C20.1008 20.0487 20.0236 20.0627 19.9528 20.094C19.8821 20.1253 19.8198 20.1729 19.771 20.233C19.543 20.518 19.645 21.035 20.001 21.346C20.153 21.488 20.381 21.566 20.597 21.566C20.6955 21.5683 20.7934 21.5485 20.8833 21.5082C20.9733 21.4679 21.0531 21.4081 21.117 21.333C21.321 21.048 21.207 20.661 20.813 20.324V20.325ZM7 14.894C7 19.806 10.91 23.788 15.734 23.788C17.017 23.788 18.286 23.543 20.153 23.529C21.816 23.529 23.644 24.124 25.65 25.934C25.853 26.115 26.12 25.882 25.942 25.663C23.974 23.116 22.146 22.638 20.318 22.223C18.083 21.72 16.941 20.453 16.141 19.043C15.988 18.759 15.912 18.811 15.899 19.173C15.8848 19.7055 15.9233 20.2381 16.014 20.763H15.747C12.561 20.763 9.971 18.126 9.971 14.88C9.97 11.636 12.56 9 15.747 9C18.934 9 21.524 11.637 21.524 14.882C21.524 15.115 21.511 15.348 21.486 15.568C21.054 15.49 20.229 15.478 19.645 15.529C19.429 15.555 19.455 15.658 19.62 15.684C21.524 16.046 22.832 17.248 23.136 19.434C23.149 19.485 23.212 19.498 23.238 19.459C24.0444 18.0731 24.4691 16.4984 24.469 14.895C24.47 9.982 20.56 6 15.734 6C10.91 6 7 9.982 7 14.894Z" fill="black"/>
</g>
<defs>
<clipPath id="clip0_16_2981">
<rect width="32" height="32" fill="white"/>
</clipPath>
</defs>
</svg>
