<svg width="32" height="32" viewBox="0 0 32 32" fill="none" xmlns="http://www.w3.org/2000/svg">
<g clip-path="url(#clip0_16_2989)">
<path fill-rule="evenodd" clip-rule="evenodd" d="M25.313 23.636C25.2144 23.8141 25.1628 24.0144 25.163 24.218C25.163 24.874 25.687 25.406 26.332 25.406C26.977 25.406 27.5 24.874 27.5 24.218C27.5 23.562 26.977 23.03 26.332 23.03C26.0459 23.0296 25.77 23.1358 25.558 23.328L23.641 21.621L25.138 16.791C25.2433 16.7936 25.3481 16.7749 25.446 16.7362C25.544 16.6974 25.6332 16.6394 25.7083 16.5655C25.7834 16.4916 25.8428 16.4034 25.8832 16.3061C25.9235 16.2088 25.9438 16.1043 25.943 15.999C25.9437 15.8915 25.9224 15.7851 25.8804 15.6862C25.8383 15.5873 25.7765 15.4981 25.6986 15.424C25.6207 15.35 25.5285 15.2927 25.4276 15.2557C25.3267 15.2188 25.2193 15.2028 25.112 15.209L23.836 11.021C23.9454 10.9481 24.035 10.8491 24.0968 10.7331C24.1586 10.617 24.1906 10.4875 24.19 10.356C24.1916 10.1479 24.1106 9.94762 23.9647 9.79915C23.8189 9.65068 23.6201 9.56611 23.412 9.564C23.2118 9.56422 23.0195 9.64241 22.876 9.782L19.326 7.172C19.3883 7.05507 19.4206 6.9245 19.42 6.792C19.4216 6.58388 19.3406 6.38362 19.1947 6.23515C19.0489 6.08668 18.8501 6.00211 18.642 6C18.4592 6.00107 18.2826 6.06604 18.1427 6.18366C18.0028 6.30127 17.9084 6.46413 17.876 6.644H13.566C13.5336 6.4643 13.4394 6.30157 13.2997 6.18397C13.16 6.06637 12.9836 6.0013 12.801 6C12.5927 6.00185 12.3937 6.0863 12.2476 6.2348C12.1015 6.3833 12.0204 6.58371 12.022 6.792C12.022 6.93164 12.0585 7.06886 12.128 7.19L8.555 9.77C8.41266 9.63756 8.22543 9.56396 8.031 9.564C7.82271 9.56585 7.62367 9.6503 7.47761 9.7988C7.33155 9.9473 7.2504 10.1477 7.252 10.356C7.252 10.658 7.418 10.92 7.662 11.054L6.38 15.214C6.26917 15.2006 6.15677 15.2111 6.05028 15.2445C5.94378 15.278 5.84564 15.3338 5.76239 15.4081C5.67913 15.4825 5.61267 15.5738 5.56743 15.6758C5.52218 15.7779 5.4992 15.8884 5.5 16C5.49902 16.1096 5.52098 16.2182 5.56448 16.3189C5.60797 16.4195 5.67204 16.5099 5.75256 16.5843C5.83308 16.6587 5.92828 16.7155 6.03203 16.7509C6.13578 16.7863 6.24579 16.7996 6.355 16.79L7.658 20.95C7.53453 21.0192 7.43179 21.12 7.36041 21.2422C7.28902 21.3644 7.2516 21.5035 7.252 21.645C7.252 22.082 7.601 22.437 8.031 22.437C8.22188 22.4368 8.40583 22.3655 8.547 22.237L12.093 24.878C12.0465 24.9818 12.0226 25.0943 12.023 25.208C12.023 25.646 12.371 26.001 12.801 26.001C13.181 26.001 13.498 25.724 13.566 25.357H17.876C17.9084 25.5369 18.0028 25.6997 18.1427 25.8173C18.2826 25.935 18.4592 25.9999 18.642 26.001C19.072 26.001 19.42 25.646 19.42 25.209C19.4202 25.0941 19.3956 24.9805 19.348 24.876L23.34 21.881L25.313 23.637V23.636ZM18.708 24.419C18.5853 24.4085 18.4619 24.4274 18.348 24.474L16.301 21.579C16.3994 21.4675 16.4645 21.3307 16.489 21.184L19.939 20.682C19.9837 20.834 20.0729 20.9691 20.195 21.07L18.708 24.419ZM19.101 24.569C19.0928 24.5628 19.0845 24.5568 19.076 24.551L20.549 21.235C20.6895 21.2605 20.8344 21.2464 20.9673 21.1943C21.1003 21.1422 21.2162 21.0542 21.302 20.94L22.97 21.666L19.1 24.568L19.101 24.569ZM18.036 24.71C17.9767 24.7846 17.9313 24.8693 17.902 24.96H13.54C13.5107 24.8693 13.4653 24.7846 13.406 24.71L15.466 21.798C15.6307 21.856 15.8103 21.856 15.975 21.798L18.035 24.71H18.036ZM24.764 16.68L23.538 20.636L23.272 16.75C23.4272 16.6955 23.5616 16.594 23.6564 16.4596C23.7512 16.3251 23.8018 16.1645 23.801 16C23.8017 15.8344 23.7505 15.6728 23.6545 15.5379C23.5586 15.403 23.4227 15.3016 23.266 15.248L23.536 11.373L24.742 15.334C24.6319 15.4067 24.5416 15.5056 24.4793 15.6219C24.417 15.7381 24.3846 15.8681 24.385 16C24.385 16.289 24.537 16.542 24.765 16.68H24.764ZM22.51 15.403C22.4258 15.4779 22.3584 15.5699 22.3124 15.6728C22.2663 15.7757 22.2427 15.8873 22.243 16C22.243 16.227 22.338 16.432 22.489 16.577L20.869 19.686C20.7676 19.661 20.6621 19.6569 20.559 19.674L19.125 16.621C19.2175 16.5461 19.292 16.4515 19.343 16.344C19.3941 16.2365 19.4204 16.119 19.42 16C19.4203 15.8831 19.3948 15.7676 19.3454 15.6616C19.2959 15.5557 19.2238 15.4619 19.134 15.387L20.526 12.32C20.6589 12.3481 20.7969 12.3405 20.926 12.298L22.51 15.403ZM22.884 16.78L23.195 21.334L21.455 20.576C21.4748 20.4479 21.463 20.3169 21.4207 20.1944C21.3783 20.0719 21.3067 19.9615 21.212 19.873L22.83 16.768C22.8478 16.7727 22.8659 16.7767 22.884 16.78ZM22.878 15.222C22.8713 15.2229 22.8647 15.2239 22.858 15.225L21.255 12.085C21.3399 11.9927 21.4018 11.8816 21.4357 11.7608C21.4696 11.6401 21.4745 11.513 21.45 11.39L22.788 10.831C22.8821 10.9595 23.0133 11.0562 23.164 11.108L22.878 15.222ZM18.77 16.782L20.203 19.834C20.0616 19.9478 19.9635 20.1066 19.925 20.284L16.457 20.788C16.4248 20.6951 16.3756 20.609 16.312 20.534L18.435 16.764C18.544 16.7943 18.6584 16.8001 18.77 16.781V16.782ZM18.78 15.221C18.6584 15.1986 18.5332 15.2058 18.415 15.242L16.276 11.407C16.3461 11.3345 16.4018 11.2493 16.44 11.156L19.915 11.661C19.9422 11.848 20.035 12.0193 20.177 12.144L18.781 15.221H18.78ZM18.098 16.567L15.992 20.307C15.8416 20.2502 15.6772 20.2422 15.522 20.284L13.352 16.559C13.4985 16.4098 13.5803 16.209 13.58 16C13.58 15.79 13.5 15.599 13.368 15.457L15.575 11.63C15.6971 11.6534 15.823 11.6469 15.942 11.611L18.082 15.449C17.9405 15.5975 17.8617 15.7949 17.862 16C17.862 16.222 17.952 16.423 18.098 16.567ZM6.721 16.652C6.82543 16.5784 6.91058 16.4807 6.96924 16.3672C7.0279 16.2537 7.05835 16.1278 7.058 16C7.05835 15.8768 7.03008 15.7553 6.97541 15.6449C6.92075 15.5345 6.84118 15.4384 6.743 15.364L7.966 11.389L8.269 15.223C8.09092 15.2604 7.93123 15.3581 7.81697 15.4997C7.7027 15.6413 7.64089 15.8181 7.642 16C7.642 16.38 7.905 16.698 8.256 16.774L7.963 20.618L6.721 16.652ZM10.609 19.678L8.959 16.572C9.03525 16.4976 9.09579 16.4086 9.13701 16.3103C9.17824 16.2121 9.19932 16.1066 9.199 16C9.19927 15.8905 9.17694 15.7821 9.13341 15.6816C9.08987 15.5811 9.02608 15.4907 8.946 15.416L10.625 12.326C10.7218 12.3426 10.8209 12.3406 10.917 12.32L12.309 15.386C12.2189 15.4609 12.1465 15.5548 12.0969 15.6609C12.0473 15.7671 12.0217 15.8828 12.022 16C12.022 16.256 12.142 16.484 12.327 16.629L10.957 19.689C10.8434 19.6587 10.7243 19.655 10.609 19.678ZM10.933 21.228L12.372 24.547C12.3611 24.5544 12.3505 24.5621 12.34 24.57L8.765 21.908C8.80601 21.791 8.81936 21.666 8.804 21.543L10.153 20.955C10.2439 21.0696 10.3655 21.1559 10.5036 21.2041C10.6416 21.2523 10.7906 21.2602 10.933 21.227V21.228ZM9.99 20.595L8.66 21.175C8.5761 21.0588 8.46197 20.9679 8.33 20.912L8.644 16.812L10.257 19.848C10.1511 19.9383 10.0707 20.0548 10.0238 20.1859C9.97696 20.3169 9.96531 20.458 9.99 20.595ZM11.52 20.296C11.4885 20.1397 11.4109 19.9965 11.297 19.885L12.687 16.784C12.7974 16.8003 12.91 16.7924 13.017 16.761L15.182 20.478C15.0927 20.5651 15.0253 20.672 14.985 20.79L11.52 20.296ZM11.5 20.693L14.954 21.186C14.979 21.336 15.046 21.471 15.142 21.579L13.094 24.474C12.9824 24.4277 12.8614 24.4085 12.741 24.418L11.278 21.044C11.3817 20.949 11.4583 20.8283 11.5 20.694V20.693ZM9.997 11.371C9.96585 11.5151 9.97473 11.665 10.0227 11.8044C10.0706 11.9439 10.1558 12.0675 10.269 12.162L8.653 15.138L8.333 11.087C8.46718 11.0291 8.58252 10.9349 8.666 10.815L9.996 11.371H9.997ZM10.947 10.776C10.8085 10.7405 10.6629 10.7443 10.5266 10.7871C10.3902 10.8299 10.2684 10.9098 10.175 11.018L8.805 10.445C8.81764 10.3294 8.80536 10.2125 8.769 10.102L12.322 7.536L10.947 10.776ZM11.529 11.649L15 11.154C15.049 11.274 15.125 11.378 15.221 11.46L13.039 15.246C12.9171 15.2062 12.7871 15.1976 12.661 15.221L11.265 12.144C11.4099 12.0164 11.5033 11.8405 11.528 11.649H11.529ZM11.289 10.967L12.727 7.581C12.8604 7.59342 12.9948 7.57102 13.117 7.516L15.107 10.364C15.0183 10.4795 14.9629 10.6172 14.947 10.762L11.482 11.256C11.4401 11.1467 11.3745 11.048 11.29 10.967H11.289ZM20.612 10.756L19.141 7.524L22.669 10.118C22.6341 10.2302 22.6242 10.3486 22.64 10.465L21.28 11.033C21.1997 10.9358 21.0969 10.8597 20.9804 10.8114C20.864 10.7632 20.7375 10.7441 20.612 10.756ZM19.956 11.266L16.496 10.764C16.4804 10.6185 16.4251 10.4801 16.336 10.364L18.326 7.516C18.4544 7.57402 18.5962 7.59547 18.736 7.578L20.246 10.891C20.1132 10.9838 20.012 11.115 19.956 11.267V11.266ZM18.02 7.27L16.026 10.123C15.9298 10.0812 15.8259 10.0596 15.721 10.0596C15.6161 10.0596 15.5122 10.0812 15.416 10.123L13.422 7.27C13.474 7.20035 13.5142 7.12266 13.541 7.04H17.901C17.9281 7.12272 17.9687 7.20042 18.021 7.27H18.02ZM16 32C7.163 32 0 24.837 0 16C0 7.163 7.163 0 16 0C24.837 0 32 7.163 32 16C32 24.837 24.837 32 16 32Z" fill="black"/>
</g>
<defs>
<clipPath id="clip0_16_2989">
<rect width="32" height="32" fill="white"/>
</clipPath>
</defs>
</svg>
