<svg width="32" height="32" viewBox="0 0 32 32" fill="none" xmlns="http://www.w3.org/2000/svg">
<g clip-path="url(#clip0_16_2995)">
<path d="M16 32C7.163 32 0 24.837 0 16C0 7.163 7.163 0 16 0C24.837 0 32 7.163 32 16C32 24.837 24.837 32 16 32ZM12.478 6.435V6H9V25.913H12.478V6.435ZM14.957 6H15V9.217H16.522C18.739 9.217 20.13 10.217 20.13 12.174C20.13 14.13 18.74 15.13 16.522 15.13H13.174L20.13 25.913H24.217L19.13 18.173C22.043 17.435 23.652 15.173 23.652 12.217C23.652 8.565 20.957 6 16.913 6H14.957Z" fill="black"/>
</g>
<defs>
<clipPath id="clip0_16_2995">
<rect width="32" height="32" fill="white"/>
</clipPath>
</defs>
</svg>
