<svg width="32" height="32" viewBox="0 0 32 32" fill="none" xmlns="http://www.w3.org/2000/svg">
<g clip-path="url(#clip0_16_2997)">
<path fill-rule="evenodd" clip-rule="evenodd" d="M16 32C7.163 32 0 24.837 0 16C0 7.163 7.163 0 16 0C24.837 0 32 7.163 32 16C32 24.837 24.837 32 16 32ZM14.36 6.627C14.045 6.68 13.735 6.757 13.425 6.83C10.08 7.694 7.32 10.471 6.55 13.795C6.25762 14.9771 6.20323 16.2056 6.39 17.409C6.41 17.549 6.425 17.709 6.317 17.823C5.814 18.475 5.365 19.173 5.037 19.927C4.884 20.293 5.23 20.703 5.611 20.702C5.72249 20.6941 5.83001 20.6574 5.92295 20.5953C6.01589 20.5332 6.09104 20.448 6.141 20.348C6.355 19.944 6.568 19.538 6.817 19.154C7.047 19.65 7.231 20.169 7.521 20.636C8.847 22.942 11.179 24.68 13.815 25.251C15.633 25.681 17.569 25.542 19.327 24.928C20.8531 24.3807 22.2196 23.4633 23.304 22.258C25.185 20.196 26.068 17.282 25.604 14.545C25.595 14.445 25.563 14.331 25.64 14.248C26.057 13.681 26.46 13.1 26.772 12.468C26.872 12.261 27.022 12.054 26.997 11.813C26.9784 11.6641 26.9032 11.5281 26.7871 11.4331C26.6709 11.3382 26.5226 11.2916 26.373 11.303C26.148 11.293 25.955 11.443 25.863 11.637C25.649 12.047 25.429 12.454 25.183 12.846C24.918 12.209 24.654 11.567 24.261 10.994C23.2034 9.32712 21.6595 8.02513 19.838 7.264C18.926 6.854 17.932 6.646 16.941 6.53C16.081 6.487 15.21 6.469 14.359 6.627H14.36ZM11.998 8.637C13.828 7.682 16.02 7.391 18.031 7.902C21.05 8.597 23.586 11.052 24.277 14.036C22.475 16.136 19.86 17.413 17.175 18.032C16.652 18.141 16.132 18.262 15.601 18.317C14.868 18.387 14.137 18.514 13.398 18.477C14.072 17.796 14.781 17.147 15.448 16.457C15.198 16.157 14.903 15.896 14.624 15.624C13.874 16.33 13.154 17.066 12.414 17.781C11.984 18.223 11.5 18.613 11.08 19.065C11.188 19.211 11.318 19.34 11.45 19.465C12.421 20.413 13.385 21.369 14.36 22.314C14.618 22.562 14.86 22.826 15.139 23.053C15.417 22.781 15.711 22.523 15.963 22.225C15.308 21.607 14.672 20.971 14.027 20.343C13.808 20.124 13.576 19.918 13.387 19.672C15.543 19.612 17.694 19.222 19.715 18.473C21.2694 17.9192 22.7081 17.0831 23.959 16.007C24.143 15.841 24.319 15.667 24.516 15.514C24.677 17.974 23.631 20.478 21.766 22.122C20.4625 23.2936 18.8319 24.0385 17.093 24.257C15.849 24.429 14.573 24.287 13.377 23.92C11.331 23.272 9.552 21.837 8.522 19.98C8.21 19.394 7.925 18.788 7.774 18.14C7.754 18.046 7.743 17.935 7.819 17.86C9.096 16.41 10.771 15.326 12.587 14.646C13.454 14.355 14.322 14.05 15.225 13.888C16.343 13.667 17.479 13.505 18.621 13.489C17.983 14.209 17.228 14.82 16.564 15.516C16.782 15.836 17.098 16.076 17.37 16.351C17.47 16.275 17.565 16.195 17.656 16.109C18.736 15.032 19.845 13.982 20.924 12.905C19.911 11.865 18.849 10.871 17.82 9.845C17.502 9.545 17.202 9.226 16.877 8.932C16.5878 9.19642 16.3089 9.47196 16.041 9.758C16.878 10.626 17.786 11.427 18.623 12.295C16.147 12.415 13.655 12.858 11.393 13.887C10.174 14.435 9.009 15.123 8.014 16.011C7.8451 16.1737 7.66644 16.326 7.479 16.467C7.412 15.277 7.63 14.081 8.057 12.969C8.799 11.129 10.225 9.569 11.998 8.637Z" fill="black"/>
</g>
<defs>
<clipPath id="clip0_16_2997">
<rect width="32" height="32" fill="white"/>
</clipPath>
</defs>
</svg>
