<svg width="32" height="32" viewBox="0 0 32 32" fill="none" xmlns="http://www.w3.org/2000/svg">
<g clip-path="url(#clip0_16_2999)">
<path fill-rule="evenodd" clip-rule="evenodd" d="M18.886 7.093C17.7548 6.68863 16.5623 6.4826 15.361 6.484C9.64 6.484 5 11.077 5 16.742C5 22.407 9.639 27 15.361 27C21.084 27 25.723 22.407 25.723 16.742C25.7244 15.4439 25.4766 14.1576 24.993 12.953C25.6048 12.5646 26.1087 12.0281 26.4581 11.3933C26.8075 10.7584 26.9912 10.0457 26.992 9.321C26.992 6.935 25.037 5 22.627 5C21.8764 4.99846 21.138 5.19021 20.4829 5.55679C19.8279 5.92336 19.2783 6.45241 18.887 7.093H18.886ZM18.296 8.779C18.2451 9.18391 18.2518 9.59398 18.316 9.997C17.9408 9.77879 17.5509 9.587 17.149 9.423L17.387 8.368C17.702 8.498 18.005 8.635 18.296 8.778V8.779ZM23.226 13.603C23.31 13.777 23.389 13.953 23.464 14.133L22.533 14.781C22.3319 14.3694 22.1113 13.9676 21.872 13.577C22.3193 13.655 22.776 13.6638 23.226 13.603ZM16 32C7.163 32 0 24.837 0 16C0 7.163 7.163 0 16 0C24.837 0 32 7.163 32 16C32 24.837 24.837 32 16 32Z" fill="black"/>
<path opacity="0.6" fill-rule="evenodd" clip-rule="evenodd" d="M18.886 7.09301C18.5726 7.60708 18.3715 8.18167 18.296 8.77901C17.9978 8.63169 17.6946 8.49461 17.387 8.36801L17.149 9.42301C17.557 9.59001 17.945 9.78201 18.315 9.99701V10C19.769 10.847 20.937 12.061 21.869 13.577H21.872C22.107 13.96 22.327 14.361 22.533 14.781L23.463 14.134C23.3893 13.9547 23.3103 13.7776 23.226 13.603C23.8553 13.5175 24.4583 13.2957 24.993 12.953C25.464 14.126 25.723 15.403 25.723 16.743C25.723 22.406 21.083 27 15.36 27C9.637 27 5 22.407 5 16.742C5 11.077 9.639 6.48401 15.361 6.48401C16.599 6.48401 17.786 6.69901 18.886 7.09301Z" fill="black"/>
</g>
<defs>
<clipPath id="clip0_16_2999">
<rect width="32" height="32" fill="white"/>
</clipPath>
</defs>
</svg>
