<svg width="32" height="32" viewBox="0 0 32 32" fill="none" xmlns="http://www.w3.org/2000/svg">
<g clip-path="url(#clip0_16_3003)">
<path d="M16 32C7.163 32 0 24.837 0 16C0 7.163 7.163 0 16 0C24.837 0 32 7.163 32 16C32 24.837 24.837 32 16 32ZM10 6.006C10.083 6.052 10.173 6.084 10.258 6.124C11.808 6.806 13.298 7.65 14.619 8.719C15.833 9.699 16.901 10.881 17.666 12.25C18.381 13.528 18.835 14.97 18.878 16.442C18.8837 16.6503 18.8763 16.8587 18.856 17.066H22.99C23.052 15.506 22.823 13.936 22.341 12.452C21.8796 11.0479 21.2152 9.71879 20.369 8.507C19.7734 7.63992 19.0876 6.83844 18.323 6.116C18.259 6.066 18.209 5.976 18.111 6.006H10ZM13.002 13.333L13 26C14.72 24.897 16.435 23.785 18.156 22.683C17.826 22.076 17.489 21.472 17.156 20.866C15.7733 18.3537 14.3883 15.8427 13.001 13.333H13.002Z" fill="black"/>
</g>
<defs>
<clipPath id="clip0_16_3003">
<rect width="32" height="32" fill="white"/>
</clipPath>
</defs>
</svg>
