<svg width="32" height="32" viewBox="0 0 32 32" fill="none" xmlns="http://www.w3.org/2000/svg">
<g clip-path="url(#clip0_16_3017)">
<path fill-rule="evenodd" clip-rule="evenodd" d="M16 32C7.163 32 0 24.837 0 16C0 7.163 7.163 0 16 0C24.837 0 32 7.163 32 16C32 24.837 24.837 32 16 32ZM12.605 9.155C13.463 9.155 14.158 8.449 14.158 7.578C14.158 6.707 13.463 6 12.605 6C11.748 6 11.053 6.706 11.053 7.578C11.053 8.45 11.748 9.155 12.605 9.155ZM19.447 26C20.305 26 21 25.294 21 24.422C21 23.552 20.305 22.845 19.447 22.845C18.59 22.845 17.895 23.551 17.895 24.422C17.895 25.294 18.59 26 19.447 26ZM13.242 14.21L20.4 8.65C20.6946 8.41863 20.8869 8.08101 20.9355 7.70956C20.9841 7.3381 20.8852 6.96239 20.66 6.663C20.5503 6.51557 20.4123 6.39153 20.254 6.29817C20.0957 6.20481 19.9203 6.144 19.7382 6.11932C19.5561 6.09463 19.3709 6.10657 19.1935 6.15443C19.0161 6.20228 18.85 6.28509 18.705 6.398L11.548 11.96C11.2535 12.1912 11.0613 12.5286 11.0125 12.8998C10.9637 13.271 11.0622 13.6466 11.287 13.946C11.3967 14.0934 11.5347 14.2175 11.693 14.3108C11.8513 14.4042 12.0267 14.465 12.2088 14.4897C12.3909 14.5144 12.5761 14.5024 12.7535 14.4546C12.9309 14.4067 13.097 14.3239 13.242 14.211V14.21ZM13.295 19.879L20.452 14.317C20.7465 14.0858 20.9387 13.7484 20.9875 13.3772C21.0363 13.006 20.9378 12.6304 20.713 12.331C20.6033 12.1836 20.4653 12.0595 20.307 11.9662C20.1487 11.8728 19.9733 11.812 19.7912 11.7873C19.6091 11.7626 19.4239 11.7746 19.2465 11.8224C19.0691 11.8703 18.903 11.9531 18.758 12.066L11.6 17.628C11.3054 17.8594 11.1131 18.197 11.0645 18.5684C11.0159 18.9399 11.1148 19.3156 11.34 19.615C11.4497 19.7624 11.5877 19.8865 11.746 19.9798C11.9043 20.0732 12.0797 20.134 12.2618 20.1587C12.4439 20.1834 12.6291 20.1714 12.8065 20.1236C12.9839 20.0757 13.15 19.9929 13.295 19.88V19.879ZM13.295 25.708L20.452 20.146C20.7465 19.9148 20.9387 19.5774 20.9875 19.2062C21.0363 18.835 20.9378 18.4594 20.713 18.16C20.6033 18.0126 20.4653 17.8885 20.307 17.7952C20.1487 17.7018 19.9733 17.641 19.7912 17.6163C19.6091 17.5916 19.4239 17.6036 19.2465 17.6514C19.0691 17.6993 18.903 17.7821 18.758 17.895L11.6 23.457C11.3054 23.6884 11.1131 24.026 11.0645 24.3974C11.0159 24.7689 11.1148 25.1446 11.34 25.444C11.4497 25.5914 11.5877 25.7155 11.746 25.8088C11.9043 25.9022 12.0797 25.963 12.2618 25.9877C12.4439 26.0124 12.6291 26.0004 12.8065 25.9526C12.9839 25.9047 13.15 25.8219 13.295 25.709V25.708Z" fill="black"/>
</g>
<defs>
<clipPath id="clip0_16_3017">
<rect width="32" height="32" fill="white"/>
</clipPath>
</defs>
</svg>
