<svg width="32" height="32" viewBox="0 0 32 32" fill="none" xmlns="http://www.w3.org/2000/svg">
<g clip-path="url(#clip0_16_3019)">
<path fill-rule="evenodd" clip-rule="evenodd" d="M16 32C7.163 32 0 24.837 0 16C0 7.163 7.163 0 16 0C24.837 0 32 7.163 32 16C32 24.837 24.837 32 16 32ZM23.683 12.886C22.053 13.057 20.817 14.543 20.929 16.2C20.929 16.657 20.76 17.057 20.367 17.286C20.1821 17.402 19.9673 17.4614 19.749 17.457C19.524 17.457 19.355 17.4 19.13 17.286C18.624 17 18.062 16.829 17.5 16.829H17.163C15.533 17 14.353 18.486 14.464 20.143C14.464 20.6 14.296 21 13.902 21.229C13.7171 21.345 13.5023 21.4044 13.284 21.4C13.0832 21.4046 12.8862 21.3446 12.722 21.229C12.216 20.943 11.654 20.771 11.092 20.771H10.754C9.237 20.943 8.112 22.257 8.056 23.857C8.056 25.571 9.406 27 11.092 27H11.372C12.834 26.829 14.015 25.686 14.127 24.2V23.686C14.127 23.229 14.296 22.829 14.689 22.6C14.8742 22.4838 15.0894 22.4244 15.308 22.429C15.533 22.429 15.701 22.486 15.926 22.6C16.432 22.886 16.994 23.057 17.556 23.057H17.893C18.5963 22.9719 19.2487 22.6469 19.7403 22.1369C20.2319 21.6268 20.5327 20.9629 20.592 20.257V19.743C20.592 19.286 20.76 18.886 21.154 18.657C21.3389 18.541 21.5537 18.4816 21.772 18.486C21.997 18.486 22.166 18.543 22.334 18.657C22.84 18.943 23.402 19.114 23.964 19.114H24.302C25.82 18.83 27 17.572 27 15.972C27 14.257 25.65 12.829 23.964 12.829C23.852 12.829 23.74 12.829 23.684 12.886H23.683ZM17.22 8.943C15.59 9.114 14.353 10.6 14.465 12.257C14.465 12.714 14.297 13.114 13.903 13.343C13.7181 13.459 13.5033 13.5184 13.285 13.514C13.0842 13.5186 12.8872 13.4586 12.723 13.343C12.217 13.057 11.655 12.886 11.093 12.886H10.755C9.238 13.114 8.113 14.372 8.113 15.914C8.113 17.629 9.463 19.057 11.149 19.057H11.43C12.892 18.885 14.072 17.742 14.184 16.257V15.743C14.184 15.286 14.354 14.886 14.747 14.657C14.9319 14.541 15.1467 14.4816 15.365 14.486C15.5658 14.4815 15.7627 14.5414 15.927 14.657C16.433 14.943 16.995 15.114 17.557 15.114H17.894C19.412 14.943 20.537 13.629 20.593 12.029C20.593 10.314 19.243 8.886 17.557 8.886C17.389 8.886 17.332 8.886 17.22 8.943ZM11.036 5C9.359 5 8 6.382 8 8.086C8 9.79 9.36 11.171 11.036 11.171C12.712 11.171 14.07 9.79 14.07 8.086C14.07 6.382 12.711 5 11.036 5Z" fill="black"/>
</g>
<defs>
<clipPath id="clip0_16_3019">
<rect width="32" height="32" fill="white"/>
</clipPath>
</defs>
</svg>
