<svg width="32" height="32" viewBox="0 0 32 32" fill="none" xmlns="http://www.w3.org/2000/svg">
<g clip-path="url(#clip0_16_3031)">
<path d="M16 0C24.837 0 32 7.163 32 16C32 24.837 24.837 32 16 32C7.163 32 0 24.837 0 16C0 7.163 7.163 0 16 0ZM16.064 4C9.405 4.008 4.008 9.375 4 16C4 20.574 6.825 24.254 10.573 24.563C12.853 24.75 15.058 23.942 16.51 23.229C17.3766 22.8747 18.1834 22.389 18.902 21.789L19.058 21.66L19.228 21.51L19.388 21.363C20.749 20.081 22.37 17.773 22.37 14.063V13.653L16.116 9.386L9.861 13.654V14.061L9.866 14.428C9.969 17.925 11.527 20.122 12.842 21.362C13.001 21.512 13.168 21.659 13.342 21.8C13.912 21.595 14.482 21.384 15.037 21.139C13.617 20.221 11.558 18.237 11.422 14.463L16.116 11.259L20.809 14.463L20.791 14.797C20.597 17.651 19.274 19.425 18.111 20.444L17.961 20.559L17.953 20.566L17.9 20.604C17.408 20.962 14.046 23.3 10.701 23.023C8.451 22.837 6.624 21.017 5.897 18.481C6.09034 18.3448 6.24198 18.1576 6.33492 17.9401C6.42787 17.7227 6.45846 17.4837 6.42328 17.2498C6.38809 17.016 6.28852 16.7965 6.1357 16.6161C5.98288 16.4356 5.78285 16.3012 5.558 16.228V16L5.566 15.6C5.616 14.268 5.925 12.957 6.476 11.739C7.14988 12.0147 7.90008 12.0405 8.59133 11.8118C9.28258 11.5832 9.86941 11.1151 10.246 10.492C10.5165 10.0436 10.6657 9.53255 10.679 9.00905C10.6923 8.48556 10.5693 7.96759 10.322 7.506C10.2871 7.4433 10.2504 7.3816 10.212 7.321C11.3727 6.54587 12.6758 6.009 14.0457 5.74155C15.4156 5.4741 16.825 5.48139 18.192 5.763C19.5574 6.04309 20.8534 6.59235 22.0042 7.3787C23.1551 8.16505 24.1378 9.17276 24.895 10.343C24.195 10.933 23.938 11.896 24.255 12.753C24.4103 13.1724 24.6905 13.5341 25.0578 13.7893C25.4251 14.0444 25.8618 14.1808 26.309 14.18H26.41L26.47 14.541C26.54 15.024 26.577 15.511 26.58 16.001C26.58 21.421 22.243 25.705 16.042 26.458C11.083 27.064 7.902 25.016 7.902 25.016C9.759 27.052 12.353 28 16.067 28C22.678 27.929 28 22.577 28 16C28 9.422 22.677 4.07 16.064 4ZM24.074 17.994C23.453 17.994 22.95 18.494 22.95 19.112C22.9504 19.2591 22.9798 19.4046 23.0364 19.5404C23.0931 19.6761 23.1759 19.7994 23.2802 19.9031C23.3844 20.0068 23.5081 20.089 23.6442 20.1449C23.7802 20.2008 23.9259 20.2294 24.073 20.229C24.693 20.229 25.196 19.729 25.196 19.112C25.1957 18.9648 25.1665 18.8192 25.1099 18.6833C25.0533 18.5475 24.9705 18.4241 24.8662 18.3203C24.7619 18.2164 24.6382 18.1342 24.5021 18.0782C24.366 18.0222 24.2202 17.9936 24.073 17.994H24.074ZM16.784 18.15H15.344L15.499 18.907L15.784 18.528L16.064 19.949L16.344 18.529L16.629 18.907L16.784 18.15ZM23.82 18.506C23.9402 18.4561 24.0726 18.4428 24.2003 18.4679C24.3281 18.493 24.4456 18.5553 24.538 18.647C24.63 18.7382 24.6927 18.8547 24.7181 18.9817C24.7436 19.1087 24.7307 19.2404 24.681 19.36C24.6229 19.5004 24.518 19.6164 24.3841 19.6882C24.2502 19.7601 24.0956 19.7834 23.9465 19.7542C23.7974 19.7249 23.663 19.645 23.5661 19.528C23.4692 19.4109 23.4158 19.2639 23.415 19.112C23.415 18.847 23.575 18.608 23.82 18.506ZM5.583 16.755C5.68311 16.8169 5.76853 16.8999 5.83331 16.9982C5.89809 17.0964 5.94067 17.2077 5.95809 17.3241C5.97551 17.4405 5.96735 17.5593 5.93417 17.6722C5.901 17.7852 5.84361 17.8895 5.766 17.978C5.67758 17.5749 5.61644 17.1663 5.583 16.755ZM16.07 13.345C16.07 13.345 15.31 14.398 15.31 14.814V16.946L15.128 17.013C14.711 17.185 14.348 17.469 14.083 17.835H18.045L17.925 17.684C17.6325 17.3414 17.2512 17.0861 16.823 16.946V14.814L16.813 14.723C16.726 14.263 16.07 13.346 16.07 13.346V13.345ZM25.144 10.742C25.686 11.667 26.083 12.67 26.318 13.715H26.308L26.158 13.709C25.8385 13.6819 25.533 13.566 25.2759 13.3745C25.0188 13.1829 24.8204 12.9233 24.703 12.625C24.5772 12.3035 24.5519 11.9513 24.6304 11.6151C24.709 11.2789 24.8877 10.9745 25.143 10.742H25.144ZM9.83 7.59C9.854 7.633 9.886 7.678 9.91 7.723L9.993 7.893C10.1938 8.34545 10.259 8.84639 10.181 9.33518C10.1029 9.82396 9.88474 10.2796 9.553 10.647C9.19831 11.0396 8.732 11.3144 8.21665 11.4343C7.70131 11.5542 7.16161 11.5137 6.67 11.318C7.41671 9.84492 8.49914 8.56793 9.83 7.59Z" fill="black"/>
</g>
<defs>
<clipPath id="clip0_16_3031">
<rect width="32" height="32" fill="white"/>
</clipPath>
</defs>
</svg>
