<svg width="32" height="32" viewBox="0 0 32 32" fill="none" xmlns="http://www.w3.org/2000/svg">
<g clip-path="url(#clip0_16_3037)">
<path d="M16 32C7.163 32 0 24.837 0 16C0 7.163 7.163 0 16 0C24.837 0 32 7.163 32 16C32 24.837 24.837 32 16 32ZM27 16.039C27.045 9.996 22.13 5.041 16.05 5C10.013 4.96 5.05 9.85 5 15.886C4.951 21.98 9.838 26.953 15.923 27C22.003 27.045 26.953 22.147 27 16.039ZM5.796 16.004C5.786 10.49 10.338 5.898 15.74 5.806C21.327 5.71 26.18 10.131 26.202 15.99C26.222 21.616 21.622 26.185 15.985 26.173C10.354 26.161 5.807 21.623 5.796 16.003V16.004ZM18.681 11.228C17.468 10.586 16.251 10.451 14.996 10.748C14.6699 10.8202 14.366 10.9699 14.1101 11.1846C13.8542 11.3992 13.6538 11.6724 13.526 11.981C13.2356 12.6263 13.172 13.3508 13.3454 14.0368C13.5187 14.7229 13.9189 15.3301 14.481 15.76C14.771 15.986 15.104 16.156 15.402 16.372C15.849 16.697 16.328 16.994 16.71 17.384C17.205 17.89 17.305 18.554 16.99 19.184C16.675 19.808 16.034 19.902 15.422 19.805C14.78 19.703 14.156 19.487 13.473 19.307L13.004 20.671C14.074 21.391 15.982 21.615 17.102 21.161C17.834 20.864 18.405 20.377 18.646 19.605C19.051 18.303 18.876 17.095 17.889 16.099C17.525 15.732 17.066 15.459 16.649 15.144C16.196 14.802 15.709 14.497 15.295 14.112C14.892 13.736 14.912 13.217 15.08 12.73C15.244 12.255 15.681 12.145 16.103 12.186C16.813 12.256 17.516 12.406 18.273 12.53C18.38 12.19 18.526 11.726 18.681 11.228ZM10.601 15.818C10.6034 15.6523 10.573 15.4877 10.5117 15.3337C10.4504 15.1798 10.3593 15.0394 10.2437 14.9207C10.128 14.802 9.99008 14.7072 9.83776 14.6419C9.68544 14.5766 9.52172 14.542 9.356 14.54C9.02137 14.54 8.69974 14.6695 8.45851 14.9014C8.21727 15.1333 8.07518 15.4496 8.062 15.784C8.046 16.481 8.645 17.091 9.344 17.088C9.67874 17.0848 9.9987 16.9496 10.2343 16.7118C10.4699 16.474 10.602 16.1528 10.602 15.818H10.601ZM22.694 14.575C21.924 14.575 21.394 15.078 21.394 15.81C21.394 16.51 21.95 17.078 22.645 17.088C23.355 17.098 23.93 16.513 23.921 15.791C23.911 15.089 23.392 14.574 22.694 14.575Z" fill="black"/>
</g>
<defs>
<clipPath id="clip0_16_3037">
<rect width="32" height="32" fill="white"/>
</clipPath>
</defs>
</svg>
