<svg width="32" height="32" viewBox="0 0 32 32" fill="none" xmlns="http://www.w3.org/2000/svg">
<g clip-path="url(#clip0_16_3039)">
<path d="M16 0C24.837 0 32 7.163 32 16C32 24.837 24.837 32 16 32C7.163 32 0 24.837 0 16C0 7.163 7.163 0 16 0ZM21.25 7H10.75V7.067L9 8.867V16L10.75 17.8H17.685V21.4H14.25V19.6H9V23.2L10.75 25H21.185L22.935 23.2V16L21.185 14.2H14.25V10.6H17.75V12.4H23V8.8L21.25 7Z" fill="black"/>
</g>
<defs>
<clipPath id="clip0_16_3039">
<rect width="32" height="32" fill="white"/>
</clipPath>
</defs>
</svg>
