<svg width="32" height="32" viewBox="0 0 32 32" fill="none" xmlns="http://www.w3.org/2000/svg">
<g clip-path="url(#clip0_16_3051)">
<path d="M16 0C24.837 0 32 7.163 32 16C32 24.837 24.837 32 16 32C7.163 32 0 24.837 0 16C0 7.163 7.163 0 16 0ZM20.358 6.957C20.277 6.917 20.216 6.922 20.143 6.975C19.479 7.448 18.842 7.952 18.294 8.559C17.919 8.973 17.596 9.422 17.372 9.936C17.222 10.278 17.127 10.633 17.1 11.004C17.0653 11.5442 17.1465 12.0857 17.338 12.592C17.528 13.119 17.79 13.611 18.071 14.094C18.402 14.662 18.761 15.214 19.077 15.792C19.341 16.272 19.576 16.766 19.726 17.295C19.862 17.775 19.917 18.263 19.863 18.758C19.799 19.2926 19.6232 19.8078 19.347 20.27C19.011 20.85 18.579 21.353 18.092 21.814C17.598 22.281 17.058 22.69 16.492 23.064C15.762 23.545 14.994 23.957 14.204 24.329C13.53 24.644 12.8427 24.9296 12.144 25.185C12.11 25.197 12.065 25.198 12.047 25.241C12.067 25.281 12.109 25.286 12.145 25.301C13.8967 25.9829 15.8022 26.1698 17.653 25.841C19.5768 25.5007 21.3615 24.6125 22.793 23.283C24.092 22.0789 25.0488 20.5521 25.566 18.858C25.837 17.973 25.971 17.068 25.998 16.145C26.0027 15.8293 25.9917 15.5136 25.965 15.199C25.8245 13.3015 25.1395 11.4848 23.992 9.967C23.5104 9.32494 22.9534 8.7431 22.333 8.234C21.7245 7.73587 21.062 7.30753 20.358 6.957ZM16.144 6.007C15.5689 5.98662 14.9932 6.01876 14.424 6.103C13.474 6.239 12.564 6.513 11.694 6.927C10.3904 7.54425 9.23923 8.44199 8.323 9.556C7.51578 10.5272 6.89992 11.6425 6.508 12.843C6.16097 13.9013 5.98971 15.0093 6.001 16.123C5.993 16.453 6.023 16.863 6.071 17.271C6.25625 18.8188 6.79478 20.3034 7.645 21.61C8.16284 22.4052 8.79151 23.1224 9.512 23.74C10.1061 24.25 10.7591 24.6871 11.457 25.042C11.53 25.079 11.586 25.082 11.655 25.031C12.134 24.678 12.598 24.309 13.025 23.891C13.487 23.436 13.902 22.944 14.205 22.361C14.459 21.871 14.605 21.35 14.617 20.793C14.6204 20.374 14.5556 19.9572 14.425 19.559C14.245 18.985 13.973 18.454 13.681 17.934C13.361 17.362 13.011 16.808 12.703 16.228C12.459 15.768 12.238 15.299 12.091 14.798C11.891 14.118 11.848 13.433 12.024 12.741C12.162 12.194 12.414 11.704 12.734 11.248C13.209 10.57 13.794 10.004 14.434 9.495C15.1714 8.91899 15.9608 8.41282 16.792 7.983C17.5375 7.59218 18.3044 7.24363 19.089 6.939L19.449 6.799C19.467 6.791 19.49 6.783 19.489 6.757C19.486 6.737 19.467 6.73 19.451 6.723C19.436 6.715 19.42 6.709 19.404 6.702C18.3661 6.2824 17.2628 6.04721 16.144 6.007Z" fill="black"/>
</g>
<defs>
<clipPath id="clip0_16_3051">
<rect width="32" height="32" fill="white"/>
</clipPath>
</defs>
</svg>
