<svg width="32" height="32" viewBox="0 0 32 32" fill="none" xmlns="http://www.w3.org/2000/svg">
<g clip-path="url(#clip0_16_3053)">
<path d="M16 0C24.837 0 32 7.163 32 16C32 24.837 24.837 32 16 32C7.163 32 0 24.837 0 16C0 7.163 7.163 0 16 0ZM22.514 7.5H7.5L7.558 15.915L7.644 24.358L15.094 24.443L22.514 24.5V22.517H9.81V9.483H22.514V7.5ZM18.472 13.648C18.472 15.518 19.454 16.34 22.139 16.708C23.784 16.907 24.333 17.332 24.189 18.295C24.015 19.542 21.59 19.712 20.551 18.55C20.06 17.955 18.183 17.757 18.183 18.267C18.183 19.06 19.193 20.335 20.06 20.703C21.33 21.213 23.41 21.213 24.68 20.703C26.556 19.938 27.134 17.133 25.69 15.858C25.373 15.575 24.189 15.15 23.063 14.895C20.811 14.385 20.118 13.818 20.753 13.053C21.33 12.373 23.293 12.458 23.727 13.167C23.987 13.563 24.42 13.733 25.199 13.733C26.209 13.733 26.296 13.677 26.123 13.082C25.806 12.09 24.823 11.212 23.698 10.9C20.898 10.135 18.472 11.438 18.472 13.648Z" fill="black"/>
</g>
<defs>
<clipPath id="clip0_16_3053">
<rect width="32" height="32" fill="white"/>
</clipPath>
</defs>
</svg>
