<svg width="32" height="32" viewBox="0 0 32 32" fill="none" xmlns="http://www.w3.org/2000/svg">
<g clip-path="url(#clip0_16_3055)">
<path d="M16 32C7.163 32 0 24.837 0 16C0 7.163 7.163 0 16 0C24.837 0 32 7.163 32 16C32 24.837 24.837 32 16 32ZM24.027 12.803C23.5051 12.5245 22.9409 12.334 22.357 12.239L17.292 23.5H19.215L24.027 12.803ZM15.607 6.519C12.754 6.728 10.499 9.172 10.499 12.167C7.462 12.167 5 14.702 5 17.833C5 20.119 6.316 22.082 8.204 22.978L15.607 6.519ZM21.501 12.167C21.501 11.107 21.214 10.118 20.721 9.27L14.32 23.5H16.403L21.502 12.167H21.501ZM23.395 23.149C25.5 22.35 27 20.274 27 17.836C27 17.153 26.877 16.501 26.661 15.893L23.395 23.149ZM24.837 13.335L20.265 23.5H21.501C21.679 23.5 21.861 23.49 22.037 23.472L26.023 14.614C25.6973 14.1277 25.2971 13.6957 24.837 13.334V13.335ZM16.02 6.5L8.543 23.123C9.15 23.363 9.809 23.5 10.499 23.5H10.779L18.21 6.981C17.5227 6.66629 16.776 6.50229 16.02 6.5ZM20.287 8.618C19.8442 8.05093 19.2962 7.57456 18.673 7.215L11.346 23.5H13.592L20.287 8.618Z" fill="black"/>
</g>
<defs>
<clipPath id="clip0_16_3055">
<rect width="32" height="32" fill="white"/>
</clipPath>
</defs>
</svg>
