<svg width="32" height="32" viewBox="0 0 32 32" fill="none" xmlns="http://www.w3.org/2000/svg">
<g clip-path="url(#clip0_16_3057)">
<path fill-rule="evenodd" clip-rule="evenodd" d="M16 32C7.163 32 0 24.837 0 16C0 7.163 7.163 0 16 0C24.837 0 32 7.163 32 16C32 24.837 24.837 32 16 32ZM11.921 22L10.408 23.576C11.456 24.909 13.2 26 14.831 26C18.821 26 20.766 23.348 20.766 20.365C20.766 17.527 19.31 15.95 16.448 14.688C14.114 13.656 13.085 12.768 13.085 10.96C13.085 9.641 13.965 8.064 16.273 8.064C17.805 8.064 18.468 8.929 19.02 9.273L20.417 7.818C19.835 7.091 18.08 6 16.348 6C13.06 6 10.876 8.236 10.876 11.247C10.876 13.971 12.583 15.606 15.344 16.724C17.628 17.728 18.532 18.76 18.532 20.566C18.532 22.516 17.227 23.864 14.992 23.864C13.486 23.864 12.038 22.364 11.922 22H11.921ZM13.783 11.697C13.783 11.697 19.602 10.848 19.486 15.818C19.486 15.818 20.184 16.061 20.882 17.394C20.882 17.394 22.512 8.788 13.667 10.243C13.667 10.243 13.434 10.97 13.783 11.697ZM17.74 19.576C17.74 19.576 11.341 20.909 11.53 15.143C11.53 15.143 10.867 14.812 10.333 13.399C10.335 13.399 7.615 22.606 17.686 21.308C17.686 21.308 18.091 20.425 17.74 19.576Z" fill="black"/>
</g>
<defs>
<clipPath id="clip0_16_3057">
<rect width="32" height="32" fill="white"/>
</clipPath>
</defs>
</svg>
