<svg width="32" height="32" viewBox="0 0 32 32" fill="none" xmlns="http://www.w3.org/2000/svg">
<g clip-path="url(#clip0_16_3065)">
<path d="M16 32C7.163 32 0 24.837 0 16C0 7.163 7.163 0 16 0C24.837 0 32 7.163 32 16C32 24.837 24.837 32 16 32ZM16 27C22.068 26.988 27 22.057 27 16C27 9.943 22.068 5.018 16 5C9.932 5.018 5 9.943 5 16C5 22.057 9.932 26.982 16 27ZM25.755 17.75C25.5879 18.6671 25.2934 19.5564 24.88 20.392C24.917 20.228 24.94 20.064 24.94 19.889C24.94 19.289 24.698 18.744 24.31 18.339C24.5798 18.4508 24.8827 18.4517 25.1532 18.3417C25.4237 18.2316 25.6399 18.0194 25.755 17.751V17.75ZM24.735 17.86H24.734H24.735ZM24.983 11.833C25.5981 13.1378 25.9138 14.5635 25.907 16.006C25.907 16.418 25.877 16.818 25.827 17.218C25.8042 16.9424 25.6787 16.6854 25.4753 16.4979C25.2719 16.3105 25.0056 16.2063 24.729 16.206C24.516 16.206 24.322 16.273 24.158 16.37C24.6814 15.7526 25.0331 15.0083 25.1779 14.212C25.3228 13.4156 25.2555 12.5952 24.983 11.833ZM24.419 13.377C24.4156 14.3899 24.0109 15.3602 23.2936 16.0754C22.5764 16.7906 21.6049 17.1925 20.592 17.193C19.5788 17.1935 18.6067 16.792 17.8892 16.0766C17.1717 15.3611 16.7674 14.3902 16.765 13.377C16.7674 12.3638 17.1717 11.3929 17.8892 10.6774C18.6067 9.96199 19.5788 9.56047 20.592 9.561C21.6052 9.56047 22.5773 9.96199 23.2948 10.6774C24.0123 11.3929 24.4166 12.3638 24.419 13.377ZM20.44 19.89C20.44 19.914 20.446 19.938 20.44 19.975C20.1518 19.0674 19.5919 18.2701 18.836 17.691C19.725 18.051 20.703 18.126 21.636 17.909C21.2753 18.0989 20.9733 18.3837 20.7625 18.7326C20.5517 19.0815 20.4402 19.4814 20.44 19.889V19.89ZM20.659 21.368C20.6583 21.165 20.6416 20.9624 20.609 20.762C20.817 21.246 21.186 21.642 21.655 21.882C21.5991 21.87 21.5421 21.8643 21.485 21.865C21.078 21.865 20.707 22.095 20.525 22.458C20.6128 22.1013 20.6578 21.7354 20.659 21.368ZM22.687 21.301H22.688C21.91 21.301 21.272 20.671 21.272 19.89C21.272 19.115 21.904 18.479 22.687 18.479C23.47 18.479 24.109 19.109 24.109 19.889C24.1069 20.2646 23.9561 20.624 23.6896 20.8886C23.4231 21.1533 23.0626 21.3015 22.687 21.301ZM23.622 17.316H23.623C23.623 17.548 23.697 17.776 23.835 17.964C23.4879 17.7571 23.0911 17.6482 22.687 17.649C22.584 17.649 22.487 17.661 22.389 17.673C22.894 17.4568 23.3584 17.1557 23.762 16.783C23.672 16.946 23.624 17.129 23.622 17.316ZM15.999 16.716C15.38 16.716 14.791 16.843 14.25 17.055C15.1828 16.3391 15.8084 15.2952 16 14.135C16.19 15.2953 16.8151 16.3395 17.748 17.055C17.1923 16.8303 16.5984 16.7148 15.999 16.715V16.716ZM15.999 10.543H16C16.4237 10.544 16.8389 10.4244 17.197 10.198C16.5699 10.8659 16.1535 11.7038 16 12.607C15.8505 11.7022 15.4337 10.8628 14.803 10.197C15.1608 10.4232 15.5757 10.5429 15.999 10.542V10.543ZM18.271 8.278C18.271 8.254 18.266 8.229 18.271 8.205C18.435 8.617 18.836 8.908 19.304 8.908C19.322 8.908 19.34 8.902 19.364 8.902C18.793 9.05707 18.257 9.32014 17.785 9.677C18.0995 9.27849 18.2707 8.78568 18.271 8.278ZM19.996 6.94C21.666 7.684 23.101 8.87 24.144 10.368C23.6128 9.74443 22.9268 9.2717 22.1549 8.99734C21.3831 8.72297 20.5526 8.65663 19.747 8.805C20.15 8.629 20.41 8.232 20.409 7.794C20.409 7.448 20.245 7.146 19.996 6.94ZM16.686 6.116C17.634 6.188 18.551 6.382 19.401 6.696C19.365 6.68937 19.3286 6.68569 19.292 6.685C18.709 6.685 18.235 7.139 18.192 7.709C18.0965 7.33763 17.9082 6.99661 17.6448 6.71797C17.3813 6.43932 17.0514 6.23219 16.686 6.116ZM14.566 8.278C14.5759 7.90437 14.7312 7.54935 14.999 7.28857C15.2667 7.0278 15.6257 6.88187 15.9995 6.88187C16.3733 6.88187 16.7323 7.0278 17 7.28857C17.2678 7.54935 17.4231 7.90437 17.433 8.278C17.4191 8.64879 17.2621 8.99978 16.9949 9.2572C16.7277 9.51463 16.371 9.65846 16 9.65846C15.629 9.65846 15.2723 9.51463 15.0051 9.2572C14.7379 8.99978 14.5809 8.64879 14.567 8.278H14.566ZM12.593 6.697C13.4669 6.37912 14.3805 6.18361 15.308 6.116C14.9423 6.23181 14.6121 6.43867 14.3483 6.71715C14.0845 6.99563 13.8958 7.33659 13.8 7.708C13.7807 7.42963 13.6564 7.16899 13.4521 6.97886C13.2479 6.78874 12.979 6.68333 12.7 6.684C12.6637 6.68507 12.6276 6.68909 12.592 6.696L12.593 6.697ZM13.728 8.278C13.728 8.787 13.901 9.28 14.22 9.678C13.7474 9.32194 13.2116 9.05863 12.641 8.902C12.659 8.902 12.677 8.908 12.701 8.908C13.169 8.908 13.571 8.618 13.734 8.205C13.729 8.22899 13.7269 8.25351 13.728 8.278ZM12.149 7.799C12.1575 7.65808 12.2194 7.52572 12.3222 7.42894C12.425 7.33216 12.5608 7.27827 12.702 7.27827C12.8432 7.27827 12.979 7.33216 13.0818 7.42894C13.1846 7.52572 13.2465 7.65808 13.255 7.799C13.255 7.94566 13.1967 8.08632 13.093 8.19003C12.9893 8.29374 12.8487 8.352 12.702 8.352C12.5553 8.352 12.4147 8.29374 12.311 8.19003C12.2073 8.08632 12.149 7.94566 12.149 7.799ZM7.855 10.374C8.89635 8.8716 10.3315 7.68518 12.003 6.945C11.8549 7.06329 11.7399 7.21791 11.6693 7.3938C11.5987 7.5697 11.5748 7.76088 11.6 7.94875C11.6251 8.13661 11.6985 8.31476 11.8129 8.46587C11.9274 8.61697 12.079 8.73587 12.253 8.811C11.4474 8.66066 10.6163 8.72605 9.84408 9.00055C9.07187 9.27505 8.38599 9.74888 7.856 10.374H7.855ZM7.581 13.378C7.581 11.276 9.301 9.568 11.408 9.562C12.4212 9.56147 13.3933 9.96299 14.1108 10.6784C14.8283 11.3939 15.2326 12.3648 15.235 13.378C15.2326 14.3912 14.8283 15.3621 14.1108 16.0776C13.3933 16.793 12.4212 17.1945 11.408 17.194C10.3948 17.1945 9.4227 16.793 8.7052 16.0776C7.9877 15.3621 7.58338 14.3912 7.581 13.378ZM11.56 19.89C11.5592 19.4807 11.4467 19.0794 11.2347 18.7293C11.0228 18.3791 10.7193 18.0935 10.357 17.903C11.2905 18.1202 12.2683 18.0441 13.157 17.685C12.4028 18.2655 11.8435 19.0623 11.554 19.969C11.554 19.945 11.56 19.914 11.56 19.889V19.89ZM8.377 17.315C8.377 17.128 8.327 16.944 8.231 16.782C8.631 17.159 9.097 17.462 9.604 17.673C9.50563 17.6557 9.40586 17.6477 9.306 17.649C8.90198 17.6479 8.50523 17.7565 8.158 17.963C8.301 17.778 8.378 17.55 8.377 17.315ZM7.891 19.89C7.89074 19.7042 7.92718 19.5203 7.99823 19.3486C8.06928 19.177 8.17355 19.0211 8.30504 18.8899C8.43652 18.7587 8.59264 18.6548 8.76442 18.5841C8.9362 18.5134 9.12025 18.4773 9.306 18.478C10.084 18.478 10.722 19.108 10.722 19.89C10.722 20.2653 10.5729 20.6252 10.3076 20.8906C10.0422 21.1559 9.68228 21.305 9.307 21.305C8.93172 21.305 8.57181 21.1559 8.30644 20.8906C8.04108 20.6252 7.892 20.2653 7.892 19.89H7.891ZM10.339 21.883C10.807 21.6411 11.1748 21.2421 11.378 20.756C11.3512 20.9589 11.3368 21.1633 11.335 21.368C11.336 21.735 11.381 22.101 11.469 22.458C11.3798 22.2797 11.2428 22.1297 11.0732 22.0248C10.9037 21.9199 10.7084 21.8643 10.509 21.864C10.449 21.864 10.394 21.877 10.339 21.883ZM6.166 17.213C5.93189 15.3743 6.22457 13.5069 7.01 11.828C6.73761 12.5902 6.67054 13.4107 6.81553 14.2071C6.96051 15.0035 7.31245 15.7477 7.836 16.365C7.66462 16.2591 7.46744 16.2024 7.266 16.201C6.688 16.201 6.215 16.649 6.166 17.212V17.213ZM7.06 19.89C7.06 20.065 7.083 20.229 7.12 20.393C6.70465 19.5587 6.41036 18.6694 6.246 17.752C6.36251 18.0192 6.57891 18.2301 6.84894 18.3398C7.11896 18.4495 7.42119 18.4492 7.691 18.339C7.28616 18.7533 7.05966 19.3097 7.06 19.889V19.89ZM9.902 22.052C9.606 22.252 9.429 22.586 9.428 22.942C9.428 23.203 9.526 23.433 9.678 23.622C8.95043 23.0184 8.31209 22.3147 7.782 21.532C8.06195 21.7919 8.40357 21.976 8.77455 22.067C9.14552 22.158 9.53358 22.1528 9.902 22.052ZM9.987 22.942C9.9868 22.8388 10.0172 22.7378 10.0744 22.6518C10.1316 22.5659 10.213 22.4988 10.3083 22.4591C10.4036 22.4194 10.5086 22.4089 10.6099 22.4288C10.7112 22.4488 10.8043 22.4983 10.8774 22.5712C10.9505 22.644 11.0004 22.737 11.0208 22.8382C11.0411 22.9394 11.031 23.0444 10.9916 23.1398C10.9523 23.2353 10.8856 23.3169 10.7998 23.3745C10.7141 23.432 10.6132 23.4628 10.51 23.463C10.3717 23.4633 10.239 23.4087 10.1409 23.3112C10.0429 23.2137 9.98753 23.0813 9.987 22.943V22.942ZM14.658 25.82C12.9838 25.5875 11.3968 24.9307 10.048 23.912C10.2123 23.9918 10.3942 24.0286 10.5766 24.0188C10.7589 24.009 10.9359 23.9531 11.0907 23.8562C11.2456 23.7594 11.3733 23.6248 11.4618 23.465C11.5504 23.3053 11.5969 23.1256 11.597 22.943C11.597 22.906 11.585 22.876 11.585 22.846C11.8236 23.5505 12.227 24.1878 12.7614 24.7051C13.2959 25.2223 13.9461 25.6046 14.658 25.82ZM19.821 21.368C19.821 23.47 18.108 25.178 16 25.184C14.9878 25.1832 14.0172 24.781 13.3011 24.0657C12.585 23.3503 12.1819 22.3802 12.18 21.368C12.18 20.3549 12.5825 19.3832 13.2989 18.6669C14.0152 17.9505 14.9869 17.548 16 17.548C17.0131 17.548 17.9848 17.9505 18.7011 18.6669C19.4175 19.3832 19.82 20.3549 19.82 21.368H19.821ZM21.959 23.912C20.6089 24.9285 19.0226 25.585 17.349 25.82C18.0609 25.6046 18.7111 25.2223 19.2456 24.7051C19.7801 24.1878 20.1834 23.5505 20.422 22.846C20.415 22.8779 20.411 22.9104 20.41 22.943C20.408 23.313 20.599 23.66 20.914 23.857C21.229 24.054 21.624 24.075 21.959 23.912ZM22.014 22.942C22.0144 23.0453 21.9841 23.1464 21.927 23.2325C21.8699 23.3187 21.7885 23.3859 21.6931 23.4257C21.5978 23.4655 21.4928 23.4761 21.3914 23.4562C21.29 23.4363 21.1968 23.3867 21.1236 23.3138C21.0504 23.2409 21.0005 23.1479 20.9802 23.0466C20.9599 22.9453 20.9701 22.8402 21.0095 22.7447C21.049 22.6492 21.1159 22.5676 21.2018 22.5101C21.2877 22.4527 21.3887 22.422 21.492 22.422C21.78 22.422 22.014 22.655 22.014 22.942ZM24.218 21.532C23.6881 22.3143 23.0501 23.0176 22.323 23.621C22.4824 23.4308 22.5708 23.1912 22.573 22.943C22.5724 22.7672 22.5288 22.5941 22.446 22.439C22.3632 22.2839 22.2438 22.1514 22.098 22.053C22.4665 22.1539 22.8546 22.159 23.2257 22.0678C23.5967 21.9766 23.9383 21.7922 24.218 21.532Z" fill="black"/>
</g>
<defs>
<clipPath id="clip0_16_3065">
<rect width="32" height="32" fill="white"/>
</clipPath>
</defs>
</svg>
