<svg width="32" height="32" viewBox="0 0 32 32" fill="none" xmlns="http://www.w3.org/2000/svg">
<g clip-path="url(#clip0_16_3069)">
<path d="M16 0C24.837 0 32 7.163 32 16C32 24.837 24.837 32 16 32C7.163 32 0 24.837 0 16C0 7.163 7.163 0 16 0ZM25.396 9H21.203C20.131 9 19.211 9.451 18.443 10.347L13.971 16.054L11.091 19.724C11.0317 19.7977 10.9569 19.8575 10.8718 19.899C10.7868 19.9405 10.6936 19.9627 10.599 19.964H6.619C6.60415 19.9622 6.58909 19.9644 6.57538 19.9704C6.56166 19.9764 6.5498 19.9859 6.541 19.998C6.52422 20.0201 6.51541 20.0472 6.516 20.075V22.905C6.51865 22.9269 6.52731 22.9477 6.541 22.965C6.55019 22.9767 6.56212 22.9859 6.57573 22.9918C6.58934 22.9977 6.6042 23.0002 6.619 22.999H10.816C11.888 22.999 12.808 22.545 13.576 21.64L16.016 18.532L18.456 21.64C19.219 22.545 20.131 23 21.203 23H25.393C25.4078 23.0015 25.4227 22.999 25.4362 22.9929C25.4498 22.9867 25.4614 22.9771 25.47 22.965C25.4868 22.9429 25.4956 22.9158 25.495 22.888V20.088C25.497 20.056 25.4882 20.0244 25.47 19.998C25.4608 19.9863 25.4489 19.9771 25.4353 19.9712C25.4217 19.9653 25.4068 19.9628 25.392 19.964H21.412C21.3211 19.9645 21.2312 19.9447 21.1489 19.9061C21.0666 19.8675 20.9938 19.8111 20.936 19.741L17.991 15.989L20.924 12.264C20.9821 12.1887 21.0569 12.1279 21.1424 12.0862C21.2279 12.0446 21.3219 12.0233 21.417 12.024H25.397C25.4118 12.0255 25.4267 12.023 25.4402 12.0169C25.4538 12.0107 25.4654 12.0011 25.474 11.989C25.4908 11.9669 25.4996 11.9398 25.499 11.912V9.08C25.4966 9.0601 25.4878 9.04151 25.474 9.027C25.4635 9.01749 25.4512 9.01027 25.4377 9.00579C25.4243 9.00132 25.4101 8.99968 25.396 9.001V9ZM10.825 9H6.619C6.60293 8.99869 6.58677 9.00118 6.57183 9.00726C6.5569 9.01334 6.54359 9.02284 6.533 9.035C6.51227 9.05531 6.50041 9.08299 6.5 9.112V11.912C6.5 11.942 6.512 11.968 6.533 11.989C6.55653 12.0105 6.58713 12.0226 6.619 12.023H10.599C10.792 12.023 10.973 12.109 11.092 12.263L12.603 14.197L14.595 11.663L13.572 10.36C12.8 9.455 11.884 9 10.825 9Z" fill="black"/>
</g>
<defs>
<clipPath id="clip0_16_3069">
<rect width="32" height="32" fill="white"/>
</clipPath>
</defs>
</svg>
