<svg width="32" height="32" viewBox="0 0 32 32" fill="none" xmlns="http://www.w3.org/2000/svg">
<g clip-path="url(#clip0_16_3075)">
<path d="M16 0C24.837 0 32 7.163 32 16C32 24.837 24.837 32 16 32C7.163 32 0 24.837 0 16C0 7.163 7.163 0 16 0ZM16.034 4.502L15.774 4.548C15.341 4.622 15.362 4.613 14.334 5.224C13.703 5.599 13.334 5.814 13.318 5.814C13.2942 5.82345 13.2717 5.83588 13.251 5.851L13.216 5.875C13.168 5.909 12.97 6.029 12.776 6.144L12.649 6.218L12.372 6.381L12.132 6.523L11.41 6.948C11.171 7.088 10.636 7.402 10.22 7.648L9.144 8.278C8.588 8.6 6.9 9.604 6.794 9.677C6.51 9.873 6.142 10.434 6.091 10.747C6.078 10.827 6.053 10.902 6.034 10.914C6.014 10.927 6.004 12.444 6.001 14.304V16.134C6.004 18.614 6.019 21.058 6.045 21.132L6.096 21.277L6.163 21.466C6.299 21.854 6.623 22.25 6.963 22.446C7.049 22.495 7.387 22.693 7.714 22.887C8.32915 23.2518 8.94515 23.6151 9.562 23.977C9.597 23.997 9.677 24.047 9.739 24.085C9.801 24.125 9.887 24.175 9.932 24.197C9.976 24.22 10.184 24.342 10.392 24.468C10.772 24.698 10.852 24.745 11.185 24.933C11.282 24.988 11.506 25.119 11.683 25.225L11.864 25.332C12.5615 25.7397 13.2578 26.1494 13.953 26.561L14.299 26.766L14.639 26.966C15.769 27.635 16.239 27.663 17.162 27.12C18.0084 26.6223 18.8544 26.124 19.7 25.625C20.83 24.962 21.532 24.547 22.207 24.145L22.447 24.003C22.7482 23.8237 23.0505 23.6464 23.354 23.471L23.707 23.265C25.512 22.228 25.683 22.085 25.924 21.403L26 21.191L25.998 10.826L25.924 10.61C25.744 10.08 25.454 9.765 24.81 9.392C24.571 9.254 23.913 8.868 23.347 8.535L22.811 8.219L19.716 6.394C19.1337 6.04762 18.5501 5.70362 17.965 5.362C17.663 5.188 16.985 4.78 16.969 4.762C16.909 4.694 16.133 4.477 16.034 4.502ZM11.807 9.562C11.841 9.594 11.852 9.787 11.857 10.919L11.858 11.197L11.859 11.681L11.86 15.394V16.548C11.864 18.713 11.88 19.058 11.952 19.258L11.966 19.294L11.989 19.346C12.179 19.757 12.382 19.94 13.113 20.358C13.298 20.464 13.515 20.591 13.595 20.64C13.815 20.778 14.325 21.066 14.346 21.066C14.356 21.066 14.369 20.234 14.374 19.217L14.382 17.368L16.062 17.359L17.74 17.351L17.732 20.661L17.724 23.971L17.258 24.245C16.238 24.844 15.808 24.831 14.686 24.17L13.53 23.491C13.0891 23.2336 12.65 22.9729 12.213 22.709L11.595 22.344C11.3176 22.1779 11.0386 22.0146 10.758 21.854C10.5073 21.7108 10.2586 21.5642 10.012 21.414C9.86767 21.3268 9.723 21.2401 9.578 21.154C8.93 20.774 8.648 20.435 8.488 19.849C8.398 19.513 8.384 12.578 8.473 12.214C8.593 11.725 8.887 11.293 9.273 11.038C9.667 10.777 11.748 9.564 11.803 9.563H11.807V9.562ZM16.604 7.431C16.8 7.498 18.493 8.478 22.03 10.573C23.045 11.174 23.178 11.287 23.44 11.767L23.484 11.849L23.51 11.899C23.62 12.122 23.647 12.351 23.65 13.845V14.596L23.645 16.09L23.636 19.735L23.564 19.939C23.4597 20.2376 23.2926 20.5104 23.074 20.739C22.897 20.917 22.791 20.985 21.622 21.671C21.44 21.778 21.069 21.997 20.799 22.159C20.528 22.321 20.299 22.445 20.289 22.436C20.28 22.426 20.269 20.313 20.265 17.74L20.258 13.062L20.189 12.87C19.99 12.312 19.842 12.176 18.688 11.495L17.756 10.945L17.74 12.825L17.724 14.705H14.382L14.374 11.363L14.366 8.021L14.763 7.789C15.581 7.31 16.011 7.226 16.604 7.431Z" fill="black"/>
</g>
<defs>
<clipPath id="clip0_16_3075">
<rect width="32" height="32" fill="white"/>
</clipPath>
</defs>
</svg>
