<svg width="32" height="32" viewBox="0 0 32 32" fill="none" xmlns="http://www.w3.org/2000/svg">
<g clip-path="url(#clip0_16_3079)">
<path fill-rule="evenodd" clip-rule="evenodd" d="M16 32C7.163 32 0 24.837 0 16C0 7.163 7.163 0 16 0C24.837 0 32 7.163 32 16C32 24.837 24.837 32 16 32ZM6 12.391H14.417V12.035H6V12.391ZM6 11.356H14.417V11H6V11.356ZM9.55 21.996H9.888V13.103H9.55V21.996ZM10.53 21.996H10.867V13.103H10.53V21.996ZM25.762 21.268L26 21.016L22.202 17.004L21.964 17.255L25.762 21.268ZM16.519 11L16.281 11.252L20.079 15.264L20.317 15.013L16.519 11ZM25.069 22L25.307 21.748L21.509 17.735L21.271 17.987L25.069 22ZM15.827 11.732L15.588 11.984L19.386 15.996L19.625 15.744L15.827 11.732ZM21.248 16.5L20.794 16.98L20.556 17.232L16.281 21.748L16.519 22L20.794 17.484L21.033 17.232L21.487 16.752L21.725 16.5L26 11.984L25.762 11.732L21.487 16.248L21.248 16.5ZM20.794 15.516L20.556 15.768L20.101 16.248L19.863 16.5L15.588 21.016L15.827 21.268L20.101 16.752L20.34 16.5L20.794 16.02L21.032 15.768L25.307 11.252L25.07 11L20.794 15.516Z" fill="black"/>
</g>
<defs>
<clipPath id="clip0_16_3079">
<rect width="32" height="32" fill="white"/>
</clipPath>
</defs>
</svg>
