<svg width="32" height="32" viewBox="0 0 32 32" fill="none" xmlns="http://www.w3.org/2000/svg">
<g clip-path="url(#clip0_16_3083)">
<path d="M16 32C7.163 32 0 24.837 0 16C0 7.163 7.163 0 16 0C24.837 0 32 7.163 32 16C32 24.837 24.837 32 16 32ZM16.566 5C16.747 6.472 16.826 7.966 16.951 9.438C17.023 9.883 17.061 10.334 17.064 10.785L20.891 14.6C19.215 17 17.494 19.389 15.819 21.8C15.989 23.725 16.136 25.65 16.329 27.574L27.899 11.181H22.759C20.699 9.121 18.649 7.049 16.577 5H16.566ZM4.011 21.46H4V21.506C5.72 21.472 7.442 21.506 9.162 21.483L15.309 27.642H15.332C15.14 25.706 14.992 23.758 14.822 21.834C13.543 20.577 12.287 19.298 11.03 18.042C12.717 15.642 14.415 13.264 16.102 10.852L15.615 5.057C11.743 10.525 7.895 16.004 4.011 21.46Z" fill="black"/>
</g>
<defs>
<clipPath id="clip0_16_3083">
<rect width="32" height="32" fill="white"/>
</clipPath>
</defs>
</svg>
