<svg width="32" height="32" viewBox="0 0 32 32" fill="none" xmlns="http://www.w3.org/2000/svg">
<g clip-path="url(#clip0_16_3087)">
<path fill-rule="evenodd" clip-rule="evenodd" d="M16 32C7.163 32 0 24.837 0 16C0 7.163 7.163 0 16 0C24.837 0 32 7.163 32 16C32 24.837 24.837 32 16 32ZM15.979 6.09C15.733 5.965 12.611 8.585 12.611 10.516C12.608 13.153 16.253 19.126 16.866 21.436C17.394 23.417 15.971 25.796 16.36 25.902C16.72 26.134 20.118 22.637 20.252 21.143C20.424 18.768 16.28 11.84 15.951 10.048C15.568 7.965 16.253 6.136 15.979 6.09ZM9.869 8.229C9.677 8.131 7.229 10.187 7.229 11.7C7.226 13.768 10.084 18.452 10.566 20.264C10.98 21.818 9.863 23.683 10.17 23.768C10.45 23.951 13.117 21.206 13.221 20.036C13.355 18.172 10.107 12.739 9.848 11.336C9.548 9.698 10.086 8.266 9.87 8.229H9.869ZM22.284 8.229C22.093 8.131 19.644 10.187 19.644 11.7C19.64 13.768 22.499 18.452 22.98 20.264C23.394 21.818 22.278 23.683 22.584 23.768C22.866 23.951 25.534 21.206 25.636 20.036C25.769 18.172 22.522 12.739 22.262 11.336C21.962 9.698 22.5 8.266 22.284 8.229Z" fill="black"/>
</g>
<defs>
<clipPath id="clip0_16_3087">
<rect width="32" height="32" fill="white"/>
</clipPath>
</defs>
</svg>
