<svg width="32" height="32" viewBox="0 0 32 32" fill="none" xmlns="http://www.w3.org/2000/svg">
<g clip-path="url(#clip0_16_3101)">
<path d="M16 32C7.163 32 0 24.837 0 16C0 7.163 7.163 0 16 0C24.837 0 32 7.163 32 16C32 24.837 24.837 32 16 32ZM12.117 5.314L8.1 8.328C8.06859 8.35103 8.04304 8.38114 8.02543 8.41589C8.00782 8.45064 7.99864 8.48905 7.99864 8.528C7.99864 8.56695 8.00782 8.60536 8.02543 8.64011C8.04304 8.67486 8.06859 8.70497 8.1 8.728L23.901 20.581L23.007 21.251C22.9806 21.2707 22.9583 21.2954 22.9415 21.3237C22.9247 21.352 22.9135 21.3833 22.9088 21.4159C22.9041 21.4485 22.9058 21.4817 22.9139 21.5137C22.922 21.5456 22.9363 21.5756 22.956 21.602C22.9757 21.6284 23.0004 21.6507 23.0287 21.6675C23.057 21.6843 23.0883 21.6955 23.1209 21.7002C23.1535 21.7049 23.1867 21.7032 23.2187 21.6951C23.2506 21.687 23.2806 21.6727 23.307 21.653L24.469 20.783C24.5005 20.7595 24.526 20.7291 24.5436 20.694C24.5612 20.6589 24.5703 20.6202 24.5703 20.581C24.5703 20.5418 24.5612 20.5031 24.5436 20.468C24.526 20.4329 24.5005 20.4025 24.469 20.379L8.67 8.526L12.268 5.829L13.374 6.656C13.427 6.69578 13.4937 6.71286 13.5594 6.70349C13.625 6.69411 13.6842 6.65904 13.724 6.606C13.7638 6.55296 13.7809 6.48628 13.7715 6.42064C13.7621 6.35501 13.727 6.29578 13.674 6.256L12.419 5.314C12.3757 5.28154 12.3231 5.264 12.269 5.264C12.2144 5.26302 12.1612 5.28065 12.118 5.314H12.117ZM16.134 5.314L10.944 9.206C10.8907 9.24578 10.8554 9.30511 10.8458 9.37094C10.8362 9.43676 10.8532 9.50369 10.893 9.557C10.9328 9.61031 10.9921 9.64563 11.0579 9.65519C11.1238 9.66476 11.1907 9.64778 11.244 9.608L16.284 5.828L23.564 11.288H20.386L15.179 7.384C15.1257 7.34422 15.0588 7.32724 14.9929 7.33681C14.9271 7.34637 14.8678 7.38169 14.828 7.435C14.7882 7.48831 14.7712 7.55524 14.7808 7.62106C14.7904 7.68689 14.8257 7.74622 14.879 7.786L20.15 11.739C20.194 11.772 20.246 11.789 20.3 11.79H24.318C24.3706 11.7899 24.4218 11.7732 24.4643 11.7423C24.5069 11.7115 24.5386 11.6679 24.555 11.618C24.5723 11.5684 24.5733 11.5146 24.5579 11.4644C24.5424 11.4142 24.5112 11.3702 24.469 11.339L16.434 5.312C16.3907 5.27936 16.3379 5.26187 16.2837 5.26224C16.2294 5.2626 16.1769 5.28079 16.134 5.314ZM9.21 10.509L8.1 11.339C8.06911 11.3626 8.04407 11.393 8.02684 11.4279C8.00961 11.4628 8.00065 11.5011 8.00065 11.54C8.00065 11.5789 8.00961 11.6172 8.02684 11.6521C8.04407 11.687 8.06911 11.7174 8.1 11.741L23.902 23.594L20.302 26.293L19.292 25.536C19.2387 25.496 19.1717 25.4787 19.1056 25.4881C19.0396 25.4975 18.98 25.5327 18.94 25.586C18.9 25.6393 18.8827 25.7063 18.8921 25.7724C18.9015 25.8384 18.9367 25.898 18.99 25.938L20.152 26.81C20.1955 26.842 20.248 26.8593 20.302 26.8593C20.356 26.8593 20.4085 26.842 20.452 26.81L24.47 23.797C24.5014 23.7738 24.527 23.7435 24.5446 23.7086C24.5622 23.6736 24.5713 23.6351 24.5713 23.596C24.5713 23.5569 24.5622 23.5184 24.5446 23.4834C24.527 23.4485 24.5014 23.4182 24.47 23.395L8.67 11.541L9.511 10.911C9.53752 10.8914 9.55987 10.8667 9.57676 10.8384C9.59365 10.81 9.60475 10.7786 9.6094 10.746C9.61405 10.7133 9.61217 10.68 9.60386 10.6481C9.59555 10.6162 9.58098 10.5862 9.561 10.56C9.52104 10.5072 9.46194 10.4723 9.39645 10.4628C9.33096 10.4532 9.26435 10.4698 9.211 10.509H9.21ZM8.251 20.328C8.19789 20.3274 8.14594 20.3436 8.10264 20.3743C8.05933 20.4051 8.0269 20.4488 8.01 20.4991C7.9931 20.5495 7.99262 20.6039 8.00861 20.6546C8.0246 20.7052 8.05625 20.7495 8.099 20.781L16.136 26.806C16.1793 26.8385 16.2319 26.856 16.286 26.856C16.3401 26.856 16.3927 26.8385 16.436 26.806L21.618 22.922C21.6713 22.8818 21.7065 22.8221 21.7158 22.756C21.725 22.6899 21.7077 22.6228 21.6675 22.5695C21.6273 22.5162 21.5676 22.481 21.5015 22.4717C21.4354 22.4625 21.3683 22.4798 21.315 22.52L16.286 26.293L9.005 20.832H12.185L17.331 24.692C17.3573 24.7118 17.3872 24.7262 17.419 24.7344C17.4508 24.7426 17.484 24.7444 17.5165 24.7398C17.549 24.7352 17.5804 24.7243 17.6087 24.7076C17.637 24.6909 17.6617 24.6688 17.6815 24.6425C17.7013 24.6162 17.7157 24.5863 17.7239 24.5545C17.7321 24.5227 17.7339 24.4895 17.7293 24.457C17.7247 24.4245 17.7138 24.3931 17.6971 24.3648C17.6804 24.3365 17.6583 24.3118 17.632 24.292L12.416 20.381C12.3734 20.3472 12.3204 20.3291 12.266 20.33H8.25V20.328H8.251Z" fill="black"/>
</g>
<defs>
<clipPath id="clip0_16_3101">
<rect width="32" height="32" fill="white"/>
</clipPath>
</defs>
</svg>
