<svg width="32" height="32" viewBox="0 0 32 32" fill="none" xmlns="http://www.w3.org/2000/svg">
<g clip-path="url(#clip0_16_3103)">
<path d="M16 32C7.163 32 0 24.837 0 16C0 7.163 7.163 0 16 0C24.837 0 32 7.163 32 16C32 24.837 24.837 32 16 32ZM18.061 9.084H13.99C10.977 12.446 9.514 13.828 7 15.9L17.81 18.238L15.95 20.328C13.467 18.858 11.767 18.669 8.71 18.388C11.007 19.446 12.2 20.296 13.989 22.914H18.061C20.176 20.287 21.634 18.762 25 15.9L14.24 13.51L15.95 11.52C18.659 12.942 20.281 13.146 23.156 13.506C22.329 13.279 21.465 12.649 18.061 9.083V9.084ZM14.24 8.587H17.81C16.919 7.475 16.54 6.912 16.05 6C15.551 6.885 15.17 7.442 14.24 8.587ZM17.81 23.413H14.24C15.13 24.525 15.51 25.088 16 26C16.498 25.115 16.879 24.558 17.81 23.413Z" fill="black"/>
</g>
<defs>
<clipPath id="clip0_16_3103">
<rect width="32" height="32" fill="white"/>
</clipPath>
</defs>
</svg>
