<svg width="32" height="32" viewBox="0 0 32 32" fill="none" xmlns="http://www.w3.org/2000/svg">
<g clip-path="url(#clip0_16_3109)">
<path d="M16 32C7.163 32 0 24.837 0 16C0 7.163 7.163 0 16 0C24.837 0 32 7.163 32 16C32 24.837 24.837 32 16 32ZM4 13V14.221H5.298V13H4ZM5.298 17.774V16.663H7.811V15.442H4V19H9.075V17.774H5.298ZM22.925 15.442V16.662H26.702V17.774H24.189V19H28V15.442H22.925ZM26.723 14.28V13.059H22.923V14.279H26.723V14.28ZM10.312 15.442V19H14.122V17.826H15.387V15.442H10.312ZM14.089 17.774H11.61V16.663H14.09V17.773L14.089 17.774ZM10.312 13V14.221H15.387V13H10.312ZM16.646 15.442V19H20.456V17.826H21.721V15.442H16.646ZM20.418 17.774H17.938V16.663H20.418V17.773V17.774ZM16.646 13V14.221H21.721V13H16.646Z" fill="black"/>
</g>
<defs>
<clipPath id="clip0_16_3109">
<rect width="32" height="32" fill="white"/>
</clipPath>
</defs>
</svg>
