<svg width="32" height="32" viewBox="0 0 32 32" fill="none" xmlns="http://www.w3.org/2000/svg">
<g clip-path="url(#clip0_16_3111)">
<path fill-rule="evenodd" clip-rule="evenodd" d="M16 32C7.163 32 0 24.837 0 16C0 7.163 7.163 0 16 0C24.837 0 32 7.163 32 16C32 24.837 24.837 32 16 32ZM8.094 13.678L6 15.788H10.203L8.094 13.678ZM10.204 16.228H6L8.094 18.322L10.204 16.228ZM13.056 13.375L10.946 11.265V15.469L13.056 13.375ZM10.506 15.469V11.266L8.413 13.375L10.506 15.469ZM13.36 13.056L15.469 10.962H11.266L13.36 13.056ZM13.36 8.413L11.266 10.522H15.469L13.36 8.413ZM18.322 8.109L16.212 6V10.203L18.322 8.109ZM15.772 10.203V6L13.678 8.11L15.772 10.203ZM13.056 18.64L10.946 16.531V20.734L13.056 18.64ZM8.413 18.64L10.507 20.734V16.531L8.413 18.64ZM18.625 13.056L20.735 10.962H16.53L18.625 13.056ZM16.531 10.522H20.734L18.625 8.412L16.531 10.522ZM15.47 21.493H11.267L13.361 23.587L15.47 21.493ZM13.36 18.943L11.267 21.053H15.47L13.36 18.943ZM23.588 13.375L21.479 11.265V15.469L23.588 13.375ZM18.945 13.375L21.039 15.469V11.266L18.945 13.375ZM13.679 23.905L15.772 26V21.797L13.679 23.905ZM16.213 21.797V26L18.323 23.906L16.213 21.797ZM18.626 23.587L20.736 21.493H16.53L18.626 23.587ZM18.626 18.944L16.532 21.054H20.735L18.626 18.944ZM21.479 16.531V20.734L23.589 18.64L21.479 16.531ZM18.945 18.641L21.039 20.734V16.531L18.945 18.641ZM23.892 18.321L26 16.229H21.797L23.892 18.321ZM23.892 13.678L21.798 15.788H26L23.892 13.678Z" fill="black"/>
</g>
<defs>
<clipPath id="clip0_16_3111">
<rect width="32" height="32" fill="white"/>
</clipPath>
</defs>
</svg>
