<svg width="32" height="32" viewBox="0 0 32 32" fill="none" xmlns="http://www.w3.org/2000/svg">
<g clip-path="url(#clip0_16_3129)">
<path d="M16 32C7.163 32 0 24.837 0 16C0 7.163 7.163 0 16 0C24.837 0 32 7.163 32 16C32 24.837 24.837 32 16 32ZM17.77 14.25C17.9299 14.2404 18.0901 14.2404 18.25 14.25C19.73 14.35 20.41 16.36 21.35 16.25C20.469 16.9702 19.4471 17.4982 18.35 17.8C17.8939 17.8666 17.4288 17.7735 17.0334 17.5366C16.638 17.2998 16.3365 16.9336 16.18 16.5V20.5L22 17.18V12L17.77 14.25ZM14.88 14.24C14.6594 14.0572 14.4795 13.8301 14.3521 13.5734C14.2246 13.3168 14.1524 13.0363 14.14 12.75V12.67C14.14 11.51 16.01 9.67 16.07 9.67C16.13 9.73 18 11.52 18 12.67V12.76C17.9822 13.2736 17.7673 13.7606 17.4 14.12L22 11.65L16 8.71L10 11.62L14.88 14.24ZM15.86 16.54C15.7053 16.9754 15.4046 17.3438 15.009 17.5827C14.6134 17.8215 14.1474 17.9159 13.69 17.85C12.5929 17.5482 11.571 17.0202 10.69 16.3C11.63 16.37 12.3 14.35 13.79 14.3C13.9499 14.2904 14.1101 14.2904 14.27 14.3L10 12V17.19L15.87 20.58L15.86 16.54ZM16 4C9.373 4 4 9.373 4 16C4 22.627 9.373 28 16 28C22.627 28 28 22.627 28 16C28 12.8174 26.7357 9.76515 24.4853 7.51472C22.2348 5.26428 19.1826 4 16 4ZM9.3 11.19L16 7.94L22.71 11.19V17.58L16 21.45L9.3 17.58V11.19ZM22.73 20.19L16.05 24.05L9.29 20.15V19.78L16.05 23.68L22.73 19.82V20.19ZM22.73 19.44L16.05 23.3L9.29 19.4V19L16.05 22.91L22.73 19.05V19.44ZM22.73 18.69L16.05 22.55L9.29 18.65V18.28L16.05 22.19L22.73 18.33V18.69Z" fill="black"/>
</g>
<defs>
<clipPath id="clip0_16_3129">
<rect width="32" height="32" fill="white"/>
</clipPath>
</defs>
</svg>
