<svg width="32" height="32" viewBox="0 0 32 32" fill="none" xmlns="http://www.w3.org/2000/svg">
<g clip-path="url(#clip0_16_3131)">
<path fill-rule="evenodd" clip-rule="evenodd" d="M16 32C7.163 32 0 24.837 0 16C0 7.163 7.163 0 16 0C24.837 0 32 7.163 32 16C32 24.837 24.837 32 16 32ZM15.598 11.857L15.673 11.5H8.34L6.162 20.5H8.558L10.204 13.214H13.136L11.389 20.5H13.568L15.281 13.214H15.311L15.571 11.986L15.601 11.857H15.598ZM19.739 11.5L17.561 20.429H22.128C22.6776 20.4317 23.2244 20.3498 23.749 20.186C24.616 19.911 25.671 19.334 25.839 18.143H26.492L26.71 17.286H25.91C25.91 17.286 25.983 16 24.314 15.786C24.314 15.786 25.766 15.357 25.984 14.571H26.71L27 13.714H26.201C26.201 13.714 26.491 11.643 23.37 11.5H19.739ZM7.323 13.214L7.76 11.5H5.436L5 13.214H7.323ZM17.271 19.5L18.069 15.857L16.182 11.643L15.382 15.071L17.271 19.5ZM22.825 15.071H20.974L21.409 13.143H22.825C23.085 13.143 23.335 13.244 23.518 13.425C23.701 13.606 23.805 13.851 23.805 14.107C23.805 14.363 23.702 14.608 23.518 14.789C23.334 14.97 23.085 15.072 22.825 15.071ZM22.336 18.786H20.11L20.634 16.571H22.336C22.99 16.571 23.515 17.067 23.515 17.679C23.515 18.29 22.987 18.786 22.336 18.786Z" fill="black"/>
</g>
<defs>
<clipPath id="clip0_16_3131">
<rect width="32" height="32" fill="white"/>
</clipPath>
</defs>
</svg>
