<svg width="32" height="32" viewBox="0 0 32 32" fill="none" xmlns="http://www.w3.org/2000/svg">
<g clip-path="url(#clip0_16_3133)">
<path d="M16 32C7.163 32 0 24.837 0 16C0 7.163 7.163 0 16 0C24.837 0 32 7.163 32 16C32 24.837 24.837 32 16 32ZM18.226 13.804L16.396 16.918L18.528 20.399L10.116 20.397L8.246 23.5H23.859L18.226 13.804ZM12.476 16.06H16.135L18.136 12.505L22.256 19.665H26L18.203 6.542L12.476 16.06ZM17.361 19.679L15.531 16.564H11.364L15.667 9.646L13.807 6.5L6 19.625L17.361 19.679Z" fill="black"/>
</g>
<defs>
<clipPath id="clip0_16_3133">
<rect width="32" height="32" fill="white"/>
</clipPath>
</defs>
</svg>
