<svg width="32" height="32" viewBox="0 0 32 32" fill="none" xmlns="http://www.w3.org/2000/svg">
<g clip-path="url(#clip0_16_3135)">
<path d="M16 32C7.163 32 0 24.837 0 16C0 7.163 7.163 0 16 0C24.837 0 32 7.163 32 16C32 24.837 24.837 32 16 32ZM13.89 21.503L14.048 25C14.048 25 15.923 24.682 17.876 25L18.032 21.503H13.89ZM11.626 18.8C11.626 18.8 17.095 18.323 20.298 18.8L20.61 14.985C17.5679 14.7491 14.5121 14.7491 11.47 14.985L11.626 18.8ZM26 8.944C26 8.944 15.531 6.718 6 9.103L6.703 13.474L7.563 11.805C7.563 11.805 16.547 10.454 24.593 11.805L25.375 13.475L26 8.944Z" fill="black"/>
</g>
<defs>
<clipPath id="clip0_16_3135">
<rect width="32" height="32" fill="white"/>
</clipPath>
</defs>
</svg>
