<svg width="32" height="32" viewBox="0 0 32 32" fill="none" xmlns="http://www.w3.org/2000/svg">
<g clip-path="url(#clip0_16_3137)">
<path d="M16 32C7.163 32 0 24.837 0 16C0 7.163 7.163 0 16 0C24.837 0 32 7.163 32 16C32 24.837 24.837 32 16 32ZM18.525 14.464C18.6664 14.4643 18.8024 14.41 18.9047 14.3123C19.007 14.2147 19.0675 14.0813 19.0737 13.94C19.0799 13.7988 19.0313 13.6606 18.938 13.5543C18.8446 13.4481 18.7139 13.3821 18.573 13.37H14.733V12.41C14.6954 12.2772 14.6155 12.1603 14.5054 12.0771C14.3953 11.9938 14.261 11.9488 14.123 11.9488C13.985 11.9488 13.8507 11.9938 13.7406 12.0771C13.6305 12.1603 13.5506 12.2772 13.513 12.41V13.37H12.486C12.3409 13.37 12.2018 13.4276 12.0992 13.5302C11.9966 13.6328 11.939 13.7719 11.939 13.917C11.939 14.0621 11.9966 14.2012 12.0992 14.3038C12.2018 14.4064 12.3409 14.464 12.486 14.464H13.514V17.804C13.5187 18.6444 13.8552 19.4489 14.4502 20.0424C15.0452 20.6359 15.8506 20.9704 16.691 20.973C17.3917 20.9623 18.0683 20.7153 18.611 20.272L18.841 20.08C18.915 20.0281 18.9773 19.9612 19.0237 19.8837C19.0701 19.8061 19.0996 19.7196 19.1104 19.6299C19.1211 19.5401 19.1128 19.4491 19.086 19.3628C19.0592 19.2765 19.0145 19.1968 18.9548 19.1289C18.8951 19.061 18.8218 19.0065 18.7397 18.9689C18.6575 18.9312 18.5683 18.9113 18.4779 18.9105C18.3875 18.9097 18.298 18.9279 18.2151 18.964C18.1323 19.0001 18.0579 19.0532 17.997 19.12L17.824 19.264C17.5491 19.4915 17.2141 19.6344 16.8596 19.6752C16.5051 19.7161 16.1464 19.6531 15.827 19.494C15.5003 19.3383 15.2243 19.0935 15.0308 18.7878C14.8372 18.4821 14.734 18.1279 14.733 17.766V14.464H18.525ZM24.765 18.189C24.7777 18.1271 24.7781 18.0634 24.7661 18.0014C24.7541 17.9394 24.73 17.8804 24.6952 17.8277C24.6603 17.775 24.6154 17.7297 24.5631 17.6944C24.5107 17.6591 24.4519 17.6345 24.39 17.622H24.15C24.0433 17.6216 23.9396 17.6575 23.856 17.7238C23.7724 17.7902 23.7138 17.883 23.69 17.987C23.457 19.0061 23.0132 19.9651 22.3872 20.8024C21.7612 21.6396 20.9668 22.3364 20.0552 22.8481C19.1436 23.3597 18.1349 23.6748 17.0941 23.7731C16.0534 23.8714 15.0036 23.7506 14.0123 23.4186C13.021 23.0866 12.1103 22.5508 11.3386 21.8455C10.5669 21.1402 9.95152 20.2812 9.53193 19.3237C9.11235 18.3662 8.89789 17.3315 8.90238 16.2861C8.90687 15.2407 9.1302 14.2079 9.558 13.254C9.90211 12.4233 10.4065 11.6685 11.0424 11.0328C11.6783 10.3971 12.4332 9.89289 13.264 9.549C14.8848 8.82537 16.7089 8.69627 18.4155 9.18442C20.1221 9.67257 21.602 10.7467 22.595 12.218C22.6653 12.3206 22.7726 12.3918 22.8944 12.4168C23.0162 12.4418 23.143 12.4186 23.248 12.352L23.334 12.294C23.4493 12.2211 23.5312 12.1056 23.562 11.9727C23.5927 11.8398 23.5697 11.7001 23.498 11.584C22.4147 9.98954 20.8294 8.80311 18.9942 8.21348C17.1589 7.62384 15.1792 7.66486 13.37 8.33C12.2222 8.72446 11.1778 9.37173 10.3137 10.224C9.44969 11.0763 8.78816 12.1118 8.378 13.254C7.95174 14.3567 7.75788 15.5355 7.80859 16.7166C7.8593 17.8977 8.15347 19.0555 8.67268 20.1176C9.19188 21.1797 9.92491 22.123 10.8258 22.8885C11.7267 23.6539 12.776 24.225 13.908 24.5659C15.0399 24.9068 16.2301 25.0102 17.4039 24.8695C18.5777 24.7288 19.7097 24.3471 20.7291 23.7484C21.7484 23.1497 22.6331 22.3468 23.3276 21.3902C24.0221 20.4335 24.5115 19.3437 24.765 18.189ZM16.874 4.95H15.914C14.1794 5.02289 12.4841 5.48953 10.9565 6.31458C9.42887 7.13964 8.10905 8.30148 7.09693 9.71211C6.08482 11.1227 5.40697 12.7452 5.1147 14.4566C4.82243 16.168 4.92341 17.9234 5.41 19.59C5.45204 19.7288 5.54751 19.8453 5.67541 19.9137C5.80331 19.9822 5.95316 19.997 6.092 19.955H6.169C6.28507 19.8989 6.37762 19.8037 6.43031 19.686C6.483 19.5684 6.49245 19.4359 6.457 19.312C5.82097 17.1336 5.9186 14.8066 6.73485 12.6891C7.5511 10.5716 9.04071 8.78119 10.9744 7.59337C12.908 6.40555 15.1785 5.88624 17.4362 6.11538C19.6939 6.34453 21.8138 7.30942 23.4693 8.86151C25.1249 10.4136 26.2244 12.4668 26.5986 14.7051C26.9728 16.9434 26.6009 19.2426 25.5401 21.2488C24.4794 23.255 22.7887 24.8569 20.7282 25.8079C18.6678 26.7589 16.3518 27.0063 14.137 26.512C14.0412 26.4917 13.9416 26.4989 13.8497 26.5329C13.7579 26.5669 13.6775 26.6262 13.618 26.704C13.5586 26.7781 13.5191 26.8661 13.5033 26.9597C13.4874 27.0533 13.4958 27.1494 13.5276 27.2389C13.5593 27.3283 13.6134 27.4082 13.6847 27.4709C13.7561 27.5336 13.8422 27.577 13.935 27.597C15.4613 27.8766 17.0286 27.8427 18.5414 27.4972C20.0541 27.1517 21.4808 26.5019 22.7344 25.5874C23.9879 24.6729 25.0423 23.5127 25.8331 22.1777C26.624 20.8426 27.1348 19.3605 27.3345 17.8217C27.5342 16.2829 27.4186 14.7195 26.9947 13.2268C26.5708 11.7341 25.8476 10.3433 24.8689 9.13908C23.8903 7.93487 22.6768 6.94245 21.3023 6.22227C19.9278 5.50209 18.4211 5.06921 16.874 4.95Z" fill="black"/>
</g>
<defs>
<clipPath id="clip0_16_3137">
<rect width="32" height="32" fill="white"/>
</clipPath>
</defs>
</svg>
