<svg width="32" height="32" viewBox="0 0 32 32" fill="none" xmlns="http://www.w3.org/2000/svg">
<g clip-path="url(#clip0_16_3139)">
<path d="M16 32C7.163 32 0 24.837 0 16C0 7.163 7.163 0 16 0C24.837 0 32 7.163 32 16C32 24.837 24.837 32 16 32ZM15.995 27.228C9.797 27.228 4.772 22.203 4.772 16.005C4.772 9.807 9.797 4.782 15.995 4.782C22.193 4.782 27.218 9.807 27.218 16.005C27.218 22.203 22.193 27.228 15.995 27.228ZM15.995 4.067C9.412 4.067 4.057 9.422 4.057 16.005C4.057 22.588 9.412 27.943 15.995 27.943C22.578 27.943 27.933 22.588 27.933 16.005C27.933 9.422 22.578 4.067 15.995 4.067ZM20.199 20.275L19.576 22.974L19.426 23.627H18.756L15.311 23.625H15.297C13.916 23.602 12.832 23.235 12.121 22.587C12.735 23.67 14.039 24.297 15.859 24.327H15.873L19.317 24.329H19.987L20.138 23.676L20.761 20.977L20.275 19.946L20.199 20.275ZM19.116 8.704L18.624 7.681L18.554 8.001L18.087 10.128H18.803L19.116 8.704ZM21.603 11.164L20.983 13.79L20.829 14.438H17.096L16.148 18.766C16.128 18.89 16.116 19.016 16.116 19.086C16.116 19.147 16.123 19.186 16.129 19.205C16.2003 19.2317 16.2759 19.2446 16.352 19.243H16.76L17.658 15.141H21.391L21.544 14.492L22.164 11.867L21.682 10.831L21.602 11.165L21.603 11.164ZM12.341 14.438H9.74L10.636 15.141H12.188L12.341 14.438ZM16.434 20.086H16.339C15.615 20.067 15.273 19.69 15.273 19.086C15.273 18.942 15.297 18.751 15.321 18.608L16.419 13.596H20.163L20.783 10.971H17.039L17.731 7.821H14.677L13.984 10.971H10.67L10.074 13.596H13.388L12.098 19.491C12.028 19.777 12.003 20.111 12.003 20.278C12.003 21.96 13.33 22.75 15.311 22.783L18.755 22.784L19.378 20.086H16.434Z" fill="black"/>
</g>
<defs>
<clipPath id="clip0_16_3139">
<rect width="32" height="32" fill="white"/>
</clipPath>
</defs>
</svg>
