<svg width="32" height="32" viewBox="0 0 32 32" fill="none" xmlns="http://www.w3.org/2000/svg">
<g clip-path="url(#clip0_16_3147)">
<path d="M16 32C7.163 32 0 24.837 0 16C0 7.163 7.163 0 16 0C24.837 0 32 7.163 32 16C32 24.837 24.837 32 16 32ZM17.057 19.028V13.168H17.827C20.372 13.168 20.999 10.795 20.999 10.795H14.316C11.144 10.795 10.606 13.169 10.606 13.169H14.549V21.986C14.549 21.986 17.057 21.233 17.057 19.028ZM24.395 23.594C26.643 21.258 27.505 18.014 26.696 14.911C26.2691 13.2874 25.4123 11.8088 24.216 10.631C24.108 10.525 24 10.417 23.874 10.311L23.766 10.204C23.6927 10.1333 23.6145 10.0678 23.532 10.008L23.388 9.901L23.173 9.741L23.046 9.651C22.9602 9.59479 22.8764 9.53542 22.795 9.473L22.632 9.367C22.5642 9.31895 22.4923 9.27711 22.417 9.242L22.255 9.135C22.183 9.099 22.111 9.045 22.039 9.01L21.877 8.92C21.8009 8.88071 21.7228 8.84533 21.643 8.814L21.588 8.796C21.786 8.956 21.983 9.135 22.163 9.313C22.9834 10.1265 23.6346 11.0943 24.079 12.1608C24.5234 13.2273 24.7522 14.3712 24.7522 15.5265C24.7522 16.6818 24.5234 17.8257 24.079 18.8922C23.6346 19.9587 22.9834 20.9265 22.163 21.74C17.777 26.09 10.658 26.09 6.27 21.74C6.108 21.58 5.964 21.42 5.803 21.26L5.677 21.117C5.58278 21.0074 5.49272 20.8943 5.407 20.778C5.97103 21.8841 6.70532 22.8948 7.583 23.773C12.167 28.319 19.609 28.319 24.193 23.773C24.2729 23.7288 24.3419 23.6673 24.395 23.593V23.594ZM10.4 22.386C10.1999 22.2229 10.0077 22.0503 9.824 21.869C9.00273 21.0548 8.35085 20.086 7.90598 19.0185C7.46111 17.951 7.23207 16.806 7.23207 15.6495C7.23207 14.493 7.46111 13.348 7.90598 12.2805C8.35085 11.213 9.00273 10.2442 9.824 9.43C14.215 5.076 21.34 5.076 25.731 9.43C26.037 9.734 26.324 10.055 26.594 10.394C26.0293 9.29249 25.2947 8.28683 24.417 7.414C19.829 2.863 12.379 2.863 7.791 7.414C7.737 7.467 7.683 7.539 7.611 7.592C4.57 10.769 4.156 15.516 6.586 19.121C7.54 20.511 8.87 21.671 10.4 22.386Z" fill="black"/>
</g>
<defs>
<clipPath id="clip0_16_3147">
<rect width="32" height="32" fill="white"/>
</clipPath>
</defs>
</svg>
