<svg width="32" height="32" viewBox="0 0 32 32" fill="none" xmlns="http://www.w3.org/2000/svg">
<g clip-path="url(#clip0_16_3155)">
<path d="M16 0C24.837 0 32 7.163 32 16C32 24.837 24.837 32 16 32C7.163 32 0 24.837 0 16C0 7.163 7.163 0 16 0ZM12.71 13.037C12.588 13.037 12.471 13.0855 12.3847 13.1717C12.2985 13.258 12.25 13.375 12.25 13.497V18.634L12.257 18.706C12.29 18.866 12.433 18.981 12.597 18.981H13.6C13.797 18.981 13.947 18.821 13.947 18.634V15.972L15.709 17.078C15.859 17.172 16.047 17.172 16.197 17.078L17.969 15.972V18.634C17.969 18.831 18.129 18.981 18.316 18.981H19.328C19.3726 18.9808 19.4168 18.9715 19.4577 18.9538C19.4987 18.936 19.5356 18.9101 19.5663 18.8777C19.5969 18.8453 19.6207 18.8069 19.6361 18.765C19.6515 18.7232 19.6583 18.6786 19.656 18.634V13.497C19.6541 13.4139 19.6299 13.3328 19.5859 13.2622C19.5419 13.1916 19.4798 13.1341 19.406 13.0958C19.3322 13.0575 19.2494 13.0397 19.1664 13.0443C19.0834 13.0489 19.0031 13.0757 18.934 13.122L16.141 15.044C16.0853 15.0853 16.0178 15.1076 15.9485 15.1076C15.8792 15.1076 15.8117 15.0853 15.756 15.044L12.963 13.122C12.8902 13.0661 12.8008 13.0362 12.709 13.037H12.71ZM5.368 13H4.356C4.26297 12.9995 4.17346 13.0356 4.10684 13.1005C4.04022 13.1654 4.00184 13.254 4 13.347V18.512L4.007 18.595C4.0264 18.7008 4.08224 18.7964 4.16481 18.8653C4.24738 18.9341 4.35148 18.9719 4.459 18.972H10.741C10.8628 18.9717 10.9796 18.9232 11.0656 18.8369C11.1517 18.7507 11.2 18.6338 11.2 18.512V13.347C11.2001 13.3014 11.1912 13.2562 11.1739 13.2141C11.1565 13.1719 11.1309 13.1336 11.0987 13.1013C11.0664 13.0691 11.0281 13.0435 10.9859 13.0261C10.9438 13.0088 10.8986 12.9999 10.853 13H9.87C9.82439 12.9999 9.77921 13.0088 9.73705 13.0261C9.69489 13.0435 9.65659 13.0691 9.62434 13.1013C9.59209 13.1336 9.56654 13.1719 9.54914 13.2141C9.53175 13.2562 9.52287 13.3014 9.523 13.347V17.275H5.716V13.347L5.708 13.275C5.69165 13.197 5.6489 13.1271 5.58695 13.077C5.52501 13.0269 5.44767 12.9997 5.368 13ZM27.465 13H21.183C21.0612 13.0003 20.9444 13.0488 20.8584 13.1351C20.7723 13.2213 20.724 13.3382 20.724 13.46V18.625L20.731 18.696C20.7473 18.7741 20.79 18.8441 20.852 18.8944C20.9139 18.9447 20.9912 18.9721 21.071 18.972H22.083C22.28 18.972 22.43 18.812 22.43 18.625V14.922L22.438 14.862C22.4517 14.8149 22.4802 14.7734 22.5193 14.7437C22.5583 14.714 22.6059 14.6976 22.655 14.697H26.002L26.062 14.705C26.1091 14.7187 26.1506 14.7472 26.1803 14.7863C26.21 14.8253 26.2264 14.8729 26.227 14.922V18.625L26.234 18.696C26.2503 18.7741 26.293 18.8441 26.355 18.8944C26.4169 18.9447 26.4942 18.9721 26.574 18.972H27.586L27.655 18.965C27.7318 18.9473 27.8002 18.904 27.8491 18.8422C27.898 18.7804 27.9244 18.7038 27.924 18.625V13.459C27.9237 13.3372 27.8752 13.2204 27.7889 13.1344C27.7027 13.0483 27.5858 13 27.464 13H27.465ZM24.821 15.784H23.818C23.7273 15.7832 23.6399 15.8183 23.5749 15.8816C23.5099 15.9449 23.4726 16.0313 23.471 16.122V17.153C23.471 17.35 23.631 17.5 23.818 17.5H24.821C25.018 17.5 25.168 17.34 25.168 17.153V16.131C25.1681 16.0854 25.1592 16.0402 25.1419 15.9981C25.1245 15.9559 25.0989 15.9176 25.0667 15.8853C25.0344 15.8531 24.9961 15.8275 24.9539 15.8101C24.9118 15.7928 24.8666 15.7839 24.821 15.784Z" fill="black"/>
</g>
<defs>
<clipPath id="clip0_16_3155">
<rect width="32" height="32" fill="white"/>
</clipPath>
</defs>
</svg>
