<svg width="32" height="32" viewBox="0 0 32 32" fill="none" xmlns="http://www.w3.org/2000/svg">
<g clip-path="url(#clip0_16_3157)">
<path d="M16 1.90743e-05C24.837 1.90743e-05 32 7.16302 32 16C32 24.837 24.837 32 16 32C7.16301 32 7.00213e-06 24.837 7.00213e-06 16C-0.00227927 13.5584 0.555332 11.1487 1.62998 8.95622C2.70462 6.76376 4.26768 4.84691 6.19901 3.35302L6.29201 3.46702L6.54201 3.77302C10.086 8.11302 11.918 10.366 12.038 10.531C12.238 10.809 12.163 11.058 11.819 11.254C11.628 11.363 11.234 11.473 11.038 11.473C10.815 11.473 10.564 11.366 10.381 11.193C10.3323 11.1407 10.2875 11.0849 10.247 11.026L10.161 10.907C9.89101 10.523 9.38101 9.74702 8.52801 8.42502C7.96466 7.54261 7.39397 6.66492 6.81601 5.79202L6.80401 5.78202C6.80201 5.78202 6.80301 5.78602 6.80801 5.79802L6.84001 5.86202C6.94301 6.06002 7.30901 6.71402 8.43401 8.72802C9.48001 10.6 9.83401 11.261 9.83401 11.35C9.83401 11.53 9.78401 11.624 9.56201 11.872C9.19201 12.285 9.02701 12.749 8.90701 13.709C8.77301 14.786 8.39701 15.546 7.35301 16.847C6.74301 17.609 6.64301 17.749 6.48801 18.056C6.29401 18.442 6.24101 18.659 6.21901 19.147C6.19601 19.663 6.24101 19.997 6.39901 20.49C6.53701 20.922 6.68101 21.208 7.04901 21.778C7.36701 22.271 7.55001 22.637 7.55001 22.78C7.55001 22.894 7.57201 22.894 8.06501 22.783C9.24401 22.517 10.201 22.048 10.74 21.474C11.073 21.119 11.151 20.923 11.154 20.436C11.155 20.118 11.144 20.051 11.058 19.868C10.918 19.57 10.663 19.322 10.101 18.938C9.36401 18.434 9.05001 18.028 8.96301 17.471C8.89101 17.014 8.97401 16.691 9.38201 15.837C9.80301 14.953 9.90801 14.577 9.97901 13.686C10.024 13.11 10.087 12.883 10.253 12.701C10.425 12.511 10.581 12.446 11.008 12.388C11.704 12.293 12.147 12.113 12.511 11.778C12.827 11.486 12.959 11.205 12.979 10.783L12.995 10.463L12.818 10.257L12.798 10.233C12.466 9.85302 10.371 7.54202 6.51401 3.30102L6.41201 3.19002C9.17714 1.11436 12.5425 -0.00532965 16 1.90743e-05ZM16.048 20.72C15.594 20.604 14.777 20.572 14.286 20.652C13.147 20.837 11.898 21.439 10.893 22.287L10.594 22.54L10.857 22.58C12.228 22.795 12.597 22.985 13.549 23.965C14.096 24.529 14.281 24.655 14.735 24.77C15.402 24.94 16.06 24.628 16.285 24.033C16.386 23.767 16.373 23.326 16.257 23.105C15.982 22.579 15.181 22.409 14.794 22.795C14.471 23.115 14.565 23.599 14.966 23.683C15.058 23.702 15.056 23.698 14.943 23.647C14.767 23.567 14.691 23.457 14.69 23.282C14.688 22.872 15.158 22.641 15.595 22.838C15.915 22.982 16.043 23.171 16.043 23.502C16.0442 23.6209 16.0198 23.7387 15.9715 23.8473C15.9232 23.956 15.8521 24.053 15.7631 24.1318C15.6741 24.2106 15.5691 24.2693 15.4554 24.304C15.3417 24.3388 15.2219 24.3486 15.104 24.333C14.8078 24.2857 14.535 24.1432 14.327 23.927C13.882 23.423 14.055 22.629 14.677 22.324C15.15 22.092 15.779 22.149 16.267 22.469C16.827 22.836 17.066 23.171 17.549 24.272C17.706 24.631 17.909 25.034 17.999 25.169C18.455 25.854 19.003 26.189 19.663 26.189C20.027 26.189 20.301 26.123 20.646 25.951C20.902 25.823 21.264 25.581 21.238 25.554C21.1566 25.5686 21.0774 25.5931 21.002 25.627C20.282 25.908 19.549 25.889 19.124 25.577C18.856 25.382 18.64 24.991 18.529 24.503C18.477 24.2272 18.43 23.9505 18.388 23.673C18.24 22.731 18.098 22.307 17.767 21.821C17.427 21.324 16.777 20.906 16.048 20.72ZM20.89 15.765C20.87 15.765 20.836 15.826 20.815 15.9C20.618 16.597 20.7 17.343 21.06 18.116L21.125 18.251C21.291 18.584 21.507 18.927 22.155 19.898C22.786 20.845 23.099 21.405 23.252 21.864C23.502 22.614 23.465 23.288 23.134 23.98C23.055 24.144 23.003 24.277 23.017 24.277C23.031 24.277 23.16 24.213 23.305 24.134C24.289 23.6 24.98 22.684 25.277 21.518C25.371 21.148 25.408 20.265 25.345 19.898C25.233 19.25 25.001 18.718 24.625 18.251C24.197 17.718 23.567 17.251 22.462 16.649C21.577 16.167 21.245 15.979 21.079 15.867C21.0214 15.8239 20.9577 15.7895 20.89 15.765ZM7.15201 19.103C7.15201 18.905 7.50701 18.833 7.73501 18.985C7.97701 19.145 8.05401 19.475 7.90901 19.731C7.77101 19.976 7.50601 20.057 7.31901 19.911C7.20401 19.82 7.19601 19.686 7.29701 19.534C7.39701 19.384 7.38701 19.311 7.26001 19.246C7.18501 19.207 7.15201 19.163 7.15201 19.103ZM19.62 15.133L19.689 15.34C19.744 15.5279 19.7874 15.7189 19.819 15.912C20.036 17.202 19.359 18.245 18.041 18.649C17.901 18.692 17.352 18.799 16.821 18.888C15.743 19.068 15.263 19.194 14.78 19.427C14.437 19.592 14.023 19.839 14.047 19.864C14.1071 19.8609 14.1661 19.8466 14.221 19.822C14.83 19.608 15.508 19.498 16.537 19.444C16.946 19.423 17.411 19.389 17.57 19.369C18.488 19.253 19.123 18.975 19.618 18.471C19.893 18.191 20.057 17.931 20.188 17.563C20.273 17.329 20.284 17.243 20.285 16.829C20.285 16.408 20.275 16.331 20.185 16.072C20.065 15.732 19.925 15.477 19.748 15.278L19.62 15.134V15.133ZM18.077 11.401C18.067 11.401 18.059 11.593 18.059 11.828C18.059 13.424 19.013 14.37 21.719 15.46C23.522 16.185 24.259 16.56 24.809 17.032C25.291 17.447 25.579 18.001 25.606 18.569C25.611 18.676 25.631 18.753 25.651 18.747C25.725 18.723 26.001 18.104 26.092 17.76C26.207 17.325 26.248 16.5 26.178 16.06C25.934 14.546 24.912 13.434 23.26 12.886C22.74 12.714 22.176 12.596 21.175 12.449C19.474 12.201 18.859 12.013 18.31 11.573C18.2365 11.5103 18.1586 11.4528 18.077 11.401ZM14.273 12.636C14.071 12.533 13.642 12.492 13.434 12.556C13.107 12.656 12.79 13.003 12.691 13.366C12.631 13.587 12.665 13.976 12.755 14.096C12.9 14.29 13.041 14.341 13.421 14.338C14.165 14.333 14.811 14.014 14.887 13.615C14.949 13.288 14.664 12.835 14.273 12.635V12.636ZM13.24 13.09C13.24 12.739 13.802 12.55 14.173 12.778C14.368 12.897 14.419 13.073 14.303 13.236C14.225 13.348 13.98 13.456 13.801 13.456C13.533 13.456 13.24 13.264 13.24 13.09ZM13.382 5.81102C12.963 5.71102 12.355 5.65802 12.098 5.69702C11.964 5.71702 11.976 5.72302 12.261 5.76702C13.301 5.92902 14.112 6.34102 14.939 7.12702C15.302 7.47202 15.668 7.90102 16.259 8.67702C17.591 10.424 18.156 10.911 19.277 11.277C19.935 11.491 20.6 11.591 21.774 11.653C23.074 11.722 23.564 11.826 24.029 12.133C24.286 12.303 24.487 12.515 24.687 12.825L24.804 13.005L24.779 12.807C24.686 12.047 24.143 10.977 23.451 10.194L23.325 10.051L23.261 10.338C23.101 11.061 22.755 11.58 22.433 11.581C22.3551 11.5804 22.279 11.558 22.2132 11.5163C22.1474 11.4746 22.0947 11.4152 22.061 11.345C21.99 11.175 21.996 11.113 22.101 10.915C22.296 10.55 22.344 10.062 22.248 9.42502C22.221 9.24102 22.18 9.06802 22.158 9.04202C22.088 8.95702 21.526 8.63002 21.17 8.46602C19.877 7.86802 18.33 7.67402 16.81 7.91902L16.45 7.97702L16.198 7.69602C15.248 6.63902 14.359 6.04402 13.382 5.81102ZM22.781 6.09802C22.773 6.09802 22.72 6.20002 22.664 6.32402C22.522 6.63702 22.452 6.98002 22.422 7.50002C22.403 7.83502 22.384 7.95002 22.345 7.96402C22.286 7.98702 22.207 7.96302 21.725 7.77802C21.402 7.65302 20.598 7.41802 20.575 7.44202C20.569 7.44802 20.737 7.53002 20.949 7.62402C21.161 7.71802 21.505 7.89602 21.713 8.02002C22.538 8.50802 22.678 8.79202 22.679 9.97602C22.679 10.566 22.672 10.643 22.599 10.821C22.501 11.06 22.519 11.105 22.626 10.894C22.826 10.504 22.91 10.112 22.922 9.50402C22.929 9.11402 22.941 9.03102 22.996 8.97602C23.056 8.91602 23.071 8.91602 23.168 8.96602C23.313 9.04002 23.968 9.56202 24.254 9.82902L24.487 10.048L24.254 9.74202C24.126 9.57302 23.772 9.18202 23.467 8.87002C22.819 8.20702 22.767 8.11902 22.677 7.50502C22.607 7.02102 22.623 6.60502 22.727 6.30202C22.7542 6.23681 22.7724 6.16817 22.781 6.09802ZM11.979 6.30802L11.955 6.59102C11.878 7.50502 12.236 8.72802 12.815 9.52502C13.265 10.143 13.96 10.623 14.475 10.67C14.811 10.7 14.912 10.595 14.76 10.373C14.548 10.064 14.288 9.58902 14.22 9.38502C14.1399 9.11124 14.0709 8.83435 14.013 8.55502C13.772 7.43002 13.534 6.99102 12.986 6.65802C12.7112 6.50855 12.4166 6.39879 12.111 6.33202L11.979 6.30802Z" fill="black"/>
</g>
<defs>
<clipPath id="clip0_16_3157">
<rect width="32" height="32" fill="white"/>
</clipPath>
</defs>
</svg>
