<svg width="32" height="32" viewBox="0 0 32 32" fill="none" xmlns="http://www.w3.org/2000/svg">
<g clip-path="url(#clip0_16_3159)">
<path fill-rule="evenodd" clip-rule="evenodd" d="M16 32C7.163 32 0 24.837 0 16C0 7.163 7.163 0 16 0C24.837 0 32 7.163 32 16C32 24.837 24.837 32 16 32ZM13.288 22.732C14.154 22.864 15.028 22.93 15.905 22.929C18.881 22.929 21.582 22.186 23.565 20.981C21.131 17.567 17.478 12.799 13.652 11.435C12.7598 11.1166 11.8194 10.9542 10.872 10.955C9.87 10.955 9.046 11.145 8.394 11.517C7.741 11.89 7.417 12.364 7.417 12.925C7.416 13.137 7.469 13.347 7.574 13.535C7.694 13.738 7.858 13.916 8.054 14.057C8.599 14.447 9.776 14.694 11.59 14.805C12.422 14.852 13.07 14.895 13.527 14.954C14.872 15.098 15.937 15.513 16.725 16.196C17.51 16.881 17.903 17.718 17.903 18.718C17.903 19.904 17.366 20.882 16.291 21.652C15.481 22.228 14.481 22.588 13.291 22.732H13.288ZM9.009 20.79C9.97346 21.1449 10.9923 21.3293 12.02 21.335C13.246 21.335 14.242 21.086 15.007 20.588C15.772 20.09 16.156 19.449 16.156 18.666C16.156 18.043 15.881 17.532 15.331 17.132C13.701 15.942 9.737 16.541 7.582 15.605C6.966 15.318 6.494 14.953 6.175 14.505C5.92047 14.1509 5.76105 13.7373 5.712 13.304C3.987 16.364 5.516 19.514 9.009 20.79ZM25.912 18.875C26.569 17.985 26.936 16.994 26.936 15.948C26.936 14.903 26.569 13.91 25.912 13.021V18.875ZM24.263 11.415C22.24 9.936 19.244 9 15.905 9C14.5311 8.99671 13.162 9.16126 11.828 9.49C12.608 9.564 13.378 9.724 14.121 9.967C18.424 11.365 21.925 15.55 24.268 18.877L24.263 11.415Z" fill="black"/>
<path opacity="0.5" d="M25.912 18.875V13.021C26.569 13.91 26.936 14.903 26.936 15.948C26.936 16.994 26.569 17.985 25.912 18.875ZM24.263 11.415L24.268 18.876C21.925 15.55 18.424 11.365 14.121 9.96699C13.3766 9.7239 12.6076 9.56393 11.828 9.48999C13.162 9.16125 14.5311 8.9967 15.905 8.99999C19.245 8.99999 22.24 9.93599 24.263 11.415Z" fill="black"/>
</g>
<defs>
<clipPath id="clip0_16_3159">
<rect width="32" height="32" fill="white"/>
</clipPath>
</defs>
</svg>
