<svg width="32" height="32" viewBox="0 0 32 32" fill="none" xmlns="http://www.w3.org/2000/svg">
<g clip-path="url(#clip0_16_3175)">
<path fill-rule="evenodd" clip-rule="evenodd" d="M11.133 14.296L11.884 16.256L8.01 16.231L8 17.95L12.544 17.979L16 27L19.44 18.022L23.99 18.051L24 16.332L20.096 16.308L20.866 14.296H23.995V12.577H21.525L23.421 7.627L21.856 7L18.296 16.296L13.694 16.267L10.144 7L8.579 7.627L10.475 12.577H8.005V14.297L11.133 14.296ZM14.353 17.99L17.638 18.01L16 22.289L14.353 17.99ZM16 32C7.163 32 0 24.837 0 16C0 7.163 7.163 0 16 0C24.837 0 32 7.163 32 16C32 24.837 24.837 32 16 32Z" fill="black"/>
</g>
<defs>
<clipPath id="clip0_16_3175">
<rect width="32" height="32" fill="white"/>
</clipPath>
</defs>
</svg>
