<svg width="32" height="32" viewBox="0 0 32 32" fill="none" xmlns="http://www.w3.org/2000/svg">
<g clip-path="url(#clip0_16_3181)">
<path fill-rule="evenodd" clip-rule="evenodd" d="M16 32C7.163 32 0 24.837 0 16C0 7.163 7.163 0 16 0C24.837 0 32 7.163 32 16C32 24.837 24.837 32 16 32ZM23.049 10.277C21.385 13.049 16.522 20.112 16.013 20.717C15.525 20.121 10.955 13.447 8.932 10.245C8.82125 10.0663 8.67583 9.91171 8.50431 9.79021C8.33279 9.66871 8.13867 9.58282 7.9334 9.5376C7.72812 9.49239 7.51587 9.48878 7.30918 9.52698C7.10249 9.56517 6.90555 9.64441 6.73 9.76C6.37357 9.99898 6.12448 10.3676 6.03577 10.7875C5.94705 11.2074 6.02571 11.6453 6.255 12.008C8.302 15.249 10.095 17.993 11.525 20.044C13.932 23.497 14.312 24.5 16 24.5C17.688 24.5 18.194 23.364 20.535 20.053C22.138 17.785 24.061 14.815 25.765 11.977C25.9864 11.6092 26.0553 11.1694 25.957 10.7515C25.8587 10.3336 25.6011 9.97064 25.239 9.74C24.489 9.27 23.509 9.51 23.049 10.277Z" fill="black"/>
</g>
<defs>
<clipPath id="clip0_16_3181">
<rect width="32" height="32" fill="white"/>
</clipPath>
</defs>
</svg>
