<svg width="32" height="32" viewBox="0 0 32 32" fill="none" xmlns="http://www.w3.org/2000/svg">
<g clip-path="url(#clip0_16_3185)">
<path d="M16 0C24.837 0 32 7.163 32 16C32 24.837 24.837 32 16 32C7.163 32 0 24.837 0 16C0 7.163 7.163 0 16 0ZM10.842 6.84C10.17 6.567 9.397 6.955 8.846 7.428C7.393 8.657 6.215 10.037 6.561 12.068C6.728 13.046 8.234 16.205 9.845 19.344L10.179 19.993C11.965 23.441 13.774 26.68 13.946 26.75C13.946 26.75 25.229 12.42 25.451 11.677C25.627 11.085 25.416 8.953 23.374 7.425C22.792 6.989 22.029 6.635 21.472 6.837C19.841 7.426 15.298 13.885 15.298 13.885L15.278 13.845L15.18 13.65C14.6116 12.5238 14.0154 11.4118 13.392 10.315L13.123 9.852C12.266 8.395 11.364 7.052 10.843 6.841L10.842 6.84Z" fill="black"/>
</g>
<defs>
<clipPath id="clip0_16_3185">
<rect width="32" height="32" fill="white"/>
</clipPath>
</defs>
</svg>
