<svg width="32" height="32" viewBox="0 0 32 32" fill="none" xmlns="http://www.w3.org/2000/svg">
<g clip-path="url(#clip0_16_3197)">
<path fill-rule="evenodd" clip-rule="evenodd" d="M16 32C7.163 32 0 24.837 0 16C0 7.163 7.163 0 16 0C24.837 0 32 7.163 32 16C32 24.837 24.837 32 16 32ZM28 18.962L20.516 12.5H18.141L22.766 16.498L21.305 17.755L18.266 14.047H16.256L12.604 18.492L12.206 18.978L13.994 14.055H12.37L11.186 17.38L10 14.056H8L6.812 17.388L5.62 14.042H4L5.773 18.953H7.885L9 15.823L10.124 18.978H12.204L10.96 20.5H12.957L17.262 15.259L18.495 16.767H16.876L16.043 17.796H19.335L20.29 18.956H22.288L23.959 17.526L25.636 18.962H28ZM25.655 15.99L27.904 14.088L25.653 14.086L24.54 15.034L25.655 15.99Z" fill="black"/>
</g>
<defs>
<clipPath id="clip0_16_3197">
<rect width="32" height="32" fill="white"/>
</clipPath>
</defs>
</svg>
