<svg width="32" height="32" viewBox="0 0 32 32" fill="none" xmlns="http://www.w3.org/2000/svg">
<g clip-path="url(#clip0_16_3199)">
<path d="M16 0C24.837 0 32 7.163 32 16C32 24.837 24.837 32 16 32C7.163 32 0 24.837 0 16C0 7.163 7.163 0 16 0ZM15.925 5C9.892 5 5 9.892 5 15.925C5 21.959 9.89 26.851 15.924 26.852C17.3592 26.8523 18.7803 26.5698 20.1063 26.0207C21.4322 25.4716 22.637 24.6667 23.6518 23.6518C24.6667 22.637 25.4716 21.4322 26.0207 20.1063C26.5698 18.7803 26.8523 17.3592 26.852 15.924C26.851 9.89 21.959 5 15.925 5ZM15.924 5.852C17.2472 5.85095 18.5575 6.11072 19.7802 6.61647C21.0029 7.12221 22.1139 7.864 23.0497 8.79943C23.9855 9.73486 24.7278 10.8456 25.234 12.0681C25.7402 13.2906 26.0005 14.6008 26 15.924C25.998 21.483 21.49 25.988 15.932 25.988C10.373 25.988 5.866 21.483 5.864 15.924C5.862 10.365 10.365 5.856 15.924 5.852ZM21.656 22.21C20.0903 23.6417 18.0456 24.4356 15.924 24.4356C13.8024 24.4356 11.7577 23.6417 10.192 22.21L9.592 22.81L9.814 23.008C11.552 24.5109 13.7824 25.3214 16.0798 25.2849C18.3771 25.2484 20.5807 24.3674 22.27 22.81L21.656 22.21ZM9.038 9.598C7.4458 11.325 6.56183 13.588 6.56183 15.937C6.56183 18.286 7.4458 20.549 9.038 22.276L9.638 21.656L9.448 21.442C8.1035 19.8668 7.3808 17.8547 7.41579 15.7841C7.45078 13.7134 8.24105 11.7269 9.638 10.198L9.038 9.598ZM22.818 9.572V9.586L22.218 10.186L22.408 10.4C23.7541 11.9756 24.4779 13.9889 24.4429 16.061C24.4079 18.133 23.6166 20.1208 22.218 21.65L22.818 22.25L23.016 22.028C24.5189 20.29 25.3294 18.0596 25.2929 15.7622C25.2564 13.4649 24.3754 11.2613 22.818 9.572ZM15.248 10.4H14.2V12.136H12.058V13.266H12.08C12.206 13.263 12.837 13.253 12.826 13.266C12.9666 13.2505 13.1078 13.2903 13.2197 13.3768C13.3316 13.4634 13.4056 13.59 13.426 13.73V18.482L13.414 18.555C13.3948 18.6269 13.3544 18.6914 13.298 18.74C13.2612 18.7729 13.2181 18.798 13.1714 18.8138C13.1247 18.8296 13.0752 18.8358 13.026 18.832C13.04 18.844 12.258 18.832 12.258 18.832L12.058 20.094H14.18V21.858H15.236V20.12H16.08V21.85H17.138V20.106L17.334 20.093C19.013 19.963 20.172 19.496 20.322 17.888C20.448 16.544 19.816 15.944 18.806 15.702C19.42 15.4 19.8 14.84 19.714 13.924C19.594 12.672 18.514 12.252 17.148 12.124V10.4H16.092V12.092H15.248V10.4ZM15.352 16.513C16.144 16.503 18.234 16.359 18.234 17.68C18.234 18.992 15.986 18.842 15.27 18.842V16.514L15.352 16.513ZM15.346 13.337C16.01 13.326 17.744 13.198 17.744 14.4C17.744 15.6 15.868 15.454 15.272 15.454V13.338L15.346 13.337ZM22.042 8.84C20.304 7.3371 18.0736 6.52661 15.7762 6.56312C13.4789 6.59964 11.2753 7.48062 9.586 9.038L10.2 9.638L10.414 9.448C11.9896 8.10185 14.0029 7.37814 16.075 7.41314C18.147 7.44813 20.1348 8.23942 21.664 9.638L22.264 9.038L22.042 8.84Z" fill="black"/>
</g>
<defs>
<clipPath id="clip0_16_3199">
<rect width="32" height="32" fill="white"/>
</clipPath>
</defs>
</svg>
