<svg width="32" height="32" viewBox="0 0 32 32" fill="none" xmlns="http://www.w3.org/2000/svg">
<g clip-path="url(#clip0_16_3201)">
<path fill-rule="evenodd" clip-rule="evenodd" d="M16 32C7.163 32 0 24.837 0 16C0 7.163 7.163 0 16 0C24.837 0 32 7.163 32 16C32 24.837 24.837 32 16 32ZM25.893 11.387C25.741 11.126 25.496 11 25.175 11C23.206 11.007 21.238 11.02 19.269 11.003C18.772 11 18.475 11.19 18.244 11.604C17.746 12.487 17.221 13.356 16.707 14.233C16.489 14.603 16.279 14.976 16.064 15.346C16.0455 15.3737 16.0222 15.3978 15.995 15.417C15.971 15.394 15.943 15.373 15.926 15.347C15.709 14.976 15.498 14.603 15.284 14.233C14.773 13.356 14.244 12.491 13.747 11.604C13.515 11.19 13.218 11 12.721 11.004C10.753 11.02 8.784 11.007 6.816 11C6.501 11 6.256 11.126 6.104 11.387C5.949 11.652 5.973 11.93 6.139 12.202C6.367 12.572 6.584 12.949 6.805 13.322C7.413 14.358 8.02 15.394 8.625 16.43C9.265 17.52 9.905 18.608 10.549 19.695C11.122 20.67 11.692 21.641 12.269 22.612C12.428 22.877 12.666 23.012 12.98 22.999C13.288 22.985 13.505 22.833 13.65 22.568C13.799 22.303 13.954 22.038 14.11 21.777L15.643 19.166C15.757 18.969 15.878 18.776 16.006 18.558C16.136 18.775 16.254 18.968 16.368 19.166L17.902 21.776C18.057 22.041 18.212 22.303 18.361 22.568C18.506 22.833 18.724 22.985 19.031 22.999C19.1743 23.0105 19.3178 22.9801 19.4441 22.9113C19.5704 22.8426 19.6739 22.7386 19.742 22.612C21.5683 19.5182 23.3896 16.4216 25.206 13.322C25.427 12.949 25.641 12.572 25.872 12.202C26.028 11.93 26.049 11.652 25.893 11.387ZM15.05 17.142C14.473 18.137 13.892 19.13 13.306 20.12C13.196 20.31 13.078 20.494 12.94 20.724L8.143 12.538C8.233 12.531 8.295 12.521 8.357 12.521C9.669 12.518 10.982 12.518 12.294 12.511C12.439 12.511 12.522 12.555 12.594 12.678C13.295 13.883 14 15.081 14.704 16.283C14.821 16.483 14.953 16.677 15.053 16.881C15.0713 16.9222 15.0805 16.9668 15.08 17.0118C15.0795 17.0569 15.0693 17.1013 15.05 17.142ZM19.06 20.724C18.922 20.497 18.804 20.31 18.694 20.12C18.1105 19.1286 17.5291 18.136 16.95 17.142C16.9313 17.101 16.9216 17.0565 16.9216 17.0115C16.9216 16.9665 16.9313 16.922 16.95 16.881C17.053 16.674 17.181 16.481 17.299 16.283C18.0032 15.0815 18.7065 13.8795 19.409 12.677C19.481 12.555 19.564 12.511 19.709 12.511C21.021 12.518 22.333 12.518 23.646 12.521C23.708 12.521 23.766 12.531 23.86 12.538C22.254 15.271 20.665 17.984 19.06 20.724Z" fill="black"/>
</g>
<defs>
<clipPath id="clip0_16_3201">
<rect width="32" height="32" fill="white"/>
</clipPath>
</defs>
</svg>
