<svg width="32" height="32" viewBox="0 0 32 32" fill="none" xmlns="http://www.w3.org/2000/svg">
<g clip-path="url(#clip0_16_3205)">
<path fill-rule="evenodd" clip-rule="evenodd" d="M16.895 17.299L8.27 23.993L22 18.118L22.796 17.78L22.795 17.777L24.08 17.227L24.145 13.963L26 14.476L24.586 11.33L20.768 14.293L18.049 9.619L6 9L15.183 11.461L15.416 12.256L7.388 11.843L14.612 13.778L15.859 18.103L16.895 17.299ZM16 32C7.163 32 0 24.837 0 16C0 7.163 7.163 0 16 0C24.837 0 32 7.163 32 16C32 24.837 24.837 32 16 32Z" fill="black"/>
<path d="M16.895 17.299L15.859 18.103L14.612 13.778L7.388 11.843L15.416 12.256L16.895 17.299Z" fill="black" fill-opacity="0.7"/>
<path d="M16.895 17.299L17.673 19.951L22 18.118L8.27002 23.993L16.895 17.299ZM20.768 14.293L24.586 11.33L26 14.476L24.145 13.963L24.08 17.227L22.795 17.777L20.768 14.293Z" fill="black" fill-opacity="0.3"/>
</g>
<defs>
<clipPath id="clip0_16_3205">
<rect width="32" height="32" fill="white"/>
</clipPath>
</defs>
</svg>
