<svg width="32" height="32" viewBox="0 0 32 32" fill="none" xmlns="http://www.w3.org/2000/svg">
<g clip-path="url(#clip0_16_3211)">
<path fill-rule="evenodd" clip-rule="evenodd" d="M3.99302 5.42502L8.84702 22.807L8.88202 22.957H13.068L14.938 16.025L16.808 22.957H20.993L21.029 22.807L22.989 15.729L26.424 28.139C23.5253 30.6354 19.8255 32.0058 16 32C7.16302 32 1.60362e-05 24.837 1.60362e-05 16C-0.00550523 12.1056 1.41488 8.34388 3.99302 5.42502ZM6.64302 3.02002C9.36549 1.05178 12.6406 -0.00526438 16 1.97149e-05C24.837 1.97149e-05 32 7.16302 32 16C32.0052 19.3624 30.9463 22.6402 28.975 25.364L24.901 10.65L24.866 10.5H21.116L18.78 18.938L16.807 10.5H13.068L11.095 18.938L6.64202 3.02002H6.64302Z" fill="black"/>
</g>
<defs>
<clipPath id="clip0_16_3211">
<rect width="32" height="32" fill="white"/>
</clipPath>
</defs>
</svg>
