<svg width="32" height="32" viewBox="0 0 32 32" fill="none" xmlns="http://www.w3.org/2000/svg">
<g clip-path="url(#clip0_16_3213)">
<path d="M16 32C7.163 32 0 24.837 0 16C0 7.163 7.163 0 16 0C24.837 0 32 7.163 32 16C32 24.837 24.837 32 16 32ZM18.414 13.166V10.676C18.4142 10.6207 18.4075 10.5656 18.394 10.512C18.3474 10.3363 18.2334 10.186 18.0767 10.0939C17.9199 10.0018 17.7332 9.97521 17.557 10.02L14.109 10.864C13.9609 10.8988 13.8287 10.9824 13.7339 11.1014C13.639 11.2204 13.5869 11.3678 13.586 11.52V19.075C13.586 19.131 13.593 19.185 13.606 19.239C13.6526 19.4147 13.7666 19.565 13.9233 19.6571C14.0801 19.7492 14.2668 19.7758 14.443 19.731L16.69 19.181V14.643C16.69 14.023 17.12 13.483 17.734 13.333L18.414 13.166ZM10.828 13.124V10.675C10.8278 10.62 10.8207 10.5653 10.807 10.512C10.7604 10.3365 10.6465 10.1864 10.49 10.0943C10.3335 10.0022 10.1471 9.9755 9.971 10.02L6.522 10.864C6.37404 10.899 6.24213 10.9827 6.14746 11.1017C6.05279 11.2206 6.00085 11.368 6 11.52V19.075C6 19.131 6.007 19.185 6.02 19.239C6.06656 19.4147 6.1806 19.565 6.33733 19.6571C6.49405 19.7492 6.68081 19.7758 6.857 19.731L8.931 19.223V14.643C8.931 14.023 9.361 13.483 9.976 13.333L10.828 13.124ZM21.695 10.885C21.547 10.9197 21.415 11.0032 21.3202 11.122C21.2253 11.2408 21.1731 11.388 21.172 11.54V19.096C21.1742 19.1996 21.1996 19.3014 21.2465 19.3938C21.2934 19.4862 21.3605 19.5668 21.4429 19.6298C21.5252 19.6927 21.6206 19.7363 21.7221 19.7573C21.8236 19.7782 21.9285 19.7761 22.029 19.751L25.478 18.907C25.6258 18.8721 25.7576 18.7885 25.8522 18.6697C25.9469 18.551 25.9989 18.4039 26 18.252V10.696C26.0002 10.6407 25.9935 10.5856 25.98 10.532C25.9332 10.3565 25.8191 10.2064 25.6624 10.1145C25.5057 10.0226 25.3191 9.99617 25.143 10.041L21.695 10.885ZM12.897 13.314L10.143 13.988C9.9952 14.0229 9.86342 14.1065 9.76877 14.2253C9.67411 14.344 9.62208 14.4911 9.621 14.643V22.199C9.621 22.254 9.628 22.309 9.641 22.363C9.68778 22.5386 9.8019 22.6886 9.95861 22.7805C10.1153 22.8724 10.3019 22.8988 10.478 22.854L13.926 22.01C14.0738 21.9751 14.2056 21.8915 14.3002 21.7727C14.3949 21.654 14.4469 21.5069 14.448 21.355V20.415C14.1164 20.4581 13.7804 20.3792 13.5027 20.193C13.2249 20.0068 13.0242 19.7261 12.938 19.403C12.9107 19.2958 12.8969 19.1856 12.897 19.075V13.314ZM20.483 13.356L17.902 13.988C17.754 14.0227 17.622 14.1062 17.5272 14.225C17.4323 14.3438 17.3801 14.491 17.379 14.643V22.199C17.379 22.254 17.386 22.309 17.399 22.363C17.4458 22.5386 17.5599 22.6886 17.7166 22.7805C17.8733 22.8724 18.0599 22.8988 18.236 22.854L21.685 22.01C21.8328 21.9751 21.9646 21.8915 22.0592 21.7727C22.1539 21.654 22.2059 21.5069 22.207 21.355V20.404L22.197 20.406C21.457 20.587 20.709 20.147 20.524 19.424C20.4967 19.3168 20.4829 19.2066 20.483 19.096V13.356Z" fill="black"/>
<path opacity="0.504" fill-rule="evenodd" clip-rule="evenodd" d="M12.897 13.314V19.075C12.897 19.185 12.91 19.295 12.937 19.403C13.0232 19.7263 13.224 20.0073 13.5019 20.1937C13.7799 20.38 14.1161 20.459 14.448 20.416V21.355C14.448 21.665 14.233 21.935 13.926 22.01L10.478 22.854C10.3019 22.8988 10.1153 22.8724 9.95858 22.7805C9.80188 22.6885 9.68775 22.5385 9.64098 22.363C9.62749 22.3093 9.62077 22.2543 9.62098 22.199V14.643C9.62098 14.333 9.83598 14.063 10.143 13.988L12.897 13.314ZM20.483 13.356V19.096C20.483 19.206 20.497 19.316 20.523 19.424C20.709 20.147 21.458 20.587 22.197 20.406L22.207 20.404V21.354C22.2058 21.5059 22.1537 21.6531 22.0591 21.772C21.9645 21.8909 21.8328 21.9747 21.685 22.01L18.236 22.854C18.0601 22.8985 17.8737 22.8719 17.7172 22.78C17.5607 22.6881 17.4468 22.5383 17.4 22.363C17.3865 22.3093 17.3798 22.2543 17.38 22.199V14.643C17.38 14.333 17.595 14.063 17.902 13.988L20.482 13.356H20.483Z" fill="black"/>
</g>
<defs>
<clipPath id="clip0_16_3213">
<rect width="32" height="32" fill="white"/>
</clipPath>
</defs>
</svg>
