<svg width="32" height="32" viewBox="0 0 32 32" fill="none" xmlns="http://www.w3.org/2000/svg">
<g clip-path="url(#clip0_16_3217)">
<path d="M16 32C7.163 32 0 24.837 0 16C0 7.163 7.163 0 16 0C24.837 0 32 7.163 32 16C32 24.837 24.837 32 16 32ZM14.116 6.01V9.929L15.996 11.892V6.009H14.116V6.01ZM6.01 7.992L13.648 15.715C13.527 15.844 13.403 15.971 13.278 16.096L6.01 23.446H9.68C9.835 23.443 9.992 23.456 10.147 23.436C10.419 23.433 10.69 23.441 10.961 23.433C11.275 23.113 11.583 22.787 11.895 22.463L14.572 19.668C15.045 19.168 15.527 18.675 15.997 18.175C16.217 18.393 16.429 18.623 16.645 18.847C17.618 19.861 18.587 20.879 19.56 21.891C20.055 22.404 20.544 22.921 21.04 23.433C21.312 23.443 21.586 23.431 21.86 23.439C21.956 23.452 22.055 23.446 22.154 23.446H25.984L25.294 22.75L18.522 15.904C18.47 15.838 18.408 15.777 18.35 15.715C18.587 15.469 18.83 15.224 19.073 14.981C21.377 12.653 23.678 10.321 25.983 7.991H21.045C20.332 8.735 19.62 9.48 18.905 10.221C17.938 11.233 16.97 12.249 15.999 13.258C14.322 11.498 12.638 9.747 10.961 7.992H6.01ZM16 19.53H16.002C15.998 21.497 15.998 23.463 15.998 25.43H17.888C17.888 24.122 17.892 22.817 17.888 21.51C17.261 20.849 16.626 20.193 16 19.53Z" fill="black"/>
</g>
<defs>
<clipPath id="clip0_16_3217">
<rect width="32" height="32" fill="white"/>
</clipPath>
</defs>
</svg>
