<svg width="32" height="32" viewBox="0 0 32 32" fill="none" xmlns="http://www.w3.org/2000/svg">
<g clip-path="url(#clip0_16_3219)">
<path fill-rule="evenodd" clip-rule="evenodd" d="M16 32C7.163 32 0 24.837 0 16C0 7.163 7.163 0 16 0C24.837 0 32 7.163 32 16C32 24.837 24.837 32 16 32ZM25.992 14.471L26 14.47L22.174 8.008L22.176 8.001H9.922L9.924 8.009L9.922 8.007L6 14.563L6.039 14.569L6.007 14.582L16.097 26L16.523 25.48L25.992 14.471ZM12.856 14.93L19.279 14.919L21.401 18.554L16.038 24.716L10.685 18.604L12.856 14.93ZM10.078 17.91L7.476 14.938L11.837 14.931L10.078 17.91ZM19.801 14.064L16.763 8.859L21.646 8.849L24.756 14.056L19.801 14.064ZM24.572 14.91L22.012 17.852L20.299 14.917L24.572 14.91ZM18.781 14.066L13.361 14.075L16.09 9.455L18.781 14.066ZM10.382 8.872L15.422 8.862L12.342 14.076L7.282 14.085L10.382 8.872Z" fill="black"/>
</g>
<defs>
<clipPath id="clip0_16_3219">
<rect width="32" height="32" fill="white"/>
</clipPath>
</defs>
</svg>
