<svg width="32" height="32" viewBox="0 0 32 32" fill="none" xmlns="http://www.w3.org/2000/svg">
<g clip-path="url(#clip0_16_3223)">
<path d="M16 32C7.163 32 0 24.837 0 16C0 7.163 7.163 0 16 0C24.837 0 32 7.163 32 16C32 24.837 24.837 32 16 32ZM16 28C22.627 28 28 22.627 28 16C28 9.373 22.627 4 16 4C9.373 4 4 9.373 4 16C4 22.627 9.373 28 16 28ZM20.613 11.651C20.791 11.887 20.881 12.178 20.869 12.473C20.8565 12.7867 20.7937 13.0963 20.683 13.39C20.584 13.665 20.443 13.922 20.265 14.153C19.9398 14.5688 19.537 14.9175 19.079 15.18C18.9019 15.2833 18.7141 15.3671 18.519 15.43C18.5224 15.4311 18.5258 15.4324 18.529 15.434L12.261 16.051L15.403 7.417C15.1923 7.43289 14.9822 7.45557 14.773 7.485C10.608 8.083 7.396 11.672 7.396 16C7.396 18.161 8.212 20.243 9.681 21.829L8.829 24.174C7.66331 23.155 6.72909 21.8984 6.08903 20.4885C5.44898 19.0787 5.11789 17.5483 5.118 16C5.118 10.123 9.801 5.323 15.63 5.127C15.752 5.123 15.875 5.117 15.999 5.117C16.079 5.117 16.158 5.124 16.237 5.124C17.05 5.141 17.859 5.248 18.648 5.445L17.863 7.602L16.686 10.837H18.136C18.822 10.837 19.363 10.913 19.756 11.064C20.15 11.216 20.437 11.411 20.613 11.651ZM17.939 13.756C18.0075 13.5916 18.0373 13.4137 18.026 13.236C18.0172 13.1114 17.9636 12.9941 17.875 12.906C17.7842 12.8235 17.6742 12.7651 17.555 12.736C17.4244 12.7019 17.2899 12.6851 17.155 12.686H16.025L15.267 14.769H16.397C16.71 14.767 17.017 14.689 17.294 14.541C17.589 14.39 17.802 14.128 17.939 13.756ZM19.2 5.598C23.644 6.968 26.882 11.113 26.882 16C26.882 22 22.001 26.882 16 26.882C13.5675 26.8843 11.2051 26.067 9.294 24.562L10.125 22.277L12.16 16.696L18.486 16.072C18.646 16.136 18.801 16.215 18.946 16.309C19.131 16.431 19.288 16.591 19.406 16.779C19.536 16.994 19.619 17.234 19.648 17.484C19.686 17.757 19.638 18.076 19.507 18.438C19.15 19.416 18.551 20.128 17.709 20.572C16.868 21.018 15.792 21.24 14.48 21.24H13.032L12.14 23.685C12.31 23.771 12.482 23.853 12.659 23.928C13.7382 24.3836 14.8991 24.6141 16.0705 24.6052C17.2419 24.5963 18.3991 24.3482 19.4713 23.8763C20.5434 23.4043 21.5079 22.7184 22.3055 21.8605C23.1032 21.0026 23.7173 19.9908 24.1101 18.8872C24.5029 17.7836 24.6662 16.6114 24.5899 15.4424C24.5137 14.2735 24.1995 13.1324 23.6666 12.0892C23.1338 11.046 22.3935 10.1225 21.4911 9.37553C20.5888 8.62853 19.5434 8.07368 18.419 7.745L19.2 5.598ZM14.56 17.073L13.715 19.389H15.038C15.205 19.389 15.371 19.376 15.536 19.353C15.722 19.328 15.904 19.276 16.076 19.199C16.261 19.113 16.429 18.994 16.571 18.847C16.7401 18.666 16.8683 18.4508 16.947 18.216C17.035 17.971 17.058 17.773 17.016 17.622C16.9804 17.4817 16.8942 17.3596 16.774 17.279C16.6451 17.197 16.5008 17.1422 16.35 17.118C16.195 17.0892 16.0377 17.0742 15.88 17.073H14.56Z" fill="black"/>
</g>
<defs>
<clipPath id="clip0_16_3223">
<rect width="32" height="32" fill="white"/>
</clipPath>
</defs>
</svg>
