<svg width="32" height="32" viewBox="0 0 32 32" fill="none" xmlns="http://www.w3.org/2000/svg">
<g clip-path="url(#clip0_16_3225)">
<path fill-rule="evenodd" clip-rule="evenodd" d="M16 32C7.163 32 0 24.837 0 16C0 7.163 7.163 0 16 0C24.837 0 32 7.163 32 16C32 24.837 24.837 32 16 32ZM6 9.016C6 9.026 7.467 11.526 9.26 14.573C11.572 18.502 12.525 20.112 12.536 20.11C12.551 20.107 19.066 9.03 19.066 9.01C19.066 9.004 17.7 9 15.994 9C13.36 9 12.921 9.002 12.921 9.014C12.921 9.022 13.554 10.094 14.327 11.395C15.1 12.696 15.735 13.769 15.737 13.775C15.739 13.781 15.621 13.988 15.477 14.235L15.213 14.685L15.185 14.639L13.497 11.799L11.837 9.005L8.918 9.002C6.21 9 6 9.001 6 9.016ZM20.14 9.007C20.032 9.184 13.083 21.024 13.078 21.035C13.072 21.059 15.982 26.004 16.001 26C16.013 25.997 18.941 21.037 18.95 21.002C18.953 20.992 18.386 20.028 17.62 18.737C17.172 17.986 16.7257 17.234 16.281 16.481C16.277 16.469 16.801 15.578 16.811 15.583C16.814 15.585 17.415 16.594 18.147 17.825C19.173 19.552 19.479 20.061 19.493 20.059C19.506 20.057 20.593 18.218 22.752 14.551C23.8369 12.7101 24.9183 10.8671 25.996 9.022L26 9H23.072C21.462 9 20.142 9.003 20.139 9.007H20.14Z" fill="black"/>
</g>
<defs>
<clipPath id="clip0_16_3225">
<rect width="32" height="32" fill="white"/>
</clipPath>
</defs>
</svg>
