<svg width="32" height="32" viewBox="0 0 32 32" fill="none" xmlns="http://www.w3.org/2000/svg">
<g clip-path="url(#clip0_16_3229)">
<path fill-rule="evenodd" clip-rule="evenodd" d="M16 32C7.163 32 0 24.837 0 16C0 7.163 7.163 0 16 0C24.837 0 32 7.163 32 16C32 24.837 24.837 32 16 32ZM13.309 12V20H16.047C17.369 20 19.73 19.197 19.73 16C19.73 12.803 17.37 12 16.047 12H13.309ZM14.819 18.38V13.62H15.953C16.897 13.62 18.03 14.198 18.03 16C18.03 17.802 16.897 18.38 15.953 18.38H14.819ZM20.77 12V20H21.336V13.128L26.433 20H27V12H26.433V19.026L21.335 12H20.77ZM5 12V14H6.888V12H5ZM7.833 12V14H9.72V12H7.833ZM10.665 12V14H12.554V12H10.665ZM10.665 15V17H12.554V15H10.665ZM10.665 18V20H12.554V18H10.665ZM7.833 15V17H9.72V15H7.833Z" fill="black"/>
</g>
<defs>
<clipPath id="clip0_16_3229">
<rect width="32" height="32" fill="white"/>
</clipPath>
</defs>
</svg>
