<svg width="32" height="32" viewBox="0 0 32 32" fill="none" xmlns="http://www.w3.org/2000/svg">
<g clip-path="url(#clip0_16_3233)">
<path d="M16 32C7.163 32 0 24.837 0 16C0 7.163 7.163 0 16 0C24.837 0 32 7.163 32 16C32 24.837 24.837 32 16 32ZM26.405 7.151L22.775 8.761C22.6691 8.81892 22.5808 8.90426 22.5192 9.00806C22.4576 9.11186 22.4251 9.23031 22.425 9.351V22.331C22.4246 22.453 22.458 22.5727 22.5216 22.6769C22.5851 22.781 22.6763 22.8655 22.785 22.921L26.415 24.491C26.4667 24.5193 26.5249 24.5335 26.5839 24.5323C26.6428 24.5311 26.7004 24.5145 26.7509 24.4842C26.8015 24.4539 26.8432 24.4109 26.872 24.3594C26.9008 24.308 26.9156 24.2499 26.915 24.191V7.451C26.9131 7.39197 26.8963 7.33438 26.8662 7.28359C26.836 7.2328 26.7935 7.19046 26.7426 7.16052C26.6917 7.13057 26.6341 7.114 26.575 7.11233C26.516 7.11067 26.4575 7.12397 26.405 7.151ZM9.02 8.741L5.5 7.141C5.44827 7.11275 5.39006 7.09851 5.33114 7.09971C5.27221 7.1009 5.21462 7.11748 5.16408 7.14781C5.11355 7.17813 5.07181 7.22114 5.04303 7.27257C5.01425 7.324 4.99941 7.38207 5 7.441V24.181C5.00004 24.2417 5.01627 24.3012 5.04702 24.3536C5.07777 24.4059 5.12192 24.449 5.17491 24.4786C5.2279 24.5081 5.28782 24.523 5.34848 24.5217C5.40915 24.5203 5.46835 24.5029 5.52 24.471L9.06 22.601C9.15777 22.5414 9.23857 22.4577 9.29461 22.3579C9.35066 22.2581 9.38006 22.1455 9.38 22.031V9.331C9.37618 9.20991 9.341 9.09189 9.2779 8.98847C9.21479 8.88505 9.12593 8.79978 9.02 8.741ZM20.06 13.171L16.27 11.001C16.1682 10.942 16.0527 10.9109 15.935 10.9109C15.8174 10.9109 15.7018 10.942 15.6 11.001L11.74 13.151C11.6367 13.2111 11.551 13.2972 11.4914 13.4007C11.4317 13.5042 11.4002 13.6215 11.4 13.741V18.141C11.4 18.384 11.53 18.609 11.74 18.731L15.6 20.951C15.807 21.071 16.063 21.071 16.27 20.951L20.06 18.751C20.1633 18.6909 20.249 18.6048 20.3086 18.5013C20.3683 18.3978 20.3998 18.2805 20.4 18.161V13.761C20.401 13.6413 20.37 13.5235 20.3103 13.4197C20.2505 13.316 20.1641 13.2301 20.06 13.171Z" fill="black"/>
</g>
<defs>
<clipPath id="clip0_16_3233">
<rect width="32" height="32" fill="white"/>
</clipPath>
</defs>
</svg>
