<svg width="32" height="32" viewBox="0 0 32 32" fill="none" xmlns="http://www.w3.org/2000/svg">
<g clip-path="url(#clip0_16_3235)">
<path d="M16 32C7.163 32 0 24.837 0 16C0 7.163 7.163 0 16 0C24.837 0 32 7.163 32 16C32 24.837 24.837 32 16 32ZM23.13 9.292L20.73 10.516L9.132 16.423C8.96676 15.1536 9.15743 13.8632 9.68276 12.6959C10.2081 11.5285 11.0474 10.53 12.1071 9.81187C13.1668 9.0937 14.4052 8.68405 15.6841 8.62863C16.963 8.57321 18.2322 8.87419 19.35 9.498L20.724 8.798L20.929 8.693C19.6255 7.74709 18.0786 7.19393 16.4708 7.09883C14.8631 7.00373 13.2617 7.37068 11.8558 8.15633C10.4499 8.94198 9.2982 10.1135 8.53664 11.5326C7.77508 12.9517 7.4355 14.5591 7.558 16.165C7.58092 16.4671 7.51397 16.7691 7.36556 17.0332C7.21715 17.2973 6.99393 17.5115 6.724 17.649L5.999 18.019V19.743L8.133 18.655L8.824 18.302L9.505 17.955L21.731 11.725L23.105 11.026L25.945 9.579V7.856L23.13 9.292ZM25.946 11.304L10.201 19.32L8.827 20.02L6 21.463V23.186L8.808 21.756L11.209 20.532L22.819 14.616C22.9868 15.8874 22.7974 17.1803 22.2721 18.3501C21.7467 19.52 20.9062 20.5205 19.8445 21.2398C18.7829 21.9591 17.542 22.3687 16.2607 22.4227C14.9795 22.4768 13.7085 22.1732 12.59 21.546L12.505 21.591L11.015 22.351C12.3187 23.2974 13.866 23.8509 15.4742 23.9461C17.0824 24.0413 18.6843 23.6741 20.0905 22.888C21.4967 22.102 22.6485 20.9298 23.4099 19.5101C24.1712 18.0903 24.5103 16.4823 24.387 14.876C24.3643 14.5742 24.4313 14.2725 24.5795 14.0087C24.7277 13.7448 24.9505 13.5306 25.22 13.393L25.946 13.023V11.305V11.304Z" fill="black"/>
</g>
<defs>
<clipPath id="clip0_16_3235">
<rect width="32" height="32" fill="white"/>
</clipPath>
</defs>
</svg>
