<svg width="32" height="32" viewBox="0 0 32 32" fill="none" xmlns="http://www.w3.org/2000/svg">
<g clip-path="url(#clip0_16_3239)">
<path fill-rule="evenodd" clip-rule="evenodd" d="M16 32C7.163 32 0 24.837 0 16C0 7.163 7.163 0 16 0C24.837 0 32 7.163 32 16C32 24.837 24.837 32 16 32ZM23 19.54L22.259 19.314C22.1168 19.6658 21.9504 20.0072 21.761 20.336C21.5843 20.6459 21.3783 20.9382 21.146 21.209C20.9248 21.4714 20.6591 21.6928 20.361 21.863C20.059 22.036 19.725 22.123 19.361 22.123H11.956L18.444 14.758V14.444L13.195 7.904H16.698C17.192 7.904 17.616 7.924 17.971 7.967C18.325 8.01 18.603 8.08 18.805 8.178C19.091 8.296 19.416 8.596 19.78 9.077C20.145 9.558 20.587 10.283 21.107 11.252H21.897L21.469 7H9.137V7.992L15.79 16.368L9 24.087V25H21.517L23 19.54Z" fill="black"/>
</g>
<defs>
<clipPath id="clip0_16_3239">
<rect width="32" height="32" fill="white"/>
</clipPath>
</defs>
</svg>
