<svg width="32" height="32" viewBox="0 0 32 32" fill="none" xmlns="http://www.w3.org/2000/svg">
<g clip-path="url(#clip0_16_3243)">
<path fill-rule="evenodd" clip-rule="evenodd" d="M16 32C7.163 32 0 24.837 0 16C0 7.163 7.163 0 16 0C24.837 0 32 7.163 32 16C32 24.837 24.837 32 16 32ZM15.97 5.235C14.5484 5.23421 13.1407 5.51366 11.8272 6.05736C10.5137 6.60106 9.32032 7.39835 8.31522 8.40364C7.31012 9.40892 6.51305 10.6025 5.96959 11.9161C5.42614 13.2296 5.14695 14.6374 5.148 16.059C5.148 17.261 5.353 18.405 5.705 19.491H8.932V10.397L15.972 17.437L23.012 10.397V19.491H26.238C26.6036 18.3835 26.7919 17.2253 26.796 16.059C26.796 10.075 21.956 5.235 15.972 5.235H15.97ZM14.358 19.02L11.278 15.94V21.66H6.731C8.637 24.77 12.069 26.852 15.971 26.852C19.872 26.852 23.333 24.77 25.211 21.66H20.664V15.94L17.614 19.02L16 20.635L14.357 19.021L14.358 19.02Z" fill="black"/>
</g>
<defs>
<clipPath id="clip0_16_3243">
<rect width="32" height="32" fill="white"/>
</clipPath>
</defs>
</svg>
