<svg width="32" height="32" viewBox="0 0 32 32" fill="none" xmlns="http://www.w3.org/2000/svg">
<g clip-path="url(#clip0_16_3245)">
<path d="M16 32C7.163 32 0 24.837 0 16C0 7.163 7.163 0 16 0C24.837 0 32 7.163 32 16C32 24.837 24.837 32 16 32ZM21.05 21H25.617C26.381 21 27 20.358 27 19.567C27 18.776 26.381 18.134 25.61 18.134L22.973 18.152C23.653 15.97 23.995 14.535 23.995 13.848C23.995 12.03 22.732 11 21.23 11C19.607 11 18.464 11.848 17.803 12.576C17.323 11.485 16.24 11 15.4 11C14.56 11 13.597 11.242 12.875 12.152C12.715 11.465 12.275 11.122 11.553 11.122H6.413C6.04431 11.1392 5.6967 11.2989 5.44334 11.5673C5.18998 11.8357 5.05064 12.1919 5.05466 12.561C5.05867 12.93 5.20573 13.2831 5.46488 13.546C5.72402 13.8088 6.07502 13.9608 6.444 13.97H9.509L8.127 19.727C8.167 20.576 8.567 21 9.329 21C10.17 21 10.711 20.515 10.952 19.545C11.392 17.768 11.733 16.435 11.974 15.545C12.334 14.212 13.116 13.606 13.957 13.606C14.799 13.606 15.159 14.212 15.159 14.697C15.159 15.02 15.047 15.537 14.822 16.247C14.245 18.374 13.957 19.535 13.957 19.727C13.957 20.212 14.137 21 15.22 21C15.94 21 16.442 20.636 16.722 19.91C17.444 17.121 17.904 15.404 18.105 14.758C18.405 13.788 19.395 13.606 19.848 13.606C20.629 13.606 21.05 14.152 21.05 14.697C21.05 14.98 20.979 15.3 20.836 15.657C20.137 17.963 19.788 19.34 19.788 19.787C19.788 20.697 20.449 21 21.05 21Z" fill="black"/>
</g>
<defs>
<clipPath id="clip0_16_3245">
<rect width="32" height="32" fill="white"/>
</clipPath>
</defs>
</svg>
