<svg width="32" height="32" viewBox="0 0 32 32" fill="none" xmlns="http://www.w3.org/2000/svg">
<g clip-path="url(#clip0_16_3253)">
<path d="M16 0C24.837 0 32 7.163 32 16C32 24.837 24.837 32 16 32C7.163 32 0 24.837 0 16C0 7.163 7.163 0 16 0ZM15.992 5C14.018 5 12.432 8.076 11.896 12.56C11.872 12.763 11.849 12.974 11.829 13.187L11.804 13.507C11.402 13.797 11.02 14.091 10.658 14.385L10.302 14.681C10.142 14.817 9.986 14.953 9.834 15.091L9.611 15.301C7.954 13.552 7.213 11.973 7.582 11.111L7.63 11.014C8.028 10.303 9.322 10.078 11.15 10.411L11.402 10.46C11.454 10.227 11.505 10 11.562 9.78L11.649 9.454C9.361 8.977 7.596 9.264 6.857 10.372L6.777 10.504C6.62382 10.774 6.5323 11.0745 6.509 11.384L6.502 11.575V11.612C6.515 13.28 8.047 15.492 10.622 17.604L10.902 17.83C11.089 17.98 11.287 18.131 11.49 18.282L11.797 18.508C11.839 19.038 11.897 19.552 11.968 20.043L12.044 20.527L12.119 20.947L12.199 21.357C9.911 21.969 8.224 21.842 7.68 21.084L7.623 20.994C7.225 20.282 7.685 19.004 8.873 17.535L9.04 17.334L8.356 16.59C6.794 18.416 6.136 20.153 6.699 21.373L6.769 21.511C7.221 22.321 8.166 22.73 9.439 22.775L9.682 22.779C10.992 22.779 12.614 22.417 14.395 21.711L14.779 21.555L14.854 21.522L14.934 21.489C15.16 21.392 15.386 21.291 15.614 21.186L15.957 21.023L15.978 21.012L15.999 21.001C16.459 21.219 16.915 21.421 17.367 21.604L17.818 21.781L18.208 21.925L18.594 22.058C17.962 24.416 17.011 25.869 16.104 25.973L15.999 25.979C15.203 25.979 14.362 24.926 13.729 23.112L13.644 22.86C13.428 22.937 13.214 23.009 13.003 23.073L12.685 23.166C13.461 25.542 14.638 27 16 27C17.934 27 19.485 24.069 20.063 19.758L20.103 19.441L20.153 18.973L20.195 18.5C20.613 18.2 21.011 17.89 21.389 17.577L21.761 17.261L21.803 17.227L21.845 17.188L22.115 16.947L22.381 16.7C24.045 18.44 24.786 20.026 24.417 20.89L24.369 20.986C24 21.646 22.825 21.889 21.203 21.652L20.957 21.613L20.781 21.58L20.604 21.547C20.553 21.776 20.501 21.997 20.445 22.215L20.358 22.539L20.578 22.582L20.795 22.619C21.24 22.695 21.659 22.743 22.05 22.759L22.339 22.765C23.673 22.765 24.644 22.384 25.142 21.646L25.23 21.504C25.824 20.442 25.435 18.918 24.129 17.202L23.953 16.977C23.289 16.141 22.447 15.299 21.475 14.487L21.105 14.185L20.663 13.84L20.21 13.5C20.169 12.9852 20.1106 12.4719 20.035 11.961L19.955 11.473L19.881 11.053L19.801 10.643C20.068 10.569 20.331 10.506 20.586 10.453L20.964 10.38C22.629 10.095 23.866 10.293 24.315 10.91L24.377 11.007C24.767 11.704 24.327 12.955 23.177 14.395L23.016 14.593C23.18 14.758 23.336 14.923 23.483 15.087L23.7 15.329L23.832 15.173L23.953 15.016C25.332 13.283 25.81 11.732 25.302 10.63L25.23 10.49C24.634 9.425 23.161 9.013 21.067 9.324L20.802 9.366C19.895 9.52 18.912 9.801 17.892 10.182L17.452 10.351L17.382 10.38L17.312 10.409C17.048 10.516 16.785 10.629 16.522 10.749L16.127 10.934L16.074 10.959L16.021 10.985C15.5679 10.7657 15.1083 10.56 14.643 10.368L14.195 10.19L13.805 10.046L13.42 9.913C14.051 7.562 15.003 6.109 15.91 6.005L16.014 5.999C16.81 5.999 17.658 7.059 18.291 8.874L18.376 9.126L18.858 8.967L19.335 8.82C18.568 6.552 17.448 5.11 16.145 5.006L15.991 5H15.992ZM19.116 19.251C19.087 19.47 19.059 19.689 19.029 19.901L18.982 20.213L18.903 20.653L18.819 21.081C18.566 20.986 18.305 20.891 18.037 20.789L17.592 20.612L17.142 20.425L17.205 20.392L17.268 20.359L17.703 20.114L18.143 19.864L18.269 19.787L18.389 19.71L18.755 19.48L19.115 19.251H19.116ZM12.869 19.244L13.325 19.534L13.792 19.82L13.817 19.837L13.842 19.849L14.34 20.139L14.843 20.417L14.839 20.418L14.836 20.425C14.601 20.527 14.369 20.622 14.14 20.714L13.8 20.848L13.651 20.906L13.408 20.992L13.165 21.074C13.0615 20.5807 12.9768 20.0837 12.911 19.584L12.869 19.244ZM15.992 12.129C16.399 12.332 16.81 12.554 17.229 12.795L17.649 13.04L18.003 13.255L18.347 13.471C18.554 13.601 18.754 13.733 18.951 13.866L19.243 14.068C19.274 14.533 19.294 15.014 19.302 15.508L19.306 16.008L19.301 16.527L19.285 17.035L19.263 17.493L19.235 17.946C18.902 18.18 18.555 18.41 18.197 18.636L17.649 18.974L17.43 19.104L17.212 19.229C16.962 19.375 16.714 19.511 16.467 19.642L16.097 19.834L16.045 19.86L15.992 19.885C15.4291 19.6013 14.8764 19.2978 14.335 18.975L13.981 18.762L13.637 18.544C13.4336 18.4152 13.2323 18.2831 13.033 18.148L12.742 17.946C12.7095 17.4666 12.6895 16.9864 12.682 16.506L12.678 16.007L12.684 15.487L12.699 14.979L12.721 14.519L12.749 14.069C13.082 13.835 13.429 13.605 13.788 13.379L14.335 13.04L14.656 12.85L14.976 12.669L15.484 12.393L15.992 12.129ZM15.992 14.695L15.862 14.702C15.225 14.769 14.723 15.331 14.723 16.007L14.73 16.141C14.795 16.801 15.338 17.319 15.992 17.319L16.122 17.313C16.759 17.245 17.262 16.683 17.262 16.007L17.255 15.874C17.189 15.214 16.647 14.695 15.992 14.695ZM20.272 14.834C20.474 14.989 20.67 15.148 20.86 15.306L21.14 15.541L21.402 15.774L21.654 16.007L21.374 16.262L21.083 16.518L21.04 16.554L20.998 16.59C20.843 16.722 20.682 16.856 20.516 16.99L20.265 17.188C20.279 16.897 20.293 16.598 20.293 16.298V16.008C20.293 15.74 20.29 15.479 20.283 15.221L20.272 14.834ZM11.719 14.834L11.703 15.276L11.698 15.723V16.007C11.698 16.275 11.701 16.535 11.708 16.794L11.719 17.181C11.4214 16.9561 11.1322 16.7203 10.852 16.474L10.586 16.241L10.33 16.007C10.485 15.867 10.644 15.722 10.807 15.579L11.057 15.366C11.197 15.249 11.342 15.129 11.491 15.011L11.719 14.834ZM18.827 10.941L18.907 11.347L18.982 11.765C19.019 11.983 19.051 12.205 19.08 12.431L19.123 12.771C18.8177 12.5725 18.5096 12.3781 18.199 12.188L18.174 12.17L18.15 12.158L17.65 11.868L17.156 11.59L17.198 11.569L17.24 11.553C17.508 11.437 17.776 11.327 18.04 11.225L18.432 11.08L18.632 11.008L18.827 10.941ZM13.165 10.941C13.339 10.999 13.513 11.058 13.689 11.122L13.954 11.225C14.147 11.298 14.343 11.378 14.542 11.461L14.842 11.59L14.342 11.869L13.842 12.159L13.82 12.17L13.8 12.188L13.329 12.476L12.869 12.771C12.927 12.2513 13.006 11.7342 13.106 11.221L13.165 10.941Z" fill="black"/>
</g>
<defs>
<clipPath id="clip0_16_3253">
<rect width="32" height="32" fill="white"/>
</clipPath>
</defs>
</svg>
