<svg width="32" height="32" viewBox="0 0 32 32" fill="none" xmlns="http://www.w3.org/2000/svg">
<g clip-path="url(#clip0_16_3257)">
<path d="M16 32C7.163 32 0 24.837 0 16C0 7.163 7.163 0 16 0C24.837 0 32 7.163 32 16C32 24.837 24.837 32 16 32ZM16.14 5.855L24.309 10.56L26.766 9.132L16.14 3V5.855ZM24.472 20.272L26.953 21.7V9.436L24.473 10.864V20.272H24.472ZM16.14 25.281V28.136L26.766 22.004L24.309 20.577L16.14 25.281ZM5.164 22.004L15.789 28.136V25.281L7.645 20.577L5.164 22.004ZM5 9.436V21.7L7.457 20.272V10.864L5 9.436ZM5.164 9.132L7.644 10.56L15.789 5.855V3L5.164 9.132ZM15.988 6.124L7.797 10.83V20.285L15.988 25.013L24.156 20.285V10.83L15.988 6.125V6.124ZM22.565 14.574L22.214 15.182L19.874 13.872L16.878 15.556L19.873 17.241L22.213 15.931L22.565 16.539L20.599 17.639L22.565 18.739L22.214 19.348L20.248 18.248V20.448H19.522V17.85L16.527 16.165V19.535L18.844 20.822L18.493 21.419L16.527 20.319V22.519H15.8V20.319L13.834 21.419L13.46 20.811L15.8 19.523V16.165L12.804 17.85V20.448H12.055V18.248L10.113 19.348L9.738 18.739L11.704 17.639L9.738 16.539L10.113 15.931L12.43 17.241L15.449 15.556L12.429 13.871L10.113 15.181L9.738 14.573L11.704 13.473L9.738 12.373L10.113 11.765L12.055 12.865V10.653H12.805V13.251L15.8 14.936V11.578L13.483 10.29L13.834 9.682L15.8 10.782V8.582H16.526V10.782L18.492 9.682L18.842 10.29L16.526 11.578V14.948L19.521 13.263V10.653H20.247V12.853L22.213 11.753L22.563 12.362L20.598 13.462L22.564 14.573L22.565 14.574Z" fill="black"/>
</g>
<defs>
<clipPath id="clip0_16_3257">
<rect width="32" height="32" fill="white"/>
</clipPath>
</defs>
</svg>
