<svg width="32" height="32" viewBox="0 0 32 32" fill="none" xmlns="http://www.w3.org/2000/svg">
<g clip-path="url(#clip0_16_3261)">
<path d="M16 32C7.163 32 0 24.837 0 16C0 7.163 7.163 0 16 0C24.837 0 32 7.163 32 16C32 24.837 24.837 32 16 32ZM27 16C27 9.925 22.075 5 16 5C9.925 5 5 9.924 5 16C5 22.075 9.925 27 16 27C22.075 27 27 22.075 27 16ZM23.23 16.346L10.912 16.363C11.005 17.6463 11.5801 18.8469 12.5219 19.7236C13.4637 20.6003 14.7023 21.0881 15.989 21.089C16.909 21.0889 17.8116 20.839 18.6007 20.3659C19.3897 19.8929 20.0355 19.2144 20.469 18.403H22.791C22.3702 19.5893 21.6469 20.6451 20.6928 21.4661C19.7387 22.2871 18.5868 22.8448 17.351 23.084V24.53L15.111 25.228V23.16C11.537 22.725 8.766 19.686 8.766 15.995C8.766 12.39 11.413 9.408 14.869 8.87V7.467L17.108 6.77V8.87C20.565 9.408 23.23 12.612 23.23 16.22C23.23 16.346 23.237 16.22 23.23 16.346ZM11.25 14.13H20.727C20.3525 13.1785 19.7003 12.3616 18.8553 11.7858C18.0103 11.2099 17.0116 10.9016 15.989 10.901C14.9662 10.9014 13.9673 11.2097 13.1222 11.7858C12.2772 12.3619 11.6251 13.1791 11.251 14.131L11.25 14.13Z" fill="black"/>
</g>
<defs>
<clipPath id="clip0_16_3261">
<rect width="32" height="32" fill="white"/>
</clipPath>
</defs>
</svg>
