<svg width="32" height="32" viewBox="0 0 32 32" fill="none" xmlns="http://www.w3.org/2000/svg">
<g clip-path="url(#clip0_16_3267)">
<path fill-rule="evenodd" clip-rule="evenodd" d="M16 32C7.163 32 0 24.837 0 16C0 7.163 7.163 0 16 0C24.837 0 32 7.163 32 16C32 24.837 24.837 32 16 32ZM18.725 19.148H22.115V22.112H11.93L24.573 9.46C24.7735 9.2571 24.9105 9.00018 24.9674 8.72065C25.0242 8.44112 24.9984 8.15108 24.893 7.886C24.7812 7.62253 24.5941 7.39792 24.3552 7.24031C24.1163 7.0827 23.8362 6.99911 23.55 7H8.45C8.25904 6.99867 8.06973 7.03533 7.89307 7.10785C7.71642 7.18037 7.55595 7.28731 7.42101 7.42243C7.28608 7.55756 7.17936 7.71817 7.10708 7.89492C7.03481 8.07168 6.9984 8.26104 7 8.452V19.148L13.275 12.868H9.885V9.888H20.053L7.427 22.54C7.22651 22.7429 7.08947 22.9998 7.03264 23.2794C6.97581 23.5589 7.00165 23.8489 7.107 24.114C7.336 24.649 7.855 25 8.45 25H23.55C23.7406 25 23.9293 24.9624 24.1054 24.8894C24.2814 24.8164 24.4413 24.7095 24.576 24.5746C24.7107 24.4397 24.8174 24.2797 24.8902 24.1035C24.963 23.9274 25.0003 23.7386 25 23.548V12.868L18.725 19.148Z" fill="black"/>
</g>
<defs>
<clipPath id="clip0_16_3267">
<rect width="32" height="32" fill="white"/>
</clipPath>
</defs>
</svg>
