<svg width="32" height="32" viewBox="0 0 32 32" fill="none" xmlns="http://www.w3.org/2000/svg">
<g clip-path="url(#clip0_16_3271)">
<path d="M21.49 16.575C21.599 16.6592 21.7293 16.7114 21.8663 16.7258C22.0033 16.7403 22.1417 16.7163 22.2658 16.6567C22.39 16.597 22.4952 16.504 22.5695 16.3881C22.6439 16.2721 22.6846 16.1377 22.687 16C22.6873 15.8365 22.6319 15.6778 22.53 15.55C22.899 15.884 23.39 16.088 23.93 16.088C25.074 16.088 26.001 15.173 26.001 14.044C26.001 12.915 25.073 12 23.929 12C22.785 12 21.858 12.915 21.858 14.044C21.858 14.576 22.064 15.061 22.403 15.425C22.294 15.3411 22.1638 15.2891 22.0269 15.2748C21.8901 15.2606 21.7519 15.2846 21.6279 15.3442C21.5039 15.4038 21.3989 15.4967 21.3246 15.6125C21.2503 15.7283 21.2096 15.8624 21.207 16C21.207 16.17 21.266 16.326 21.364 16.45C20.9805 16.1027 20.4814 15.9109 19.964 15.912C19.424 15.912 18.934 16.116 18.564 16.45C18.6663 16.3223 18.722 16.1636 18.722 16C18.8225 15.9226 18.9016 15.8208 18.9516 15.7043C19.0017 15.5877 19.021 15.4603 19.0079 15.3341C18.9947 15.208 18.9495 15.0873 18.8765 14.9835C18.8035 14.8798 18.7051 14.7965 18.5908 14.7415C18.4765 14.6866 18.35 14.6618 18.2234 14.6696C18.0968 14.6773 17.9743 14.7174 17.8675 14.7859C17.7608 14.8544 17.6734 14.9491 17.6136 15.061C17.5538 15.1729 17.5236 15.2982 17.526 15.425C17.8764 15.0505 18.0712 14.5568 18.071 14.044C18.071 12.915 17.144 12 16 12C14.856 12 13.929 12.915 13.929 14.044C13.929 14.576 14.135 15.061 14.474 15.425C14.365 15.3411 14.2348 15.2891 14.0979 15.2748C13.9611 15.2606 13.8229 15.2846 13.6989 15.3442C13.5749 15.4038 13.4699 15.4967 13.3956 15.6125C13.3213 15.7283 13.2806 15.8624 13.278 16C13.278 16.17 13.337 16.326 13.435 16.45C13.0515 16.1027 12.5524 15.9109 12.035 15.912C11.495 15.912 11.005 16.116 10.635 16.45C10.7373 16.3223 10.793 16.1636 10.793 16C10.8935 15.9226 10.9726 15.8208 11.0226 15.7043C11.0727 15.5877 11.092 15.4603 11.0789 15.3341C11.0657 15.208 11.0205 15.0873 10.9475 14.9835C10.8745 14.8798 10.7761 14.7965 10.6618 14.7415C10.5475 14.6866 10.421 14.6618 10.2944 14.6696C10.1678 14.6773 10.0453 14.7174 9.93853 14.7859C9.83178 14.8544 9.74435 14.9491 9.68457 15.061C9.62479 15.1729 9.59464 15.2982 9.597 15.425C9.94738 15.0505 10.1422 14.5568 10.142 14.044C10.142 12.915 9.215 12 8.071 12C6.927 12 6 12.915 6 14.044C6 15.173 6.927 16.088 8.071 16.088C8.611 16.088 9.102 15.884 9.471 15.55C9.3691 15.6778 9.31373 15.8365 9.314 16C9.314 16.403 9.644 16.73 10.054 16.73C10.225 16.73 10.384 16.672 10.509 16.575C10.1588 16.9496 9.96398 17.4432 9.964 17.956C9.964 19.085 10.892 20 12.036 20C13.179 20 14.106 19.085 14.106 17.956C14.106 17.424 13.9 16.939 13.562 16.575C13.671 16.6586 13.8012 16.7104 13.9378 16.7245C14.0745 16.7386 14.2125 16.7145 14.3363 16.6549C14.4601 16.5954 14.565 16.5026 14.6393 16.387C14.7136 16.2713 14.7543 16.1374 14.757 16C14.7573 15.8365 14.7019 15.6778 14.6 15.55C14.969 15.884 15.46 16.088 16 16.088C16.54 16.088 17.031 15.884 17.4 15.55C17.2981 15.6778 17.2427 15.8365 17.243 16C17.243 16.403 17.573 16.73 17.983 16.73C18.154 16.73 18.313 16.672 18.438 16.575C18.0878 16.9496 17.893 17.4432 17.893 17.956C17.893 19.085 18.821 20 19.964 20C21.108 20 22.036 19.085 22.036 17.956C22.036 17.424 21.829 16.939 21.491 16.575H21.49ZM16 32C7.163 32 0 24.837 0 16C0 7.163 7.163 0 16 0C24.837 0 32 7.163 32 16C32 24.837 24.837 32 16 32Z" fill="black"/>
</g>
<defs>
<clipPath id="clip0_16_3271">
<rect width="32" height="32" fill="white"/>
</clipPath>
</defs>
</svg>
