<svg width="23" height="23" viewBox="0 0 23 23" fill="none" xmlns="http://www.w3.org/2000/svg">
<path d="M13.0049 19.9948L12.0076 20.9921C11.5853 21.4144 10.9025 21.4144 10.4848 20.9921L1.75194 12.2638C1.32968 11.8415 1.32968 11.1587 1.75194 10.7409L10.4848 2.00811C10.907 1.58584 11.5898 1.58584 12.0076 2.00811L13.0049 3.00537C13.4316 3.43213 13.4226 4.12842 12.9869 4.54619L7.57382 9.70322H20.4844C21.0818 9.70322 21.5625 10.1839 21.5625 10.7813V12.2188C21.5625 12.8163 21.0818 13.297 20.4844 13.297H7.57382L12.9869 18.454C13.4271 18.8718 13.4361 19.5681 13.0049 19.9948Z" fill="#727296"/>
</svg>
