<svg width="32" height="32" viewBox="0 0 32 32" fill="none" xmlns="http://www.w3.org/2000/svg">
<g clip-path="url(#clip0_16_204)">
<path d="M16 32C24.8366 32 32 24.8366 32 16C32 7.16344 24.8366 0 16 0C7.16344 0 0 7.16344 0 16C0 24.8366 7.16344 32 16 32Z" fill="#F49E00"/>
<path d="M19.755 17.334C22.001 13.815 23.75 8 23.75 8L20.005 8.849L18.634 13.699C18.505 10.063 16.012 8.732 16.012 8.732C14.015 7.759 12.235 8.187 10.952 8.856C9.36401 9.682 8.20901 11.122 7.65601 12.78C6.87001 15.139 6.96601 17.786 7.07001 18.984C7.11201 19.546 7.23601 20.099 7.44001 20.627C8.81801 24.2 12.635 23.997 12.635 23.997C16.132 23.873 18.257 19.755 18.257 19.755L19.259 22.783C20.157 24.302 22.146 23.733 22.555 23.648C22.627 23.632 22.691 23.624 22.764 23.608L25 23.267V22.294C20.132 22.426 19.755 17.335 19.755 17.335V17.334ZM15.016 20.994C14.7149 21.3026 14.3352 21.5232 13.918 21.632C13.011 21.858 12.314 21.477 11.833 21.01C11.2956 20.4673 10.9277 19.7801 10.774 19.032C9.89201 14.042 11.111 11.855 11.921 10.85C12.1416 10.5683 12.4261 10.343 12.7508 10.1928C13.0756 10.0426 13.4315 9.9717 13.789 9.986C16.933 10.15 17.639 16.728 17.639 16.728C16.749 19.063 15.602 20.418 15.016 20.994Z" fill="white"/>
</g>
<defs>
<clipPath id="clip0_16_204">
<rect width="32" height="32" fill="white"/>
</clipPath>
</defs>
</svg>
