<svg width="32" height="32" viewBox="0 0 32 32" fill="none" xmlns="http://www.w3.org/2000/svg">
<g clip-path="url(#clip0_16_208)">
<path d="M16 32C24.8366 32 32 24.8366 32 16C32 7.16344 24.8366 0 16 0C7.16344 0 0 7.16344 0 16C0 24.8366 7.16344 32 16 32Z" fill="#00BFEC"/>
<path d="M15.971 23.15C12.014 23.15 8.795 19.951 8.795 16.02C8.795 12.088 12.015 8.88999 15.971 8.88999C19.928 8.88999 23.147 12.088 23.147 16.02C23.147 19.951 19.928 23.15 15.971 23.15ZM15.971 10.286C12.79 10.286 10.201 12.858 10.201 16.02C10.201 19.181 12.79 21.753 15.971 21.753C19.153 21.753 21.741 19.181 21.741 16.02C21.741 12.858 19.153 10.286 15.971 10.286ZM20.996 7.87099C19.4821 6.94919 17.7434 6.46269 15.971 6.46499C14.3395 6.46431 12.7344 6.87643 11.305 7.66299L10.621 6.44299C12.2596 5.54011 14.1001 5.06674 15.971 5.06699C18.011 5.06699 20.003 5.62499 21.732 6.68099L20.996 7.87099ZM23.091 24.381L22.182 23.314C23.2479 22.4207 24.1052 21.3048 24.6934 20.0446C25.2817 18.7845 25.5867 17.4107 25.587 16.02H26.993C26.993 19.246 25.571 22.293 23.091 24.38V24.381ZM15.971 26.971C13.414 26.971 10.922 26.081 8.955 24.466L9.851 23.39C11.5777 24.8027 13.74 25.5747 15.971 25.575C17.531 25.575 19.019 25.215 20.393 24.507L21.04 25.747C19.4715 26.5518 17.7339 26.9717 15.971 26.972V26.971Z" fill="white"/>
<path opacity="0.5" d="M25.35 13.425C24.9824 12.1064 24.3358 10.8821 23.454 9.83499L24.354 9.08899C25.3425 10.2629 26.0672 11.6356 26.479 13.114L25.351 13.425H25.35ZM6.86 21.976C5.68804 20.2109 5.06421 18.1387 5.067 16.02C5.067 13.058 6.247 10.292 8.39 8.23099L9.204 9.06799C8.26324 9.96448 7.51506 11.0433 7.00511 12.2386C6.49516 13.4338 6.23414 14.7205 6.238 16.02C6.238 17.919 6.792 19.757 7.838 21.336L6.86 21.976Z" fill="white"/>
</g>
<defs>
<clipPath id="clip0_16_208">
<rect width="32" height="32" fill="white"/>
</clipPath>
</defs>
</svg>
