<svg width="32" height="32" viewBox="0 0 32 32" fill="none" xmlns="http://www.w3.org/2000/svg">
<g clip-path="url(#clip0_16_226)">
<path d="M16 32C24.8366 32 32 24.8366 32 16C32 7.16344 24.8366 0 16 0C7.16344 0 0 7.16344 0 16C0 24.8366 7.16344 32 16 32Z" fill="black"/>
<path d="M7.511 23.25C7.49698 23.0139 7.49631 22.7772 7.509 22.541C7.589 22.517 7.671 22.501 7.755 22.491C7.997 22.45 8.236 22.394 8.472 22.324C8.536 22.304 8.6 22.282 8.662 22.258C8.972 22.139 9.246 21.943 9.454 21.689C9.598 21.512 9.724 21.321 9.832 21.119C9.984 20.843 10.119 20.558 10.238 20.266C10.479 19.678 10.719 19.088 10.958 18.497L13.417 12.404C14.194 10.473 14.957 8.537 15.704 6.595C15.719 6.555 15.736 6.517 15.753 6.477C16.029 6.401 16.301 6.323 16.583 6.25C16.599 6.29 16.615 6.324 16.628 6.36L17.578 8.961C18.6538 11.9179 19.7449 14.8693 20.851 17.815C21.155 18.62 21.461 19.425 21.77 20.227C21.892 20.555 22.035 20.875 22.199 21.185C22.2711 21.3175 22.3492 21.4466 22.433 21.572C22.69 21.964 23.089 22.247 23.55 22.363C23.798 22.428 24.05 22.477 24.304 22.51L24.485 22.536C24.511 22.615 24.495 22.691 24.497 22.766C24.5 22.842 24.497 22.926 24.497 23.007C24.5 23.085 24.498 23.162 24.493 23.24C24.467 23.244 24.447 23.248 24.427 23.25H18.064C18.0573 23.2364 18.0526 23.2219 18.05 23.207V22.568C18.0516 22.5584 18.0543 22.549 18.058 22.54C18.1107 22.5254 18.1646 22.5154 18.219 22.51C18.481 22.477 18.739 22.427 18.995 22.362C19.097 22.334 19.198 22.298 19.298 22.262C19.348 22.242 19.396 22.219 19.442 22.192C19.693 22.054 19.794 21.838 19.772 21.562C19.7608 21.4369 19.7384 21.3131 19.705 21.192C19.655 21.002 19.585 20.819 19.519 20.635C18.201 17.0335 16.8973 13.4268 15.608 9.815C15.594 9.775 15.59 9.732 15.549 9.697C15.536 9.705 15.519 9.711 15.509 9.722C15.4986 9.74023 15.4905 9.75972 15.485 9.78C14.855 11.556 14.184 13.318 13.515 15.08C13.022 16.386 12.528 17.69 12.068 19.007C11.8844 19.5352 11.706 20.0652 11.533 20.597C11.4652 20.8 11.415 21.0084 11.383 21.22C11.3585 21.361 11.3545 21.5048 11.371 21.647C11.3819 21.7397 11.412 21.829 11.4596 21.9093C11.5071 21.9895 11.571 22.0589 11.647 22.113C11.749 22.184 11.861 22.241 11.979 22.28C12.167 22.345 12.361 22.394 12.558 22.426C12.775 22.465 12.994 22.495 13.212 22.529L13.259 22.537C13.2642 22.5525 13.2676 22.5687 13.269 22.585V23.203C13.2675 23.2152 13.2648 23.2273 13.261 23.239C13.2415 23.2434 13.2218 23.2467 13.202 23.249H7.511V23.25Z" fill="white"/>
</g>
<defs>
<clipPath id="clip0_16_226">
<rect width="32" height="32" fill="white"/>
</clipPath>
</defs>
</svg>
