<svg width="32" height="32" viewBox="0 0 32 32" fill="none" xmlns="http://www.w3.org/2000/svg">
<g clip-path="url(#clip0_16_242)">
<path d="M16 32C24.8366 32 32 24.8366 32 16C32 7.16344 24.8366 0 16 0C7.16344 0 0 7.16344 0 16C0 24.8366 7.16344 32 16 32Z" fill="#FD875E"/>
<path d="M13.66 17.386L16.046 10.274L18.476 17.386H13.66ZM23.772 21.883L21.799 16.574H22.977C23.2001 16.5743 23.4144 16.4867 23.5734 16.3303C23.7325 16.1738 23.8236 15.9611 23.827 15.738C23.827 15.528 23.741 15.325 23.59 15.177C23.439 15.029 23.232 14.944 23.017 14.944H21.177L20.882 14.118H22.977C23.1953 14.12 23.4058 14.0368 23.5637 13.8861C23.7217 13.7354 23.8147 13.5291 23.823 13.311C23.824 13.089 23.735 12.877 23.575 12.721C23.415 12.565 23.199 12.477 22.973 12.478H20.253L18.78 8.50998C18.5583 7.94069 18.1944 7.43769 17.723 7.04898C17.2529 6.67174 16.6623 6.47712 16.06 6.50098C15.4559 6.48147 14.8642 6.6755 14.389 7.04898C13.9178 7.43806 13.553 7.94042 13.329 8.50898L11.786 12.513H9.082C8.8682 12.5111 8.66233 12.5938 8.50928 12.7431C8.35623 12.8924 8.26842 13.0962 8.265 13.31C8.265 13.768 8.644 14.139 9.112 14.139H11.165L10.849 14.943H9.009C8.90276 14.9418 8.79732 14.9615 8.69872 15.0011C8.60011 15.0407 8.51026 15.0993 8.4343 15.1736C8.35834 15.2478 8.29776 15.3364 8.25601 15.4341C8.21427 15.5318 8.19218 15.6367 8.191 15.743C8.191 16.197 8.565 16.564 9.027 16.566H10.208L8.202 21.882C8.079 22.182 8.011 22.5 8 22.823C8.02 23.276 8.222 23.703 8.56 24.013C8.93413 24.3298 9.40981 24.5012 9.9 24.496C10.3095 24.5207 10.7152 24.4048 11.0498 24.1675C11.3844 23.9301 11.6279 23.5856 11.74 23.191L12.516 20.922H19.66L20.437 23.245C20.5631 23.6263 20.8121 23.9549 21.1452 24.1793C21.4782 24.4038 21.8763 24.5113 22.277 24.485C22.587 24.492 22.892 24.415 23.161 24.265C23.394 24.095 23.601 23.895 23.775 23.667C23.9268 23.412 24.0047 23.1197 24 22.823C23.9513 22.5079 23.875 22.1977 23.772 21.896V21.883Z" fill="#FEFEFE"/>
</g>
<defs>
<clipPath id="clip0_16_242">
<rect width="32" height="32" fill="white"/>
</clipPath>
</defs>
</svg>
