<svg width="32" height="32" viewBox="0 0 32 32" fill="none" xmlns="http://www.w3.org/2000/svg">
<g clip-path="url(#clip0_16_250)">
<path d="M16 32C24.8366 32 32 24.8366 32 16C32 7.16344 24.8366 0 16 0C7.16344 0 0 7.16344 0 16C0 24.8366 7.16344 32 16 32Z" fill="#A71435"/>
<path d="M10.755 5.24599C13.2266 4.02013 16.0465 3.68831 18.7352 4.30699C21.4238 4.92566 23.8151 6.45662 25.5023 8.63946C27.1895 10.8223 28.0685 13.5222 27.9897 16.28C27.9109 19.0378 26.8791 21.6831 25.07 23.766C24.475 22.47 24.019 21.111 23.509 19.773L20.429 11.703C20.132 10.885 19.633 10.099 18.858 9.67399C17.7729 9.15083 16.5567 8.96217 15.364 9.13199C14.408 9.23899 13.41 9.56799 12.762 10.322C12.146 11.033 11.87 11.947 11.52 12.807L9.3 18.435C8.557 20.219 7.93 22.067 7.123 23.84C5.96059 22.5845 5.10638 21.0757 4.628 19.433C3.80136 16.7229 3.96479 13.8073 5.08911 11.2066C6.21344 8.60585 8.22547 6.48938 10.766 5.23499L10.755 5.24499V5.24599Z" fill="white"/>
<path d="M15.194 13.38C15.406 12.743 16.256 12.53 16.808 12.892C17.105 13.115 17.212 13.497 17.35 13.837C18.73 17.447 20.09 21.079 21.46 24.701C21.64 25.221 21.905 25.72 22.012 26.261C21.9251 26.3536 21.8246 26.4325 21.714 26.495C20.2157 27.2966 18.5639 27.77 16.8685 27.8836C15.1731 27.9972 13.4729 27.7485 11.881 27.154C11.286 26.909 10.671 26.697 10.15 26.325C10.203 25.837 10.447 25.401 10.628 24.955C12.157 21.101 13.654 17.235 15.194 13.38Z" fill="white"/>
</g>
<defs>
<clipPath id="clip0_16_250">
<rect width="32" height="32" fill="white"/>
</clipPath>
</defs>
</svg>
