<svg width="32" height="32" viewBox="0 0 32 32" fill="none" xmlns="http://www.w3.org/2000/svg">
<g clip-path="url(#clip0_16_260)">
<path d="M16 32C24.8366 32 32 24.8366 32 16C32 7.16344 24.8366 0 16 0C7.16344 0 0 7.16344 0 16C0 24.8366 7.16344 32 16 32Z" fill="#0092B5"/>
<path d="M11.76 14.102L16.042 6.564C16.05 6.55 16.066 6.541 16.122 6.564L20.196 13.965C20.0818 14.0582 19.9901 14.1761 19.928 14.3099C19.8659 14.4436 19.8348 14.5896 19.8372 14.7371C19.8397 14.8845 19.8754 15.0295 19.9419 15.1611C20.0084 15.2927 20.1038 15.4075 20.221 15.497L16.458 22.285C16.324 22.2206 16.1774 22.1867 16.0287 22.1857C15.88 22.1846 15.7329 22.2165 15.598 22.279L11.725 15.38C11.8844 15.2072 11.9757 14.9824 11.982 14.7474C11.9883 14.5124 11.909 14.283 11.759 14.102H11.76ZM11.35 15.636L15.238 22.561C15.1541 22.666 15.0928 22.7872 15.058 22.917C11.919 22.165 9.969 21.7 9.206 21.521C8.8833 21.0672 8.6009 20.586 8.362 20.083L10.854 15.697C11.0217 15.7183 11.1922 15.6976 11.35 15.637V15.636ZM10.811 13.753L7.724 8.253C9.828 7.136 12.439 6.55 15.559 6.5L11.397 13.826C11.2133 13.7437 11.0092 13.7183 10.811 13.753ZM10.391 13.929C10.2627 14.0216 10.1588 14.1439 10.0882 14.2855C10.0177 14.4271 9.98257 14.5837 9.98591 14.7419C9.98925 14.9001 10.031 15.0551 10.1074 15.1936C10.1839 15.3321 10.2929 15.4499 10.425 15.537L8.135 19.567C7.75452 18.6247 7.52828 17.6273 7.465 16.613L7.002 9.231C6.99338 9.08884 7.01903 8.9467 7.07681 8.81653C7.13459 8.68636 7.22279 8.57197 7.334 8.483L10.391 13.929ZM16.991 22.927C16.9576 22.7979 16.898 22.6771 16.816 22.572L20.634 15.685C20.7988 15.7181 20.9692 15.7098 21.13 15.661L23.604 20.155C23.394 20.587 23.152 21.003 22.88 21.4L16.991 22.927ZM16.25 24.127C16.4312 24.086 16.5972 23.995 16.7293 23.8644C16.8613 23.7338 16.9541 23.5687 16.997 23.388L22.453 21.973C21.7935 22.7929 21.0044 23.4995 20.117 24.065L16.494 26.379C16.4185 26.4274 16.3363 26.4645 16.25 26.489V24.127ZM15.796 24.127V26.5C15.6931 26.4767 15.595 26.4358 15.506 26.379L11.883 24.065C11.0359 23.5251 10.2781 22.8564 9.637 22.083C10.627 22.318 12.43 22.748 15.046 23.374C15.126 23.747 15.42 24.042 15.796 24.128V24.127ZM21.166 13.793C20.9845 13.7303 20.7888 13.7206 20.602 13.765L16.605 6.503C19.637 6.57 22.185 7.149 24.246 8.238L21.166 13.793ZM21.549 14.034L24.639 8.462C24.7583 8.55004 24.8537 8.6665 24.9166 8.8008C24.9795 8.9351 25.0078 9.08298 24.999 9.231L24.536 16.614C24.4708 17.654 24.2343 18.6761 23.836 19.639L21.522 15.436C21.6179 15.347 21.695 15.2395 21.7485 15.1201C21.802 15.0006 21.8308 14.8716 21.8334 14.7407C21.8359 14.6099 21.812 14.4798 21.7631 14.3584C21.7143 14.237 21.6414 14.1267 21.549 14.034ZM16 11.234C15.8584 11.2363 15.7232 11.293 15.6224 11.3925C15.5216 11.492 15.4631 11.6265 15.459 11.768V13.722L12.573 15.5L12.882 16.167L15.459 15.323V17.277L14.737 17.81V18.343L16 17.987L17.263 18.342V17.809L16.541 17.276V15.322L19.074 16.212L19.427 15.5L16.541 13.722V11.768C16.5367 11.6268 16.4782 11.4927 16.3776 11.3935C16.2771 11.2942 16.1422 11.2375 16.001 11.235L16 11.234Z" fill="white"/>
</g>
<defs>
<clipPath id="clip0_16_260">
<rect width="32" height="32" fill="white"/>
</clipPath>
</defs>
</svg>
