<svg width="32" height="32" viewBox="0 0 32 32" fill="none" xmlns="http://www.w3.org/2000/svg">
<g clip-path="url(#clip0_16_264)">
<path d="M16 32C24.8366 32 32 24.8366 32 16C32 7.16344 24.8366 0 16 0C7.16344 0 0 7.16344 0 16C0 24.8366 7.16344 32 16 32Z" fill="#436697"/>
<path d="M19.075 20.716C19.0262 20.7137 18.9791 20.6978 18.939 20.67C18.9026 20.6472 18.8718 20.6165 18.849 20.58H18.84L16.622 24.475C18.876 23.98 21.122 23.475 23.375 22.979C23.3235 22.9153 23.2754 22.8488 23.231 22.78C23.168 22.69 23.114 22.582 23.051 22.465C22.9934 22.3585 22.9394 22.2501 22.889 22.14V22.131C22.889 22.122 22.879 22.113 22.879 22.113C22.7719 21.8852 22.6728 21.6538 22.582 21.419C22.555 21.356 22.537 21.302 22.51 21.248C22.3727 20.9084 22.2434 20.5656 22.122 20.22C21.743 20.292 21.428 20.355 21.212 20.4C21.202 20.4 21.193 20.4 21.184 20.409C20.851 20.481 20.535 20.544 20.229 20.599C20.057 20.634 19.895 20.652 19.742 20.679C19.706 20.689 19.661 20.689 19.607 20.698C19.607 20.698 19.498 20.716 19.354 20.725C19.2606 20.7321 19.1667 20.7287 19.074 20.715L19.075 20.716ZM21.148 17.271C21.1 17.0988 21.0609 16.9242 21.031 16.748L19.336 19.724L19.346 19.714C19.417 19.688 19.498 19.661 19.598 19.634C19.832 19.561 20.12 19.489 20.472 19.399C20.824 19.309 21.239 19.209 21.725 19.084C21.626 18.786 21.518 18.48 21.419 18.164C21.3175 17.8699 21.2274 17.5721 21.149 17.271H21.148ZM23.763 11.997H23.727L21.537 15.847C21.545 15.847 21.563 15.856 21.59 15.856C21.6 15.856 21.6 15.856 21.608 15.865C21.618 15.865 21.618 15.865 21.626 15.874C21.636 15.874 21.636 15.883 21.644 15.883C21.654 15.883 21.654 15.883 21.662 15.892C21.6886 15.9062 21.7129 15.9244 21.734 15.946C21.77 15.982 21.798 16.018 21.807 16.027C21.816 16.037 21.816 16.045 21.825 16.054C21.845 16.0828 21.863 16.1128 21.879 16.144C21.924 16.225 21.951 16.27 21.951 16.27C22.059 16.478 22.167 16.721 22.275 17.01C22.384 17.298 22.501 17.605 22.609 17.93C22.636 18.002 22.654 18.065 22.681 18.137C22.744 18.327 22.825 18.561 22.916 18.831C23.294 18.759 23.655 18.687 24.006 18.624C24.358 18.561 24.674 18.516 24.962 18.489C25.251 18.461 25.494 18.443 25.702 18.452C25.819 18.452 25.909 18.462 25.99 18.48C26.008 18.48 26.035 18.489 26.053 18.489C25.882 18.011 25.702 17.479 25.494 16.911L23.764 11.997H23.763ZM25.828 19.291C25.5788 19.3825 25.3259 19.4636 25.07 19.534C25.016 19.552 24.962 19.561 24.917 19.58C24.872 19.589 24.827 19.607 24.782 19.616C24.6567 19.6504 24.5303 19.6804 24.403 19.706C24.3315 19.7261 24.2595 19.7441 24.187 19.76H24.177C23.961 19.814 23.673 19.877 23.339 19.95C23.411 20.202 23.502 20.481 23.609 20.797C23.709 21.112 23.809 21.419 23.889 21.707C23.916 21.797 23.934 21.879 23.961 21.969C24.007 22.104 24.043 22.239 24.07 22.402C24.079 22.429 24.079 22.456 24.088 22.482C24.124 22.627 24.133 22.735 24.124 22.816C24.124 22.816 24.502 22.744 24.692 22.699C25.4399 21.7355 26.0219 20.654 26.414 19.499C26.36 19.336 26.306 19.183 26.252 19.02C26.17 19.129 26.035 19.21 25.828 19.291ZM13.971 5.31601H14.007C14.043 5.31601 14.089 5.33401 14.143 5.37001C14.17 5.38801 14.206 5.40601 14.233 5.43301C14.2712 5.46031 14.3073 5.49039 14.341 5.52301C14.503 5.66701 14.684 5.83901 14.891 6.04601C15.089 6.24401 15.297 6.46101 15.513 6.69601C15.72 6.92001 15.91 7.12801 16.081 7.29901C16.162 7.21801 16.243 7.12801 16.325 7.02901C16.424 6.92001 16.523 6.81201 16.622 6.69501C16.722 6.58701 16.82 6.47001 16.929 6.37001C17.028 6.26201 17.127 6.16301 17.226 6.06401L17.37 5.92001C17.425 5.86601 17.479 5.82001 17.524 5.77501C17.614 5.69501 17.695 5.62201 17.776 5.55901C17.948 5.41501 18.074 5.35201 18.173 5.35201C18.209 5.35201 18.245 5.36101 18.281 5.37001L18.182 5.25201L17.92 5.19801C17.911 5.19801 17.902 5.19801 17.893 5.18901C17.813 5.17101 17.731 5.16201 17.65 5.15301H17.632C17.551 5.14401 17.461 5.12601 17.38 5.11701H17.37C16.92 5.06301 16.46 5.02701 15.991 5.02701H15.738C15.658 5.02701 15.585 5.03701 15.513 5.03701H15.486C15.405 5.03701 15.333 5.04501 15.252 5.05401H15.242C14.828 5.08101 14.422 5.13501 14.025 5.20701C13.989 5.24301 13.962 5.28001 13.926 5.32501C13.944 5.32501 13.953 5.31501 13.971 5.31501V5.31601ZM7.786 10.446C7.831 10.41 7.886 10.356 7.976 10.32C8.08077 10.2719 8.19383 10.2444 8.309 10.239C8.462 10.229 8.579 10.275 8.643 10.293C10.076 8.67901 11.51 7.07301 12.943 5.46001L12.592 5.56801C11.789 5.83801 10.725 6.28901 9.616 7.08301C8.6473 7.78653 7.79552 8.63831 7.092 9.60701C7.02 9.71601 6.939 9.81501 6.866 9.92301C7.173 10.094 7.48 10.275 7.786 10.446ZM7.552 11.519C7.48624 11.397 7.45187 11.2606 7.452 11.122V11.059C7.452 11.059 7.462 11.014 7.462 10.996L6.532 10.473C5.61984 12.0245 5.10589 13.7776 5.036 15.576V16.334C5.063 17.181 5.18 18.002 5.388 18.786C6.19 16.46 7.002 14.143 7.804 11.816C7.69946 11.7364 7.61347 11.6351 7.552 11.519ZM18.498 5.88401C18.4772 5.94819 18.4469 6.00887 18.408 6.06401C18.3472 6.17562 18.2808 6.28409 18.209 6.38901C18.164 6.45201 18.119 6.52401 18.074 6.59601C17.9562 6.76836 17.8328 6.93678 17.704 7.10101C17.641 7.17301 17.587 7.25401 17.524 7.33501C17.514 7.34501 17.506 7.36201 17.497 7.37101C17.38 7.51601 17.253 7.66901 17.118 7.82201C17.018 7.93901 16.928 8.04801 16.82 8.16501C16.956 8.31801 17.109 8.48001 17.262 8.66101C17.316 8.71501 17.37 8.77801 17.416 8.84101C17.524 8.95801 17.623 9.07501 17.722 9.19301L18.011 9.53501C18.191 9.76101 18.344 9.95901 18.471 10.139C18.579 10.302 18.633 10.419 18.651 10.509V10.545C18.651 10.635 18.606 10.725 18.525 10.807H22.835C22.8619 10.7361 22.8983 10.6692 22.943 10.608L18.533 5.65801V5.67601C18.5357 5.747 18.5238 5.81779 18.498 5.88401ZM21.085 6.28001C21.067 6.27101 21.058 6.26201 21.04 6.26201C20.9194 6.19661 20.7959 6.13655 20.67 6.08201C20.6463 6.07554 20.6246 6.06315 20.607 6.04601C20.4878 5.99033 20.3678 5.93632 20.247 5.88401C20.22 5.87401 20.202 5.86601 20.175 5.85701C20.0448 5.80025 19.9124 5.74887 19.778 5.70301C19.76 5.69401 19.742 5.69401 19.724 5.68501C19.589 5.63101 19.444 5.58601 19.3 5.54101C20.698 7.11001 22.095 8.68801 23.502 10.257C23.52 10.257 23.547 10.247 23.565 10.247H23.754C23.799 10.257 23.88 10.266 23.98 10.302C23.989 10.302 23.998 10.311 24.007 10.32C24.016 10.329 24.034 10.329 24.043 10.338C24.1106 10.3726 24.1741 10.4149 24.232 10.464C24.241 10.464 24.241 10.473 24.25 10.473C24.277 10.491 24.295 10.518 24.313 10.536C24.611 10.365 24.908 10.202 25.197 10.031C24.2499 8.5829 22.9778 7.37588 21.482 6.50601H21.473C21.347 6.42501 21.211 6.35201 21.085 6.28001ZM17.704 10.68C17.659 10.644 17.623 10.608 17.578 10.572L17.298 10.32L17.154 10.175C16.994 10.0195 16.8405 9.85731 16.694 9.68901C16.586 9.57101 16.487 9.45401 16.388 9.34601C16.288 9.22901 16.18 9.12001 16.081 9.01201C15.748 9.35501 15.468 9.65201 15.234 9.90501C15.18 9.95901 15.125 10.022 15.071 10.076L15.053 10.094C14.945 10.202 14.855 10.302 14.765 10.392L14.639 10.518C14.5305 10.6238 14.416 10.7233 14.296 10.816H17.857C17.848 10.806 17.83 10.798 17.821 10.789C17.785 10.743 17.741 10.716 17.704 10.68ZM9.157 10.807H13.611C13.593 10.789 13.575 10.761 13.557 10.743C13.539 10.725 13.53 10.698 13.52 10.68C13.502 10.635 13.484 10.59 13.484 10.545C13.484 10.518 13.494 10.482 13.502 10.437C13.502 10.427 13.512 10.419 13.512 10.41C13.52 10.392 13.53 10.365 13.548 10.338C13.575 10.284 13.611 10.22 13.656 10.158C13.665 10.148 13.665 10.139 13.674 10.139C13.9442 9.75922 14.236 9.39528 14.548 9.04901C14.6055 8.98045 14.6655 8.91408 14.728 8.85001C14.792 8.78701 14.846 8.71501 14.909 8.65201C15.044 8.49801 15.179 8.34501 15.297 8.20101C15.306 8.19101 15.315 8.18301 15.315 8.17401C14.9859 7.79255 14.6642 7.40481 14.35 7.01101C14.26 6.89301 14.179 6.77601 14.098 6.66801C13.9643 6.47941 13.8408 6.2838 13.728 6.08201L13.674 5.97401C13.656 5.93801 13.647 5.90201 13.629 5.87401C13.611 5.81101 13.593 5.75701 13.593 5.71201L9.12 10.725C9.13 10.752 9.148 10.78 9.157 10.807ZM16.406 26.955C19.286 26.8504 22.0081 25.6126 23.98 23.511C21.455 24.07 18.93 24.629 16.406 25.179V26.955ZM26.847 17.614C26.856 17.578 26.856 17.551 26.865 17.514C26.874 17.424 26.892 17.344 26.901 17.254V17.244L26.928 16.964C26.928 16.938 26.937 16.911 26.937 16.884C26.937 16.83 26.946 16.784 26.946 16.73C26.964 16.45 26.973 16.19 26.973 15.946C26.965 14.3056 26.5891 12.6879 25.873 11.212L25.846 11.158C25.81 11.077 25.765 11.005 25.729 10.924L25.675 10.816C25.63 10.734 25.585 10.644 25.539 10.563C25.206 10.753 24.881 10.933 24.548 11.123C24.548 11.149 24.548 11.176 24.538 11.203C24.53 11.257 24.52 11.303 24.511 11.348C24.502 11.375 24.493 11.393 24.484 11.42C24.4583 11.4866 24.4251 11.55 24.385 11.609C24.367 11.627 24.358 11.645 24.34 11.663C25.125 13.926 25.909 16.18 26.693 18.443C26.739 18.254 26.775 18.056 26.811 17.866C26.811 17.848 26.82 17.83 26.82 17.803C26.831 17.74 26.84 17.6766 26.847 17.613V17.614Z" fill="white"/>
<path d="M22.843 11.438C22.8975 11.5788 22.9878 11.7029 23.105 11.798L16.045 24.214L8.958 11.744C9.0426 11.6551 9.11006 11.5514 9.157 11.438H22.843ZM15.711 19.58C15.587 19.58 15.486 19.68 15.486 19.805V19.809C15.486 19.919 15.555 20.006 15.651 20.031L15.711 20.039C15.7411 20.0394 15.771 20.0337 15.7989 20.0223C15.8268 20.0108 15.852 19.9938 15.8732 19.9723C15.8943 19.9508 15.9108 19.9253 15.9218 19.8972C15.9328 19.8691 15.9379 19.8391 15.937 19.809V19.805C15.937 19.7754 15.9311 19.746 15.9198 19.7187C15.9084 19.6913 15.8917 19.6665 15.8707 19.6455C15.8497 19.6246 15.8248 19.6081 15.7974 19.5968C15.77 19.5856 15.7406 19.5799 15.711 19.58ZM13.81 17.36C13.7651 17.36 13.7211 17.3734 13.6839 17.3985C13.6466 17.4236 13.6178 17.4593 13.601 17.501L13.593 17.525L13.585 17.585C13.585 17.712 13.684 17.811 13.81 17.811C13.936 17.811 14.035 17.712 14.035 17.586C14.035 17.46 13.936 17.36 13.81 17.36ZM17.426 12.924C16.975 12.757 16.708 12.939 16.592 13.06L16.583 13.07C16.5561 13.0962 16.5332 13.1262 16.515 13.159C16.515 13.168 16.505 13.177 16.515 13.177C16.515 13.186 16.524 13.186 16.533 13.195C17.335 13.592 17.94 13.898 18.201 14.033L18.228 14.051C18.255 14.069 18.336 14.106 18.345 14.169C18.356 14.222 18.322 14.276 18.277 14.324L18.238 14.362L18.192 14.403L18.152 14.437C18.049 14.523 17.911 14.635 17.155 15.224C17.1242 15.255 17.0875 15.2795 17.047 15.296C17.0083 15.3174 16.9652 15.3297 16.921 15.332H16.894C16.849 15.332 16.812 15.332 16.659 15.269C16.5931 15.2436 16.5222 15.2344 16.452 15.242L16.362 15.269C16.344 15.278 16.335 15.287 16.317 15.296C16.3087 15.3038 16.3 15.3111 16.291 15.318L16.308 15.305C16.2848 15.3207 16.2634 15.3388 16.244 15.359C16.235 15.368 16.235 15.377 16.235 15.386C16.249 15.386 16.258 15.386 16.265 15.39L16.268 15.398L16.281 15.404C16.299 15.404 16.308 15.404 16.326 15.413C16.3482 15.4135 16.3699 15.4197 16.389 15.431C16.4633 15.4613 16.5338 15.5003 16.599 15.547L16.551 15.512C16.5892 15.5393 16.6253 15.5694 16.659 15.602C16.6916 15.6357 16.7217 15.6718 16.749 15.71L16.831 15.828L16.903 15.927C16.9234 15.9669 16.9385 16.0092 16.948 16.053C16.9659 16.1148 16.9749 16.1787 16.975 16.243V16.351C16.975 16.36 16.975 16.369 16.984 16.378L16.988 16.38L16.993 16.387H17.02C17.047 16.369 17.074 16.36 17.092 16.342C17.101 16.324 17.119 16.315 17.128 16.306C17.1536 16.2883 17.1726 16.2627 17.182 16.233C17.218 16.153 17.218 16.071 17.218 16.026C17.2 15.855 17.218 15.819 17.236 15.783C17.236 15.773 17.246 15.765 17.246 15.756C17.2621 15.7152 17.2862 15.6782 17.317 15.647C17.3511 15.6144 17.3875 15.5843 17.426 15.557C17.7626 15.3144 18.1057 15.081 18.455 14.857L18.517 14.817C18.597 14.773 18.715 14.692 18.797 14.737C18.8079 14.7434 18.8176 14.7515 18.826 14.761C18.85 14.8 18.862 14.855 18.868 14.881L18.878 14.926C18.931 15.242 19.04 15.891 19.175 16.756C19.175 16.766 19.184 16.774 19.184 16.774C19.185 16.78 19.187 16.784 19.193 16.784C19.202 16.792 19.202 16.792 19.211 16.792C19.22 16.792 19.734 16.675 19.698 15.999L19.626 14.385V14.345C19.6277 14.261 19.649 14.1785 19.688 14.104C19.7271 14.0296 19.7828 13.9652 19.851 13.916L20.338 13.529C20.338 13.529 20.635 13.321 20.581 12.997C20.572 12.987 20.572 12.979 20.563 12.979L20.57 12.983C20.563 12.972 20.559 12.969 20.554 12.969C20.257 12.816 19.977 13.042 19.977 13.042L19.454 13.393C19.3825 13.4497 19.2972 13.4863 19.2068 13.499C19.1164 13.5116 19.0243 13.4999 18.94 13.465L18.453 13.295L17.426 12.924ZM13.368 13.465C13.3082 13.4653 13.251 13.4892 13.2088 13.5316C13.1667 13.5739 13.143 13.6312 13.143 13.691V13.695C13.143 13.805 13.212 13.891 13.308 13.917L13.368 13.925C13.3981 13.9254 13.428 13.9197 13.4559 13.9083C13.4838 13.8968 13.509 13.8798 13.5302 13.8583C13.5513 13.8368 13.5678 13.8113 13.5788 13.7832C13.5898 13.7551 13.5949 13.7251 13.594 13.695V13.691C13.594 13.6311 13.5702 13.5736 13.5278 13.5312C13.4854 13.4888 13.4279 13.465 13.368 13.465ZM15.072 12.338C15.0122 12.3383 14.955 12.3622 14.9128 12.4046C14.8707 12.4469 14.847 12.5042 14.847 12.564V12.568C14.847 12.678 14.916 12.764 15.012 12.79L15.072 12.798C15.1021 12.7984 15.132 12.7927 15.1599 12.7813C15.1878 12.7698 15.213 12.7528 15.2342 12.7313C15.2553 12.7098 15.2718 12.6843 15.2828 12.6562C15.2938 12.6281 15.2989 12.5981 15.298 12.568V12.564C15.298 12.5041 15.2742 12.4466 15.2318 12.4042C15.1894 12.3618 15.1319 12.338 15.072 12.338ZM10.952 12.338C10.9223 12.338 10.8929 12.3438 10.8655 12.3552C10.8381 12.3666 10.8132 12.3832 10.7922 12.4042C10.7712 12.4252 10.7546 12.4501 10.7432 12.4775C10.7318 12.5049 10.726 12.5343 10.726 12.564L10.727 12.568C10.727 12.678 10.795 12.764 10.891 12.79L10.951 12.798C10.9811 12.7984 11.011 12.7927 11.0389 12.7813C11.0668 12.7698 11.092 12.7528 11.1132 12.7313C11.1343 12.7098 11.1508 12.6843 11.1618 12.6562C11.1728 12.6281 11.1779 12.5981 11.177 12.568V12.564C11.177 12.439 11.077 12.338 10.952 12.338ZM8.03 22.492C8.066 22.32 8.11 22.14 8.165 21.932L8.219 21.716C8.3 21.428 8.39 21.121 8.499 20.806C8.525 20.725 8.552 20.652 8.57 20.58C8.616 20.436 8.66 20.292 8.706 20.157C8.72277 20.0923 8.74382 20.0289 8.769 19.967C8.525 19.913 8.237 19.841 7.93 19.777C7.62786 19.7094 7.32743 19.6344 7.029 19.552C6.812 19.489 6.614 19.435 6.443 19.372C6.38 19.354 6.325 19.327 6.271 19.309C6.20664 19.2853 6.14356 19.2583 6.082 19.228C6.03469 19.205 5.98952 19.1779 5.947 19.147C5.866 19.372 5.793 19.597 5.712 19.823C6.1 20.86 6.632 21.816 7.299 22.681C7.534 22.735 7.759 22.781 7.993 22.834C7.99013 22.7189 8.00257 22.6039 8.03 22.492ZM6.172 18.48C6.244 18.47 6.316 18.461 6.407 18.461C6.614 18.461 6.857 18.471 7.137 18.498C7.425 18.525 7.741 18.57 8.084 18.633C8.435 18.696 8.796 18.759 9.166 18.84C9.265 18.56 9.364 18.263 9.472 17.939C9.62218 17.4974 9.78761 17.0611 9.968 16.631C10.0185 16.5154 10.0725 16.4013 10.13 16.289C10.166 16.207 10.202 16.144 10.239 16.09C10.2681 16.0451 10.3012 16.0029 10.338 15.964C10.3568 15.9461 10.378 15.9309 10.401 15.919C10.4417 15.8946 10.4885 15.8821 10.536 15.883L8.4 12.069L6.173 18.479L6.172 18.48ZM11.843 20.607C11.771 20.589 11.69 20.58 11.618 20.562C11.458 20.5324 11.2986 20.4994 11.14 20.463L10.897 20.409C10.563 20.337 10.257 20.274 9.968 20.219C9.905 20.4 9.842 20.571 9.77 20.752C9.70913 20.9224 9.64276 21.0909 9.571 21.257C9.508 21.419 9.445 21.572 9.382 21.725C9.32209 21.8649 9.25874 22.0033 9.192 22.14C9.08711 22.363 8.96993 22.58 8.841 22.79C8.80478 22.8588 8.75937 22.9224 8.706 22.979L15.45 24.466L13.205 20.616L13.169 20.652C13.1533 20.6674 13.135 20.6799 13.115 20.689C13.034 20.734 12.88 20.743 12.645 20.725C12.4521 20.704 12.26 20.6767 12.069 20.643C11.988 20.634 11.916 20.616 11.843 20.607ZM10.996 16.992C10.978 17.082 10.951 17.182 10.924 17.289L10.87 17.506C10.807 17.722 10.743 17.948 10.662 18.182C10.6069 18.337 10.5559 18.4934 10.509 18.651C10.455 18.804 10.409 18.957 10.356 19.101C10.599 19.165 10.834 19.219 11.041 19.273C11.149 19.3 11.248 19.327 11.348 19.345C11.447 19.372 11.537 19.39 11.627 19.417C11.672 19.427 11.717 19.435 11.753 19.453L11.88 19.48C11.96 19.498 12.033 19.516 12.105 19.543C12.249 19.58 12.385 19.616 12.493 19.652C12.601 19.679 12.691 19.715 12.773 19.742L11.059 16.73C11.0317 16.8157 11.0106 16.9033 10.996 16.992ZM9.905 25.116C10.085 25.233 10.275 25.35 10.482 25.467C11.041 25.792 11.573 26.035 12.051 26.225C12.186 26.279 12.321 26.333 12.475 26.387C13.5333 26.7449 14.64 26.9395 15.757 26.964V25.188C13.16 24.62 10.572 24.043 7.975 23.475C8.5586 24.0883 9.20554 24.638 9.905 25.115V25.116Z" fill="white"/>
</g>
<defs>
<clipPath id="clip0_16_264">
<rect width="32" height="32" fill="white"/>
</clipPath>
</defs>
</svg>
