<svg width="32" height="32" viewBox="0 0 32 32" fill="none" xmlns="http://www.w3.org/2000/svg">
<g clip-path="url(#clip0_16_270)">
<path d="M16 32C24.8366 32 32 24.8366 32 16C32 7.16344 24.8366 0 16 0C7.16344 0 0 7.16344 0 16C0 24.8366 7.16344 32 16 32Z" fill="#343434"/>
<path d="M23.917 21.11C24.0934 21.0493 24.2448 20.9321 24.3478 20.7767C24.4509 20.6212 24.4998 20.4361 24.487 20.25V21.35C24.4883 21.5371 24.4318 21.7201 24.3254 21.874C24.2189 22.0279 24.0676 22.1452 23.892 22.21L16.304 24.943C16.1126 25.0192 15.8994 25.0192 15.708 24.943L8.12 22.211C7.9436 22.1475 7.79145 22.0305 7.68477 21.8763C7.5781 21.7221 7.52225 21.5385 7.525 21.351V20.251C7.525 20.63 7.76 20.984 8.12 21.111L15.733 23.843C15.9241 23.9189 16.1369 23.9189 16.328 23.843L23.917 21.11ZM23.917 19.162C24.0916 19.0986 24.2412 18.9808 24.3438 18.826C24.4465 18.6712 24.4966 18.4875 24.487 18.302V19.402C24.4883 19.5891 24.4318 19.7721 24.3254 19.926C24.2189 20.0799 24.0676 20.1972 23.892 20.262L16.304 22.995C16.1126 23.0712 15.8994 23.0712 15.708 22.995L8.12 20.263C7.9436 20.1995 7.79145 20.0825 7.68477 19.9283C7.5781 19.7741 7.52225 19.5905 7.525 19.403V18.29C7.525 18.682 7.76 19.023 8.12 19.162L15.733 21.895C15.9241 21.9709 16.1369 21.9709 16.328 21.895L23.917 19.162ZM23.917 17.202C24.0909 17.1397 24.2407 17.0243 24.3454 16.8721C24.45 16.7199 24.5041 16.5387 24.5 16.354V17.454C24.5012 17.6413 24.4446 17.8243 24.338 17.9782C24.2313 18.1321 24.0798 18.2494 23.904 18.314L16.316 21.047C16.1249 21.1229 15.9121 21.1229 15.721 21.047L8.12 18.302C7.9436 18.2385 7.79145 18.1215 7.68477 17.9673C7.5781 17.8131 7.52225 17.6295 7.525 17.442V16.342C7.525 16.721 7.76 17.075 8.12 17.202L15.733 19.934C15.9241 20.0099 16.1369 20.0099 16.328 19.934L23.917 17.202ZM7.5 10.662C7.49725 10.4745 7.5531 10.2909 7.65978 10.1367C7.76645 9.98254 7.9186 9.86552 8.095 9.80201L15.696 7.05701C15.8871 6.98112 16.0999 6.98112 16.291 7.05701L23.892 9.80201C24.0684 9.86552 24.2206 9.98254 24.3272 10.1367C24.4339 10.2909 24.4898 10.4745 24.487 10.662V15.494C24.4883 15.6811 24.4318 15.8641 24.3254 16.018C24.2189 16.1719 24.0676 16.2892 23.892 16.354L16.279 19.086C16.0879 19.1619 15.8751 19.1619 15.684 19.086L8.095 16.354C7.9186 16.2905 7.76645 16.1735 7.65978 16.0193C7.5531 15.8651 7.49725 15.6815 7.5 15.494V10.662Z" fill="white"/>
</g>
<defs>
<clipPath id="clip0_16_270">
<rect width="32" height="32" fill="white"/>
</clipPath>
</defs>
</svg>
