<svg width="32" height="32" viewBox="0 0 32 32" fill="none" xmlns="http://www.w3.org/2000/svg">
<g clip-path="url(#clip0_16_278)">
<path d="M16 32C24.8366 32 32 24.8366 32 16C32 7.16344 24.8366 0 16 0C7.16344 0 0 7.16344 0 16C0 24.8366 7.16344 32 16 32Z" fill="#346FCE"/>
<path fill-rule="evenodd" clip-rule="evenodd" d="M20.16 18.706L21.116 20.503C21.6598 21.526 21.775 22.723 21.4364 23.831C21.0977 24.9389 20.3328 25.8669 19.31 26.411L19.186 26.477C18.6794 26.7464 18.1248 26.9134 17.5536 26.9685C16.9825 27.0235 16.4062 26.9655 15.8575 26.7978C15.3088 26.6301 14.7985 26.356 14.3557 25.9911C13.9129 25.6261 13.5464 25.1776 13.277 24.671L10.054 18.609C9.52999 17.6236 9.40297 16.475 9.69901 15.3989C9.99505 14.3227 10.6917 13.4007 11.646 12.822L10.69 11.025C10.1463 10.0019 10.0312 8.80473 10.3701 7.6968C10.7089 6.58886 11.474 5.6609 12.497 5.117L12.621 5.051C13.644 4.5072 14.841 4.39196 15.949 4.73064C17.0569 5.06932 17.9849 5.83417 18.529 6.857L21.752 12.919C22.2761 13.9043 22.4033 15.0528 22.1074 16.1289C21.8116 17.205 21.1151 18.1271 20.161 18.706H20.16ZM20.16 18.706L17.893 14.441C17.3489 13.4182 16.4209 12.6533 15.313 12.3146C14.205 11.976 13.008 12.0912 11.985 12.635L11.861 12.7C11.788 12.74 11.716 12.78 11.646 12.822L13.914 17.087C14.4581 18.1098 15.3861 18.8747 16.494 19.2134C17.602 19.552 18.799 19.4368 19.822 18.893L19.946 18.828C20.019 18.788 20.091 18.748 20.161 18.706H20.16Z" fill="white"/>
</g>
<defs>
<clipPath id="clip0_16_278">
<rect width="32" height="32" fill="white"/>
</clipPath>
</defs>
</svg>
