<svg width="32" height="32" viewBox="0 0 32 32" fill="none" xmlns="http://www.w3.org/2000/svg">
<g clip-path="url(#clip0_16_333)">
<path d="M16 32C24.8366 32 32 24.8366 32 16C32 7.16344 24.8366 0 16 0C7.16344 0 0 7.16344 0 16C0 24.8366 7.16344 32 16 32Z" fill="#004AB5"/>
<path d="M12.483 7.79299C11.1633 8.29025 9.98334 9.09893 9.04338 10.1502C8.10342 11.2015 7.43133 12.4644 7.08429 13.8312C6.73726 15.1981 6.72555 16.6286 7.05016 18.0009C7.37477 19.3733 8.0261 20.6469 8.94872 21.7135C9.87134 22.78 11.038 23.6079 12.3493 24.1267C13.6606 24.6455 15.0779 24.8399 16.4805 24.6932C17.8831 24.5466 19.2295 24.0633 20.4051 23.2844C21.5808 22.5056 22.5509 21.4543 23.233 20.22L15.571 15.985L18.68 7.79999C16.6846 7.04248 14.4811 7.03999 12.484 7.79299H12.483ZM13.029 9.36599C14.6465 8.75612 16.431 8.75825 18.047 9.37199L15.53 15.999L21.734 19.429C21.1816 20.4282 20.396 21.2792 19.4441 21.9096C18.4921 22.5401 17.402 22.9312 16.2664 23.0498C15.1308 23.1684 13.9834 23.011 12.9217 22.5909C11.8601 22.1708 10.9156 21.5005 10.1686 20.637C9.4216 19.7735 8.89425 18.7424 8.63138 17.6313C8.36852 16.5202 8.37791 15.3621 8.65877 14.2554C8.93963 13.1487 9.48364 12.1262 10.2445 11.275C11.0054 10.4237 11.9607 9.7688 13.029 9.36599ZM15.965 4.97999C17.156 5.02699 18.331 5.26699 19.445 5.68999L15.53 15.999L25.181 21.334C24.2314 23.0521 22.8404 24.4855 21.1517 25.4864C19.463 26.4872 17.5377 27.0192 15.5747 27.0273C13.6116 27.0354 11.682 26.5194 9.98509 25.5325C8.28814 24.5456 6.88538 23.1237 5.92163 21.4135C4.95789 19.7033 4.46811 17.7669 4.50286 15.8042C4.53761 13.8414 5.09563 11.9235 6.11931 10.2485C7.14298 8.57355 8.59521 7.20216 10.326 6.27598C12.0568 5.3498 14.0035 4.90241 15.965 4.97999ZM23.494 8.79199C23.758 8.79199 24.004 8.82299 24.23 8.88699C24.896 9.06999 25.346 9.48399 25.58 10.128C25.723 10.519 25.754 10.903 25.674 11.28C25.602 11.654 25.429 11.99 25.155 12.29C25.669 12.267 26.118 12.382 26.505 12.632C26.888 12.874 27.171 13.245 27.352 13.743C27.609 14.449 27.532 15.094 27.119 15.678C26.711 16.252 25.982 16.731 24.931 17.113L20.767 18.629L17.836 10.576L21.77 9.14399C22.414 8.90999 22.989 8.79199 23.494 8.79199ZM22.884 10.458C22.644 10.458 22.367 10.516 22.051 10.631L20.199 11.305L20.889 13.204L22.742 12.529C23.202 12.362 23.522 12.155 23.7 11.907C23.88 11.659 23.912 11.378 23.797 11.064C23.683 10.75 23.479 10.559 23.185 10.492C23.0865 10.4682 22.9854 10.4568 22.884 10.458ZM24.446 13.58C24.194 13.583 23.898 13.646 23.558 13.77L21.384 14.561L22.108 16.551L24.282 15.76C24.772 15.581 25.112 15.367 25.298 15.116C25.493 14.863 25.528 14.568 25.406 14.23C25.246 13.793 24.926 13.576 24.446 13.58Z" fill="white"/>
</g>
<defs>
<clipPath id="clip0_16_333">
<rect width="32" height="32" fill="white"/>
</clipPath>
</defs>
</svg>
