<svg width="32" height="32" viewBox="0 0 32 32" fill="none" xmlns="http://www.w3.org/2000/svg">
<g clip-path="url(#clip0_16_337)">
<path d="M16 32C24.8366 32 32 24.8366 32 16C32 7.16344 24.8366 0 16 0C7.16344 0 0 7.16344 0 16C0 24.8366 7.16344 32 16 32Z" fill="#F7931C"/>
<path d="M7.35101 19.32C7.34301 16.308 9.46401 13.78 12.498 13.211C12.758 13.163 12.832 13.076 12.825 12.822C12.8085 12.1458 12.8085 11.4692 12.825 10.793C12.83 10.55 12.753 10.405 12.544 10.269C11.815 9.794 11.517 8.93 11.784 8.153C11.9124 7.75986 12.1671 7.4202 12.5086 7.18689C12.8501 6.95357 13.2591 6.8397 13.672 6.863C14.442 6.899 15.147 7.472 15.355 8.233C15.565 8.997 15.273 9.828 14.595 10.259C14.355 10.411 14.28 10.564 14.288 10.836C14.308 11.512 14.301 12.188 14.292 12.865C14.289 13.061 14.318 13.166 14.551 13.196C14.994 13.255 15.427 13.374 15.837 13.55C15.991 13.616 16.074 13.576 16.177 13.462C17.612 11.881 19.052 10.303 20.495 8.729C20.644 8.567 20.601 8.456 20.533 8.289C20.181 7.421 20.387 6.484 21.051 5.864C21.657 5.299 22.659 5.138 23.383 5.489C24.235 5.902 24.703 6.694 24.645 7.624C24.567 8.868 23.357 9.805 22.129 9.55C21.88 9.498 21.736 9.558 21.575 9.736C20.2393 11.2124 18.8979 12.6838 17.551 14.15C17.388 14.327 17.365 14.422 17.568 14.598C19.772 16.52 20.372 19.416 19.116 22.054C19.021 22.254 19.042 22.368 19.196 22.514C19.563 22.863 19.918 23.224 20.27 23.589C20.41 23.734 20.541 23.772 20.749 23.719C21.559 23.515 22.399 23.879 22.803 24.582C23.0032 24.9299 23.0859 25.3331 23.0389 25.7317C22.9918 26.1303 22.8176 26.5032 22.542 26.795C21.988 27.384 21.083 27.555 20.38 27.203C19.612 26.819 19.188 25.998 19.37 25.155C19.423 24.913 19.367 24.775 19.205 24.622C18.9068 24.34 18.6176 24.0485 18.338 23.748C18.175 23.572 18.074 23.569 17.888 23.744C15.989 25.514 13.787 25.972 11.357 25.108C8.94101 24.251 7.35801 21.902 7.35101 19.321" fill="#FEFDFC"/>
</g>
<defs>
<clipPath id="clip0_16_337">
<rect width="32" height="32" fill="white"/>
</clipPath>
</defs>
</svg>
