<svg width="32" height="32" viewBox="0 0 32 32" fill="none" xmlns="http://www.w3.org/2000/svg">
<g clip-path="url(#clip0_16_365)">
<path d="M16 32C24.8366 32 32 24.8366 32 16C32 7.16344 24.8366 0 16 0C7.16344 0 0 7.16344 0 16C0 24.8366 7.16344 32 16 32Z" fill="#E54C40"/>
<path d="M9.328 8.617C9.308 8.47 9.446 8.382 9.525 8.282C10.5191 7.29843 11.5084 6.31008 12.493 5.317C12.479 8.033 12.501 10.749 12.482 13.465C14.531 12.335 17.112 12.285 19.218 13.297C19.216 13.472 19.216 13.646 19.216 13.822C17.535 12.918 15.468 12.802 13.675 13.432C11.612 14.142 9.968 15.889 9.325 17.968C9.328 14.85 9.324 11.734 9.328 8.617ZM22.718 20.279C22.6554 21.9321 21.9791 23.5026 20.821 24.684C19.7321 25.8032 18.2863 26.5067 16.7337 26.6729C15.181 26.839 13.6191 26.4574 12.318 25.594C10.838 24.62 9.768 23.04 9.44 21.298C9.155 19.918 9.348 18.453 9.941 17.178C10.6148 15.744 11.7717 14.5928 13.209 13.926C15.093 13.038 17.389 13.113 19.213 14.118C19.202 15.612 19.203 17.106 19.214 18.6C18.916 17.983 18.474 17.431 17.889 17.065C16.732 16.318 15.124 16.353 14.007 17.163C12.777 18.009 12.222 19.687 12.711 21.098C13.148 22.489 14.531 23.51 15.993 23.494C17.399 23.529 18.756 22.61 19.259 21.299C19.579 20.556 19.499 19.735 19.506 18.949C19.512 14.894 19.496 10.839 19.498 6.785C19.499 6.275 19.508 5.765 19.478 5.257C20.568 6.331 21.648 7.418 22.728 8.503C22.706 12.428 22.728 16.353 22.718 20.28V20.279Z" fill="white"/>
</g>
<defs>
<clipPath id="clip0_16_365">
<rect width="32" height="32" fill="white"/>
</clipPath>
</defs>
</svg>
