<svg width="32" height="32" viewBox="0 0 32 32" fill="none" xmlns="http://www.w3.org/2000/svg">
<g clip-path="url(#clip0_16_385)">
<path d="M16 32C24.8366 32 32 24.8366 32 16C32 7.16344 24.8366 0 16 0C7.16344 0 0 7.16344 0 16C0 24.8366 7.16344 32 16 32Z" fill="#181818"/>
<path d="M23.1 11.13C23.1382 11.9292 22.9233 12.7202 22.486 13.3902C22.0486 14.0603 21.411 14.5753 20.664 14.862C20.664 14.862 21.676 13.862 21.629 11.299C21.581 8.736 19.699 7.469 19.699 7.469C19.699 7.469 23.053 8.216 23.099 11.129L23.1 11.13ZM11.936 24.819L8.5 24.988V24.667C8.5 24.667 10.603 24.45 10.603 20.677V11.037C10.603 7.843 8.5 7.29 8.5 7.29V7L11.936 7.168V24.819ZM17.428 24.999C15.933 25.012 13.16 24.803 13.16 24.803V7.193C14.988 7.168 15.627 6.916 17.133 7.133C18.64 7.349 19.934 8.854 20.287 10.359C20.64 11.864 20.264 13.297 19.781 14.079C19.298 14.861 18.24 15.404 18.24 15.404C18.24 15.404 19.84 15.958 20.405 16.439C20.97 16.921 22.065 18.233 21.641 21.087C21.217 23.941 18.922 24.987 17.428 24.999ZM21.399 24.349C21.399 24.349 23.029 22.929 22.957 20.048C22.885 17.167 21.399 15.813 21.399 15.813C21.399 15.813 24.465 16.583 24.499 20.015C24.535 23.446 21.399 24.35 21.399 24.35V24.349ZM18.299 14.015C19.397 12.554 19.052 9.805 17.722 8.865C16.392 7.925 14.992 8.395 14.722 8.66C14.45 8.925 14.462 15.09 14.462 15.09C14.462 15.09 17.2 15.476 18.298 14.015H18.299ZM18.502 16.64C17.474 16.182 14.462 16.302 14.462 16.302C14.462 16.302 14.415 17.859 14.525 20.773C14.635 23.687 15.608 23.671 16.62 23.711C17.632 23.751 19.562 23.679 20.197 21.166C20.833 18.654 19.53 17.097 18.502 16.64Z" fill="white"/>
</g>
<defs>
<clipPath id="clip0_16_385">
<rect width="32" height="32" fill="white"/>
</clipPath>
</defs>
</svg>
