<svg width="32" height="32" viewBox="0 0 32 32" fill="none" xmlns="http://www.w3.org/2000/svg">
<g clip-path="url(#clip0_16_407)">
<path d="M16 32C24.8366 32 32 24.8366 32 16C32 7.16344 24.8366 0 16 0C7.16344 0 0 7.16344 0 16C0 24.8366 7.16344 32 16 32Z" fill="#FD7A3D"/>
<path d="M25.195 19.4C25.965 19.82 26.222 20.786 25.708 21.542C25.281 22.298 24.298 22.55 23.528 22.13C23.2961 21.9963 23.1006 21.8076 22.9589 21.5805C22.8171 21.3535 22.7333 21.0951 22.715 20.828H18.78L16.898 24.019C16.898 24.061 16.855 24.103 16.813 24.145C17.24 24.397 17.54 24.901 17.54 25.447C17.54 26.287 16.813 27 15.957 27C15.102 27 14.375 26.328 14.375 25.447C14.375 24.901 14.675 24.439 15.102 24.145C15.102 24.103 15.059 24.061 15.016 24.019L13.135 20.829H9.2C9.157 21.374 8.858 21.836 8.387 22.129C7.617 22.549 6.634 22.298 6.206 21.542C5.778 20.786 6.035 19.821 6.805 19.401C7.318 19.107 7.874 19.107 8.345 19.359C8.387 19.317 8.387 19.233 8.43 19.191L10.355 16L8.473 12.81C8.42771 12.7638 8.39769 12.7048 8.387 12.641C7.917 12.851 7.318 12.893 6.847 12.599C6.6658 12.499 6.50633 12.364 6.37789 12.2017C6.24946 12.0395 6.15464 11.8532 6.09897 11.6539C6.0433 11.4546 6.02789 11.2462 6.05365 11.0409C6.07941 10.8355 6.14582 10.6374 6.249 10.458C6.676 9.702 7.66 9.45 8.43 9.87C8.943 10.164 9.2 10.668 9.243 11.172H13.22L15.102 7.981C15.102 7.939 15.145 7.897 15.187 7.855C14.9648 7.71801 14.7814 7.52646 14.6541 7.29857C14.5269 7.07067 14.4601 6.81401 14.46 6.553C14.46 5.713 15.187 5 16.043 5C16.898 5 17.625 5.672 17.625 6.553C17.625 7.099 17.325 7.561 16.898 7.855C16.898 7.897 16.941 7.939 16.984 7.981L18.865 11.171H22.8C22.843 10.626 23.142 10.164 23.613 9.871C24.383 9.451 25.366 9.702 25.794 10.458C25.8971 10.6374 25.9635 10.8356 25.9892 11.041C26.0149 11.2464 25.9994 11.4548 25.9436 11.6541C25.8878 11.8535 25.7929 12.0397 25.6644 12.2019C25.5359 12.3641 25.3763 12.4991 25.195 12.599C24.682 12.893 24.126 12.893 23.655 12.641C23.613 12.683 23.613 12.767 23.57 12.809L21.688 16L23.57 19.19C23.6153 19.2362 23.6453 19.2952 23.656 19.359C24.126 19.149 24.725 19.107 25.196 19.401L25.195 19.4ZM18.053 14.95C18.053 14.069 17.326 13.355 16.428 13.355H14.375C14.3248 13.3543 14.2751 13.3636 14.2285 13.3823C14.182 13.401 14.1396 13.4287 14.1038 13.4638C14.068 13.499 14.0395 13.5408 14.02 13.587C14.0004 13.6332 13.9903 13.6828 13.99 13.733V18.267C13.99 18.477 14.161 18.645 14.375 18.645H16.428C17.326 18.645 18.053 17.931 18.053 17.05C18.053 16.672 17.925 16.294 17.668 16.042C17.882 15.706 18.053 15.37 18.053 14.95Z" fill="white"/>
</g>
<defs>
<clipPath id="clip0_16_407">
<rect width="32" height="32" fill="white"/>
</clipPath>
</defs>
</svg>
