<svg width="32" height="32" viewBox="0 0 32 32" fill="none" xmlns="http://www.w3.org/2000/svg">
<g clip-path="url(#clip0_16_435)">
<path d="M16 32C24.8366 32 32 24.8366 32 16C32 7.16344 24.8366 0 16 0C7.16344 0 0 7.16344 0 16C0 24.8366 7.16344 32 16 32Z" fill="#EAB304"/>
<path d="M22.15 14.57L22.22 14.43C22.22 14.36 22.22 14.29 22.36 14.34C22.3708 14.2771 22.3708 14.2129 22.36 14.15C22.3937 14.0597 22.3937 13.9603 22.36 13.87C22.2181 13.5241 22.1935 13.1412 22.29 12.78C22.301 12.734 22.301 12.686 22.29 12.64L22.36 12.57C22.3884 12.5957 22.4121 12.6262 22.43 12.66C22.441 12.706 22.441 12.754 22.43 12.8V12.87C22.43 12.94 22.55 12.8 22.6 12.75C22.6618 12.7023 22.7289 12.6621 22.8 12.63C22.8133 12.4471 22.7895 12.2634 22.73 12.09C22.6186 11.7136 22.6434 11.31 22.8 10.95C22.8 11.02 22.89 11.07 22.89 11.14C22.907 11.4 23.017 11.645 23.2 11.83C23.403 12.063 23.556 12.335 23.65 12.63C23.65 12.63 23.65 12.72 23.72 12.72C24.008 12.803 24.27 12.957 24.48 13.17C24.722 13.388 24.952 13.618 25.17 13.86C25.2078 13.9012 25.2382 13.9486 25.26 14H25.33C25.3417 13.7802 25.3417 13.5599 25.33 13.34C25.33 13.15 25.42 12.96 25.61 12.99H25.7C25.7042 12.9056 25.7358 12.8249 25.7899 12.7599C25.844 12.695 25.9177 12.6494 26 12.63C26.0351 12.6908 26.0536 12.7598 26.0536 12.83C26.0536 12.9002 26.0351 12.9692 26 13.03C26.14 13.2 26.17 13.29 26 13.48C25.83 13.67 25.91 13.69 26 13.88C26.0195 13.7699 26.0602 13.6646 26.12 13.57C26.17 13.47 26.19 13.31 26.31 13.26C26.3488 13.2463 26.3912 13.2463 26.43 13.26C26.5455 13.2829 26.6645 13.2829 26.78 13.26C26.853 13.254 26.926 13.271 26.9888 13.3087C27.0516 13.3464 27.101 13.4028 27.13 13.47L26.8 13.63C26.87 13.77 26.8 13.82 26.66 13.91C26.5903 13.974 26.5267 14.0443 26.47 14.12C26.5983 14.0973 26.7252 14.0672 26.85 14.03C26.9349 14.0084 27.0248 14.0177 27.1035 14.0561C27.1823 14.0946 27.2448 14.1598 27.28 14.24C27.3068 14.2966 27.3482 14.3449 27.4 14.38C27.4969 14.4641 27.5578 14.5823 27.57 14.71C27.5776 14.7395 27.5776 14.7705 27.57 14.8L27.38 14.66C27.3558 14.6368 27.3235 14.6238 27.29 14.6238C27.2565 14.6238 27.2242 14.6368 27.2 14.66C27.1664 14.6924 27.1216 14.7105 27.075 14.7105C27.0284 14.7105 26.9836 14.6924 26.95 14.66C26.8819 14.6195 26.8042 14.5981 26.725 14.5981C26.6458 14.5981 26.5681 14.6195 26.5 14.66C26.3938 14.7298 26.2837 14.7932 26.17 14.85C26.3012 14.8677 26.4266 14.9157 26.5359 14.9904C26.6453 15.065 26.7357 15.1642 26.8 15.28C26.87 15.42 26.97 15.56 27.04 15.71C27.0674 15.7697 27.0701 15.8379 27.0477 15.8996C27.0252 15.9614 26.9794 16.0118 26.92 16.04H26.87V15.99C26.87 15.87 26.8 15.85 26.68 15.87C26.6472 15.8809 26.6125 15.8851 26.5781 15.8824C26.5436 15.8797 26.51 15.8701 26.4793 15.8543C26.4486 15.8385 26.4213 15.8167 26.3991 15.7902C26.3769 15.7637 26.3602 15.733 26.35 15.7C26.234 15.4671 26.0391 15.2828 25.8 15.18L25.59 15.09C25.5743 15.181 25.5439 15.2688 25.5 15.35C25.4671 15.4023 25.4266 15.4495 25.38 15.49C25.24 15.61 25.24 15.63 25.38 15.8C25.52 15.97 25.45 15.89 25.5 15.97C25.4247 15.9743 25.3495 15.9613 25.2801 15.9318C25.2107 15.9023 25.1491 15.8572 25.1 15.8C24.9758 15.6602 24.8745 15.5015 24.8 15.33C24.7711 15.25 24.7691 15.1627 24.7943 15.0815C24.8196 15.0002 24.8708 14.9295 24.94 14.88C25.0102 14.8105 25.0677 14.7293 25.11 14.64L24.4 14.45C24.4114 14.5597 24.4114 14.6703 24.4 14.78C24.424 15.183 24.424 15.587 24.4 15.99C24.3759 16.5889 24.2819 17.1829 24.12 17.76C24.0029 18.2044 23.8351 18.6339 23.62 19.04C23.4395 19.406 23.2358 19.7601 23.01 20.1C22.8171 20.3824 22.6031 20.6498 22.37 20.9C22.134 21.1768 21.8729 21.4313 21.59 21.66C21.28 21.92 20.95 22.13 20.59 22.35C20.1053 22.6576 19.5803 22.8966 19.03 23.06C18.6588 23.1689 18.2815 23.2557 17.9 23.32C17.6885 23.3616 17.4748 23.3916 17.26 23.41C17.1943 23.4308 17.1346 23.4671 17.0859 23.5159C17.0371 23.5646 17.0008 23.6243 16.98 23.69C16.9507 23.8485 16.8894 23.9993 16.8 24.1334C16.7107 24.2674 16.595 24.382 16.46 24.47C16.34 24.56 16.2 24.64 16.06 24.73L16.13 24.52C16.1421 24.4743 16.142 24.4263 16.1297 24.3807C16.1174 24.335 16.0934 24.2934 16.06 24.26C15.99 24.19 15.89 24.26 15.8 24.26C15.71 24.26 15.63 24.38 15.61 24.52C15.5908 24.6483 15.5394 24.7696 15.4608 24.8728C15.3821 24.9759 15.2786 25.0575 15.16 25.11H15.04C15.0713 25.0257 15.0948 24.9387 15.11 24.85C15.11 24.78 15.04 24.71 14.99 24.64C14.94 24.57 14.9 24.64 14.85 24.64L14.42 24.85L14.28 24.92L14.66 25.09C14.8657 25.1885 15.0315 25.3543 15.13 25.56C15.1706 25.615 15.1925 25.6816 15.1925 25.75C15.1925 25.8184 15.1706 25.885 15.13 25.94C15.1184 25.9579 15.1122 25.9787 15.1122 26C15.1122 26.0213 15.1184 26.0422 15.13 26.06C15.1626 26.1784 15.1715 26.3021 15.156 26.424C15.1406 26.5459 15.1011 26.6635 15.04 26.77C15.04 26.84 14.92 26.91 14.87 26.98L14.8 26.5C14.8 26.4761 14.7905 26.4532 14.7736 26.4364C14.7568 26.4195 14.7339 26.41 14.71 26.41C14.5688 26.4162 14.4288 26.3818 14.3065 26.3109C14.1842 26.24 14.0848 26.1356 14.02 26.01L13.95 25.92C13.8262 26.0972 13.6408 26.222 13.43 26.27C13.2871 26.3347 13.1602 26.4301 13.0582 26.5493C12.9562 26.6686 12.8817 26.8088 12.84 26.96C12.8057 27.1335 12.7485 27.3016 12.67 27.46C12.6274 27.5689 12.5441 27.657 12.4377 27.7055C12.3313 27.754 12.2102 27.7592 12.1 27.72V28.1C12.0458 28.0861 11.995 28.0615 11.9505 28.0277C11.9059 27.9939 11.8686 27.9515 11.8407 27.9031C11.8127 27.8547 11.7947 27.8011 11.7877 27.7456C11.7808 27.6902 11.7849 27.6339 11.8 27.58C11.8122 27.524 11.8122 27.466 11.8 27.41C11.7304 27.2742 11.7134 27.1175 11.7521 26.9699C11.7909 26.8223 11.8827 26.6941 12.01 26.61C12.2058 26.4673 12.3751 26.2913 12.51 26.09C12.517 26.0672 12.517 26.0428 12.51 26.02L11.8 25.93C11.7131 25.9061 11.6222 25.9 11.5329 25.912C11.4435 25.924 11.3575 25.954 11.28 26L11.14 26.18C10.93 26.42 10.83 26.44 10.55 26.3C10.4397 26.494 10.3975 26.7193 10.43 26.94C10.3241 26.8368 10.251 26.7046 10.22 26.56C10.2078 26.4805 10.2078 26.3995 10.22 26.32V26.18C10.1971 26.1119 10.1971 26.0381 10.22 25.97C10.3038 25.7774 10.4574 25.6238 10.65 25.54C10.8624 25.4008 11.1068 25.3182 11.36 25.3C11.55 25.288 11.74 25.288 11.93 25.3H12.07C12.0276 25.1963 11.9638 25.1026 11.8828 25.0251C11.8019 24.9475 11.7055 24.8879 11.6 24.85L11.06 24.64C11.0004 24.6487 10.9398 24.6336 10.8912 24.5981C10.8426 24.5626 10.8098 24.5094 10.8 24.45C10.8 24.4261 10.7905 24.4032 10.7736 24.3864C10.7568 24.3695 10.7339 24.36 10.71 24.36C10.543 24.3595 10.3795 24.4082 10.24 24.5C10.31 24.29 10.41 24.07 10.64 24.03C10.743 24.018 10.847 24.018 10.95 24.03H11.04C11.18 23.82 11.39 23.86 11.58 23.96C11.857 24.092 12.087 24.304 12.24 24.57C12.2749 24.639 12.3242 24.6997 12.3846 24.748C12.445 24.7963 12.515 24.8311 12.59 24.85C12.6033 24.6671 12.5795 24.4834 12.52 24.31C12.5165 24.2295 12.4874 24.1522 12.4371 24.0893C12.3868 24.0264 12.3177 23.9811 12.24 23.96C12 23.89 11.93 23.72 12.05 23.46C11.9709 23.3898 11.8747 23.3417 11.7711 23.3206C11.6675 23.2996 11.5602 23.3063 11.46 23.34C11.53 23.15 11.81 23.08 12 23.1C12.1717 23.2026 12.3703 23.2514 12.57 23.24C12.637 23.2526 12.7 23.2809 12.7539 23.3226C12.8078 23.3644 12.851 23.4183 12.88 23.48L13.02 23.76C13.14 23.97 13.23 24.21 13.33 24.42C13.47 24.02 13.64 23.59 13.8 23.14L13.56 23.05L12.87 22.77C12.3436 22.5423 11.8439 22.2573 11.38 21.92C11.2988 21.8761 11.211 21.8457 11.12 21.83C11.05 21.83 10.95 21.92 11 22C11.05 22.08 11.12 22.09 11.17 22.17C11.22 22.25 11.17 22.24 11.26 22.29H11.14C10.9775 22.2937 10.8178 22.2479 10.682 22.1586C10.5462 22.0692 10.4409 21.9407 10.38 21.79C10.2327 21.4932 10.1444 21.1705 10.12 20.84C10.1247 20.8289 10.1271 20.817 10.1271 20.805C10.1271 20.793 10.1247 20.7811 10.12 20.77L9.48 20.06C9.43206 20.1821 9.43206 20.3179 9.48 20.44L9.55 20.58V20.75H9.36C9.25199 20.6318 9.16415 20.4967 9.1 20.35C9.01 20 8.96 19.64 8.89 19.29C8.8728 19.1147 8.84272 18.9409 8.8 18.77C8.74819 18.5698 8.68475 18.3728 8.61 18.18V18.73C8.61 18.78 8.49 18.73 8.47 18.64C8.36147 18.4536 8.29652 18.2451 8.28 18.03C8.26828 17.5252 8.33922 17.0219 8.49 16.54C8.53585 16.3633 8.59263 16.1897 8.66 16.02C8.63705 16.077 8.6068 16.1308 8.57 16.18L8.48 16.27V16.15C8.4771 15.9251 8.53589 15.7038 8.65 15.51C8.82 15.13 9.03 14.75 9.22 14.38C9.29849 14.2479 9.38533 14.121 9.48 14L9.31 14.18L9.19 14.25V14.18C9.25435 14.073 9.32446 13.9695 9.4 13.87C9.62496 13.5975 9.8876 13.3584 10.18 13.16C10.248 13.1364 10.322 13.1364 10.39 13.16L11.39 13.37L11.74 13.46C11.6447 13.5581 11.5639 13.6692 11.5 13.79C11.4693 13.8504 11.4532 13.9172 11.4532 13.985C11.4532 14.0528 11.4693 14.1196 11.5 14.18C11.5172 14.205 11.5264 14.2347 11.5264 14.265C11.5264 14.2954 11.5172 14.325 11.5 14.35C11.2724 14.5462 11.0797 14.7795 10.93 15.04V15.13C10.93 15.13 11.26 15.46 11.43 15.65C11.44 15.68 11.44 15.71 11.43 15.74C11.3544 15.8689 11.3146 16.0156 11.3146 16.165C11.3146 16.3144 11.3544 16.4611 11.43 16.59C11.4415 16.6346 11.4619 16.6764 11.49 16.7129C11.5181 16.7493 11.5534 16.7797 11.5936 16.8022C11.6338 16.8246 11.6781 16.8386 11.7239 16.8434C11.7697 16.8482 11.816 16.8436 11.86 16.83C11.8516 17.0244 11.9118 17.2155 12.03 17.37C12.1 17.44 12.2 17.49 12.27 17.56C12.3121 17.5894 12.3436 17.6314 12.36 17.68C12.4156 17.8582 12.5201 18.0173 12.6614 18.1393C12.8028 18.2612 12.9755 18.3411 13.16 18.37C13.448 18.41 13.74 18.35 13.99 18.2C14.08 18.2 14.11 18.13 14.13 18.2C14.186 18.549 14.298 18.886 14.46 19.2C14.667 19.566 14.923 19.902 15.22 20.2C15.487 20.455 15.814 20.64 16.17 20.74C16.61 20.839 17.07 20.715 17.4 20.41C17.6073 20.2002 17.7825 19.961 17.92 19.7L18.35 19.01C18.5392 18.7493 18.7811 18.5313 19.06 18.37C19.1063 18.3344 19.1599 18.3096 19.217 18.2975C19.2742 18.2854 19.3333 18.2862 19.39 18.3L19.32 18.44C19.2668 18.5256 19.2387 18.6243 19.2387 18.725C19.2387 18.8257 19.2668 18.9245 19.32 19.01C19.39 19.1 19.44 19.1 19.49 19.01C19.54 18.92 19.63 18.75 19.82 18.77C20.01 18.79 20.01 18.65 20.03 18.53C20.0498 18.0092 20.2049 17.5026 20.48 17.06C20.5313 17.0072 20.5884 16.9603 20.65 16.92V17.3C20.669 17.406 20.7 17.51 20.74 17.61L20.8 17.48C20.817 17.4441 20.844 17.4137 20.8776 17.3925C20.9112 17.3712 20.9502 17.36 20.99 17.36C21.0371 17.3518 21.0796 17.3269 21.11 17.29C21.1759 17.2125 21.2215 17.1198 21.2424 17.0203C21.2634 16.9207 21.2591 16.8175 21.23 16.72C21.2063 16.5709 21.2063 16.4191 21.23 16.27C21.2295 16.081 21.2777 15.895 21.37 15.73C21.3918 15.6785 21.4222 15.6312 21.46 15.59H21.53V15.92C21.5224 15.9495 21.5224 15.9805 21.53 16.01H21.62L21.8 15.89C21.8681 15.7682 21.8994 15.6292 21.89 15.49C21.8762 15.4106 21.8762 15.3294 21.89 15.25V14.43C21.89 14.32 21.89 14.31 21.96 14.24L22.07 14.18V14.62C22.0774 14.6051 22.0888 14.5925 22.1029 14.5837C22.117 14.5749 22.1333 14.5701 22.15 14.57ZM9.86 10.01L10.45 9.42001C10.4841 9.38288 10.5248 9.35237 10.57 9.33001C10.64 9.26001 10.57 9.19001 10.57 9.12001C10.57 9.05001 10.48 9.12001 10.4 9.12001H10.31V9.00001C10.3349 8.91808 10.3773 8.84256 10.4342 8.77866C10.4912 8.71477 10.5614 8.66404 10.64 8.63001C10.8985 8.53685 11.1815 8.53685 11.44 8.63001C11.4618 8.64062 11.4857 8.64613 11.51 8.64613C11.5343 8.64613 11.5582 8.64062 11.58 8.63001L12.15 8.32001C12.24 8.32001 12.22 8.23001 12.15 8.18001C12.08 8.13001 11.98 8.06001 11.89 8.18001C11.8605 8.18763 11.8295 8.18763 11.8 8.18001C11.8 8.01001 11.97 7.87001 12.13 7.80001C12.4 7.71701 12.69 7.71701 12.96 7.80001H13C13.07 7.80001 13.28 7.89001 13.45 7.80001L13.8 7.68001C13.89 7.68001 13.89 7.61001 13.8 7.56001C13.71 7.51001 13.68 7.42001 13.59 7.49001C13.5 7.56001 13.59 7.49001 13.5 7.49001C13.481 7.46964 13.4705 7.44284 13.4705 7.41501C13.4705 7.38717 13.481 7.36037 13.5 7.34001C13.6744 7.2085 13.8935 7.15101 14.11 7.18001C14.3068 7.19519 14.4947 7.26825 14.65 7.39001H14.72C14.7537 7.4295 14.7978 7.45884 14.8472 7.47473C14.8967 7.49062 14.9496 7.49245 15 7.48001C15.0574 7.44564 15.1231 7.4275 15.19 7.4275C15.2569 7.4275 15.3226 7.44564 15.38 7.48001H15.45V7.39001C15.4341 7.3284 15.3977 7.27404 15.3469 7.23587C15.296 7.1977 15.2336 7.178 15.17 7.18001H15.1C15.2188 7.08731 15.3598 7.02743 15.509 7.00637C15.6581 6.98531 15.8102 7.00381 15.95 7.06001C16.156 7.14401 16.336 7.28201 16.47 7.46001C16.5225 7.49239 16.5799 7.51603 16.64 7.53001C16.7767 7.52574 16.9129 7.54956 17.04 7.60001C17.16 7.67001 17.11 7.60001 17.13 7.69001C17.1452 7.65785 17.1539 7.623 17.1556 7.58748C17.1572 7.55195 17.1519 7.51644 17.1398 7.48299C17.1277 7.44954 17.1092 7.41881 17.0852 7.39255C17.0612 7.3663 17.0322 7.34504 17 7.33001H16.8V7.18001C16.909 7.1587 17.021 7.1587 17.13 7.18001C17.446 7.21701 17.73 7.38801 17.91 7.65001C17.98 7.77001 18.038 7.89701 18.08 8.03001C18.1651 8.01955 18.2514 8.0316 18.3304 8.06494C18.4093 8.09828 18.4782 8.15175 18.53 8.22001H18.6C18.6415 8.21161 18.6818 8.19817 18.72 8.18001C18.7178 8.10204 18.6917 8.02662 18.6452 7.96401C18.5987 7.90139 18.534 7.85461 18.46 7.83001H18.39C18.48 7.83001 18.56 7.76001 18.65 7.83001C18.8 7.84401 18.945 7.88501 19.08 7.95001C19.436 8.09501 19.702 8.39901 19.8 8.77001C19.97 8.86001 20.08 8.96001 20.2 9.03001H20.34V8.82001C20.3252 8.7486 20.2941 8.68161 20.2489 8.62434C20.2038 8.56707 20.146 8.52108 20.08 8.49001L19.99 8.42001C20.0994 8.39547 20.2133 8.4001 20.3204 8.43344C20.4275 8.46679 20.5239 8.52768 20.6 8.61001C20.785 8.76601 20.923 8.97001 21 9.20001C21.0081 9.23746 21.025 9.27244 21.0494 9.30201C21.0737 9.33159 21.1048 9.3549 21.14 9.37001C21.216 9.42701 21.286 9.49001 21.35 9.56001C21.44 9.30001 21.23 9.16001 21.16 8.97001C21.2363 8.97161 21.3114 8.98937 21.3804 9.02212C21.4493 9.05487 21.5105 9.10187 21.56 9.16001C21.7 9.30601 21.826 9.46301 21.94 9.63001C22.012 9.75201 22.092 9.86901 22.18 9.98001C22.252 10.114 22.299 10.26 22.32 10.41C22.3341 10.7491 22.2867 11.0879 22.18 11.41C22.1679 11.6298 22.1679 11.8502 22.18 12.07C22.19 12.1 22.19 12.13 22.18 12.16C22.0917 12.2328 22.0188 12.3224 21.9655 12.4238C21.9123 12.5251 21.8798 12.636 21.87 12.75C21.8225 13.0481 21.8225 13.3519 21.87 13.65V13.72C21.7324 13.8106 21.6194 13.9338 21.5409 14.0786C21.4624 14.2234 21.4209 14.3853 21.42 14.55V15.07C21.276 15.0992 21.1424 15.1666 21.0333 15.2651C20.9243 15.3636 20.8437 15.4897 20.8 15.63C20.73 15.77 20.71 15.94 20.63 16.08C20.55 16.22 20.54 16.17 20.49 16.22V16.03C20.5497 15.7171 20.5732 15.3983 20.56 15.08C20.5698 14.6102 20.4812 14.1436 20.3 13.71V13.54C20.4567 13.3802 20.5553 13.1725 20.58 12.95C20.6051 12.6171 20.6051 12.2829 20.58 11.95C20.5841 11.7139 20.4983 11.4851 20.34 11.31C20.2587 11.2266 20.1542 11.1696 20.04 11.1464C19.9259 11.1232 19.8074 11.1349 19.7 11.18C19.5605 11.239 19.4415 11.3378 19.3579 11.4641C19.2743 11.5904 19.2298 11.7386 19.23 11.89V12.24C18.8765 11.8856 18.4499 11.6125 17.98 11.44C17.7103 11.345 17.4325 11.2747 17.15 11.23H16.54C16.1457 11.2315 15.7542 11.2956 15.38 11.42C15.17 11.49 14.98 11.59 14.77 11.66C14.7484 11.6714 14.7244 11.6773 14.7 11.6773C14.6756 11.6773 14.6516 11.6714 14.63 11.66C14.1814 11.3894 13.6965 11.184 13.19 11.05C12.9514 10.9854 12.7068 10.9452 12.46 10.93C11.96 10.83 11.46 10.76 11.04 10.63C10.664 10.5403 10.3057 10.3882 9.98 10.18C9.95761 10.1128 9.91586 10.0536 9.86 10.01ZM19.31 14.71C19.31 14.88 19 14.92 18.67 14.83V15.18C18.675 15.2199 18.675 15.2602 18.67 15.3H18.53C18.4309 15.2197 18.3374 15.1329 18.25 15.04C18.1913 15.0653 18.1392 15.1037 18.0976 15.1523C18.056 15.2008 18.0261 15.2582 18.01 15.32C17.94 15.51 17.84 15.53 17.7 15.32C17.6483 15.2676 17.5914 15.2206 17.53 15.18C17.4659 15.2712 17.3957 15.3581 17.32 15.44C17.3026 15.4605 17.2812 15.4772 17.2571 15.4893C17.2331 15.5013 17.2068 15.5084 17.18 15.51C17.1441 15.4748 17.1138 15.4343 17.09 15.39C17.0797 15.3204 17.0797 15.2496 17.09 15.18C16.97 15.49 16.83 15.75 16.48 15.82C16.4672 15.6893 16.4915 15.5576 16.55 15.44C16.62 15.32 16.55 15.44 16.55 15.37C16.3939 15.52 16.3009 15.7238 16.29 15.94C16.306 16.373 16.418 16.797 16.62 17.18C16.76 17.53 16.93 17.87 17.07 18.18C17.198 18.497 17.256 18.838 17.24 19.18C17.2561 19.3539 17.2212 19.5287 17.1397 19.6831C17.0582 19.8375 16.9335 19.9648 16.7809 20.0496C16.6283 20.1344 16.4543 20.173 16.2801 20.1606C16.1059 20.1483 15.9391 20.0855 15.8 19.98C15.5714 19.8383 15.3713 19.6552 15.21 19.44C15.07 19.25 14.93 19.06 14.81 18.87C14.7429 18.731 14.6861 18.5873 14.64 18.44V18.3C14.6959 18.2966 14.7513 18.3113 14.7982 18.3419C14.845 18.3725 14.8807 18.4175 14.9 18.47C14.95 18.55 15.16 18.87 15.3 19.06C15.415 19.29 15.588 19.486 15.8 19.63C15.8703 19.6596 15.9456 19.6751 16.0219 19.6755C16.0981 19.6759 16.1737 19.6613 16.2443 19.6326C16.3149 19.6038 16.3791 19.5613 16.4332 19.5077C16.4874 19.4541 16.5305 19.3903 16.56 19.32V19.25C16.6021 19.1255 16.6177 18.9935 16.6056 18.8626C16.5935 18.7317 16.5542 18.6047 16.49 18.49C16.32 18.11 16.11 17.73 15.92 17.36C15.7001 16.9612 15.5481 16.5287 15.47 16.08C15.4582 15.9703 15.4582 15.8597 15.47 15.75C15.32 15.762 15.17 15.762 15.02 15.75L14.57 15.63L14.36 15.77C14.3694 15.7238 14.3694 15.6762 14.36 15.63C14.3621 15.5384 14.3389 15.4479 14.2931 15.3686C14.2472 15.2892 14.1804 15.224 14.1 15.18C14.0496 15.18 14.0013 15.2 13.9656 15.2357C13.93 15.2713 13.91 15.3196 13.91 15.37C13.9027 15.472 13.923 15.5742 13.9687 15.6656C14.0145 15.7571 14.084 15.8346 14.17 15.89L14.57 16.17C14.71 16.26 14.69 16.26 14.76 16.17C14.7697 16.1238 14.7697 16.0762 14.76 16.03C14.95 16.03 15.02 16.15 15.04 16.34C15.086 16.58 15.15 16.818 15.23 17.05C15.2344 17.1003 15.2286 17.151 15.2132 17.1991C15.1977 17.2471 15.1729 17.2917 15.14 17.33C15.0165 17.4856 14.8545 17.6063 14.67 17.68C14.5188 17.7386 14.3512 17.7386 14.2 17.68C14.2873 17.5932 14.3809 17.513 14.48 17.44C14.522 17.3973 14.5523 17.3445 14.5681 17.2868C14.5838 17.229 14.5845 17.1681 14.57 17.11C14.5628 17.0912 14.5506 17.0748 14.5348 17.0624C14.5189 17.0501 14.5 17.0423 14.48 17.04C14.387 17.0285 14.293 17.0285 14.2 17.04C14.1276 17.0452 14.0598 17.0773 14.01 17.13C13.8461 17.2601 13.6722 17.3771 13.49 17.48C13.3416 17.5571 13.1725 17.585 13.0072 17.5598C12.8419 17.5347 12.6888 17.4577 12.57 17.34C12.4846 17.2443 12.4199 17.1319 12.38 17.01L12.31 16.87C12.2748 16.9059 12.2343 16.9362 12.19 16.96C12.14 16.96 12.12 16.84 12.19 16.82C12.219 16.69 12.26 16.563 12.31 16.44C12.3214 16.4184 12.3273 16.3944 12.3273 16.37C12.3273 16.3456 12.3214 16.3216 12.31 16.3C12.23 16.1888 12.1234 16.0994 12 16.04C11.91 15.97 11.83 16.04 11.76 16.04H11.64C11.6424 16 11.6424 15.96 11.64 15.92C11.6569 15.8147 11.7035 15.7164 11.7744 15.6367C11.8452 15.557 11.9374 15.4991 12.04 15.47H12.16C11.8733 15.3606 11.614 15.19 11.4 14.97C11.33 14.9 11.31 14.85 11.4 14.78C11.49 14.71 11.66 14.55 11.8 14.45C12.0685 14.3547 12.3615 14.3547 12.63 14.45C12.877 14.532 13.103 14.668 13.29 14.85L13.36 14.92C13.3036 14.7488 13.2083 14.5929 13.0817 14.4645C12.9551 14.3361 12.8005 14.2388 12.63 14.18C12.3254 14.0666 12.0047 14.0025 11.68 13.99C11.6961 13.9294 11.7291 13.8747 11.7751 13.8322C11.8212 13.7897 11.8783 13.7612 11.94 13.75L12.48 13.65C12.672 13.6073 12.8506 13.518 13 13.39C12.9035 13.3105 12.7997 13.2402 12.69 13.18C12.41 13.06 12.12 12.92 11.84 12.83C11.5856 12.7178 11.316 12.6436 11.04 12.61C10.6546 12.5562 10.2759 12.4623 9.91 12.33C9.46844 12.2095 9.04719 12.0241 8.66 11.78C8.26 11.52 7.92 11.18 7.66 10.78C7.59938 10.6765 7.55233 10.5656 7.52 10.45V10.33H7.64L7.8 10.42C8.06 10.63 8.3 10.89 8.56 11.08C8.87894 11.3115 9.2385 11.4811 9.62 11.58C9.93 11.65 10.23 11.72 10.54 11.77C10.85 11.82 11.06 11.77 11.32 11.84L11.89 11.91C12.107 11.925 12.322 11.965 12.53 12.03C12.86 12.15 13.17 12.29 13.48 12.41C13.4979 12.4216 13.5187 12.4278 13.54 12.4278C13.5613 12.4278 13.5821 12.4216 13.6 12.41C13.73 12.381 13.857 12.34 13.98 12.29V12.18C13.7494 12.0514 13.5125 11.9345 13.27 11.83C12.8153 11.6512 12.3369 11.54 11.85 11.5L11.19 11.43C10.8283 11.3701 10.4708 11.2866 10.12 11.18C9.75686 11.0479 9.41874 10.8551 9.12 10.61C8.86855 10.4159 8.68056 10.1513 8.58 9.85001V9.64001C8.60692 9.62873 8.63581 9.62292 8.665 9.62292C8.69419 9.62292 8.72308 9.62873 8.75 9.64001L9.01 9.92001C9.15 10.06 9.29 10.2 9.46 10.35C9.856 10.66 10.312 10.885 10.8 11.01C11.08 11.08 11.37 11.13 11.65 11.18C12.1 11.25 12.57 11.32 13.02 11.42C13.5535 11.5157 14.0511 11.7541 14.46 12.11C14.63 12.25 14.77 12.18 14.93 12.11C15.0147 12.094 15.1024 12.1058 15.1799 12.1436C15.2574 12.1815 15.3205 12.2433 15.36 12.32C15.48 12.643 15.48 12.997 15.36 13.32C15.3492 13.3798 15.3568 13.4414 15.3818 13.4968C15.4068 13.5521 15.448 13.5986 15.5 13.63H15.62C15.7596 13.5728 15.9119 13.5537 16.0613 13.5748C16.2106 13.5959 16.3517 13.6564 16.47 13.75C16.507 13.7792 16.5528 13.7951 16.6 13.7951C16.6472 13.7951 16.693 13.7792 16.73 13.75C16.9261 13.6583 17.1165 13.5548 17.3 13.44C17.49 13.32 17.39 13.27 17.44 13.18C17.5081 13.0416 17.6184 12.9283 17.755 12.8564C17.8915 12.7846 18.0473 12.7578 18.2 12.78C18.415 12.78 18.63 12.803 18.84 12.85C19.0103 12.8959 19.1897 12.8959 19.36 12.85C19.4673 12.8371 19.5678 12.7905 19.6469 12.7168C19.726 12.6431 19.7796 12.5462 19.8 12.44V11.8C19.8 11.73 19.8 11.66 19.92 11.66C20.04 11.66 20.01 11.75 20.01 11.83C20.082 12.16 20.082 12.5 20.01 12.83C19.9901 12.9726 19.915 13.1017 19.801 13.1896C19.6869 13.2775 19.543 13.3171 19.4 13.3H18.55C18.4349 13.2927 18.321 13.3271 18.2292 13.3969C18.1374 13.4667 18.0738 13.5672 18.05 13.68C18.039 13.726 18.039 13.774 18.05 13.82C18.12 13.96 18.17 14.08 18.38 14.06C18.492 14.07 18.58 14.158 18.59 14.27C18.6118 14.3898 18.6727 14.4989 18.7632 14.5804C18.8537 14.6618 18.9686 14.7109 19.09 14.72L19.31 14.71ZM13.74 14.02C13.86 14.143 13.987 14.26 14.12 14.37C14.1877 14.4211 14.2702 14.4488 14.355 14.4488C14.4398 14.4488 14.5223 14.4211 14.59 14.37C14.7221 14.2915 14.849 14.2047 14.97 14.11V14.04C14.9587 13.9947 14.9376 13.9525 14.9083 13.9162C14.8789 13.8799 14.8419 13.8505 14.8 13.83C14.7148 13.8075 14.6252 13.8075 14.54 13.83L14.37 13.9C14.1997 13.9459 14.0203 13.9459 13.85 13.9L13.74 14.02ZM17 14.35C17.0408 14.3836 17.0886 14.4075 17.14 14.42C17.315 14.4534 17.4736 14.5451 17.59 14.68C17.706 14.691 17.824 14.691 17.94 14.68C18.01 14.68 18.06 14.61 18.13 14.59C18.0728 14.5209 18.0092 14.4572 17.94 14.4C17.642 14.2745 17.3096 14.2568 17 14.35ZM4.54 17.43C4.66507 17.5638 4.82446 17.6606 5.0008 17.71C5.17714 17.7594 5.36366 17.7594 5.54 17.71C5.59884 17.6926 5.6529 17.6619 5.69798 17.6203C5.74306 17.5787 5.77797 17.5273 5.8 17.47C5.42511 17.5566 5.03163 17.507 4.69 17.33C4.52841 17.2378 4.38795 17.1128 4.27771 16.9629C4.16747 16.813 4.0899 16.6417 4.05 16.46C3.97512 16.1938 3.98711 15.9106 4.08422 15.6516C4.18134 15.3926 4.35851 15.1714 4.59 15.02C4.48672 15.3515 4.51929 15.7105 4.68055 16.018C4.84181 16.3255 5.11857 16.5564 5.45 16.66H5.59C5.88814 16.722 6.19844 16.6829 6.47189 16.5489C6.74534 16.4149 6.96635 16.1936 7.1 15.92C6.99521 16.001 6.89506 16.0878 6.8 16.18C6.363 16.48 5.787 16.48 5.35 16.18C5.23148 16.1018 5.1334 15.9963 5.06395 15.8724C4.99451 15.7485 4.95572 15.6098 4.95083 15.4679C4.94593 15.326 4.97508 15.1849 5.03582 15.0566C5.09657 14.9282 5.18715 14.8162 5.3 14.73C5.31344 14.8135 5.34562 14.8929 5.39411 14.9621C5.4426 15.0314 5.50616 15.0888 5.58 15.13C5.72679 15.2109 5.8854 15.2683 6.05 15.3C6.2293 15.3288 6.41282 15.3158 6.58626 15.262C6.75971 15.2082 6.91841 15.1151 7.05 14.99C7.19478 14.8414 7.30715 14.6643 7.38 14.47C7.57 14.02 7.71 13.55 7.92 13.1C8.05596 12.8257 8.20617 12.5587 8.37 12.3C8.37 12.23 8.46 12.3 8.51 12.3L9.03 12.58L9.36 12.72L9.22 12.84C8.90667 13.174 8.63778 13.5471 8.42 13.95C8.25 14.26 8.09 14.54 7.95 14.85C7.81 15.16 7.67 15.56 7.55 15.91L7.27 16.71C7.2 16.92 7.1 17.11 7.01 17.32C6.87594 17.6241 6.64347 17.8741 6.35 18.03C6.1776 18.1138 5.99107 18.1647 5.8 18.18C5.61075 18.2039 5.41925 18.2039 5.23 18.18C5.07683 18.1683 4.93082 18.1104 4.81121 18.014C4.6916 17.9176 4.60402 17.7872 4.56 17.64C4.57385 17.5695 4.5669 17.4966 4.54 17.43ZM18.61 16.63C18.622 16.74 18.622 16.85 18.61 16.96C18.61 17.1 18.52 17.1 18.4 17.03L18.12 16.89H18C18.0405 16.9707 18.0615 17.0597 18.0615 17.15C18.0615 17.2403 18.0405 17.3293 18 17.41C17.9836 17.4586 17.9521 17.5007 17.91 17.53H17.8L17.73 17.32C17.7058 17.2646 17.6608 17.2209 17.6046 17.1985C17.5485 17.176 17.4857 17.1766 17.43 17.2C17.3373 17.2254 17.2494 17.2659 17.17 17.32H17.03C16.8573 16.9893 16.7455 16.6303 16.7 16.26L16.8 16.38C16.8819 16.4425 16.982 16.4763 17.085 16.4763C17.188 16.4763 17.2881 16.4425 17.37 16.38C17.3941 16.3283 17.4066 16.272 17.4066 16.215C17.4066 16.158 17.3941 16.1017 17.37 16.05C17.37 15.98 17.3 15.93 17.28 15.86C17.42 15.86 17.42 15.74 17.78 16.17L18.04 16.03C18.13 16.03 18.04 15.89 18.04 15.84V15.63L18.21 15.7C18.2586 15.7164 18.3006 15.748 18.33 15.79C18.4793 15.9583 18.647 16.1092 18.83 16.24C18.8856 16.286 18.9299 16.3443 18.9594 16.4102C18.9888 16.4761 19.0028 16.5479 19 16.62V16.71H18.93C18.68 16.63 18.68 16.63 18.61 16.63ZM6.8 15.04C6.60706 14.9263 6.3828 14.8772 6.16 14.9C6.06702 14.9115 5.97298 14.9115 5.88 14.9C5.82177 14.8903 5.76658 14.8672 5.71883 14.8325C5.67108 14.7978 5.63207 14.7525 5.6049 14.7001C5.57772 14.6477 5.56313 14.5896 5.56228 14.5306C5.56143 14.4716 5.57435 14.4132 5.6 14.36C5.69 14.36 5.77 14.48 5.86 14.53C5.95 14.58 5.98 14.53 5.98 14.46C5.97682 14.4016 5.99134 14.3437 6.02168 14.2937C6.05202 14.2437 6.09675 14.2041 6.15 14.18C6.22618 14.1533 6.30816 14.1475 6.38733 14.1633C6.46651 14.1792 6.53997 14.216 6.6 14.27C6.802 14.47 6.88 14.766 6.8 15.04Z" fill="white"/>
</g>
<defs>
<clipPath id="clip0_16_435">
<rect width="32" height="32" fill="white"/>
</clipPath>
</defs>
</svg>
