<svg width="32" height="32" viewBox="0 0 32 32" fill="none" xmlns="http://www.w3.org/2000/svg">
<g clip-path="url(#clip0_16_476)">
<path d="M16 32C24.8366 32 32 24.8366 32 16C32 7.16344 24.8366 0 16 0C7.16344 0 0 7.16344 0 16C0 24.8366 7.16344 32 16 32Z" fill="#35BAEB"/>
<path d="M9.03 5L15.304 10.565C15.377 10.632 15.456 10.688 15.517 10.76C15.524 10.8026 15.527 10.8458 15.526 10.889C15.523 13.286 15.532 15.681 15.523 18.075C15.2092 18.1396 14.9084 18.2562 14.633 18.42L9.09 12.878C9.06864 12.8606 9.05202 12.8381 9.0417 12.8126C9.03139 12.7871 9.02771 12.7593 9.031 12.732C9.037 10.154 9.031 7.578 9.037 5.002L9.03 5ZM16.477 13.607C17.9964 13.7086 19.4406 14.305 20.589 15.305C20.262 15.655 19.909 15.985 19.571 16.328C18.857 17.04 18.148 17.758 17.431 18.463C17.1414 18.274 16.8182 18.1423 16.479 18.075C16.471 16.588 16.479 15.098 16.479 13.607H16.477ZM9.033 14.275C10.661 15.888 12.279 17.512 13.904 19.128C13.714 19.423 13.578 19.748 13.502 20.091H9.03V14.272L9.033 14.275ZM20.639 16.608C20.852 16.404 21.047 16.185 21.272 15.988C22.2721 17.1318 22.8693 18.5721 22.972 20.088C21.505 20.094 20.035 20.088 18.568 20.091C18.48 20.111 18.48 20.009 18.463 19.954C18.3927 19.6644 18.2711 19.3897 18.104 19.143C18.944 18.297 19.793 17.454 20.639 16.611V16.608ZM9.03 21.042H12.851C13.07 21.042 13.289 21.032 13.511 21.047C13.579 21.385 13.711 21.707 13.898 21.995L10.798 25.087C10.775 25.105 10.737 25.16 10.71 25.117C9.72069 23.9782 9.13073 22.5472 9.03 21.042ZM18.492 21.047C19.122 21.033 19.746 21.047 20.376 21.042H22.972C22.8739 22.5346 22.2922 23.9545 21.315 25.087L19.507 23.285C19.055 22.83 18.594 22.383 18.147 21.922C18.314 21.654 18.431 21.357 18.492 21.047ZM17.238 22.777C17.308 22.737 17.378 22.695 17.448 22.66L20.604 25.81C19.4542 26.8184 18.0032 27.4186 16.477 27.517V23.054C16.7427 23.0006 16.9984 22.9061 17.235 22.774L17.238 22.777ZM12.647 24.571C13.289 23.935 13.924 23.291 14.572 22.661C14.862 22.847 15.185 22.981 15.522 23.054V27.517C14.0021 27.4179 12.557 26.8211 11.41 25.819C11.813 25.396 12.236 24.991 12.647 24.574V24.571Z" fill="white"/>
</g>
<defs>
<clipPath id="clip0_16_476">
<rect width="32" height="32" fill="white"/>
</clipPath>
</defs>
</svg>
