<svg width="32" height="32" viewBox="0 0 32 32" fill="none" xmlns="http://www.w3.org/2000/svg">
<g clip-path="url(#clip0_16_488)">
<path d="M16 32C24.8366 32 32 24.8366 32 16C32 7.16344 24.8366 0 16 0C7.16344 0 0 7.16344 0 16C0 24.8366 7.16344 32 16 32Z" fill="#FB2EA3"/>
<path d="M22.632 14.02C22.405 15.555 21.554 16.298 20.425 16.558C21.975 17.365 22.765 18.604 22.013 20.75C21.08 23.416 18.864 23.64 15.917 23.083L15.2 25.95L13.472 25.519L14.178 22.691C13.7174 22.5766 13.258 22.4573 12.8 22.333L12.092 25.175L10.365 24.745L11.081 21.872C10.677 21.769 10.267 21.659 9.848 21.554L7.599 20.994L8.457 19.014C8.457 19.014 9.731 19.354 9.713 19.328C10.203 19.449 10.42 19.13 10.506 18.918L11.636 14.386L11.819 14.431C11.7603 14.4081 11.7002 14.389 11.639 14.374L12.445 11.139C12.466 10.771 12.34 10.309 11.64 10.133C11.667 10.115 10.384 9.821 10.384 9.821L10.844 7.975L13.228 8.57L13.226 8.58C13.584 8.668 13.954 8.753 14.33 8.839L15.039 6L16.767 6.43L16.073 9.214C16.536 9.32 17.003 9.426 17.457 9.54L18.147 6.775L19.875 7.205L19.167 10.045C21.35 10.797 22.946 11.924 22.632 14.02ZM18.682 19.558C19.242 17.32 15.484 16.741 14.312 16.448L13.363 20.253C14.535 20.544 18.149 21.705 18.683 19.558H18.682ZM19.217 13.989C19.725 11.952 16.583 11.499 15.607 11.255L14.747 14.706C15.722 14.95 18.73 15.942 19.217 13.989ZM24.247 21.618C24.1632 21.6068 24.078 21.6122 23.9963 21.634C23.9146 21.6558 23.8381 21.6935 23.771 21.745C23.641 21.8564 23.5529 22.0088 23.521 22.177C23.5005 22.2705 23.4938 22.3665 23.501 22.462C23.5096 22.5708 23.5446 22.6758 23.603 22.768C23.663 22.868 23.759 22.962 23.889 23.05C24.019 23.137 24.199 23.207 24.429 23.26C24.553 23.29 24.681 23.304 24.812 23.303C24.944 23.303 25.066 23.282 25.178 23.24C25.2964 23.1982 25.402 23.1264 25.4844 23.0315C25.5668 22.9367 25.6232 22.8221 25.648 22.699C25.6716 22.6112 25.6776 22.5196 25.6655 22.4295C25.6535 22.3394 25.6238 22.2525 25.578 22.174C25.486 22.02 25.335 21.902 25.124 21.82L25.278 21.154C25.658 21.307 25.924 21.526 26.078 21.809C26.232 22.093 26.264 22.43 26.174 22.82C26.1284 23.0363 26.0382 23.2407 25.909 23.42C25.7929 23.5782 25.6442 23.7096 25.4728 23.8051C25.3015 23.9007 25.1116 23.9583 24.916 23.974C24.7009 23.9935 24.484 23.9776 24.274 23.927C24.058 23.8788 23.8506 23.7979 23.659 23.687C23.4824 23.5858 23.3283 23.4497 23.206 23.287C23.0871 23.1253 23.0058 22.9391 22.968 22.742C22.9276 22.5158 22.9362 22.2836 22.993 22.061C23.0313 21.892 23.0929 21.7291 23.176 21.577C23.257 21.429 23.356 21.304 23.475 21.202C23.593 21.1 23.729 21.026 23.883 20.98C24.038 20.933 24.21 20.924 24.401 20.951L24.247 21.618ZM26.939 19.505C26.8919 19.7273 26.8004 19.9379 26.67 20.124C26.547 20.294 26.4 20.428 26.23 20.527C26.0541 20.6269 25.8593 20.6889 25.658 20.709C25.4347 20.7313 25.2092 20.7158 24.991 20.663C24.7737 20.615 24.566 20.5305 24.377 20.413C24.2051 20.3068 24.0572 20.1657 23.943 19.999C23.8309 19.8315 23.7559 19.6419 23.723 19.443C23.6877 19.2189 23.6979 18.99 23.753 18.77C23.8001 18.5477 23.8916 18.3371 24.022 18.151C24.146 17.981 24.292 17.846 24.463 17.748C24.6389 17.6481 24.8337 17.5861 25.035 17.566C25.245 17.543 25.465 17.558 25.695 17.611C25.9142 17.659 26.1238 17.7435 26.315 17.861C26.495 17.975 26.639 18.113 26.749 18.276C26.859 18.439 26.932 18.624 26.969 18.831C27.0044 19.0554 26.9942 19.2846 26.939 19.505ZM24.315 16.707L24.46 16.082L25.044 16.217L25.047 16.205C24.9654 16.163 24.893 16.1052 24.834 16.035C24.6983 15.8772 24.6084 15.6853 24.574 15.48C24.5572 15.3763 24.5606 15.2704 24.584 15.168C24.6021 15.0836 24.6275 15.001 24.66 14.921L25.303 15.069C25.2843 15.1149 25.2666 15.1613 25.25 15.208C25.2332 15.2541 25.2192 15.3012 25.208 15.349C25.1804 15.4587 25.1779 15.5733 25.2007 15.6841C25.2236 15.7949 25.2712 15.8992 25.34 15.989C25.4179 16.0896 25.5143 16.1745 25.624 16.239C25.743 16.312 25.886 16.368 26.054 16.407L27.492 16.739L27.338 17.405L24.315 16.707ZM26.595 14.517C26.711 14.545 26.828 14.554 26.945 14.547C27.0561 14.54 27.1648 14.5115 27.265 14.463C27.3644 14.4143 27.4515 14.3439 27.52 14.257C27.5972 14.1552 27.6506 14.0373 27.676 13.912C27.7224 13.7476 27.7165 13.5729 27.659 13.412C27.5941 13.2639 27.4837 13.1403 27.344 13.059L27.489 12.428C27.7059 12.5266 27.8913 12.6833 28.0245 12.8809C28.1578 13.0784 28.2338 13.3089 28.244 13.547C28.254 13.707 28.24 13.869 28.203 14.033C28.148 14.271 28.06 14.473 27.94 14.638C27.8247 14.8 27.6748 14.9343 27.5011 15.0311C27.3274 15.128 27.1344 15.185 26.936 15.198C26.498 15.233 26.06 15.1295 25.684 14.902C25.5121 14.7945 25.3621 14.6554 25.242 14.492C25.125 14.3307 25.043 14.1468 25.001 13.952C24.956 13.754 24.961 13.542 25.012 13.315C25.0597 13.0917 25.1617 12.8835 25.309 12.709C25.447 12.5472 25.6187 12.4175 25.812 12.329C26.0097 12.2415 26.2228 12.1939 26.439 12.189C26.665 12.181 26.887 12.217 27.107 12.296L26.594 14.518L26.595 14.517ZM26.413 19.384C26.446 19.2559 26.446 19.1215 26.4132 18.9934C26.3803 18.8652 26.3156 18.7474 26.225 18.651C26.1376 18.5556 26.034 18.4764 25.919 18.417C25.6804 18.2915 25.4135 18.2295 25.144 18.237C25.0147 18.2395 24.8869 18.2656 24.767 18.314C24.6439 18.3615 24.5347 18.4392 24.4496 18.5401C24.3644 18.641 24.3061 18.7616 24.28 18.891C24.2467 19.0186 24.2461 19.1526 24.2783 19.2806C24.3104 19.4085 24.3743 19.5263 24.464 19.623C24.547 19.717 24.649 19.794 24.77 19.857C25.0088 19.982 25.2755 20.044 25.545 20.037C25.6746 20.0338 25.8025 20.0077 25.923 19.96C26.0466 19.913 26.1563 19.8356 26.2419 19.7349C26.3276 19.6342 26.3864 19.5135 26.413 19.384ZM26.515 12.861C26.409 12.8444 26.3012 12.8434 26.195 12.858C26.0939 12.8693 25.9959 12.9005 25.9069 12.9497C25.8178 12.999 25.7394 13.0654 25.676 13.145C25.6104 13.2336 25.5634 13.3346 25.5376 13.4418C25.5118 13.549 25.5079 13.6602 25.526 13.769C25.546 13.874 25.583 13.969 25.639 14.054C25.7625 14.2329 25.9458 14.3616 26.156 14.417L26.515 12.861Z" fill="white"/>
</g>
<defs>
<clipPath id="clip0_16_488">
<rect width="32" height="32" fill="white"/>
</clipPath>
</defs>
</svg>
