<svg width="32" height="32" viewBox="0 0 32 32" fill="none" xmlns="http://www.w3.org/2000/svg">
<g clip-path="url(#clip0_16_506)">
<path d="M16 32C24.8366 32 32 24.8366 32 16C32 7.16344 24.8366 0 16 0C7.16344 0 0 7.16344 0 16C0 24.8366 7.16344 32 16 32Z" fill="#36B0F3"/>
<path fill-rule="evenodd" clip-rule="evenodd" d="M14.09 4.261C14.89 4.101 15.705 4.032 16.52 4.055C17.028 4.055 17.536 4.101 18.037 4.192C19.012 4.326 19.952 4.636 20.869 4.984C21.536 5.282 22.235 5.562 22.777 6.068C22.928 6.178 22.847 6.398 22.713 6.485C22.403 6.684 22.03 6.741 21.676 6.819C20.08 7.093 18.456 7.216 16.888 7.641C16.185 7.799 15.509 8.057 14.84 8.324C13.597 8.88 12.454 9.697 11.627 10.789C11.469 11.02 11.3169 11.2551 11.171 11.494C11.04 11.749 10.908 12.004 10.801 12.271C10.721 12.462 10.647 12.655 10.577 12.849C10.436 13.262 10.367 13.693 10.262 14.117C10.229 14.395 10.21 14.675 10.152 14.95C10.115 15.58 10.133 16.21 10.138 16.84C10.138 17.05 10.195 17.256 10.198 17.467C10.201 17.661 10.228 17.854 10.28 18.041C10.38 18.566 10.502 19.098 10.725 19.589C11.014 20.286 11.464 20.939 12.104 21.354C12.635 21.748 13.292 21.916 13.936 22.016C14.796 22.128 15.669 22.026 16.516 21.872C16.959 21.792 17.399 21.692 17.836 21.575C18.113 21.497 18.398 21.445 18.672 21.352C18.7771 21.3339 18.8834 21.3238 18.99 21.322C18.647 21.628 18.302 21.932 17.914 22.179C16.592 23.031 15.055 23.475 13.522 23.761C12.829 23.903 12.124 23.987 11.426 24.107C10.631 24.222 9.80699 24.317 9.08999 24.707C8.87599 24.857 8.70999 25.061 8.56099 25.273C8.51599 25.365 8.43099 25.273 8.38099 25.24C8.21799 25.053 8.00899 24.916 7.83199 24.743C7.64317 24.5612 7.4578 24.3758 7.27599 24.187C6.98499 23.848 6.68599 23.514 6.42899 23.149C5.91699 22.455 5.46399 21.712 5.13199 20.916L5.07399 20.89C5.03199 20.661 4.91599 20.459 4.83899 20.242C4.65741 19.7665 4.51036 19.2786 4.39899 18.782C4.35501 18.6303 4.32061 18.476 4.29599 18.32C4.24226 18.1445 4.21002 17.9632 4.19999 17.78C4.10199 17.35 4.11999 16.906 4.05799 16.472C4.05799 16.11 4.03399 15.745 4.07799 15.384C4.12599 15.084 4.10599 14.777 4.16799 14.478C4.22899 14.235 4.21699 13.981 4.29399 13.742C4.39005 13.2072 4.53054 12.6814 4.71399 12.17C4.78599 11.982 4.85099 11.792 4.91799 11.603C4.95799 11.516 4.99099 11.427 5.01799 11.336L5.07099 11.273C5.13507 11.0852 5.21782 10.9043 5.31799 10.733C5.41757 10.5245 5.526 10.3203 5.64299 10.121C5.67699 10.05 5.71499 9.981 5.75499 9.911C6.38499 8.924 7.12099 7.989 8.00699 7.217C9.10609 6.23864 10.3682 5.46053 11.736 4.918C12.4965 4.61906 13.2856 4.39891 14.091 4.261H14.09Z" fill="white"/>
<path fill-rule="evenodd" clip-rule="evenodd" d="M23.241 7.38999C23.461 7.26199 23.612 7.05499 23.764 6.85799C24.9643 7.88425 25.9503 9.13728 26.6655 10.5453C27.3807 11.9533 27.811 13.4886 27.9318 15.0632C28.0525 16.6378 27.8614 18.2208 27.3693 19.7214C26.8772 21.222 26.0938 22.6107 25.064 23.808C23.227 25.966 20.589 27.432 17.778 27.821C16.485 28.011 15.168 27.961 13.876 27.784C12.886 27.644 11.918 27.374 10.999 26.979C10.499 26.759 10.002 26.501 9.61098 26.111C9.50998 26.023 9.44598 25.877 9.51298 25.75C9.61298 25.595 9.79298 25.518 9.96298 25.463C10.448 25.323 10.947 25.241 11.446 25.164C12.348 25.007 13.259 24.906 14.154 24.709C15.641 24.388 17.128 23.933 18.414 23.099C19.288 22.541 20.058 21.815 20.625 20.945C21.439 19.717 21.815 18.246 21.905 16.788C21.95 15.703 21.925 14.608 21.698 13.542C21.491 12.622 21.128 11.695 20.441 11.025C19.916 10.486 19.201 10.151 18.463 10.023C17.238 9.79399 15.987 10.015 14.787 10.285C14.225 10.418 13.671 10.585 13.103 10.695C13.911 9.93399 14.9 9.38999 15.939 9.01799C16.536 8.79699 17.156 8.64999 17.773 8.50499C19.125 8.20099 20.509 8.08499 21.873 7.85099C22.349 7.75099 22.833 7.65499 23.241 7.38999Z" fill="white"/>
</g>
<defs>
<clipPath id="clip0_16_506">
<rect width="32" height="32" fill="white"/>
</clipPath>
</defs>
</svg>
