<svg width="32" height="32" viewBox="0 0 32 32" fill="none" xmlns="http://www.w3.org/2000/svg">
<g clip-path="url(#clip0_16_542)">
<path d="M16 32C24.8366 32 32 24.8366 32 16C32 7.16344 24.8366 0 16 0C7.16344 0 0 7.16344 0 16C0 24.8366 7.16344 32 16 32Z" fill="#0576B4"/>
<path d="M24.668 18.863L23.609 18.2L25.919 18.173L25.967 18.147V18.172L26.921 18.162L25.302 20.796L25.157 19.526L17.793 23.589L15 19.86L7.17 23.986V23.046L15.243 18.793L18.035 22.522L24.669 18.863H24.668ZM14.556 17.958L11.496 19.569V8.644H14.556V17.958ZM23.209 18.439L20.149 20.139V8.644H23.209V18.439Z" fill="white"/>
<path opacity="0.5" d="M18.883 20.843L18.226 21.207L15.822 17.997V9.894H18.882V20.843H18.883ZM10.229 20.236L7.169 21.848V11.312H10.229V20.236Z" fill="white"/>
</g>
<defs>
<clipPath id="clip0_16_542">
<rect width="32" height="32" fill="white"/>
</clipPath>
</defs>
</svg>
