<svg width="32" height="32" viewBox="0 0 32 32" fill="none" xmlns="http://www.w3.org/2000/svg">
<g clip-path="url(#clip0_16_560)">
<path d="M16 32C24.8366 32 32 24.8366 32 16C32 7.16344 24.8366 0 16 0C7.16344 0 0 7.16344 0 16C0 24.8366 7.16344 32 16 32Z" fill="#C1A05C"/>
<path fill-rule="evenodd" clip-rule="evenodd" d="M16.276 26C13.957 25.994 11.881 25.282 10.027 23.92C9.534 23.558 9.519 23.35 9.939 22.899L9.977 22.859C10.49 22.303 10.487 22.306 11.096 22.744C12.4994 23.7694 14.1816 24.3435 15.919 24.39C17.765 24.454 19.461 24.013 20.994 23.024C22.833 21.838 24.087 20.186 24.612 18.077C25.271 15.429 24.781 12.977 23.045 10.822C21.829 9.312 20.249 8.339 18.34 7.878C16.636 7.466 14.962 7.567 13.317 8.133C12.446 8.433 11.641 8.875 10.914 9.443C10.555 9.723 10.419 9.717 10.114 9.375C9.96726 9.21561 9.82971 9.04801 9.702 8.873C9.514 8.607 9.54 8.449 9.794 8.247C11.0009 7.2897 12.407 6.61516 13.909 6.273C15.2683 5.95081 16.6795 5.91336 18.054 6.163C19.922 6.501 21.584 7.269 23.011 8.513C24.067 9.435 24.921 10.513 25.515 11.773C26.333 13.509 26.666 15.327 26.421 17.245C26.2024 18.9951 25.5148 20.6536 24.431 22.045C23.324 23.487 21.907 24.539 20.213 25.23C18.965 25.746 17.6265 26.0078 16.276 26ZM15.64 19.617C15.573 19.719 15.538 19.795 15.482 19.853C15.144 20.208 14.731 20.421 14.233 20.437C13.888 20.447 13.542 20.418 13.197 20.426C13.0636 20.4248 12.932 20.4578 12.815 20.522C11.221 21.522 9.505 21.668 7.697 21.284C7.102 21.158 6.569 20.929 6.115 20.539C5.773 20.246 5.532 19.9 5.503 19.414C5.453 18.567 6.08 17.989 6.726 17.8C7.919 17.45 9.054 17.663 10.14 18.19C10.636 18.43 11.1 18.736 11.574 19.02C11.846 19.181 11.927 19.175 12.063 18.897C12.678 17.641 12.281 16.256 10.779 15.744C9.461 15.294 8.172 15.339 6.903 15.924C6.717 16.01 6.513 16.174 6.294 15.998C6.067 15.814 6.219 15.595 6.277 15.401C6.694 13.997 7.117 12.596 7.546 11.196C7.64 10.889 7.885 10.731 8.243 10.75C8.77 10.779 9.294 10.858 9.821 10.87C10.611 10.89 11.404 10.897 12.193 10.858C12.78 10.828 13.295 10.57 13.748 10.196C13.803 10.151 13.914 10.099 13.95 10.123C14.003 10.158 14.035 10.256 14.04 10.33C14.077 10.936 13.817 11.403 13.335 11.766C12.765 12.196 12.114 12.396 11.403 12.413C10.666 12.43 9.929 12.44 9.193 12.443C9.027 12.445 8.939 12.505 8.9 12.661C8.834 12.921 8.764 13.182 8.689 13.441C8.632 13.634 8.705 13.711 8.9 13.703C9.364 13.686 9.828 13.655 10.291 13.658C11.3568 13.6518 12.3859 14.0466 13.174 14.764C13.947 15.452 14.26 16.34 14.307 17.332C14.344 18.127 14.192 18.888 13.755 19.573C13.636 19.76 13.69 19.841 13.891 19.894C14.425 20.035 14.918 19.939 15.389 19.676C15.429 19.654 15.466 19.629 15.507 19.61C15.521 19.604 15.542 19.611 15.64 19.617ZM11.072 19.843L11.056 19.746C10.989 19.705 10.926 19.654 10.853 19.622C10.323 19.387 9.8 19.127 9.256 18.929C8.701 18.726 8.124 18.581 7.52 18.722C7.248 18.785 6.976 18.854 6.897 19.167C6.809 19.512 7.02 19.727 7.266 19.915C7.343 19.974 7.438 20.016 7.53 20.052C8.464 20.412 9.412 20.422 10.364 20.14C10.608 20.068 10.837 19.943 11.072 19.843Z" fill="white"/>
</g>
<defs>
<clipPath id="clip0_16_560">
<rect width="32" height="32" fill="white"/>
</clipPath>
</defs>
</svg>
