<svg width="32" height="32" viewBox="0 0 32 32" fill="none" xmlns="http://www.w3.org/2000/svg">
<g clip-path="url(#clip0_16_618)">
<path d="M16 32C24.8366 32 32 24.8366 32 16C32 7.16344 24.8366 0 16 0C7.16344 0 0 7.16344 0 16C0 24.8366 7.16344 32 16 32Z" fill="black"/>
<path d="M15.897 4.398C15.751 4.068 16.279 3.834 16.425 4.148C19.857 10.06 23.289 15.975 26.721 21.896C26.538 21.896 26.362 21.836 26.186 21.808L17.026 19.982C16.726 19.967 16.66 19.482 16.953 19.41L20.547 18.42C20.5898 18.4091 20.6297 18.389 20.6639 18.3609C20.698 18.3328 20.7255 18.2976 20.7444 18.2576C20.7633 18.2177 20.7732 18.1741 20.7733 18.1299C20.7734 18.0857 20.7637 18.042 20.745 18.002L15.897 4.39V4.397V4.398Z" fill="white"/>
<path d="M15.37 4.428C15.403 4.476 15.432 4.528 15.457 4.582C16.543 7.662 17.657 10.742 18.735 13.822C18.831 14.078 18.471 14.291 18.295 14.1C17.371 13.132 16.491 12.135 15.582 11.167C15.435 11.035 15.222 11.123 15.127 11.262L5.682 22.358C5.572 22.475 5.477 22.651 5.293 22.673C5.161 22.673 5.073 22.57 5 22.468V22.298C8.461 16.344 11.918 10.388 15.37 4.428Z" fill="white"/>
<path d="M12.48 14.995C12.656 14.944 12.89 15.068 12.832 15.281C12.465 16.557 12.077 17.826 11.695 19.094C11.637 19.256 11.783 19.402 11.937 19.41C16.88 20.4 21.823 21.426 26.765 22.416C26.861 22.431 26.927 22.504 27 22.563V22.768L26.86 22.915H5.88C8.08 20.275 10.273 17.62 12.48 14.995Z" fill="white"/>
</g>
<defs>
<clipPath id="clip0_16_618">
<rect width="32" height="32" fill="white"/>
</clipPath>
</defs>
</svg>
