<svg width="32" height="32" viewBox="0 0 32 32" fill="none" xmlns="http://www.w3.org/2000/svg">
<g clip-path="url(#clip0_16_643)">
<path d="M16 32C24.8366 32 32 24.8366 32 16C32 7.16344 24.8366 0 16 0C7.16344 0 0 7.16344 0 16C0 24.8366 7.16344 32 16 32Z" fill="#2D9CDB"/>
<path d="M20.054 5.606C20.446 5.606 20.762 5.726 21.001 5.965C21.24 6.204 21.359 6.519 21.359 6.912V18.586C21.359 19.916 21.044 21.129 20.412 22.221C19.8096 23.2842 18.935 24.1678 17.878 24.781C16.82 25.395 15.634 25.702 14.319 25.702C13.005 25.702 11.802 25.395 10.709 24.781C9.65203 24.1678 8.77741 23.2842 8.175 22.221C7.561 21.129 7.254 19.917 7.254 18.586C7.254 17.255 7.535 16.051 8.099 14.976C8.679 13.884 9.464 13.03 10.454 12.416C11.461 11.802 12.579 11.494 13.807 11.494C14.7526 11.4871 15.6876 11.6929 16.5429 12.0962C17.3982 12.4995 18.1518 13.09 18.748 13.824V6.912C18.748 6.519 18.868 6.204 19.107 5.965C19.363 5.72513 19.7033 5.59609 20.054 5.606ZM14.319 23.398C15.173 23.398 15.941 23.194 16.623 22.784C17.3172 22.3636 17.8838 21.7621 18.262 21.044C18.654 20.309 18.851 19.49 18.851 18.586C18.851 17.682 18.654 16.87 18.261 16.154C17.8873 15.4393 17.3195 14.8445 16.623 14.438C15.941 14.012 15.173 13.798 14.319 13.798C13.466 13.798 12.689 14.012 11.989 14.438C11.3002 14.8543 10.7348 15.4466 10.351 16.154C9.959 16.87 9.763 17.681 9.763 18.586C9.763 19.491 9.959 20.309 10.351 21.043C10.7392 21.7541 11.3036 22.3536 11.99 22.784C12.69 23.194 13.466 23.398 14.32 23.398H14.319Z" fill="white"/>
</g>
<defs>
<clipPath id="clip0_16_643">
<rect width="32" height="32" fill="white"/>
</clipPath>
</defs>
</svg>
