<svg width="32" height="32" viewBox="0 0 32 32" fill="none" xmlns="http://www.w3.org/2000/svg">
<g clip-path="url(#clip0_16_675)">
<path d="M16 32C24.8366 32 32 24.8366 32 16C32 7.16344 24.8366 0 16 0C7.16344 0 0 7.16344 0 16C0 24.8366 7.16344 32 16 32Z" fill="#006AD2"/>
<path fill-rule="evenodd" clip-rule="evenodd" d="M12.368 25L12.847 23.718L11.997 23.802L11.691 24.612C11.667 24.673 11.647 24.737 11.616 24.795C11.549 24.92 11.446 24.998 11.303 24.999C10.673 25 10.045 24.999 9.415 24.998C9.4 24.998 9.385 24.989 9.352 24.979L9.754 23.894C9.021 23.874 8.308 23.862 7.598 23.781C7.61 23.648 11.66 13.436 11.821 13.129C11.861 13.126 11.908 13.119 11.956 13.119H15.226C15.259 13.119 15.292 13.119 15.324 13.121C15.655 13.146 15.839 13.426 15.724 13.744C15.571 14.164 15.409 14.582 15.252 15L13.194 20.474C13.173 20.53 13.155 20.588 13.129 20.664C13.187 20.667 13.232 20.673 13.277 20.671C16.373 20.536 18.645 19.058 20.113 16.281C20.434 15.6741 20.66 15.0215 20.783 14.346C20.856 13.951 20.879 13.555 20.78 13.16C20.6802 12.7432 20.4321 12.3771 20.082 12.13C19.614 11.793 19.088 11.649 18.52 11.646H7.5C7.524 11.586 7.535 11.546 7.554 11.51L8.942 9.009C9.00676 8.8786 9.10789 8.76974 9.23317 8.69557C9.35845 8.62139 9.50253 8.58507 9.648 8.591H15.514L16.115 7.001H17.897C17.941 7.001 17.985 6.998 18.027 7.004C18.154 7.024 18.227 7.124 18.208 7.254C18.2 7.308 18.18 7.36 18.16 7.412C18.037 7.743 17.911 8.073 17.788 8.404C17.767 8.46 17.75 8.517 17.728 8.584H18.533C18.553 8.541 18.573 8.497 18.591 8.452L19.087 7.135C19.137 7.002 19.139 7.001 19.272 7.001C19.836 7.001 20.401 6.999 20.965 7.001C21.203 7.002 21.288 7.128 21.203 7.358C21.068 7.727 20.929 8.093 20.791 8.46C20.772 8.511 20.755 8.563 20.731 8.633C20.786 8.643 20.831 8.653 20.876 8.659C21.661 8.755 22.425 8.933 23.15 9.26C23.701 9.509 24.202 9.834 24.614 10.29C25.172 10.905 25.449 11.64 25.493 12.47C25.535 13.275 25.388 14.051 25.121 14.8C24.489 16.575 23.591 18.188 22.291 19.547C21.395 20.483 20.361 21.227 19.227 21.829C18.003 22.479 16.709 22.934 15.369 23.256C15.249 23.286 15.186 23.338 15.145 23.456C14.998 23.866 14.842 24.274 14.688 24.682C14.593 24.932 14.498 25 14.236 25H12.368Z" fill="white"/>
</g>
<defs>
<clipPath id="clip0_16_675">
<rect width="32" height="32" fill="white"/>
</clipPath>
</defs>
</svg>
