<svg width="32" height="32" viewBox="0 0 32 32" fill="none" xmlns="http://www.w3.org/2000/svg">
<g clip-path="url(#clip0_16_683)">
<path d="M16 32C24.8366 32 32 24.8366 32 16C32 7.16344 24.8366 0 16 0C7.16344 0 0 7.16344 0 16C0 24.8366 7.16344 32 16 32Z" fill="#F4AE95"/>
<path d="M15.807 8.958L9.71301 21.965H19.83C20.123 21.965 20.388 22.145 20.503 22.42L20.514 22.445C20.5516 22.5346 20.5684 22.6316 20.563 22.7286C20.5576 22.8256 20.5303 22.9201 20.483 23.005C20.4004 23.1543 20.2794 23.2788 20.1327 23.3658C19.9859 23.4528 19.8186 23.4991 19.648 23.5H8.89601C8.72961 23.4997 8.56719 23.4492 8.43001 23.355L8.374 23.317C8.20472 23.1988 8.08272 23.0246 8.02964 22.825C7.97656 22.6255 7.99582 22.4137 8.084 22.227L15.274 7.078C15.349 6.92 15.456 6.78 15.587 6.668C15.7106 6.56139 15.868 6.50192 16.0312 6.50009C16.1944 6.49826 16.353 6.55419 16.479 6.658C16.5362 6.7046 16.5823 6.76336 16.614 6.83L23.907 22.082C24.007 22.289 24.027 22.526 23.965 22.748C23.9327 22.8689 23.8616 22.9758 23.7626 23.0522C23.6635 23.1287 23.5421 23.1704 23.417 23.171H23.333C23.1652 23.17 23.0011 23.1208 22.8604 23.0294C22.7196 22.9379 22.6081 22.808 22.539 22.655L16.249 8.96C16.2301 8.91731 16.1993 8.88096 16.1603 8.85525C16.1213 8.82955 16.0757 8.81558 16.029 8.815C15.9822 8.81502 15.9364 8.82852 15.897 8.85387C15.8576 8.87923 15.8264 8.91538 15.807 8.958Z" fill="white"/>
</g>
<defs>
<clipPath id="clip0_16_683">
<rect width="32" height="32" fill="white"/>
</clipPath>
</defs>
</svg>
