<svg width="32" height="32" viewBox="0 0 32 32" fill="none" xmlns="http://www.w3.org/2000/svg">
<g clip-path="url(#clip0_16_709)">
<path d="M16 32C24.8366 32 32 24.8366 32 16C32 7.16344 24.8366 0 16 0C7.16344 0 0 7.16344 0 16C0 24.8366 7.16344 32 16 32Z" fill="#242D3D"/>
<path d="M23.134 17.467C22.583 15.04 20.87 12.364 20.87 12.364C22.844 17.751 22.084 21.814 21.561 24.119C21.561 24.119 20.871 26.697 22.356 24.549C24.208 21.861 23.134 17.467 23.134 17.467Z" fill="white"/>
<path d="M18.258 7.911C19.285 11.569 19.75 14.674 19.895 17.263C20.15 21.675 19.477 24.578 19.059 26.111C18.925 26.61 19.483 26.981 19.808 26.604L19.814 26.598C20.626 25.669 21.01 23.493 21.19 21.583L21.242 20.956C21.41 18.656 21.312 16.335 20.772 14.111C19.779 10.007 18.258 7.911 18.258 7.911ZM16.418 14.355C16.168 8.347 15.715 3.012 15.715 3.012C15.715 3.012 15.257 8.08 15.007 13.954C14.967 14.907 14.931 15.876 14.902 16.851C14.862 18.268 14.844 19.691 14.844 21.066C14.85 23.51 14.944 25.803 15.164 27.632C15.251 28.357 16.191 28.357 16.278 27.632C16.429 26.384 16.516 24.851 16.551 23.167C16.5835 21.3464 16.5758 19.5253 16.528 17.705C16.498 16.59 16.464 15.464 16.418 14.355ZM9.4 21.594C9.26298 20.4617 9.23152 19.3191 9.306 18.181C9.364 17.287 9.492 16.329 9.713 15.307C9.916 14.372 10.194 13.391 10.572 12.358C10.572 12.358 9.364 14.245 8.656 16.282C8.516 16.672 8.401 17.072 8.313 17.461C8.313 17.461 8.087 18.483 8.053 19.847C8.029 20.793 8.104 21.913 8.406 22.97C8.55864 23.5233 8.7875 24.0527 9.086 24.543C9.086 24.543 10.572 26.755 9.881 24.113C9.66603 23.2846 9.50502 22.4432 9.399 21.594H9.4Z" fill="white"/>
<path d="M11.518 20.41C11.4695 19.2139 11.4889 18.0159 11.576 16.822C11.6363 15.9405 11.7294 15.0616 11.855 14.187C12.115 12.306 12.54 10.222 13.185 7.911C13.185 7.911 11.657 10.007 10.665 14.111C10.612 14.331 10.565 14.552 10.519 14.767C10.339 15.661 10.223 16.567 10.165 17.484C10.095 18.634 10.113 19.794 10.195 20.95L10.247 21.583C10.427 23.493 10.804 25.669 11.622 26.598L11.628 26.604C11.953 26.976 12.516 26.604 12.378 26.111C12.075 24.979 11.628 23.098 11.518 20.41Z" fill="white"/>
<path d="M14.055 20.636C14.0222 19.3049 14.0162 17.9733 14.037 16.642C14.049 15.766 14.072 14.842 14.113 13.873C14.212 11.371 14.682 7.754 15.007 4.689C15.007 4.689 13.405 8.004 12.673 13.984C12.575 14.802 12.482 15.684 12.412 16.637L12.36 17.345C12.36 17.345 12.273 18.61 12.307 20.317C12.354 22.511 12.597 25.437 13.503 27.353C13.533 27.411 13.567 27.463 13.613 27.503L13.619 27.51C13.962 27.835 14.49 27.527 14.444 27.022C14.231 24.8992 14.1009 22.7689 14.054 20.636H14.055ZM17.375 20.636C17.405 19.44 17.416 18.106 17.393 16.642C17.381 15.766 17.358 14.842 17.317 13.873C17.219 11.371 16.749 7.754 16.423 4.689C16.423 4.689 18.026 8.004 18.757 13.984C18.856 14.802 18.949 15.684 19.018 16.637L19.071 17.345C19.071 17.345 19.158 18.61 19.123 20.317C19.076 22.511 18.833 25.437 17.927 27.353C17.9004 27.4097 17.863 27.4606 17.817 27.503L17.811 27.51C17.468 27.835 16.941 27.527 16.987 27.022C17.103 25.925 17.3 23.748 17.375 20.636Z" fill="white"/>
</g>
<defs>
<clipPath id="clip0_16_709">
<rect width="32" height="32" fill="white"/>
</clipPath>
</defs>
</svg>
