<svg width="32" height="32" viewBox="0 0 32 32" fill="none" xmlns="http://www.w3.org/2000/svg">
<g clip-path="url(#clip0_16_727)">
<path d="M16 32C24.8366 32 32 24.8366 32 16C32 7.16344 24.8366 0 16 0C7.16344 0 0 7.16344 0 16C0 24.8366 7.16344 32 16 32Z" fill="#121747"/>
<path d="M18.032 22.87C18.032 24.015 17.112 24.944 15.976 24.944C14.84 24.944 13.921 24.015 13.921 22.869V9.08C13.921 7.935 14.841 7.006 15.976 7.006C17.111 7.006 18.032 7.935 18.032 9.081V22.87ZM11.112 22.875C11.1187 23.241 11.0282 23.6022 10.85 23.9219C10.6717 24.2416 10.4119 24.5083 10.097 24.695C9.78386 24.8801 9.42676 24.9777 9.063 24.9777C8.69924 24.9777 8.34215 24.8801 8.029 24.695C7.71432 24.5082 7.45472 24.2414 7.27662 23.9217C7.09851 23.602 7.00824 23.2409 7.015 22.875V19.775C7.00824 19.4091 7.09851 19.048 7.27662 18.7283C7.45472 18.4086 7.71432 18.1418 8.029 17.955C8.34215 17.7699 8.69924 17.6722 9.063 17.6722C9.42676 17.6722 9.78386 17.7699 10.097 17.955C10.4117 18.1418 10.6713 18.4086 10.8494 18.7283C11.0275 19.048 11.1178 19.4091 11.111 19.775L11.112 22.875Z" fill="white"/>
<path opacity="0.5" d="M24.956 17.4C24.956 18.545 24.036 19.474 22.9 19.474C21.764 19.474 20.844 18.544 20.844 17.399V12.166C20.844 11.02 21.764 10.091 22.9 10.091C24.036 10.091 24.956 11.02 24.956 12.166V17.4Z" fill="white"/>
</g>
<defs>
<clipPath id="clip0_16_727">
<rect width="32" height="32" fill="white"/>
</clipPath>
</defs>
</svg>
