<svg width="32" height="32" viewBox="0 0 32 32" fill="none" xmlns="http://www.w3.org/2000/svg">
<g clip-path="url(#clip0_16_741)">
<path d="M16 32C24.8366 32 32 24.8366 32 16C32 7.16344 24.8366 0 16 0C7.16344 0 0 7.16344 0 16C0 24.8366 7.16344 32 16 32Z" fill="#2B1544"/>
<path d="M24.99 12.502V19.158C24.99 19.454 25.005 19.756 24.938 20.047C24.7864 20.7203 24.4376 21.333 23.936 21.807C23.7 22.034 23.406 22.181 23.125 22.347C21.218 23.457 19.317 24.57 17.411 25.682C16.829 25.993 16.141 26.046 15.495 25.966C15.1576 25.9249 14.8315 25.8182 14.535 25.652C12.528 24.482 10.521 23.309 8.515 22.14C8.025 21.867 7.659 21.417 7.39 20.933C7.17 20.513 7.009 20.051 7.009 19.57V12.384C7.046 11.684 7.356 11.021 7.797 10.492C7.97571 10.2684 8.19193 10.0776 8.436 9.928C10.301 8.842 12.166 7.752 14.03 6.662C14.337 6.492 14.628 6.284 14.96 6.17C15.5214 5.99468 16.1174 5.96101 16.695 6.072C16.952 6.144 17.214 6.22 17.445 6.356C19.475 7.547 21.508 8.729 23.537 9.921C24.078 10.241 24.475 10.776 24.733 11.347C24.896 11.707 24.99 12.104 24.99 12.502ZM15.94 10.026C15.5093 10.6646 15.0107 11.2547 14.453 11.786C14.161 12.063 13.88 12.362 13.713 12.733C13.579 12.995 13.489 13.293 13.527 13.593C13.572 13.997 13.86 14.353 14.234 14.497C14.614 14.649 15.044 14.615 15.422 14.467C15.49 14.4366 15.5653 14.4262 15.639 14.437C15.565 14.911 15.277 15.311 15.049 15.72L15.059 15.788C15.265 16.008 15.482 16.216 15.687 16.432C15.739 16.481 15.787 16.549 15.859 16.572C16.098 16.387 16.285 16.144 16.505 15.94C16.554 15.884 16.655 15.823 16.602 15.736C16.389 15.336 16.153 14.931 16.086 14.469C16.126 14.375 16.239 14.454 16.306 14.477C16.661 14.651 17.09 14.677 17.461 14.534C17.966 14.341 18.28 13.75 18.167 13.216C18.081 12.736 17.827 12.296 17.483 11.96C16.953 11.415 16.444 10.833 16.082 10.159C16.0692 10.128 16.0499 10.1001 16.0254 10.0771C16.0009 10.0542 15.9718 10.0367 15.94 10.026ZM12.307 16.536C11.707 16.862 11.306 17.501 11.207 18.18C11.07 19.133 11.627 20.129 12.49 20.519C13.036 20.754 13.67 20.749 14.22 20.534C14.504 20.42 14.747 20.234 14.956 20.015C15.035 19.931 15.15 19.856 15.15 19.727C15.14 19.598 15.024 19.527 14.949 19.439C14.851 19.352 14.773 19.239 14.661 19.17C14.481 19.091 14.373 19.288 14.257 19.386C13.802 19.848 12.983 19.852 12.517 19.401C12.3668 19.2597 12.2538 19.0836 12.1879 18.8883C12.122 18.693 12.1052 18.4844 12.139 18.281C12.195 17.898 12.423 17.535 12.763 17.353C12.983 17.243 13.23 17.183 13.473 17.194C13.816 17.216 14.13 17.398 14.362 17.648C15.154 18.436 15.916 19.253 16.705 20.044C17.123 20.457 17.702 20.722 18.292 20.699C18.742 20.709 19.175 20.529 19.541 20.275C20.08 19.9 20.408 19.249 20.441 18.591C20.513 17.549 19.758 16.498 18.741 16.297C18.092 16.165 17.359 16.301 16.859 16.763C16.503 17.087 16.179 17.451 15.827 17.784C15.464 17.485 15.177 17.107 14.822 16.801C14.6704 16.6572 14.4943 16.5417 14.302 16.46C14.266 16.437 14.254 16.426 14.206 16.407C13.9016 16.2777 13.571 16.222 13.2411 16.2444C12.9111 16.2668 12.5911 16.3667 12.307 16.536ZM17.344 17.588C17.603 17.33 17.969 17.179 18.334 17.209C18.73 17.22 19.114 17.432 19.324 17.773C19.652 18.273 19.556 18.992 19.134 19.404C18.7 19.825 17.956 19.878 17.489 19.48C17.142 19.185 16.851 18.833 16.519 18.523C16.515 18.501 16.511 18.459 16.507 18.44C16.784 18.152 17.067 17.876 17.344 17.588Z" fill="white"/>
</g>
<defs>
<clipPath id="clip0_16_741">
<rect width="32" height="32" fill="white"/>
</clipPath>
</defs>
</svg>
