<svg width="32" height="32" viewBox="0 0 32 32" fill="none" xmlns="http://www.w3.org/2000/svg">
<g clip-path="url(#clip0_16_749)">
<path d="M16 32C24.8366 32 32 24.8366 32 16C32 7.16344 24.8366 0 16 0C7.16344 0 0 7.16344 0 16C0 24.8366 7.16344 32 16 32Z" fill="#0FACF3"/>
<path d="M9.471 9.016H14.903C17.057 9.016 18.127 8.948 19.733 9.095C21.34 9.265 22.947 9.921 23.987 11.178C25.212 12.638 25.57 14.608 25.489 16.441C25.409 18.264 24.784 20.176 23.351 21.421C22.08 22.565 20.301 22.984 18.613 22.995C15.331 23.006 12.06 22.995 8.778 22.995C8.42 22.972 8.015 23.006 7.738 22.757C7.253 22.271 7.542 21.229 8.316 21.274C10.142 21.218 11.979 21.274 13.806 21.24C13.771 19.701 13.794 18.162 13.794 16.634C12.384 16.622 10.985 16.634 9.576 16.634C9.263 16.622 8.916 16.622 8.674 16.418C8.385 16.158 8.385 15.717 8.512 15.378C8.674 15.004 9.113 14.936 9.483 14.936C10.916 14.924 12.361 14.936 13.793 14.936C13.817 13.532 13.771 12.128 13.817 10.736C12.21 10.725 10.604 10.736 8.997 10.736C8.639 10.725 8.235 10.725 7.957 10.476C7.669 10.102 7.727 9.57 7.969 9.196C8.431 8.97 8.963 9.016 9.471 9.016ZM15.805 14.936C16.463 14.947 17.122 14.89 17.781 14.981C18.567 15.094 18.567 16.475 17.769 16.588C17.122 16.69 16.452 16.622 15.793 16.634C15.805 17.969 15.793 19.294 15.793 20.629C15.805 20.856 15.816 21.195 16.105 21.218C16.891 21.286 17.575 21.263 18.463 21.263C19.78 21.32 21.167 20.913 22.091 19.95C23.039 18.943 23.386 17.54 23.409 16.203C23.444 14.721 23.166 13.091 22.079 11.981C21.098 10.985 19.619 10.646 18.243 10.725C17.459 10.725 16.787 10.702 16.059 10.77C15.828 10.838 15.816 11.121 15.805 11.325V14.935V14.936Z" fill="white"/>
</g>
<defs>
<clipPath id="clip0_16_749">
<rect width="32" height="32" fill="white"/>
</clipPath>
</defs>
</svg>
