<svg width="32" height="32" viewBox="0 0 32 32" fill="none" xmlns="http://www.w3.org/2000/svg">
<g clip-path="url(#clip0_16_753)">
<path d="M16 32C24.8366 32 32 24.8366 32 16C32 7.16344 24.8366 0 16 0C7.16344 0 0 7.16344 0 16C0 24.8366 7.16344 32 16 32Z" fill="#3FBADF"/>
<path d="M11 22.119L16 19.299V24.934L11 22.119ZM11 13.119L16 10.299V15.934L11 13.119Z" fill="white" fill-opacity="0.4"/>
<path d="M26 19.23L21 22.116V16.43L26 19.23ZM26 10.23L21 13.116V7.43L26 10.23Z" fill="white" fill-opacity="0.7"/>
<path d="M11 22.116V16.433L16 19.303L11 22.116ZM11 13.116V7.433L16 10.303L11 13.116Z" fill="white" fill-opacity="0.8"/>
<path d="M21 22.116L16 19.304L21 16.43V22.116ZM21 13.116L16 10.304L21 7.43V13.116Z" fill="white"/>
<path d="M21 22.116L16 24.934V19.304L21 22.116ZM21 13.116L16 15.934V10.304L21 13.116Z" fill="white" fill-opacity="0.6"/>
<path d="M11 16.433V22.116L6 19.231L11 16.433ZM11 7.433V13.116L6 10.231L11 7.433Z" fill="white" fill-opacity="0.5"/>
</g>
<defs>
<clipPath id="clip0_16_753">
<rect width="32" height="32" fill="white"/>
</clipPath>
</defs>
</svg>
