<svg width="32" height="32" viewBox="0 0 32 32" fill="none" xmlns="http://www.w3.org/2000/svg">
<g clip-path="url(#clip0_16_770)">
<path d="M16 32C24.8366 32 32 24.8366 32 16C32 7.16344 24.8366 0 16 0C7.16344 0 0 7.16344 0 16C0 24.8366 7.16344 32 16 32Z" fill="#2B5EBB"/>
<path fill-rule="evenodd" clip-rule="evenodd" d="M26 15.962C25.999 18.298 24.19 20.12 21.878 20.113C19.614 20.106 17.776 18.234 17.788 15.947C17.8 13.661 19.658 11.797 21.91 11.812C24.209 11.827 26.001 13.646 26 15.962ZM9.09 23.92C8.69041 23.9203 8.29473 23.8413 7.92592 23.6875C7.55711 23.5337 7.22249 23.3082 6.94148 23.0241C6.66046 22.74 6.43864 22.403 6.28887 22.0325C6.1391 21.6621 6.06437 21.2656 6.069 20.866C6.074 19.16 7.408 17.781 9.085 17.82C9.567 17.831 10.051 18.011 10.521 18.158C11.189 18.367 11.841 18.626 12.507 18.844C12.92 18.98 13.315 18.884 13.68 18.658C14.21 18.328 14.66 17.93 14.947 17.346C15.237 16.752 15.897 16.531 16.484 16.783C17.028 17.017 17.311 17.61 17.154 18.186C16.977 18.833 16.444 19.181 15.78 19.065C15.191 18.962 14.607 18.772 14.009 18.989C12.939 19.378 12.469 20.264 12.117 21.275C11.925 21.828 11.721 22.409 11.377 22.865C10.825 23.601 10.013 23.924 9.09 23.92ZM9.026 8.082C10.393 8.082 11.458 8.882 11.922 10.199C12.106 10.719 12.382 11.206 12.618 11.707C13.201 12.947 14.664 13.069 15.592 12.73C16.414 12.43 17.206 12.958 17.225 13.81C17.238 14.4 16.935 14.83 16.381 15.004C15.891 15.156 15.339 14.949 15.039 14.502C14.932 14.342 14.832 14.176 14.713 14.025C13.897 12.995 12.991 12.725 11.763 13.187C11.335 13.347 10.934 13.587 10.532 13.81C10.1688 14.0169 9.76649 14.1461 9.3507 14.1893C8.93491 14.2326 8.51467 14.189 8.11661 14.0613C7.71855 13.9337 7.35135 13.7247 7.03829 13.4477C6.72523 13.1706 6.47314 12.8316 6.298 12.452C5.342 10.422 6.802 8.082 9.026 8.082ZM18.556 23.99C18.544 25.109 17.631 26.02 16.541 26C15.488 25.98 14.608 25.073 14.581 24.053C14.552 22.899 15.4 21.96 16.579 21.949C17.707 21.938 18.569 22.868 18.557 23.989L18.556 23.99ZM14.594 8.02C14.594 6.888 15.48 5.99 16.589 6C17.667 6.01 18.569 6.933 18.56 8.018C18.552 9.159 17.698 10.074 16.574 10.053C15.295 10.029 14.542 8.998 14.594 8.02Z" fill="white"/>
</g>
<defs>
<clipPath id="clip0_16_770">
<rect width="32" height="32" fill="white"/>
</clipPath>
</defs>
</svg>
