<svg width="32" height="32" viewBox="0 0 32 32" fill="none" xmlns="http://www.w3.org/2000/svg">
<g clip-path="url(#clip0_16_774)">
<path d="M16 32C24.8366 32 32 24.8366 32 16C32 7.16344 24.8366 0 16 0C7.16344 0 0 7.16344 0 16C0 24.8366 7.16344 32 16 32Z" fill="#00ADED"/>
<path d="M10.097 23.603L10.099 23.599L13.287 15.983L10.097 8.368L15.982 15.983L10.101 23.598L10.097 23.603ZM21.873 23.603L21.869 23.598L15.988 15.983L21.873 8.368L18.683 15.983L21.871 23.599L21.873 23.603Z" fill="white"/>
<path d="M15.985 15.984V21.29L10.095 23.6L15.985 15.98V10.674L21.875 8.36401L15.985 15.984Z" fill="white" fill-opacity="0.8"/>
<path d="M15.985 21.29V25.941L10.095 23.597L15.985 21.282V15.984L10.095 8.364L15.985 10.674V6.023L21.875 8.366L15.985 10.681V15.98L21.875 23.6L15.985 21.29Z" fill="white" fill-opacity="0.5"/>
<path d="M10.095 8.366L15.985 6.023V10.681L10.095 8.366ZM21.875 23.597L15.985 25.941V21.282L21.875 23.597Z" fill="white" fill-opacity="0.145"/>
</g>
<defs>
<clipPath id="clip0_16_774">
<rect width="32" height="32" fill="white"/>
</clipPath>
</defs>
</svg>
