<svg width="32" height="32" viewBox="0 0 32 32" fill="none" xmlns="http://www.w3.org/2000/svg">
<g clip-path="url(#clip0_16_786)">
<path d="M16 32C24.8366 32 32 24.8366 32 16C32 7.16344 24.8366 0 16 0C7.16344 0 0 7.16344 0 16C0 24.8366 7.16344 32 16 32Z" fill="#F6C054"/>
<path d="M26.822 15.568L16.432 5.178C16.3756 5.1214 16.3086 5.07649 16.2348 5.04585C16.161 5.0152 16.0819 4.99943 16.002 4.99943C15.9221 4.99943 15.843 5.0152 15.7692 5.04585C15.6954 5.07649 15.6284 5.1214 15.572 5.178L5.17999 15.569C5.12339 15.6254 5.07848 15.6924 5.04784 15.7662C5.01719 15.84 5.00142 15.9191 5.00142 15.999C5.00142 16.0789 5.01719 16.158 5.04784 16.2318C5.07848 16.3056 5.12339 16.3726 5.17999 16.429L15.57 26.822C15.6264 26.8785 15.6933 26.9232 15.767 26.9538C15.8407 26.9843 15.9197 27.0001 15.9995 27.0001C16.0793 27.0001 16.1583 26.9843 16.232 26.9538C16.3057 26.9232 16.3726 26.8785 16.429 26.822L26.819 16.433C26.8763 16.3767 26.922 16.3097 26.9532 16.2357C26.9845 16.1616 27.0008 16.0822 27.0012 16.0018C27.0015 15.9215 26.986 15.8419 26.9554 15.7676C26.9248 15.6933 26.8798 15.6258 26.823 15.569L26.822 15.568ZM24.538 16.088L16.922 23.704V16H15.074V23.704L7.45799 16.088C7.4465 16.0768 7.43737 16.0634 7.43113 16.0487C7.4249 16.0339 7.42168 16.018 7.42168 16.002C7.42168 15.986 7.4249 15.9701 7.43113 15.9553C7.43737 15.9406 7.4465 15.9272 7.45799 15.916L15.912 7.463C15.9232 7.45151 15.9365 7.44238 15.9513 7.43614C15.9661 7.4299 15.982 7.42669 15.998 7.42669C16.014 7.42669 16.0299 7.4299 16.0447 7.43614C16.0594 7.44238 16.0728 7.45151 16.084 7.463L24.538 15.916C24.5495 15.9272 24.5586 15.9406 24.5649 15.9553C24.5711 15.9701 24.5743 15.986 24.5743 16.002C24.5743 16.018 24.5711 16.0339 24.5649 16.0487C24.5586 16.0634 24.5495 16.0768 24.538 16.088C24.538 16.084 24.538 16.084 24.538 16.088Z" fill="white"/>
</g>
<defs>
<clipPath id="clip0_16_786">
<rect width="32" height="32" fill="white"/>
</clipPath>
</defs>
</svg>
