<svg width="32" height="32" viewBox="0 0 32 32" fill="none" xmlns="http://www.w3.org/2000/svg">
<g clip-path="url(#clip0_16_794)">
<path d="M16 32C24.8366 32 32 24.8366 32 16C32 7.16344 24.8366 0 16 0C7.16344 0 0 7.16344 0 16C0 24.8366 7.16344 32 16 32Z" fill="#00CCFF"/>
<path d="M7.894 19.161H12.291L10.398 23H6L7.894 19.161ZM10.399 14.081H14.797L12.91 17.91H8.51L10.4 14.08L10.399 14.081ZM12.905 9.001H17.303L15.414 12.831H11.017L12.905 9V9.001Z" fill="white" fill-opacity="0.4"/>
<path d="M12.277 19.16H16.675L14.781 22.998H10.383L12.277 19.159V19.16ZM14.783 14.08H19.18L17.292 17.908H12.894L14.783 14.08ZM17.288 9H21.686L19.797 12.829H15.4L17.288 9Z" fill="white" fill-opacity="0.6"/>
<path d="M16.59 19.16H20.988L19.095 22.998H14.697L16.591 19.159L16.59 19.16ZM19.096 14.08H23.494L21.606 17.908H17.208L19.096 14.08ZM21.602 9H26L24.111 12.829H19.714L21.602 9Z" fill="white"/>
</g>
<defs>
<clipPath id="clip0_16_794">
<rect width="32" height="32" fill="white"/>
</clipPath>
</defs>
</svg>
