<svg width="32" height="32" viewBox="0 0 32 32" fill="none" xmlns="http://www.w3.org/2000/svg">
<g clip-path="url(#clip0_16_801)">
<path d="M16 32C24.8366 32 32 24.8366 32 16C32 7.16344 24.8366 0 16 0C7.16344 0 0 7.16344 0 16C0 24.8366 7.16344 32 16 32Z" fill="#2F2F2F"/>
<path fill-rule="evenodd" clip-rule="evenodd" d="M25.149 10.295C25.263 10.355 25.524 10.497 25.499 10.806L25.483 21.223C25.4904 21.3213 25.4671 21.4194 25.4164 21.5039C25.3658 21.5884 25.2902 21.6552 25.2 21.695L22.9 23.038L21.08 24.1L16.236 26.928C16.1746 26.975 16.0993 27.0003 16.022 27C15.9246 26.9968 15.83 26.9663 15.749 26.912L12.407 24.984C10.551 23.913 8.631 22.805 6.739 21.717C6.58 21.64 6.487 21.461 6.501 21.257L6.508 18.505C6.514 16.029 6.518 13.514 6.52 11.082V11.072C6.52139 11.0554 6.52172 11.0387 6.521 11.022V10.991C6.517 10.856 6.511 10.579 6.771 10.454C7.831 9.821 8.915 9.178 9.964 8.556L11.701 7.526C13.023 6.743 14.369 5.944 15.671 5.171L15.681 5.165C15.7662 5.11627 15.8551 5.07447 15.947 5.04L16.05 5L16.146 5.057C17.092 5.605 18.054 6.165 18.983 6.707L20.719 7.717L22.414 8.703L25.081 10.255H25.083L25.085 10.257L25.149 10.295ZM16.38 25.965L19.342 24.235C21.1381 23.188 22.9337 22.1403 24.729 21.092L24.739 15.243L24.744 11.378L20.894 13.63V15.406C20.8896 16.5143 20.8916 17.6227 20.9 18.731V18.807L20.855 18.869C20.8059 18.9349 20.7431 18.9895 20.671 19.029L20.645 19.045H20.644L19.4 19.77C18.95 20.03 18.485 20.3 18.03 20.567L16.386 21.522L16.38 25.965ZM12.184 13.41C13.0248 13.8933 13.8661 14.3756 14.708 14.857L16.012 15.606L19.789 13.398L16.006 11.166L12.184 13.41ZM11.794 14.06L11.865 18.449L15.633 20.644L15.639 16.265L11.794 14.06ZM7.274 11.466L7.255 21.141L15.629 25.971L15.632 21.52L13.992 20.565L12.964 19.966C12.437 19.66 11.892 19.343 11.357 19.03C11.202 18.957 11.105 18.779 11.116 18.584L11.035 13.625L7.274 11.466ZM24.368 10.72L22.899 9.864L21.277 8.919C19.733 8.023 17.902 6.959 16.013 5.853C14.0999 6.98342 12.1879 8.11575 10.277 9.25L7.651 10.807L11.429 12.972L15.763 10.427C15.8379 10.3788 15.9255 10.354 16.0145 10.3557C16.1036 10.3575 16.1901 10.3858 16.263 10.437L20.539 12.958L24.368 10.72ZM16.386 20.647C17.6492 19.9109 18.9132 19.1762 20.178 18.443V14.05L16.389 16.264L16.386 20.647ZM21.513 19.854C21.4754 19.8654 21.4363 19.8712 21.397 19.871C21.3439 19.8718 21.2912 19.8618 21.2421 19.8417C21.1929 19.8216 21.1483 19.7918 21.111 19.754C21.0506 19.6996 21.0055 19.6304 20.9801 19.5532C20.9547 19.4761 20.9498 19.3936 20.966 19.314C20.9829 19.21 21.0358 19.1152 21.1155 19.0463C21.1952 18.9774 21.2966 18.9387 21.402 18.937C21.525 18.937 21.645 18.993 21.732 19.09L21.733 19.092C21.7931 19.1596 21.8325 19.2431 21.8463 19.3325C21.8601 19.4219 21.8479 19.5134 21.811 19.596C21.7857 19.6598 21.7454 19.7165 21.6936 19.7614C21.6417 19.8064 21.5798 19.8381 21.513 19.854ZM23.577 21.262C23.5186 21.2165 23.4724 21.1572 23.4424 21.0896C23.4124 21.0219 23.3995 20.9478 23.405 20.874C23.413 20.715 23.495 20.574 23.627 20.494C23.6925 20.4513 23.7688 20.4284 23.847 20.428C23.933 20.428 24.017 20.455 24.091 20.505C24.1651 20.5536 24.2236 20.6226 24.2595 20.7037C24.2953 20.7848 24.3069 20.8745 24.293 20.962C24.2799 21.0721 24.227 21.1735 24.1443 21.2474C24.0616 21.3212 23.9548 21.3623 23.844 21.363C23.7457 21.3627 23.6509 21.3268 23.577 21.262ZM10.388 18.942C10.513 18.942 10.632 18.999 10.715 19.098C10.7745 19.1643 10.8134 19.2465 10.8271 19.3346C10.8408 19.4226 10.8286 19.5127 10.792 19.594C10.7582 19.6762 10.7005 19.7463 10.6263 19.7952C10.5521 19.8441 10.4649 19.8694 10.376 19.868C10.3091 19.8655 10.2435 19.8483 10.1839 19.8177C10.1244 19.787 10.0724 19.7435 10.0315 19.6905C9.99063 19.6374 9.96197 19.576 9.94754 19.5105C9.93311 19.4451 9.93327 19.3773 9.948 19.312C9.96808 19.2094 10.0227 19.1167 10.1027 19.0494C10.1828 18.9821 10.2834 18.9442 10.388 18.942ZM22.344 20.518C22.2805 20.4649 22.2322 20.3959 22.204 20.3181C22.1757 20.2404 22.1685 20.1565 22.183 20.075C22.1992 19.9692 22.2518 19.8723 22.3318 19.8011C22.4117 19.73 22.514 19.6889 22.621 19.685C22.731 19.685 22.837 19.729 22.921 19.807C23.048 19.925 23.101 20.096 23.059 20.256C23.045 20.3311 23.0117 20.4013 22.9622 20.4595C22.9127 20.5178 22.8489 20.5621 22.777 20.588C22.7052 20.616 22.6271 20.6244 22.551 20.612C22.4748 20.5997 22.4034 20.5673 22.344 20.518ZM9.439 19.795C9.572 19.905 9.634 20.08 9.6 20.242C9.58918 20.3145 9.56023 20.3832 9.51583 20.4416C9.47143 20.4999 9.41302 20.5462 9.346 20.576H9.345C9.28559 20.6042 9.22077 20.6192 9.155 20.62C9.07633 20.6189 8.99949 20.5961 8.933 20.554C8.8586 20.5075 8.79878 20.4411 8.7604 20.3622C8.72202 20.2833 8.70664 20.1952 8.716 20.108C8.72143 20.0219 8.75158 19.9392 8.80285 19.8699C8.85411 19.8005 8.92431 19.7474 9.005 19.717C9.05397 19.696 9.1067 19.6851 9.16 19.685C9.26 19.685 9.357 19.723 9.439 19.795ZM15.949 6.167C16.079 6.167 16.202 6.223 16.289 6.321C16.396 6.434 16.436 6.591 16.396 6.741C16.3766 6.82785 16.3311 6.90672 16.2657 6.9671C16.2004 7.02749 16.1181 7.06652 16.03 7.079H16.025C15.9346 7.09677 15.8409 7.08703 15.756 7.05102C15.6712 7.01501 15.5991 6.9544 15.549 6.877C15.5068 6.8119 15.4821 6.737 15.4774 6.65955C15.4726 6.5821 15.488 6.50475 15.522 6.435L15.523 6.433C15.5553 6.36381 15.6045 6.30384 15.666 6.25859C15.7275 6.21333 15.7993 6.18425 15.875 6.174C15.8997 6.16945 15.9248 6.1671 15.95 6.167H15.949ZM8.15 20.49C8.295 20.572 8.383 20.72 8.382 20.88C8.38629 20.9606 8.369 21.0409 8.33191 21.1127C8.29482 21.1844 8.23928 21.2449 8.171 21.288C8.09843 21.3355 8.01375 21.3612 7.927 21.362C7.85539 21.3626 7.78493 21.344 7.723 21.308C7.65038 21.2678 7.59006 21.2086 7.54849 21.1367C7.50692 21.0648 7.48567 20.983 7.487 20.9C7.487 20.727 7.576 20.57 7.718 20.49C7.78318 20.4507 7.85787 20.4299 7.934 20.4299C8.01014 20.4299 8.08482 20.4507 8.15 20.49ZM16.19 9.205C16.2606 9.24891 16.3179 9.31119 16.3558 9.38518C16.3936 9.45917 16.4107 9.54207 16.405 9.625C16.3994 9.70722 16.371 9.78625 16.3229 9.8532C16.2749 9.92016 16.2091 9.97238 16.133 10.004C16.0702 10.0326 16.002 10.0476 15.933 10.048C15.8305 10.0491 15.7307 10.0152 15.65 9.952C15.5885 9.90648 15.5397 9.84582 15.5085 9.77591C15.4773 9.706 15.4648 9.62921 15.472 9.553C15.4762 9.47741 15.4999 9.40419 15.5407 9.34042C15.5815 9.27666 15.6381 9.2245 15.705 9.189C15.7737 9.14944 15.8517 9.12874 15.931 9.129C16.0232 9.12885 16.1134 9.15523 16.191 9.205H16.19ZM15.62 8.447C15.5675 8.40081 15.5267 8.34283 15.501 8.27781C15.4753 8.21279 15.4653 8.1426 15.472 8.073V8.07C15.4786 7.99832 15.5018 7.92917 15.5398 7.86806C15.5778 7.80694 15.6296 7.75556 15.691 7.718C15.7633 7.66992 15.8482 7.64451 15.935 7.645C16.015 7.645 16.095 7.666 16.168 7.705L16.169 7.706C16.2424 7.74553 16.3034 7.80473 16.3451 7.87697C16.3868 7.94921 16.4075 8.03163 16.405 8.115C16.4042 8.20273 16.3778 8.28832 16.3289 8.36119C16.28 8.43405 16.2109 8.491 16.13 8.525C16.0672 8.55362 15.999 8.56861 15.93 8.569C15.8147 8.57032 15.7035 8.52654 15.62 8.447Z" fill="white"/>
</g>
<defs>
<clipPath id="clip0_16_801">
<rect width="32" height="32" fill="white"/>
</clipPath>
</defs>
</svg>
