<svg width="32" height="32" viewBox="0 0 32 32" fill="none" xmlns="http://www.w3.org/2000/svg">
<g clip-path="url(#clip0_16_853)">
<path d="M16 32C24.8366 32 32 24.8366 32 16C32 7.16344 24.8366 0 16 0C7.16344 0 0 7.16344 0 16C0 24.8366 7.16344 32 16 32Z" fill="#00FFBA"/>
<path d="M10.871 10.904C10.5964 11.185 10.4271 11.5522 10.3918 11.9435C10.3564 12.3348 10.4572 12.7263 10.677 13.052C10.8324 13.2859 11.0436 13.4775 11.2915 13.6094C11.5394 13.7414 11.8162 13.8096 12.097 13.808C12.6774 13.8081 13.234 14.0388 13.6444 14.4493C14.0547 14.8599 14.2851 15.4166 14.285 15.997C14.2849 16.5774 14.0542 17.134 13.6436 17.5444C13.2331 17.9547 12.6764 18.1851 12.096 18.185C10.8887 18.1855 9.70846 17.8268 8.70552 17.1546C7.70258 16.4825 6.92222 15.5272 6.46369 14.4103C6.00517 13.2935 5.8892 12.0654 6.13054 10.8825C6.37187 9.69948 6.95961 8.61502 7.819 7.767C8.89553 6.70216 10.3305 6.07703 11.8434 6.01378C13.3562 5.95054 14.8383 6.45372 16 7.425C15.3163 7.99661 14.7665 8.71142 14.3894 9.5189C14.0124 10.3264 13.8173 11.2068 13.818 12.098C13.8177 12.6762 14.0463 13.231 14.4539 13.6412C14.8614 14.0514 15.4148 14.2836 15.993 14.287C15.7056 14.287 15.421 14.2304 15.1555 14.1203C14.8899 14.0103 14.6487 13.8491 14.4455 13.6458C14.2423 13.4425 14.0812 13.2012 13.9713 12.9356C13.8614 12.67 13.8049 12.3854 13.805 12.098C13.8067 11.7577 13.7056 11.4249 13.515 11.143C13.3288 10.8674 13.067 10.6514 12.761 10.521C12.5504 10.4329 12.3243 10.3875 12.096 10.3875C11.8677 10.3875 11.6416 10.4329 11.431 10.521C11.2207 10.6101 11.0303 10.7403 10.871 10.904ZM25.511 17.532C25.9761 18.6345 26.1063 19.8495 25.8854 21.0255C25.6646 22.2014 25.1024 23.2864 24.269 24.145C23.4252 25.0144 22.3411 25.6122 21.1554 25.8616C19.9698 26.111 18.7367 26.0007 17.6142 25.5449C16.4916 25.0892 15.5307 24.3086 14.8546 23.3032C14.1784 22.2979 13.8178 21.1136 13.819 19.902C13.8128 19.6108 13.8647 19.3213 13.9719 19.0504C14.079 18.7796 14.2392 18.5328 14.4429 18.3247C14.6466 18.1166 14.8899 17.9512 15.1584 17.8383C15.4269 17.7254 15.7152 17.6672 16.0065 17.6672C16.2978 17.6672 16.5861 17.7254 16.8546 17.8383C17.1231 17.9512 17.3663 18.1166 17.5701 18.3247C17.7738 18.5328 17.934 18.7796 18.0411 19.0504C18.1482 19.3213 18.2002 19.6108 18.194 19.902C18.1924 20.2388 18.2908 20.5685 18.4769 20.8493C18.6629 21.1301 18.9282 21.3492 19.239 21.479C19.669 21.659 20.152 21.657 20.58 21.474C20.9892 21.2968 21.3137 20.9677 21.485 20.556C21.6559 20.1385 21.6556 19.6705 21.4842 19.2532C21.3128 18.8359 20.984 18.5028 20.569 18.326C20.3586 18.2369 20.1324 18.1914 19.904 18.192C19.3236 18.192 18.7669 17.9614 18.3565 17.551C17.9461 17.1406 17.7155 16.5839 17.7155 16.0035C17.7155 15.4231 17.9461 14.8664 18.3565 14.456C18.7669 14.0456 19.3236 13.815 19.904 13.815C21.1005 13.8143 22.2705 14.1667 23.2677 14.8278C24.2649 15.489 25.0449 16.4296 25.51 17.532H25.511Z" fill="white"/>
<path opacity="0.7" d="M15.994 17.714C17.202 17.714 18.182 18.694 18.182 19.902C18.1828 21.1155 17.8208 22.3015 17.1424 23.3076C16.464 24.3138 15.5003 25.0942 14.3751 25.5485C13.2499 26.0028 12.0145 26.1103 10.8277 25.8571C9.64095 25.604 8.55695 25.0019 7.71499 24.128C6.88564 23.2682 6.3276 22.1835 6.11039 21.0088C5.89318 19.8341 6.0264 18.6215 6.49346 17.5221C6.96053 16.4226 7.74078 15.4848 8.73701 14.8256C9.73325 14.1665 10.9014 13.815 12.096 13.815C12.6764 13.815 13.2331 14.0456 13.6435 14.456C14.0539 14.8664 14.2845 15.4231 14.2845 16.0035C14.2845 16.5839 14.0539 17.1406 13.6435 17.551C13.2331 17.9614 12.6764 18.192 12.096 18.192C11.756 18.191 11.424 18.292 11.142 18.482C10.8662 18.6684 10.6502 18.9306 10.52 19.237C10.39 19.5457 10.3534 19.8857 10.4149 20.2149C10.4764 20.5442 10.6333 20.8481 10.866 21.089V21.091C11.1447 21.3803 11.5165 21.5621 11.9161 21.6041C12.3156 21.6462 12.7171 21.5459 13.05 21.321C13.2833 21.165 13.4743 20.9537 13.606 20.7059C13.7378 20.4581 13.8061 20.1816 13.805 19.901C13.805 18.694 14.785 17.714 15.994 17.714ZM25.32 9.318C25.7958 10.2462 26.0252 11.281 25.9863 12.3234C25.9473 13.3657 25.6413 14.3805 25.0976 15.2706C24.5539 16.1607 23.7907 16.8963 22.8811 17.4068C21.9715 17.9173 20.946 18.1856 19.903 18.186C19.3224 18.186 18.7656 17.9554 18.3551 17.5449C17.9446 17.1343 17.714 16.5776 17.714 15.997C17.714 15.4164 17.9446 14.8597 18.3551 14.4491C18.7656 14.0386 19.3224 13.808 19.903 13.808C20.2395 13.8083 20.5686 13.7093 20.8492 13.5234C21.1297 13.3376 21.3491 13.073 21.48 12.763C21.5762 12.5328 21.6212 12.2844 21.6119 12.0351C21.6026 11.7857 21.5391 11.5414 21.426 11.319C21.3165 11.1032 21.1623 10.9131 20.9737 10.7615C20.7851 10.6099 20.5663 10.5002 20.332 10.4396C20.0977 10.3791 19.8532 10.3691 19.6147 10.4104C19.3763 10.4517 19.1493 10.5432 18.949 10.679C18.7154 10.8347 18.5241 11.046 18.3922 11.2938C18.2602 11.5416 18.1918 11.8183 18.193 12.099C18.1992 12.3902 18.1471 12.6797 18.0399 12.9505C17.9327 13.2214 17.7725 13.468 17.5687 13.6761C17.3649 13.8843 17.1216 14.0496 16.8531 14.1624C16.5846 14.2752 16.2962 14.3333 16.005 14.3333C15.7137 14.3332 15.4254 14.275 15.1569 14.162C14.8884 14.0491 14.6452 13.8836 14.4415 13.6754C14.2378 13.4672 14.0778 13.2205 13.9707 12.9496C13.8636 12.6787 13.8117 12.3892 13.818 12.098C13.8173 10.9696 14.1303 9.86329 14.7222 8.90259C15.314 7.94189 16.1613 7.16467 17.1694 6.65777C18.1775 6.15087 19.3067 5.93425 20.4308 6.03212C21.5549 6.12999 22.6297 6.5385 23.535 7.212L23.539 7.215C24.2849 7.77115 24.8937 8.49048 25.319 9.318H25.32Z" fill="white"/>
</g>
<defs>
<clipPath id="clip0_16_853">
<rect width="32" height="32" fill="white"/>
</clipPath>
</defs>
</svg>
