<svg width="32" height="32" viewBox="0 0 32 32" fill="none" xmlns="http://www.w3.org/2000/svg">
<g clip-path="url(#clip0_16_895)">
<path d="M16 32C24.8366 32 32 24.8366 32 16C32 7.16344 24.8366 0 16 0C7.16344 0 0 7.16344 0 16C0 24.8366 7.16344 32 16 32Z" fill="#00AFEC"/>
<path d="M20.306 11.828C20.355 11.749 20.399 11.644 20.444 11.554C21.4624 9.75064 21.9984 7.71504 22 5.64399C20.565 4.81599 19.05 4.29399 17.402 4.11299C18.012 6.77499 18.876 9.35299 20.125 11.782L20.306 11.828ZM12.078 11.373L12.033 11.363L11.683 11.283V11.277H11.678L11.993 9.90399C12.226 9.95399 12.459 10.009 12.691 10.066H12.696C13.5453 8.14999 14.2073 6.15639 14.673 4.11299C12.5253 4.35016 10.4818 5.1639 8.759 6.46799V6.47199C7.31345 7.56663 6.13441 8.97425 5.31023 10.5893C4.48605 12.2045 4.03812 13.9852 4 15.798V16.038C5.28089 16.7742 6.68513 17.2709 8.144 17.504L8.151 17.497C9.68196 15.6066 10.9999 13.5532 12.081 11.374H12.078V11.373ZM19.59 13.398C19.853 13.538 19.951 13.738 20.076 14.13C20.249 14.722 20.132 15.345 20.009 15.93L21.46 16.267L21.82 14.704C23.285 16.959 24.91 19.288 26.883 21.116C26.525 21.929 26.303 22.213 25.776 22.927C22.546 21.933 19.106 21.406 15.726 21.439L16.015 20.284L15.051 20.059C14.901 20.021 14.748 19.954 14.658 19.822C14.545 19.672 14.545 19.474 14.583 19.297L15.186 16.675C15.498 16.75 15.824 16.799 16.116 16.938C16.2526 16.9928 16.3744 17.0791 16.4715 17.1898C16.5687 17.3004 16.6384 17.4324 16.675 17.575C16.754 17.973 16.585 18.355 16.517 18.738L17.815 19.038L18.897 14.35L18.787 14.313L18.702 14.297C19.002 13.982 19.264 13.702 19.535 13.36L19.591 13.398H19.59ZM8.182 17.805L8.213 17.762C8.465 17.818 8.659 17.797 8.917 17.824C9.84 17.906 10.736 17.924 11.655 17.794C11.725 17.784 11.797 17.777 11.868 17.774L11.655 18.592C11.617 18.754 11.546 18.922 11.407 19.024C11.3383 19.0696 11.2608 19.1004 11.1796 19.1145C11.0984 19.1286 11.0151 19.1257 10.935 19.106C10.605 19.039 10.275 18.949 9.941 18.885C9.84 19.342 9.731 19.8 9.626 20.254L11.842 20.767C11.752 21.18 11.73 21.292 11.636 21.701C9.79132 21.954 7.96938 22.3515 6.187 22.89C5.662 22.177 5.437 22.005 5.085 21.191C6.207 20.151 7.217 18.994 8.182 17.805ZM13.327 21.109L14.216 21.315L14.186 21.491L13.237 21.559L13.327 21.109ZM11.688 17.53C11.757 17.5205 11.8264 17.5145 11.896 17.512V17.508L13.04 12.558C13.085 12.333 13.175 12.108 13.104 11.883C13.0765 11.8023 13.0308 11.7291 12.9705 11.6689C12.9102 11.6087 12.8368 11.5632 12.756 11.536L12.719 11.524C12.529 11.473 12.675 11.509 12.482 11.464C12.461 11.459 12.365 11.491 12.343 11.487C11.2739 13.6407 9.96854 15.6689 8.451 17.534C8.702 17.587 8.661 17.572 8.912 17.598C9.837 17.683 10.768 17.66 11.687 17.531L11.688 17.53Z" fill="white"/>
<path d="M14.23 10.417V10.421C14.406 9.678 14.571 8.932 14.751 8.19L16.229 8.53L15.715 10.762L16.6 10.968C16.688 10.597 16.775 10.225 16.86 9.853L16.989 9.295L17.118 8.737L18.595 9.074C18.575 9.174 18.553 9.274 18.531 9.374C18.388 10.021 18.229 10.662 18.086 11.311L19.787 11.707C18.538 9.277 17.711 6.737 17.102 4.075C16.72 4.03 16.559 4.045 16.172 4.038H15.936C15.512 4.038 15.355 4.027 14.939 4.075C14.471 6.118 13.919 8.261 13.069 10.177L14.23 10.417ZM16.191 12.326L16.236 12.336L16.241 12.326H16.191Z" fill="white"/>
<path d="M16.195 12.325L15.509 15.299C15.935 15.393 16.379 15.549 16.817 15.426C16.9578 15.3817 17.0855 15.3034 17.1889 15.1981C17.2923 15.0927 17.3683 14.9636 17.41 14.822C17.492 14.559 17.533 14.289 17.605 14.027L18.329 14.211C18.361 14.216 18.324 14.235 18.345 14.214L18.363 14.2C18.663 13.878 19.003 13.525 19.273 13.184C18.8301 12.9625 18.3581 12.8046 17.871 12.715L16.195 12.325ZM26.965 11.156C25.93 8.842 24.455 7.1 22.262 5.83C22.26 7.902 21.762 9.751 20.744 11.556C20.6822 11.6689 20.6258 11.7847 20.575 11.903C21.261 12.053 21.689 12.145 22.375 12.299V12.306L21.933 14.293C23.395 16.547 25.026 19.029 26.995 20.859C27.623 19.427 27.965 17.886 28 16.322V15.759C27.9617 14.1711 27.61 12.6065 26.965 11.155V11.156ZM4 16.3V16.473C4.023 18.072 4.365 19.387 5.005 20.853C6.06673 19.8736 7.05319 18.8156 7.956 17.688C6.501 17.456 5.275 17.04 4 16.3ZM15.685 21.7L15.182 23.89H15.179L13.694 23.55L14.107 21.753L13.162 21.82L12.812 23.343H12.81L11.324 23.002C11.4 22.664 11.474 22.334 11.557 22.001C9.788 22.241 8.042 22.626 6.337 23.152C7.43204 24.6382 8.85481 25.8521 10.4949 26.6994C12.135 27.5468 13.9483 28.0048 15.794 28.038H16.285C18.117 27.9907 19.9141 27.5261 21.5394 26.6794C23.1647 25.8327 24.5754 24.6263 25.664 23.152C22.4323 22.1568 19.0663 21.667 15.685 21.7Z" fill="white"/>
</g>
<defs>
<clipPath id="clip0_16_895">
<rect width="32" height="32" fill="white"/>
</clipPath>
</defs>
</svg>
