<svg width="32" height="32" viewBox="0 0 32 32" fill="none" xmlns="http://www.w3.org/2000/svg">
<g clip-path="url(#clip0_16_916)">
<path d="M16 32C24.8366 32 32 24.8366 32 16C32 7.16344 24.8366 0 16 0C7.16344 0 0 7.16344 0 16C0 24.8366 7.16344 32 16 32Z" fill="#1D9AD7"/>
<path fill-rule="evenodd" clip-rule="evenodd" d="M26 12.212C24.991 11.158 22.918 10.276 19.052 9.735C17.8331 9.56433 16.6091 9.43126 15.382 9.336C14.429 9.279 13.504 9.222 12.608 9.222C11.123 11.442 9.722 14.119 8.489 17.336C7.144 20.866 5.94 24.34 5.1 27.5H4.848C4.932 24.112 5.492 20.269 6.641 16.283C7.398 13.693 8.294 11.414 9.303 9.422C4.763 9.906 1.513 11.301 0.000999451 13.293C1.29 10.133 5.128 7.457 10.984 6.518C14.094 1.877 17.764 -0.201999 20.818 0.710001C21.882 1.023 22.779 1.706 23.508 2.674C23.423 2.617 23.339 2.56 23.228 2.532C20.986 1.621 17.96 2.93 15.018 6.176H15.158C21.742 6.148 25.076 8.938 26.001 12.212H26ZM17.763 16.482C19.556 16.482 21.013 17.991 21.013 19.842C21.013 21.692 19.556 23.201 17.763 23.201C15.97 23.201 14.513 21.692 14.513 19.841C14.513 17.963 15.97 16.482 17.763 16.482Z" fill="white"/>
</g>
<defs>
<clipPath id="clip0_16_916">
<rect width="32" height="32" fill="white"/>
</clipPath>
</defs>
</svg>
