<svg width="32" height="32" viewBox="0 0 32 32" fill="none" xmlns="http://www.w3.org/2000/svg">
<g clip-path="url(#clip0_16_932)">
<path d="M16 32C24.8366 32 32 24.8366 32 16C32 7.16344 24.8366 0 16 0C7.16344 0 0 7.16344 0 16C0 24.8366 7.16344 32 16 32Z" fill="#2D475B"/>
<path d="M12.869 12.685H23.954V15.173H12.869V12.685ZM23.954 16.829H24V23.372C24 23.372 15.353 29.637 8.63699 22.82C8.63699 22.82 4.95699 19.088 6.29099 13.652C6.29099 13.652 7.34899 6.88099 15.399 6.05199C15.399 6.05199 20.366 5.35999 23.586 9.04599L21.654 10.934C21.654 10.934 17.56 6.69599 12.087 10.014C12.087 10.014 7.62499 12.501 9.46499 18.766C9.46499 18.766 11.489 24.202 17.836 23.096C17.836 23.096 19.998 22.604 21.102 21.652V19.317H12.87V16.829H23.954Z" fill="white"/>
</g>
<defs>
<clipPath id="clip0_16_932">
<rect width="32" height="32" fill="white"/>
</clipPath>
</defs>
</svg>
