<svg width="32" height="32" viewBox="0 0 32 32" fill="none" xmlns="http://www.w3.org/2000/svg">
<g clip-path="url(#clip0_16_956)">
<path d="M16 32C24.8366 32 32 24.8366 32 16C32 7.16344 24.8366 0 16 0C7.16344 0 0 7.16344 0 16C0 24.8366 7.16344 32 16 32Z" fill="#008DDE"/>
<path d="M24.029 17.326C24.1267 17.3296 24.2241 17.3135 24.3154 17.2786C24.4067 17.2438 24.49 17.1908 24.5604 17.123C24.6308 17.0552 24.6868 16.9739 24.725 16.8839C24.7632 16.794 24.783 16.6972 24.783 16.5995C24.783 16.5018 24.7632 16.405 24.725 16.3151C24.6868 16.2251 24.6308 16.1438 24.5604 16.076C24.49 16.0082 24.4067 15.9552 24.3154 15.9204C24.2241 15.8855 24.1267 15.8694 24.029 15.873H22.369V14.231H25.84C25.9377 14.2346 26.0351 14.2185 26.1264 14.1836C26.2177 14.1488 26.301 14.0958 26.3714 14.028C26.4418 13.9602 26.4978 13.8789 26.536 13.7889C26.5742 13.699 26.594 13.6022 26.594 13.5045C26.594 13.4068 26.5742 13.31 26.536 13.2201C26.4978 13.1301 26.4418 13.0488 26.3714 12.981C26.301 12.9132 26.2177 12.8602 26.1264 12.8254C26.0351 12.7905 25.9377 12.7744 25.84 12.778H22.355C22.2846 12 21.9585 11.2673 21.4277 10.6942C20.8969 10.121 20.1913 9.7398 19.421 9.61V7.861C19.4246 7.76332 19.4085 7.66592 19.3736 7.57462C19.3388 7.48331 19.2858 7.39998 19.218 7.32959C19.1502 7.25921 19.0689 7.20323 18.9789 7.16499C18.889 7.12675 18.7922 7.10704 18.6945 7.10704C18.5968 7.10704 18.5 7.12675 18.4101 7.16499C18.3201 7.20323 18.2388 7.25921 18.171 7.32959C18.1032 7.39998 18.0502 7.48331 18.0154 7.57462C17.9805 7.66592 17.9644 7.76332 17.968 7.861V9.561H16.326V5.74C16.3296 5.64232 16.3135 5.54492 16.2786 5.45362C16.2438 5.36231 16.1908 5.27898 16.123 5.20859C16.0552 5.13821 15.9739 5.08223 15.8839 5.04399C15.794 5.00575 15.6972 4.98604 15.5995 4.98604C15.5018 4.98604 15.405 5.00575 15.3151 5.04399C15.2251 5.08223 15.1438 5.13821 15.076 5.20859C15.0082 5.27898 14.9552 5.36231 14.9204 5.45362C14.8855 5.54492 14.8694 5.64232 14.873 5.74V9.56H13.23V7.86C13.223 7.67198 13.1434 7.49399 13.0079 7.36344C12.8725 7.2329 12.6916 7.15996 12.5035 7.15996C12.3154 7.15996 12.1345 7.2329 11.9991 7.36344C11.8636 7.49399 11.784 7.67198 11.777 7.86V9.61C11.0067 9.7398 10.3011 10.121 9.77029 10.6942C9.2395 11.2673 8.91344 12 8.843 12.778H4.74C4.64233 12.7744 4.54493 12.7905 4.45362 12.8254C4.36231 12.8602 4.27898 12.9132 4.2086 12.981C4.13821 13.0488 4.08223 13.1301 4.04399 13.2201C4.00575 13.31 3.98604 13.4068 3.98604 13.5045C3.98604 13.6022 4.00575 13.699 4.04399 13.7889C4.08223 13.8789 4.13821 13.9602 4.2086 14.028C4.27898 14.0958 4.36231 14.1488 4.45362 14.1836C4.54493 14.2185 4.64233 14.2346 4.74 14.231H8.83V15.873H7.17C7.07233 15.8694 6.97493 15.8855 6.88362 15.9204C6.79231 15.9552 6.70898 16.0082 6.6386 16.076C6.56821 16.1438 6.51223 16.2251 6.47399 16.3151C6.43575 16.405 6.41604 16.5018 6.41604 16.5995C6.41604 16.6972 6.43575 16.794 6.47399 16.8839C6.51223 16.9739 6.56821 17.0552 6.6386 17.123C6.70898 17.1908 6.79231 17.2438 6.88362 17.2786C6.97493 17.3135 7.07233 17.3296 7.17 17.326H8.83V18.968H5.667C5.56933 18.9644 5.47193 18.9805 5.38062 19.0154C5.28931 19.0502 5.20598 19.1032 5.1356 19.171C5.06521 19.2388 5.00923 19.3201 4.97099 19.4101C4.93275 19.5 4.91304 19.5968 4.91304 19.6945C4.91304 19.7922 4.93275 19.889 4.97099 19.9789C5.00923 20.0689 5.06521 20.1502 5.1356 20.218C5.20598 20.2858 5.28931 20.3388 5.38062 20.3736C5.47193 20.4085 5.56933 20.4246 5.667 20.421H8.843C8.91344 21.199 9.2395 21.9317 9.77029 22.5048C10.3011 23.078 11.0067 23.4592 11.777 23.589V24.719C11.7734 24.8167 11.7895 24.9141 11.8244 25.0054C11.8592 25.0967 11.9122 25.18 11.98 25.2504C12.0478 25.3208 12.1291 25.3768 12.2191 25.415C12.309 25.4532 12.4058 25.473 12.5035 25.473C12.6012 25.473 12.698 25.4532 12.7879 25.415C12.8779 25.3768 12.9592 25.3208 13.027 25.2504C13.0948 25.18 13.1478 25.0967 13.1826 25.0054C13.2175 24.9141 13.2336 24.8167 13.23 24.719V23.638H14.872V26.929C14.879 27.117 14.9586 27.295 15.0941 27.4255C15.2295 27.5561 15.4104 27.629 15.5985 27.629C15.7866 27.629 15.9675 27.5561 16.1029 27.4255C16.2384 27.295 16.318 27.117 16.325 26.929V23.638H17.967V25.338C17.9634 25.4357 17.9795 25.5331 18.0144 25.6244C18.0492 25.7157 18.1022 25.799 18.17 25.8694C18.2378 25.9398 18.3191 25.9958 18.4091 26.034C18.499 26.0722 18.5958 26.092 18.6935 26.092C18.7912 26.092 18.888 26.0722 18.9779 26.034C19.0679 25.9958 19.1492 25.9398 19.217 25.8694C19.2848 25.799 19.3378 25.7157 19.3726 25.6244C19.4075 25.5331 19.4236 25.4357 19.42 25.338V23.59C20.1903 23.4602 20.8959 23.079 21.4267 22.5058C21.9575 21.9327 22.2836 21.2 22.354 20.422H27.165C27.2627 20.4256 27.3601 20.4095 27.4514 20.3746C27.5427 20.3398 27.626 20.2868 27.6964 20.219C27.7668 20.1512 27.8228 20.0699 27.861 19.9799C27.8992 19.89 27.919 19.7932 27.919 19.6955C27.919 19.5978 27.8992 19.501 27.861 19.4111C27.8228 19.3211 27.7668 19.2398 27.6964 19.172C27.626 19.1042 27.5427 19.0512 27.4514 19.0164C27.3601 18.9815 27.2627 18.9654 27.165 18.969H22.37V17.327H24.029V17.326ZM21.209 20.108C21.2085 20.7364 20.9586 21.3389 20.5143 21.7833C20.0699 22.2276 19.4674 22.4775 18.839 22.478H12.359C11.7306 22.4775 11.1281 22.2276 10.6837 21.7833C10.2394 21.3389 9.98953 20.7364 9.989 20.108V13.09C9.98953 12.4616 10.2394 11.8591 10.6837 11.4147C11.1281 10.9704 11.7306 10.7205 12.359 10.72H18.839C19.4674 10.7205 20.0699 10.9704 20.5143 11.4147C20.9586 11.8591 21.2085 12.4616 21.209 13.09V20.107V20.108Z" fill="white"/>
<path d="M13.901 12.435C13.6204 12.4305 13.3397 12.4402 13.06 12.464C12.618 12.514 12.293 12.914 12.279 13.348C12.257 14.332 12.275 15.318 12.269 16.302C12.283 16.804 12.235 17.312 12.309 17.809C12.38 18.253 12.814 18.539 13.245 18.538C14.585 18.547 15.925 18.541 17.265 18.542V19.097H12.95L12.395 20.762H16.689C17.191 20.748 17.698 20.796 18.196 20.723C18.64 20.652 18.925 20.218 18.924 19.787C18.934 18.034 18.926 16.281 18.929 14.527C18.913 14.057 18.97 13.578 18.875 13.114C18.774 12.641 18.267 12.408 17.819 12.437H14.743C14.463 12.442 14.181 12.436 13.9 12.434L13.901 12.435ZM13.934 14.102H17.264V16.877H13.934V14.102Z" fill="white"/>
</g>
<defs>
<clipPath id="clip0_16_956">
<rect width="32" height="32" fill="white"/>
</clipPath>
</defs>
</svg>
