<svg width="32" height="32" viewBox="0 0 32 32" fill="none" xmlns="http://www.w3.org/2000/svg">
<g clip-path="url(#clip0_16_966)">
<path d="M16 32C24.8366 32 32 24.8366 32 16C32 7.16344 24.8366 0 16 0C7.16344 0 0 7.16344 0 16C0 24.8366 7.16344 32 16 32Z" fill="#372D2C"/>
<path d="M9.96501 18.487L10.066 18.412H10.032L9.56601 18.842C9.67583 18.6996 9.81154 18.5791 9.96601 18.487H9.96501Z" fill="black"/>
<path d="M26.95 13.44C26.9005 13.3632 26.8237 13.3081 26.735 13.286C26.3895 13.2012 26.0428 13.1212 25.695 13.046L25.789 12.582L25.849 12.29L25.877 12.142L25.904 11.982C25.9419 11.7447 25.9153 11.5015 25.827 11.278C25.7336 11.0397 25.5802 10.8296 25.3817 10.6681C25.1832 10.5065 24.9463 10.399 24.694 10.356C24.6109 9.85192 24.496 9.3536 24.35 8.86401L24.333 8.80401L21.847 5.78401L21.754 5.75701C21.653 5.73001 19.413 5.06801 16.364 5.06701L16.398 4.46501C16.6783 4.37278 16.9163 4.18332 17.0691 3.93087C17.2219 3.67842 17.2793 3.37965 17.231 3.08856C17.1827 2.79746 17.0318 2.53326 16.8057 2.3437C16.5796 2.15414 16.2931 2.05174 15.998 2.05501C15.7035 2.05249 15.4178 2.15522 15.1923 2.34471C14.9668 2.53419 14.8164 2.79796 14.7681 3.0885C14.7199 3.37905 14.777 3.67728 14.9291 3.92946C15.0813 4.18164 15.3185 4.37121 15.598 4.46401L15.633 5.06901C12.571 5.07201 10.319 5.73001 10.223 5.76201L10.13 5.78901L7.644 8.80901L7.628 8.86901C7.482 9.35901 7.367 9.85601 7.284 10.359H7.276L7.1 10.403C6.77131 10.5032 6.48898 10.7171 6.30356 11.0064C6.11815 11.2957 6.04173 11.6415 6.088 11.982L6.115 12.141L6.143 12.289L6.203 12.581L6.297 13.047C5.952 13.123 5.607 13.201 5.263 13.285C5.17427 13.3069 5.09731 13.362 5.048 13.439C5.01353 13.4967 4.9969 13.5634 5.0002 13.6306C5.0035 13.6977 5.02659 13.7624 5.06656 13.8165C5.10654 13.8706 5.16161 13.9116 5.22485 13.9345C5.2881 13.9574 5.35669 13.961 5.422 13.945C5.758 13.863 6.094 13.785 6.431 13.712L6.456 13.84C5.67066 16.3309 5.85129 19.0262 6.962 21.39C8.47 24.608 11.94 28.078 16 28.078C20.059 28.078 23.53 24.608 25.042 21.385C26.1491 19.0191 26.3258 16.3232 25.537 13.833L25.561 13.715C25.899 13.789 26.237 13.867 26.574 13.949C26.6393 13.965 26.7079 13.9614 26.7712 13.9385C26.8344 13.9156 26.8895 13.8746 26.9294 13.8205C26.9694 13.7664 26.9925 13.7017 26.9958 13.6346C26.9991 13.5674 26.9825 13.5007 26.948 13.443L26.95 13.44ZM15.112 3.29801C15.1128 3.04049 15.2147 2.79358 15.3957 2.61046C15.5768 2.42735 15.8225 2.32268 16.08 2.31901C16.62 2.31901 16.62 4.27201 16.08 4.27701C15.8225 4.27334 15.5768 4.16867 15.3957 3.98555C15.2147 3.80243 15.1128 3.55552 15.112 3.29801ZM15.76 4.50801C15.839 4.52301 15.918 4.53101 15.998 4.53101H16.036L16.112 6.63301C16.1611 6.69842 16.185 6.77939 16.1791 6.861C16.1732 6.9426 16.138 7.01932 16.08 7.07701C16.0482 7.1088 16.0105 7.134 15.969 7.15116C15.9275 7.16832 15.8829 7.17711 15.838 7.17701C15.332 7.17701 14.925 7.02301 14.925 6.83701C14.925 6.66501 15.267 6.52201 15.715 6.49801L15.838 6.49501H15.872L15.76 4.50801ZM8.156 9.34501L8.447 9.24101L8.94201 9.07601L9.592 8.88401C9.828 8.81201 10.092 8.74601 10.367 8.67401L11.241 8.47701C11.544 8.41701 11.857 8.35001 12.181 8.29501C12.506 8.24001 12.831 8.19601 13.161 8.14101C13.491 8.08601 13.821 8.05901 14.145 8.02101C14.47 7.98101 14.789 7.96501 15.102 7.93801C15.267 7.92301 15.436 7.91601 15.597 7.91001H15.614L15.999 11.337L16.389 7.88101H16.807C17.055 7.88101 17.286 7.87001 17.489 7.88101L18.017 7.90301L18.479 7.91901L18.023 7.87501L17.495 7.82501C17.291 7.80401 17.065 7.79801 16.813 7.78201C16.5438 7.76208 16.274 7.75108 16.004 7.74901H16C15.716 7.74901 15.41 7.73201 15.098 7.74301C14.787 7.75401 14.46 7.74901 14.13 7.77101L13.129 7.83701C12.793 7.86401 12.458 7.89201 12.128 7.93601C11.798 7.98001 11.473 8.02901 11.165 8.06801C10.868 8.10501 10.575 8.16201 10.299 8.21101L9.807 8.17201L10.786 6.83601L15.675 5.77001L15.705 6.30001C15.045 6.35201 14.55 6.57101 14.55 6.83401C14.55 7.13401 15.2 7.37801 16.002 7.37801C16.804 7.37801 17.454 7.13501 17.454 6.83401C17.454 6.57101 16.959 6.35201 16.299 6.30001L16.329 5.77201L21.197 6.83501L22.177 8.17101L20.815 8.28101L20.79 8.27801L20.805 8.28201H20.785L23.392 9.57401C23.392 9.57401 24.516 13.184 22.967 16.252C22.7902 16.5987 22.5845 16.9299 22.352 17.242C22.352 17.242 19.946 18.353 16.247 18.549L16 17.532C16.3025 17.5421 16.6037 17.4897 16.885 17.378L17.655 17.125C19.219 16.643 20.785 16.168 22.352 15.701L22.506 15.657L22.556 15.514L22.606 15.371L22.644 15.233L22.715 14.963C22.841 14.433 22.931 13.895 22.985 13.352L23.029 12.802L23.039 12.527V12.247L23.045 11.961L23.018 11.675L22.974 11.389C22.9552 11.2961 22.9311 11.2043 22.902 11.114L22.858 10.971L22.808 10.8L22.773 10.795L22.759 10.751L22.709 10.58L22.512 10.553C20.8882 10.3636 19.2564 10.2515 17.622 10.217L17.452 10.212L17.38 10.355L16.484 12.111L16 12.119L15.47 12.129L14.51 10.409L14.46 10.316L14.36 10.322C13.547 10.367 12.735 10.433 11.924 10.52C11.1159 10.6057 10.3109 10.7175 9.51 10.855H9.526H9.516L9.48201 10.965C9.47307 10.9934 9.46507 11.0221 9.458 11.051C9.474 10.986 9.493 10.922 9.513 10.855C9.4814 10.9434 9.44467 11.0299 9.403 11.114C9.385 11.184 9.36501 11.253 9.35201 11.323L9.342 11.35L9.282 11.62L9.238 11.889L9.21 12.164C9.2 12.346 9.194 12.533 9.2 12.714L9.221 13.264C9.258 13.814 9.331 14.362 9.441 14.903L9.50101 15.173L9.57901 15.448L9.601 15.514L9.67801 15.541L12.791 16.564C13.707 16.862 14.622 17.169 15.535 17.483C15.613 17.499 15.692 17.51 15.772 17.516L15.827 17.521H15.843L15.871 17.527L15.986 17.532H16.003L15.749 18.567C14.8412 18.5935 13.9326 18.5608 13.029 18.469C10.807 18.171 9.34501 17.639 8.965 17.488C7.7318 14.9573 7.44518 12.0687 8.157 9.34501H8.156ZM19.956 10.875L17.015 16.42L16.818 16.79L16.675 16.839C16.5038 16.9009 16.324 16.936 16.142 16.943C15.8631 16.971 15.5814 16.9372 15.317 16.844L15.217 16.806L15.343 16.571L18.423 10.771L18.562 10.508C19.062 10.53 19.574 10.569 20.096 10.613L19.956 10.875ZM20.86 10.965L21.004 10.693L21.427 10.732L21.829 10.776L21.879 10.781H21.911L21.763 11.061L19.323 15.659L19.123 16.036L17.979 16.399L18.176 16.026L20.86 10.965ZM6.51 12.235L6.494 12.087L6.483 11.944C6.46788 11.7181 6.53114 11.4938 6.66212 11.3091C6.7931 11.1244 6.98378 10.9905 7.202 10.93C7.00964 12.566 7.15255 14.224 7.622 15.803L7.577 15.789C7.41459 15.7316 7.26707 15.6386 7.14526 15.5168C7.02344 15.3949 6.93042 15.2474 6.873 15.085C6.82932 14.9473 6.8018 14.805 6.791 14.661L6.543 12.535L6.51 12.235ZM9.264 23.688L9.249 23.676L9.256 23.686C9.20023 23.6709 9.14883 23.6428 9.106 23.604C8.48905 22.8388 7.96474 22.0033 7.544 21.115C6.68027 19.2722 6.41453 17.2054 6.784 15.204L6.788 15.214C6.87365 15.3772 6.99422 15.5196 7.14114 15.6309C7.28805 15.7422 7.4577 15.8197 7.638 15.858C7.851 16.56 8.12701 17.241 8.46301 17.893L8.513 17.981L8.606 18.025C8.958 18.169 9.31701 18.295 9.682 18.404H9.691L9.665 18.412C9.58418 18.4392 9.50445 18.4696 9.426 18.503C9.36004 18.5306 9.29469 18.5596 9.23 18.59L8.806 18.793L8.669 18.859L8.65201 18.997C8.53251 20.043 8.63682 21.1024 8.958 22.105C9.11301 22.604 9.33101 23.081 9.60701 23.525L9.61201 23.535L9.629 23.579C9.653 23.69 9.439 23.735 9.264 23.689V23.688ZM13.044 25.9C12.2698 25.6168 11.5621 25.1774 10.965 24.609C10.6245 24.2761 10.3339 23.8959 10.102 23.48C9.87169 23.0637 9.69432 22.6203 9.57401 22.16C9.45601 21.6989 9.38399 21.2273 9.359 20.752C9.32918 20.3351 9.34225 19.9162 9.398 19.502L9.656 19.399C9.921 19.312 10.189 19.235 10.459 19.169L10.872 19.086C11.229 19.026 11.588 18.983 11.95 18.959H11.993L12.009 18.961C11.7 19.8032 11.5442 20.6939 11.549 21.591C11.549 23.381 12.139 24.904 13.076 25.919L13.044 25.9ZM17.344 24.757C16.93 24.9913 16.4617 25.1127 15.986 25.109C15.4904 25.1114 15.0035 24.9782 14.578 24.724C14.376 24.5054 14.2038 24.2609 14.066 23.997C14.2991 24.2675 14.5868 24.4857 14.91 24.6373C15.2333 24.7889 15.585 24.8706 15.942 24.8769C16.299 24.8832 16.6534 24.8141 16.9818 24.674C17.3103 24.5339 17.6054 24.3261 17.848 24.064C17.7111 24.3164 17.5416 24.5497 17.344 24.758V24.757ZM15.986 24.339C15.7285 24.3402 15.4733 24.2906 15.235 24.1932C14.9967 24.0957 14.7799 23.9522 14.5971 23.771C14.4142 23.5897 14.2689 23.3742 14.1694 23.1367C14.0698 22.8992 14.0181 22.6445 14.017 22.387V22.38C14.0166 21.9927 14.131 21.614 14.3457 21.2916C14.5604 20.9692 14.8657 20.7177 15.2233 20.5688C15.5808 20.4198 15.9744 20.3801 16.3545 20.4547C16.7345 20.5293 17.084 20.7148 17.3587 20.9879C17.6334 21.2609 17.8211 21.6092 17.898 21.9888C17.9749 22.3684 17.9376 22.7623 17.7909 23.1207C17.6441 23.4791 17.3944 23.786 17.0734 24.0027C16.7523 24.2194 16.3743 24.336 15.987 24.338V24.339H15.986ZM18.474 22C18.3733 21.405 18.0627 20.8658 17.5985 20.4803C17.1343 20.0947 16.5473 19.8883 15.9439 19.8984C15.3405 19.9086 14.7608 20.1347 14.3099 20.5357C13.8589 20.9366 13.5666 21.486 13.486 22.084C13.4562 21.8574 13.4379 21.6295 13.431 21.401C13.6322 20.8876 13.9843 20.4473 14.4407 20.1379C14.8972 19.8286 15.4366 19.6647 15.988 19.668H15.998C16.5385 19.6667 17.0673 19.826 17.5172 20.1256C17.967 20.4253 18.3178 20.8518 18.525 21.351C18.5182 21.5684 18.5012 21.7853 18.474 22.001V22ZM18.906 25.931H18.916L18.896 25.938C19.846 24.922 20.446 23.389 20.446 21.585C20.4514 20.6878 20.2952 19.7969 19.985 18.955H19.999C21.414 19.159 22.151 19.885 22.151 19.885C22.151 19.885 22.301 24.031 18.908 25.931H18.906ZM25.369 16.991V17.205C25.369 17.254 25.365 17.302 25.364 17.35C25.3606 17.4595 25.3546 17.5688 25.346 17.678C25.346 17.712 25.34 17.747 25.337 17.781C25.331 17.852 25.325 17.924 25.317 17.994C25.317 18.01 25.314 18.026 25.312 18.042C25.3044 18.1108 25.2961 18.1794 25.287 18.248V18.258L25.259 18.456V18.463C25.1005 19.4947 24.777 20.4941 24.301 21.423L24.267 21.489C24.232 21.556 24.197 21.624 24.16 21.691C23.7973 22.3675 23.3721 23.0087 22.89 23.606C22.8494 23.6447 22.8 23.6729 22.746 23.688L22.752 23.678L22.737 23.69C22.564 23.74 22.343 23.697 22.367 23.58L22.384 23.536L22.394 23.526C22.667 23.08 22.884 22.604 23.039 22.106C23.3548 21.1044 23.4576 20.0478 23.341 19.004L23.325 18.867L23.187 18.801C23.044 18.729 22.907 18.658 22.764 18.597L22.329 18.421L22.29 18.407L22.3 18.404C22.663 18.297 23.02 18.169 23.369 18.023L23.462 17.979L23.512 17.891C23.847 17.239 24.122 16.559 24.334 15.859C24.709 15.782 25.029 15.542 25.207 15.204C25.312 15.766 25.367 16.337 25.372 16.909C25.3702 16.9363 25.3692 16.9636 25.369 16.991Z" fill="white"/>
<path d="M9.64601 11.135L9.87701 10.855H9.95401H9.83901C9.72301 11.025 9.58101 11.188 9.45401 11.355C9.52701 11.281 9.58401 11.212 9.64601 11.135Z" fill="black"/>
<path d="M16.95 6.21001C17.434 6.33701 17.753 6.56801 17.753 6.83701C17.753 7.10701 17.429 7.33701 16.95 7.46401C17.61 7.40401 18.105 7.14501 18.105 6.83701C18.105 6.52901 17.61 6.26801 16.95 6.21001ZM15.359 8.68201C15.4257 8.68202 15.4897 8.6558 15.5372 8.60903C15.5847 8.56226 15.6119 8.49868 15.613 8.43201C15.613 8.39853 15.6064 8.36539 15.5935 8.33449C15.5806 8.30359 15.5618 8.27556 15.538 8.25201C15.5143 8.2287 15.4862 8.21048 15.4552 8.19844C15.4243 8.1864 15.3912 8.18081 15.358 8.18201C15.2924 8.1828 15.2298 8.20955 15.1839 8.25641C15.1379 8.30326 15.1125 8.3664 15.113 8.43201C15.113 8.57001 15.223 8.68201 15.359 8.68201ZM8.71398 9.52401C8.66437 9.52447 8.616 9.53958 8.57493 9.56742C8.53386 9.59527 8.50193 9.63462 8.48313 9.68054C8.46434 9.72646 8.45952 9.7769 8.46928 9.82555C8.47903 9.8742 8.50294 9.91889 8.53799 9.95401C8.58499 10.001 8.64798 10.026 8.71398 10.024C8.7636 10.0235 8.81197 10.0084 8.85304 9.98059C8.89411 9.95274 8.92604 9.9134 8.94483 9.86748C8.96363 9.82156 8.96845 9.77111 8.95869 9.72246C8.94894 9.67381 8.92503 9.62913 8.88999 9.59401C8.86704 9.57086 8.83956 9.5527 8.80928 9.54066C8.779 9.52862 8.74656 9.52295 8.71398 9.52401ZM9.40698 17.597C9.4566 17.5965 9.50497 17.5814 9.54604 17.5536C9.58711 17.5257 9.61904 17.4864 9.63783 17.4405C9.65663 17.3946 9.66145 17.3441 9.65169 17.2955C9.64194 17.2468 9.61803 17.2021 9.58299 17.167C9.56004 17.1439 9.53256 17.1257 9.50228 17.1137C9.472 17.1016 9.43956 17.0959 9.40698 17.097C9.34084 17.0975 9.27756 17.124 9.23079 17.1708C9.18402 17.2176 9.15751 17.2809 9.15698 17.347C9.16198 17.487 9.27198 17.597 9.40698 17.597ZM15.479 18.554C15.5286 18.5535 15.577 18.5384 15.618 18.5106C15.6591 18.4827 15.691 18.4434 15.7098 18.3975C15.7286 18.3516 15.7335 18.3011 15.7237 18.2525C15.7139 18.2038 15.69 18.1591 15.655 18.124C15.632 18.1009 15.6046 18.0827 15.5743 18.0707C15.544 18.0586 15.5116 18.0529 15.479 18.054C15.4122 18.0553 15.3486 18.0828 15.3019 18.1304C15.2552 18.1781 15.229 18.2422 15.229 18.309C15.2333 18.3734 15.2612 18.434 15.3073 18.4791C15.3534 18.5243 15.4145 18.551 15.479 18.554ZM16.844 8.68701C16.9107 8.68702 16.9747 8.6608 17.0222 8.61403C17.0697 8.56726 17.0969 8.50368 17.098 8.43701C17.098 8.40353 17.0914 8.37039 17.0785 8.33949C17.0656 8.30859 17.0468 8.28056 17.023 8.25701C16.9993 8.2337 16.9712 8.21548 16.9402 8.20344C16.9093 8.1914 16.8762 8.18581 16.843 8.18701C16.7774 8.1878 16.7148 8.21455 16.6689 8.26141C16.6229 8.30826 16.5975 8.3714 16.598 8.43701C16.598 8.57601 16.708 8.68701 16.844 8.68701ZM16.722 18.06C16.656 18.061 16.593 18.0877 16.5463 18.1344C16.4997 18.181 16.473 18.244 16.472 18.31C16.482 18.447 16.589 18.555 16.722 18.56C16.7716 18.5595 16.82 18.5444 16.861 18.5166C16.9021 18.4887 16.934 18.4494 16.9528 18.4035C16.9716 18.3576 16.9765 18.3071 16.9667 18.2585C16.9569 18.2098 16.933 18.1651 16.898 18.13C16.875 18.1069 16.8476 18.0887 16.8173 18.0767C16.787 18.0646 16.7546 18.0589 16.722 18.06ZM9.94498 19.743C9.90141 19.7399 9.85784 19.7491 9.81927 19.7696C9.7807 19.7901 9.74871 19.8211 9.72699 19.859C9.7039 19.8979 9.69122 19.942 9.69016 19.9872C9.68911 20.0324 9.69973 20.0771 9.72098 20.117C9.76498 20.197 9.84699 20.246 9.93499 20.242H9.94498C10.0104 20.2407 10.0727 20.2138 10.1185 20.167C10.1643 20.1203 10.19 20.0575 10.19 19.992C10.1907 19.9284 10.1671 19.8668 10.124 19.82C10.101 19.7953 10.0731 19.7758 10.0421 19.7625C10.0111 19.7492 9.9777 19.7426 9.94399 19.743H9.94498ZM11.454 19.292C11.4214 19.2923 11.3892 19.2989 11.3592 19.3116C11.3292 19.3244 11.302 19.3428 11.2792 19.3661C11.2564 19.3893 11.2383 19.4168 11.2261 19.4469C11.2139 19.4771 11.2077 19.5094 11.208 19.542C11.208 19.68 11.318 19.792 11.454 19.792C11.5207 19.792 11.5847 19.7658 11.6322 19.719C11.6797 19.6723 11.7069 19.6087 11.708 19.542C11.708 19.5085 11.7014 19.4754 11.6885 19.4445C11.6756 19.4136 11.6568 19.3856 11.633 19.362C11.6093 19.3387 11.5812 19.3205 11.5502 19.3084C11.5193 19.2964 11.4862 19.2908 11.453 19.292H11.454ZM20.75 19.292C20.7172 19.2933 20.6849 19.301 20.655 19.3147C20.6252 19.3284 20.5983 19.3479 20.576 19.3719C20.5537 19.396 20.5363 19.4243 20.5249 19.4551C20.5135 19.4859 20.5082 19.5187 20.5095 19.5515C20.5107 19.5843 20.5184 19.6166 20.5322 19.6465C20.5459 19.6763 20.5653 19.7032 20.5894 19.7255C20.6135 19.7478 20.6418 19.7652 20.6726 19.7766C20.7034 19.788 20.7362 19.7933 20.769 19.792C20.8353 19.7894 20.8978 19.7605 20.9428 19.7117C20.9878 19.663 21.0116 19.5983 21.009 19.532C21.0063 19.4657 20.9774 19.4032 20.9287 19.3582C20.8799 19.3132 20.8153 19.2894 20.749 19.292H20.75Z" fill="white"/>
</g>
<defs>
<clipPath id="clip0_16_966">
<rect width="32" height="32" fill="white"/>
</clipPath>
</defs>
</svg>
