<svg width="32" height="32" viewBox="0 0 32 32" fill="none" xmlns="http://www.w3.org/2000/svg">
<g clip-path="url(#clip0_16_1023)">
<path d="M16 32C24.8366 32 32 24.8366 32 16C32 7.16344 24.8366 0 16 0C7.16344 0 0 7.16344 0 16C0 24.8366 7.16344 32 16 32Z" fill="#35A5F3"/>
<path d="M7.02001 7.02701C8.29001 5.70001 10.61 5.64701 11.921 6.93701C13.291 8.27701 14.647 9.62901 15.989 10.994C17.417 9.63701 18.753 8.18901 20.187 6.83801C21.551 5.60601 23.871 5.75501 25.082 7.13501C26.324 8.43701 26.304 10.708 25.015 11.972C23.688 13.323 22.344 14.654 21.005 15.994C22.373 17.403 23.798 18.757 25.155 20.184C26.371 21.517 26.255 23.789 24.936 25.014C23.639 26.324 21.313 26.328 20.018 25.012C18.671 23.69 17.353 22.336 16.015 21.008C14.587 22.382 13.225 23.824 11.782 25.184C10.4 26.41 8.07001 26.227 6.88001 24.82C5.68001 23.521 5.71001 21.308 6.96001 20.05C8.13483 18.8472 9.32358 17.6582 10.526 16.483L12.033 17.988C10.857 19.202 9.62001 20.364 8.46201 21.596C7.68101 22.396 8.36901 23.888 9.46601 23.87C10.131 23.929 10.59 23.378 11.022 22.962C12.169 21.794 13.333 20.647 14.48 19.479C11.98 16.957 9.44001 14.47 6.95201 11.937C5.65401 10.629 5.69501 8.29701 7.02201 7.02701H7.02001ZM8.47301 10.417C9.79601 11.797 11.17 13.128 12.517 14.485C13.167 13.827 13.821 13.173 14.479 12.522C13.176 11.209 11.878 9.88701 10.557 8.59201C10.136 8.13701 9.41601 7.96801 8.86701 8.29401C8.10301 8.66401 7.86201 9.80001 8.47201 10.417H8.47301ZM21.413 8.62701C18.927 11.067 16.491 13.559 14.018 16.011C14.685 16.658 15.35 17.307 16.001 17.971C16.5 17.479 16.996 16.981 17.493 16.483C17.995 16.984 18.494 17.488 19 17.986C18.509 18.486 18.015 18.982 17.516 19.476C18.857 20.825 20.172 22.199 21.557 23.504C22.26 24.244 23.624 23.795 23.827 22.82C24.045 22.13 23.549 21.533 23.081 21.099C20.8776 18.9061 18.6789 16.7084 16.485 14.506C16.9873 14.005 17.4877 13.502 17.986 12.997C18.486 13.495 18.985 13.993 19.496 14.483C20.811 13.12 22.205 11.833 23.5 10.449C24.153 9.81501 23.892 8.60001 23.058 8.25701C22.498 7.96801 21.815 8.17201 21.412 8.62701H21.413Z" fill="white"/>
</g>
<defs>
<clipPath id="clip0_16_1023">
<rect width="32" height="32" fill="white"/>
</clipPath>
</defs>
</svg>
