<svg width="32" height="32" viewBox="0 0 32 32" fill="none" xmlns="http://www.w3.org/2000/svg">
<g clip-path="url(#clip0_16_1043)">
<path d="M16 32C24.8366 32 32 24.8366 32 16C32 7.16344 24.8366 0 16 0C7.16344 0 0 7.16344 0 16C0 24.8366 7.16344 32 16 32Z" fill="#D59143"/>
<path d="M7.973 16.453C7.455 16.865 6.993 17.597 7.016 18.716C7.033 19.49 7.449 20.02 7.973 20.38V21.762C7.973 22.626 8.393 23.435 9.101 23.93L13.954 27.249V10.29L7.973 12.04V16.453ZM9.276 16.045C10.283 16.782 10.283 21.161 10.283 21.161C10.283 21.161 9.144 21.051 8.203 20.525C8.979 20.786 9.602 20.728 9.873 20.758L9.891 20.759H9.895L9.909 20.761L9.947 20.764L9.96 20.766H9.973C9.973 20.766 10.133 16.944 8.976 16.274C8.788 16.209 8.456 16.247 8.09 16.364C8.556 16.05 9.043 15.944 9.276 16.045ZM14.373 22.949H17.636V27.255H14.374V22.95L14.373 22.949ZM13.633 9.969L7.973 11.591V5.52C7.97285 5.41914 8.00261 5.32051 8.05851 5.23656C8.11442 5.15261 8.19396 5.08713 8.28707 5.04838C8.38019 5.00964 8.48271 4.99937 8.58166 5.01888C8.68061 5.03839 8.77156 5.08681 8.843 5.158L13.923 10.258L13.633 9.968V9.969ZM14.373 16.04H17.636V22.534H14.374V16.04H14.373ZM18.366 9.97L18.156 10.18L23.156 5.16C23.2273 5.08858 23.3181 5.03991 23.417 5.02014C23.516 5.00037 23.6186 5.01038 23.7118 5.04892C23.805 5.08746 23.8848 5.15279 23.9409 5.23664C23.997 5.3205 24.0269 5.41911 24.027 5.52V11.59L18.367 9.97H18.366ZM14.374 10.291H17.636V15.621H14.374V10.291ZM24.027 16.453V12.04L18.056 10.294V27.255L22.899 23.93C23.2473 23.686 23.5316 23.3616 23.7279 22.9844C23.9243 22.6072 24.0269 22.1882 24.027 21.763V20.38C24.551 20.02 24.967 19.49 24.984 18.716C25.008 17.597 24.545 16.865 24.027 16.453ZM22.067 20.827H22.08L22.092 20.826L22.109 20.824H22.113L22.148 20.821H22.15L22.166 20.819L22.315 20.802H22.322C22.648 20.76 23.048 20.764 23.662 20.572L23.798 20.527C22.856 21.053 21.718 21.163 21.718 21.163C21.718 21.163 21.718 16.785 22.725 16.048C22.958 15.946 23.445 16.052 23.91 16.368C23.544 16.251 23.213 16.213 23.024 16.278C21.867 16.947 22.066 20.828 22.066 20.828L22.067 20.827Z" fill="white"/>
</g>
<defs>
<clipPath id="clip0_16_1043">
<rect width="32" height="32" fill="white"/>
</clipPath>
</defs>
</svg>
