<svg width="32" height="32" viewBox="0 0 32 32" fill="none" xmlns="http://www.w3.org/2000/svg">
<g clip-path="url(#clip0_16_1051)">
<path d="M16 32C24.8366 32 32 24.8366 32 16C32 7.16344 24.8366 0 16 0C7.16344 0 0 7.16344 0 16C0 24.8366 7.16344 32 16 32Z" fill="#1591CA"/>
<path d="M16.572 15.272C16.572 15.272 17.899 12.322 15.297 9.47199C15.297 9.47199 13.817 7.57199 10.757 7.72199L11.368 7.48199C11.47 7.44199 11.577 7.41399 11.685 7.39999L12.287 7.32199L16.521 6.67199C16.521 6.67199 18.018 6.37799 19.153 6.70199C19.476 6.79499 19.77 6.96999 20.003 7.20799C20.629 7.84199 21.886 9.51899 21.063 12.172C21.063 12.172 20.246 15.122 17.185 15.822C17.185 15.822 16.419 16.022 16.572 15.272ZM16.383 16.916C16.383 16.916 18.296 19.539 22.125 18.8C22.125 18.8 24.547 18.521 25.976 15.863L25.874 16.502C25.857 16.608 25.827 16.712 25.784 16.811L25.546 17.358L23.958 21.258C23.958 21.258 23.453 22.669 22.59 23.461C22.3422 23.6866 22.0406 23.8447 21.714 23.92C20.839 24.123 18.726 24.328 16.816 22.282C16.816 22.282 14.643 20.09 15.589 17.152C15.589 17.15 15.803 16.405 16.383 16.916ZM14.998 15.969C14.998 15.969 11.728 16.313 10.503 19.944C10.503 19.944 9.55901 22.148 11.217 24.674L10.7 24.274C10.6141 24.2076 10.5368 24.1306 10.47 24.045L10.1 23.573L7.41601 20.3C7.41601 20.3 6.40901 19.173 6.13201 18.05C6.05201 17.728 6.06001 17.39 6.15401 17.072C6.40301 16.225 7.26001 14.322 10.017 13.7C10.017 13.7 13.034 12.923 15.179 15.176C15.181 15.176 15.739 15.726 14.999 15.969H14.998Z" fill="white"/>
<path opacity="0.5" d="M17.106 16.159C17.106 16.159 20.366 15.735 21.496 12.074C21.496 12.074 22.383 9.84698 20.659 7.36298L21.187 7.74998C21.274 7.81498 21.354 7.88998 21.423 7.97298L21.804 8.43498L24.574 11.641C24.574 11.641 25.608 12.741 25.916 13.859C26.003 14.179 26.003 14.515 25.916 14.835C25.689 15.688 24.882 17.613 22.141 18.303C22.141 18.303 19.145 19.153 16.943 16.957C16.945 16.957 16.373 16.421 17.106 16.159ZM15.468 16.763C15.468 16.763 14.067 19.679 16.595 22.592C16.595 22.592 18.024 24.527 21.09 24.452L20.472 24.677C20.369 24.7142 20.2619 24.7387 20.153 24.75L19.55 24.814L15.3 25.36C15.3 25.36 13.797 25.617 12.67 25.265C12.3504 25.1641 12.0621 24.9826 11.833 24.738C11.223 24.088 10.01 22.382 10.901 19.751C10.901 19.751 11.791 16.821 14.87 16.197C14.87 16.2 15.643 16.017 15.468 16.763ZM15.577 15.226C15.577 15.226 13.625 12.63 9.808 13.426C9.808 13.426 7.39 13.738 6 16.416L6.092 15.775C6.10772 15.6685 6.13661 15.5644 6.178 15.465L6.408 14.915L7.938 10.991C7.938 10.991 8.423 9.57298 9.274 8.76898C9.51948 8.54022 9.81982 8.37868 10.146 8.29998C11.018 8.08298 13.128 7.84998 15.066 9.86898C15.066 9.86898 17.271 12.03 16.368 14.981C16.368 14.979 16.164 15.729 15.577 15.226Z" fill="white"/>
</g>
<defs>
<clipPath id="clip0_16_1051">
<rect width="32" height="32" fill="white"/>
</clipPath>
</defs>
</svg>
