<svg width="32" height="32" viewBox="0 0 32 32" fill="none" xmlns="http://www.w3.org/2000/svg">
<g clip-path="url(#clip0_16_1075)">
<path d="M16 32C24.8366 32 32 24.8366 32 16C32 7.16344 24.8366 0 16 0C7.16344 0 0 7.16344 0 16C0 24.8366 7.16344 32 16 32Z" fill="#005FFA"/>
<path fill-rule="evenodd" clip-rule="evenodd" d="M20.694 14.598C20.2512 14.3968 19.7704 14.2928 19.284 14.293H14.367C13.9135 14.293 13.4785 14.1128 13.1578 13.7921C12.8372 13.4715 12.657 13.0365 12.657 12.583V6.69299H9.239V14.293C9.239 15.2 9.59932 16.0699 10.2407 16.7113C10.8821 17.3527 11.752 17.713 12.659 17.713H17.575C18.0285 17.713 18.4635 17.8932 18.7842 18.2138C19.1048 18.5345 19.285 18.9695 19.285 19.423V25.313H22.704V17.713C22.704 17.0555 22.5143 16.4119 22.1578 15.8594C21.8013 15.3069 21.2931 14.869 20.694 14.598ZM9.356 19.803V25.547H12.776V23.222C12.7757 22.3151 12.4153 21.4455 11.7739 20.8043C11.1326 20.1632 10.2629 19.803 9.356 19.803ZM19.88 6.92899H19.166V9.25399C19.166 10.161 19.5263 11.0309 20.1677 11.6723C20.8091 12.3137 21.679 12.674 22.586 12.674V6.92799H19.88V6.92899Z" fill="white"/>
</g>
<defs>
<clipPath id="clip0_16_1075">
<rect width="32" height="32" fill="white"/>
</clipPath>
</defs>
</svg>
