<svg width="32" height="32" viewBox="0 0 32 32" fill="none" xmlns="http://www.w3.org/2000/svg">
<g clip-path="url(#clip0_16_1119)">
<path d="M16 32C24.8366 32 32 24.8366 32 16C32 7.16344 24.8366 0 16 0C7.16344 0 0 7.16344 0 16C0 24.8366 7.16344 32 16 32Z" fill="#0CAFA5"/>
<path d="M8.413 11.919C8.38 11.899 8.353 11.915 8.353 11.954V14.256C8.35407 14.277 8.36006 14.2974 8.37048 14.3157C8.3809 14.3339 8.39547 14.3494 8.413 14.361L11.323 16.043C11.3405 16.0546 11.3551 16.0701 11.3655 16.0884C11.3759 16.1066 11.3819 16.127 11.383 16.148V24.478C11.3844 24.4991 11.3907 24.5197 11.4015 24.5379C11.4122 24.5561 11.4271 24.5716 11.445 24.583L13.438 25.733C13.471 25.753 13.498 25.737 13.498 25.698V14.928C13.4971 14.9069 13.4912 14.8862 13.4807 14.8678C13.4703 14.8494 13.4557 14.8337 13.438 14.822L8.413 11.919ZM23.587 11.919C23.62 11.899 23.647 11.915 23.647 11.954V14.256C23.6459 14.277 23.6399 14.2974 23.6295 14.3157C23.6191 14.3339 23.6045 14.3494 23.587 14.361L20.677 16.041C20.6593 16.0527 20.6447 16.0684 20.6343 16.0868C20.6238 16.1052 20.6179 16.1259 20.617 16.147V24.477C20.6159 24.4982 20.6098 24.5189 20.5992 24.5373C20.5886 24.5557 20.5738 24.5714 20.556 24.583L18.563 25.733C18.529 25.753 18.502 25.737 18.502 25.698V14.928C18.503 14.9069 18.5089 14.8863 18.5194 14.8679C18.5298 14.8494 18.5444 14.8337 18.562 14.822L23.587 11.919Z" fill="white"/>
<path d="M23.98 7.50299C23.98 7.46499 23.953 7.44899 23.92 7.46799L16.06 12.014C16.0414 12.0233 16.0208 12.0282 16 12.0282C15.9792 12.0282 15.9586 12.0233 15.94 12.014L8.08 7.46799C8.046 7.44799 8.019 7.46499 8.019 7.50299V9.80499C8.02007 9.82597 8.02606 9.8464 8.03648 9.86464C8.0469 9.88288 8.06147 9.89842 8.079 9.90999L14.883 13.844C14.9005 13.8556 14.915 13.8712 14.9254 13.8894C14.9358 13.9076 14.9418 13.928 14.943 13.949V28.234C14.944 28.2552 14.9501 28.2759 14.9607 28.2944C14.9713 28.3128 14.9861 28.3284 15.004 28.34L15.939 28.88C15.958 28.8893 15.9788 28.8942 16 28.8942C16.0212 28.8942 16.042 28.8893 16.061 28.88L16.996 28.34C17.0137 28.3283 17.0283 28.3126 17.0387 28.2942C17.0492 28.2758 17.0551 28.2551 17.056 28.234V13.95C17.0573 13.9289 17.0634 13.9085 17.074 13.8902C17.0846 13.872 17.0993 13.8565 17.117 13.845L23.92 9.90999C23.9377 9.89832 23.9523 9.88263 23.9627 9.8642C23.9732 9.84578 23.9791 9.82514 23.98 9.80399V7.50399V7.50299ZM16.036 13.319C16.028 13.319 16.025 13.313 16.029 13.306C16.033 13.299 16.039 13.299 16.043 13.306C16.047 13.313 16.043 13.319 16.036 13.319Z" fill="white"/>
<path d="M15.012 7.202C14.9927 7.20625 14.9755 7.21684 14.963 7.23207C14.9505 7.2473 14.9434 7.26629 14.943 7.286V10.159C14.9443 10.18 14.9504 10.2005 14.961 10.2187C14.9716 10.237 14.9863 10.2525 15.004 10.264L15.939 10.804C15.977 10.824 16.022 10.824 16.061 10.804L16.996 10.264C17.0135 10.2524 17.028 10.2368 17.0384 10.2186C17.0488 10.2004 17.0548 10.18 17.056 10.159V7.285C17.0558 7.26538 17.049 7.24641 17.0366 7.23116C17.0243 7.21591 17.0071 7.20528 16.988 7.201L16.068 7.032C16.0226 7.0251 15.9764 7.0251 15.931 7.032L15.012 7.202Z" fill="white"/>
</g>
<defs>
<clipPath id="clip0_16_1119">
<rect width="32" height="32" fill="white"/>
</clipPath>
</defs>
</svg>
