<svg width="32" height="32" viewBox="0 0 32 32" fill="none" xmlns="http://www.w3.org/2000/svg">
<g clip-path="url(#clip0_16_1157)">
<path d="M16 32C24.8366 32 32 24.8366 32 16C32 7.16344 24.8366 0 16 0C7.16344 0 0 7.16344 0 16C0 24.8366 7.16344 32 16 32Z" fill="#55DDFF"/>
<path d="M11.83 10.12C11.8364 8.22394 12.5496 6.3984 13.83 5C14.18 4.65 14.22 4.58 14.22 4.3C14.22 4.02 14.22 4 14.01 4C13.7504 4.02875 13.4931 4.07553 13.24 4.14C10.2553 4.84507 7.64967 6.65721 5.95 9.21C5.12939 10.4205 4.55201 11.7791 4.25 13.21C3.99962 14.5279 3.939 15.8749 4.07 17.21C4.43741 20.1725 5.92616 22.8816 8.23 24.78C9.46 25.78 10.84 26.58 10.84 26.22C10.7593 26.0649 10.6508 25.926 10.52 25.81C9.90121 25.128 9.43842 24.3193 9.16383 23.4403C8.88925 22.5613 8.80945 21.633 8.93 20.72C9.01894 19.5856 9.37292 18.4879 9.96345 17.5153C10.554 16.5427 11.3646 15.7222 12.33 15.12C12.5739 14.9463 12.8314 14.7924 13.1 14.66C13.25 14.66 13.16 14.36 12.79 13.66C12.1569 12.588 11.8253 11.3649 11.83 10.12ZM27.34 13.24C26.9863 11.5175 26.2584 9.8937 25.2078 8.48361C24.1571 7.07353 22.8094 5.91158 21.26 5.08C20.7 4.77 20.42 4.7 20.42 4.89C20.4729 5.04991 20.5542 5.19896 20.66 5.33C21.2798 6.21055 21.6275 7.25367 21.66 8.33C21.723 8.89117 21.6665 9.45933 21.4941 9.99708C21.3217 10.5348 21.0375 11.03 20.66 11.45C20.4662 11.6555 20.1995 11.7769 19.9172 11.7881C19.635 11.7993 19.3595 11.6995 19.15 11.51C18.75 11.22 18.75 11.02 19 10.65C19.5297 9.8709 19.7929 8.94116 19.75 8C19.7888 7.62162 19.7426 7.23934 19.6145 6.88116C19.4865 6.52299 19.2799 6.198 19.01 5.93C18.7644 5.67536 18.4536 5.49311 18.1115 5.40317C17.7693 5.31322 17.409 5.31905 17.07 5.42C16.5851 5.61535 16.1561 5.92757 15.8211 6.32886C15.4861 6.73014 15.2556 7.20804 15.15 7.72C14.9207 8.46 14.7863 9.22613 14.75 10C14.7574 11.185 15.0489 12.3509 15.6 13.4C15.9845 14.003 16.4601 14.5427 17.01 15C17.12 15.072 17.217 15.16 17.3 15.26C17.2033 15.3395 17.0908 15.3974 16.97 15.43C16.1971 15.7957 15.5053 16.3124 14.9351 16.9495C14.3649 17.5867 13.928 18.3314 13.65 19.14C13.284 20.0785 13.1204 21.0838 13.17 22.09C13.1498 22.5643 13.2282 23.0375 13.4003 23.4799C13.5725 23.9223 13.8346 24.3241 14.17 24.66C14.5496 24.9886 14.9988 25.2268 15.4838 25.3567C15.9688 25.4866 16.477 25.5048 16.97 25.41C18.291 25.3112 19.5263 24.7185 20.43 23.75C20.84 23.31 20.92 23.26 21 23.36C21.08 23.46 21.06 23.52 20.91 23.77C19.9604 25.3919 18.4366 26.5981 16.64 27.15C16.29 27.24 16.14 27.31 16.14 27.39C16.14 27.65 18.33 27.29 19.66 26.82C21.3564 26.2002 22.8925 25.2085 24.1557 23.9176C25.4189 22.6267 26.3771 21.0694 26.96 19.36C27.3912 18.1695 27.5783 16.9044 27.51 15.64C27.5556 14.836 27.4985 14.0295 27.34 13.24Z" fill="white"/>
</g>
<defs>
<clipPath id="clip0_16_1157">
<rect width="32" height="32" fill="white"/>
</clipPath>
</defs>
</svg>
