<svg width="32" height="32" viewBox="0 0 32 32" fill="none" xmlns="http://www.w3.org/2000/svg">
<g clip-path="url(#clip0_16_1181)">
<path d="M16 32C24.8366 32 32 24.8366 32 16C32 7.16344 24.8366 0 16 0C7.16344 0 0 7.16344 0 16C0 24.8366 7.16344 32 16 32Z" fill="#EA0017"/>
<path d="M20.717 15.412C20.748 15.412 20.823 15.444 20.887 15.482C21.063 15.589 21.154 15.804 21.137 16.062C21.127 16.238 21.084 16.358 20.907 16.718C20.787 16.962 20.561 17.371 20.407 17.628C20.141 18.066 20.014 18.296 20.014 18.331C20.014 18.341 20.194 18.179 20.414 17.971C20.826 17.583 21.115 17.399 21.246 17.441C21.423 17.498 21.476 17.833 21.359 18.169C21.292 18.369 21.112 18.733 20.932 19.04C20.828 19.21 20.819 19.244 20.994 19.144L21.14 19.058C21.504 18.839 21.737 18.815 21.864 18.988C22.004 19.178 21.98 19.757 21.807 20.258C21.768 20.371 21.747 20.473 21.757 20.484C21.768 20.494 21.877 20.459 21.997 20.406C22.121 20.35 22.305 20.286 22.411 20.262C22.767 20.177 22.919 20.329 22.986 20.833C23.046 21.271 22.88 21.635 22.576 21.744C22.524 21.762 22.516 21.754 22.534 21.688C22.548 21.642 22.566 21.561 22.58 21.504C22.598 21.412 22.594 21.409 22.53 21.444C22.428 21.497 22.312 21.709 22.27 21.921C22.143 22.549 21.984 22.859 21.567 23.283C21.108 23.749 20.632 24.063 19.891 24.395C19.545 24.55 19.058 24.857 18.539 25.249L18.387 25.365L18.087 25.09L17.937 24.958C17.636 24.704 17.334 24.506 17.092 24.408C17.0197 24.3805 16.948 24.3515 16.877 24.321C16.87 24.314 16.93 24.236 17.011 24.144C17.0899 24.0529 17.151 23.9477 17.191 23.834C17.241 23.639 17.268 23.594 17.378 23.53C17.505 23.46 17.71 23.516 18.197 23.76C18.412 23.865 18.595 23.954 18.613 23.954C18.652 23.954 18.645 23.851 18.595 23.721C18.557 23.615 18.571 23.551 18.733 23.064C18.948 22.422 19.005 22.189 18.963 22.146C18.91 22.093 18.867 22.178 18.62 22.806C18.49 23.135 18.377 23.414 18.37 23.421C18.359 23.431 18.281 23.403 18.193 23.361C18.048 23.29 18.034 23.269 18.052 23.191C18.154 22.781 18.214 21.857 18.151 21.631C18.105 21.472 18.055 21.539 18.013 21.818C17.921 22.411 17.819 22.881 17.777 22.923C17.737 22.962 17.713 22.951 17.635 22.859L17.544 22.746V19.43L18.327 18.42L18.488 18.212C19.741 16.595 20.1 16.129 20.378 15.773C20.533 15.575 20.685 15.413 20.717 15.413V15.412ZM13.845 20.432C14.18 20.113 14.255 20.085 14.371 20.248C14.459 20.368 14.508 20.65 14.508 21.035V21.352L14.671 21.525L14.737 21.601C14.802 21.681 14.861 21.771 14.882 21.821C14.935 21.952 14.957 22.453 14.914 22.623C14.9 22.679 14.935 22.785 15.031 22.969C15.684 24.219 15.818 24.49 15.801 24.511L15.779 24.515L15.739 24.512C15.7009 24.5053 15.6634 24.4953 15.627 24.482C15.475 24.434 15.295 24.426 14.657 24.444C14.272 24.454 14.042 24.391 14.021 24.268C14.011 24.218 14.155 23.988 14.459 23.568C14.551 23.442 14.561 23.368 14.509 23.283C14.484 23.241 14.36 23.226 13.909 23.213C13.153 23.188 13.129 23.145 13.661 22.743C13.884 22.573 14.145 22.305 14.176 22.213C14.187 22.178 14.169 22.111 14.138 22.062L14.078 21.97L13.648 21.995L13.531 22.001C13.057 22.021 12.971 21.953 13.131 21.73C13.171 21.677 13.191 21.624 13.178 21.61C13.168 21.6 12.958 21.589 12.722 21.589C12.316 21.589 11.949 21.543 11.886 21.486C11.872 21.472 12.045 21.402 12.274 21.331C12.666 21.211 13.192 20.971 13.432 20.801C13.5743 20.6829 13.7121 20.5595 13.845 20.431V20.432ZM15.152 17.392C15.168 17.402 15.207 17.717 15.249 18.095C15.289 18.472 15.32 18.818 15.32 18.86C15.32 18.906 15.334 18.942 15.352 18.942C15.369 18.942 15.475 18.8 15.588 18.624C15.705 18.451 15.808 18.306 15.818 18.306C15.846 18.306 15.864 18.44 15.958 19.443C16.005 19.905 16.051 20.283 16.061 20.283C16.071 20.283 16.128 20.085 16.181 19.842C16.238 19.598 16.294 19.4 16.308 19.4C16.329 19.4 17.3 22.21 17.297 22.266C17.297 22.344 17.212 22.252 16.873 21.815C16.668 21.546 16.474 21.299 16.443 21.257L16.379 21.183L16.284 21.289L16.244 21.334C16.1532 21.4361 16.0615 21.5375 15.969 21.638L15.747 21.882L15.729 21.762L15.726 21.732C15.71 21.602 15.665 21.132 15.62 20.625C15.574 20.064 15.525 19.591 15.51 19.573C15.5 19.556 15.366 19.655 15.21 19.796C15.055 19.937 14.914 20.06 14.893 20.064C14.872 20.071 14.868 20.022 14.879 19.94C14.904 19.76 15.144 17.495 15.144 17.427C15.144 17.399 15.151 17.385 15.161 17.392H15.152ZM10.622 15.444C10.876 15.412 11.402 15.44 11.646 15.507C11.914 15.574 12.214 15.702 12.454 15.839C12.691 15.98 13.273 16.542 13.361 16.719C13.431 16.859 13.467 16.877 13.04 16.552C12.7029 16.3021 12.3291 16.1058 11.932 15.97C11.734 15.908 11.622 15.892 11.317 15.89L11.173 15.889C10.728 15.889 10.651 15.899 10.396 15.984C8.78299 16.531 7.968 18.582 8.812 19.969C9.062 20.385 9.465 20.756 10.008 21.069C10.315 21.249 10.291 21.279 9.91299 21.183C9.57672 21.0993 9.26323 20.942 8.99517 20.7223C8.72712 20.5027 8.51119 20.2263 8.36299 19.913C8.16899 19.517 8.085 19.15 8.06 18.624C8.025 17.774 8.24699 17.099 8.77599 16.457C9.19599 15.945 9.94099 15.539 10.622 15.444ZM9.32299 18.194C9.37599 18.031 9.38299 18.042 9.51799 18.416C9.7869 19.125 10.1949 19.7731 10.718 20.322C10.841 20.452 10.943 20.569 10.943 20.582C10.943 20.639 10.665 20.569 10.4 20.449C9.75799 20.149 9.37999 19.524 9.29899 18.609C9.28499 18.419 9.28899 18.292 9.32299 18.193V18.194ZM12.285 12.924C12.729 12.857 12.751 12.864 12.461 12.998C12.316 13.065 12.175 13.128 12.151 13.146L12.123 13.163C12.043 13.221 12.19 13.243 12.698 13.259C13.344 13.277 13.348 13.28 13.294 13.492C13.273 13.577 13.266 13.577 12.874 13.577C12.6484 13.58 12.4233 13.5977 12.2 13.63C11.925 13.68 11.526 13.845 11.526 13.912C11.526 13.93 11.692 13.965 11.896 13.99C12.525 14.064 13.136 14.23 13.559 14.442C13.725 14.53 13.813 14.642 14.145 15.218C15.038 16.76 15.172 16.979 15.493 17.406C15.903 17.95 16.343 18.444 16.823 18.899L17.261 19.312V19.885C17.257 20.093 17.244 20.253 17.226 20.265C17.191 20.286 17.212 20.322 16.732 19.506C16.3821 18.9116 16.004 18.3343 15.599 17.776C15.4957 17.6363 15.3989 17.4918 15.309 17.343C15.299 17.311 15.267 17.283 15.242 17.279C15.218 17.279 15.102 17.166 14.985 17.029C14.653 16.64 13.905 15.966 13.396 15.603C13.104 15.391 12.719 15.13 12.698 15.13C12.691 15.13 12.567 15.066 12.422 14.985C12.1018 14.8152 11.7663 14.6759 11.42 14.569C11.176 14.502 10.69 14.484 10.379 14.526C9.93044 14.606 9.49929 14.7637 9.10499 14.992C9.00695 15.0553 8.90546 15.113 8.80099 15.165C8.77599 15.165 8.46599 15.387 8.22599 15.582C8.11599 15.67 8.02799 15.719 8.02099 15.698C8.00299 15.648 8.29999 15.236 8.55799 14.943C8.90732 14.5754 9.29409 14.2453 9.71199 13.958C10.442 13.471 11.512 13.04 12.285 12.924ZM9.87399 17.325C9.74399 16.969 9.74699 16.94 9.91299 17.035C10.0297 17.1076 10.1438 17.1843 10.255 17.265C10.938 17.7729 11.4888 18.4376 11.861 19.203C12.013 19.524 12.119 19.824 12.094 19.849L12.075 19.853L12.042 19.843C11.872 19.773 11.342 19.343 10.943 18.942C10.439 18.43 10.086 17.904 9.87399 17.325ZM11.049 16.372C11.049 16.33 11.427 16.429 11.649 16.531C12.112 16.739 12.451 17.141 12.599 17.643C12.698 17.982 12.726 18.239 12.691 18.504C12.662 18.74 12.666 18.748 12.444 18.25C12.1782 17.6981 11.8265 17.1918 11.402 16.75C11.2803 16.6278 11.1626 16.5017 11.049 16.372ZM16.838 10.478C17.011 10.428 17.008 10.428 17.064 10.513C17.159 10.661 17.332 11.237 17.406 11.657C17.452 11.932 17.484 12.31 17.498 12.761L17.518 13.446L17.346 13.422L17.307 13.416C17.063 13.376 16.864 13.301 15.542 12.747C14.829 12.447 14.24 12.211 14.229 12.221C14.212 12.239 14.565 12.934 14.801 13.347C15.231 14.096 16.029 14.502 16.951 14.442C17.215 14.424 17.311 14.431 17.391 14.47C17.582 14.572 17.706 14.749 17.822 15.094C17.967 15.518 18.232 16.034 18.458 16.33C18.553 16.457 18.628 16.563 18.628 16.563C18.624 16.566 18.511 16.545 18.373 16.52C17.755 16.393 16.686 15.945 16.397 15.691C16.065 15.398 16.368 15.867 16.721 16.189C17.151 16.584 17.773 16.926 18.482 17.163C18.694 17.233 18.874 17.297 18.878 17.3C18.917 17.336 17.875 18.553 17.812 18.553C17.748 18.553 17.388 18.338 17.039 18.095C16.654 17.826 15.782 16.969 15.472 16.559C14.5801 15.3623 13.9281 14.0043 13.552 12.56L13.442 12.158L13.58 12.017L13.669 11.933C14.194 11.473 15.522 10.863 16.838 10.478ZM22.248 9.28501C22.3254 9.29258 22.4004 9.31643 22.468 9.35501C22.5241 9.39451 22.5729 9.44359 22.612 9.50001C22.644 9.54601 23.018 10.95 23.442 12.613C24.289 15.927 24.282 15.882 24.091 16.083C24.0309 16.1422 23.9604 16.1896 23.883 16.223C23.72 16.277 21.203 16.823 21.19 16.81C21.2037 16.736 21.2287 16.6645 21.264 16.598C21.444 16.188 21.454 15.808 21.284 15.536C21.168 15.346 20.868 15.166 20.674 15.166C20.561 15.166 20.526 15.2 19.926 15.976C19.58 16.426 19.284 16.778 19.27 16.764C19.255 16.75 18.934 15.374 18.55 13.711C18.055 11.565 17.861 10.654 17.879 10.581C17.9157 10.4455 18.0011 10.3283 18.119 10.252C18.271 10.171 22.111 9.27101 22.249 9.28501H22.248ZM22.831 13.291C22.824 13.277 22.697 13.379 22.548 13.521C22.4 13.658 22.097 13.941 21.878 14.149L21.475 14.526L20.611 14.247C20.3167 14.1458 20.0189 14.0554 19.718 13.976C19.704 13.979 20.035 14.293 20.459 14.671C20.886 15.049 21.349 15.465 21.493 15.599C21.638 15.729 21.768 15.825 21.783 15.811C21.821 15.772 22.841 13.319 22.831 13.291ZM20.717 14.392C20.96 14.473 21.232 14.547 21.32 14.562L21.479 14.582L21.596 15.109C21.659 15.398 21.705 15.642 21.694 15.649C21.687 15.656 21.603 15.585 21.511 15.493C21.2687 15.2633 21.0227 15.0376 20.773 14.816C20.5764 14.6424 20.3847 14.4633 20.198 14.279C20.177 14.226 20.261 14.244 20.717 14.392ZM12.09 9.99101C12.683 9.84301 12.919 9.80701 12.919 9.86701C12.919 9.88501 12.834 9.92001 12.735 9.94101C12.446 10.012 11.701 10.273 11.331 10.436C10.928 10.612 10.413 10.912 10.219 11.081L10.078 11.201L10.201 11.23L10.353 11.266C10.857 11.4 11.783 11.749 12.223 11.978C12.545 12.144 12.954 12.423 12.954 12.479C12.954 12.493 12.848 12.518 12.718 12.532C12.178 12.585 11.292 12.804 10.66 13.037C9.88699 13.327 8.90599 13.852 8.30599 14.304C7.91399 14.6 7.91399 14.6 8.05199 14.403C8.21799 14.163 8.72199 13.64 9.029 13.393C9.693 12.867 10.565 12.486 11.489 12.32L11.631 12.296L11.381 12.179L11.256 12.126C10.709 11.908 9.562 11.626 8.878 11.547C8.78938 11.5385 8.7019 11.5207 8.61699 11.494C8.52499 11.445 9.72099 10.803 10.431 10.524C10.9726 10.3128 11.5267 10.1348 12.09 9.99101ZM20.56 10.654C20.296 11.434 19.66 13.404 19.66 13.446C19.66 13.478 19.646 13.513 19.625 13.524C19.512 13.594 19.643 13.654 20.469 13.926C20.952 14.082 21.372 14.212 21.404 14.212C21.474 14.212 22.784 12.987 22.784 12.924C22.784 12.899 22.332 12.409 21.785 11.837C21.4227 11.4624 21.065 11.0834 20.712 10.7C20.638 10.605 20.585 10.587 20.56 10.654ZM15.852 13.602C15.817 13.502 15.817 13.502 15.93 13.524C15.99 13.538 16.13 13.591 16.237 13.644C16.494 13.767 16.505 13.824 16.272 13.824C16.053 13.824 15.898 13.743 15.852 13.602ZM20.61 10.845C20.627 10.863 20.723 11.24 20.822 11.685L21.005 12.497L20.906 12.592C20.769 12.726 19.72 13.51 19.706 13.492C19.696 13.485 19.72 13.418 19.759 13.34C19.829 13.203 20.525 11.103 20.56 10.916C20.574 10.859 20.596 10.827 20.61 10.845ZM12.834 10.295L12.806 10.548L12.795 10.649C12.774 10.861 12.787 10.912 12.848 10.912C12.888 10.912 12.912 10.986 12.94 11.194C13 11.597 13.014 11.996 12.972 12.014C12.951 12.017 12.802 11.943 12.637 11.847C12.2517 11.6184 11.848 11.4224 11.43 11.261C11.278 11.205 11.154 11.149 11.154 11.138C11.154 11.064 11.588 10.732 11.85 10.605C12.185 10.443 12.605 10.298 12.746 10.295H12.834ZM18.232 8.60001C19.467 8.36701 19.725 8.34601 19.944 8.45901C20.018 8.49801 20.114 8.57601 20.152 8.63201C20.24 8.75201 20.473 9.23601 20.473 9.29201C20.473 9.31701 20.275 9.36201 19.972 9.41201C17.752 9.76201 15.931 10.287 14.544 10.982C14.2071 11.1416 13.8857 11.3321 13.584 11.551C13.347 11.731 13.372 11.781 13.287 10.979C13.227 10.436 13.227 10.404 13.287 10.245C13.344 10.097 13.375 10.068 13.584 9.96301C14.0754 9.73744 14.5784 9.53816 15.091 9.36601C16.033 9.06601 16.975 8.83601 18.231 8.60001H18.232ZM14.808 6.21701H14.844C14.864 6.21701 14.928 6.31701 14.992 6.43301C15.292 6.98001 15.899 8.67101 15.825 8.74501C15.776 8.77368 15.7214 8.79173 15.665 8.79801L15.542 8.81901L15.422 8.56101L15.362 8.43201C15.002 7.68201 14.356 6.66001 14.279 6.73301C14.269 6.74301 14.293 6.84601 14.332 6.96301C14.512 7.47801 14.755 8.63201 14.755 8.96001C14.755 9.05901 14.738 9.09001 14.667 9.12301C14.6238 9.14496 14.5771 9.15918 14.529 9.16501C14.509 9.16501 14.392 9.03801 14.279 8.88301C14.166 8.72701 14.06 8.61101 14.046 8.62501C14.036 8.64301 14 8.81901 13.968 9.02001C13.915 9.38401 13.862 9.51001 13.806 9.42001C13.792 9.39401 13.76 9.03801 13.736 8.62501C13.7239 8.34217 13.7039 8.05973 13.676 7.77801C13.665 7.72501 13.672 7.68301 13.689 7.68301C13.707 7.68301 13.845 7.79901 13.993 7.94301C14.141 8.08501 14.268 8.19401 14.275 8.18001C14.304 8.12701 13.922 6.98701 13.682 6.40801C13.662 6.35901 13.696 6.34101 13.898 6.31001C14.141 6.26701 14.78 6.20701 14.844 6.21801L14.808 6.21701ZM11.935 6.97301C12.218 6.79301 12.458 6.73301 12.616 6.79701C12.664 6.81401 12.676 6.84701 12.677 7.09001V7.31501C12.6744 7.5635 12.6661 7.8119 12.652 8.06001L12.627 8.31001L11.971 8.29301L11.703 8.28901C11.157 8.28102 10.6127 8.35004 10.086 8.49401C9.863 8.55101 9.65899 8.60401 9.63399 8.60701C9.60899 8.61401 9.58399 8.59301 9.57799 8.56501C9.55599 8.43801 10.368 7.85901 11.278 7.35101C11.551 7.19501 11.847 7.02601 11.935 6.97301ZM15.485 6.20001L15.698 6.56001L15.768 6.68001C16.127 7.31201 16.626 8.37001 16.626 8.50801C16.626 8.56801 16.389 8.62801 16.347 8.57901C16.3108 8.51848 16.2801 8.45491 16.255 8.38901C15.9939 7.80325 15.7069 7.22936 15.395 6.66901C15.3067 6.52131 15.223 6.37091 15.144 6.21801C15.144 6.20801 15.221 6.20001 15.313 6.20001H15.486H15.485ZM16.135 6.23501H16.192C16.322 6.23501 16.722 6.26001 17.078 6.28801C17.431 6.31701 17.758 6.34801 17.808 6.35901L17.985 6.39401C18.095 6.41901 18.179 6.55401 18.426 7.08301C18.588 7.43901 18.828 8.07101 18.804 8.08801C18.3778 8.15439 17.953 8.22974 17.53 8.31401C17.07 8.41001 16.979 8.41001 16.979 8.30701C16.979 8.23301 16.421 7.08701 16.189 6.68401C15.906 6.20001 15.906 6.23501 16.192 6.23501H16.135Z" fill="white"/>
<path d="M16.785 10.672C16.873 10.887 16.919 11.117 16.965 11.6C17.011 12.116 17.095 12.829 17.145 13.125C17.166 13.277 17.226 13.309 17.226 13.171C17.226 13.121 17.201 12.927 17.173 12.737C17.1328 12.4176 17.0975 12.0975 17.067 11.777C17.0451 11.5194 17.0144 11.2625 16.975 11.007C16.93 10.792 16.848 10.612 16.799 10.612C16.774 10.612 16.771 10.637 16.785 10.672ZM17.544 14.802C17.544 14.957 18.038 16.093 18.2 16.309C18.31 16.46 18.281 16.323 18.154 16.093C17.97 15.7614 17.8129 15.4156 17.684 15.059C17.604 14.833 17.544 14.724 17.544 14.802Z" fill="white"/>
<path d="M13.368 5.31001C16.1566 4.62951 19.1012 5.07882 21.56 6.56001C23.12 7.48801 24.55 8.94901 25.436 10.523C26.396 12.221 26.866 13.978 26.866 15.863C26.869 17.144 26.703 18.175 26.311 19.35C25.9389 20.4463 25.3995 21.4785 24.712 22.41C24.1453 23.1353 23.5052 23.8002 22.802 24.394C21.062 25.802 19.047 26.607 16.75 26.801C14.304 27.013 11.6 26.254 9.58799 24.793C7.21999 23.077 5.65299 20.589 5.15799 17.769C4.62599 14.734 5.45199 11.539 7.39599 9.12201C7.69599 8.74801 8.38099 8.03801 8.80099 7.66801C10.061 6.55601 11.695 5.71201 13.368 5.31001ZM16.591 5.87501C15.5195 5.80823 14.4442 5.90945 13.404 6.17501C12.158 6.49901 10.724 7.19801 9.81399 7.92501L9.44399 8.21801C8.99199 8.56801 8.00699 9.64801 7.63599 10.202C6.43599 11.992 5.86099 13.855 5.86099 15.937C5.86099 17.61 6.19999 19.011 6.97999 20.537C7.9262 22.389 9.42988 23.8972 11.279 24.849C12.479 25.467 13.82 25.855 15.109 25.957C17.325 26.134 19.4 25.619 21.359 24.408C22.263 23.85 23.42 22.781 23.999 21.973C25.079 20.458 25.676 19.022 25.929 17.313C26.021 16.703 26.025 15.037 25.933 14.497C25.616 12.574 24.818 10.795 23.685 9.48201C23.575 9.35501 23.438 9.19201 23.381 9.12501C23.0329 8.74167 22.6539 8.38749 22.248 8.06601C21.208 7.26901 20.413 6.83101 19.22 6.40001C18.412 6.11101 17.621 5.95201 16.59 5.87501H16.591Z" fill="white"/>
</g>
<defs>
<clipPath id="clip0_16_1181">
<rect width="32" height="32" fill="white"/>
</clipPath>
</defs>
</svg>
