<svg width="32" height="32" viewBox="0 0 32 32" fill="none" xmlns="http://www.w3.org/2000/svg">
<g clip-path="url(#clip0_16_1188)">
<path d="M16 32C24.8367 32 32 24.8367 32 16C32 7.16333 24.8367 0 16 0C7.16333 0 0 7.16333 0 16C0 24.8367 7.16333 32 16 32Z" fill="#2B6680"/>
<path d="M5.00001 16C4.99439 18.9174 6.14793 21.7175 8.20686 23.7844C10.2658 25.8512 13.0615 27.0155 15.9788 27.0212C18.8962 27.0268 21.6963 25.8732 23.7632 23.8143C25.8301 21.7554 26.9944 18.9597 27 16.0423V15.958C26.9962 15.1113 26.8952 14.2679 26.699 13.4443C26.6657 13.291 26.6021 13.1458 26.512 13.0173C26.4219 12.8888 26.3071 12.7796 26.1742 12.696C26.0414 12.6125 25.8932 12.5562 25.7384 12.5306C25.5836 12.505 25.4252 12.5106 25.2725 12.5469C25.1199 12.5833 24.976 12.6498 24.8493 12.7424C24.7226 12.835 24.6157 12.952 24.5348 13.0865C24.4539 13.221 24.4006 13.3702 24.3781 13.5255C24.3556 13.6808 24.3643 13.8391 24.4037 13.991C24.8421 15.8222 24.6707 17.7465 23.9154 19.4713C23.1601 21.1961 21.8624 22.6272 20.2193 23.547C18.5763 24.4668 16.6779 24.825 14.8127 24.5671C12.9475 24.3092 11.2175 23.4494 9.88567 22.1183C8.55384 20.7873 7.69302 19.0577 7.43408 17.1927C7.17514 15.3276 7.53223 13.429 8.45106 11.7855C9.3699 10.1419 10.8002 8.84332 12.5246 8.08707C14.2491 7.33082 16.1732 7.15827 18.0047 7.59566C18.3065 7.66124 18.6221 7.60584 18.8835 7.44136C19.145 7.27688 19.3315 7.01643 19.4031 6.71594C19.4746 6.41545 19.4255 6.09888 19.2663 5.83421C19.107 5.56953 18.8503 5.37785 18.5513 5.30032C16.9351 4.91469 15.2526 4.90025 13.63 5.25809C12.0074 5.61592 10.487 6.33673 9.18292 7.36639C7.87884 8.39604 6.825 9.70778 6.10053 11.2031C5.37607 12.6984 4.99981 14.3384 5.00001 16Z" fill="white"/>
<path d="M21.56 7.95399C21.544 7.96899 21.5337 7.98665 21.5187 8.00265C21.2505 8.28697 21.0858 8.65333 21.0513 9.04265V9.22965C21.0513 9.27299 21.042 9.31465 21.0373 9.35765C20.9912 9.8233 20.8417 10.2728 20.5996 10.6732C20.3575 11.0737 20.0291 11.415 19.6382 11.6723C19.2474 11.9295 18.804 12.0962 18.3404 12.1602C17.8769 12.2242 17.4049 12.1838 16.959 12.042C16.3077 11.8832 15.6272 11.8888 14.9786 12.0581C14.33 12.2274 13.7336 12.5552 13.243 13.012C13.203 13.0493 13.159 13.081 13.1197 13.1203C12.3563 13.8836 11.9275 14.9189 11.9274 15.9984C11.9274 17.0779 12.3562 18.1132 13.1195 18.8765C13.8828 19.6398 14.9181 20.0687 15.9976 20.0687C17.077 20.0687 18.1123 19.6399 18.8757 18.8767C19.044 18.706 19.1967 18.52 19.3317 18.3217C19.6603 17.8512 19.8857 17.3165 19.993 16.7528C20.1003 16.189 20.0871 15.609 19.9543 15.0507C19.9316 14.9775 19.9116 14.9036 19.8943 14.829C19.8943 14.818 19.8877 14.8077 19.885 14.7963C19.7837 14.3573 19.7779 13.9017 19.8682 13.4602C19.9584 13.0188 20.1425 12.602 20.4079 12.238C20.6734 11.8739 21.014 11.5712 21.4067 11.3504C21.7994 11.1295 22.235 10.9957 22.684 10.958C22.7073 10.958 22.73 10.9513 22.7533 10.9507C22.8197 10.9507 22.886 10.943 22.9523 10.943H22.9683C23.3747 10.9056 23.7551 10.7266 24.043 10.4373C24.1113 10.3667 24.1737 10.2903 24.2297 10.2093C24.4825 9.85087 24.5919 9.41066 24.5361 8.97555C24.4803 8.54045 24.2634 8.14206 23.9283 7.85903C23.5931 7.576 23.164 7.42888 22.7257 7.4467C22.2874 7.46453 21.8717 7.64601 21.5607 7.95532" fill="white"/>
</g>
<defs>
<clipPath id="clip0_16_1188">
<rect width="32" height="32" fill="white"/>
</clipPath>
</defs>
</svg>
