<svg width="32" height="32" viewBox="0 0 32 32" fill="none" xmlns="http://www.w3.org/2000/svg">
<g clip-path="url(#clip0_16_1193)">
<path d="M16 32C24.8366 32 32 24.8366 32 16C32 7.16344 24.8366 0 16 0C7.16344 0 0 7.16344 0 16C0 24.8366 7.16344 32 16 32Z" fill="#31CB9E"/>
<path d="M14.927 16.162L22.647 20.585C22.7091 20.6223 22.7801 20.6424 22.8526 20.6432C22.9251 20.644 22.9964 20.6254 23.0594 20.5895C23.1223 20.5535 23.1745 20.5014 23.2107 20.4386C23.2468 20.3758 23.2656 20.3045 23.265 20.232V12.086C23.266 12.0134 23.2475 11.9419 23.2113 11.8789C23.1752 11.8159 23.1228 11.7638 23.0596 11.728C22.9964 11.6922 22.9248 11.6741 22.8522 11.6755C22.7796 11.6769 22.7088 11.6978 22.647 11.736L14.927 16.162ZM22.484 9.77899L17.206 5.89699C17.1514 5.855 17.0873 5.8271 17.0193 5.81575C16.9514 5.80439 16.8817 5.80992 16.8163 5.83185C16.751 5.85379 16.6921 5.89145 16.6448 5.94152C16.5975 5.9916 16.5632 6.05254 16.545 6.11899L14.618 14.766L22.438 10.443C22.4973 10.4122 22.5477 10.3666 22.5843 10.3108C22.6209 10.2549 22.6426 10.1905 22.6472 10.1239C22.6518 10.0572 22.6393 9.99051 22.6107 9.93011C22.5821 9.86972 22.5385 9.81768 22.484 9.77899ZM17.2 26.424L22.484 22.542C22.5394 22.503 22.5838 22.4505 22.6131 22.3894C22.6423 22.3283 22.6553 22.2607 22.6509 22.1931C22.6465 22.1256 22.6248 22.0603 22.5878 22.0035C22.5509 21.9467 22.5 21.9004 22.44 21.869L14.618 17.546L16.545 26.193C16.561 26.2602 16.5934 26.3224 16.6393 26.374C16.6853 26.4256 16.7434 26.465 16.8083 26.4886C16.8733 26.5122 16.9431 26.5193 17.0114 26.5092C17.0798 26.4992 17.1446 26.4723 17.2 26.431" fill="white"/>
<path d="M12.92 16.002L14.927 6.613C14.9425 6.53514 14.9343 6.45444 14.9035 6.38126C14.8728 6.30809 14.8208 6.24578 14.7544 6.20235C14.688 6.15892 14.6101 6.13634 14.5307 6.13753C14.4513 6.13871 14.3741 6.1636 14.309 6.209L9.167 10.152C9.03666 10.2519 8.93119 10.3807 8.85885 10.5281C8.78651 10.6756 8.74926 10.8378 8.75 11.002V21.008C8.745 21.345 8.9 21.664 9.167 21.869L14.284 25.801C14.3492 25.8465 14.4265 25.8715 14.506 25.8726C14.5855 25.8738 14.6635 25.8511 14.73 25.8076C14.7965 25.764 14.8484 25.7015 14.8791 25.6281C14.9097 25.5548 14.9177 25.4739 14.902 25.396L12.919 16.002H12.92Z" fill="white"/>
</g>
<defs>
<clipPath id="clip0_16_1193">
<rect width="32" height="32" fill="white"/>
</clipPath>
</defs>
</svg>
