<svg width="32" height="32" viewBox="0 0 32 32" fill="none" xmlns="http://www.w3.org/2000/svg">
<g clip-path="url(#clip0_16_1258)">
<path d="M16 32C24.8366 32 32 24.8366 32 16C32 7.16344 24.8366 0 16 0C7.16344 0 0 7.16344 0 16C0 24.8366 7.16344 32 16 32Z" fill="#5592D7"/>
<path d="M20.246 12.667V25.64L9.29001 19.333C6.05001 17.436 6.25601 16.256 6.25601 13.693L17.519 20.205V14.256L20.245 12.666L20.246 12.667Z" fill="white"/>
<path opacity="0.6" d="M17.52 20.205L6.25702 13.692L17.211 7.38499C20.451 5.53799 21.377 6.30799 23.64 7.58999L12.377 14.103L17.52 17.077V20.205Z" fill="white"/>
<path opacity="0.2" d="M12.377 14.103L23.64 7.59V20.205C23.64 23.949 22.509 24.359 20.246 25.641V12.667L15.05 15.64L12.376 14.102L12.377 14.103Z" fill="white"/>
</g>
<defs>
<clipPath id="clip0_16_1258">
<rect width="32" height="32" fill="white"/>
</clipPath>
</defs>
</svg>
