<svg width="32" height="32" viewBox="0 0 32 32" fill="none" xmlns="http://www.w3.org/2000/svg">
<g clip-path="url(#clip0_16_1304)">
<path d="M16 32C24.8366 32 32 24.8366 32 16C32 7.16344 24.8366 0 16 0C7.16344 0 0 7.16344 0 16C0 24.8366 7.16344 32 16 32Z" fill="#DA1157"/>
<path d="M20.985 19.168C21.7876 19.168 22.5572 18.8492 23.1247 18.2817C23.6922 17.7142 24.011 16.9445 24.011 16.142C24.011 15.3394 23.6922 14.5698 23.1247 14.0023C22.5572 13.4348 21.7876 13.116 20.985 13.116C20.1825 13.116 19.4128 13.4348 18.8453 14.0023C18.2778 14.5698 17.959 15.3394 17.959 16.142C17.959 16.9445 18.2778 17.7142 18.8453 18.2817C19.4128 18.8492 20.1825 19.168 20.985 19.168ZM20.985 9.16299C22.1374 9.1623 23.272 9.44693 24.2875 9.99148C25.3031 10.536 26.1681 11.3235 26.8052 12.2837C27.4424 13.2439 27.8319 14.3469 27.939 15.4943C28.0461 16.6417 27.8674 17.7977 27.419 18.8592C26.9705 19.9207 26.2663 20.8547 25.369 21.5778C24.4718 22.3009 23.4094 22.7906 22.2769 23.0032C21.1443 23.2158 19.9767 23.1446 18.8783 22.7962C17.7799 22.4477 16.7849 21.8326 15.982 21.006C17.2512 19.7052 17.9608 17.9594 17.959 16.142C17.9609 14.3246 17.2513 12.5787 15.982 11.278C16.6315 10.6079 17.4091 10.0754 18.2686 9.71206C19.1281 9.34871 20.0519 9.16198 20.985 9.16299ZM10.98 19.168C11.7826 19.168 12.5522 18.8492 13.1197 18.2817C13.6872 17.7142 14.006 16.9445 14.006 16.142C14.006 15.3394 13.6872 14.5698 13.1197 14.0023C12.5522 13.4348 11.7826 13.116 10.98 13.116C10.1775 13.116 9.40779 13.4348 8.84031 14.0023C8.27282 14.5698 7.95401 15.3394 7.95401 16.142C7.95401 16.9445 8.27282 17.7142 8.84031 18.2817C9.40779 18.8492 10.1775 19.168 10.98 19.168ZM15.983 11.278C14.7142 12.5789 14.0049 14.3248 14.007 16.142C14.007 18.034 14.761 19.749 15.983 21.006C15.015 22.0023 13.7718 22.6871 12.4124 22.9728C11.0531 23.2585 9.63935 23.1321 8.35221 22.6097C7.06507 22.0874 5.96306 21.1929 5.18717 20.0407C4.41129 18.8886 3.99683 17.5311 3.99683 16.142C3.99683 14.7529 4.41129 13.3954 5.18717 12.2432C5.96306 11.091 7.06507 10.1966 8.35221 9.67424C9.63935 9.15192 11.0531 9.02552 12.4124 9.31122C13.7718 9.59692 15.015 10.2817 15.983 11.278ZM14.006 16.143C14.006 18.035 14.76 19.75 15.983 21.007C17.2519 19.7061 17.9612 17.9602 17.959 16.143C17.9612 14.3257 17.2519 12.5799 15.983 11.279C14.7137 12.5797 14.0041 14.3256 14.006 16.143Z" fill="white"/>
</g>
<defs>
<clipPath id="clip0_16_1304">
<rect width="32" height="32" fill="white"/>
</clipPath>
</defs>
</svg>
