<svg width="32" height="32" viewBox="0 0 32 32" fill="none" xmlns="http://www.w3.org/2000/svg">
<g clip-path="url(#clip0_16_1316)">
<path d="M16 32C24.8366 32 32 24.8366 32 16C32 7.16344 24.8366 0 16 0C7.16344 0 0 7.16344 0 16C0 24.8366 7.16344 32 16 32Z" fill="#1AAB9B"/>
<path d="M7.558 21.156V13.111L13.659 17.703V21.156H15.217V17.38C15.2169 17.2391 15.184 17.1002 15.121 16.9742C15.058 16.8482 14.9666 16.7386 14.854 16.654L7.455 11.085C7.3201 10.9836 7.15966 10.9218 6.99163 10.9065C6.8236 10.8912 6.65462 10.9229 6.5036 10.9981C6.35258 11.0734 6.22549 11.1892 6.13655 11.3326C6.0476 11.476 6.00032 11.6413 6 11.81V21.156H7.558ZM24.432 21.156V13.111L18.331 17.703V21.156H16.773V17.38C16.773 17.094 16.907 16.825 17.135 16.654L24.535 11.085C24.67 10.9836 24.8305 10.9218 24.9986 10.9065C25.1667 10.8912 25.3358 10.923 25.4868 10.9984C25.6379 11.0737 25.765 11.1897 25.8538 11.3332C25.9427 11.4767 25.9899 11.6422 25.99 11.811V21.157H24.432V21.156Z" fill="white"/>
</g>
<defs>
<clipPath id="clip0_16_1316">
<rect width="32" height="32" fill="white"/>
</clipPath>
</defs>
</svg>
