<svg width="32" height="32" viewBox="0 0 32 32" fill="none" xmlns="http://www.w3.org/2000/svg">
<g clip-path="url(#clip0_16_1346)">
<path d="M16 32C24.8366 32 32 24.8366 32 16C32 7.16344 24.8366 0 16 0C7.16344 0 0 7.16344 0 16C0 24.8366 7.16344 32 16 32Z" fill="#47B95C"/>
<path d="M16 6C10.48 6 6 10.48 6 16C6 16.133 6.013 16.26 6.02 16.393H10.713L12.98 12.493L16 16.82L19.013 12.493L21.28 16.393H25.973C25.98 16.26 25.993 16.133 25.993 16C26 10.48 21.52 6 16 6ZM22.893 15.187C22.487 11.74 19.553 9.06 16 9.06C12.447 9.06 9.513 11.747 9.107 15.187H7.893C8.3 11.073 11.78 7.853 16 7.853C20.22 7.853 23.693 11.073 24.107 15.187H22.893Z" fill="white"/>
<path d="M18.927 14.733L16 18.933L13.073 14.733L11.407 17.6H6.14001C6.90701 22.36 11.02 26 16 26C20.98 26 25.093 22.36 25.86 17.593H20.593L18.927 14.733ZM22.347 18.8H23.64C22.493 21.913 19.507 24.147 16 24.147C12.493 24.147 9.50701 21.913 8.36001 18.8H9.65301C10.733 21.233 13.167 22.94 16 22.94C18.833 22.94 21.267 21.233 22.347 18.8Z" fill="white"/>
</g>
<defs>
<clipPath id="clip0_16_1346">
<rect width="32" height="32" fill="white"/>
</clipPath>
</defs>
</svg>
