<svg width="32" height="32" viewBox="0 0 32 32" fill="none" xmlns="http://www.w3.org/2000/svg">
<g clip-path="url(#clip0_16_1428)">
<path d="M16 32C24.8366 32 32 24.8366 32 16C32 7.16344 24.8366 0 16 0C7.16344 0 0 7.16344 0 16C0 24.8366 7.16344 32 16 32Z" fill="#23336F"/>
<path d="M16.485 19.46C16.485 19.46 19.398 20.177 21.705 18.364C24.012 16.552 23.94 13.819 23.94 13.819C23.94 13.819 21.33 13.006 18.958 14.735C16.587 16.463 16.485 19.46 16.485 19.46ZM16.476 20.827C16.476 20.827 16.952 22.877 18.817 23.747C20.682 24.617 22.371 23.706 22.371 23.706C22.371 23.706 22.054 21.814 20.218 20.876C18.382 19.94 16.476 20.827 16.476 20.827ZM20.865 19.94C20.865 19.94 21.872 21.059 23.341 20.958C24.811 20.856 25.551 19.701 25.551 19.701C25.551 19.701 24.697 18.627 23.226 18.675C21.756 18.724 20.865 19.94 20.865 19.94ZM19.392 12.873C19.392 12.873 17.84 10.307 14.926 9.95702C12.013 9.60702 10.132 11.591 10.132 11.591C10.132 11.591 11.403 14.011 14.302 14.466C17.201 14.921 19.392 12.873 19.392 12.873ZM20.365 11.913C20.365 11.913 21.479 10.128 20.775 8.19302C20.07 6.26002 18.23 5.71002 18.23 5.71002C18.23 5.71002 17.12 7.27302 17.755 9.23202C18.389 11.192 20.364 11.914 20.364 11.914L20.365 11.913ZM16.635 9.43802C16.635 9.43802 16.714 7.93402 15.603 6.96602C14.492 6.00002 13.15 6.29202 13.15 6.29202C13.15 6.29202 12.995 7.65602 14.07 8.66202C15.146 9.67002 16.634 9.43802 16.634 9.43802H16.635ZM14.022 16.4C14.022 16.4 11.454 17.952 11.105 20.866C10.755 23.779 12.738 25.66 12.738 25.66C12.738 25.66 15.158 24.391 15.613 21.49C16.068 18.589 14.022 16.4 14.022 16.4ZM13.06 15.426C13.06 15.426 11.273 14.312 9.34 15.016C7.407 15.721 6.856 17.559 6.856 17.559C6.856 17.559 8.42 18.669 10.378 18.035C12.338 17.401 13.06 15.425 13.06 15.425V15.426ZM10.586 19.157C10.586 19.157 9.082 19.077 8.116 20.188C7.148 21.3 7.439 22.641 7.439 22.641C7.439 22.641 8.803 22.796 9.81 21.721C10.817 20.645 10.586 19.157 10.586 19.157Z" fill="white"/>
</g>
<defs>
<clipPath id="clip0_16_1428">
<rect width="32" height="32" fill="white"/>
</clipPath>
</defs>
</svg>
