<svg width="32" height="32" viewBox="0 0 32 32" fill="none" xmlns="http://www.w3.org/2000/svg">
<g clip-path="url(#clip0_16_1472)">
<path d="M16 32C24.8366 32 32 24.8366 32 16C32 7.16344 24.8366 0 16 0C7.16344 0 0 7.16344 0 16C0 24.8366 7.16344 32 16 32Z" fill="#164B79"/>
<path d="M14.09 18.668L13.467 19.998H12.085L15.838 12L18.341 17.333H16.926L15.806 15.018L14.684 17.372L14.09 18.668ZM19.544 19.968L22.474 16.018L19.523 12.038H21.138L23.279 14.948L22.5 16.018L23.279 17.088L21.139 19.998H18.176L17.55 18.668H18.932L19.544 19.968ZM24.07 16.001L23.279 14.914L25.42 12.004H27L24.07 16.001ZM24.07 16.001L27 19.999H25.42L23.28 17.089L24.07 16.001ZM11.422 13.159C11.7812 13.5381 12.0619 13.9844 12.2481 14.4723C12.4343 14.9602 12.5223 15.48 12.507 16.002C12.5207 17.053 12.1326 18.0695 11.422 18.844C10.7 19.653 9.807 20 8.754 20C8.25312 20.005 7.75678 19.9046 7.29716 19.7055C6.83755 19.5064 6.42491 19.2128 6.086 18.844C5.36379 18.0767 4.97353 17.0554 5 16.002C4.9839 15.1772 5.22545 14.368 5.691 13.687L6.611 14.667C6.32299 15.1809 6.20304 15.7721 6.26796 16.3576C6.33287 16.9431 6.57941 17.4937 6.973 17.932C7.19605 18.1846 7.46988 18.3873 7.77659 18.5269C8.08331 18.6664 8.41602 18.7398 8.753 18.742C9.425 18.742 10.067 18.449 10.533 17.932C10.772 17.6791 10.9589 17.3816 11.083 17.0564C11.207 16.7313 11.2658 16.3849 11.256 16.037C11.2583 15.3371 11.0003 14.6612 10.532 14.141C10.3079 13.8925 10.0329 13.6951 9.7258 13.5623C9.41867 13.4294 9.08656 13.3642 8.752 13.371C8.30987 13.3589 7.87444 13.4809 7.503 13.721L6.583 12.741C7.20082 12.2525 7.96847 11.9925 8.756 12.005C9.25683 11.9961 9.75378 12.0944 10.2134 12.2935C10.6731 12.4925 11.0849 12.7876 11.421 13.159H11.422Z" fill="white"/>
</g>
<defs>
<clipPath id="clip0_16_1472">
<rect width="32" height="32" fill="white"/>
</clipPath>
</defs>
</svg>
