<svg width="32" height="32" viewBox="0 0 32 32" fill="none" xmlns="http://www.w3.org/2000/svg">
<g clip-path="url(#clip0_16_1476)">
<path d="M16 32C24.8366 32 32 24.8366 32 16C32 7.16344 24.8366 0 16 0C7.16344 0 0 7.16344 0 16C0 24.8366 7.16344 32 16 32Z" fill="black"/>
<path d="M27.986 14.669V14.733C26.599 15.601 25.202 16.459 23.809 17.325C23.7826 17.3441 23.7618 17.3701 23.749 17.4C24.121 17.5 24.506 17.575 24.859 17.737C25.185 17.882 25.519 18.071 25.703 18.388C25.879 18.71 25.923 19.088 25.825 19.441C25.772 19.705 25.661 19.953 25.561 20.204C25.143 21.206 24.723 22.205 24.308 23.211C24.2878 23.2608 24.2609 23.3076 24.228 23.35C24.091 23.347 23.96 23.297 23.826 23.266C23.15 23.099 22.47 22.935 21.794 22.766C21.574 22.704 21.348 22.668 21.131 22.596C21.137 22.459 21.215 22.342 21.261 22.219L22.189 19.998C22.259 19.844 22.3 19.652 22.2 19.502C22.075 19.288 21.824 19.207 21.602 19.146C20.786 18.936 19.964 18.742 19.146 18.539C19.029 18.514 18.915 18.461 18.792 18.477C18.72 18.603 18.678 18.745 18.62 18.881C18.272 19.697 17.938 20.518 17.592 21.334C17.542 21.448 17.512 21.574 17.436 21.674C17.3 21.674 17.172 21.621 17.041 21.59C16.342 21.418 15.643 21.242 14.941 21.072C14.744 21.019 14.538 20.986 14.343 20.919C14.3454 20.8637 14.3576 20.8091 14.379 20.758L17.912 12.288C17.9242 12.2596 17.9435 12.2349 17.968 12.216C18.091 12.224 18.208 12.274 18.328 12.302C18.923 12.444 19.519 12.597 20.115 12.742C20.424 12.822 20.741 12.884 21.048 12.976C21.064 13.034 21.036 13.093 21.014 13.148C20.774 13.694 20.554 14.248 20.321 14.794L19.6 16.526C19.519 16.729 19.413 16.924 19.357 17.138C19.461 17.102 19.55 17.041 19.641 16.979L24.347 14.029C24.433 13.975 24.511 13.903 24.609 13.878C24.753 13.867 24.889 13.922 25.026 13.953C25.506 14.056 25.978 14.193 26.454 14.303C26.97 14.418 27.476 14.56 27.986 14.669ZM16.882 12.97C16.907 13.474 16.715 13.953 16.518 14.404C15.986 15.682 15.448 16.957 14.919 18.235C14.727 18.686 14.56 19.157 14.265 19.555C14.055 19.851 13.763 20.079 13.425 20.209C12.9989 20.3423 12.5478 20.3748 12.107 20.304C11.347 20.209 10.607 20.004 9.863 19.825C8.853 19.572 7.836 19.327 6.826 19.073C6.155 18.912 5.478 18.739 4.854 18.433C4.58475 18.3025 4.35596 18.1013 4.192 17.851C4.06537 17.6444 4.00955 17.4022 4.033 17.161C4.086 16.718 4.25 16.297 4.428 15.891L6.058 11.976C6.188 11.676 6.302 11.366 6.469 11.083C6.61187 10.8213 6.8017 10.5881 7.029 10.395C7.297 10.191 7.612 10.06 7.945 10.013C8.19 9.99103 8.435 10.003 8.68 10.008C9.43765 10.12 10.188 10.277 10.927 10.478C11.963 10.728 12.996 10.991 14.031 11.241C14.507 11.358 14.981 11.478 15.446 11.637C15.757 11.751 16.075 11.867 16.348 12.065C16.658 12.266 16.856 12.601 16.882 12.97ZM13.262 13.861C13.282 13.714 13.177 13.588 13.054 13.524C12.804 13.388 12.519 13.338 12.247 13.268C11.525 13.088 10.803 12.91 10.077 12.734C9.87127 12.6737 9.65468 12.6601 9.443 12.694C9.198 12.764 9.075 13.012 8.992 13.229C8.582 14.204 8.182 15.181 7.77 16.153C7.725 16.267 7.68 16.381 7.67 16.503C7.67 16.643 7.767 16.765 7.886 16.823C8.065 16.915 8.26 16.966 8.449 17.016L10.704 17.57C10.966 17.631 11.241 17.698 11.509 17.64C11.734 17.567 11.849 17.336 11.932 17.133L13.037 14.482C13.124 14.282 13.235 14.084 13.263 13.862L13.262 13.861Z" fill="white"/>
</g>
<defs>
<clipPath id="clip0_16_1476">
<rect width="32" height="32" fill="white"/>
</clipPath>
</defs>
</svg>
