<svg width="32" height="32" viewBox="0 0 32 32" fill="none" xmlns="http://www.w3.org/2000/svg">
<g clip-path="url(#clip0_16_1517)">
<path d="M16 32C24.8366 32 32 24.8366 32 16C32 7.16344 24.8366 0 16 0C7.16344 0 0 7.16344 0 16C0 24.8366 7.16344 32 16 32Z" fill="#5F45BA"/>
<path d="M10.443 9.16001C10.3321 9.34702 10.1682 9.49692 9.972 9.59074C9.77585 9.68457 9.55627 9.71809 9.34105 9.68708C9.12584 9.65607 8.92466 9.56192 8.76297 9.41654C8.60129 9.27116 8.48636 9.08108 8.43273 8.87036C8.37911 8.65964 8.3892 8.43775 8.46172 8.23276C8.53424 8.02777 8.66594 7.84891 8.84015 7.71879C9.01437 7.58868 9.22326 7.51317 9.4404 7.50182C9.65754 7.49046 9.87317 7.54378 10.06 7.65501C10.581 7.96501 10.753 8.63801 10.443 9.16001ZM6.693 8.67201C6.61462 8.80434 6.49872 8.91043 6.36 8.97685C6.22128 9.04326 6.06597 9.06701 5.91373 9.04509C5.7615 9.02317 5.6192 8.95657 5.50485 8.85371C5.3905 8.75085 5.30925 8.61637 5.27139 8.46731C5.23352 8.31824 5.24075 8.16129 5.29216 8.01633C5.34356 7.87137 5.43683 7.74493 5.56015 7.65302C5.68347 7.56111 5.83129 7.50787 5.98489 7.50003C6.1385 7.4922 6.29097 7.53012 6.423 7.60901C6.791 7.82901 6.913 8.30401 6.693 8.67201ZM17.132 24.572C18.252 24.4398 19.3348 24.0873 20.318 23.5348C21.3011 22.9823 22.1653 22.2407 22.8606 21.3528C23.5559 20.4648 24.0687 19.4481 24.3693 18.3611C24.67 17.2742 24.7526 16.1385 24.6125 15.0194C24.4723 13.9004 24.1121 12.8202 23.5526 11.8409C22.9932 10.8617 22.2455 10.0029 21.3526 9.31386C20.4598 8.62486 19.4394 8.11933 18.3504 7.8264C17.2613 7.53346 16.125 7.4589 15.007 7.60701C14.288 7.67425 13.5836 7.85095 12.918 8.13101C12.143 8.51101 11.643 9.14401 11.643 9.99101C11.643 11.091 12.535 11.985 13.637 11.985C13.821 11.985 14.458 11.783 14.61 11.731C15.3278 11.4805 16.0964 11.4116 16.8473 11.5305C17.5983 11.6493 18.3081 11.9521 18.9135 12.412C19.5189 12.8718 20.001 13.4744 20.317 14.1659C20.6329 14.8574 20.7727 15.6163 20.724 16.375C20.6634 17.3396 20.3011 18.2606 19.6882 19.0079C19.0754 19.7553 18.2432 20.291 17.3092 20.5393C16.3752 20.7877 15.3867 20.7361 14.4837 20.3918C13.5806 20.0475 12.8087 19.4281 12.277 18.621V18.622C11.357 17.417 11.569 15.491 11.568 15.466C11.55 14.9892 11.3619 14.5345 11.0377 14.1844C10.7135 13.8343 10.2746 13.6118 9.80055 13.5573C9.3265 13.5028 8.8486 13.6198 8.45337 13.8872C8.05815 14.1546 7.77174 14.5547 7.646 15.015C7.601 15.182 7.578 15.671 7.585 15.736C7.53456 16.9718 7.75292 18.2038 8.22501 19.3469C8.69709 20.4901 9.41165 21.5172 10.3193 22.3573C11.227 23.1973 12.3062 23.8304 13.4824 24.2128C14.6586 24.5952 15.9038 24.7177 17.132 24.572ZM9.3 12.21C9.1562 12.4521 8.94384 12.6462 8.68978 12.7676C8.43571 12.8891 8.15134 12.9324 7.87262 12.8923C7.5939 12.8521 7.33334 12.7302 7.12388 12.542C6.91442 12.3538 6.76547 12.1077 6.69586 11.8349C6.62625 11.562 6.6391 11.2746 6.73278 11.0091C6.82647 10.7435 6.9968 10.5117 7.22222 10.3429C7.44764 10.1742 7.71804 10.076 7.99923 10.0609C8.28042 10.0458 8.55979 10.1144 8.802 10.258C9.478 10.66 9.7 11.534 9.299 12.21" fill="white"/>
</g>
<defs>
<clipPath id="clip0_16_1517">
<rect width="32" height="32" fill="white"/>
</clipPath>
</defs>
</svg>
