<svg width="32" height="32" viewBox="0 0 32 32" fill="none" xmlns="http://www.w3.org/2000/svg">
<g clip-path="url(#clip0_16_1521)">
<path d="M16 32C24.8366 32 32 24.8366 32 16C32 7.16344 24.8366 0 16 0C7.16344 0 0 7.16344 0 16C0 24.8366 7.16344 32 16 32Z" fill="#65CB8D"/>
<path d="M18.454 18.487H13.509V13.513H18.454V18.487ZM25.914 10.163C25.705 8.9614 25.0663 7.87672 24.117 7.11101C23.2326 6.39169 22.127 5.99962 20.987 6.00101C17.63 6.00101 14.27 5.99801 10.913 6.00301C9.161 6.02301 7.505 7.03801 6.653 8.56401C6.179 9.38401 6.001 10.304 6 11.242C6.002 14.304 5.999 17.368 6.001 20.429C5.995 21.141 6.026 21.826 6.248 22.509C6.743 24.091 8.078 25.373 9.671 25.819C9.189 25.434 8.976 24.899 8.819 24.32C8.495 23.05 8.47 21.73 8.522 20.43C8.517 17.367 8.524 14.304 8.518 11.242C8.523 10.715 8.562 10.22 8.831 9.75401C9.246 9.01001 10.055 8.51201 10.913 8.52401C14.103 8.52101 17.298 8.52402 20.488 8.52202C20.97 8.52302 21.408 8.48701 21.868 8.66201C22.251 8.79523 22.5935 9.02408 22.8632 9.32685C23.1329 9.62962 23.3208 9.99627 23.409 10.392C23.504 10.855 23.479 11.369 23.48 11.842V20.829C23.48 21.27 23.431 21.702 23.242 22.105C22.851 22.924 22.005 23.492 21.089 23.475C18.563 23.479 16.035 23.475 13.509 23.477C13.505 22.653 13.506 21.828 13.509 21.004C15.57 21.004 17.631 21.001 19.692 21.006C20.136 21.03 20.647 20.805 20.852 20.396C20.967 20.186 20.986 19.964 20.991 19.731C20.989 17.234 20.99 14.738 20.99 12.24C21.004 12.0181 20.9537 11.7969 20.8452 11.6029C20.7366 11.4088 20.5744 11.2502 20.378 11.146C20.037 10.946 19.671 10.998 19.292 10.991C16.932 10.997 14.569 10.988 12.21 10.996C11.535 10.979 10.973 11.567 10.994 12.24C10.984 15.828 10.994 19.436 10.989 23.026C11.008 23.739 10.985 24.415 11.398 25.032C11.711 25.542 12.24 25.801 12.81 25.914C13.483 26.023 14.127 25.997 14.804 25.998C16.864 25.998 18.925 25.997 20.987 26C22.012 26.009 23.011 25.676 23.852 25.096C24.755 24.43 25.455 23.511 25.777 22.429C26 21.697 25.996 20.986 26 20.229V11.642C25.996 11.151 25.99 10.649 25.915 10.162" fill="white"/>
</g>
<defs>
<clipPath id="clip0_16_1521">
<rect width="32" height="32" fill="white"/>
</clipPath>
</defs>
</svg>
