<svg width="32" height="32" viewBox="0 0 32 32" fill="none" xmlns="http://www.w3.org/2000/svg">
<g clip-path="url(#clip0_16_1545)">
<path d="M16 32C24.8366 32 32 24.8366 32 16C32 7.16344 24.8366 0 16 0C7.16344 0 0 7.16344 0 16C0 24.8366 7.16344 32 16 32Z" fill="#663300"/>
<path d="M11.688 10.063L12.938 7L21.5 7.031C22.75 7.125 24.25 7.125 25.094 8.188C26.094 9.344 25.875 11 25.375 12.312C24.8931 13.724 24.0566 14.9885 22.9458 15.9845C21.835 16.9804 20.487 17.6745 19.031 18C16.969 18.313 14.875 18.219 12.781 18.219C13.198 17.202 13.615 16.181 14.031 15.156C15.75 15.156 17.5 15.25 19.25 14.969C20.844 14.563 22.313 12.969 22.063 11.219C21.906 10.469 21.063 10.125 20.343 10.125C17.469 10 14.593 10.125 11.719 10.062H11.688V10.063Z" fill="white"/>
<path d="M8 10.906H18.156L16.813 14.375H6.624L8 10.937V10.907V10.906ZM9.625 15.156H13.156L9.47 24.531H6L9.656 15.156H9.625Z" fill="white"/>
</g>
<defs>
<clipPath id="clip0_16_1545">
<rect width="32" height="32" fill="white"/>
</clipPath>
</defs>
</svg>
