<svg width="32" height="32" viewBox="0 0 32 32" fill="none" xmlns="http://www.w3.org/2000/svg">
<g clip-path="url(#clip0_16_1551)">
<path d="M16 32C24.8366 32 32 24.8366 32 16C32 7.16344 24.8366 0 16 0C7.16344 0 0 7.16344 0 16C0 24.8366 7.16344 32 16 32Z" fill="#ED79AA"/>
<path opacity="0.5" fill-rule="evenodd" clip-rule="evenodd" d="M23.452 8.929L21.582 10.812C20.9083 10.1306 20.1059 9.58975 19.2215 9.22084C18.3371 8.85194 17.3883 8.66233 16.43 8.663C12.515 8.663 9.32 11.773 9.152 15.673H9.144V22.795C7.43917 20.9433 6.49506 18.517 6.5 16C6.5 10.477 10.946 6 16.43 6C17.7361 5.99908 19.0293 6.25751 20.2347 6.7603C21.4401 7.2631 22.5337 8.00026 23.452 8.929ZM23.452 23.071C21.6368 24.9075 19.1739 25.9591 16.592 26V23.336C18.471 23.2953 20.2605 22.5254 21.582 21.189L23.452 23.071Z" fill="white"/>
<path fill-rule="evenodd" clip-rule="evenodd" d="M11.681 24.784V15.674H11.688C11.828 13.069 13.97 11 16.592 11C19.304 11 21.503 13.214 21.503 15.946C21.503 18.677 19.304 20.891 16.593 20.891C15.7195 20.8925 14.8618 20.6586 14.11 20.214V25.725C13.2622 25.5209 12.4453 25.2048 11.681 24.785V24.784ZM16.592 18.446C16.9192 18.445 17.243 18.3794 17.5449 18.2532C17.8468 18.127 18.1208 17.9426 18.3514 17.7104C18.582 17.4782 18.7646 17.2029 18.8887 16.9002C19.0129 16.5974 19.0762 16.2732 19.075 15.946C19.075 14.565 17.963 13.446 16.592 13.446C16.2649 13.4472 15.9412 13.5128 15.6394 13.6391C15.3376 13.7653 15.0637 13.9498 14.8332 14.182C14.6028 14.4141 14.4203 14.6894 14.2962 14.992C14.1721 15.2947 14.1088 15.6189 14.11 15.946C14.11 17.326 15.221 18.446 16.592 18.446Z" fill="white"/>
</g>
<defs>
<clipPath id="clip0_16_1551">
<rect width="32" height="32" fill="white"/>
</clipPath>
</defs>
</svg>
