<svg width="32" height="32" viewBox="0 0 32 32" fill="none" xmlns="http://www.w3.org/2000/svg">
<g clip-path="url(#clip0_16_1597)">
<path d="M16 32C24.8366 32 32 24.8366 32 16C32 7.16344 24.8366 0 16 0C7.16344 0 0 7.16344 0 16C0 24.8366 7.16344 32 16 32Z" fill="#348F8D"/>
<path d="M23.312 7.04402C23.5509 7.29189 23.6844 7.62274 23.6844 7.96702C23.6844 8.31129 23.5509 8.64214 23.312 8.89002L20.182 12.099C20.0826 12.2006 19.967 12.2851 19.84 12.349C19.6102 12.4787 19.3439 12.5283 19.0829 12.4901C18.8219 12.4519 18.581 12.328 18.398 12.138L15.28 8.94402L9.275 15.103L10.725 16.586C10.9331 16.8048 11.0485 17.0955 11.0472 17.3974C11.0459 17.6993 10.928 17.9891 10.718 18.206C10.6155 18.312 10.4929 18.3964 10.3573 18.4543C10.2217 18.5121 10.0759 18.5423 9.92847 18.5429C9.78105 18.5436 9.63499 18.5147 9.49889 18.4581C9.36279 18.4014 9.2394 18.3181 9.136 18.213L6.83 15.86C6.61835 15.6411 6.50005 15.3485 6.50005 15.044C6.50005 14.7395 6.61835 14.4469 6.83 14.228L6.846 14.213C6.85092 14.2083 6.85559 14.2033 6.86 14.198L14.484 6.37802H14.485L14.486 6.37702L14.511 6.35102C14.7013 6.15327 14.9562 6.03031 15.2294 6.00444C15.5026 5.97857 15.776 6.05151 16 6.21002C16.072 6.25902 16.14 6.31402 16.2 6.37702L19.184 9.43002L21.511 7.04402C21.628 6.92336 21.768 6.82742 21.9228 6.76191C22.0776 6.6964 22.2439 6.66264 22.412 6.66264C22.5801 6.66264 22.7464 6.6964 22.9012 6.76191C23.056 6.82742 23.196 6.92336 23.313 7.04402H23.312ZM25.17 16.146C25.3824 16.3635 25.5014 16.6553 25.5016 16.9593C25.5018 17.2633 25.3831 17.5553 25.171 17.773L25.155 17.788C25.1497 17.7927 25.1447 17.7978 25.14 17.803L17.486 25.65C17.3697 25.7706 17.2284 25.8643 17.072 25.9244C16.9156 25.9846 16.748 26.0098 16.5808 25.9982C16.4137 25.9867 16.2511 25.9387 16.1044 25.8577C15.9578 25.7766 15.8307 25.6644 15.732 25.529L12.815 22.545L10.502 24.923C10.18 25.255 9.71 25.386 9.269 25.265C8.828 25.144 8.483 24.792 8.365 24.34C8.248 23.889 8.375 23.407 8.7 23.078L11.829 19.87C12.007 19.684 12.236 19.558 12.486 19.508C12.89 19.418 13.312 19.544 13.605 19.844L16.731 23.042L22.725 16.898L21.275 15.415C21.0669 15.1963 20.9515 14.9055 20.9528 14.6036C20.9541 14.3017 21.072 14.012 21.282 13.795C21.3845 13.689 21.5071 13.6046 21.6427 13.5468C21.7783 13.4889 21.9241 13.4587 22.0715 13.4581C22.2189 13.4574 22.365 13.4863 22.5011 13.543C22.6372 13.5996 22.7606 13.6829 22.864 13.788L25.137 16.113L25.139 16.115L25.142 16.117L25.17 16.146Z" fill="white"/>
</g>
<defs>
<clipPath id="clip0_16_1597">
<rect width="32" height="32" fill="white"/>
</clipPath>
</defs>
</svg>
