<svg width="32" height="32" viewBox="0 0 32 32" fill="none" xmlns="http://www.w3.org/2000/svg">
<g clip-path="url(#clip0_16_1605)">
<path d="M16 32C24.8366 32 32 24.8366 32 16C32 7.16344 24.8366 0 16 0C7.16344 0 0 7.16344 0 16C0 24.8366 7.16344 32 16 32Z" fill="#3A8CBD"/>
<path d="M13.47 18.045H15.148C15.6275 18.0466 16.1013 17.9413 16.535 17.737C16.945 17.534 17.311 17.253 17.612 16.909C17.911 16.553 18.142 16.146 18.296 15.708C18.4619 15.2641 18.5459 14.7939 18.544 14.32C18.5467 13.8576 18.4548 13.3996 18.274 12.974C18.1006 12.5429 17.8558 12.144 17.55 11.794C17.2418 11.4435 16.869 11.1556 16.452 10.946C16.0243 10.725 15.5494 10.611 15.068 10.614H10.658V21.317H13.474L13.47 18.045ZM13.47 13.199H14.897C15.0953 13.212 15.2809 13.3013 15.415 13.448C15.581 13.613 15.685 13.904 15.685 14.359C15.685 14.814 15.582 15.084 15.435 15.231C15.312 15.376 15.146 15.479 14.96 15.479H13.47V13.2V13.199Z" fill="white"/>
<path d="M7.023 8.03002V23.918C7.023 24.488 7.484 24.948 8.053 24.948H23.941C24.51 24.948 24.971 24.488 24.971 23.918V8.03002C24.9711 7.89468 24.9446 7.76063 24.8929 7.63555C24.8412 7.51047 24.7653 7.39681 24.6697 7.30106C24.574 7.20531 24.4604 7.12935 24.3354 7.07752C24.2104 7.0257 24.0763 6.99902 23.941 6.99902H8.053C7.91774 6.99902 7.7838 7.02567 7.65883 7.07743C7.53387 7.12919 7.42032 7.20506 7.32468 7.3007C7.22903 7.39635 7.15317 7.50989 7.1014 7.63486C7.04964 7.75982 7.023 7.89376 7.023 8.02902V8.03002ZM21.826 22.834H10.146C10.0107 22.8342 9.87661 22.8076 9.75153 22.7559C9.62645 22.7042 9.51278 22.6284 9.41703 22.5327C9.32128 22.437 9.24532 22.3234 9.1935 22.1984C9.14167 22.0734 9.115 21.9394 9.115 21.804V10.124C9.11487 9.98859 9.14145 9.85447 9.19321 9.72932C9.24498 9.60417 9.32091 9.49047 9.41668 9.3947C9.51244 9.29894 9.62615 9.223 9.7513 9.17124C9.87644 9.11947 10.0106 9.09289 10.146 9.09302H21.826C22.396 9.09302 22.856 9.55402 22.856 10.123V21.803C22.856 22.373 22.396 22.834 21.826 22.834Z" fill="white"/>
<path d="M14.733 19.309H21.34V21.339H14.733V19.309Z" fill="white"/>
</g>
<defs>
<clipPath id="clip0_16_1605">
<rect width="32" height="32" fill="white"/>
</clipPath>
</defs>
</svg>
