<svg width="32" height="32" viewBox="0 0 32 32" fill="none" xmlns="http://www.w3.org/2000/svg">
<g clip-path="url(#clip0_16_1612)">
<path d="M16 32C24.8366 32 32 24.8366 32 16C32 7.16344 24.8366 0 16 0C7.16344 0 0 7.16344 0 16C0 24.8366 7.16344 32 16 32Z" fill="#1061E3"/>
<path fill-rule="evenodd" clip-rule="evenodd" d="M24.281 20.867C24.365 21.728 24.096 22.578 23.263 23.13C22.864 23.395 22.419 23.5 21.941 23.5C17.981 23.498 14.021 23.499 10.061 23.498C9.97429 23.498 9.88759 23.4957 9.801 23.491C8.933 23.444 8.113 22.815 7.833 21.994C7.709 21.631 7.69 21.259 7.705 20.867H10.115C10.347 20.866 10.501 20.697 10.449 20.486C10.4218 20.4042 10.3739 20.3309 10.31 20.273C9.327 19.291 8.341 18.313 7.356 17.333L6.454 16.435C6.115 16.1 5.952 15.695 6.012 15.223C6.042 14.991 6.117 14.763 6.192 14.539C6.61293 13.2702 7.28152 12.0975 8.159 11.089C9.40196 9.64256 11.0232 8.57086 12.841 7.99402C14.0244 7.60668 15.2699 7.44488 16.513 7.51702C19.449 7.69302 21.894 8.88702 23.832 11.088C24.8235 12.2136 25.5451 13.5505 25.942 14.997C26.092 15.536 25.95 16.021 25.551 16.418C24.801 17.166 24.045 17.908 23.292 18.653C22.739 19.2 22.187 19.749 21.635 20.298C21.453 20.478 21.471 20.718 21.679 20.825C21.739 20.855 21.814 20.865 21.882 20.865C22.642 20.868 23.403 20.867 24.164 20.867H24.281ZM8.442 21.407C8.453 21.729 8.539 22.015 8.727 22.265C9.039 22.681 9.46 22.877 9.982 22.876H22.01C22.057 22.876 22.104 22.874 22.15 22.871C22.3715 22.8626 22.588 22.8031 22.7828 22.6973C22.9776 22.5915 23.1453 22.4422 23.273 22.261C23.459 22.011 23.546 21.725 23.551 21.408L8.442 21.407ZM18.71 13.66C18.739 13.679 18.76 13.69 18.777 13.703C19.765 14.439 20.391 15.403 20.629 16.61C20.759 17.266 20.741 17.92 20.587 18.571C20.4466 19.1624 20.1918 19.7206 19.837 20.214C19.8036 20.256 19.7801 20.3049 19.7683 20.3572C19.7566 20.4095 19.7568 20.4638 19.769 20.516C19.838 20.788 20.147 20.876 20.351 20.677C20.651 20.386 20.944 20.089 21.241 19.795C22.437 18.605 23.633 17.416 24.83 16.228C25.09 15.97 25.204 15.662 25.14 15.302C25.111 15.146 25.055 14.994 25.002 14.844C24.6137 13.717 24.0431 12.6613 23.313 11.719C22.7544 10.9959 22.0904 10.3608 21.343 9.83502C21.3049 9.80764 21.2785 9.76695 21.269 9.72102C21.258 9.61495 21.2223 9.51292 21.1648 9.42314C21.1073 9.33336 21.0295 9.25833 20.9377 9.20407C20.8459 9.1498 20.7426 9.11782 20.6362 9.11069C20.5298 9.10357 20.4232 9.12149 20.325 9.16302C20.2843 9.17915 20.239 9.1795 20.198 9.16402C19.1439 8.66228 18.0032 8.36761 16.838 8.29602C15.9118 8.22641 14.9805 8.27886 14.068 8.45202C13.3056 8.59727 12.5653 8.84133 11.866 9.17802C11.8393 9.19319 11.8092 9.20116 11.7785 9.20116C11.7478 9.20116 11.7177 9.19319 11.691 9.17802C11.5909 9.12873 11.4801 9.10537 11.3687 9.11007C11.2572 9.11476 11.1487 9.14738 11.0532 9.20491C10.9576 9.26244 10.8781 9.34305 10.8218 9.43935C10.7655 9.53564 10.7343 9.64453 10.731 9.75602C10.731 9.81602 10.709 9.85102 10.663 9.88702C10.357 10.13 10.039 10.361 9.753 10.626C8.409 11.871 7.495 13.39 6.908 15.113C6.76 15.549 6.858 15.923 7.183 16.246L10.743 19.785C11.041 20.082 11.338 20.379 11.639 20.674C11.812 20.844 12.073 20.814 12.186 20.613C12.263 20.474 12.244 20.337 12.153 20.209C11.6745 19.5467 11.3805 18.7692 11.301 17.956C11.2313 17.2875 11.3099 16.6118 11.531 15.977C11.581 15.832 11.643 15.69 11.702 15.54L13.114 16.37C12.8209 17.0789 12.7999 17.871 13.0549 18.5945C13.31 19.3179 13.8231 19.9217 14.496 20.29C15.1312 20.6379 15.8675 20.7545 16.5792 20.6199C17.2908 20.4853 17.9337 20.1079 18.398 19.552C18.858 19.005 19.102 18.37 19.116 17.655C19.136 16.589 18.695 15.739 17.866 15.077L18.71 13.66ZM23.375 16.7C23.349 16.534 23.325 16.381 23.299 16.228C23.2027 15.6633 23.0375 15.1125 22.807 14.588C22.782 14.528 22.776 14.482 22.806 14.42C22.8455 14.3368 22.8672 14.2463 22.8698 14.1543C22.8724 14.0622 22.8558 13.9706 22.8211 13.8853C22.7864 13.8 22.7343 13.7229 22.6682 13.6588C22.6021 13.5947 22.5233 13.5451 22.437 13.513C22.3523 13.481 22.2621 13.4664 22.1717 13.4699C22.0812 13.4733 21.9924 13.4949 21.9105 13.5333C21.8285 13.5718 21.7551 13.6262 21.6946 13.6935C21.634 13.7608 21.5876 13.8395 21.558 13.925C21.5286 14.0105 21.517 14.1012 21.5241 14.1913C21.5311 14.2815 21.5566 14.3693 21.599 14.4491C21.6414 14.529 21.6998 14.5994 21.7705 14.6558C21.8412 14.7122 21.9227 14.7534 22.01 14.777C22.0574 14.786 22.1015 14.8076 22.1377 14.8394C22.1739 14.8713 22.201 14.9122 22.216 14.958C22.52 15.703 22.689 16.475 22.713 17.278C22.715 17.3259 22.6993 17.3729 22.669 17.41C22.212 17.87 21.751 18.326 21.292 18.783C21.276 18.798 21.257 18.81 21.25 18.817C21.688 16.647 21.155 14.766 19.412 13.35C17.601 11.88 15.583 11.767 13.464 12.723L12.817 11.606C13.048 11.503 13.27 11.396 13.497 11.302C14.0817 11.0686 14.6958 10.9171 15.322 10.852C15.403 10.843 15.462 10.856 15.525 10.92C15.5869 10.9838 15.6611 11.0345 15.7431 11.0689C15.8251 11.1033 15.9132 11.1208 16.0021 11.1203C16.091 11.1199 16.1789 11.1014 16.2605 11.0662C16.3421 11.0309 16.4157 10.9795 16.477 10.915C16.4981 10.8904 16.5252 10.8716 16.5557 10.8604C16.5861 10.8492 16.6189 10.8459 16.651 10.851C18.184 11.017 19.514 11.619 20.636 12.672C20.726 12.757 20.811 12.846 20.898 12.934C21.053 13.09 21.224 13.094 21.382 12.942L22.433 11.925L22.531 11.832C22.657 11.992 22.784 12.146 22.902 12.306C23.5849 13.2293 24.1088 14.2601 24.452 15.356C24.4759 15.4205 24.48 15.4906 24.4638 15.5574C24.4476 15.6242 24.4118 15.6847 24.361 15.731L23.437 16.65C23.421 16.665 23.402 16.677 23.375 16.7ZM22.109 11.39L21.211 12.259C21.184 12.236 21.159 12.215 21.136 12.193C20.2011 11.2934 19.044 10.6584 17.783 10.353C17.43 10.267 17.065 10.227 16.706 10.169C16.643 10.159 16.6 10.146 16.561 10.086C16.4992 9.99205 16.4149 9.91494 16.3158 9.86165C16.2167 9.80836 16.106 9.78057 15.9935 9.78076C15.881 9.78096 15.7703 9.80915 15.6714 9.86279C15.5725 9.91643 15.4885 9.99383 15.427 10.088C15.397 10.1284 15.3526 10.1556 15.303 10.164C12.989 10.418 11.173 11.502 9.843 13.396C9.82811 13.4193 9.80813 13.4388 9.78456 13.4532C9.761 13.4676 9.73448 13.4764 9.707 13.479C9.241 13.555 9.004 14.009 9.197 14.439C9.21216 14.4776 9.21216 14.5205 9.197 14.559C8.91718 15.1967 8.73027 15.8712 8.642 16.562C8.636 16.605 8.627 16.647 8.617 16.706L8.531 16.626C8.245 16.341 7.961 16.053 7.671 15.772C7.537 15.642 7.493 15.504 7.556 15.322C8.229 13.392 9.299 11.74 10.966 10.507C10.985 10.493 11.005 10.481 11.023 10.466C11.083 10.413 11.138 10.398 11.227 10.422C11.3166 10.447 11.4105 10.4531 11.5026 10.4398C11.5947 10.4266 11.6831 10.3942 11.762 10.3449C11.8409 10.2956 11.9087 10.2304 11.9611 10.1535C12.0134 10.0766 12.0491 9.98954 12.066 9.89802C12.071 9.87844 12.0799 9.86005 12.0921 9.84391C12.1043 9.82778 12.1195 9.81422 12.137 9.80402C12.5689 9.59102 13.0194 9.41829 13.483 9.28802C14.578 8.97702 15.696 8.89602 16.826 8.97702C17.8668 9.04306 18.8861 9.30355 19.831 9.74502C19.891 9.77302 19.921 9.80502 19.931 9.87502C19.9455 9.97616 19.9829 10.0727 20.0404 10.1571C20.0978 10.2416 20.1739 10.3118 20.2627 10.3624C20.3514 10.4129 20.4506 10.4425 20.5526 10.4489C20.6546 10.4552 20.7566 10.4382 20.851 10.399C20.883 10.387 20.934 10.386 20.959 10.403C21.368 10.685 21.744 11.005 22.091 11.358C22.098 11.365 22.101 11.375 22.109 11.39ZM18.445 17.57C18.452 18.901 17.355 19.998 16.009 20.006C15.3619 20.0079 14.7404 19.7536 14.2802 19.2986C13.82 18.8437 13.5585 18.2251 13.553 17.578C13.547 16.245 14.642 15.151 15.991 15.144C16.638 15.1403 17.2599 15.3937 17.7201 15.8484C18.1803 16.3032 18.441 16.9221 18.445 17.569V17.57ZM10.747 18.834L10.115 18.199C9.855 17.939 9.593 17.683 9.335 17.421C9.30147 17.3869 9.28155 17.3418 9.279 17.294C9.3029 16.467 9.48201 15.6519 9.807 14.891C9.81532 14.8663 9.83025 14.8444 9.85018 14.8277C9.87011 14.8109 9.89427 14.8 9.92 14.796C10.369 14.691 10.578 14.299 10.419 13.871C10.409 13.841 10.409 13.796 10.424 13.771C10.9154 13.0442 11.5463 12.4221 12.28 11.941C12.283 11.939 12.286 11.939 12.3 11.935L12.565 12.387L13.121 13.347C13.233 13.543 13.379 13.586 13.572 13.469C14.0764 13.1631 14.6354 12.958 15.218 12.865C16.2196 12.6956 17.2491 12.8545 18.153 13.318C18.162 13.323 18.169 13.33 18.187 13.344L17.348 14.751C15.763 14.156 14.453 14.511 13.395 15.828L11.988 15.001C12.114 14.832 12.234 14.669 12.357 14.509C12.407 14.443 12.465 14.383 12.521 14.321C12.607 14.225 12.607 14.171 12.519 14.081C12.4416 14.0024 12.3636 13.9244 12.285 13.847C12.179 13.743 12.127 13.743 12.027 13.851C11.6003 14.3077 11.2577 14.8361 11.015 15.412C10.6709 16.2188 10.5341 17.0988 10.617 17.972C10.643 18.252 10.7 18.529 10.747 18.834ZM15.995 10.824C15.8957 10.822 15.8012 10.7816 15.731 10.7113C15.6609 10.641 15.6208 10.5463 15.619 10.447C15.6223 10.3478 15.6636 10.2537 15.7343 10.1841C15.805 10.1145 15.8998 10.0748 15.999 10.073C16.0982 10.0753 16.1927 10.116 16.2627 10.1865C16.3326 10.2569 16.3725 10.3518 16.374 10.451C16.3719 10.5504 16.3312 10.6451 16.2604 10.7149C16.1896 10.7848 16.0944 10.8243 15.995 10.825V10.824ZM11.395 9.41002C11.4444 9.40869 11.4936 9.41719 11.5397 9.43503C11.5857 9.45286 11.6278 9.47968 11.6635 9.51392C11.6991 9.54816 11.7276 9.58914 11.7472 9.63447C11.7669 9.67981 11.7774 9.72861 11.778 9.77802C11.778 9.87827 11.7382 9.97442 11.6673 10.0453C11.5964 10.1162 11.5003 10.156 11.4 10.156C11.2997 10.156 11.2036 10.1162 11.1327 10.0453C11.0618 9.97442 11.022 9.87827 11.022 9.77802C11.0231 9.67988 11.0628 9.58613 11.1327 9.5172C11.2026 9.44828 11.2969 9.40975 11.395 9.41002ZM22.196 14.51C22.1007 14.5061 22.0106 14.4656 21.9442 14.3971C21.8779 14.3286 21.8404 14.2372 21.8395 14.1418C21.8386 14.0465 21.8743 13.9544 21.9394 13.8846C22.0044 13.8149 22.0938 13.7728 22.189 13.767C22.2378 13.7666 22.2862 13.7757 22.3314 13.794C22.3767 13.8122 22.4179 13.8392 22.4527 13.8734C22.4875 13.9075 22.5153 13.9482 22.5344 13.9931C22.5535 14.038 22.5635 14.0862 22.564 14.135C22.5645 14.1838 22.5553 14.2322 22.5371 14.2775C22.5188 14.3227 22.4918 14.3639 22.4577 14.3987C22.4235 14.4336 22.3828 14.4613 22.3379 14.4804C22.293 14.4995 22.2448 14.5096 22.196 14.51ZM20.593 9.41002C20.806 9.41002 20.968 9.57002 20.967 9.78202C20.9667 9.87989 20.9278 9.9737 20.8587 10.043C20.7896 10.1123 20.6959 10.1515 20.598 10.152C20.5487 10.1528 20.4998 10.1439 20.454 10.1257C20.4081 10.1075 20.3664 10.0804 20.3311 10.046C20.2958 10.0116 20.2676 9.97062 20.2482 9.92531C20.2288 9.88 20.2185 9.8313 20.218 9.78202C20.2173 9.73268 20.2266 9.68371 20.2452 9.63801C20.2638 9.59232 20.2915 9.55084 20.3264 9.51604C20.3614 9.48124 20.4031 9.45384 20.4488 9.43545C20.4946 9.41706 20.5437 9.40808 20.593 9.40902V9.41002ZM10.175 14.138C10.1753 14.1873 10.1657 14.2361 10.1469 14.2816C10.128 14.3271 10.1003 14.3684 10.0652 14.4031C10.0302 14.4377 9.98862 14.465 9.9429 14.4834C9.89718 14.5018 9.84826 14.5108 9.799 14.51C9.74966 14.5107 9.70069 14.5014 9.65499 14.4828C9.6093 14.4642 9.56782 14.4366 9.53302 14.4016C9.49822 14.3666 9.47082 14.325 9.45243 14.2792C9.43404 14.2334 9.42506 14.1844 9.426 14.135C9.42653 14.0371 9.46588 13.9433 9.53543 13.8743C9.60498 13.8053 9.69904 13.7668 9.797 13.767C9.84631 13.7661 9.8953 13.775 9.94113 13.7932C9.98695 13.8115 10.0287 13.8386 10.0639 13.8732C10.0991 13.9077 10.127 13.9489 10.1461 13.9944C10.1652 14.0399 10.175 14.0887 10.175 14.138Z" fill="white"/>
</g>
<defs>
<clipPath id="clip0_16_1612">
<rect width="32" height="32" fill="white"/>
</clipPath>
</defs>
</svg>
