<svg width="32" height="32" viewBox="0 0 32 32" fill="none" xmlns="http://www.w3.org/2000/svg">
<g clip-path="url(#clip0_16_1644)">
<path d="M16 32C24.8366 32 32 24.8366 32 16C32 7.16344 24.8366 0 16 0C7.16344 0 0 7.16344 0 16C0 24.8366 7.16344 32 16 32Z" fill="#2E9AD0"/>
<path d="M25.313 23.636L23.34 21.88L19.348 24.875C19.3956 24.9795 19.4202 25.0931 19.42 25.208C19.4216 25.4161 19.3406 25.6164 19.1947 25.7648C19.0489 25.9133 18.8501 25.9979 18.642 26C18.4592 25.9989 18.2826 25.934 18.1427 25.8163C18.0028 25.6987 17.9084 25.5359 17.876 25.356H13.566C13.5336 25.5357 13.4394 25.6984 13.2997 25.816C13.16 25.9336 12.9836 25.9987 12.801 26C12.5927 25.9982 12.3937 25.9137 12.2476 25.7652C12.1015 25.6167 12.0204 25.4163 12.022 25.208C12.0218 25.0939 12.046 24.981 12.093 24.877L8.547 22.237C8.40568 22.3651 8.22175 22.436 8.031 22.436C7.82271 22.4342 7.62368 22.3497 7.47761 22.2012C7.33155 22.0527 7.2504 21.8523 7.252 21.644C7.252 21.344 7.416 21.083 7.658 20.948L6.355 16.788C6.24596 16.7976 6.13612 16.7843 6.03251 16.749C5.92889 16.7137 5.8338 16.6572 5.75331 16.583C5.67282 16.5088 5.60871 16.4186 5.56509 16.3183C5.52147 16.2179 5.4993 16.1095 5.5 16C5.49934 15.8885 5.52243 15.778 5.56774 15.6761C5.61304 15.5742 5.67952 15.4831 5.76276 15.4088C5.846 15.3346 5.94409 15.2789 6.05052 15.2455C6.15694 15.212 6.26926 15.2017 6.38 15.215L7.661 11.054C7.53653 10.985 7.43289 10.8838 7.36094 10.761C7.28898 10.6382 7.25136 10.4983 7.252 10.356C7.252 9.919 7.601 9.564 8.031 9.564C8.233 9.564 8.417 9.642 8.555 9.77L12.128 7.19C12.0585 7.06888 12.0219 6.93165 12.022 6.792C12.022 6.355 12.371 6 12.801 6C13.181 6 13.498 6.277 13.566 6.644H17.876C17.9084 6.46413 18.0028 6.30127 18.1427 6.18366C18.2826 6.06604 18.4592 6.00107 18.642 6C19.072 6 19.42 6.355 19.42 6.792C19.4203 6.92458 19.3877 7.05516 19.325 7.172L22.875 9.782C23.0188 9.64217 23.2114 9.56396 23.412 9.564C23.842 9.564 24.19 9.919 24.19 10.356C24.1906 10.4875 24.1586 10.617 24.0968 10.7331C24.035 10.8491 23.9454 10.9481 23.836 11.021L25.112 15.21C25.2195 15.2026 25.3274 15.2177 25.4287 15.2543C25.5301 15.2908 25.6228 15.3481 25.7008 15.4224C25.7789 15.4967 25.8406 15.5864 25.8822 15.6858C25.9237 15.7853 25.9441 15.8923 25.942 16C25.9428 16.1053 25.9225 16.2096 25.8822 16.3069C25.842 16.4041 25.7826 16.4923 25.7076 16.5662C25.6326 16.64 25.5436 16.6981 25.4457 16.7369C25.3479 16.7757 25.2432 16.7944 25.138 16.792L23.641 21.622L25.558 23.328C25.77 23.1358 26.0459 23.0296 26.332 23.03C26.977 23.03 27.5 23.562 27.5 24.218C27.5 24.874 26.977 25.406 26.332 25.406C26.1773 25.4047 26.0244 25.3729 25.882 25.3125C25.7395 25.2521 25.6104 25.1642 25.5019 25.0539C25.3935 24.9436 25.3078 24.813 25.2498 24.6696C25.1918 24.5261 25.1627 24.3727 25.164 24.218C25.164 24.006 25.218 23.808 25.314 23.636H25.313ZM18.708 24.419L20.195 21.07C20.0729 20.9691 19.9837 20.834 19.939 20.682L16.489 21.184C16.4645 21.3307 16.3994 21.4675 16.301 21.579L18.348 24.474C18.4618 24.427 18.5853 24.4081 18.708 24.419ZM19.101 24.569L22.97 21.666L21.302 20.94C21.216 21.0539 21.1001 21.1418 20.9672 21.1938C20.8342 21.2459 20.6895 21.2601 20.549 21.235L19.076 24.551C19.0844 24.5565 19.0928 24.5622 19.101 24.568V24.569ZM18.036 24.71L15.976 21.798C15.811 21.8563 15.631 21.8563 15.466 21.798L13.406 24.71C13.4656 24.7845 13.5114 24.8692 13.541 24.96H17.901C17.9306 24.8692 17.9764 24.7845 18.036 24.71ZM24.764 16.68C24.6478 16.6087 24.5518 16.5087 24.4854 16.3896C24.4191 16.2705 24.3845 16.1363 24.385 16C24.385 15.72 24.527 15.475 24.742 15.334L23.536 11.374L23.266 15.248C23.576 15.352 23.801 15.649 23.801 16C23.8018 16.1645 23.7512 16.3251 23.6564 16.4596C23.5616 16.594 23.4272 16.6955 23.272 16.75L23.538 20.636L24.764 16.68ZM22.51 15.403L20.926 12.298C20.797 12.3407 20.6589 12.3483 20.526 12.32L19.134 15.387C19.2238 15.4619 19.2959 15.5557 19.3454 15.6616C19.3948 15.7676 19.4203 15.8831 19.42 16C19.4202 16.1188 19.3938 16.2362 19.3428 16.3434C19.2917 16.4507 19.2173 16.5452 19.125 16.62L20.56 19.674C20.6631 19.657 20.7685 19.661 20.87 19.686L22.489 16.576C22.4112 16.5016 22.3493 16.4122 22.307 16.3132C22.2647 16.2142 22.2429 16.1077 22.243 16C22.243 15.762 22.347 15.548 22.51 15.403ZM22.884 16.78C22.8659 16.7767 22.8478 16.7727 22.83 16.768L21.213 19.872C21.3078 19.9606 21.3796 20.0711 21.4219 20.1938C21.4643 20.3165 21.476 20.4477 21.456 20.576L23.196 21.334L22.884 16.78ZM22.878 15.222L23.164 11.108C23.0133 11.0562 22.8821 10.9595 22.788 10.831L21.45 11.39C21.4734 11.513 21.468 11.6398 21.4342 11.7604C21.4004 11.881 21.339 11.9921 21.255 12.085L22.859 15.225C22.8653 15.2239 22.8717 15.2229 22.878 15.222ZM18.77 16.782C18.6584 16.8007 18.544 16.7945 18.435 16.764L16.312 20.534C16.3755 20.609 16.4247 20.6951 16.457 20.788L19.925 20.284C19.965 20.103 20.065 19.944 20.203 19.834L18.77 16.78V16.782ZM18.78 15.221L20.177 12.144C20.035 12.0193 19.9422 11.848 19.915 11.661L16.44 11.156C16.4018 11.2493 16.3461 11.3345 16.276 11.407L18.415 15.242C18.5335 15.2055 18.6591 15.1983 18.781 15.221H18.78ZM18.098 16.567C18.0233 16.4927 17.964 16.4044 17.9237 16.3071C17.8833 16.2097 17.8627 16.1054 17.863 16C17.863 15.786 17.947 15.591 18.083 15.449L15.943 11.611C15.8237 11.6471 15.6974 11.6537 15.575 11.63L13.368 15.457C13.5047 15.6047 13.5804 15.7987 13.58 16C13.5806 16.2089 13.4991 16.4097 13.353 16.559L15.521 20.284C15.6762 20.2423 15.8406 20.2503 15.991 20.307L18.098 16.567ZM6.721 16.652L7.963 20.618L8.256 16.774C8.08092 16.734 7.9247 16.6355 7.81308 16.4948C7.70147 16.3541 7.64113 16.1796 7.642 16C7.64108 15.8181 7.70296 15.6415 7.81719 15.4999C7.93143 15.3583 8.09101 15.2605 8.269 15.223L7.966 11.389L6.743 15.364C6.84118 15.4384 6.92075 15.5345 6.97541 15.6449C7.03008 15.7553 7.05835 15.8768 7.058 16C7.058 16.27 6.924 16.51 6.721 16.652ZM10.609 19.678C10.7244 19.6554 10.8434 19.6595 10.957 19.69L12.327 16.629C12.2317 16.5543 12.1546 16.4588 12.1018 16.3498C12.0489 16.2408 12.0216 16.1211 12.022 16C12.022 15.752 12.134 15.531 12.309 15.386L10.917 12.32C10.8209 12.3403 10.7218 12.342 10.625 12.325L8.946 15.416C9.02626 15.4906 9.09024 15.581 9.13395 15.6815C9.17766 15.782 9.20014 15.8904 9.2 16C9.20032 16.1066 9.17924 16.2121 9.13801 16.3103C9.09679 16.4086 9.03625 16.4976 8.96 16.572L10.61 19.678H10.609ZM10.933 21.228C10.7905 21.2615 10.6414 21.2535 10.5032 21.2052C10.365 21.1568 10.2435 21.07 10.153 20.955L8.803 21.543C8.81832 21.666 8.80532 21.7908 8.765 21.908L12.34 24.57C12.3505 24.5621 12.3611 24.5544 12.372 24.547L10.932 21.227L10.933 21.228ZM9.99 20.595C9.96512 20.4579 9.97669 20.3166 10.0235 20.1853C10.0704 20.0541 10.1509 19.9374 10.257 19.847L8.644 16.812L8.331 20.912C8.46224 20.9682 8.57565 21.0591 8.659 21.175L9.99 20.595ZM11.52 20.296L14.985 20.79C15.0253 20.672 15.0927 20.5651 15.182 20.478L13.018 16.761C12.9104 16.7929 12.797 16.8007 12.686 16.784L11.296 19.885C11.4105 19.9962 11.4886 20.1395 11.52 20.296ZM11.5 20.693C11.4583 20.8273 11.3817 20.948 11.278 21.043L12.741 24.418C12.8614 24.4089 12.9823 24.4281 13.094 24.474L15.142 21.579C15.044 21.4681 14.9789 21.332 14.954 21.186L11.5 20.693ZM9.997 11.371L8.666 10.815C8.58252 10.9349 8.46718 11.0291 8.333 11.087L8.653 15.138L10.269 12.162C10.1549 12.0685 10.069 11.9451 10.021 11.8056C9.97299 11.6661 9.96467 11.516 9.997 11.372V11.371ZM10.947 10.776L12.322 7.536L8.769 10.102C8.8057 10.2124 8.81799 10.3294 8.805 10.445L10.175 11.018C10.2686 10.9101 10.3904 10.8303 10.5267 10.7876C10.663 10.7449 10.8085 10.7409 10.947 10.776ZM11.529 11.649C11.5043 11.8405 11.4109 12.0164 11.266 12.144L12.662 15.221C12.7881 15.1977 12.918 15.2063 13.04 15.246L15.222 11.46C15.1252 11.3771 15.0497 11.2722 15.002 11.154L11.529 11.649ZM11.289 10.967C11.373 11.047 11.439 11.146 11.482 11.256L14.947 10.762C14.9629 10.6172 15.0183 10.4795 15.107 10.364L13.117 7.516C12.9949 7.57147 12.8605 7.59388 12.727 7.581L11.29 10.967H11.289ZM20.612 10.756C20.7375 10.7444 20.8639 10.7635 20.9803 10.8118C21.0967 10.8601 21.1996 10.936 21.28 11.033L22.64 10.465C22.6245 10.3486 22.6344 10.2302 22.669 10.118L19.14 7.524L20.611 10.756H20.612ZM19.956 11.266C20.0122 11.1144 20.1134 10.9835 20.246 10.891L18.736 7.578C18.5962 7.59501 18.4545 7.57357 18.326 7.516L16.336 10.364C16.4245 10.4804 16.4798 10.6187 16.496 10.764L19.956 11.267V11.266ZM18.02 7.27C17.9684 7.20028 17.9285 7.12259 17.902 7.04H13.54C13.5132 7.12266 13.473 7.20035 13.421 7.27L15.415 10.123C15.5112 10.0812 15.6151 10.0596 15.72 10.0596C15.8249 10.0596 15.9288 10.0812 16.025 10.123L18.02 7.27Z" fill="white"/>
</g>
<defs>
<clipPath id="clip0_16_1644">
<rect width="32" height="32" fill="white"/>
</clipPath>
</defs>
</svg>
