<svg width="32" height="32" viewBox="0 0 32 32" fill="none" xmlns="http://www.w3.org/2000/svg">
<g clip-path="url(#clip0_16_1652)">
<path d="M16 32C24.8366 32 32 24.8366 32 16C32 7.16344 24.8366 0 16 0C7.16344 0 0 7.16344 0 16C0 24.8366 7.16344 32 16 32Z" fill="#9D4BEF"/>
<path d="M11.47 7.66101C12.4799 7.66101 13.4485 8.06221 14.1627 8.77635C14.8768 9.49049 15.278 10.4591 15.278 11.469C15.278 12.479 14.8768 13.4475 14.1627 14.1617C13.4485 14.8758 12.4799 15.277 11.47 15.277C10.4601 15.277 9.49148 14.8758 8.77734 14.1617C8.0632 13.4475 7.662 12.479 7.662 11.469C7.662 10.4591 8.0632 9.49049 8.77734 8.77635C9.49148 8.06221 10.4601 7.66101 11.47 7.66101ZM15.277 20.531C15.277 21.2842 15.0537 22.0204 14.6352 22.6466C14.2168 23.2728 13.6221 23.7609 12.9263 24.0491C12.2304 24.3374 11.4648 24.4128 10.7261 24.2658C9.98742 24.1189 9.3089 23.7562 8.77634 23.2237C8.24378 22.6911 7.8811 22.0126 7.73417 21.2739C7.58724 20.5352 7.66265 19.7696 7.95087 19.0738C8.23909 18.3779 8.72717 17.7832 9.35339 17.3648C9.97961 16.9463 10.7158 16.723 11.469 16.723C12.8622 16.723 14.1983 16.1696 15.1834 15.1844C16.1686 14.1993 16.722 12.8632 16.722 11.47C16.722 10.7169 16.9453 9.98062 17.3638 9.3544C17.7822 8.72818 18.3769 8.2401 19.0727 7.95188C19.7686 7.66366 20.5342 7.58825 21.2729 7.73518C22.0116 7.88211 22.6901 8.24479 23.2227 8.77735C23.7552 9.30991 24.1179 9.98843 24.2648 10.7271C24.4118 11.4658 24.3364 12.2314 24.0481 12.9273C23.7599 13.6231 23.2718 14.2178 22.6456 14.6362C22.0194 15.0547 21.2832 15.278 20.53 15.278C19.137 15.2783 17.8011 15.8318 16.8162 16.8169C15.8313 17.802 15.278 19.138 15.278 20.531H15.277ZM20.53 24.339C19.5201 24.339 18.5515 23.9378 17.8373 23.2237C17.1232 22.5095 16.722 21.541 16.722 20.531C16.722 19.5211 17.1232 18.5525 17.8373 17.8383C18.5515 17.1242 19.5201 16.723 20.53 16.723C21.5399 16.723 22.5085 17.1242 23.2227 17.8383C23.9368 18.5525 24.338 19.5211 24.338 20.531C24.338 21.541 23.9368 22.5095 23.2227 23.2237C22.5085 23.9378 21.5399 24.339 20.53 24.339ZM20.53 21.679C20.8345 21.679 21.1265 21.5581 21.3418 21.3428C21.5571 21.1275 21.678 20.8355 21.678 20.531C21.678 20.2265 21.5571 19.9345 21.3418 19.7193C21.1265 19.504 20.8345 19.383 20.53 19.383C20.2255 19.383 19.9335 19.504 19.7182 19.7193C19.5029 19.9345 19.382 20.2265 19.382 20.531C19.382 20.8355 19.5029 21.1275 19.7182 21.3428C19.9335 21.5581 20.2255 21.679 20.53 21.679ZM11.47 21.679C11.7745 21.679 12.0665 21.5581 12.2818 21.3428C12.4971 21.1275 12.618 20.8355 12.618 20.531C12.618 20.2265 12.4971 19.9345 12.2818 19.7193C12.0665 19.504 11.7745 19.383 11.47 19.383C11.1655 19.383 10.8735 19.504 10.6582 19.7193C10.4429 19.9345 10.322 20.2265 10.322 20.531C10.322 20.8355 10.4429 21.1275 10.6582 21.3428C10.8735 21.5581 11.1655 21.679 11.47 21.679ZM20.53 12.617C20.8345 12.617 21.1265 12.4961 21.3418 12.2808C21.5571 12.0655 21.678 11.7735 21.678 11.469C21.678 11.1645 21.5571 10.8725 21.3418 10.6573C21.1265 10.442 20.8345 10.321 20.53 10.321C20.2255 10.321 19.9335 10.442 19.7182 10.6573C19.5029 10.8725 19.382 11.1645 19.382 11.469C19.382 11.7735 19.5029 12.0655 19.7182 12.2808C19.9335 12.4961 20.2255 12.617 20.53 12.617ZM11.47 12.617C11.7745 12.617 12.0665 12.4961 12.2818 12.2808C12.4971 12.0655 12.618 11.7735 12.618 11.469C12.618 11.1645 12.4971 10.8725 12.2818 10.6573C12.0665 10.442 11.7745 10.321 11.47 10.321C11.1655 10.321 10.8735 10.442 10.6582 10.6573C10.4429 10.8725 10.322 11.1645 10.322 11.469C10.322 11.7735 10.4429 12.0655 10.6582 12.2808C10.8735 12.4961 11.1655 12.617 11.47 12.617Z" fill="white"/>
</g>
<defs>
<clipPath id="clip0_16_1652">
<rect width="32" height="32" fill="white"/>
</clipPath>
</defs>
</svg>
