<svg width="32" height="32" viewBox="0 0 32 32" fill="none" xmlns="http://www.w3.org/2000/svg">
<g clip-path="url(#clip0_16_1664)">
<path d="M16 32C24.8366 32 32 24.8366 32 16C32 7.16344 24.8366 0 16 0C7.16344 0 0 7.16344 0 16C0 24.8366 7.16344 32 16 32Z" fill="#E30613"/>
<path opacity="0.75" fill-rule="evenodd" clip-rule="evenodd" d="M15.361 27C9.64 27 5 22.407 5 16.742C5 11.077 9.639 6.48401 15.361 6.48401C21.084 6.48401 25.723 11.077 25.723 16.742C25.723 22.407 21.083 27 15.36 27H15.361ZM17.15 9.42301C19.566 10.412 21.302 12.273 22.534 14.781L23.464 14.134C22.42 11.622 20.491 9.64801 17.388 8.36801L17.15 9.42301Z" fill="white"/>
<path d="M26.992 9.321C26.992 6.935 25.037 5 22.627 5C20.217 5 18.262 6.935 18.262 9.321C18.262 9.549 18.28 9.776 18.316 10.001C19.769 10.847 20.936 12.061 21.869 13.577C22.119 13.62 22.373 13.643 22.627 13.643C25.037 13.643 26.992 11.708 26.992 9.321Z" fill="white"/>
</g>
<defs>
<clipPath id="clip0_16_1664">
<rect width="32" height="32" fill="white"/>
</clipPath>
</defs>
</svg>
