<svg width="32" height="32" viewBox="0 0 32 32" fill="none" xmlns="http://www.w3.org/2000/svg">
<g clip-path="url(#clip0_16_1686)">
<path d="M16 32C24.8366 32 32 24.8366 32 16C32 7.16344 24.8366 0 16 0C7.16344 0 0 7.16344 0 16C0 24.8366 7.16344 32 16 32Z" fill="#00E6A0"/>
<path d="M23.073 7.49997C23.1614 7.49803 23.2492 7.51405 23.3312 7.54705C23.4132 7.58005 23.4876 7.62936 23.55 7.69197L23.544 7.68597C23.6428 7.78442 23.7073 7.91204 23.728 8.04998L23.737 8.15398L23.73 11.571C23.73 12.02 23.552 12.451 23.234 12.768L18.994 16.995L23.531 21.518C23.6906 21.6739 23.8176 21.8599 23.9049 22.0653C23.9922 22.2706 24.0379 22.4912 24.0394 22.7143C24.041 22.9374 23.9983 23.1586 23.9139 23.3651C23.8294 23.5716 23.7049 23.7593 23.5475 23.9174C23.3901 24.0756 23.203 24.2009 22.9968 24.2863C22.7907 24.3717 22.5697 24.4154 22.3466 24.4149C22.1235 24.4144 21.9027 24.3697 21.697 24.2834C21.4913 24.197 21.3047 24.0708 21.148 23.912L15.413 18.195C15.2548 18.0382 15.1293 17.8517 15.0436 17.6462C14.958 17.4406 14.9138 17.2202 14.9138 16.9975C14.9138 16.7748 14.958 16.5543 15.0436 16.3488C15.1293 16.1433 15.2548 15.9567 15.413 15.8L20.435 10.788H11.937V22.677C11.9408 22.9036 11.8989 23.1287 11.8139 23.3389C11.7289 23.549 11.6025 23.7399 11.4422 23.9002C11.282 24.0605 11.0911 24.1869 10.8809 24.2719C10.6708 24.3569 10.4457 24.3988 10.219 24.395L10.049 24.389C9.62236 24.3519 9.22555 24.1548 8.93823 23.8372C8.65091 23.5197 8.49435 23.1052 8.5 22.677V9.34697C8.5 8.28097 9.263 7.49997 10.296 7.49997H23.073Z" fill="white"/>
</g>
<defs>
<clipPath id="clip0_16_1686">
<rect width="32" height="32" fill="white"/>
</clipPath>
</defs>
</svg>
