<svg width="32" height="32" viewBox="0 0 32 32" fill="none" xmlns="http://www.w3.org/2000/svg">
<g clip-path="url(#clip0_16_1776)">
<path d="M16 32C24.8366 32 32 24.8366 32 16C32 7.16344 24.8366 0 16 0C7.16344 0 0 7.16344 0 16C0 24.8366 7.16344 32 16 32Z" fill="#F5342E"/>
<path d="M6.001 16.124C5.9896 15.0099 6.16087 13.9016 6.508 12.843C6.89991 11.6425 7.51578 10.5271 8.323 9.55597C9.23884 8.44172 10.3896 7.54363 11.693 6.92597C12.5568 6.515 13.4779 6.23751 14.425 6.10297C14.9942 6.01873 15.5699 5.98659 16.145 6.00697C17.2806 6.0485 18.3999 6.29091 19.451 6.72297C19.467 6.72997 19.486 6.73697 19.488 6.75697C19.49 6.78297 19.467 6.79097 19.448 6.79897L19.088 6.93897C18.3037 7.24363 17.5371 7.59218 16.792 7.98297C15.965 8.41997 15.171 8.90997 14.434 9.49497C13.794 10.004 13.209 10.57 12.734 11.248C12.414 11.704 12.162 12.194 12.024 12.741C11.848 13.433 11.891 14.118 12.091 14.797C12.238 15.299 12.459 15.769 12.703 16.227C13.011 16.807 13.36 17.362 13.681 17.934C13.973 18.454 14.245 18.984 14.425 19.559C14.55 19.96 14.625 20.371 14.617 20.793C14.6035 21.3403 14.4625 21.8768 14.205 22.36C13.902 22.944 13.487 23.436 13.025 23.89C12.598 24.309 12.134 24.678 11.655 25.03C11.585 25.082 11.53 25.08 11.457 25.042C10.7591 24.6873 10.1062 24.2506 9.512 23.741C8.79144 23.1231 8.16276 22.4055 7.645 21.61C6.79493 20.3037 6.2564 18.8195 6.071 17.272C6.02152 16.8913 5.99813 16.5078 6.001 16.124Z" fill="white"/>
<path d="M12.047 25.241C12.065 25.198 12.11 25.197 12.144 25.185C12.8427 24.9296 13.53 24.644 14.204 24.329C14.994 23.957 15.763 23.545 16.491 23.064C17.0596 22.6946 17.595 22.2763 18.091 21.814C18.579 21.354 19.011 20.85 19.347 20.27C19.619 19.8 19.803 19.299 19.863 18.758C19.9126 18.2661 19.8661 17.7692 19.726 17.295C19.576 16.766 19.341 16.273 19.077 15.792C18.761 15.215 18.402 14.662 18.071 14.094C17.79 13.611 17.528 13.119 17.338 12.592C17.1465 12.0857 17.0653 11.5442 17.1 11.004C17.127 10.634 17.223 10.278 17.372 9.936C17.596 9.422 17.919 8.973 18.294 8.559C18.842 7.952 19.479 7.449 20.143 6.975C20.216 6.922 20.277 6.916 20.358 6.957C21.064 7.311 21.724 7.733 22.333 8.234C22.956 8.747 23.51 9.324 23.993 9.967C25.1401 11.4849 25.8248 13.3016 25.965 15.199C25.987 15.514 26.007 15.829 25.998 16.145C25.9765 17.0646 25.8312 17.9772 25.566 18.858C25.0488 20.5521 24.092 22.0789 22.793 23.283C21.3604 24.6112 19.5762 25.4998 17.653 25.843C16.9758 25.9619 16.2884 26.0135 15.601 25.997C14.4175 25.9668 13.2482 25.7316 12.145 25.302C12.109 25.286 12.067 25.282 12.047 25.242V25.241Z" fill="white"/>
</g>
<defs>
<clipPath id="clip0_16_1776">
<rect width="32" height="32" fill="white"/>
</clipPath>
</defs>
</svg>
