<svg width="32" height="32" viewBox="0 0 32 32" fill="none" xmlns="http://www.w3.org/2000/svg">
<g clip-path="url(#clip0_16_1782)">
<path d="M16 32C24.8366 32 32 24.8366 32 16C32 7.16344 24.8366 0 16 0C7.16344 0 0 7.16344 0 16C0 24.8366 7.16344 32 16 32Z" fill="black"/>
<path d="M22.514 8.492V9.483H9.81V22.517H22.514V24.5L15.094 24.443L7.644 24.358L7.558 15.915L7.5 7.5H22.514V8.492Z" fill="white"/>
<path d="M23.698 10.9C24.824 11.212 25.806 12.09 26.123 13.082C26.296 13.677 26.21 13.733 25.199 13.733C24.419 13.733 23.987 13.563 23.727 13.167C23.294 12.458 21.33 12.373 20.753 13.053C20.118 13.818 20.811 14.385 23.063 14.895C24.189 15.15 25.373 15.575 25.69 15.858C27.134 17.133 26.556 19.938 24.68 20.703C23.41 21.213 21.33 21.213 20.06 20.703C19.194 20.335 18.183 19.06 18.183 18.267C18.183 17.757 20.06 17.955 20.551 18.55C21.591 19.712 24.015 19.542 24.189 18.295C24.333 17.332 23.784 16.907 22.139 16.708C19.454 16.34 18.472 15.518 18.472 13.648C18.472 11.438 20.897 10.135 23.698 10.9Z" fill="white"/>
</g>
<defs>
<clipPath id="clip0_16_1782">
<rect width="32" height="32" fill="white"/>
</clipPath>
</defs>
</svg>
