<svg width="32" height="32" viewBox="0 0 32 32" fill="none" xmlns="http://www.w3.org/2000/svg">
<g clip-path="url(#clip0_16_1816)">
<path d="M16 32C24.8366 32 32 24.8366 32 16C32 7.16344 24.8366 0 16 0C7.16344 0 0 7.16344 0 16C0 24.8366 7.16344 32 16 32Z" fill="#5FCDF9"/>
<path d="M11.092 12.264C11.0339 12.1887 10.9591 12.1279 10.8736 12.0862C10.7881 12.0446 10.6941 12.0233 10.599 12.024H6.619C6.587 12.0233 6.55638 12.0109 6.533 11.989C6.51227 11.9687 6.50041 11.941 6.5 11.912V9.11201C6.50041 9.08299 6.51227 9.05532 6.533 9.03501C6.54337 9.02263 6.55667 9.01304 6.57169 9.0071C6.58671 9.00116 6.60297 8.99907 6.619 9.00101H10.825C11.885 9.00101 12.8 9.45501 13.572 10.36L14.595 11.663L12.603 14.197L11.092 12.264ZM18.443 10.347C19.211 9.45101 20.131 9.00101 21.203 9.00101H25.396C25.4101 8.99969 25.4243 9.00132 25.4377 9.0058C25.4512 9.01028 25.4635 9.0175 25.474 9.02701C25.4844 9.0383 25.4921 9.05185 25.4964 9.06659C25.5008 9.08133 25.5016 9.09687 25.499 9.11201V11.912C25.499 11.942 25.491 11.968 25.474 11.989C25.4652 12.0011 25.4533 12.0106 25.4396 12.0166C25.4259 12.0226 25.4109 12.0248 25.396 12.023H21.416C21.3211 12.0225 21.2273 12.0438 21.1419 12.0855C21.0566 12.1271 20.982 12.1878 20.924 12.263L17.99 15.99L20.935 19.742C21.055 19.883 21.231 19.969 21.412 19.965H25.392C25.4066 19.964 25.4213 19.9665 25.4347 19.9725C25.4481 19.9784 25.4599 19.9875 25.469 19.999C25.4874 20.0253 25.4962 20.057 25.494 20.089V22.889C25.4948 22.9168 25.486 22.944 25.469 22.966C25.4602 22.9781 25.4483 22.9876 25.4346 22.9936C25.4209 22.9996 25.4059 23.0018 25.391 23H21.202C20.13 23 19.218 22.546 18.454 21.641L16.014 18.533L13.575 21.641C12.807 22.546 11.887 23.001 10.815 23.001H6.62C6.60512 23.0021 6.59019 22.9995 6.57658 22.9934C6.56296 22.9873 6.55108 22.9778 6.542 22.966C6.53208 22.9534 6.52476 22.939 6.52047 22.9235C6.51617 22.9081 6.515 22.8919 6.517 22.876V20.076C6.517 20.046 6.526 20.02 6.542 19.999C6.5508 19.9869 6.56266 19.9774 6.57638 19.9714C6.59009 19.9654 6.60515 19.9632 6.62 19.965H10.6C10.789 19.965 10.97 19.875 11.093 19.725L13.972 16.055L18.444 10.348L18.443 10.347Z" fill="white"/>
</g>
<defs>
<clipPath id="clip0_16_1816">
<rect width="32" height="32" fill="white"/>
</clipPath>
</defs>
</svg>
