<svg width="32" height="32" viewBox="0 0 32 32" fill="none" xmlns="http://www.w3.org/2000/svg">
<g clip-path="url(#clip0_16_1830)">
<path d="M16 32C24.8366 32 32 24.8366 32 16C32 7.16344 24.8366 0 16 0C7.16344 0 0 7.16344 0 16C0 24.8366 7.16344 32 16 32Z" fill="#0971FE"/>
<path fill-rule="evenodd" clip-rule="evenodd" d="M15.775 4.54799C15.341 4.62199 15.362 4.61299 14.334 5.22399C13.703 5.59899 13.334 5.81399 13.318 5.81399C13.2818 5.82996 13.2476 5.8501 13.216 5.87399C13.168 5.90899 12.97 6.02899 12.776 6.14399C12.3217 6.41371 11.8663 6.68171 11.41 6.94799C11.171 7.08799 10.636 7.40199 10.22 7.64799L9.144 8.27799C8.588 8.59999 6.9 9.60399 6.794 9.67699C6.51 9.87299 6.142 10.434 6.091 10.747C6.078 10.827 6.053 10.902 6.034 10.914C5.982 10.948 5.993 20.982 6.045 21.132L6.163 21.466C6.299 21.854 6.623 22.25 6.963 22.446C7.049 22.495 7.387 22.693 7.714 22.887C8.32915 23.2518 8.94515 23.6151 9.562 23.977C9.597 23.997 9.677 24.047 9.739 24.085C9.801 24.125 9.887 24.175 9.932 24.197C9.976 24.22 10.184 24.342 10.392 24.468C10.772 24.698 10.852 24.745 11.185 24.933C11.282 24.988 11.506 25.119 11.683 25.225C12.6699 25.8029 13.6553 26.3836 14.639 26.967C15.769 27.635 16.239 27.663 17.162 27.12C18.0084 26.6223 18.8544 26.124 19.7 25.625C20.83 24.962 21.532 24.547 22.207 24.145C22.588 23.918 22.9703 23.6933 23.354 23.471L23.707 23.265C25.512 22.228 25.683 22.085 25.924 21.403L26 21.191L25.999 16.009L25.998 10.826L25.924 10.61C25.744 10.08 25.454 9.765 24.81 9.39199C24.571 9.25399 23.913 8.86799 23.347 8.53499C22.1366 7.82197 20.9266 7.1083 19.717 6.39399C18.557 5.70799 18.109 5.44399 17.965 5.36199C17.663 5.18799 16.985 4.77999 16.969 4.76199C16.909 4.69399 16.133 4.47699 16.034 4.50199L15.774 4.54799H15.775ZM16.604 7.43099C16.8 7.49799 18.493 8.47799 22.03 10.573C23.045 11.174 23.178 11.287 23.44 11.767C23.663 12.178 23.656 12.039 23.645 16.09L23.636 19.735L23.564 19.939C23.4597 20.2376 23.2926 20.5104 23.074 20.739C22.897 20.917 22.791 20.985 21.622 21.671C21.44 21.778 21.069 21.997 20.799 22.159C20.528 22.321 20.299 22.445 20.289 22.436C20.28 22.426 20.269 20.313 20.265 17.74L20.258 13.062L20.189 12.87C19.99 12.312 19.842 12.176 18.688 11.495L17.756 10.945L17.74 12.825L17.724 14.705H14.382L14.374 11.363L14.366 8.02099L14.763 7.78899C15.581 7.30999 16.011 7.226 16.604 7.43099ZM11.86 14.253C11.86 19.025 11.86 19.068 11.99 19.346C12.18 19.757 12.382 19.94 13.113 20.358C13.298 20.464 13.515 20.591 13.595 20.64C13.815 20.778 14.325 21.066 14.346 21.066C14.356 21.066 14.369 20.234 14.374 19.217L14.382 17.368L16.062 17.359L17.74 17.351L17.732 20.661L17.724 23.971L17.258 24.245C16.238 24.844 15.808 24.831 14.686 24.17L13.53 23.491C13.0891 23.2336 12.65 22.9729 12.213 22.709L11.595 22.344C11.3176 22.1779 11.0386 22.0146 10.758 21.854C10.5073 21.7108 10.2586 21.5641 10.012 21.414C9.86767 21.3268 9.723 21.2401 9.578 21.154C8.93 20.774 8.648 20.435 8.488 19.849C8.398 19.513 8.384 12.578 8.473 12.214C8.593 11.725 8.887 11.293 9.273 11.038C9.667 10.777 11.748 9.56399 11.803 9.56299C11.858 9.56099 11.86 9.79099 11.86 14.253Z" fill="white"/>
</g>
<defs>
<clipPath id="clip0_16_1830">
<rect width="32" height="32" fill="white"/>
</clipPath>
</defs>
</svg>
