<svg width="32" height="32" viewBox="0 0 32 32" fill="none" xmlns="http://www.w3.org/2000/svg">
<g clip-path="url(#clip0_16_1854)">
<path d="M16 32C24.8366 32 32 24.8366 32 16C32 7.16344 24.8366 0 16 0C7.16344 0 0 7.16344 0 16C0 24.8366 7.16344 32 16 32Z" fill="#4BA2F2"/>
<path d="M9.87001 8.229C10.086 8.266 9.54801 9.699 9.84801 11.336C10.108 12.739 13.355 18.172 13.221 20.036C13.117 21.206 10.451 23.951 10.17 23.768C9.86301 23.683 10.98 21.818 10.566 20.264C10.084 18.452 7.22601 13.768 7.22901 11.7C7.22901 10.187 9.67701 8.131 9.86901 8.229H9.87001ZM15.979 6.089C16.253 6.136 15.569 7.965 15.951 10.048C16.281 11.84 20.424 18.768 20.252 21.143C20.118 22.637 16.72 26.134 16.36 25.903C15.97 25.796 17.394 23.417 16.866 21.435C16.253 19.127 12.608 13.153 12.611 10.516C12.611 8.585 15.733 5.966 15.979 6.09V6.089ZM22.284 8.229C22.5 8.266 21.963 9.699 22.262 11.336C22.522 12.739 25.769 18.172 25.636 20.036C25.533 21.206 22.866 23.951 22.584 23.768C22.278 23.683 23.394 21.818 22.98 20.264C22.499 18.452 19.64 13.768 19.643 11.7C19.643 10.187 22.093 8.131 22.284 8.229Z" fill="white"/>
</g>
<defs>
<clipPath id="clip0_16_1854">
<rect width="32" height="32" fill="white"/>
</clipPath>
</defs>
</svg>
