<svg width="32" height="32" viewBox="0 0 32 32" fill="none" xmlns="http://www.w3.org/2000/svg">
<g clip-path="url(#clip0_16_1870)">
<path d="M16 32C24.8366 32 32 24.8366 32 16C32 7.16344 24.8366 0 16 0C7.16344 0 0 7.16344 0 16C0 24.8366 7.16344 32 16 32Z" fill="#2DC4E7"/>
<path d="M5.155 9.03599C6.226 9.03599 7.333 8.96399 8.405 9.05999C8.881 9.59499 8.988 10.345 9.357 10.964C14.167 10.988 19 10.964 23.81 10.964C24.167 10.988 24.607 11 24.786 11.357C25 11.75 24.846 12.214 24.643 12.571C23.667 14.226 22.738 15.905 21.786 17.571C21.429 18.167 21.19 18.833 20.655 19.298C20.215 19.667 19.607 19.69 19.048 19.69H12.38C12.023 19.69 11.642 19.655 11.428 19.369C10.738 18.595 10.368 17.607 9.916 16.702C9.13324 15.1349 8.36719 13.5594 7.618 11.976C7.463 11.619 7.273 11.298 7.094 10.964C6.464 10.964 5.832 10.964 5.214 10.94C5.094 10.31 5.094 9.66699 5.154 9.03599H5.155ZM12.667 20.976C13.1514 20.8609 13.6551 20.8527 14.143 20.952C14.69 21.072 15.167 21.488 15.298 22.036C15.44 22.666 15.44 23.346 15.19 23.952C14.952 24.5 14.357 24.762 13.798 24.81C13.155 24.857 12.417 24.81 11.94 24.333C11.429 23.762 11.429 22.929 11.536 22.214C11.607 21.619 12.083 21.107 12.666 20.976H12.667ZM18.619 20.976C19.214 20.846 19.857 20.857 20.429 21.071C20.976 21.298 21.262 21.893 21.309 22.452C21.381 23.107 21.309 23.857 20.833 24.357C20.393 24.774 19.75 24.833 19.167 24.821C18.595 24.798 17.977 24.583 17.679 24.048C17.395 23.4677 17.3191 22.8075 17.464 22.178C17.584 21.595 18.036 21.108 18.619 20.976Z" fill="white"/>
</g>
<defs>
<clipPath id="clip0_16_1870">
<rect width="32" height="32" fill="white"/>
</clipPath>
</defs>
</svg>
