<svg width="32" height="32" viewBox="0 0 32 32" fill="none" xmlns="http://www.w3.org/2000/svg">
<g clip-path="url(#clip0_16_1922)">
<path d="M16 32C24.8366 32 32 24.8366 32 16C32 7.16344 24.8366 0 16 0C7.16344 0 0 7.16344 0 16C0 24.8366 7.16344 32 16 32Z" fill="#434247"/>
<path d="M16 4C12.8409 4 9.81114 5.25496 7.5773 7.4888C5.34346 9.72264 4.0885 12.7524 4.0885 15.9115C4.0885 19.0706 5.34346 22.1004 7.5773 24.3342C9.81114 26.568 12.8409 27.823 16 27.823C22.579 27.823 27.911 22.49 27.911 15.911C27.911 9.333 22.58 4 16 4ZM16 27.341C9.682 27.341 4.56 22.219 4.56 15.901C4.56 9.585 9.683 4.463 16 4.463C22.317 4.463 27.44 9.585 27.44 15.903C27.44 22.22 22.318 27.342 16 27.342" fill="white"/>
<path d="M17.308 17.082H20.328V21.538C20.328 21.98 19.875 22.216 19.443 22.443C19.02 22.669 18.331 22.62 17.17 22.62H15.754C13.58 22.669 12.97 22.502 12.449 22.275C11.928 22.039 11.662 21.705 11.662 21.272V17.082H10.098V21.803C10.098 22.059 10.226 22.354 10.423 22.62C10.649 22.925 10.62 23.013 11.111 23.259C11.554 23.485 11.997 23.662 12.793 23.761C13.413 23.839 13.305 23.82 14.407 23.839H17.023C18.99 23.8 19.393 23.938 20.563 23.348C21.518 22.875 21.843 22.325 21.911 21.97V15.548H17.318V17.082H17.308ZM13.236 7.993C12.439 8.043 11.78 8.289 11.269 8.485C10.748 8.682 10.639 8.918 10.423 9.174C10.223 9.406 10.111 9.703 10.108 10.01V15.243H11.682V10.51C11.682 10.107 11.928 9.783 12.41 9.547C12.902 9.301 13.62 9.183 14.289 9.183H17.357C18.527 9.183 19.157 9.163 19.521 9.379C19.895 9.615 20.338 9.822 20.338 10.265V11.514H21.911V9.833C21.882 9.616 21.646 8.997 20.534 8.475C19.531 8.003 19.207 7.974 17.633 7.974" fill="white"/>
</g>
<defs>
<clipPath id="clip0_16_1922">
<rect width="32" height="32" fill="white"/>
</clipPath>
</defs>
</svg>
