<svg width="32" height="32" viewBox="0 0 32 32" fill="none" xmlns="http://www.w3.org/2000/svg">
<g clip-path="url(#clip0_16_1983)">
<path d="M16 32C24.8366 32 32 24.8366 32 16C32 7.16344 24.8366 0 16 0C7.16344 0 0 7.16344 0 16C0 24.8366 7.16344 32 16 32Z" fill="#2B2E7F"/>
<path d="M17.057 19.028V13.168H17.827C20.372 13.168 20.999 10.795 20.999 10.795H14.316C11.144 10.795 10.606 13.169 10.606 13.169H14.549V21.986C14.549 21.986 17.057 21.233 17.057 19.028Z" fill="white"/>
<path d="M24.395 23.594C26.643 21.258 27.505 18.014 26.696 14.911C26.2691 13.2873 25.4124 11.8088 24.216 10.631C24.108 10.525 24 10.417 23.874 10.311L23.766 10.204C23.6927 10.1333 23.6145 10.0678 23.532 10.008L23.388 9.90096L23.173 9.74096L23.046 9.65096C22.9602 9.59475 22.8765 9.53538 22.795 9.47296L22.632 9.36696C22.5648 9.31808 22.4928 9.27619 22.417 9.24196L22.255 9.13496C22.183 9.09896 22.111 9.04496 22.039 9.00996L21.877 8.91996C21.805 8.88496 21.733 8.84896 21.643 8.81396L21.588 8.79596C21.786 8.95596 21.983 9.13496 22.163 9.31296C22.9834 10.1264 23.6346 11.0943 24.079 12.1608C24.5235 13.2272 24.7523 14.3711 24.7523 15.5265C24.7523 16.6818 24.5235 17.8257 24.079 18.8922C23.6346 19.9586 22.9834 20.9265 22.163 21.74C17.777 26.09 10.658 26.09 6.27001 21.74C6.10801 21.58 5.96401 21.42 5.80301 21.26L5.67701 21.117C5.58279 21.0074 5.49273 20.8943 5.40701 20.778C5.97105 21.8841 6.70533 22.8947 7.58301 23.773C12.167 28.319 19.609 28.319 24.193 23.773C24.2729 23.7287 24.3419 23.6672 24.395 23.593V23.594Z" fill="white"/>
<path d="M10.4 22.386C10.1999 22.2228 10.0077 22.0503 9.82401 21.869C9.00273 21.0548 8.35085 20.086 7.90598 19.0185C7.46112 17.951 7.23207 16.806 7.23207 15.6495C7.23207 14.493 7.46112 13.348 7.90598 12.2805C8.35085 11.213 9.00273 10.2442 9.82401 9.42998C14.215 5.07598 21.34 5.07598 25.731 9.42998C26.037 9.73398 26.324 10.055 26.594 10.394C26.0294 9.29248 25.2947 8.28681 24.417 7.41398C19.829 2.86298 12.379 2.86298 7.79101 7.41398C7.73701 7.46698 7.68301 7.53898 7.61101 7.59198C4.57001 10.769 4.15601 15.516 6.58601 19.121C7.54001 20.511 8.87001 21.671 10.4 22.386Z" fill="white"/>
</g>
<defs>
<clipPath id="clip0_16_1983">
<rect width="32" height="32" fill="white"/>
</clipPath>
</defs>
</svg>
