<svg width="32" height="32" viewBox="0 0 32 32" fill="none" xmlns="http://www.w3.org/2000/svg">
<g clip-path="url(#clip0_16_1994)">
<path d="M16 32C24.8366 32 32 24.8366 32 16C32 7.16344 24.8366 0 16 0C7.16344 0 0 7.16344 0 16C0 24.8366 7.16344 32 16 32Z" fill="#00EA90"/>
<path d="M18.215 7.508L25.992 11.576L18.499 16.169L18.215 7.508ZM13.785 24.449L6.008 20.381L13.501 15.787L13.785 24.449Z" fill="white" fill-opacity="0.698"/>
<path d="M25.992 20.679L15.179 27V18.131L25.992 11.576V20.679ZM6.008 11.279L16.821 5V13.834L6.008 20.381V11.278V11.279Z" fill="white"/>
</g>
<defs>
<clipPath id="clip0_16_1994">
<rect width="32" height="32" fill="white"/>
</clipPath>
</defs>
</svg>
