<svg width="32" height="32" viewBox="0 0 32 32" fill="none" xmlns="http://www.w3.org/2000/svg">
<g clip-path="url(#clip0_16_2013)">
<path d="M16 32C24.8366 32 32 24.8366 32 16C32 7.16344 24.8366 0 16 0C7.16344 0 0 7.16344 0 16C0 24.8366 7.16344 32 16 32Z" fill="#F58634"/>
<path d="M13.288 22.732H13.292C14.481 22.588 15.481 22.228 16.292 21.652C17.366 20.882 17.903 19.904 17.903 18.718C17.903 17.718 17.51 16.881 16.725 16.196C15.938 15.513 14.872 15.098 13.527 14.954C13.07 14.895 12.422 14.852 11.59 14.804C9.77601 14.694 8.59901 14.446 8.05301 14.057C7.85891 13.9178 7.69553 13.7401 7.57301 13.535C7.46923 13.3486 7.41548 13.1384 7.41701 12.925C7.41701 12.364 7.74101 11.89 8.39401 11.517C9.04601 11.145 9.87001 10.955 10.872 10.955C11.821 10.955 12.762 11.117 13.652 11.435C17.478 12.799 21.132 17.567 23.565 20.981C21.582 22.186 18.881 22.929 15.905 22.929C15.029 22.929 14.154 22.864 13.288 22.732ZM9.00901 20.79C5.51601 19.515 3.98701 16.364 5.71201 13.304C5.76001 13.734 5.91901 14.147 6.17501 14.504C6.49501 14.953 6.96501 15.318 7.58201 15.605C9.73701 16.541 13.7 15.943 15.332 17.132C15.881 17.532 16.156 18.043 16.156 18.666C16.156 19.449 15.773 20.09 15.007 20.588C14.242 21.086 13.246 21.335 12.02 21.335C10.9927 21.3292 9.97416 21.1448 9.01001 20.79H9.00901Z" fill="white"/>
<path opacity="0.5" d="M25.912 18.875V13.021C26.569 13.91 26.936 14.903 26.936 15.948C26.936 16.994 26.569 17.985 25.912 18.875ZM24.263 11.415L24.268 18.876C21.925 15.55 18.424 11.365 14.121 9.96699C13.3766 9.7239 12.6076 9.56393 11.828 9.48999C13.162 9.16125 14.5311 8.9967 15.905 8.99999C19.245 8.99999 22.24 9.93599 24.263 11.415Z" fill="white"/>
</g>
<defs>
<clipPath id="clip0_16_2013">
<rect width="32" height="32" fill="white"/>
</clipPath>
</defs>
</svg>
