<svg width="32" height="32" viewBox="0 0 32 32" fill="none" xmlns="http://www.w3.org/2000/svg">
<g clip-path="url(#clip0_16_2057)">
<path d="M16 32C24.8366 32 32 24.8366 32 16C32 7.16344 24.8366 0 16 0C7.16344 0 0 7.16344 0 16C0 24.8366 7.16344 32 16 32Z" fill="#408AF1"/>
<path d="M23.049 10.277C23.1556 10.0958 23.2974 9.93786 23.466 9.81241C23.6346 9.68695 23.8266 9.59653 24.0307 9.54648C24.2348 9.49643 24.4469 9.48776 24.6544 9.52099C24.862 9.55422 25.0607 9.62867 25.239 9.73995C25.989 10.2099 26.225 11.2099 25.765 11.9769C24.061 14.8149 22.138 17.7849 20.535 20.0529C18.195 23.3629 17.688 24.4999 16 24.4999C14.312 24.4999 13.932 23.497 11.525 20.044C10.095 17.9939 8.302 15.249 6.255 12.008C6.02571 11.6452 5.94705 11.2073 6.03577 10.7874C6.12448 10.3676 6.37357 9.99893 6.73 9.75995C6.90556 9.64436 7.1025 9.56512 7.30919 9.52693C7.51588 9.48873 7.72813 9.49234 7.9334 9.53755C8.13867 9.58276 8.3328 9.66866 8.50431 9.79016C8.67583 9.91166 8.82126 10.0663 8.932 10.2449C10.955 13.4469 15.525 20.1209 16.013 20.7159C16.523 20.1119 21.385 13.0489 23.049 10.2759V10.277Z" fill="white"/>
</g>
<defs>
<clipPath id="clip0_16_2057">
<rect width="32" height="32" fill="white"/>
</clipPath>
</defs>
</svg>
