<svg width="32" height="32" viewBox="0 0 32 32" fill="none" xmlns="http://www.w3.org/2000/svg">
<g clip-path="url(#clip0_16_2065)">
<path d="M16 32C24.8366 32 32 24.8366 32 16C32 7.16344 24.8366 0 16 0C7.16344 0 0 7.16344 0 16C0 24.8366 7.16344 32 16 32Z" fill="#3165D4"/>
<path fill-rule="evenodd" clip-rule="evenodd" d="M8.84601 7.42798C9.39701 6.95498 10.17 6.56798 10.842 6.84098C12.052 7.33098 15.298 13.885 15.298 13.885C15.298 13.885 19.841 7.42498 21.472 6.83698C22.029 6.63598 22.792 6.98898 23.374 7.42498C25.416 8.95298 25.627 11.085 25.451 11.677C25.229 12.421 13.946 26.75 13.946 26.75C13.608 26.612 6.92301 14.193 6.56101 12.068C6.21501 10.037 7.39301 8.65698 8.84601 7.42798Z" fill="white"/>
</g>
<defs>
<clipPath id="clip0_16_2065">
<rect width="32" height="32" fill="white"/>
</clipPath>
</defs>
</svg>
