<svg width="32" height="32" viewBox="0 0 32 32" fill="none" xmlns="http://www.w3.org/2000/svg">
<g clip-path="url(#clip0_16_2095)">
<path d="M16 32C24.8366 32 32 24.8366 32 16C32 7.16344 24.8366 0 16 0C7.16344 0 0 7.16344 0 16C0 24.8366 7.16344 32 16 32Z" fill="#201A2D"/>
<path d="M22.818 9.586L22.218 10.186C23.6497 11.7517 24.4437 13.7964 24.4437 15.918C24.4437 18.0396 23.6497 20.0843 22.218 21.65L22.818 22.25C24.4102 20.523 25.2942 18.26 25.2942 15.911C25.2942 13.562 24.4102 11.299 22.818 9.572V9.586ZM10.2 9.638C11.7657 8.2063 13.8104 7.41235 15.932 7.41235C18.0536 7.41235 20.0983 8.2063 21.664 9.638L22.264 9.038C20.537 7.4458 18.274 6.56183 15.925 6.56183C13.576 6.56183 11.313 7.4458 9.586 9.038L10.2 9.638ZM9.638 21.656C8.208 20.0907 7.41509 18.0472 7.41509 15.927C7.41509 13.8068 8.208 11.7633 9.638 10.198L9.038 9.598C7.4458 11.325 6.56183 13.588 6.56183 15.937C6.56183 18.286 7.4458 20.549 9.038 22.276L9.638 21.656ZM21.656 22.21C20.0903 23.6417 18.0456 24.4357 15.924 24.4357C13.8024 24.4357 11.7577 23.6417 10.192 22.21L9.592 22.81C11.319 24.4022 13.582 25.2862 15.931 25.2862C18.28 25.2862 20.543 24.4022 22.27 22.81L21.656 22.21ZM19.714 13.924C19.594 12.672 18.514 12.252 17.148 12.124V10.4H16.092V12.092H15.248V10.4H14.2V12.136H12.058V13.266C12.058 13.266 12.838 13.252 12.826 13.266C12.9666 13.2505 13.1078 13.2903 13.2197 13.3768C13.3316 13.4634 13.4056 13.59 13.426 13.73V18.482C13.423 18.5314 13.4101 18.5797 13.3881 18.624C13.3661 18.6683 13.3355 18.7077 13.298 18.74C13.2612 18.7729 13.2181 18.798 13.1714 18.8138C13.1247 18.8296 13.0752 18.8358 13.026 18.832C13.04 18.844 12.258 18.832 12.258 18.832L12.058 20.094H14.18V21.858H15.236V20.12H16.08V21.85H17.138V20.106C18.922 19.998 20.166 19.558 20.322 17.888C20.448 16.544 19.816 15.944 18.806 15.702C19.42 15.4 19.8 14.84 19.714 13.924ZM18.234 17.68C18.234 18.992 15.986 18.842 15.27 18.842V16.514C15.986 16.516 18.234 16.31 18.234 17.68ZM17.744 14.4C17.744 15.6 15.868 15.454 15.272 15.454V13.338C15.868 13.338 17.744 13.15 17.744 14.4Z" fill="white"/>
<path d="M15.924 26.852C9.89 26.851 5 21.959 5 15.925C5 9.892 9.892 5 15.925 5C21.959 5 26.851 9.89 26.852 15.924C26.8523 17.3592 26.5698 18.7803 26.0207 20.1063C25.4716 21.4322 24.6667 22.637 23.6518 23.6518C22.637 24.6667 21.4322 25.4716 20.1063 26.0207C18.7803 26.5698 17.3592 26.8523 15.924 26.852ZM15.924 5.852C10.365 5.856 5.862 10.365 5.864 15.924C5.866 21.483 10.374 25.988 15.932 25.988C21.491 25.988 25.998 21.483 26 15.924C26.0005 14.6008 25.7402 13.2906 25.234 12.0681C24.7278 10.8456 23.9855 9.73486 23.0497 8.79943C22.1139 7.864 21.0029 7.12221 19.7802 6.61647C18.5575 6.11072 17.2472 5.85095 15.924 5.852Z" fill="white"/>
</g>
<defs>
<clipPath id="clip0_16_2095">
<rect width="32" height="32" fill="white"/>
</clipPath>
</defs>
</svg>
