<svg width="32" height="32" viewBox="0 0 32 32" fill="none" xmlns="http://www.w3.org/2000/svg">
<g clip-path="url(#clip0_16_2127)">
<path d="M16 32C24.8366 32 32 24.8366 32 16C32 7.16344 24.8366 0 16 0C7.16344 0 0 7.16344 0 16C0 24.8366 7.16344 32 16 32Z" fill="#3B5998"/>
<path fill-rule="evenodd" clip-rule="evenodd" d="M14.116 6.01001H15.996V11.892L14.116 9.92901V6.01001Z" fill="white"/>
<path fill-rule="evenodd" clip-rule="evenodd" d="M6.01099 7.99307H10.96C12.637 9.74807 14.321 11.5001 15.998 13.2591C16.969 12.2501 17.937 11.2341 18.904 10.2221C19.619 9.48107 20.331 8.73607 21.044 7.99207H25.981C23.677 10.3221 21.376 12.6541 19.071 14.9821C18.829 15.2251 18.586 15.4701 18.349 15.7161C18.407 15.7781 18.469 15.8391 18.521 15.9051L25.292 22.7511L25.983 23.4471H22.153C22.054 23.4471 21.955 23.4531 21.858 23.4401C21.585 23.4321 21.311 23.4441 21.038 23.4341C20.543 22.9231 20.054 22.4051 19.559 21.8921C18.586 20.8801 17.617 19.8621 16.644 18.8481C16.428 18.6241 16.217 18.3941 15.996 18.1761C15.526 18.6761 15.044 19.1691 14.571 19.6691L11.894 22.4631C11.582 22.7881 11.274 23.1151 10.96 23.4341C10.69 23.4421 10.418 23.4341 10.146 23.4381C9.99099 23.4571 9.83399 23.4441 9.67899 23.4481H6.00999L13.278 16.0981C13.403 15.9721 13.527 15.8451 13.648 15.7161L6.00999 7.99307H6.01099Z" fill="white"/>
<path fill-rule="evenodd" clip-rule="evenodd" d="M16 19.531C16.626 20.194 17.26 20.85 17.888 21.511C17.892 22.818 17.888 24.123 17.888 25.431H15.998C15.998 23.464 15.998 21.498 16.002 19.531H16Z" fill="white"/>
</g>
<defs>
<clipPath id="clip0_16_2127">
<rect width="32" height="32" fill="white"/>
</clipPath>
</defs>
</svg>
