<svg width="32" height="32" viewBox="0 0 32 32" fill="none" xmlns="http://www.w3.org/2000/svg">
<g clip-path="url(#clip0_16_2138)">
<path d="M16 32C24.8366 32 32 24.8366 32 16C32 7.16344 24.8366 0 16 0C7.16344 0 0 7.16344 0 16C0 24.8366 7.16344 32 16 32Z" fill="#F7931A"/>
<path d="M25.977 19.7539L25.432 21.9369L23.977 21.5749L24.521 19.3909L22.338 18.8469L22.701 17.3919L24.884 17.9359L25.429 15.7529L26.884 16.1159L26.34 18.2989L28.523 18.8429L28.16 20.2989L25.977 19.7539ZM20.61 13.7599C20.407 15.1099 19.671 15.7659 18.698 15.9999C20.029 16.7029 20.703 17.7869 20.046 19.6769C19.23 22.0239 17.32 22.2319 14.784 21.7569L14.154 24.2789L12.668 23.9089L13.289 21.4189C12.8932 21.321 12.4985 21.2186 12.105 21.1119L11.481 23.6119L9.997 23.2419L10.627 20.7139C10.279 20.6249 9.927 20.5309 9.567 20.4409L7.632 19.9579L8.38 18.2159C8.38 18.2159 9.475 18.5069 9.46 18.4859C9.882 18.5889 10.07 18.3079 10.145 18.1209L11.139 14.1329L11.297 14.1719C11.2465 14.1518 11.1947 14.1351 11.142 14.1219L11.852 11.2749C11.872 10.9519 11.765 10.5459 11.162 10.3949C11.186 10.3799 10.083 10.1269 10.083 10.1269L10.488 8.50295L12.538 9.01495L12.536 9.02195C12.844 9.09895 13.162 9.17195 13.486 9.24495L14.109 6.74695L15.595 7.11695L14.984 9.56695C15.383 9.65695 15.784 9.74895 16.174 9.84695L16.781 7.41395L18.268 7.78395L17.645 10.2829C19.521 10.9329 20.89 11.9159 20.61 13.7599ZM17.183 18.6449C17.674 16.6749 14.441 16.1849 13.433 15.9329L12.6 19.2799C13.608 19.5299 16.715 20.5329 17.185 18.6439L17.183 18.6449ZM17.67 13.7489C18.116 11.9559 15.412 11.5719 14.573 11.3629L13.816 14.3999C14.655 14.6099 17.241 15.4669 17.67 13.7489Z" fill="white"/>
</g>
<defs>
<clipPath id="clip0_16_2138">
<rect width="32" height="32" fill="white"/>
</clipPath>
</defs>
</svg>
