<svg width="32" height="32" viewBox="0 0 32 32" fill="none" xmlns="http://www.w3.org/2000/svg">
<g clip-path="url(#clip0_16_2189)">
<path d="M16 32C24.8366 32 32 24.8366 32 16C32 7.16344 24.8366 0 16 0C7.16344 0 0 7.16344 0 16C0 24.8366 7.16344 32 16 32Z" fill="#EC1076"/>
<path fill-rule="evenodd" clip-rule="evenodd" d="M21.05 21C20.448 21 19.787 20.697 19.787 19.788C19.787 19.34 20.137 17.963 20.835 15.656C20.978 15.3 21.049 14.98 21.049 14.697C21.049 14.152 20.629 13.607 19.847 13.607C19.393 13.607 18.404 13.787 18.104 14.757C17.904 15.404 17.443 17.121 16.721 19.909C16.441 20.636 15.94 21 15.219 21C14.137 21 13.956 20.212 13.956 19.727C13.956 19.535 14.244 18.374 14.821 16.247C15.046 15.537 15.158 15.02 15.158 14.697C15.158 14.212 14.798 13.607 13.956 13.607C13.115 13.607 12.333 14.212 11.973 15.545C11.733 16.435 11.392 17.768 10.951 19.545C10.711 20.515 10.169 21 9.328 21C8.566 21 8.166 20.576 8.126 19.727L9.508 13.97H6.443C6.25307 13.9766 6.06373 13.9452 5.88613 13.8775C5.70853 13.8099 5.54625 13.7074 5.40885 13.5761C5.27145 13.4448 5.16171 13.2873 5.08607 13.113C5.01044 12.9386 4.97044 12.7509 4.96844 12.5609C4.96644 12.3708 5.00248 12.1823 5.07442 12.0064C5.14637 11.8305 5.25277 11.6708 5.38738 11.5366C5.52198 11.4024 5.68206 11.2965 5.8582 11.2252C6.03433 11.1538 6.22297 11.1184 6.413 11.121H11.552C12.273 11.121 12.714 11.465 12.874 12.151C13.596 11.243 14.557 11 15.4 11C16.243 11 17.323 11.485 17.804 12.576C18.464 11.848 19.607 11 21.23 11C22.732 11 23.995 12.03 23.995 13.848C23.995 14.535 23.654 15.97 22.973 18.152L25.61 18.134C26.381 18.134 27 18.776 27 19.567C27 20.358 26.381 21 25.617 21H21.05Z" fill="white"/>
</g>
<defs>
<clipPath id="clip0_16_2189">
<rect width="32" height="32" fill="white"/>
</clipPath>
</defs>
</svg>
